<svg width="16" height="16" viewBox="0 0 16 16" xmlns="http://www.w3.org/2000/svg">
<path fill-rule="evenodd" clip-rule="evenodd" d="M8.50001 2.50001C8.50001 2.22387 8.27615 2.00001 8.00001 2.00001C7.72386 2.00001 7.50001 2.22386 7.50001 2.50001L7.50001 12.1849L4.37371 8.66783C4.19025 8.46143 3.87421 8.44284 3.66782 8.6263C3.46143 8.80976 3.44284 9.1258 3.6263 9.33219L7.6263 13.8322C7.72118 13.9389 7.85719 14 8.00001 14C8.14282 14 8.27883 13.9389 8.37371 13.8322L12.3737 9.33219C12.5572 9.1258 12.5386 8.80976 12.3322 8.6263C12.1258 8.44284 11.8098 8.46143 11.6263 8.66783L8.50001 12.1849L8.50001 2.50001Z"/>
</svg>
