<svg width="16" height="16" viewBox="0 0 16 16" xmlns="http://www.w3.org/2000/svg">
<path fill-rule="evenodd" clip-rule="evenodd" d="M4.37371 5.83218C4.19025 6.03857 3.87421 6.05716 3.66782 5.8737C3.46143 5.69025 3.44284 5.37421 3.6263 5.16782L7.6263 0.667818C7.64167 0.650525 7.65812 0.634431 7.67551 0.619601C7.76284 0.545028 7.87616 0.500002 8.00001 0.5C8.00001 0.5 8.00001 0.5 8.00001 0.5C8.15002 0.5 8.28459 0.566054 8.37624 0.670662L12.3737 5.16782C12.5572 5.37421 12.5386 5.69025 12.3322 5.8737C12.1258 6.05716 11.8098 6.03857 11.6263 5.83218L8.50002 2.31511L8.50001 13.6849L11.6263 10.1678C11.8098 9.96143 12.1258 9.94284 12.3322 10.1263C12.5386 10.3098 12.5572 10.6258 12.3737 10.8322L8.37372 15.3322C8.27884 15.4389 8.14283 15.5 8.00002 15.5C7.8572 15.5 7.72119 15.4389 7.62631 15.3322L3.62631 10.8322C3.44285 10.6258 3.46144 10.3098 3.66783 10.1263C3.87422 9.94284 4.19026 9.96143 4.37372 10.1678L7.50001 13.6849L7.50002 2.31509L4.37371 5.83218Z"/>
</svg>
