<svg width="16" height="16" viewBox="0 0 16 16" xmlns="http://www.w3.org/2000/svg">
<path fill-rule="evenodd" clip-rule="evenodd" d="M9.33218 3.62631C9.12579 3.44285 8.80975 3.46145 8.6263 3.66784C8.44284 3.87423 8.46143 4.19026 8.66782 4.37372L12.1849 7.50002H2.5C2.22386 7.50002 2 7.72388 2 8.00002C2 8.27616 2.22386 8.50002 2.5 8.50002H12.1849L8.66782 11.6263C8.46143 11.8098 8.44284 12.1258 8.6263 12.3322C8.80975 12.5386 9.12579 12.5572 9.33218 12.3737L13.8322 8.37372C13.9389 8.27884 14 8.14284 14 8.00002C14 7.8572 13.9389 7.7212 13.8322 7.62631L9.33218 3.62631Z"/>
</svg>
