<svg width="16" height="16" viewBox="0 0 16 16" xmlns="http://www.w3.org/2000/svg">
<path fill-rule="evenodd" clip-rule="evenodd" d="M8.50001 13.5C8.50001 13.7761 8.27615 14 8.00001 14C7.72386 14 7.50001 13.7761 7.50001 13.5L7.50001 3.81509L4.37371 7.33217C4.19025 7.53857 3.87421 7.55716 3.66782 7.3737C3.46143 7.19024 3.44284 6.8742 3.6263 6.66781L7.6263 2.16781C7.72118 2.06107 7.85719 1.99999 8.00001 1.99999C8.14282 1.99999 8.27883 2.06107 8.37371 2.16781L12.3737 6.66781C12.5572 6.8742 12.5386 7.19024 12.3322 7.3737C12.1258 7.55716 11.8098 7.53857 11.6263 7.33217L8.50001 3.81509L8.50001 13.5Z"/>
</svg>
