<svg width="16" height="16" viewBox="0 0 16 16" xmlns="http://www.w3.org/2000/svg">
<path fill-rule="evenodd" clip-rule="evenodd" d="M4.1026 3.03916C5.13245 2.05611 6.534 1.5 8 1.5C9.466 1.5 10.8675 2.05611 11.8974 3.03916C12.9265 4.02145 13.5 5.34862 13.5 6.72727C13.5 8.7447 12.1273 10.6885 10.6451 12.1819C9.91576 12.9168 9.18453 13.518 8.63493 13.9357C8.37521 14.1332 8.15699 14.2889 8 14.3976C7.843 14.2889 7.62479 14.1332 7.36507 13.9357C6.81547 13.518 6.08424 12.9168 5.35489 12.1819C3.8727 10.6885 2.5 8.7447 2.5 6.72727C2.5 5.34862 3.07353 4.02145 4.1026 3.03916ZM7.73128 15.4216C7.73143 15.4217 7.73156 15.4218 8 15L7.73156 15.4218C7.89535 15.5261 8.10465 15.5261 8.26844 15.4218L8 15C8.26844 15.4218 8.26857 15.4217 8.26872 15.4216L8.26915 15.4214L8.27041 15.4206L8.27455 15.4179L8.28922 15.4085L8.30694 15.3969L8.34313 15.3731C8.38962 15.3424 8.45676 15.2974 8.54161 15.2389C8.71124 15.1219 8.95195 14.9509 9.24007 14.7319C9.81547 14.2945 10.5842 13.6628 11.3549 12.8863C12.8727 11.357 14.5 9.16439 14.5 6.72727C14.5 5.06799 13.8092 3.48166 12.5879 2.3158C11.3673 1.1507 9.7166 0.5 8 0.5C6.2834 0.5 4.6327 1.1507 3.41212 2.3158C2.19075 3.48166 1.5 5.06799 1.5 6.72727C1.5 9.16439 3.1273 11.357 4.64512 12.8863C5.41576 13.6628 6.18453 14.2945 6.75993 14.7319C7.04805 14.9509 7.28876 15.1219 7.45839 15.2389C7.54324 15.2974 7.61038 15.3424 7.65687 15.3731C7.68012 15.3885 7.69822 15.4003 7.71078 15.4085L7.72545 15.4179L7.72959 15.4206L7.73085 15.4214L7.73128 15.4216ZM6.5 6.66666C6.5 5.83823 7.17157 5.16666 8 5.16666C8.82843 5.16666 9.5 5.83823 9.5 6.66666C9.5 7.49508 8.82843 8.16666 8 8.16666C7.17157 8.16666 6.5 7.49508 6.5 6.66666ZM8 4.16666C6.61929 4.16666 5.5 5.28594 5.5 6.66666C5.5 8.04737 6.61929 9.16666 8 9.16666C9.38071 9.16666 10.5 8.04737 10.5 6.66666C10.5 5.28594 9.38071 4.16666 8 4.16666Z"/>
</svg>
