<svg width="16" height="16" viewBox="0 0 16 16" xmlns="http://www.w3.org/2000/svg">
<path d="M2.3125 8.44295C2.3125 9.37691 2.96782 10.1899 3.89185 10.3257C4.52541 10.4189 5.16588 10.4908 5.8125 10.5408V13.25L8.01111 11.0514C8.28675 10.7757 8.65895 10.6201 9.0485 10.6057C10.0837 10.5676 11.1046 10.4733 12.1081 10.3258C13.0322 10.1899 13.6875 9.37699 13.6875 8.44302V4.93199C13.6875 3.99802 13.0322 3.18507 12.1081 3.04921C10.7674 2.85209 9.39568 2.75 8.00017 2.75C6.60453 2.75 5.23273 2.85211 3.89186 3.04926C2.96783 3.18513 2.3125 3.99808 2.3125 4.93204V8.44295Z" stroke="black" stroke-width="1.2" stroke-linecap="round" stroke-linejoin="round"/>
</svg>
