<svg width="16" height="16" viewBox="0 0 16 16" xmlns="http://www.w3.org/2000/svg">
<path fill-rule="evenodd" clip-rule="evenodd" d="M8 16C12.4183 16 16 12.4183 16 8C16 3.58172 12.4183 0 8 0C3.58172 0 0 3.58172 0 8C0 12.4183 3.58172 16 8 16ZM13.5 5.67502C13.8728 5.26754 13.8447 4.635 13.4372 4.2622C13.0297 3.8894 12.3972 3.91751 12.0244 4.32499L7.30121 9.56202L5.41421 7.67502C5.02369 7.28449 4.39052 7.28449 4 7.67502C3.60948 8.06554 3.60948 8.69871 4 9.08923L6.62623 11.7155C6.81921 11.9084 7.08269 12.0142 7.35554 12.0081C7.62839 12.002 7.88691 11.8847 8.07114 11.6834L13.5 5.67502Z"/>
</svg>
