<svg width="16" height="16" viewBox="0 0 16 16" xmlns="http://www.w3.org/2000/svg">
<path fill-rule="evenodd" clip-rule="evenodd" d="M2.23306 8.27522C2.13887 8.08683 2.07373 7.93142 2.03286 7.82547L2.03008 7.81824L2.03286 7.81102C2.07373 7.70506 2.13887 7.54965 2.23306 7.36127C2.42185 6.98367 2.72472 6.47891 3.17836 5.97487C4.07634 4.97711 5.57991 3.96252 8.03358 3.96252C10.4872 3.96252 11.9908 4.97711 12.8888 5.97487C13.3424 6.47891 13.6453 6.98367 13.8341 7.36127C13.9283 7.54965 13.9934 7.70506 14.0343 7.81102L14.0371 7.81824L14.0343 7.82547C13.9934 7.93142 13.9283 8.08683 13.8341 8.27522C13.6453 8.65281 13.3424 9.15757 12.8888 9.66162C11.9908 10.6594 10.4872 11.674 8.03358 11.674C5.57991 11.674 4.07634 10.6594 3.17836 9.66162C2.72472 9.15757 2.42185 8.65281 2.23306 8.27522ZM15.0459 7.674C15.046 7.67429 15.0461 7.67457 14.5672 7.81824C15.0461 7.96192 15.046 7.96219 15.0459 7.96248L15.0457 7.96315L15.0452 7.96478L15.0438 7.96924L15.0395 7.98285C15.036 7.99396 15.031 8.00914 15.0246 8.02811C15.0117 8.06603 14.9928 8.11917 14.9673 8.18534C14.9163 8.31758 14.8385 8.50246 14.7285 8.72243C14.509 9.16153 14.1585 9.7457 13.6321 10.3306C12.57 11.5107 10.8068 12.674 8.03358 12.674C5.26038 12.674 3.49716 11.5107 2.43507 10.3306C1.90867 9.7457 1.55818 9.16153 1.33863 8.72243C1.22865 8.50246 1.15087 8.31758 1.09986 8.18534C1.07433 8.11917 1.05546 8.06603 1.04256 8.02811C1.03612 8.00914 1.03116 7.99396 1.02761 7.98285L1.02332 7.96924L1.02195 7.96478L1.02146 7.96315L1.02126 7.96248C1.02117 7.96219 1.02109 7.96192 1.5 7.81824C1.02109 7.67457 1.02117 7.67429 1.02126 7.674L1.02146 7.67334L1.02195 7.6717L1.02332 7.66724L1.02761 7.65364C1.03116 7.64252 1.03612 7.62734 1.04256 7.60837C1.05546 7.57045 1.07433 7.51731 1.09986 7.45115C1.15087 7.3189 1.22865 7.13402 1.33863 6.91405C1.55818 6.47495 1.90867 5.89078 2.43507 5.3059C3.49716 4.1258 5.26038 2.96252 8.03358 2.96252C10.8068 2.96252 12.57 4.1258 13.6321 5.3059C14.1585 5.89078 14.509 6.47495 14.7285 6.91405C14.8385 7.13402 14.9163 7.3189 14.9673 7.45115C14.9928 7.51731 15.0117 7.57045 15.0246 7.60837C15.031 7.62734 15.036 7.64252 15.0395 7.65364L15.0438 7.66724L15.0452 7.6717L15.0457 7.67334L15.0459 7.674ZM14.5672 7.81824L15.0461 7.67457C15.0742 7.76829 15.0742 7.8682 15.0461 7.96192L14.5672 7.81824ZM1.02109 7.67457L1.5 7.81824L1.02109 7.96192C0.992971 7.8682 0.992971 7.76829 1.02109 7.67457ZM1.97853 7.96319C1.97848 7.96334 1.9785 7.96329 1.97857 7.96307L1.97853 7.96319ZM6.35576 7.81826C6.35576 6.89161 7.10697 6.14041 8.03362 6.14041C8.96028 6.14041 9.71148 6.89161 9.71148 7.81826C9.71148 8.74492 8.96028 9.49612 8.03362 9.49612C7.10697 9.49612 6.35576 8.74492 6.35576 7.81826ZM8.03362 5.14041C6.55468 5.14041 5.35576 6.33932 5.35576 7.81826C5.35576 9.29721 6.55468 10.4961 8.03362 10.4961C9.51256 10.4961 10.7115 9.29721 10.7115 7.81826C10.7115 6.33932 9.51256 5.14041 8.03362 5.14041Z"/>
</svg>
