<svg width="16" height="16" viewBox="0 0 16 16" xmlns="http://www.w3.org/2000/svg">
<path fill-rule="evenodd" clip-rule="evenodd" d="M13.2071 2.49996C13.4024 2.69522 13.4024 3.01181 13.2071 3.20707L13.0976 3.31656C13.0834 3.32798 13.0696 3.3403 13.0564 3.35351L4.05642 12.3535C4.04321 12.3667 4.0309 12.3805 4.01948 12.3947L3.20713 13.2071C3.01187 13.4023 2.69529 13.4023 2.50002 13.2071C2.30476 13.0118 2.30476 12.6952 2.50002 12.5L3.62047 11.3795C3.15329 11.0536 2.76114 10.6929 2.43507 10.3306C1.90867 9.74567 1.55818 9.1615 1.33863 8.7224C1.22865 8.50243 1.15087 8.31755 1.09986 8.18531C1.07433 8.11914 1.05546 8.066 1.04256 8.02808C1.03612 8.00911 1.03116 7.99393 1.02761 7.98282L1.02332 7.96921L1.02195 7.96475L1.02146 7.96312L1.02126 7.96245C1.02117 7.96216 1.02109 7.96189 1.5 7.81821C1.02109 7.67454 1.02117 7.67426 1.02126 7.67397L1.02146 7.67331L1.02195 7.67167L1.02332 7.66721L1.02761 7.65361C1.03116 7.64249 1.03612 7.62731 1.04256 7.60834C1.05546 7.57042 1.07433 7.51728 1.09986 7.45112C1.15087 7.31887 1.22865 7.13399 1.33863 6.91402C1.55818 6.47492 1.90867 5.89075 2.43507 5.30587C3.49716 4.12577 5.26038 2.96249 8.03358 2.96249C9.36376 2.96249 10.4616 3.23013 11.3611 3.63888L12.5 2.49996C12.6953 2.3047 13.0119 2.3047 13.2071 2.49996ZM1.5 7.81821L1.02109 7.96189C0.992971 7.86817 0.992971 7.76826 1.02109 7.67454L1.5 7.81821ZM5.51678 12.3074C6.24449 12.5362 7.07923 12.6739 8.03358 12.6739C10.8068 12.6739 12.57 11.5107 13.6321 10.3306C14.1585 9.74567 14.509 9.1615 14.7285 8.7224C14.8385 8.50243 14.9163 8.31755 14.9673 8.18531C14.9928 8.11914 15.0117 8.066 15.0246 8.02808C15.031 8.00911 15.036 7.99393 15.0395 7.98282L15.0438 7.96921L15.0452 7.96475L15.0457 7.96312L15.0459 7.96245C15.046 7.96216 15.0461 7.96189 14.5672 7.81821L15.0461 7.96189C15.0742 7.86817 15.0742 7.76826 15.0461 7.67454L14.5672 7.81821C15.0461 7.67454 15.046 7.67426 15.0459 7.67397L15.0457 7.67331L15.0452 7.67167L15.0438 7.66721L15.0395 7.65361C15.036 7.64249 15.031 7.62731 15.0246 7.60834C15.0117 7.57042 14.9928 7.51728 14.9673 7.45112C14.9163 7.31887 14.8385 7.13399 14.7285 6.91402C14.509 6.47492 14.1585 5.89075 13.6321 5.30587C13.4638 5.11892 13.278 4.93239 13.0733 4.75084L12.3648 5.45931C12.5589 5.62807 12.733 5.8017 12.8888 5.97484C13.3424 6.47888 13.6453 6.98364 13.8341 7.36124C13.9283 7.54962 13.9934 7.70503 14.0343 7.81099L14.0371 7.81821L14.0343 7.82544C13.9934 7.93139 13.9283 8.0868 13.8341 8.27519C13.6453 8.65278 13.3424 9.15754 12.8888 9.66159C11.9908 10.6593 10.4872 11.6739 8.03358 11.6739C7.40618 11.6739 6.8409 11.6076 6.33198 11.4922L5.51678 12.3074ZM7.40278 10.4214C7.60507 10.4702 7.81633 10.4961 8.03362 10.4961C9.51256 10.4961 10.7115 9.29718 10.7115 7.81824C10.7115 7.60094 10.6856 7.38968 10.6368 7.18739L9.67982 8.14433C9.54882 8.80942 9.02481 9.33343 8.35972 9.46443L7.40278 10.4214ZM8.03358 3.96249C9.03983 3.96249 9.88629 4.13313 10.5967 4.40326L9.45295 5.54703C9.04147 5.28934 8.55494 5.14038 8.03362 5.14038C6.55468 5.14038 5.35577 6.3393 5.35577 7.81824C5.35577 8.33955 5.50473 8.82608 5.76242 9.23756L4.34052 10.6595C3.87133 10.3532 3.48869 10.0064 3.17836 9.66159C2.72472 9.15754 2.42185 8.65278 2.23306 8.27519C2.13887 8.0868 2.07373 7.93139 2.03286 7.82544L2.03008 7.81821L2.03286 7.81099C2.07373 7.70503 2.13887 7.54962 2.23306 7.36124C2.42185 6.98364 2.72472 6.47888 3.17836 5.97484C4.07634 4.97708 5.57991 3.96249 8.03358 3.96249ZM8.03362 6.14038C8.27635 6.14038 8.50703 6.19192 8.71533 6.28465L6.50004 8.49995C6.40731 8.29165 6.35577 8.06096 6.35577 7.81824C6.35577 6.89158 7.10697 6.14038 8.03362 6.14038Z"/>
</svg>
