<svg width="16" height="16" viewBox="0 0 16 16" xmlns="http://www.w3.org/2000/svg">
<path fill-rule="evenodd" clip-rule="evenodd" d="M8.53044 2C5.51879 2 3.02531 4.21857 2.59519 7.11052L3.20566 6.50005C3.40093 6.30479 3.71751 6.30479 3.91277 6.50005C4.10803 6.69531 4.10803 7.0119 3.91277 7.20716L2.38316 8.73677C2.1879 8.93203 1.87132 8.93203 1.67605 8.73677L0.146447 7.20716C-0.0488155 7.0119 -0.0488155 6.69531 0.146447 6.50005C0.341709 6.30479 0.658291 6.30479 0.853553 6.50005L1.57274 7.21924C1.96138 3.72065 4.92819 1 8.53044 1C12.3969 1 15.5313 4.13438 15.5313 8.00083C15.5313 11.8673 12.3969 15.0017 8.53044 15.0017C6.61483 15.0017 4.87809 14.2316 3.61453 12.9854C3.41792 12.7915 3.41574 12.4749 3.60965 12.2783C3.80357 12.0817 4.12014 12.0795 4.31674 12.2734C5.40079 13.3426 6.88816 14.0017 8.53044 14.0017C11.8446 14.0017 14.5313 11.315 14.5313 8.00083C14.5313 4.68667 11.8446 2 8.53044 2ZM8.64807 4.5592C8.64807 4.28306 8.42422 4.0592 8.14807 4.0592C7.87193 4.0592 7.64807 4.28306 7.64807 4.5592V8.00082C7.64807 8.13343 7.70075 8.26061 7.79452 8.35437L9.70653 10.2664C9.90179 10.4616 10.2184 10.4616 10.4136 10.2664C10.6089 10.0711 10.6089 9.75454 10.4136 9.55928L8.64807 7.79371V4.5592Z"/>
</svg>
