<svg width="16" height="16" viewBox="0 0 16 16" xmlns="http://www.w3.org/2000/svg">
<path fill-rule="evenodd" clip-rule="evenodd" d="M3 4H8C8.55228 4 9 4.44772 9 5V7.00004H5.5C5.22386 7.00004 5 7.2239 5 7.50004C5 7.77619 5.22386 8.00004 5.5 8.00004H9V10C9 10.5523 8.55228 11 8 11H3C2.44772 11 2 10.5523 2 10V5C2 4.44772 2.44772 4 3 4ZM10 8.00004V10C10 11.1046 9.10457 12 8 12H3C1.89543 12 1 11.1046 1 10V5C1 3.89543 1.89543 3 3 3H8C9.10457 3 10 3.89543 10 5V7.00004H13.2929L11.6464 5.35355C11.4512 5.15829 11.4512 4.84171 11.6464 4.64644C11.8417 4.45118 12.1583 4.45119 12.3536 4.64645L14.8536 7.14648C14.9473 7.24025 15 7.36743 15 7.50003C15 7.63264 14.9473 7.75982 14.8536 7.85359L12.3536 10.3536C12.1583 10.5488 11.8417 10.5488 11.6464 10.3536C11.4512 10.1583 11.4512 9.84171 11.6464 9.64644L13.2929 8.00004H10Z"/>
</svg>
