<svg width="16" height="16" viewBox="0 0 16 16" xmlns="http://www.w3.org/2000/svg">
<path fill-rule="evenodd" clip-rule="evenodd" d="M13.6216 3.5L2.37846 3.50003L8 7.39187L13.6216 3.5ZM1.5 4.10813L1.5 12C1.5 12.2761 1.72386 12.5 2 12.5H14C14.2761 12.5 14.5 12.2761 14.5 12V4.10813L8.28461 8.41109C8.11338 8.52963 7.88662 8.52963 7.71539 8.41109L1.5 4.10813ZM14 2.5L2 2.50003C1.17157 2.50004 0.5 3.17161 0.5 4.00003V12C0.5 12.8284 1.17157 13.5 2 13.5H14C14.8284 13.5 15.5 12.8284 15.5 12V4C15.5 3.17157 14.8284 2.5 14 2.5Z"/>
</svg>
