<svg width="16" height="16" viewBox="0 0 16 16" xmlns="http://www.w3.org/2000/svg">
<path fill-rule="evenodd" clip-rule="evenodd" d="M7.5 1C6.67157 1 6 1.67157 6 2.5V4C6 4.27614 6.22386 4.5 6.5 4.5C6.77614 4.5 7 4.27614 7 4V2.5C7 2.22386 7.22386 2 7.5 2H13.5C13.7761 2 14 2.22386 14 2.5V8.5C14 8.77614 13.7761 9 13.5 9H12C11.7239 9 11.5 9.22386 11.5 9.5C11.5 9.77614 11.7239 10 12 10H13.5C14.3284 10 15 9.32843 15 8.5V2.5C15 1.67157 14.3284 1 13.5 1H7.5ZM1 7.5C1 6.67157 1.67157 6 2.5 6H8.5C9.32843 6 10 6.67157 10 7.5V13.5C10 14.3284 9.32843 15 8.5 15H2.5C1.67157 15 1 14.3284 1 13.5V7.5ZM2.5 7C2.22386 7 2 7.22386 2 7.5V13.5C2 13.7761 2.22386 14 2.5 14H8.5C8.77614 14 9 13.7761 9 13.5V7.5C9 7.22386 8.77614 7 8.5 7H2.5ZM4.5 7.99998C4.22386 7.99998 4 8.22384 4 8.49998C4 8.77612 4.22386 8.99998 4.5 8.99998H6.29292L3.14645 12.1465C2.95118 12.3417 2.95118 12.6583 3.14644 12.8536C3.34171 13.0488 3.65829 13.0488 3.85355 12.8536L7 9.70711V11.5C7 11.7761 7.22386 12 7.5 12C7.77614 12 8 11.7761 8 11.5V8.49998C8 8.42503 7.98351 8.35393 7.95395 8.29011C7.93653 8.25242 7.91416 8.21645 7.88685 8.18318C7.86457 8.15601 7.83948 8.13122 7.81202 8.10926C7.7845 8.08723 7.7552 8.06853 7.72464 8.05317C7.6571 8.01914 7.58079 7.99998 7.5 7.99998L4.5 7.99998Z"/>
</svg>
