<svg width="16" height="16" viewBox="0 0 16 16" xmlns="http://www.w3.org/2000/svg">
<g clip-path="url(#clip0_111_34)">
<path fill-rule="evenodd" clip-rule="evenodd" d="M4.21961 0.5C3.94347 0.5 3.71961 0.723858 3.71961 1V5.0011H1.96912C1.43859 5.0011 0.929785 5.21185 0.554644 5.58699C0.179502 5.96213 -0.03125 6.47094 -0.03125 7.00147V10.7524C-0.03125 11.2829 0.179502 11.7917 0.554644 12.1669C0.929785 12.542 1.43859 12.7527 1.96912 12.7527H3.46948C3.56061 12.7527 3.64604 12.7284 3.71961 12.6858V14.5033C3.71961 14.7794 3.94347 15.0033 4.21961 15.0033H11.7214C11.9976 15.0033 12.2214 14.7794 12.2214 14.5033V12.6857C12.295 12.7283 12.3805 12.7527 12.4717 12.7527H13.972C14.5026 12.7527 15.0114 12.542 15.3865 12.1669C15.7617 11.7917 15.9724 11.2829 15.9724 10.7524V7.00147C15.9724 6.47093 15.7617 5.96213 15.3865 5.58699C15.0114 5.21185 14.5026 5.0011 13.972 5.0011H12.2214V1C12.2214 0.723858 11.9976 0.5 11.7214 0.5H4.21961ZM12.2214 11.8198C12.295 11.7771 12.3805 11.7527 12.4717 11.7527H13.972C14.2374 11.7527 14.4918 11.6474 14.6794 11.4597C14.867 11.2721 14.9724 11.0177 14.9724 10.7524V7.00147C14.9724 6.73615 14.867 6.48171 14.6794 6.2941C14.4918 6.10649 14.2374 6.0011 13.972 6.0011H11.7221L11.7214 6.0011L11.7207 6.0011H4.22031L4.21961 6.0011L4.21891 6.0011H1.96912C1.7038 6.0011 1.44936 6.10649 1.26175 6.2941C1.07415 6.48171 0.96875 6.73615 0.96875 7.00147V10.7524C0.96875 11.0177 1.07415 11.2721 1.26175 11.4597C1.44936 11.6474 1.7038 11.7527 1.96912 11.7527H3.46948C3.56061 11.7527 3.64604 11.7771 3.71961 11.8197V10.7524C3.71961 10.4762 3.94347 10.2524 4.21961 10.2524H11.7214C11.9976 10.2524 12.2214 10.4762 12.2214 10.7524V11.8198ZM11.2214 5.0011V1.5H4.71961V5.0011H11.2214ZM3.09437 9.25202C3.71584 9.25202 4.21964 8.74821 4.21964 8.12674C4.21964 7.50527 3.71584 7.00147 3.09437 7.00147C2.4729 7.00147 1.96909 7.50527 1.96909 8.12674C1.96909 8.74821 2.4729 9.25202 3.09437 9.25202ZM4.71961 14.0033V11.2524H11.2214V14.0033H4.71961Z" fill="#010810"/>
</g>
<defs>
<clipPath id="clip0_111_34">
<rect width="16" height="16" fill="white"/>
</clipPath>
</defs>
</svg>
