<svg width="16" height="16" viewBox="0 0 16 16" xmlns="http://www.w3.org/2000/svg">
<path d="M8 1C8.26448 1 8.52896 1.14771 8.62776 1.44314L9.82773 5.03138C9.91609 5.29562 10.1695 5.47452 10.4555 5.47452H14.3387C14.9781 5.47452 15.2439 6.26951 14.7266 6.63468L11.5851 8.85234C11.3537 9.01564 11.2569 9.30512 11.3453 9.56936L12.5453 13.1576C12.7429 13.7484 12.0468 14.2398 11.5295 13.8746L8.38798 11.657C8.27231 11.5753 8.13615 11.5345 8 11.5345V1Z" fill="#DDE0E6"/>
<path d="M8 1C7.73552 1 7.47104 1.14771 7.37224 1.44314L6.17227 5.03138C6.08391 5.29562 5.83047 5.47452 5.54451 5.47452H1.66133C1.02191 5.47452 0.756051 6.26951 1.27335 6.63468L4.41491 8.85234C4.64626 9.01564 4.74306 9.30512 4.6547 9.56936L3.45473 13.1576C3.25714 13.7484 3.95316 14.2398 4.47046 13.8746L7.61202 11.657C7.72769 11.5753 7.86385 11.5345 8 11.5345V1Z" fill="#FFB320"/>
</svg>
