<svg width="16" height="16" viewBox="0 0 16 16" xmlns="http://www.w3.org/2000/svg">
<path fill-rule="evenodd" clip-rule="evenodd" d="M7.60023 14.3333C11.2505 14.3333 14.2004 11.3434 14.2004 7.66667C14.2004 3.98989 11.2505 1 7.60023 1C3.94994 1 1.00002 3.98989 1.00002 7.66667C1.00002 11.3434 3.94994 14.3333 7.60023 14.3333ZM2.0215 7.16667H2.32438C2.60052 7.16667 2.82438 7.39052 2.82438 7.66667C2.82438 7.94281 2.60052 8.16667 2.32438 8.16667H2.0215C2.25736 10.8991 4.40802 13.0698 7.10023 13.311V13C7.10023 12.7239 7.32409 12.5 7.60023 12.5C7.87637 12.5 8.10023 12.7239 8.10023 13V13.311C10.7924 13.0698 12.9431 10.8991 13.179 8.16667H12.8761C12.5999 8.16667 12.3761 7.94281 12.3761 7.66667C12.3761 7.39052 12.5999 7.16667 12.8761 7.16667H13.179C12.9431 4.43424 10.7924 2.26356 8.10023 2.0223V2.33333C8.10023 2.60948 7.87637 2.83333 7.60023 2.83333C7.32409 2.83333 7.10023 2.60948 7.10023 2.33333V2.0223C4.40802 2.26356 2.25736 4.43424 2.0215 7.16667ZM7.10023 4C7.10023 3.72386 7.32409 3.5 7.60023 3.5C7.87637 3.5 8.10023 3.72386 8.10023 4V7.83333C8.10023 7.965 8.04829 8.09136 7.95569 8.18497L6.63673 9.5183C6.44253 9.71462 6.12595 9.71633 5.92964 9.52213C5.73332 9.32793 5.7316 9.01135 5.9258 8.81503L7.10023 7.62781V4Z"/>
</svg>
