<svg width="16" height="16" viewBox="0 0 16 16" xmlns="http://www.w3.org/2000/svg">
<path d="M7.53538 1.71304L0.782761 13.8689C0.610075 14.1797 0.861218 14.5455 1.24736 14.5455H14.7526C15.1387 14.5455 15.3899 14.1797 15.2172 13.8689L8.46457 1.71304C8.27315 1.36844 7.72681 1.36844 7.53538 1.71304ZM7.99998 2.96756L13.9121 13.6104H2.08782L7.99998 2.96756ZM8.00065 11.2728C7.71377 11.2728 7.48122 11.4821 7.48122 11.7403C7.48122 11.9985 7.71377 12.2078 8.00065 12.2078C8.28752 12.2078 8.52008 11.9985 8.52008 11.7403C8.52008 11.4821 8.28752 11.2728 8.00065 11.2728ZM8.00065 6.12991C7.71377 6.12991 7.48122 6.33924 7.48122 6.59745V9.87017C7.48122 10.1284 7.71377 10.3377 8.00065 10.3377C8.28752 10.3377 8.52008 10.1284 8.52008 9.87017V6.59745C8.52008 6.33924 8.28752 6.12991 8.00065 6.12991Z"/>
</svg>
