<svg width="24" height="24" viewBox="0 0 24 24" xmlns="http://www.w3.org/2000/svg">
<path fill-rule="evenodd" clip-rule="evenodd" d="M16.6207 0H15.4284C12.114 0 9.41686 2.69134 9.41686 6.0003V8.5312H7.38038C7.17017 8.5312 7 8.70263 7 8.91253V11.9468C7 12.1567 7.17017 12.3259 7.38038 12.3259H9.41686V21.6187C9.41686 21.8286 9.58703 22 9.79724 22H12.8358C13.046 22 13.2162 21.8286 13.2162 21.6187V12.3259H16.2392C16.4494 12.3259 16.6196 12.1567 16.6196 11.9468V8.91253C16.6196 8.70263 16.4494 8.5312 16.2392 8.5312H13.2162V6.0003C13.2162 4.78376 14.2083 3.7936 15.4273 3.7936H16.6207C16.8298 3.7936 17 3.62216 17 3.41336V0.378041C17 0.169239 16.8298 0 16.6207 0Z"/>
</svg>
