<svg width="24" height="24" viewBox="0 0 24 24" xmlns="http://www.w3.org/2000/svg">
<path fill-rule="evenodd" clip-rule="evenodd" d="M18.9591 19.8199V19.8178L18.9772 19.7734L22 4.16177V4.11221C22 3.72295 21.8589 3.38325 21.5545 3.17984C21.2874 3.00122 20.98 2.98883 20.7643 3.00535C20.5635 3.02395 20.3654 3.06551 20.1736 3.12925C20.0919 3.15626 20.0112 3.18657 19.9317 3.22011L19.9186 3.22527L3.06613 9.99755L3.06109 9.99961C3.00985 10.0175 2.9597 10.0386 2.91091 10.0626C2.79105 10.1178 2.67606 10.1834 2.5672 10.2588C2.3505 10.4116 1.93826 10.7709 2.00781 11.3409C2.06526 11.8137 2.38275 12.1132 2.59744 12.2691C2.72416 12.3601 2.86041 12.4362 3.00364 12.4962L3.03589 12.5107L3.04597 12.5138L3.05302 12.5169L6.00221 13.5339C5.99213 13.7229 6.01028 13.9159 6.05966 14.107L7.53627 19.8467C7.61694 20.1596 7.79125 20.4387 8.03472 20.6449C8.27818 20.8511 8.57858 20.974 8.89372 20.9963C9.20886 21.0186 9.52292 20.9393 9.79177 20.7694C10.0606 20.5995 10.2708 20.3476 10.3927 20.0491L12.6989 17.5236L16.659 20.6335L16.7154 20.6583C17.0753 20.8193 17.4109 20.8699 17.7183 20.8276C18.0258 20.7842 18.2697 20.6521 18.4531 20.5024C18.6653 20.3261 18.8344 20.1016 18.947 19.8467L18.9551 19.8292L18.9581 19.823L18.9591 19.8199ZM7.52116 13.7125C7.5048 13.6489 7.50869 13.5815 7.53225 13.5202C7.55581 13.4589 7.59782 13.407 7.65219 13.3718L17.6518 6.86696C17.6518 6.86696 18.2404 6.50042 18.2193 6.86696C18.2193 6.86696 18.3241 6.93097 18.0086 7.23144C17.7103 7.51744 10.8816 14.2711 10.1901 14.9547C10.1517 14.9929 10.1248 15.0416 10.1125 15.0951L8.99777 19.4523L7.52116 13.7115V13.7125Z"/>
</svg>
