<svg width="24" height="24" viewBox="0 0 24 24" xmlns="http://www.w3.org/2000/svg">
<path fill-rule="evenodd" clip-rule="evenodd" d="M21.0869 15.3589C20.6299 14.8181 20.1098 14.3302 19.6078 13.8604C19.4287 13.6934 19.2437 13.5215 19.0657 13.3476C18.5546 12.8547 18.5366 12.6668 18.9407 12.108C19.2207 11.7211 19.5177 11.3332 19.8058 10.9583C20.0658 10.6185 20.3348 10.2686 20.5929 9.91569L20.6459 9.84272C21.1399 9.16694 21.65 8.47018 21.921 7.62746C21.9921 7.40653 22.0661 7.07964 21.897 6.80673C21.727 6.53282 21.399 6.44885 21.167 6.41186C21.0519 6.39087 20.9379 6.38787 20.8319 6.38787L17.6015 6.38587H17.5745C17.0854 6.38587 16.7564 6.6138 16.5684 7.08164C16.3874 7.52849 16.1903 8.00533 15.9643 8.45718C15.5152 9.35888 14.9442 10.3995 14.1181 11.2662L14.0841 11.3022C13.9861 11.4062 13.876 11.5212 13.795 11.5212C13.783 11.5212 13.769 11.5212 13.754 11.5162C13.583 11.4512 13.468 11.0393 13.473 10.8514C13.473 10.8494 13.473 10.8464 13.473 10.8424L13.471 7.15062C13.471 7.13962 13.47 7.12562 13.468 7.11363C13.386 6.51283 13.204 6.14095 12.5159 6.006C12.4979 6.003 12.4789 6 12.4609 6H9.10045C8.55338 6 8.25135 6.22093 7.96831 6.54982C7.8923 6.63879 7.73228 6.82173 7.81129 7.04365C7.8913 7.26958 8.15133 7.31656 8.23634 7.33256C8.6564 7.41153 8.89342 7.66644 8.96043 8.1103C9.07745 8.88204 9.09245 9.70577 9.00644 10.6994C8.98244 10.9773 8.93443 11.1903 8.85642 11.3742C8.83742 11.4172 8.77341 11.5541 8.7074 11.5541C8.6864 11.5541 8.62639 11.5472 8.51538 11.4732C8.25535 11.2972 8.06432 11.0443 7.84229 10.7334C7.0862 9.67578 6.45112 8.51416 5.90105 7.17461C5.69703 6.68177 5.31698 6.40487 4.82892 6.39687C4.29285 6.38787 3.80679 6.38487 3.34274 6.38487C2.83667 6.38487 2.36661 6.38987 1.90756 6.39887C1.51551 6.40487 1.24348 6.52083 1.10046 6.74575C0.95744 6.96768 0.967441 7.26158 1.12846 7.61646C2.42162 10.4565 3.59377 12.5228 4.92993 14.3122C5.86505 15.5678 6.80417 16.4355 7.8833 17.0433C9.02044 17.6871 10.2956 18 11.7798 18C11.9478 18 12.1218 17.995 12.2978 17.988C13.16 17.946 13.48 17.6381 13.52 16.8084C13.54 16.3825 13.587 15.9377 13.798 15.5588C13.9311 15.3209 14.0551 15.3209 14.0961 15.3209C14.1741 15.3209 14.2721 15.3559 14.3761 15.4219C14.5641 15.5438 14.7252 15.7048 14.8572 15.8477C14.9812 15.9827 15.1042 16.1186 15.2272 16.2556C15.4922 16.5485 15.7673 16.8524 16.0533 17.1393C16.6804 17.7701 17.3715 18.047 18.1656 17.989H21.1279C21.1339 17.989 21.1409 17.988 21.1469 17.987C21.442 17.969 21.698 17.8061 21.848 17.5432C22.0351 17.2183 22.0311 16.8024 21.838 16.4305C21.62 16.0127 21.336 15.6528 21.0869 15.3589Z"/>
</svg>
