<svg width="65" height="64" viewBox="0 0 65 64" fill="none" xmlns="http://www.w3.org/2000/svg">
<path fill-rule="evenodd" clip-rule="evenodd" d="M64.0183 32C64.0183 14.3268 49.6916 0 32.0183 0C14.3452 0 0.0183105 14.3268 0.0183105 32C0.0183105 49.6733 14.3452 64 32.0183 64C49.6916 64 64.0183 49.6733 64.0183 32ZM4.58973 32C4.58973 16.8526 16.8709 4.57142 32.0183 4.57142C47.1658 4.57142 59.4468 16.8526 59.4468 32C59.4468 47.1475 47.1658 59.4285 32.0183 59.4285C30.5334 59.4285 29.076 59.3105 27.6553 59.0802C31.0966 57.3418 34.4591 54.653 36.9742 50.5183C43.2529 40.1753 45.4498 23.7548 45.4498 23.7548L52.3275 20.5136C52.7524 20.2942 52.6449 19.6496 52.1147 19.6496H44.7045C43.5387 17.3822 39.5067 13.7136 33.5799 13.7136C30.0576 13.7136 26.9856 14.6713 24.2153 16.5136C24.2153 16.5136 20.1971 19.293 14.3365 24.4588L4.59989 32.7542C4.59316 32.5036 4.58973 32.2522 4.58973 32ZM25.8816 42.6966C26.3731 41.9286 26.8531 41.1468 27.3033 40.3468C27.5136 40.4473 27.5502 40.6917 27.4405 40.909C26.0908 44.243 22.9189 50.6739 17.2875 55.1408C16.4925 54.6337 15.7254 54.0867 14.9927 53.504C19.518 50.7866 23.0534 47.0415 25.8816 42.6966ZM32.2062 20.7536C33.4131 19.5193 35.2508 19.3273 36.6656 20.173C36.4919 20.1273 36.3228 20.093 36.1468 20.093C34.9902 20.093 34.0599 21.053 34.0599 22.2142C34.0599 23.3799 34.9902 24.3399 36.1468 24.3399C37.2849 24.3399 38.2178 23.3799 38.2178 22.2142C38.2178 22.1159 38.2062 22.0062 38.1858 21.901C38.78 23.2816 38.5329 24.9456 37.4245 26.0724C35.9799 27.5444 33.6485 27.5444 32.2062 26.0724C30.7525 24.6073 30.7525 22.221 32.2062 20.7536Z" fill="#E0001A"/>
</svg>
