<svg width="16" height="14" viewBox="0 0 16 14" fill="none" xmlns="http://www.w3.org/2000/svg">
<path fill-rule="evenodd" clip-rule="evenodd" d="M15.9996 7.74976V9.93135C15.9996 11.3972 12.9505 13.314 9.18926 13.314C5.428 13.314 2.37891 11.3972 2.37891 9.93135V8.31353" fill="#9E0942"/>
<path fill-rule="evenodd" clip-rule="evenodd" d="M2.35938 8.27572C3.20094 9.57013 6.10908 11.1144 9.1893 11.1144C12.9506 11.1144 15.9996 9.30353 15.9996 7.74752C15.9996 6.87368 15.0394 5.9164 13.5324 5.24438" fill="#E30613"/>
<path fill-rule="evenodd" clip-rule="evenodd" d="M13.6207 3.71582V5.89655C13.6207 7.36235 10.5716 9.27917 6.81035 9.27917C3.04909 9.27917 0 7.36235 0 5.89655V3.71582" fill="#EF7D00"/>
<path fill-rule="evenodd" clip-rule="evenodd" d="M6.81035 7.08045C10.5716 7.08045 13.6207 5.26962 13.6207 3.71362C13.6207 2.15648 10.5716 0.333252 6.81035 0.333252C3.04909 0.333252 0 2.15648 0 3.71362C0 5.26962 3.04909 7.08045 6.81035 7.08045Z" fill="#FFDA44"/>
</svg>
