<svg width="25" height="24" viewBox="0 0 25 24" fill="none" xmlns="http://www.w3.org/2000/svg">
<path d="M24.3539 11.9965C24.3539 18.6081 18.9942 23.9678 12.3827 23.9678L12.3827 0.0252989C18.9942 0.025299 24.3539 5.385 24.3539 11.9965Z" fill="#EF7D00"/>
<path d="M0.411193 11.9959C0.411193 5.38436 5.7709 0.0246587 12.3824 0.0246594L12.3824 23.9671C5.7709 23.9671 0.411192 18.6074 0.411193 11.9959Z" fill="#EF7D00"/>
<circle r="10.4748" transform="matrix(1.19249e-08 -1 -1 -1.19249e-08 13.8791 13.4929)" fill="#FFDA44"/>
<path fill-rule="evenodd" clip-rule="evenodd" d="M18.5529 5.82519C19.3849 7.18685 19.8644 8.78742 19.8644 10.5C19.8644 15.4586 15.8446 19.4784 10.886 19.4784C9.17387 19.4784 7.57368 18.9992 6.21225 18.1675C7.78934 20.7485 10.6331 22.4712 13.8792 22.4712C18.8378 22.4712 22.8576 18.4514 22.8576 13.4928C22.8576 10.2462 21.1345 7.40214 18.5529 5.82519Z" fill="white"/>
</svg>
