<svg width="16" height="16" viewBox="0 0 16 16" xmlns="http://www.w3.org/2000/svg">
<path fill-rule="evenodd" clip-rule="evenodd" d="M8 16C12.4183 16 16 12.4183 16 8C16 3.58172 12.4183 0 8 0C3.58172 0 0 3.58172 0 8C0 12.4183 3.58172 16 8 16ZM11.4697 4.52917C11.665 4.72443 11.665 5.04101 11.4697 5.23627L8.70657 7.99943L11.4697 10.7626C11.665 10.9579 11.665 11.2744 11.4697 11.4697C11.2745 11.665 10.9579 11.665 10.7626 11.4697L7.99946 8.70654L5.2363 11.4697C5.04104 11.665 4.72446 11.665 4.5292 11.4697C4.33394 11.2744 4.33394 10.9579 4.5292 10.7626L7.29236 7.99943L4.5292 5.23627C4.33394 5.04101 4.33394 4.72443 4.5292 4.52917C4.72446 4.33391 5.04104 4.33391 5.2363 4.52917L7.99946 7.29233L10.7626 4.52917C10.9579 4.33391 11.2745 4.33391 11.4697 4.52917Z"/>
</svg>
