<svg width="16" height="16" viewBox="0 0 16 16" xmlns="http://www.w3.org/2000/svg">
<path fill-rule="evenodd" clip-rule="evenodd" d="M8 16C12.4183 16 16 12.4183 16 8C16 3.58172 12.4183 0 8 0C3.58172 0 0 3.58172 0 8C0 12.4183 3.58172 16 8 16ZM7 7H5.01724C5.48629 5.33011 6.81641 4.5 8.40908 4.5C10.4029 4.5 12 6.07754 12 8C12 9.92246 10.4029 11.5 8.40908 11.5C7.59731 11.5 6.85063 11.2381 6.25052 10.7973C6.02795 10.6339 5.71502 10.6818 5.55156 10.9043C5.3881 11.1269 5.43601 11.4398 5.65858 11.6033C6.42591 12.1668 7.37897 12.5 8.40908 12.5C10.9339 12.5 13 10.4958 13 8C13 5.50418 10.9339 3.5 8.40908 3.5C6.49988 3.5 4.79676 4.49654 4.13094 6.48105L3.46424 4.8143C3.36168 4.55791 3.0707 4.43321 2.8143 4.53576C2.55791 4.63832 2.4332 4.9293 2.53576 5.1857L3.53576 7.6857C3.61169 7.87552 3.79555 8 4 8H7C7.27614 8 7.5 7.77614 7.5 7.5C7.5 7.22386 7.27614 7 7 7Z"/>
</svg>
