<svg width="16" height="16" viewBox="0 0 16 16" xmlns="http://www.w3.org/2000/svg">
<path fill-rule="evenodd" clip-rule="evenodd" d="M13.5 8C13.5 11.0376 11.0376 13.5 8 13.5C6.96489 13.5 5.99658 13.2141 5.16972 12.7168L12.9648 5.63042C13.3079 6.34799 13.5 7.15156 13.5 8ZM3.37178 10.9727L11.3987 3.67549C10.4632 2.93922 9.28288 2.5 8 2.5C4.96243 2.5 2.5 4.96243 2.5 8C2.5 9.09514 2.82007 10.1155 3.37178 10.9727ZM16 8C16 12.4183 12.4183 16 8 16C3.58172 16 0 12.4183 0 8C0 3.58172 3.58172 0 8 0C12.4183 0 16 3.58172 16 8Z"/>
</svg>
