<svg width="16" height="16" viewBox="0 0 16 16" xmlns="http://www.w3.org/2000/svg">
<path fill-rule="evenodd" clip-rule="evenodd" d="M8 16C12.4183 16 16 12.4183 16 8C16 3.58172 12.4183 0 8 0C3.58172 0 0 3.58172 0 8C0 12.4183 3.58172 16 8 16ZM12.3536 5.35355C12.5488 5.15829 12.5488 4.84171 12.3536 4.64645C12.1583 4.45118 11.8417 4.45118 11.6464 4.64645L6.5 9.79289L4.35355 7.64645C4.15829 7.45118 3.84171 7.45118 3.64645 7.64645C3.45118 7.84171 3.45118 8.15829 3.64645 8.35355L6.14645 10.8536C6.24021 10.9473 6.36739 11 6.5 11C6.63261 11 6.75979 10.9473 6.85355 10.8536L12.3536 5.35355Z"/>
</svg>
