<svg width="24" height="24" viewBox="0 0 24 24" xmlns="http://www.w3.org/2000/svg">
<path fill-rule="evenodd" clip-rule="evenodd" d="M11.0633 4.52778H15.2222C16.2129 4.52778 16.8771 4.52866 17.3907 4.5648C17.89 4.59993 18.1309 4.66285 18.2885 4.73043C18.8791 4.98368 19.3497 5.45427 19.6029 6.04484C19.6705 6.20245 19.7334 6.44334 19.7685 6.94265C19.8047 7.45628 19.8056 8.12039 19.8056 9.11111C19.8056 9.26287 19.8055 9.41122 19.8055 9.55628C18.7751 10.5182 17.7837 10.531 16.532 10.531L16.4974 10.531C15.1832 10.5309 13.5968 10.5307 12.0633 12.0642C10.5297 13.5978 10.5299 15.1842 10.53 16.4983L10.53 16.533C10.53 17.7843 10.5172 18.7755 9.55621 19.8055C9.41117 19.8055 9.26285 19.8056 9.11111 19.8056C8.12039 19.8056 7.45628 19.8047 6.94265 19.7685C6.44334 19.7334 6.20245 19.6705 6.04484 19.6029C5.45427 19.3497 4.98368 18.8791 4.73043 18.2885C4.66285 18.1309 4.59993 17.89 4.5648 17.3907C4.52866 16.8771 4.52778 16.2129 4.52778 15.2222V11.0633C4.52778 9.11955 4.53102 7.81545 4.66176 6.84304C4.78659 5.91459 5.0019 5.52039 5.26114 5.26114C5.52039 5.0019 5.91459 4.78659 6.84304 4.66176C7.81545 4.53102 9.11955 4.52778 11.0633 4.52778ZM3 11.0633C3 7.26221 3 5.36168 4.18084 4.18084C5.36168 3 7.26221 3 11.0633 3H15.2222C17.1605 3 18.1297 3 18.8906 3.32631C19.8415 3.73407 20.5993 4.49182 21.007 5.44272C21.3333 6.20367 21.3333 7.17282 21.3333 9.11111C21.3333 12.9877 21.3333 14.926 20.6807 16.4479C19.8652 18.3497 18.3497 19.8652 16.4479 20.6807C14.926 21.3333 12.9877 21.3333 9.11111 21.3333C7.17282 21.3333 6.20367 21.3333 5.44272 21.007C4.49182 20.5993 3.73407 19.8415 3.32631 18.8906C3 18.1297 3 17.1605 3 15.2222V11.0633ZM13.1436 13.1446C14.2156 12.0725 15.2338 12.0588 16.532 12.0588L16.5666 12.0588C17.5091 12.0589 18.5915 12.059 19.6941 11.4934C19.6892 12.3627 19.6753 13.0725 19.6352 13.6782C19.5745 14.5951 19.4563 15.2191 19.246 15.7445C18.6065 17.3418 17.3408 18.6075 15.7435 19.247C15.2181 19.4573 14.5941 19.5755 13.6772 19.6361C13.0715 19.6762 12.3617 19.6902 11.4924 19.6951C12.058 18.5925 12.0579 17.51 12.0578 16.5676L12.0578 16.533C12.0578 15.2348 12.0715 14.2166 13.1436 13.1446Z"/>
</svg>
