<svg width="24" height="24" viewBox="0 0 24 24" xmlns="http://www.w3.org/2000/svg">
<path fill-rule="evenodd" clip-rule="evenodd" d="M1.25 3C1.25 2.44772 1.69772 2 2.25 2H3.63568C4.59841 2 5.44087 2.64723 5.68894 3.57746L4.7227 3.83513L5.68894 3.57746L5.86994 4.25622C6.16281 4.25208 6.45616 4.25 6.75 4.25C11.9747 4.25 17.0473 4.90707 21.8892 6.1436C22.1586 6.2124 22.3872 6.39026 22.5201 6.63449C22.653 6.87872 22.6782 7.16726 22.5897 7.43084C21.7518 9.92592 20.7571 12.3489 19.6172 14.6881C19.4497 15.0319 19.1007 15.25 18.7183 15.25H7.5C6.75972 15.25 6.11337 15.6522 5.76756 16.25H20.25C20.8023 16.25 21.25 16.6977 21.25 17.25C21.25 17.8023 20.8023 18.25 20.25 18.25H4.5C3.94772 18.25 3.5 17.8023 3.5 17.25C3.5 15.4769 4.6537 13.9732 6.25138 13.4487L4.13966 5.52976L4.13966 5.52976L3.75647 4.09279L3.75647 4.09279C3.74188 4.03808 3.69232 4 3.63568 4H2.25C1.69772 4 1.25 3.55228 1.25 3ZM8.26828 13.25H18.0895C18.9256 11.4869 19.6768 9.67587 20.3379 7.82205C15.9765 6.7941 11.4274 6.25 6.75 6.25C6.63388 6.25 6.51784 6.25034 6.40188 6.25101L8.26828 13.25ZM3.5 20.25C3.5 19.2835 4.2835 18.5 5.25 18.5C6.2165 18.5 7 19.2835 7 20.25C7 21.2165 6.2165 22 5.25 22C4.2835 22 3.5 21.2165 3.5 20.25ZM5.25 20.5C5.38807 20.5 5.5 20.3881 5.5 20.25C5.5 20.1119 5.38807 20 5.25 20C5.11193 20 5 20.1119 5 20.25C5 20.3881 5.11193 20.5 5.25 20.5ZM18 20.5C18.1381 20.5 18.25 20.3881 18.25 20.25C18.25 20.1119 18.1381 20 18 20C17.8619 20 17.75 20.1119 17.75 20.25C17.75 20.3881 17.8619 20.5 18 20.5ZM16.25 20.25C16.25 19.2835 17.0335 18.5 18 18.5C18.9665 18.5 19.75 19.2835 19.75 20.25C19.75 21.2165 18.9665 22 18 22C17.0335 22 16.25 21.2165 16.25 20.25Z"/>
</svg>
