<svg width="24" height="24" viewBox="0 0 24 24" xmlns="http://www.w3.org/2000/svg">
<path fill-rule="evenodd" clip-rule="evenodd" d="M13.6108 6.91667C13.6108 5.16776 15.0286 3.75 16.7775 3.75C18.5264 3.75 19.9442 5.16776 19.9442 6.91667C19.9442 7.79139 19.5908 8.58169 19.0167 9.15584C18.4425 9.72999 17.6522 10.0833 16.7775 10.0833C15.0286 10.0833 13.6108 8.66557 13.6108 6.91667ZM16.7775 1.75C13.924 1.75 11.6108 4.0632 11.6108 6.91667C11.6108 9.77014 13.924 12.0833 16.7775 12.0833C17.8423 12.0833 18.8328 11.7605 19.655 11.2084L21.9037 13.4571C22.2943 13.8476 22.9274 13.8476 23.3179 13.4571C23.7085 13.0666 23.7085 12.4334 23.3179 12.0429L21.0692 9.79414C21.6213 8.97192 21.9442 7.98146 21.9442 6.91667C21.9442 4.0632 19.631 1.75 16.7775 1.75ZM8.25 9.5C8.72795 9.5 9.14324 9.23176 9.35355 8.83761C9.53873 9.55537 9.82526 10.2324 10.197 10.8525C9.6543 11.2591 8.98028 11.5 8.25 11.5H6C4.20507 11.5 2.75 10.0449 2.75 8.25V6C2.75 4.20507 4.20507 2.75 6 2.75H8.25C8.906 2.75 9.51661 2.94436 10.0274 3.27864C9.68976 3.90376 9.43645 4.5811 9.28266 5.29544C9.05754 4.96613 8.67901 4.75 8.25 4.75H6C5.30964 4.75 4.75 5.30964 4.75 6V8.25C4.75 8.94036 5.30964 9.5 6 9.5H8.25ZM12.5 15.75C12.5 14.9773 12.7697 14.2675 13.2201 13.7097C13.9699 14.1032 14.7929 14.3762 15.6634 14.503C15.0134 14.5474 14.5 15.0888 14.5 15.75V18C14.5 18.6904 15.0596 19.25 15.75 19.25H18C18.6904 19.25 19.25 18.6904 19.25 18V15.75C19.25 15.0596 18.6904 14.5 18 14.5H17.9098C18.3273 14.438 18.734 14.3423 19.127 14.2158L20.136 15.2249C20.4659 15.5547 20.8451 15.8049 21.25 15.9756V18C21.25 19.7949 19.7949 21.25 18 21.25H15.75C13.9551 21.25 12.5 19.7949 12.5 18V15.75ZM2.75 15.75C2.75 13.9551 4.20507 12.5 6 12.5H8.25C10.0449 12.5 11.5 13.9551 11.5 15.75V18C11.5 19.7949 10.0449 21.25 8.25 21.25H6C4.20507 21.25 2.75 19.7949 2.75 18V15.75ZM6 14.5C5.30964 14.5 4.75 15.0596 4.75 15.75V18C4.75 18.6904 5.30964 19.25 6 19.25H8.25C8.94036 19.25 9.5 18.6904 9.5 18V15.75C9.5 15.0596 8.94036 14.5 8.25 14.5H6Z"/>
</svg>
