<svg width="24" height="24" viewBox="0 0 24 24" xmlns="http://www.w3.org/2000/svg">
<path fill-rule="evenodd" clip-rule="evenodd" d="M8.25 6.25C6.59163 6.25 4.95365 6.33585 3.3402 6.50329C3.29818 6.50765 3.25 6.54659 3.25 6.61479V13.2504H13.25V7.57315V6.61479C13.25 6.54659 13.2018 6.50765 13.1598 6.50329C11.5464 6.33585 9.90837 6.25 8.25 6.25ZM13.25 15.2504H3.25V17.625C3.25 17.694 3.30596 17.75 3.375 17.75H4.45802C4.8438 16.867 5.72484 16.25 6.75 16.25C7.77516 16.25 8.6562 16.867 9.04198 17.75H13.25V15.2504ZM15.25 17.75H15.708C16.0938 16.867 16.9748 16.25 18 16.25C19.0252 16.25 19.9062 16.867 20.292 17.75L20.625 17.75C20.662 17.75 20.6884 17.7356 20.7037 17.72C20.7111 17.7125 20.7143 17.7063 20.7156 17.7029C20.7165 17.7005 20.7179 17.6963 20.7173 17.6871C20.519 14.469 19.4257 11.4943 17.6826 9.00668C17.5111 8.76184 17.224 8.59801 16.8911 8.57315H15.25V14.2504V17.75ZM15.2496 6.57315C15.2292 5.52413 14.439 4.6253 13.3662 4.51397C11.6843 4.33943 9.97744 4.25 8.25 4.25C6.52256 4.25 4.81567 4.33943 3.13376 4.51397C2.04685 4.62677 1.25 5.54801 1.25 6.61479V14.2504V17.625C1.25 18.7986 2.20139 19.75 3.375 19.75H4.45802C4.8438 20.633 5.72484 21.25 6.75 21.25C7.77516 21.25 8.6562 20.633 9.04198 19.75H14.25H15.708C16.0938 20.633 16.9748 21.25 18 21.25C19.0252 21.25 19.9062 20.6329 20.292 19.75L20.625 19.75C21.7811 19.75 22.7898 18.8004 22.7136 17.564C22.4918 13.9669 21.2688 10.6394 19.3206 7.85899C18.7717 7.07567 17.8952 6.62502 16.9775 6.57465C16.9592 6.57365 16.9409 6.57315 16.9227 6.57315H15.2496ZM6.75 18.25C6.47386 18.25 6.25 18.4739 6.25 18.75C6.25 19.0261 6.47386 19.25 6.75 19.25C7.02614 19.25 7.25 19.0261 7.25 18.75C7.25 18.4739 7.02614 18.25 6.75 18.25ZM18 18.25C17.7239 18.25 17.5 18.4739 17.5 18.75C17.5 19.0261 17.7239 19.25 18 19.25C18.2761 19.25 18.5 19.0261 18.5 18.75C18.5 18.4739 18.2761 18.25 18 18.25Z"/>
</svg>
