<svg width="24" height="24" viewBox="0 0 24 24" xmlns="http://www.w3.org/2000/svg">
<path fill-rule="evenodd" clip-rule="evenodd" d="M9.375 3.25C9.30596 3.25 9.25 3.30596 9.25 3.375V6.87444V16.125C9.25 16.194 9.30596 16.25 9.375 16.25H15.75H19.125C19.194 16.25 19.25 16.194 19.25 16.125V13.5V11.625C19.25 10.3133 18.1867 9.25 16.875 9.25H15.375C14.2014 9.25 13.25 8.29861 13.25 7.125V5.625C13.25 4.31332 12.1867 3.25 10.875 3.25H9.75H9.375ZM15.0076 4.18531C15.1646 4.63617 15.25 5.12062 15.25 5.625V7.125C15.25 7.19404 15.306 7.25 15.375 7.25H16.875C17.3792 7.25 17.8635 7.3353 18.3143 7.49225C17.5659 6.08832 16.4114 4.93361 15.0076 4.18531ZM21.25 11.625V13.5V16.125C21.25 17.2986 20.2986 18.25 19.125 18.25H16.75V20.625C16.75 21.7986 15.7986 22.75 14.625 22.75H4.875C3.70139 22.75 2.75 21.7986 2.75 20.625V7.875C2.75 6.7014 3.70139 5.75 4.875 5.75H6.75C6.9176 5.75 7.0843 5.75413 7.25 5.7623V3.375C7.25 2.20139 8.2014 1.25 9.375 1.25H9.75H10.875H11.25C11.8167 1.25 12.3732 1.29725 12.9155 1.38822C17.6457 2.18181 21.25 6.29401 21.25 11.25V11.625ZM7.25 7.76534C7.08474 7.75517 6.91802 7.75 6.75 7.75H4.875C4.80596 7.75 4.75 7.80596 4.75 7.875V20.625C4.75 20.694 4.80596 20.75 4.875 20.75H14.625C14.694 20.75 14.75 20.694 14.75 20.625V18.25H9.375C8.2014 18.25 7.25 17.2986 7.25 16.125V7.76534Z"/>
</svg>
