<svg width="24" height="24" viewBox="0 0 24 24" xmlns="http://www.w3.org/2000/svg">
<path fill-rule="evenodd" clip-rule="evenodd" d="M7.6875 4.75C5.61208 4.75 4 6.35508 4 8.25C4 11.4405 5.99958 14.1919 8.18187 16.2262C9.25671 17.2282 10.3357 18.018 11.1474 18.5576C11.4869 18.7833 11.7779 18.9641 12 19.0972C12.2221 18.9641 12.5131 18.7833 12.8526 18.5576C13.6643 18.018 14.7433 17.2282 15.8181 16.2262C18.0004 14.1919 20 11.4405 20 8.25C20 6.35508 18.3879 4.75 16.3125 4.75C14.768 4.75 13.4667 5.64727 12.9136 6.89003C12.753 7.2509 12.395 7.48342 12 7.48342C11.605 7.48342 11.247 7.2509 11.0864 6.89003C10.5333 5.64727 9.23197 4.75 7.6875 4.75ZM12 20.25C11.531 21.1332 11.5307 21.133 11.5303 21.1328L11.5295 21.1324L11.5272 21.1312L11.5201 21.1274L11.4963 21.1145C11.4763 21.1036 11.4479 21.088 11.4118 21.0679C11.3396 21.0276 11.2362 20.9689 11.1062 20.8924C10.8463 20.7395 10.479 20.5149 10.0401 20.2232C9.16432 19.641 7.99329 18.7847 6.81813 17.6892C4.50042 15.5286 2 12.28 2 8.25C2 5.17435 4.58525 2.75 7.6875 2.75C9.40283 2.75 10.9525 3.48658 12 4.66362C13.0476 3.48658 14.5972 2.75 16.3125 2.75C19.4148 2.75 22 5.17435 22 8.25C22 12.28 19.4996 15.5286 17.1819 17.6892C16.0067 18.7847 14.8357 19.641 13.9599 20.2232C13.521 20.5149 13.1537 20.7395 12.8938 20.8924C12.7638 20.9689 12.6604 21.0276 12.5882 21.0679C12.5521 21.088 12.5237 21.1036 12.5037 21.1145L12.4799 21.1274L12.4728 21.1312L12.4705 21.1324L12.4697 21.1328C12.4693 21.133 12.469 21.1332 12 20.25ZM12 20.25L12.469 21.1332C12.1757 21.2889 11.8243 21.2889 11.531 21.1332L12 20.25Z"/>
</svg>
