<svg width="24" height="24" viewBox="0 0 24 24" xmlns="http://www.w3.org/2000/svg">
<path fill-rule="evenodd" clip-rule="evenodd" d="M12.0287 4.55477C12.0128 4.53887 11.9871 4.53887 11.9712 4.55477L6.06184 10.4641V19.4163C6.06184 19.4388 6.08007 19.457 6.10256 19.457H8.53089H8.91851V15.9473C8.91851 14.8202 9.83217 13.9065 10.9592 13.9065H13.0407C14.1677 13.9065 15.0814 14.8202 15.0814 15.9473V19.457H16.1628H17.8973C17.9198 19.457 17.9381 19.4388 17.9381 19.4163V10.4641L12.0287 4.55477ZM19.9381 12.4641L20.3124 12.8384C20.7029 13.2289 21.3361 13.2289 21.7266 12.8384C22.1171 12.4479 22.1171 11.8147 21.7266 11.4242L13.443 3.14056C12.646 2.34361 11.3539 2.34361 10.5569 3.14056L4.35473 9.34277L2.2733 11.4242C1.88278 11.8147 1.88278 12.4479 2.2733 12.8384C2.66383 13.2289 3.29699 13.2289 3.68751 12.8384L4.06184 12.4641V19.4163C4.06184 20.5434 4.9755 21.457 6.10256 21.457H8.53089H9.91851H14.0814H16.1628H17.8973C19.0244 21.457 19.9381 20.5434 19.9381 19.4163V12.4641ZM13.0814 19.457H10.9185V15.9473C10.9185 15.9248 10.9367 15.9065 10.9592 15.9065H13.0407C13.0631 15.9065 13.0814 15.9248 13.0814 15.9473V19.457Z"/>
</svg>
