<svg width="24" height="24" viewBox="0 0 24 24" xmlns="http://www.w3.org/2000/svg">
<path fill-rule="evenodd" clip-rule="evenodd" d="M5.37863 4.00012C5.24602 4.00012 5.11884 4.0528 5.02507 4.14657L3.83579 5.33586C3.05474 6.1169 3.05474 7.38323 3.83579 8.16428C3.96358 8.29208 4.10315 8.3981 4.25042 8.48322C5.01559 8.92549 6.01084 8.81765 6.66421 8.16428C6.69427 8.13422 6.7231 8.10354 6.75071 8.0723C6.94058 7.85741 7.21358 7.73437 7.50034 7.73444C7.7871 7.73452 8.06003 7.85769 8.24979 8.07268C8.61773 8.48951 9.15282 8.74998 9.75 8.74998C10.3472 8.74998 10.8823 8.48948 11.2503 8.07262C11.4401 7.85754 11.7131 7.73435 12 7.73435C12.2869 7.73435 12.5599 7.85754 12.7497 8.07262C13.1177 8.48949 13.6528 8.74998 14.25 8.74998C14.8471 8.74998 15.3822 8.48954 15.7501 8.07275C15.9399 7.85779 16.2128 7.73463 16.4995 7.73456C16.7863 7.73448 17.0592 7.85748 17.2491 8.07234C17.2767 8.10357 17.3055 8.13421 17.3355 8.16419L16.6407 8.85896L17.3355 8.1642C17.9889 8.81762 18.9843 8.92542 19.7495 8.48303C19.8967 8.39792 20.0362 8.29194 20.1639 8.1642C20.945 7.38315 20.945 6.11682 20.1639 5.33577L18.9747 4.14657C18.881 4.0528 18.7538 4.00012 18.6212 4.00012H5.37863ZM16.4994 10.0579C15.8587 10.4942 15.0839 10.75 14.25 10.75C13.4158 10.75 12.6408 10.494 12 10.0574C11.3592 10.494 10.5842 10.75 9.75 10.75C8.91604 10.75 8.14122 10.4942 7.50053 10.0578C6.67996 10.6175 5.69775 10.8376 4.75 10.7187V20H10.5V13.5C10.5 12.5335 11.2835 11.75 12.25 11.75H15.25C16.2165 11.75 17 12.5335 17 13.5V20H19.25V10.7185C18.3022 10.8375 17.32 10.6175 16.4994 10.0579ZM21.25 9.87259C21.3636 9.78148 21.4732 9.6834 21.5781 9.57841C23.1402 8.01631 23.1402 5.48365 21.5781 3.92156L20.3889 2.73236C19.9201 2.26352 19.2842 2.00012 18.6212 2.00012H5.37863C4.71558 2.00012 4.0797 2.26351 3.61086 2.73236L2.42157 3.92164C0.859476 5.48374 0.859476 8.0164 2.42157 9.5785L3.12868 8.87139L2.42157 9.5785C2.52665 9.68357 2.63632 9.78173 2.75 9.8729V20H2.36088C1.80859 20 1.36088 20.4477 1.36088 21C1.36088 21.5523 1.80859 22 2.36088 22H3.75H11.5H16H20.25H21.6391C22.1914 22 22.6391 21.5523 22.6391 21C22.6391 20.4477 22.1914 20 21.6391 20H21.25V9.87259ZM15 20V13.75H12.5V20H15Z"/>
</svg>
