<svg width="24" height="24" viewBox="0 0 24 24" xmlns="http://www.w3.org/2000/svg">
<path fill-rule="evenodd" clip-rule="evenodd" d="M14.0734 4.10345C14.5617 3.9891 14.8295 4.0711 14.9212 4.1589C15.0584 4.29025 15.147 4.53312 15.072 4.9012C14.9977 5.26539 14.7688 5.69064 14.3774 6.06545C14.0558 6.37346 13.5191 6.53012 12.994 6.56912C12.8237 6.58177 12.6695 6.58078 12.5441 6.57232C12.5433 6.37328 12.5488 6.12063 12.5748 5.84867C12.5999 5.58546 12.6427 5.32691 12.7103 5.10781C12.7804 4.88018 12.8622 4.74526 12.9306 4.67974C13.1746 4.44609 13.6192 4.20981 14.0734 4.10345ZM13.8066 3.05821C13.1871 3.20328 12.5487 3.52381 12.1362 3.91887C12.0763 3.9763 12.0222 4.03818 11.9732 4.10314C11.9243 4.03818 11.8702 3.9763 11.8102 3.91887C11.3977 3.52381 10.7593 3.20328 10.1398 3.05821C9.55447 2.92112 8.75803 2.89307 8.23081 3.39803C7.74907 3.85943 7.65003 4.51008 7.77181 5.10741C7.87631 5.61998 8.14781 6.14043 8.5527 6.59607L4.52866 6.5976C3.92131 6.59783 3.42908 7.09025 3.42908 7.6976V10.1525C3.42908 10.76 3.92156 11.2525 4.52908 11.2525H5.1177V19.9277C5.1177 20.5353 5.61019 21.0278 6.2177 21.0278H15.2084C15.5122 21.0278 15.7584 20.7815 15.7584 20.4777C15.7584 20.174 15.5122 19.9277 15.2084 19.9277H12.5486V11.2525H17.7824V13.1444C17.7824 13.4482 18.0286 13.6944 18.3324 13.6944C18.6361 13.6944 18.8824 13.4482 18.8824 13.1444V11.2525H19.471C20.0785 11.2525 20.571 10.76 20.571 10.1525V7.6919C20.571 7.08423 20.0783 6.59167 19.4706 6.5919L15.3961 6.59346C15.7997 6.13844 16.0703 5.619 16.1746 5.10741C16.2964 4.51008 16.1974 3.85943 15.7156 3.39803C15.1884 2.89307 14.392 2.92112 13.8066 3.05821ZM4.52908 7.6976L11.4486 7.69496V10.1525H5.6677H4.52908L4.52908 7.6976ZM18.3324 10.1525H12.5486V7.69454L19.471 7.6919V10.1525L18.3324 10.1525ZM6.2177 11.2525H11.4486V19.9277H6.2177V11.2525ZM9.87302 4.10345C9.38473 3.9891 9.11689 4.0711 9.02522 4.1589C8.88807 4.29025 8.7994 4.53312 8.87444 4.9012C8.94869 5.26539 9.17768 5.69064 9.56902 6.06545C9.89059 6.37346 10.4273 6.53012 10.9524 6.56912C11.1228 6.58177 11.277 6.58078 11.4024 6.57232C11.4032 6.37328 11.3976 6.12063 11.3717 5.84867C11.3466 5.58546 11.3037 5.32691 11.2362 5.10781C11.166 4.88018 11.0842 4.74526 11.0158 4.67974C10.7719 4.44609 10.3272 4.20981 9.87302 4.10345ZM17.7282 15.476C17.93 15.249 18.2776 15.2285 18.5046 15.4303L20.1769 16.9168C20.2943 17.0212 20.3615 17.1708 20.3615 17.3279C20.3615 17.485 20.2943 17.6346 20.1769 17.739L18.5046 19.2254C18.2776 19.4273 17.93 19.4068 17.7282 19.1798C17.5264 18.9527 17.5468 18.6051 17.7738 18.4033L18.3645 17.8782H15.7174C15.4136 17.8782 15.1674 17.632 15.1674 17.3282C15.1674 17.0245 15.4136 16.7782 15.7174 16.7782L18.3653 16.7782L17.7738 16.2525C17.5468 16.0507 17.5264 15.703 17.7282 15.476Z"/>
</svg>
