<svg width="24" height="24" viewBox="0 0 24 24" xmlns="http://www.w3.org/2000/svg">
<path fill-rule="evenodd" clip-rule="evenodd" d="M13.6198 4.10345C14.1081 3.9891 14.3759 4.0711 14.4676 4.1589C14.6048 4.29025 14.6934 4.53312 14.6184 4.9012C14.5441 5.26539 14.3151 5.69064 13.9238 6.06545C13.6022 6.37346 13.0655 6.53012 12.5404 6.56912C12.3701 6.58177 12.2158 6.58078 12.0904 6.57232C12.0897 6.37328 12.0952 6.12063 12.1212 5.84867C12.1463 5.58546 12.1891 5.32691 12.2567 5.10781C12.3268 4.88018 12.4086 4.74526 12.477 4.67974C12.721 4.44609 13.1656 4.20981 13.6198 4.10345ZM13.353 3.05821C12.7335 3.20328 12.0951 3.52381 11.6826 3.91887C11.6227 3.9763 11.5685 4.03818 11.5196 4.10314C11.4707 4.03818 11.4165 3.9763 11.3566 3.91887C10.9441 3.52381 10.3057 3.20328 9.68623 3.05821C9.10086 2.92112 8.30442 2.89307 7.7772 3.39803C7.29546 3.85943 7.19642 4.51008 7.3182 5.10741C7.42269 5.61998 7.69419 6.14043 8.09908 6.59607L4.07504 6.5976C3.46769 6.59783 2.97546 7.09025 2.97546 7.6976V10.1525C2.97546 10.76 3.46795 11.2525 4.07546 11.2525H4.66409V19.9277C4.66409 20.5353 5.15658 21.0278 5.76409 21.0278H14.7548C15.0586 21.0278 15.3048 20.7815 15.3048 20.4777C15.3048 20.174 15.0586 19.9277 14.7548 19.9277H12.095V11.2525H17.3288V13.1444C17.3288 13.4482 17.575 13.6944 17.8788 13.6944C18.1825 13.6944 18.4288 13.4482 18.4288 13.1444V11.2525H19.0174C19.6249 11.2525 20.1174 10.76 20.1174 10.1525V7.6919C20.1174 7.08423 19.6247 6.59167 19.017 6.5919L14.9424 6.59346C15.3461 6.13844 15.6167 5.619 15.721 5.10741C15.8428 4.51008 15.7437 3.85943 15.262 3.39803C14.7348 2.89307 13.9384 2.92112 13.353 3.05821ZM4.07546 7.6976L10.995 7.69496V10.1525H5.21409H4.07546L4.07546 7.6976ZM17.8788 10.1525H12.095V7.69454L19.0174 7.6919V10.1525L17.8788 10.1525ZM5.76409 11.2525H10.995V19.9277H5.76409V11.2525ZM9.4194 4.10345C8.93111 3.9891 8.66327 4.0711 8.5716 4.1589C8.43446 4.29025 8.34579 4.53312 8.42083 4.9012C8.49508 5.26539 8.72407 5.69064 9.11541 6.06545C9.43698 6.37346 9.97369 6.53012 10.4988 6.56912C10.6692 6.58177 10.8234 6.58078 10.9488 6.57232C10.9495 6.37328 10.944 6.12063 10.9181 5.84867C10.893 5.58546 10.8501 5.32691 10.7826 5.10781C10.7124 4.88018 10.6306 4.74526 10.5622 4.67974C10.3182 4.44609 9.87358 4.20981 9.4194 4.10345ZM18.4639 19.1829C18.2621 19.4099 17.9144 19.4304 17.6874 19.2286L16.0151 17.7421C15.8977 17.6377 15.8305 17.4881 15.8305 17.331C15.8305 17.1739 15.8977 17.0243 16.0151 16.9199L17.6874 15.4334C17.9144 15.2316 18.2621 15.2521 18.4639 15.4791C18.6657 15.7061 18.6452 16.0538 18.4182 16.2556L17.8275 16.7807H20.4747C20.7784 16.7807 21.0247 17.0269 21.0247 17.3307C21.0247 17.6344 20.7784 17.8807 20.4747 17.8807H17.8267L18.4182 18.4064C18.6452 18.6082 18.6657 18.9558 18.4639 19.1829Z"/>
</svg>
