<svg width="24" height="24" viewBox="0 0 24 24" xmlns="http://www.w3.org/2000/svg">
<path fill-rule="evenodd" clip-rule="evenodd" d="M13 16C13 16.5523 12.5523 17 12 17C11.4477 17 11 16.5523 11 16V6.22684L8.16436 8.74741C7.75158 9.11433 7.11951 9.07715 6.75259 8.66436C6.38567 8.25158 6.42285 7.61951 6.83564 7.25259L11.3356 3.25259C11.7145 2.9158 12.2855 2.9158 12.6644 3.25259L17.1644 7.25259C17.5771 7.61951 17.6143 8.25158 17.2474 8.66436C16.8805 9.07715 16.2484 9.11433 15.8356 8.74741L13 6.22684V16ZM4 16C4 15.4477 3.55228 15 3 15C2.44772 15 2 15.4477 2 16V18.25C2 20.0449 3.45507 21.5 5.25 21.5H18.75C20.5449 21.5 22 20.0449 22 18.25V16C22 15.4477 21.5523 15 21 15C20.4477 15 20 15.4477 20 16V18.25C20 18.9404 19.4404 19.5 18.75 19.5H5.25C4.55964 19.5 4 18.9404 4 18.25V16Z"/>
</svg>
