<svg width="24" height="24" viewBox="0 0 24 24" xmlns="http://www.w3.org/2000/svg">
<path fill-rule="evenodd" clip-rule="evenodd" d="M12 4C7.58172 4 4 7.58172 4 12C4 16.4183 7.58172 20 12 20C16.4183 20 20 16.4183 20 12C20 7.58172 16.4183 4 12 4ZM2 12C2 6.47715 6.47715 2 12 2C17.5228 2 22 6.47715 22 12C22 17.5228 17.5228 22 12 22C6.47715 22 2 17.5228 2 12ZM15.5812 8.93627C16.0307 9.25728 16.1347 9.88183 15.8137 10.3312L12.0637 15.5812C11.8929 15.8204 11.6254 15.9723 11.3325 15.9966C11.0395 16.0208 10.7507 15.915 10.5429 15.7071L8.29289 13.4571C7.90237 13.0666 7.90237 12.4334 8.29289 12.0429C8.68342 11.6524 9.31658 11.6524 9.70711 12.0429L11.1224 13.4582L14.1863 9.16876C14.5073 8.71935 15.1318 8.61526 15.5812 8.93627Z"/>
</svg>
