<svg width="24" height="24" viewBox="0 0 24 24" xmlns="http://www.w3.org/2000/svg">
<path fill-rule="evenodd" clip-rule="evenodd" d="M19.5 11.75C19.5 16.0302 16.0302 19.5 11.75 19.5C7.46979 19.5 4 16.0302 4 11.75C4 7.46979 7.46979 4 11.75 4C16.0302 4 19.5 7.46979 19.5 11.75ZM21.5 11.75C21.5 17.1348 17.1348 21.5 11.75 21.5C6.36522 21.5 2 17.1348 2 11.75C2 6.36522 6.36522 2 11.75 2C17.1348 2 21.5 6.36522 21.5 11.75ZM12.75 7.41663C12.75 6.86434 12.3023 6.41663 11.75 6.41663C11.1977 6.41663 10.75 6.86434 10.75 7.41663V11.75V12.2183L11.1098 12.5182L14.3598 15.2265C14.7841 15.5801 15.4147 15.5228 15.7682 15.0985C16.1218 14.6742 16.0645 14.0436 15.6402 13.6901L12.75 11.2816V7.41663Z"/>
</svg>
