<svg width="24" height="24" viewBox="0 0 24 24" xmlns="http://www.w3.org/2000/svg">
<path fill-rule="evenodd" clip-rule="evenodd" d="M12 2.25C6.61522 2.25 2.25 6.61522 2.25 12C2.25 17.3848 6.61522 21.75 12 21.75C17.3848 21.75 21.75 17.3848 21.75 12C21.75 6.61522 17.3848 2.25 12 2.25ZM15.7938 10.3735C16.1238 9.9306 16.0322 9.3041 15.5893 8.97417C15.1464 8.64424 14.5199 8.73583 14.1899 9.17874L11.0361 13.4125L9.62883 12.0336C9.23436 11.6471 8.60123 11.6535 8.21469 12.048C7.82816 12.4424 7.8346 13.0756 8.22908 13.4621L10.4542 15.6424C10.6604 15.8445 10.9438 15.9475 11.2316 15.9251C11.5195 15.9027 11.7835 15.7571 11.956 15.5255L15.7938 10.3735Z"/>
</svg>
