<svg width="24" height="24" viewBox="0 0 24 24" xmlns="http://www.w3.org/2000/svg">
<path fill-rule="evenodd" clip-rule="evenodd" d="M11.9999 17.9999C11.4563 17.9999 11.0156 17.5592 11.0156 17.0156V11.1093C11.0156 10.5657 11.4563 10.1249 11.9999 10.1249C12.5436 10.1249 12.9843 10.5657 12.9843 11.1093V17.0156C12.9843 17.5592 12.5436 17.9999 11.9999 17.9999ZM11.9999 6.07494C11.2751 6.07494 10.6874 6.66257 10.6874 7.38744C10.6874 8.11232 11.2751 8.69994 11.9999 8.69994C12.7248 8.69994 13.3124 8.11232 13.3124 7.38744C13.3124 6.66257 12.7248 6.07494 11.9999 6.07494Z"/>
<path fill-rule="evenodd" clip-rule="evenodd" d="M22.5599 11.9999C22.5599 17.8321 17.8321 22.5599 11.9999 22.5599C6.16782 22.5599 1.43994 17.8321 1.43994 11.9999C1.43994 6.16782 6.16782 1.43994 11.9999 1.43994C17.8321 1.43994 22.5599 6.16782 22.5599 11.9999ZM11.9999 20.3999C16.6391 20.3999 20.3999 16.6391 20.3999 11.9999C20.3999 7.36075 16.6391 3.59994 11.9999 3.59994C7.36075 3.59994 3.59994 7.36075 3.59994 11.9999C3.59994 16.6391 7.36075 20.3999 11.9999 20.3999Z"/>
</svg>
