<svg width="24" height="24" viewBox="0 0 24 24" xmlns="http://www.w3.org/2000/svg">
<path fill-rule="evenodd" clip-rule="evenodd" d="M20.5 12C20.5 16.6944 16.6944 20.5 12 20.5C7.30558 20.5 3.5 16.6944 3.5 12C3.5 7.30558 7.30558 3.5 12 3.5C16.6944 3.5 20.5 7.30558 20.5 12ZM22 12C22 17.5228 17.5228 22 12 22C6.47715 22 2 17.5228 2 12C2 6.47715 6.47715 2 12 2C17.5228 2 22 6.47715 22 12ZM11.75 8C11.75 7.58579 11.4142 7.25 11 7.25C10.5858 7.25 10.25 7.58579 10.25 8V13V13.75H11H15C15.4142 13.75 15.75 13.4142 15.75 13C15.75 12.5858 15.4142 12.25 15 12.25H11.75V8Z"/>
</svg>
