<svg width="24" height="24" viewBox="0 0 24 24" xmlns="http://www.w3.org/2000/svg">
<mask id="path-1-outside-1_18843_62962" maskUnits="userSpaceOnUse" x="3.41846" y="1" width="18" height="22" fill="black">
<rect fill="white" x="3.41846" y="1" width="18" height="22"/>
<path fill-rule="evenodd" clip-rule="evenodd" d="M13.0001 3C13.0001 2.73478 12.8947 2.48043 12.7072 2.29289C12.5197 2.10536 12.2653 2 12.0001 2C11.7349 2 11.4805 2.10536 11.293 2.29289C11.1055 2.48043 11.0001 2.73478 11.0001 3V3.75H10.4431C9.37113 3.74993 8.33943 4.15839 7.55803 4.89224C6.77662 5.62608 6.30426 6.63014 6.2371 7.7L6.0161 11.234C5.93183 12.5814 5.4794 13.8799 4.7081 14.988C4.54874 15.2171 4.45136 15.4835 4.42545 15.7613C4.39953 16.0392 4.44596 16.319 4.56022 16.5736C4.67447 16.8281 4.85267 17.0488 5.07747 17.2142C5.30227 17.3795 5.56604 17.4838 5.8431 17.517L9.2501 17.925V19C9.2501 19.7293 9.53983 20.4288 10.0556 20.9445C10.5713 21.4603 11.2708 21.75 12.0001 21.75C12.7294 21.75 13.4289 21.4603 13.9446 20.9445C14.4604 20.4288 14.7501 19.7293 14.7501 19V17.925L18.1571 17.516C18.434 17.4827 18.6976 17.3784 18.9223 17.2131C19.1469 17.0478 19.325 16.8273 19.4393 16.5729C19.5535 16.3184 19.6 16.0388 19.5742 15.7611C19.5484 15.4834 19.4512 15.2171 19.2921 14.988C18.5208 13.88 18.0683 12.5815 17.9841 11.234L17.7631 7.701C17.6962 6.63096 17.2239 5.62665 16.4425 4.8926C15.6611 4.15855 14.6292 3.74995 13.5571 3.75H13.0001V3ZM10.7501 19C10.7501 19.3315 10.8818 19.6495 11.1162 19.8839C11.3506 20.1183 11.6686 20.25 12.0001 20.25C12.3316 20.25 12.6496 20.1183 12.884 19.8839C13.1184 19.6495 13.2501 19.3315 13.2501 19V18.25H10.7501V19Z"/>
</mask>
<path fill-rule="evenodd" clip-rule="evenodd" d="M13.0001 3C13.0001 2.73478 12.8947 2.48043 12.7072 2.29289C12.5197 2.10536 12.2653 2 12.0001 2C11.7349 2 11.4805 2.10536 11.293 2.29289C11.1055 2.48043 11.0001 2.73478 11.0001 3V3.75H10.4431C9.37113 3.74993 8.33943 4.15839 7.55803 4.89224C6.77662 5.62608 6.30426 6.63014 6.2371 7.7L6.0161 11.234C5.93183 12.5814 5.4794 13.8799 4.7081 14.988C4.54874 15.2171 4.45136 15.4835 4.42545 15.7613C4.39953 16.0392 4.44596 16.319 4.56022 16.5736C4.67447 16.8281 4.85267 17.0488 5.07747 17.2142C5.30227 17.3795 5.56604 17.4838 5.8431 17.517L9.2501 17.925V19C9.2501 19.7293 9.53983 20.4288 10.0556 20.9445C10.5713 21.4603 11.2708 21.75 12.0001 21.75C12.7294 21.75 13.4289 21.4603 13.9446 20.9445C14.4604 20.4288 14.7501 19.7293 14.7501 19V17.925L18.1571 17.516C18.434 17.4827 18.6976 17.3784 18.9223 17.2131C19.1469 17.0478 19.325 16.8273 19.4393 16.5729C19.5535 16.3184 19.6 16.0388 19.5742 15.7611C19.5484 15.4834 19.4512 15.2171 19.2921 14.988C18.5208 13.88 18.0683 12.5815 17.9841 11.234L17.7631 7.701C17.6962 6.63096 17.2239 5.62665 16.4425 4.8926C15.6611 4.15855 14.6292 3.74995 13.5571 3.75H13.0001V3ZM10.7501 19C10.7501 19.3315 10.8818 19.6495 11.1162 19.8839C11.3506 20.1183 11.6686 20.25 12.0001 20.25C12.3316 20.25 12.6496 20.1183 12.884 19.8839C13.1184 19.6495 13.2501 19.3315 13.2501 19V18.25H10.7501V19Z" fill="#252629"/>
<path d="M12.0001 2V1V2ZM11.0001 3.75V4.75H12.0001V3.75H11.0001ZM10.4431 3.75L10.443 4.75H10.4431V3.75ZM6.2371 7.7L5.23907 7.63735L5.23905 7.63759L6.2371 7.7ZM6.0161 11.234L7.01415 11.2964L7.01415 11.2964L6.0161 11.234ZM4.7081 14.988L3.88736 14.4167L3.88723 14.4169L4.7081 14.988ZM5.8431 17.517L5.72415 18.5099L5.7242 18.5099L5.8431 17.517ZM9.2501 17.925H10.2501V17.0376L9.36901 16.9321L9.2501 17.925ZM9.2501 19H8.2501H9.2501ZM14.7501 19H13.7501H14.7501ZM14.7501 17.925L14.6309 16.9321L13.7501 17.0379V17.925H14.7501ZM18.1571 17.516L18.2763 18.5089L18.2765 18.5089L18.1571 17.516ZM19.2921 14.988L20.1134 14.4175L20.1128 14.4167L19.2921 14.988ZM17.9841 11.234L18.9822 11.1716L18.9822 11.1716L17.9841 11.234ZM17.7631 7.701L16.7651 7.76341L16.7651 7.76343L17.7631 7.701ZM13.5571 3.75V4.75H13.5572L13.5571 3.75ZM13.0001 3.75H12.0001V4.75H13.0001V3.75ZM10.7501 19H9.7501H10.7501ZM13.2501 18.25H14.2501V17.25H13.2501V18.25ZM10.7501 18.25V17.25H9.7501V18.25H10.7501ZM14.0001 3C14.0001 2.46957 13.7894 1.96086 13.4143 1.58579L12.0001 3V3H14.0001ZM13.4143 1.58579C13.0392 1.21071 12.5305 1 12.0001 1V3V3L13.4143 1.58579ZM12.0001 1C11.4697 1 10.961 1.21071 10.5859 1.58579L12.0001 3V3V1ZM10.5859 1.58579C10.2108 1.96086 10.0001 2.46957 10.0001 3H12.0001V3L10.5859 1.58579ZM10.0001 3V3.75H12.0001V3H10.0001ZM11.0001 2.75H10.4431V4.75H11.0001V2.75ZM10.4432 2.75C9.11682 2.74991 7.84029 3.25531 6.87345 4.16329L8.2426 5.62118C8.83857 5.06148 9.62545 4.74995 10.443 4.75L10.4432 2.75ZM6.87345 4.16329C5.90662 5.07128 5.32216 6.3136 5.23907 7.63735L7.23514 7.76265C7.28636 6.94667 7.64663 6.18088 8.2426 5.62118L6.87345 4.16329ZM5.23905 7.63759L5.01805 11.1716L7.01415 11.2964L7.23515 7.76241L5.23905 7.63759ZM5.01805 11.1716C4.9452 12.3364 4.55411 13.4588 3.88736 14.4167L5.52885 15.5593C6.4047 14.301 6.91846 12.8265 7.01415 11.2964L5.01805 11.1716ZM3.88723 14.4169C3.6293 14.7876 3.47171 15.2188 3.42977 15.6684L5.42112 15.8542C5.43101 15.7482 5.46817 15.6465 5.52898 15.5591L3.88723 14.4169ZM3.42977 15.6684C3.38783 16.1181 3.46297 16.571 3.64788 16.983L5.47255 16.1641C5.42895 16.067 5.41124 15.9602 5.42112 15.8542L3.42977 15.6684ZM3.64788 16.983C3.8328 17.395 4.12119 17.7522 4.48502 18.0198L5.66992 16.4085C5.58414 16.3455 5.51615 16.2613 5.47255 16.1641L3.64788 16.983ZM4.48502 18.0198C4.84885 18.2873 5.27573 18.4562 5.72415 18.5099L5.96206 16.5241C5.85634 16.5114 5.7557 16.4716 5.66992 16.4085L4.48502 18.0198ZM5.7242 18.5099L9.1312 18.9179L9.36901 16.9321L5.96201 16.5241L5.7242 18.5099ZM8.2501 17.925V19H10.2501V17.925H8.2501ZM8.2501 19C8.2501 19.9946 8.64519 20.9484 9.34845 21.6517L10.7627 20.2374C10.4345 19.9092 10.2501 19.4641 10.2501 19H8.2501ZM9.34845 21.6517C10.0517 22.3549 11.0055 22.75 12.0001 22.75V20.75C11.536 20.75 11.0909 20.5656 10.7627 20.2374L9.34845 21.6517ZM12.0001 22.75C12.9947 22.75 13.9485 22.3549 14.6518 21.6517L13.2375 20.2374C12.9094 20.5656 12.4642 20.75 12.0001 20.75V22.75ZM14.6518 21.6517C15.355 20.9484 15.7501 19.9946 15.7501 19H13.7501C13.7501 19.4641 13.5657 19.9092 13.2375 20.2374L14.6518 21.6517ZM15.7501 19V17.925H13.7501V19H15.7501ZM14.8693 18.9179L18.2763 18.5089L18.0379 16.5231L14.6309 16.9321L14.8693 18.9179ZM18.2765 18.5089C18.7246 18.455 19.1512 18.2861 19.5148 18.0186L18.3297 16.4076C18.244 16.4706 18.1434 16.5104 18.0377 16.5231L18.2765 18.5089ZM19.5148 18.0186C19.8784 17.7512 20.1666 17.3942 20.3515 16.9824L18.527 16.1633C18.4834 16.2604 18.4154 16.3445 18.3297 16.4076L19.5148 18.0186ZM20.3515 16.9824C20.5364 16.5707 20.6116 16.1181 20.5699 15.6686L18.5785 15.8535C18.5883 15.9595 18.5706 16.0662 18.527 16.1633L20.3515 16.9824ZM20.5699 15.6686C20.5282 15.2192 20.3709 14.7882 20.1134 14.4175L18.4708 15.5585C18.5315 15.6459 18.5686 15.7476 18.5785 15.8535L20.5699 15.6686ZM20.1128 14.4167C19.4461 13.4588 19.055 12.3364 18.9822 11.1716L16.986 11.2964C17.0817 12.8265 17.5955 14.3011 18.4714 15.5593L20.1128 14.4167ZM18.9822 11.1716L18.7612 7.63857L16.7651 7.76343L16.9861 11.2964L18.9822 11.1716ZM18.7612 7.63859C18.6784 6.31462 18.094 5.07199 17.1272 4.16375L15.7578 5.62146C16.3538 6.18132 16.714 6.9473 16.7651 7.76341L18.7612 7.63859ZM17.1272 4.16375C16.1603 3.2555 14.8836 2.74993 13.5571 2.75L13.5572 4.75C14.3749 4.74996 15.1618 5.0616 15.7578 5.62146L17.1272 4.16375ZM13.5571 2.75H13.0001V4.75H13.5571V2.75ZM14.0001 3.75V3H12.0001V3.75H14.0001ZM9.7501 19C9.7501 19.5967 9.98716 20.169 10.4091 20.591L11.8233 19.1768C11.7764 19.1299 11.7501 19.0663 11.7501 19H9.7501ZM10.4091 20.591C10.8311 21.0129 11.4034 21.25 12.0001 21.25V19.25C11.9338 19.25 11.8702 19.2237 11.8233 19.1768L10.4091 20.591ZM12.0001 21.25C12.5968 21.25 13.1691 21.0129 13.5911 20.591L12.1769 19.1768C12.13 19.2237 12.0664 19.25 12.0001 19.25V21.25ZM13.5911 20.591C14.0131 20.169 14.2501 19.5967 14.2501 19H12.2501C12.2501 19.0663 12.2238 19.1299 12.1769 19.1768L13.5911 20.591ZM14.2501 19V18.25H12.2501V19H14.2501ZM13.2501 17.25H10.7501V19.25H13.2501V17.25ZM9.7501 18.25V19H11.7501V18.25H9.7501Z" fill="white" mask="url(#path-1-outside-1_18843_62962)"/>
</svg>
