<svg width="24" height="24" viewBox="0 0 24 24" xmlns="http://www.w3.org/2000/svg">
<path fill-rule="evenodd" clip-rule="evenodd" d="M20.7272 18.6763C20.7272 14.7556 17.2408 12.3927 12 12.3927C6.7592 12.3927 3.27271 14.7556 3.27271 18.6763C3.27271 21.0039 6.31383 21.8193 12.0001 21.8181C17.6844 21.8169 20.7272 21.0014 20.7272 18.6763ZM4.85948 18.6763C4.85948 15.7775 7.53587 13.9636 12 13.9636C16.4641 13.9636 19.1405 15.7775 19.1405 18.6763C19.1405 19.5895 16.6899 20.2462 11.9998 20.2472C7.30653 20.2482 4.85948 19.5921 4.85948 18.6763ZM15.9669 6.10904C15.9669 3.94006 14.1909 2.18176 12 2.18176C9.8091 2.18176 8.03304 3.94006 8.03304 6.10904C8.03304 8.38583 9.86192 10.8218 12 10.8218C14.138 10.8218 15.9669 8.38583 15.9669 6.10904ZM9.61981 6.10904C9.61981 4.80765 10.6854 3.75267 12 3.75267C13.3145 3.75267 14.3801 4.80765 14.3801 6.10904C14.3801 7.60224 13.1424 9.25085 12 9.25085C10.8576 9.25085 9.61981 7.60224 9.61981 6.10904Z"/>
</svg>
