<svg width="24" height="24" viewBox="0 0 24 24" xmlns="http://www.w3.org/2000/svg">
<path fill-rule="evenodd" clip-rule="evenodd" d="M12 3.25C10.4812 3.25 9.24996 4.48122 9.24996 6C9.24996 7.51878 10.4812 8.75 12 8.75C13.5187 8.75 14.75 7.51878 14.75 6C14.75 4.48122 13.5187 3.25 12 3.25ZM7.24996 6C7.24996 3.37665 9.37661 1.25 12 1.25C14.6233 1.25 16.75 3.37665 16.75 6C16.75 8.62335 14.6233 10.75 12 10.75C9.37661 10.75 7.24996 8.62335 7.24996 6ZM5.54486 19.4818C7.53417 20.299 9.71344 20.75 12.0003 20.75C14.2869 20.75 16.466 20.2991 18.4551 19.482C18.0753 16.2543 15.33 13.75 12 13.75C8.67003 13.75 5.9248 16.2541 5.54486 19.4818ZM3.50125 20.101C3.58093 15.4751 7.35532 11.75 12 11.75C16.6447 11.75 20.4192 15.4753 20.4987 20.1014C20.5055 20.4984 20.2768 20.8618 19.9159 21.0274C17.5049 22.1337 14.8232 22.75 12.0003 22.75C9.17711 22.75 6.49518 22.1336 4.08402 21.0271C3.72312 20.8615 3.49441 20.498 3.50125 20.101Z"/>
</svg>
