<svg width="24" height="24" viewBox="0 0 24 24" xmlns="http://www.w3.org/2000/svg">
<path fill-rule="evenodd" clip-rule="evenodd" d="M20.6915 3.56285C20.3005 3.18445 19.6531 3.18445 19.262 3.56285L18.21 4.58067L19.5921 5.91788L20.6915 4.85415C21.0641 4.49367 21.0641 3.92333 20.6915 3.56285ZM18.154 7.30932L16.7719 5.97212L7.96835 14.4898C7.52547 14.9183 7.20278 15.444 7.02611 16.0178L6.71958 17.0134L7.79839 16.7025C8.40555 16.5275 8.95483 16.2098 9.39789 15.7811L18.154 7.30932ZM17.8713 2.1255C19.0378 0.996905 20.9158 0.996905 22.0822 2.1255C23.2672 3.27201 23.2672 5.14499 22.0822 6.2915L10.7886 17.2185C10.1071 17.8779 9.26929 18.36 8.35227 18.6243L5.4967 19.4473C5.14383 19.549 4.76361 19.4491 4.5063 19.1871C4.24898 18.9251 4.15597 18.5431 4.26403 18.1921L5.11465 15.4293C5.39201 14.5284 5.89597 13.7121 6.57766 13.0525L16.0766 3.86199L17.8713 2.1255ZM4.42208 7.13794C3.62137 7.13794 3.02905 7.75769 3.02905 8.45327V19.2582C3.02905 19.9538 3.62137 20.5735 4.42208 20.5735H15.5896C16.3903 20.5735 16.9826 19.9538 16.9826 19.2582V14.3702C16.9826 13.818 17.4303 13.3702 17.9826 13.3702C18.5349 13.3702 18.9826 13.818 18.9826 14.3702V19.2582C18.9826 21.12 17.4321 22.5735 15.5896 22.5735H4.42208C2.57953 22.5735 1.02905 21.12 1.02905 19.2582V8.45327C1.02905 6.59141 2.57953 5.13794 4.42208 5.13794H9.47404C10.0263 5.13794 10.474 5.58565 10.474 6.13794C10.474 6.69022 10.0263 7.13794 9.47404 7.13794H4.42208Z"/>
</svg>
