<svg width="22" height="22" viewBox="0 0 22 22" xmlns="http://www.w3.org/2000/svg">
<path d="M16.1949 16.3846C17.4558 16.3846 18.4779 17.4178 18.4779 18.6923C18.4779 19.9668 17.4558 21 16.1949 21C14.9341 21 13.9119 19.9668 13.9119 18.6923C13.9119 17.4178 14.9341 16.3846 16.1949 16.3846ZM7.727 16.3846C8.98787 16.3846 10.01 17.4178 10.01 18.6923C10.01 19.9668 8.98787 21 7.727 21C6.46614 21 5.444 19.9668 5.444 18.6923C5.444 17.4178 6.46614 16.3846 7.727 16.3846ZM16.1949 17.9231C15.7747 17.9231 15.4339 18.2675 15.4339 18.6923C15.4339 19.1171 15.7747 19.4615 16.1949 19.4615C16.6152 19.4615 16.9559 19.1171 16.9559 18.6923C16.9559 18.2675 16.6152 17.9231 16.1949 17.9231ZM7.727 17.9231C7.30671 17.9231 6.966 18.2675 6.966 18.6923C6.966 19.1171 7.30671 19.4615 7.727 19.4615C8.14729 19.4615 8.488 19.1171 8.488 18.6923C8.488 18.2675 8.14729 17.9231 7.727 17.9231ZM3.883 1C4.26679 1 4.59052 1.28887 4.63813 1.67382L4.9353 4.07692H19.2389C19.6842 4.07692 20.0343 4.46156 19.9973 4.91003L18.8694 14.1408C18.8365 14.5395 18.5068 14.8462 18.111 14.8462H5.405C5.02121 14.8462 4.69748 14.5573 4.64988 14.1723L3.2112 2.53846H0.761C0.340711 2.53846 0 2.19407 0 1.76923C0 1.3444 0.340711 1 0.761 1H3.883ZM18.4119 5.61538H5.12555L6.0768 13.3077H17.4108L18.4119 5.61538ZM15.2029 10.2308C15.6232 10.2308 15.9639 10.5752 15.9639 11C15.9639 11.4248 15.6232 11.7692 15.2029 11.7692C14.7826 11.7692 14.4419 11.4248 14.4419 11C14.4419 10.5752 14.7826 10.2308 15.2029 10.2308ZM11.8735 10.2308C12.2938 10.2308 12.6345 10.5752 12.6345 11C12.6345 11.4248 12.2938 11.7692 11.8735 11.7692C11.4532 11.7692 11.1125 11.4248 11.1125 11C11.1125 10.5752 11.4532 10.2308 11.8735 10.2308ZM8.449 10.2308C8.86929 10.2308 9.21001 10.5752 9.21001 11C9.21001 11.4248 8.86929 11.7692 8.449 11.7692C8.02872 11.7692 7.688 11.4248 7.688 11C7.688 10.5752 8.02872 10.2308 8.449 10.2308ZM15.2029 7.15385C15.6232 7.15385 15.9639 7.49824 15.9639 7.92308C15.9639 8.34791 15.6232 8.69231 15.2029 8.69231C14.7826 8.69231 14.4419 8.34791 14.4419 7.92308C14.4419 7.49824 14.7826 7.15385 15.2029 7.15385ZM11.8735 7.15385C12.2938 7.15385 12.6345 7.49824 12.6345 7.92308C12.6345 8.34791 12.2938 8.69231 11.8735 8.69231C11.4532 8.69231 11.1125 8.34791 11.1125 7.92308C11.1125 7.49824 11.4532 7.15385 11.8735 7.15385ZM8.449 7.15385C8.86929 7.15385 9.21001 7.49824 9.21001 7.92308C9.21001 8.34791 8.86929 8.69231 8.449 8.69231C8.02872 8.69231 7.688 8.34791 7.688 7.92308C7.688 7.49824 8.02872 7.15385 8.449 7.15385Z"/>
</svg>
