<svg width="22" height="22" viewBox="0 0 22 22" xmlns="http://www.w3.org/2000/svg">
<path d="M4.63869 17.9268C2.12057 15.215 1.38133 11.1443 2.75371 7.55382C2.88056 7.22351 3.22993 7.05912 3.54046 7.1908C3.84818 7.31945 3.99281 7.69637 3.86592 8.03278C2.67525 11.137 3.31634 14.6596 5.4944 17.0053C8.47624 20.2165 13.3632 20.1774 16.3896 16.9183C19.416 13.6591 19.4522 8.39619 16.4704 5.18498C13.8539 2.36723 9.77056 2.05529 6.76587 4.21969L7.29834 4.19105C7.62972 4.17316 7.90812 4.4484 7.91982 4.80504C7.93152 5.16168 7.67179 5.46561 7.34041 5.4835L5.0151 5.60878C4.81967 5.61949 4.63062 5.52648 4.51007 5.35364C4.39232 5.18384 4.36271 4.9615 4.42639 4.75975L5.222 2.28674C5.32909 1.94744 5.67293 1.76481 5.98644 1.87512C6.07683 1.90488 6.15573 1.95914 6.21756 2.02572C6.37213 2.19218 6.43266 2.44782 6.35737 2.69234L6.23878 3.05612C9.70094 0.653293 14.3386 1.04618 17.3261 4.26344C20.7716 7.97403 20.7297 14.0602 17.2327 17.8262C13.7357 21.5923 8.08424 21.6374 4.63869 17.9268Z"/>
<path d="M7.00079 8.98736V7.69857H6.28571V10.7776H7.00079V9.57841H7.10211L7.95748 10.7776H8.79921L7.69639 9.21354L8.74076 7.69857H7.97307L7.09821 8.98736H7.00079Z"/>
<path d="M10.2703 10.8608C11.114 10.8608 11.6342 10.2463 11.6342 9.23701C11.6342 8.22561 11.114 7.61536 10.2703 7.61536C9.54742 7.61536 9.0077 8.12532 8.98626 8.79746H9.67212C9.70914 8.48593 9.9527 8.26829 10.2761 8.26829C10.6074 8.26829 10.8587 8.5158 10.8996 8.93402H9.86112V9.5144H10.8996C10.8646 9.94115 10.6132 10.2079 10.2742 10.2079C9.9488 10.2079 9.70914 9.9945 9.67017 9.6915H8.98237C9.0077 10.37 9.53378 10.8608 10.2703 10.8608Z"/>
<path d="M12.2051 10.7776H15.7143V7.69857H15.0011V10.1481H14.3172V7.69857H13.6041V10.1481H12.9202V7.69857H12.2051V10.7776Z"/>
<path d="M9.15578 14.1532C9.15578 13.5707 8.73102 13.1887 8.1153 13.1887H7.63598V12.698H8.90833V12.0685H6.9209V15.1475H8.14453C8.7466 15.1475 9.15578 14.757 9.15578 14.1532ZM7.63598 14.5437V13.7563H7.96527C8.25559 13.7563 8.42706 13.8929 8.42706 14.1511C8.42706 14.4092 8.25559 14.5437 7.96917 14.5437H7.63598Z"/>
<path d="M10.8704 15.2307C11.7141 15.2307 12.2343 14.6162 12.2343 13.607C12.2343 12.5955 11.7141 11.9853 10.8704 11.9853C10.1475 11.9853 9.60782 12.4953 9.58639 13.1674H10.2722C10.3093 12.8559 10.5528 12.6382 10.8763 12.6382C11.2075 12.6382 11.4589 12.8857 11.4998 13.304H10.4612V13.8843H11.4998C11.4647 14.3111 11.2133 14.5778 10.8743 14.5778C10.5489 14.5778 10.3093 14.3644 10.2703 14.0614H9.58249C9.60782 14.74 10.1339 15.2307 10.8704 15.2307Z"/>
<path d="M13.5203 13.3573V12.0685H12.8052V15.1475H13.5203V13.9484H13.6216L14.477 15.1475H15.3187L14.2159 13.5835L15.2603 12.0685H14.4926L13.6177 13.3573H13.5203Z"/>
</svg>
