<svg width="22" height="22" viewBox="0 0 22 22" xmlns="http://www.w3.org/2000/svg">
<path d="M10.1786 6.97846C10.1786 6.75755 10.3577 6.57846 10.5786 6.57846H12.0403C13.8593 6.57846 14.8222 7.46648 14.8222 8.88944C14.8222 10.3338 13.8593 11.2111 12.0189 11.2111H10.5786C10.3577 11.2111 10.1786 11.032 10.1786 10.8111V6.97846ZM12.8107 13.6719C15.9029 13.6719 18 11.6605 18 8.85735C18 6.02211 15.9992 4 12.9712 4H7.44362C7.22271 4 7.04362 4.17909 7.04362 4.4V12.0094C7.04362 12.2303 6.86454 12.4094 6.64362 12.4094H5.4C5.17909 12.4094 5 12.5885 5 12.8094V13.2719C5 13.4928 5.17909 13.6719 5.4 13.6719H6.64362C6.86454 13.6719 7.04362 13.851 7.04362 14.0719V14.3696C7.04362 14.5905 6.86454 14.7696 6.64362 14.7696H5.4C5.17909 14.7696 5 14.9487 5 15.1696V15.6C5 15.8209 5.17909 16 5.4 16H6.64362C6.86454 16 7.04362 16.1791 7.04362 16.4V18.6C7.04362 18.8209 7.22271 19 7.44362 19H9.7786C9.99951 19 10.1786 18.8209 10.1786 18.6V16.4C10.1786 16.1791 10.3577 16 10.5786 16H12.6198C12.8407 16 13.0198 15.8209 13.0198 15.6V15.1696C13.0198 14.9487 12.8407 14.7696 12.6198 14.7696H10.5786C10.3577 14.7696 10.1786 14.5905 10.1786 14.3696V14.0719C10.1786 13.851 10.3577 13.6719 10.5786 13.6719H12.8107Z"/>
</svg>
