<svg width="22" height="22" viewBox="0 0 22 22" xmlns="http://www.w3.org/2000/svg">
<path d="M7.8964 6.96152L14.0839 10.399C14.3022 10.5203 14.4375 10.7503 14.4375 11V17.875C14.4375 18.3992 13.8744 18.7306 13.4161 18.476L7.22864 15.0385C7.01038 14.9172 6.87502 14.6872 6.87502 14.4375L6.87448 13.0625H8.24948L8.25002 14.033L13.0625 16.7066V11.4045L8.25002 8.73092L8.24948 10.3125H6.87448L6.87502 7.5625C6.87502 7.03829 7.43816 6.70694 7.8964 6.96152ZM20.625 7.5625V14.4375C20.625 14.6872 20.4897 14.9172 20.2714 15.0385L14.0839 18.476C13.6257 18.7306 13.0625 18.3992 13.0625 17.875V11C13.0625 10.7503 13.1979 10.5203 13.4161 10.399L19.6036 6.96152C20.0619 6.70694 20.625 7.03829 20.625 7.5625ZM19.25 8.73092L14.4375 11.4045V16.7066L19.25 14.033V8.73092ZM17.0992 5.5067C17.2854 5.83763 17.168 6.25681 16.8371 6.44296L11.3371 9.53671C11.0061 9.72286 10.587 9.60549 10.4008 9.27455C10.2147 8.94362 10.332 8.52444 10.663 8.33829L16.163 5.24454C16.4939 5.05839 16.9131 5.17576 17.0992 5.5067ZM4.77797 9.25682C5.04646 9.52531 5.04646 9.96061 4.77797 10.2291L4.00692 10.9997L8.93752 11C9.31721 11 9.62502 11.3078 9.62502 11.6875C9.62502 12.0672 9.31721 12.375 8.93752 12.375L4.00692 12.3747L4.77797 13.1459C5.04646 13.4144 5.04646 13.8497 4.77797 14.1182C4.50948 14.3867 4.07418 14.3867 3.8057 14.1182L1.86115 12.1736C1.59267 11.9052 1.59267 11.4698 1.86115 11.2014L3.8057 9.25682C4.07418 8.98833 4.50948 8.98833 4.77797 9.25682ZM14.0839 3.52402L20.2714 6.96152C20.6033 7.14591 20.7229 7.56447 20.5385 7.89638C20.3541 8.22829 19.9356 8.34788 19.6036 8.16348L13.75 4.91147L7.8964 8.16348C7.56448 8.34788 7.14593 8.22829 6.96154 7.89638C6.77714 7.56447 6.89673 7.14591 7.22864 6.96152L13.4161 3.52402C13.6238 3.40866 13.8763 3.40866 14.0839 3.52402Z"/>
</svg>
