<?xml version="1.0" standalone="no"?>
<!DOCTYPE svg PUBLIC "-//W3C//DTD SVG 20010904//EN"
 "http://www.w3.org/TR/2001/REC-SVG-20010904/DTD/svg10.dtd">
<svg version="1.0" xmlns="http://www.w3.org/2000/svg"
 width="294.000000pt" height="294.000000pt" viewBox="0 0 294.000000 294.000000"
 preserveAspectRatio="xMidYMid meet">
<metadata>
Created by potrace 1.11, written by Peter Selinger 2001-2013
</metadata>
<g transform="translate(0.000000,294.000000) scale(0.100000,-0.100000)"
fill="#000000" stroke="none">
<path d="M2205 2629 c-77 -10 -164 -38 -223 -71 -89 -50 -248 -174 -482 -375
-14 -12 -59 -49 -100 -83 -41 -34 -84 -69 -95 -79 -144 -121 -358 -287 -385
-300 -30 -14 -100 -17 -475 -21 -433 -5 -440 -5 -437 -25 14 -76 106 -197 189
-248 56 -35 148 -65 211 -69 29 -2 52 -5 52 -8 0 -2 -42 -46 -92 -98 -60 -59
-89 -95 -81 -100 26 -16 874 -5 958 13 11 3 32 7 46 9 60 10 187 50 258 82
180 83 354 232 462 399 23 36 44 65 46 65 9 0 -91 -177 -136 -240 -56 -79
-189 -216 -251 -257 -52 -35 -121 -71 -202 -107 l-58 -26 15 -37 c8 -21 64
-175 125 -343 61 -168 119 -327 129 -355 l19 -50 82 -3 c75 -3 81 -1 76 15 -3
10 -62 169 -130 353 -67 184 -122 337 -120 339 2 2 24 5 50 8 41 3 148 23 209
37 195 46 423 197 525 346 91 134 183 371 244 630 36 149 56 253 51 261 -3 3
44 28 103 54 123 55 155 72 147 84 -3 5 -63 9 -133 9 l-128 -1 -55 56 c-106
105 -260 156 -414 136z m161 -202 c4 -4 0 -7 -9 -7 -20 0 -47 -38 -47 -67 0
-26 39 -56 67 -51 28 5 46 26 46 55 0 32 13 12 21 -31 18 -101 -112 -174 -201
-113 -103 70 -42 233 84 223 18 -1 36 -5 39 -9z"/>
<path d="M1865 922 c-38 -7 -71 -15 -73 -17 -3 -2 50 -152 83 -235 8 -19 39
-102 69 -185 30 -82 57 -158 61 -167 5 -13 20 -16 86 -15 43 0 79 1 79 2 0 4
-42 124 -50 140 -4 11 -20 52 -33 90 -14 39 -50 138 -81 221 -31 84 -56 157
-56 162 0 19 -13 19 -85 4z"/>
</g>
</svg>
