<svg width="48" height="48" viewBox="0 0 48 48" xmlns="http://www.w3.org/2000/svg">
<path fill-rule="evenodd" clip-rule="evenodd" d="M17.4781 4C17.0896 4 16.7362 4.22504 16.5719 4.5771L17.4781 5C16.5719 4.5771 16.5719 4.57724 16.5718 4.5774L16.5716 4.57786L16.5709 4.57929L16.5687 4.58419L16.5604 4.60199L16.5297 4.66881C16.5031 4.72691 16.4646 4.81172 16.4158 4.9207C16.3184 5.13862 16.1799 5.45341 16.014 5.84467C15.6825 6.62651 15.2404 7.7172 14.7977 8.95282C13.9264 11.3846 13 14.5187 13 16.9622C13 22.2639 17.5782 26.4299 23.1671 26.8092C23.1669 26.8186 23.1667 26.8279 23.1667 26.8373L23.1667 36.0046C20.8627 36.2646 18.8672 37.5522 17.4631 38.7364C16.663 39.4112 16.018 40.0836 15.5728 40.5871C15.3496 40.8395 15.1751 41.0513 15.0548 41.202C14.9946 41.2774 14.9479 41.3377 14.9153 41.3803L14.8897 41.4141L14.8772 41.4308L14.8662 41.4455L14.8628 41.4501L14.8616 41.4518L14.8611 41.4524C14.8609 41.4527 14.8607 41.4529 15.6671 42.0443L14.8607 41.4529C14.6379 41.7568 14.6048 42.1602 14.7751 42.4963C14.9454 42.8325 15.2903 43.0443 15.6671 43.0443H24.0001H32.3331C32.71 43.0443 33.0548 42.8325 33.2252 42.4963C33.3955 42.1602 33.3624 41.7568 33.1395 41.4529L32.3331 42.0443C33.1395 41.4529 33.1393 41.4527 33.1391 41.4524L33.1387 41.4518L33.1375 41.4501L33.134 41.4455L33.1231 41.4308C33.1139 41.4186 33.1012 41.4016 33.0849 41.3803C33.0524 41.3377 33.0056 41.2774 32.9455 41.202C32.8252 41.0513 32.6506 40.8395 32.4274 40.5871C31.9822 40.0836 31.3373 39.4112 30.5371 38.7364C29.2012 37.6097 27.3298 36.3893 25.1667 36.0496L25.1667 26.8373C25.1667 26.8188 25.1662 26.8003 25.1652 26.782C30.6018 26.2633 34.9992 22.1581 34.9992 16.9622C34.9992 16.3958 34.9495 15.7924 34.8621 15.1692C34.8624 15.0684 34.8474 14.9682 34.818 14.8722C34.5059 12.8868 33.839 10.7318 33.2016 8.95282C32.7588 7.7172 32.3167 6.62651 31.9852 5.84467C31.8194 5.45341 31.6809 5.13862 31.5834 4.9207C31.5346 4.81172 31.4961 4.72691 31.4695 4.66881L31.4388 4.60199L31.4306 4.58419L31.4283 4.57929L31.4276 4.57786L31.4274 4.5774C31.4273 4.57724 31.4273 4.5771 30.5211 5L31.4273 4.5771C31.263 4.22504 30.9096 4 30.5211 4H23.9996H17.4781ZM32.4822 13.4195C32.1708 12.1496 31.7516 10.8356 31.3188 9.62741C30.8919 8.43615 30.4646 7.38178 30.1439 6.62528C30.0418 6.38461 29.9508 6.17444 29.8741 6H23.9996H18.1251C18.0485 6.17444 17.9574 6.38461 17.8554 6.62528C17.5346 7.38178 17.1073 8.43615 16.6805 9.62741C16.1571 11.0882 15.6537 12.7036 15.3366 14.2089C15.4185 14.2339 15.4986 14.27 15.5746 14.3175C15.5749 14.3176 15.5752 14.3178 15.2001 14.9179C15.2001 14.9179 15.2001 14.9179 15.2001 14.9179L15.5753 14.3178C15.5751 14.3177 15.5748 14.3176 15.5746 14.3175L15.5793 14.3203C15.5855 14.3241 15.5965 14.3307 15.6121 14.3399C15.6434 14.3583 15.6929 14.3868 15.7592 14.4233C15.8921 14.4962 16.0913 14.6001 16.3449 14.7167C16.8544 14.9509 17.5704 15.2301 18.3992 15.4151C20.0625 15.7865 22.0685 15.7604 23.8379 14.3778C26.25 12.4929 28.9483 12.5189 30.9438 12.9645C31.5104 13.091 32.0294 13.2528 32.4822 13.4195ZM15.0252 16.298C15.0087 16.5268 15 16.7487 15 16.9622C15 21.2027 18.9138 24.8374 23.9996 24.8374C29.0854 24.8374 32.9992 21.2027 32.9992 16.9622C32.9992 16.6147 32.9762 16.245 32.9338 15.859C32.9313 15.8364 32.9288 15.8138 32.9262 15.7911C32.8223 15.738 32.7004 15.6783 32.5623 15.6149C32.0528 15.3807 31.3368 15.1015 30.508 14.9164C28.8446 14.545 26.8387 14.5711 25.0693 15.9537C22.6571 17.8387 19.9589 17.8126 17.9634 17.3671C16.9628 17.1437 16.1108 16.8102 15.5096 16.5339C15.3246 16.4489 15.1622 16.3687 15.0252 16.298ZM24.0001 41.0443H17.8962C18.1533 40.7929 18.44 40.5288 18.7525 40.2653C20.1976 39.0465 22.053 37.9573 24.0001 37.9573C25.9472 37.9573 27.8026 39.0465 29.2478 40.2653C29.5603 40.5288 29.847 40.7929 30.104 41.0443H24.0001Z"/>
</svg>
