<svg width="48" height="48" viewBox="0 0 48 48" xmlns="http://www.w3.org/2000/svg">
<path fill-rule="evenodd" clip-rule="evenodd" d="M39.6752 4.8885L38.7629 4.45139L39.0228 3.49792C39.312 3.57808 39.552 3.77969 39.678 4.04827C39.804 4.31684 39.803 4.62465 39.6752 4.8885ZM38.7629 4.45139C39.0228 3.49792 39.0225 3.49784 39.0222 3.49774L39.0214 3.49754L39.0196 3.49704L39.0146 3.49567L38.9993 3.49156C38.9868 3.48822 38.9697 3.48371 38.9481 3.47817C38.9049 3.46709 38.8438 3.45188 38.7661 3.43368C38.6108 3.3973 38.3889 3.34886 38.1109 3.29757C37.5558 3.19514 36.7727 3.08043 35.8478 3.02837C34.01 2.92495 31.5469 3.06515 29.1966 4.10044C26.8141 5.14996 25.1643 6.97633 24.124 8.4876C23.8665 8.86177 23.6435 9.22064 23.4535 9.54945C22.5225 7.5808 21.0327 5.65078 18.7342 4.07089C18.279 3.75805 17.6565 3.87341 17.3436 4.32855C17.0308 4.78369 17.1462 5.40626 17.6013 5.7191C22.5479 9.1191 23.131 14.4367 22.7326 17.3666L22.4838 17.3133L22.4603 17.3083C21.8343 17.1739 21.0125 16.9982 20.0843 16.8473C18.2433 16.548 15.9001 16.3311 13.7052 16.7559C11.484 17.1857 9.32992 18.2951 8.0798 20.6974C6.85471 23.0517 6.60212 26.4555 7.68495 31.2501C9.47821 39.1904 12.1095 42.9927 15.0284 44.3626C17.9973 45.7559 20.815 44.4396 22.4243 43.3536C23.0422 42.9367 23.9559 42.9334 24.5664 43.3423C26.201 44.4371 29.0798 45.7943 32.082 44.4248C35.0491 43.0713 37.6806 39.2503 39.3812 31.2375C40.4007 26.434 40.1125 23.0299 38.877 20.6795C37.6163 18.2811 35.4745 17.1717 33.2656 16.7432C31.0846 16.3202 28.7633 16.5409 26.941 16.8431C26.1023 16.9821 25.3514 17.1418 24.7557 17.2714C24.8861 16.0212 24.865 14.4719 24.5326 12.8224C25.0155 12.8735 25.6249 12.9166 26.3232 12.9201C28.0727 12.929 30.4238 12.6895 32.7462 11.6665C35.0965 10.6312 36.825 8.92506 37.9528 7.5153C38.5205 6.80579 38.9461 6.15861 39.2314 5.68598C39.3743 5.44932 39.4826 5.25542 39.5564 5.11812C39.5933 5.04945 39.6216 4.99484 39.6414 4.95602C39.6513 4.9366 39.6591 4.92113 39.6647 4.90981L39.6715 4.89596L39.6738 4.89143L39.6746 4.88976L39.6749 4.88908C39.675 4.88879 39.6752 4.8885 38.7629 4.45139ZM25.0257 10.8812C25.392 10.9123 25.8229 10.9357 26.3021 10.9381C27.872 10.9461 29.916 10.7284 31.8968 9.85587C33.8496 8.99568 35.3418 7.54693 36.3589 6.27567C36.6858 5.86705 36.9594 5.48197 37.1796 5.1488C36.7758 5.09051 36.2964 5.03713 35.7638 5.00716C34.1065 4.91389 31.9989 5.05089 30.0461 5.91108C28.1256 6.75706 26.7302 8.26555 25.8011 9.61526C25.4841 10.0758 25.2267 10.5103 25.0257 10.8812ZM24.2008 19.4339C23.9961 19.4734 23.7431 19.518 23.5317 19.518C23.3215 19.518 23.0684 19.4739 22.8624 19.4347C22.6415 19.3927 22.373 19.3351 22.0805 19.2723L22.0801 19.2722L22.0406 19.2637C21.4151 19.1295 20.637 18.9634 19.7634 18.8214C18.001 18.5349 15.9338 18.3617 14.0852 18.7194C12.2627 19.0721 10.74 19.918 9.85396 21.6207C8.94287 23.3715 8.59986 26.2225 9.63582 30.8095C11.4008 38.6246 13.8468 41.5988 15.8781 42.5521C17.8594 43.4819 19.8648 42.668 21.3055 41.6958C22.5886 40.83 24.3845 40.8133 25.6794 41.6806C27.1627 42.674 29.2371 43.5243 31.2519 42.6052C33.302 41.67 35.7515 38.706 37.4248 30.8222C38.4 26.227 38.0306 23.3678 37.1067 21.61C36.2079 19.9001 34.6884 19.0565 32.8848 18.7066C31.0532 18.3514 29.0106 18.5272 27.2682 18.8161C26.4045 18.9593 25.6354 19.1265 25.0159 19.2616L24.9856 19.2683L24.9855 19.2683C24.6924 19.3322 24.4227 19.3911 24.2008 19.4339ZM14 25C14 23.8954 14.8954 23 16 23H17C17.5523 23 18 22.5523 18 22C18 21.4477 17.5523 21 17 21H16C13.7909 21 12 22.7909 12 25V26C12 26.5523 12.4477 27 13 27C13.5523 27 14 26.5523 14 26V25Z"/>
</svg>
