<svg width="48" height="48" viewBox="0 0 48 48" xmlns="http://www.w3.org/2000/svg">
<path fill-rule="evenodd" clip-rule="evenodd" d="M15.0461 5.72693C12.2847 5.72693 10.0461 7.96551 10.0461 10.7269V15.1787C10.0461 16.7726 8.75395 18.0648 7.15997 18.0648C4.46142 18.0648 2.2738 20.2524 2.2738 22.951V34.3379C2.2738 35.9947 3.61695 37.3379 5.27381 37.3379H12.6369V41.273C12.6369 41.8253 13.0846 42.273 13.6369 42.273C14.1892 42.273 14.6369 41.8253 14.6369 41.273V37.3379H33.3631V41.273C33.3631 41.8253 33.8108 42.273 34.3631 42.273C34.9154 42.273 35.3631 41.8253 35.3631 41.273V37.3379H42.7262C44.3831 37.3379 45.7262 35.9947 45.7262 34.3379V22.951C45.7262 20.2524 43.5386 18.0648 40.8401 18.0648C39.2461 18.0648 37.9539 16.7726 37.9539 15.1787V10.7269C37.9539 7.96551 35.7153 5.72693 32.9539 5.72693H15.0461ZM12.0461 10.7269C12.0461 9.07007 13.3893 7.72693 15.0461 7.72693H32.9539C34.6108 7.72693 35.9539 9.07007 35.9539 10.7269V15.1787C35.9539 17.8772 38.1415 20.0648 40.8401 20.0648C42.4341 20.0648 43.7262 21.357 43.7262 22.951V34.3379C43.7262 34.8902 43.2785 35.3379 42.7262 35.3379H34.3631H13.6369H5.27381C4.72152 35.3379 4.2738 34.8902 4.2738 34.3379V22.951C4.2738 21.357 5.56598 20.0648 7.15997 20.0648C9.85852 20.0648 12.0461 17.8772 12.0461 15.1787V10.7269ZM11.0461 25.4676C10.4939 25.4676 10.0461 25.9153 10.0461 26.4676C10.0461 27.0199 10.4939 27.4676 11.0461 27.4676H36.9539C37.5062 27.4676 37.9539 27.0199 37.9539 26.4676C37.9539 25.9153 37.5062 25.4676 36.9539 25.4676H11.0461Z"/>
</svg>
