<svg width="48" height="48" viewBox="0 0 48 48" xmlns="http://www.w3.org/2000/svg">
<path fill-rule="evenodd" clip-rule="evenodd" d="M4.13865 43.7034C3.7482 43.3128 3.74832 42.6797 4.13892 42.2892L8.28581 38.1439C8.25596 38.1086 8.22711 38.0719 8.19931 38.0338C7.15776 36.6071 5.04675 33.2462 5.28463 29.4841C5.52312 25.7121 8.04208 22.7688 9.25841 21.5448C9.9281 20.8709 10.912 20.8467 11.6161 21.3368C12.4465 18.7011 14.1954 16.6912 15.1469 15.7337C15.8031 15.0734 16.7608 15.0368 17.4615 15.4965C18.291 12.8571 20.0422 10.8443 20.9947 9.88592C21.6521 9.22441 22.6123 9.18888 23.3133 9.65139C24.1415 7.00721 25.8959 4.99067 26.8496 4.03106C27.6813 3.19407 28.9979 3.35921 29.6609 4.26737C30.3201 5.17041 31.4079 6.8484 32.0572 8.91254C34.678 7.15326 37.879 6.64772 39.4491 6.56842C39.7877 6.55132 40.3569 6.57217 40.786 7.00132C41.2255 7.44083 41.2322 8.01822 41.203 8.35959C41.127 9.24644 40.9414 10.7576 40.4398 12.3671C40.0922 13.4829 39.581 14.684 38.8205 15.7631C40.9424 16.4071 42.6706 17.5258 43.592 18.1985C44.5001 18.8615 44.6653 20.178 43.8283 21.0098C42.8687 21.9634 40.8521 23.7178 38.2079 24.5461C38.6705 25.2471 38.6349 26.2073 37.9734 26.8647C37.015 27.8171 35.0022 29.5683 32.3629 30.3978C32.8226 31.0985 32.7859 32.0563 32.1257 32.7124C31.1669 33.6652 29.153 35.4174 26.5122 36.2465C26.9728 36.9473 26.9364 37.9057 26.2758 38.5622C25.0519 39.7786 22.1085 42.2975 18.3365 42.536C14.5745 42.7739 11.2135 40.6629 9.78683 39.6213C9.7577 39.6001 9.72946 39.5783 9.70209 39.5561L5.55287 43.7037C5.16227 44.0942 4.5291 44.094 4.13865 43.7034ZM11.1381 38.1297C12.5544 39.1332 15.3111 40.7233 18.2103 40.54C21.1102 40.3567 23.532 38.4353 24.7328 37.2742C24.4391 37.0645 24.0847 36.8274 23.6812 36.5853C23.6351 36.5626 23.591 36.5364 23.5492 36.5071C22.0308 35.6161 19.8663 34.69 17.616 34.8323C14.7239 35.0151 12.3458 36.957 11.1381 38.1297ZM24.3594 34.665C27.1261 34.3748 29.4234 32.5453 30.5826 31.4244C30.2949 31.219 29.949 30.9873 29.5557 30.7503C29.4909 30.7207 29.4296 30.6842 29.373 30.6419C27.8559 29.7557 25.7033 28.841 23.4659 28.9824C20.7024 29.1572 18.4028 30.9393 17.1411 32.133C17.0445 32.2344 16.9526 32.3286 16.8666 32.4151C16.8244 32.4576 16.7793 32.4955 16.732 32.5288L16.2638 32.9968C16.6609 32.918 17.0699 32.8628 17.4898 32.8362C20.167 32.667 22.641 33.6872 24.3594 34.665ZM14.8125 31.6196L15.8909 30.5417C17.0772 29.2486 18.7101 27.0326 18.8769 24.3935C19.0184 22.156 18.1037 20.0035 17.2174 18.4864C17.1751 18.4297 17.1387 18.3685 17.109 18.3037C16.8721 17.9103 16.6404 17.5644 16.4349 17.2767C15.3107 18.4395 13.4735 20.7471 13.1918 23.525C14.1584 25.2406 15.1516 27.6866 14.9844 30.3308C14.9565 30.7724 14.8973 31.2025 14.8125 31.6196ZM19.0426 17.6473C20.0209 19.3658 21.0423 21.8411 20.8729 24.5197C20.847 24.9292 20.7939 25.3284 20.7182 25.7162L21.7135 24.7213C22.9017 23.4323 24.5566 21.2036 24.7247 18.5457C24.9099 15.6158 23.284 12.8315 22.2827 11.429C21.1625 12.5876 19.3345 14.8828 19.0426 17.6473ZM22.5874 26.6756L22.1164 27.1464C22.5126 27.0679 22.9207 27.0129 23.3397 26.9864C26.0183 26.817 28.4935 27.8384 30.212 28.8167C32.9766 28.5249 35.2718 26.6969 36.4304 25.5767C35.0279 24.5753 32.2435 22.9494 29.3136 23.1347C26.5501 23.3094 24.2506 25.0915 22.9888 26.2852C22.8922 26.3867 22.8003 26.4809 22.7143 26.5674C22.6744 26.6076 22.6319 26.6437 22.5874 26.6756ZM27.9669 21.2981C28.3622 21.2199 28.7694 21.1651 29.1874 21.1387C31.8611 20.9696 34.3322 21.9869 36.0503 22.9636C38.8223 22.6773 41.1243 20.8443 42.2852 19.7218C40.8827 18.7204 38.0984 17.0946 35.1685 17.2798C32.405 17.4545 30.1054 19.2367 28.8437 20.4304C28.7471 20.5318 28.6552 20.626 28.5692 20.7125C28.5317 20.7503 28.4919 20.7844 28.4503 20.8149L27.9669 21.2981ZM27.4834 18.9578C27.4637 18.9747 27.4445 18.9925 27.4258 19.0111L26.5654 19.8712C26.6414 19.4826 26.6947 19.0825 26.7207 18.6719C26.8897 15.9983 25.8724 13.5272 24.8957 11.809C25.182 9.03709 27.0151 6.73502 28.1376 5.57412C28.9122 6.65913 30.0607 8.5712 30.4552 10.7379C30.4599 10.8021 30.4707 10.866 30.4878 10.9286C30.5798 11.503 30.6173 12.0939 30.5795 12.6909C30.4074 15.4127 28.6761 17.6844 27.4834 18.9578ZM32.524 11.0537C32.5917 11.6271 32.6135 12.217 32.5756 12.8171C32.5009 13.997 32.2002 15.0908 31.7854 16.0739C32.7686 15.6592 33.8624 15.3584 35.0423 15.2838C35.5775 15.25 36.1046 15.2637 36.6192 15.3151C37.5237 14.334 38.1297 13.058 38.5304 11.7721C38.9055 10.5683 39.0836 9.41127 39.1714 8.59213C37.4992 8.73733 34.5987 9.35125 32.524 11.0537ZM9.81498 36.6153C10.9844 35.3837 12.81 33.0261 12.9884 30.2046C13.1736 27.2747 11.5478 24.4904 10.5464 23.0879C9.38536 24.2887 7.46399 26.7105 7.28064 29.6103C7.09588 32.5323 8.71254 35.3096 9.71452 36.7157L9.81498 36.6153Z"/>
</svg>
