<svg width="48" height="48" viewBox="0 0 48 48" xmlns="http://www.w3.org/2000/svg">
<path fill-rule="evenodd" clip-rule="evenodd" d="M12.0946 15.706C11.244 16.6862 10.4886 17.6682 9.81898 18.6468L11.2022 21.0427L12.7894 23.7917C13.7909 25.5263 13.1965 27.7444 11.4619 28.7459C9.91953 29.6364 7.99703 29.2651 6.8846 27.9539C6.74503 27.7894 6.61865 27.6105 6.50773 27.4184L6.02918 26.5895C5.38619 28.8072 5.08585 30.9362 5.00789 32.9078C4.73399 39.8353 11.7239 44.2245 17.8481 40.9716C22.6328 38.4302 26.9425 34.6736 30.8081 30.8081C34.6736 26.9425 38.4302 22.6328 40.9716 17.8481C44.2246 11.7239 39.8353 4.73399 32.9078 5.0079C31.0595 5.08097 29.0728 5.34951 27.0046 5.91251L27.6863 7.09324L26.8203 7.59325L27.6863 7.09325L28.3457 8.23536C29.3472 9.96999 28.7529 12.188 27.0183 13.1895C25.2836 14.191 23.0656 13.5967 22.0641 11.8621L21.2075 10.3785L20.2822 8.77581C19.3695 9.31669 18.4515 9.92822 17.5326 10.6181L18.5989 12.4649L22.6889 19.5491C23.6904 21.2837 23.096 23.5018 21.3614 24.5032C19.6268 25.5047 17.4087 24.9104 16.4072 23.1758L12.9882 17.2538L12.0946 15.706ZM25.375 7.0899L25.2576 6.88652C24.6285 5.79697 25.1481 4.34788 26.4254 3.99747C28.6714 3.38128 30.8273 3.08859 32.8288 3.00946C41.3 2.67452 46.714 11.3005 42.7379 18.7863C40.0581 23.8315 36.1379 28.3067 32.2223 32.2223C28.3067 36.1379 23.8315 40.0581 18.7863 42.7379C11.3005 46.714 2.67452 41.3 3.00946 32.8288C3.09502 30.6646 3.43029 28.3199 4.15415 25.8761C4.61288 24.3274 6.44404 24.1043 7.40833 25.0981C7.56754 24.716 7.7363 24.3342 7.91448 23.9531C8.29322 23.1432 8.71471 22.3363 9.17798 21.5366L8.08346 19.6408C7.7081 18.9907 7.72214 18.1704 8.15838 17.532L8.98398 18.0963L8.15838 17.532C8.8826 16.4724 9.6985 15.4129 10.6154 14.3591C11.5251 13.3137 13.1487 13.5319 13.8132 14.6827L14.037 15.0705C14.2602 14.8352 14.4874 14.6018 14.7188 14.3705C15.2849 13.8044 15.8632 13.2628 16.4518 12.7461L15.7948 11.6081C15.3022 10.755 15.4981 9.6455 16.3113 9.03408C17.3048 8.28704 18.3002 7.62406 19.2927 7.0374C20.2579 6.4669 21.4669 6.82772 22.0059 7.76135L22.441 8.51489C22.897 8.26278 23.3549 8.02423 23.8142 7.7994C24.3331 7.54532 24.8538 7.30873 25.375 7.0899ZM23.4412 10.2473C23.8577 10.0177 24.2754 9.80043 24.6936 9.59567C25.2567 9.32 25.8206 9.06699 26.3836 8.83687L26.6137 9.23535L27.4797 8.73535L26.6137 9.23535C27.0629 10.0134 26.7963 11.0083 26.0183 11.4575C25.2402 11.9067 24.2453 11.6401 23.7961 10.8621L23.4412 10.2473ZM17.4727 14.5143C17.0193 14.9218 16.5724 15.3453 16.133 15.7847C15.7722 16.1455 15.4221 16.5114 15.0828 16.8817L18.1393 22.1758C18.5885 22.9538 19.5834 23.2204 20.3614 22.7712C21.1395 22.322 21.406 21.3271 20.9568 20.5491L17.4727 14.5143ZM10.3448 23.5575C10.1264 23.9711 9.92014 24.3855 9.72619 24.8003C9.38284 25.5346 9.07812 26.2694 8.8125 27.0011C9.30255 27.2938 9.93296 27.3192 10.4619 27.0138C11.24 26.5646 11.5065 25.5697 11.0573 24.7917L10.3448 23.5575Z"/>
</svg>
