<svg width="48" height="48" viewBox="0 0 48 48" xmlns="http://www.w3.org/2000/svg">
<path fill-rule="evenodd" clip-rule="evenodd" d="M19.6764 12.8476C19.6764 14.2192 18.6894 15.3857 17.3254 15.7941V18.8314H19.7486H22.9298V15.7944C21.5656 15.3862 20.5783 14.2196 20.5784 12.8479C20.5784 11.4943 22.5053 8.63047 23.0958 7.78503C23.292 7.50396 23.6333 7.33368 24.0001 7.33368C24.3667 7.33368 24.708 7.50396 24.9045 7.78494C25.495 8.63038 27.4219 11.4943 27.4219 12.8478C27.4219 14.2195 26.4346 15.3861 25.0705 15.7944V18.8314H28.2513H30.6748V15.7943C29.3106 15.386 28.3235 14.2194 28.3235 12.8478C28.3235 11.4942 30.2505 8.63028 30.841 7.78475C31.0372 7.50396 31.3786 7.33368 31.7454 7.33368C32.1121 7.33368 32.4532 7.50396 32.6497 7.78494C33.2403 8.63038 35.167 11.4943 35.167 12.8478C35.167 14.2196 34.1797 15.3862 32.8155 15.7944V18.8314H39.1051C40.8852 18.8314 42.3333 20.1442 42.3333 21.7579V24.1047C42.3333 25.6742 41.5116 27.072 40.2384 27.9658V37.8892C40.2394 38.147 40.2408 38.3003 40.2421 38.4402C40.2438 38.6213 40.2453 38.78 40.2453 39.1136C40.2453 39.4336 39.9066 39.8298 39.438 39.8298H28.2513H19.7486H8.56189C8.09327 39.8298 7.7546 39.4336 7.7546 39.1136C7.7546 38.7773 7.75607 38.6188 7.75777 38.4359C7.75906 38.2972 7.76049 38.1443 7.76149 37.8892V27.9658C6.48833 27.0719 5.66663 25.6741 5.66663 24.1047V21.7579C5.66663 20.1441 7.11468 18.8314 8.89484 18.8314H15.1847V15.7943C13.8203 15.3861 12.833 14.2194 12.8331 12.8476C12.8331 11.494 14.7599 8.63017 15.3504 7.78473C15.5467 7.50365 15.888 7.33337 16.2547 7.33337C16.6216 7.33337 16.9628 7.50365 17.159 7.78473C17.7496 8.63017 19.6764 11.4941 19.6764 12.8476ZM16.2549 10.2043C16.9964 11.4127 17.5357 12.5007 17.5357 12.8476C17.5357 13.488 16.961 14.0089 16.2547 14.0089C15.5482 14.0089 14.9736 13.4879 14.9736 12.8476C14.9735 12.5013 15.5129 11.4132 16.2548 10.2043H16.2549ZM31.7454 10.2044C32.4868 11.413 33.0262 12.5009 33.0262 12.8479C33.0262 13.4883 32.4516 14.0093 31.7451 14.0093C31.0387 14.0093 30.4639 13.4882 30.4639 12.8479C30.4639 12.5016 31.0035 11.4135 31.7453 10.2044H31.7454ZM25.2811 12.8478C25.2811 12.5016 24.7417 11.4137 24.0001 10.2048C23.2583 11.4137 22.7189 12.5016 22.719 12.8478C22.719 13.4881 23.2936 14.0092 24.0001 14.0092C24.7064 14.0092 25.2811 13.4882 25.2811 12.8478ZM19.7486 37.8891H28.2513H38.0978V33.5235H28.2513H19.7486H9.90215V37.8891H19.7486ZM19.7486 31.583H28.2513H38.0976V28.8741C37.7267 28.9475 37.342 28.9873 36.9471 28.9873C35.1832 28.9873 33.6145 28.2144 32.6315 27.0228C31.6484 28.2144 30.0798 28.9873 28.316 28.9873C28.2699 28.9873 28.224 28.9866 28.1782 28.9856L28.1669 28.9854C28.1464 28.9849 28.1261 28.9842 28.1057 28.9835L28.0824 28.9827L28.0313 28.9804L28.0001 28.9788C27.9845 28.9781 27.9689 28.9771 27.9533 28.9762L27.9182 28.974L27.8762 28.9711L27.8358 28.968L27.8017 28.9651L27.753 28.9608L27.7271 28.9582C27.7226 28.9577 27.7182 28.9573 27.7137 28.9568C27.6992 28.9554 27.6846 28.9539 27.6701 28.9523L27.6526 28.9503C27.6316 28.9479 27.6107 28.9456 27.5898 28.943L27.5735 28.9409C27.5518 28.9382 27.53 28.9354 27.5083 28.9324L27.4996 28.9312C26.073 28.734 24.8284 28.0275 23.9999 27.0234C23.1713 28.0275 21.9267 28.7339 20.5001 28.9312L20.4914 28.9324C20.4798 28.934 20.4682 28.9355 20.4567 28.937C20.4465 28.9383 20.4363 28.9396 20.4262 28.9409L20.4099 28.943C20.3964 28.9447 20.3828 28.9462 20.3693 28.9478C20.3619 28.9486 20.3545 28.9495 20.3471 28.9503L20.3296 28.9523C20.3107 28.9544 20.2917 28.9563 20.2726 28.9582L20.2467 28.9608L20.198 28.9651L20.1639 28.968L20.1235 28.9711L20.0815 28.974L20.0464 28.9762L19.9996 28.9788L19.9684 28.9804L19.9173 28.9827L19.894 28.9835C19.8736 28.9842 19.8532 28.9849 19.8328 28.9854L19.8215 28.9856C19.7757 28.9867 19.7297 28.9873 19.6837 28.9873C17.9198 28.9873 16.3513 28.2144 15.3682 27.0228C14.3852 28.2144 12.8165 28.9873 11.0526 28.9873C10.6577 28.9873 10.273 28.9475 9.90215 28.8741V31.583H19.7486ZM28.1795 27.0439C28.2029 27.0448 28.2265 27.0456 28.25 27.046C28.2722 27.0465 28.2939 27.0468 28.316 27.0468C30.1055 27.0468 31.5612 25.7269 31.5612 24.1047C31.5612 23.5688 32.0405 23.1344 32.6316 23.1344C33.2228 23.1344 33.702 23.5689 33.702 24.1047C33.702 25.727 35.1579 27.0468 36.9473 27.0468C38.7366 27.0468 40.1924 25.7269 40.1924 24.1047L40.1928 21.7579C40.1922 21.2143 39.7044 20.7721 39.1048 20.7721H28.251H19.7483H8.89452C8.29488 20.7721 7.8075 21.2143 7.80686 21.7579V24.1047C7.80686 25.7269 9.26265 27.0468 11.052 27.0468C12.8414 27.0468 14.2973 25.727 14.2973 24.1047C14.2973 23.5689 14.7766 23.1344 15.3677 23.1344C15.9587 23.1344 16.4381 23.5689 16.4381 24.1047C16.4381 25.7269 17.8938 27.0468 19.6832 27.0468C19.7055 27.0468 19.7277 27.0465 19.7497 27.046C19.7732 27.0455 19.7968 27.0448 19.8202 27.0439L19.8342 27.0434C19.8549 27.0425 19.8754 27.0415 19.896 27.0402L19.918 27.039C19.935 27.0379 19.9519 27.0366 19.9688 27.0352L20.0037 27.0325C20.0166 27.0313 20.0294 27.03 20.0423 27.0287L20.0436 27.0286C20.0577 27.0273 20.0717 27.0258 20.0857 27.0243L20.1204 27.0201C20.1368 27.018 20.1532 27.016 20.1696 27.0138L20.1934 27.0104C20.2127 27.0077 20.232 27.0048 20.2512 27.0017L20.2696 26.9986C20.2908 26.9951 20.312 26.9914 20.3331 26.9876L20.3434 26.9857C20.3671 26.9812 20.3909 26.9765 20.4144 26.9716L20.4171 26.9711C20.4424 26.9658 20.4677 26.9602 20.4929 26.9543L20.4943 26.9539C21.8927 26.6266 22.9287 25.4734 22.9287 24.1049C22.9287 23.5771 23.394 23.1476 23.9729 23.135C23.9816 23.1348 23.9919 23.1347 24.0006 23.1347L24.0268 23.135C24.6057 23.1476 25.071 23.577 25.071 24.1049C25.071 25.4734 26.107 26.6266 27.5054 26.9539L27.5068 26.9543C27.521 26.9576 27.5352 26.9608 27.5495 26.9639C27.5605 26.9664 27.5716 26.9687 27.5826 26.9711L27.5853 26.9716C27.6088 26.9765 27.6326 26.9812 27.6563 26.9857L27.6666 26.9876C27.6877 26.9914 27.7089 26.9951 27.7301 26.9986L27.7485 27.0017C27.7675 27.0048 27.7866 27.0076 27.8057 27.0104L27.8063 27.0104L27.8301 27.0138C27.8466 27.016 27.8629 27.018 27.8793 27.0201C27.8909 27.0215 27.9024 27.023 27.914 27.0243L27.9561 27.0286L27.9574 27.0287C27.9703 27.03 27.9831 27.0313 27.996 27.0325L28.0309 27.0352L28.0817 27.039L28.1037 27.0402C28.1242 27.0414 28.1449 27.0425 28.1655 27.0434L28.1795 27.0439Z"/>
</svg>
