<svg width="48" height="48" viewBox="0 0 48 48" xmlns="http://www.w3.org/2000/svg">
<path fill-rule="evenodd" clip-rule="evenodd" d="M43.1988 12.6707C44.6087 13.73 44.0572 15.9629 42.3163 16.2441L36.569 17.1724C38.0423 19.7521 37.678 23.0956 35.4761 25.2975L25.2921 35.4815C23.0902 37.6834 19.7467 38.0477 17.167 36.5744L16.2396 42.3163C15.9581 44.0588 13.722 44.609 12.6641 43.1961L12.2244 42.6087C10.5677 40.396 8.6032 38.4315 6.39044 36.7748L5.80309 36.335C4.39014 35.2772 4.94035 33.0411 6.68283 32.7596L12.4248 31.8322C10.9515 29.2525 11.3158 25.9089 13.5176 23.7071L23.7017 13.523C25.9035 11.3212 29.2471 10.9569 31.8268 12.4302L32.7551 6.68284C33.0363 4.94194 35.2692 4.39053 36.3285 5.80041L36.8022 6.43097C38.4431 8.61493 40.3842 10.5561 42.5682 12.1969L43.1988 12.6707ZM33.6177 13.8847L35.1145 15.3814L41.9974 14.2697L41.3669 13.7959C39.0323 12.0419 36.9572 9.96689 35.2032 7.63231L34.7295 7.00175L33.6177 13.8847ZM13.8793 33.6231L7.00175 34.734L7.5891 35.1738C9.95446 36.9447 12.0545 39.0447 13.8254 41.4101L14.2651 41.9974L15.376 35.1199L13.8793 33.6231ZM31.8419 14.9373C29.9845 13.0799 26.9732 13.0799 25.1159 14.9373L14.9319 25.1213C13.0745 26.9786 13.0745 29.9899 14.9319 31.8473L17.1519 34.0673C19.0092 35.9246 22.0206 35.9246 23.8779 34.0673L34.0619 23.8833C35.9192 22.026 35.9192 19.0146 34.0619 17.1573L31.8419 14.9373ZM30.1814 22.4044C30.978 21.6078 30.9598 20.3109 30.1412 19.5369L29.813 19.2266C29.4117 18.8472 29.394 18.2143 29.7734 17.813C30.1528 17.4117 30.7857 17.3939 31.187 17.7733L31.5152 18.0836C33.1524 19.6315 33.1888 22.2255 31.5956 23.8186L29.7071 25.7071C29.3166 26.0976 28.6835 26.0976 28.2929 25.7071C27.9024 25.3166 27.9024 24.6834 28.2929 24.2929L30.1814 22.4044Z"/>
</svg>
