<svg width="48" height="48" viewBox="0 0 48 48" xmlns="http://www.w3.org/2000/svg">
<path fill-rule="evenodd" clip-rule="evenodd" d="M18.9041 5V6.74457C18.909 6.7471 18.915 6.74947 18.9219 6.75127C19.0043 6.7728 19.0878 6.79386 19.1715 6.81496L19.1716 6.81499C19.5467 6.90959 19.9249 7.00497 20.2231 7.1462C20.7038 7.37391 21.0022 7.70648 21.2793 8.13215C21.4749 8.43273 21.5936 8.78373 21.6708 9.07614C21.7517 9.38257 21.8059 9.69975 21.8428 9.97594L21.85 10.0309H27.039C27.0509 9.95924 27.0634 9.88562 27.0765 9.81112C27.1256 9.53052 27.184 9.225 27.2467 8.96026C27.2779 8.82847 27.3131 8.69425 27.3523 8.57227C27.3848 8.47082 27.4435 8.30079 27.541 8.14558C28.1392 7.19383 29.2109 6.89142 29.8837 6.78313C29.9782 6.76792 30.0705 6.75563 30.1596 6.74575V5H18.9041ZM32.1596 5V6.71884H34V5H32.1596ZM28.8886 11.1658L28.8886 11.1658L28.8874 11.1749L28.886 11.184L28.886 11.184L28.886 11.1841L28.8859 11.1844L28.8856 11.1867L28.884 11.1967L28.8779 11.2375C28.8725 11.2734 28.8647 11.326 28.8554 11.3915C28.8366 11.5227 28.8117 11.7042 28.7868 11.9055C28.7348 12.3254 28.6909 12.7724 28.6909 13.0419V13.6973C28.6909 14.5057 28.7764 15.3078 28.9436 16.092C29.276 17.651 29.9318 19.1404 30.883 20.4676C34.1021 24.9593 35.8289 30.2912 35.8289 35.756V41.1988C35.8289 43.3841 33.9993 45.0907 31.8239 45.0907H17.0049C14.8296 45.0907 13 43.3841 13 41.1988V35.756C13 32.5513 13.5939 29.3917 14.7347 26.4204C15.5389 24.3256 16.6149 22.3247 17.9458 20.4676C18.8971 19.1404 19.5529 17.651 19.8853 16.092C20.0525 15.3078 20.138 14.5057 20.138 13.6973V13.0419C20.138 12.7724 20.094 12.3254 20.0421 11.9055C20.0172 11.7042 19.9923 11.5227 19.9735 11.3915C19.9641 11.326 19.9564 11.2734 19.951 11.2375L19.9449 11.1967L19.9433 11.1867L19.943 11.1844L19.9429 11.1841L19.9429 11.184L19.9429 11.184L19.9334 11.1224L19.9316 11.0607L19.9316 11.0606L19.9316 11.0604L19.9316 11.0602L19.9315 11.06L19.9315 11.0592L19.9312 11.0492L19.9293 11.0041C19.9274 10.9633 19.9241 10.9025 19.9189 10.8267C19.9085 10.6742 19.8905 10.4659 19.8604 10.241C19.83 10.0136 19.7893 9.78485 19.737 9.58653C19.681 9.37418 19.6281 9.2616 19.6032 9.22331C19.4511 8.98977 19.3993 8.96761 19.3727 8.95625L19.3668 8.95365C19.3204 8.93162 19.241 8.90233 19.0746 8.85652C18.9734 8.82867 18.8704 8.80252 18.7453 8.77076L18.7452 8.77074L18.745 8.77069C18.6509 8.7468 18.5443 8.71975 18.4166 8.68641C17.5959 8.47212 16.9041 7.74001 16.9041 6.78647V4.91115C16.9041 3.81986 17.8122 3 18.8509 3H31.1596H34C35.1046 3 36 3.89543 36 5V6.71884C36 7.82341 35.1046 8.71884 34 8.71884H31.1596H31.1154L31.0748 8.71523L31.0745 8.71521L31.0743 8.7152L31.0733 8.71511L31.0672 8.71468C31.0587 8.71409 31.0435 8.71312 31.0222 8.71211C30.9796 8.71007 30.9138 8.70791 30.8311 8.70821C30.7418 8.70855 30.6364 8.71175 30.5217 8.72041L30.5271 8.73478C30.6166 8.96756 30.8924 9.47816 31.7071 10.2929C32.5137 11.0995 33.1835 11.5392 33.6241 11.7725C33.845 11.8894 34.0103 11.9555 34.1088 11.9901C34.1582 12.0075 34.191 12.017 34.206 12.0211L34.2131 12.023C34.745 12.1388 35.0878 12.6602 34.9806 13.1961C34.8723 13.7377 34.3454 14.0889 33.8039 13.9806L34 13.0001C33.8039 13.9806 33.8034 13.9805 33.8028 13.9804L33.8018 13.9802L33.7995 13.9797L33.7947 13.9787L33.7837 13.9764L33.7562 13.9701C33.7354 13.9652 33.7099 13.9588 33.6798 13.9506C33.6195 13.9342 33.541 13.9105 33.4459 13.8771C33.2553 13.8101 32.9988 13.7044 32.6884 13.54C32.0664 13.2108 31.2363 12.6505 30.2929 11.7071C29.7166 11.1308 29.3154 10.6289 29.0401 10.1929C28.997 10.4417 28.9597 10.6801 28.9328 10.8598C28.9187 10.9538 28.9076 11.0311 28.9 11.0846L28.8914 11.1458L28.8892 11.1613L28.8887 11.1649L28.8886 11.1657L28.8886 11.1658L28.8886 11.1658ZM22.07 12.0309C22.1068 12.3731 22.138 12.7473 22.138 13.0419V13.6973C22.138 14.235 22.1058 14.7703 22.0422 15.3006H26.7867C26.7231 14.7703 26.6909 14.235 26.6909 13.6973V13.0419C26.6909 12.7473 26.7221 12.3731 26.7589 12.0309H22.07ZM27.1814 17.3006H21.6475C21.2206 18.8415 20.5209 20.308 19.5715 21.6327C18.3395 23.3516 17.3448 25.2019 16.6018 27.1372C15.5479 29.8822 15 32.7989 15 35.756V41.1988C15 42.2079 15.8612 43.0907 17.0049 43.0907H31.8239C32.9677 43.0907 33.8289 42.2079 33.8289 41.1988V35.756C33.8289 30.7149 32.2364 25.7893 29.2574 21.6327C28.308 20.308 27.6083 18.8415 27.1814 17.3006ZM22.3675 24.654C22.7037 24.2158 22.621 23.5881 22.1828 23.2519C21.7446 22.9158 21.1168 22.9985 20.7807 23.4367C19.7081 24.8349 18.8396 26.3433 18.1897 27.9246C17.2679 30.1678 16.787 32.5556 16.787 34.9792C16.787 35.5315 17.2347 35.9792 17.787 35.9792C18.3393 35.9792 18.787 35.5315 18.787 34.9792C18.787 32.8216 19.2149 30.6917 20.0396 28.6848C20.6211 27.2697 21.4005 25.9146 22.3675 24.654Z"/>
</svg>
