<svg width="48" height="48" viewBox="0 0 48 48" xmlns="http://www.w3.org/2000/svg">
<path fill-rule="evenodd" clip-rule="evenodd" d="M17.4001 14.5556C17.4001 10.9406 20.3494 8 24 8C27.6506 8 30.6 10.9406 30.6 14.5556C30.6 15.1079 31.0477 15.5556 31.6 15.5556C32.1522 15.5556 32.6 15.1079 32.6 14.5556C32.6 14.1085 32.5655 13.6694 32.4991 13.2409C33.1212 12.681 33.8628 12.2636 34.6711 12.0209C35.566 11.7521 36.5142 11.706 37.4316 11.8866C38.3489 12.0673 39.2062 12.469 39.9278 13.0552C40.6493 13.6415 41.2127 14.394 41.5691 15.2456C41.9253 16.0972 42.0638 17.0221 41.9726 17.9386C41.8815 18.8552 41.5633 19.7361 41.0456 20.5032C40.5278 21.2703 39.8262 21.9002 39.0022 22.3363C38.1956 22.7631 37.2965 22.991 36.3815 23.0005L36.3617 23.0001L36.3488 23C36.3338 23 36.3188 23.0003 36.3039 23.001C35.76 23.0106 35.322 23.4546 35.322 24.0008C35.322 24.0804 35.3313 24.1578 35.3488 24.2321V33.2779H30.75V29.6667C30.75 29.1145 30.3023 28.6667 29.75 28.6667C29.1977 28.6667 28.75 29.1145 28.75 29.6667V33.2779H25.05V29.6667C25.05 29.1145 24.6023 28.6667 24.05 28.6667C23.4978 28.6667 23.05 29.1145 23.05 29.6667V33.2779H19.35V29.6667C19.35 29.1145 18.9023 28.6667 18.35 28.6667C17.7977 28.6667 17.35 29.1145 17.35 29.6667V33.2779H12.649V24.2403C12.6679 24.1636 12.6779 24.0834 12.6779 24.0008C12.6779 23.4535 12.2382 23.0089 11.6928 23.0009C11.6783 23.0003 11.6637 23 11.649 23C11.6383 23 11.6276 23.0001 11.6169 23.0005C10.7024 22.9908 9.80384 22.7629 8.99769 22.3363C8.17367 21.9002 7.47207 21.2703 6.95431 20.5032C6.43659 19.7361 6.11843 18.8552 6.02725 17.9386C5.93606 17.0221 6.07455 16.0972 6.43084 15.2456C6.78714 14.394 7.35054 13.6415 8.07207 13.0552C8.79366 12.469 9.65099 12.0673 10.5683 11.8866C11.4857 11.706 12.4339 11.7521 13.3288 12.0209C14.1371 12.2636 14.8788 12.6811 15.5009 13.241C15.4345 13.6695 15.4001 14.1085 15.4001 14.5556C15.4001 15.1079 15.8478 15.5556 16.4001 15.5556C16.9524 15.5556 17.4001 15.1079 17.4001 14.5556ZM29.7412 35.2779H24.0589L24.05 35.2779L24.0412 35.2779H18.3588L18.35 35.2779L18.3411 35.2779H12.649V40.0002H35.3488V35.2779H29.7588C29.7559 35.2779 29.7529 35.2779 29.75 35.2779C29.7471 35.2779 29.7441 35.2779 29.7412 35.2779ZM10.649 24.9322C9.74686 24.8112 8.87056 24.5318 8.06225 24.104C6.94924 23.5151 5.99904 22.6629 5.29655 21.622C4.59404 20.5811 4.16117 19.384 4.03707 18.1366C3.91297 16.8892 4.10158 15.631 4.58582 14.4737C5.07003 13.3164 5.83462 12.2962 6.81091 11.503C7.78715 10.7098 8.94507 10.1679 10.1819 9.92432C11.4187 9.68076 12.6971 9.74291 13.904 10.1054C14.6911 10.3417 15.4322 10.7012 16.1004 11.1679C17.4202 8.1258 20.4633 6 24 6C27.5367 6 30.5797 8.12577 31.8996 11.1678C32.5677 10.7011 33.3088 10.3417 34.0959 10.1054C35.3028 9.74291 36.5812 9.68076 37.818 9.92432C39.0548 10.1679 40.2127 10.7098 41.189 11.503C42.1653 12.2962 42.9299 13.3164 43.4141 14.4737C43.8983 15.631 44.0869 16.8892 43.9628 18.1366C43.8387 19.384 43.4059 20.5811 42.7033 21.622C42.0009 22.6629 41.0507 23.5151 39.9376 24.104C39.1287 24.5321 38.2517 24.8116 37.3488 24.9324V40.0002C37.3488 41.1047 36.4534 42.0002 35.3488 42.0002H12.649C11.5445 42.0002 10.649 41.1047 10.649 40.0002V24.9322Z"/>
</svg>
