<svg width="48" height="48" viewBox="0 0 48 48" xmlns="http://www.w3.org/2000/svg">
<path fill-rule="evenodd" clip-rule="evenodd" d="M13 4C13 3.44772 13.4477 3 14 3H30.6115C32.8571 3 35.0215 3.83949 36.6799 5.35363L37.6742 6.26151C38.0821 6.6339 38.1108 7.26641 37.7384 7.67427C37.3661 8.08212 36.7335 8.11087 36.3257 7.73849L35.3313 6.8306C34.0415 5.65294 32.358 5 30.6115 5H22.8246V10.3611H23.9179C24.4702 10.3611 24.9179 10.8088 24.9179 11.3611V14.3617C27.511 14.5464 29.5573 16.7087 29.5573 19.3488L29.5574 21.7216V37.221L29.5573 39.9995C29.5573 42.7609 27.3187 44.9995 24.5573 44.9995H14C11.2386 44.9995 9.00003 42.7609 9.00001 39.9995L9 38.785L9 19.3489C9 16.8414 10.8458 14.765 13.2528 14.4043L13.2528 11.3611C13.2528 10.8088 13.7005 10.3611 14.2528 10.3611H15.2246L15.2246 5H14C13.4477 5 13 4.55228 13 4ZM22.9179 14.3489V12.3611H21.8246H16.2246H15.2528V14.3489H22.9179ZM17.2246 10.3611L20.8246 10.3611L20.8246 5.00053L17.2246 5.00053V10.3611ZM24.5573 42.9995C26.2142 42.9995 27.5573 41.6563 27.5573 39.9995L27.5573 38.221L18.4514 38.221C16.7946 38.221 15.4514 36.8778 15.4514 35.221V23.7216C15.4514 22.0648 16.7946 20.7216 18.4514 20.7216L27.5573 20.7216L27.5573 19.3488C27.5573 17.692 26.2142 16.3489 24.5573 16.3489L23.9179 16.3489L14.2528 16.3489H14C12.3431 16.3489 11 17.692 11 19.3489L11 38.785L11 39.9995C11 41.6563 12.3432 42.9995 14 42.9995H24.5573ZM27.5574 22.7216L18.4514 22.7216C17.8991 22.7216 17.4514 23.1693 17.4514 23.7216V35.221C17.4514 35.7733 17.8991 36.221 18.4514 36.221L27.5574 36.221V22.7216ZM37 12.0922L37.7415 11.4212C37.5519 11.2117 37.2825 11.0922 37 11.0922C36.7174 11.0922 36.4481 11.2117 36.2585 11.4212L37 12.0922ZM37 12.0922C37.7415 11.4212 37.7416 11.4213 37.7417 11.4214L37.742 11.4218L37.7428 11.4226L37.745 11.4251L37.7521 11.4331L37.7767 11.4607C37.7976 11.4842 37.8271 11.5178 37.864 11.5606C37.9379 11.646 38.0417 11.7684 38.1657 11.9204C38.4126 12.2233 38.7437 12.6493 39.0767 13.1387C39.4078 13.6252 39.7535 14.1929 40.0196 14.778C40.2792 15.3487 40.5 16.015 40.5 16.6774C40.5 17.7246 40.2606 18.8038 39.712 19.6556C39.1433 20.5385 38.2255 21.1838 37 21.1838C35.7745 21.1838 34.8567 20.5385 34.288 19.6556C33.7393 18.8038 33.5 17.7246 33.5 16.6774C33.5 16.015 33.7208 15.3487 33.9803 14.778C34.2465 14.1929 34.5922 13.6252 34.9232 13.1387C35.2563 12.6493 35.5873 12.2233 35.8343 11.9204C35.9582 11.7684 36.0621 11.646 36.136 11.5606C36.1729 11.5178 36.2024 11.4842 36.2232 11.4607L36.2478 11.4331L36.255 11.4251L36.2572 11.4226L36.258 11.4218L36.2583 11.4214C36.2584 11.4213 36.2585 11.4212 37 12.0922ZM36.5767 14.2639C36.7203 14.0529 36.8643 13.8542 37 13.6743C37.1357 13.8542 37.2797 14.0529 37.4232 14.2639C37.7172 14.6959 37.9965 15.1606 38.1991 15.6061C38.4083 16.066 38.5 16.4285 38.5 16.6774C38.5 17.4528 38.3178 18.1267 38.0306 18.5725C37.7636 18.9871 37.4313 19.1838 37 19.1838C36.5686 19.1838 36.2364 18.9871 35.9693 18.5725C35.6822 18.1267 35.5 17.4528 35.5 16.6774C35.5 16.4285 35.5917 16.066 35.8009 15.6061C36.0035 15.1606 36.2828 14.6959 36.5767 14.2639Z"/>
</svg>
