<svg width="49" height="48" viewBox="0 0 49 48" xmlns="http://www.w3.org/2000/svg">
<path fill-rule="evenodd" clip-rule="evenodd" d="M2.49976 8.49939C2.49976 7.39482 3.39519 6.49939 4.49976 6.49939H44.5003C45.6049 6.49939 46.5003 7.39482 46.5003 8.49939V31.6266C46.5003 32.7312 45.6049 33.6266 44.5003 33.6266H30.2728V39.5006H33.091C33.6433 39.5006 34.091 39.9483 34.091 40.5006C34.091 41.0528 33.6433 41.5006 33.091 41.5006H29.2728H19.7272H15.909C15.3567 41.5006 14.909 41.0528 14.909 40.5006C14.909 39.9483 15.3567 39.5006 15.909 39.5006H18.7272V33.6266H4.49976C3.39519 33.6266 2.49976 32.7312 2.49976 31.6266V8.49939ZM20.7272 33.6266V39.5006H28.2728V33.6266H20.7272ZM4.49976 8.49939V8.49939V31.6266H19.7272H29.2728L44.5003 31.6266L44.5003 8.49939H4.49976Z"/>
</svg>
