<svg width="48" height="48" viewBox="0 0 48 48" xmlns="http://www.w3.org/2000/svg">
<path fill-rule="evenodd" clip-rule="evenodd" d="M35.217 11.1948C34.2337 8.51217 31.6936 6.575 28.6762 6.5041C24.734 6.41146 21.4596 9.53949 21.367 13.4953C21.3 16.3588 22.9189 18.8698 25.3177 20.0722C25.8114 20.3197 26.0111 20.9206 25.7637 21.4143C25.65 21.6412 25.4616 21.806 25.2434 21.8938C25.0915 22.0116 24.9362 22.1338 24.7772 22.259L24.7771 22.259L24.7771 22.2591L24.7769 22.2592C22.9474 23.6995 20.6247 25.5281 17.2461 25.4487C14.4641 25.3833 12.4312 23.9404 11.0419 22.9422C10.2881 22.4007 9.82832 22.0722 9.47041 21.9412C9.38191 21.9088 9.33314 21.9023 9.31306 21.9012C9.29812 21.9117 9.26948 21.9361 9.2276 21.9873C8.30145 23.12 7.58255 24.0955 7.09405 25.2194C6.61309 26.3259 6.33444 27.6281 6.38311 29.4183C6.48795 33.2744 8.39059 36.2064 11.2797 38.2324C14.1936 40.2758 18.1082 41.3864 22.1066 41.4882C26.8091 41.6079 31.0226 40.6114 33.9981 38.6808C36.9365 36.7743 38.6782 33.9624 38.5779 30.276C38.4513 25.6183 35.7932 22.8218 32.6607 21.6581C32.3378 21.6436 32.0279 21.4732 31.8483 21.1757C31.5628 20.7028 31.7148 20.0882 32.1876 19.8028C33.5819 18.9611 34.6687 17.655 35.2301 16.0952C35.245 16.0539 35.2623 16.0142 35.2818 15.9761C35.4381 15.6363 35.7795 15.3984 36.1784 15.3934C38.3716 15.3658 39.551 14.521 40.2777 13.5806C40.7042 13.0286 40.9844 12.4412 41.204 11.8776L36.1684 11.8775C35.7611 11.8775 35.4106 11.6339 35.2548 11.2844C35.2409 11.2555 35.2282 11.2256 35.217 11.1948ZM36.8372 9.87754C35.4319 6.77992 32.3506 4.58989 28.723 4.50465C23.6725 4.38596 19.4859 8.39225 19.3675 13.4484C19.295 16.5497 20.7696 19.3265 23.0836 21.0382C21.374 22.358 19.7031 23.5059 17.2929 23.4493C15.1901 23.3998 13.6091 22.3241 12.2087 21.318L12.0635 21.2135L12.0635 21.2135C11.4588 20.7776 10.7876 20.2937 10.1577 20.0631C9.78788 19.9277 9.34223 19.8419 8.86698 19.9495C8.37772 20.0603 7.98563 20.3465 7.67924 20.7212C6.73228 21.8794 5.86407 23.0318 5.25982 24.422C4.64801 25.8295 4.32825 27.4275 4.38385 29.4725C4.50839 34.053 6.80424 37.5366 10.1315 39.8698C13.4339 42.1857 17.7535 43.378 22.0559 43.4875C27.0332 43.6142 31.6787 42.5699 35.0868 40.3586C38.5321 38.1233 40.6987 34.6926 40.5772 30.2218C40.4444 25.3391 37.9181 22.0732 34.7162 20.3897C35.6267 19.5461 36.3666 18.5182 36.8761 17.3626C39.3012 17.1687 40.8568 16.1019 41.8602 14.8033C42.7234 13.6862 43.1608 12.3941 43.424 11.6166L43.424 11.6166C43.4753 11.4652 43.5199 11.3333 43.5598 11.2261C43.674 10.9191 43.6306 10.5757 43.4437 10.3068C43.2569 10.0379 42.9502 9.87755 42.6227 9.87755L36.8372 9.87754ZM32.6574 10.7864C32.6574 10.2341 32.2097 9.78636 31.6574 9.78635C31.1051 9.78634 30.6574 10.2341 30.6574 10.7863L30.6574 10.8659C30.6574 11.4182 31.1051 11.8659 31.6574 11.8659C32.2097 11.8659 32.6574 11.4182 32.6574 10.8659L32.6574 10.7864ZM9.32522 21.8942C9.32521 21.894 9.32325 21.8947 9.31937 21.8971C9.32328 21.8956 9.32523 21.8945 9.32522 21.8942Z"/>
</svg>
