<svg width="48" height="48" viewBox="0 0 48 48" xmlns="http://www.w3.org/2000/svg">
<path fill-rule="evenodd" clip-rule="evenodd" d="M28.9 7.34543C28.9078 7.26793 28.9167 7.19823 28.9259 7.13664C31.4961 5.66334 34.3656 5.06872 36.7901 5.00567C38.0573 4.97272 39.1773 5.08582 40.0431 5.28047C40.9599 5.4866 41.4346 5.74926 41.5786 5.89324C41.7225 6.03722 41.9852 6.51192 42.1913 7.42869C42.386 8.29447 42.4991 9.41449 42.4661 10.6817C42.4023 13.1368 41.7934 16.0481 40.279 18.643C40.2221 18.6629 40.1537 18.6845 40.0742 18.7057C39.7588 18.7896 39.2641 18.868 38.6113 18.8048C37.322 18.6798 35.2885 17.988 32.7229 15.4223C30.1603 12.8598 29.2722 10.6312 28.9918 9.11214C28.8504 8.34637 28.8602 7.74278 28.9 7.34543ZM38.4184 20.7955C38.5622 20.8094 38.7015 20.8185 38.8363 20.8234C37.8913 22.1194 36.7985 23.4012 35.5681 24.6316C32.1781 28.0216 27.3923 29.4769 23.3462 30.0635C21.3371 30.3548 19.545 30.4269 18.2563 30.4259C17.7883 30.4256 17.3878 30.4156 17.0686 30.4032C17.0626 30.2486 17.0571 30.0749 17.0531 29.8837C17.0344 29.0005 17.0455 27.7473 17.1654 26.2783C17.4064 23.3277 18.0818 19.5671 19.7888 16.1889C20.574 14.635 21.5728 13.1711 22.8402 11.9036C23.6622 11.0817 24.5075 10.3208 25.3649 9.62419C25.8716 9.21256 26.3823 8.82355 26.8948 8.45776C26.9167 8.77025 26.9577 9.11032 27.025 9.47515C27.3848 11.4247 28.4838 14.0117 31.3087 16.8366C34.1305 19.6584 36.5758 20.6169 38.4184 20.7955ZM15.1721 26.1155C15.0785 27.2612 15.0476 28.2831 15.0459 29.1172C12.1984 27.0802 9.49892 26.9756 7.3736 27.5551C6.12733 27.8949 5.11745 28.4578 4.42262 28.9303C4.07353 29.1677 3.799 29.3856 3.60847 29.5473C3.51308 29.6283 3.43834 29.6956 3.38543 29.7446C3.35897 29.7691 3.33794 29.7891 3.32247 29.804L3.30346 29.8225L3.29712 29.8288L3.29474 29.8311L3.29375 29.8321C3.29331 29.8326 3.29289 29.833 4 30.5401L3.29289 29.833C2.90237 30.2235 2.90237 30.8567 3.29289 31.2472L4 30.5401C3.29289 31.2472 3.29311 31.2474 3.29334 31.2476L3.29386 31.2482L3.29511 31.2494L3.29841 31.2527L3.30825 31.2624L3.34074 31.2939C3.36801 31.3201 3.40645 31.3565 3.4555 31.4017C3.55353 31.4919 3.69431 31.6175 3.87326 31.7665C4.23028 32.0637 4.74408 32.4584 5.37788 32.8537C6.62881 33.634 8.43319 34.4704 10.4659 34.4704C11.6118 34.4704 12.6247 34.2705 13.4847 33.9871C13.2013 34.8471 13.0014 35.86 13.0014 37.0059C13.0014 39.0386 13.8378 40.843 14.6181 42.0939C15.0134 42.7277 15.4081 43.2415 15.7053 43.5985C15.8543 43.7775 15.9799 43.9183 16.0701 44.0163C16.1153 44.0653 16.1517 44.1038 16.1779 44.1311L16.2094 44.1635L16.2191 44.1734L16.2224 44.1767L16.2236 44.1779L16.2242 44.1785C16.2244 44.1787 16.2246 44.1789 16.9317 43.4718L16.2246 44.1789C16.4121 44.3664 16.6665 44.4718 16.9317 44.4718C17.1969 44.4718 17.4513 44.3664 17.6388 44.1789L16.9317 43.4718C17.6388 44.1789 17.6392 44.1785 17.6397 44.1781L17.6407 44.1771L17.643 44.1747L17.6493 44.1683L17.6678 44.1493C17.6827 44.1339 17.7027 44.1128 17.7272 44.0864C17.7762 44.0335 17.8435 43.9587 17.9245 43.8633C18.0862 43.6728 18.3041 43.3983 18.5415 43.0492C19.014 42.3544 19.5769 41.3445 19.9167 40.0982C20.4962 37.9729 20.3915 35.2734 18.3546 32.4259C19.7075 32.4231 21.5587 32.3436 23.6332 32.0428C27.8573 31.4304 33.1477 29.8804 36.9824 26.0458C38.9234 24.1048 40.5512 22.0327 41.826 19.9527C43.6781 16.9308 44.3924 13.5427 44.4654 10.7337C44.502 9.32692 44.3786 8.03971 44.1426 6.98998C43.9181 5.99125 43.5559 5.04216 42.9928 4.47903C42.4296 3.9159 41.4805 3.55373 40.4818 3.32918C39.4321 3.09317 38.1449 2.96976 36.7381 3.00635C33.9291 3.0794 30.541 3.79374 27.5191 5.64585C26.5467 6.24182 25.5763 6.91474 24.6206 7.66041C24.3591 7.5413 24.0242 7.40731 23.6244 7.28538C22.6174 6.97822 21.1903 6.74538 19.4938 7.02809C17.6405 7.33694 16.0844 8.33691 15.068 9.1539C13.7089 10.2462 13.8735 12.1293 14.9512 13.207L17.6862 15.942C16.0534 19.4565 15.4093 23.2108 15.1721 26.1155ZM6.43632 31.1568C6.11016 30.9533 5.82073 30.7497 5.57592 30.5647C6.14221 30.1831 6.93988 29.7464 7.89972 29.4847C9.59955 29.0212 11.9373 29.0646 14.5708 31.279C14.4413 31.3611 14.298 31.4464 14.1413 31.5318C13.2794 32.002 12.0291 32.4704 10.4659 32.4704C8.96299 32.4704 7.53444 31.8417 6.43632 31.1568ZM17.9871 39.5721C18.4506 37.8722 18.4072 35.5345 16.1928 32.901C16.1107 33.0305 16.0254 33.1738 15.9399 33.3305C15.4698 34.1924 15.0014 35.4427 15.0014 37.0059C15.0014 38.5088 15.6301 39.9374 16.315 41.0355C16.5185 41.3616 16.7221 41.6511 16.9071 41.8959C17.2887 41.3296 17.7254 40.5319 17.9871 39.5721ZM19.8226 9.00089C21.0497 8.79638 22.0881 8.93563 22.8486 9.14286C22.3681 9.57313 21.8933 10.0222 21.426 10.4894C20.3254 11.5901 19.414 12.8099 18.6597 14.087L16.3654 11.7928C15.9702 11.3976 16.0565 10.9253 16.3209 10.7128C17.2148 9.99435 18.453 9.22911 19.8226 9.00089ZM37.7406 11.1098C38.1249 10.7132 38.1149 10.0801 37.7182 9.69579C37.3215 9.31151 36.6885 9.32154 36.3042 9.7182L35.6084 10.4364C35.2241 10.8331 35.2341 11.4662 35.6308 11.8505C36.0274 12.2347 36.6605 12.2247 37.0448 11.8281L37.7406 11.1098Z"/>
</svg>
