<svg width="48" height="48" viewBox="0 0 48 48" xmlns="http://www.w3.org/2000/svg">
<path fill-rule="evenodd" clip-rule="evenodd" d="M39.8719 6.32058L38.9822 5.80404L39.2948 4.88542C39.5855 4.98815 39.8188 5.20889 39.9306 5.48689C40.0424 5.7649 40.0208 6.07086 39.8719 6.32058ZM21.5457 19.2178V22.7848H10.9796C9.87502 22.7848 8.97959 23.6802 8.97959 24.7848V27.7625C8.97959 28.8671 9.87502 29.7625 10.9796 29.7625H11.8119L14.2812 41.6124C14.5711 43.0035 15.7971 44.0004 17.2181 44.0004H27.873C29.294 44.0004 30.52 43.0035 30.8099 41.6124L33.2791 29.7625H34.1115C35.2161 29.7625 36.1115 28.8671 36.1115 27.7625V24.7848C36.1115 23.6802 35.2161 22.7848 34.1115 22.7848H23.5457V12.5424C24.0709 12.6693 24.743 12.8072 25.5159 12.9113C27.3812 13.1625 29.8972 13.2252 32.3578 12.4023C34.8185 11.5795 36.6937 10.0484 37.9387 8.75705C38.5652 8.10733 39.0429 7.50712 39.3657 7.06664C39.5274 6.84609 39.6508 6.66469 39.7354 6.53602C39.7776 6.47166 39.8102 6.42041 39.833 6.38397C39.8444 6.36574 39.8533 6.3512 39.8598 6.34057L39.8677 6.32757L39.8703 6.32332L39.8712 6.32176L39.8716 6.32112C39.8718 6.32084 39.8719 6.32058 38.9822 5.80404C39.2948 4.88542 39.2945 4.88531 39.2942 4.8852L39.2935 4.88494L39.2917 4.8843L39.2867 4.88256L39.2715 4.87729L39.2202 4.86C39.177 4.84562 39.1158 4.82573 39.0379 4.80155C38.8823 4.75321 38.6595 4.68761 38.3798 4.61464C37.8212 4.46891 37.0313 4.29258 36.0928 4.16618C34.2275 3.91496 31.7115 3.85231 29.2508 4.67516C26.7902 5.49802 24.915 7.02911 23.6699 8.32044C23.0435 8.97017 22.5658 9.57038 22.243 10.0109C22.0813 10.2314 21.9578 10.4128 21.8733 10.5415C21.831 10.6058 21.7984 10.6571 21.7757 10.6935C21.7643 10.7118 21.7553 10.7263 21.7488 10.7369L21.7409 10.7499L21.7384 10.7542L21.7375 10.7557L21.7371 10.7564C21.737 10.7565 21.737 10.7566 21.7863 10.7853L21.7861 10.7856L21.7368 10.7569C21.6835 10.8462 21.6466 10.9426 21.6262 11.0424C21.5744 11.1632 21.5457 11.2962 21.5457 11.4359V13.3494C20.7848 12.0873 19.7506 10.7587 18.3661 9.65873C16.3329 8.04341 13.9821 7.26869 12.1772 6.89301C11.2691 6.704 10.4838 6.6128 9.92213 6.56873C9.64089 6.54667 9.4146 6.53634 9.25572 6.53155C9.17625 6.52916 9.11354 6.52814 9.06915 6.52775C9.04695 6.52755 9.02932 6.5275 9.01646 6.52752L9.00075 6.52757L8.99562 6.5276L8.99374 6.52762L8.99298 6.52763C8.99264 6.52763 8.99233 6.52763 9.00166 7.52458L8.99233 6.52763C8.69105 6.53083 8.407 6.66847 8.21869 6.90251C8.03039 7.13655 7.95779 7.44219 8.02096 7.73494L9.00166 7.52458C8.02096 7.73494 8.02103 7.73524 8.0211 7.73557L8.02126 7.73631L8.02166 7.73814L8.02275 7.74312L8.02616 7.75835C8.02897 7.77083 8.0329 7.78791 8.03798 7.80938C8.04814 7.85232 8.06293 7.91289 8.08277 7.9894C8.12244 8.14236 8.18239 8.35944 8.26594 8.6272C8.43281 9.16196 8.69518 9.90316 9.08057 10.7418C9.84657 12.4087 11.1245 14.517 13.1576 16.1323C15.1907 17.7476 17.5416 18.5224 19.3465 18.898C20.2248 19.0809 20.9884 19.1722 21.5457 19.2178ZM24.2876 10.718C24.6927 10.8071 25.173 10.8974 25.708 10.9694C27.3927 11.1963 29.5559 11.2342 31.6117 10.5467C33.6676 9.85923 35.2911 8.55508 36.4156 7.38875C36.7727 7.01838 37.0752 6.66636 37.321 6.35954C36.916 6.27037 36.4357 6.18012 35.9007 6.10807C34.2159 5.88117 32.0528 5.84329 29.9969 6.53078C27.9411 7.21826 26.3176 8.52241 25.193 9.68874C24.8359 10.0591 24.5334 10.4111 24.2876 10.718ZM12.6251 27.7625H10.9796V24.7848H34.1115V27.7625H32.466H12.6251ZM16.2391 41.2044L13.8549 29.7625H31.2362L28.8519 41.2044C28.7553 41.6681 28.3466 42.0004 27.873 42.0004H17.2181C16.7444 42.0004 16.3358 41.6681 16.2391 41.2044ZM10.9054 9.91126C10.6869 9.43578 10.513 8.99587 10.3777 8.61781C10.7786 8.66579 11.2487 8.73754 11.7635 8.8447C13.394 9.18409 15.4119 9.86602 17.1123 11.217C18.8127 12.568 19.9263 14.3739 20.6183 15.8798C20.8368 16.3553 21.0107 16.7952 21.146 17.1732C20.7451 17.1253 20.275 17.0535 19.7601 16.9463C18.1296 16.607 16.1117 15.925 14.4113 14.5741C12.7109 13.2231 11.5974 11.4171 10.9054 9.91126Z"/>
</svg>
