<svg width="48" height="48" viewBox="0 0 48 48" xmlns="http://www.w3.org/2000/svg">
<path fill-rule="evenodd" clip-rule="evenodd" d="M32.5334 22.0581C31.6282 22.2426 30.7701 22.0806 29.9678 21.6256C30.2871 21.0618 30.6172 20.5121 30.9505 19.9819C31.976 18.3507 33.0031 16.9493 33.7741 15.9556C34.1592 15.4593 34.4794 15.066 34.7021 14.7981C34.8135 14.6642 34.9004 14.5617 34.9588 14.4934C34.9881 14.4593 35.0102 14.4337 35.0246 14.417L35.0405 14.3988L35.044 14.3947L35.0445 14.3941L34.2928 13.7285C35.0445 14.3941 35.0446 14.394 35.0447 14.394L35.0447 14.394C35.4076 13.9808 35.3653 13.348 34.9502 12.9804C34.535 12.6128 33.9041 12.6497 33.5411 13.0629L34.2928 13.7285C33.5411 13.0629 33.5409 13.0631 33.5407 13.0633L33.5402 13.0639L33.5385 13.0658L33.533 13.0722L33.5129 13.0952C33.4957 13.1151 33.4707 13.144 33.4386 13.1815C33.3744 13.2566 33.2813 13.3663 33.1636 13.5078C32.9283 13.7909 32.594 14.2016 32.1938 14.7174C31.3941 15.7481 30.327 17.2037 29.2584 18.9035C28.9805 19.3454 28.7005 19.8071 28.4236 20.285C27.912 19.6154 27.6277 18.8461 27.6114 17.9748C27.5873 16.6883 28.144 15.0036 29.7764 12.9163C31.3193 10.9434 34.1121 9.45508 36.6593 8.44837C37.9105 7.95387 39.0598 7.59173 39.8962 7.35339L39.998 7.32456L39.9923 7.43311C39.9444 8.32558 39.8457 9.55929 39.6431 10.9237C39.2307 13.7015 38.4137 16.8289 36.8709 18.8018C35.2385 20.8892 33.7589 21.8083 32.5334 22.0581ZM24.9704 29.7168C25.206 27.1719 26.2004 24.5319 27.4103 22.1479C26.357 21.0674 25.6715 19.6766 25.6401 18.0014C25.604 16.0709 26.4404 13.9369 28.2372 11.6393C30.1235 9.2273 33.3388 7.58372 35.9423 6.55475C37.2665 6.03141 38.4782 5.64977 39.359 5.39879C39.8 5.27313 40.1595 5.17981 40.4105 5.11752C40.536 5.08637 40.6344 5.06295 40.7025 5.04711C40.7365 5.03919 40.763 5.03317 40.7814 5.02901L40.8029 5.02418L40.8091 5.02282L40.811 5.02239L40.8117 5.02225C40.8119 5.02219 40.8122 5.02215 41.0229 6.014C42.0087 6.01483 42.0087 6.01506 42.0087 6.01532L42.0087 6.01602L42.0087 6.01804L42.0088 6.02455L42.0088 6.04727C42.0088 6.06669 42.0087 6.09457 42.0084 6.1305C42.0079 6.20235 42.0066 6.30643 42.0038 6.43937C41.9982 6.70518 41.9862 7.08682 41.961 7.55735C41.9105 8.49718 41.8066 9.79787 41.5922 11.2419C41.1707 14.0811 40.2964 17.6668 38.4101 20.0788C36.6133 22.3764 34.767 23.6726 32.928 24.0474C31.5031 24.3379 30.1821 24.0552 29.0262 23.4006C27.8061 25.8747 26.9147 28.4966 26.9147 30.8522V35.7131C26.9164 35.7474 26.9178 35.7792 26.9188 35.8081C26.9208 35.8689 26.9214 35.9178 26.9214 35.9542C26.9213 35.9724 26.9212 35.9875 26.9209 35.9994L26.9206 36.0149L26.9204 36.0209L26.9204 36.0234L26.9203 36.0246C26.9203 36.0247 26.9203 36.0248 26.9147 36.0246V36.0254L26.9203 36.0257C26.9194 36.0515 26.9175 36.0771 26.9147 36.1024V38.7754V40.4906V40.8862V40.981V41.0042V41.0099V41.0113V41.0117V41.0118C26.9147 41.5648 26.4676 42.0093 25.9161 42.0046C25.3645 41.9998 24.9174 41.5477 24.9174 40.9947V40.9945V40.9942V40.9928V40.987V40.9639V40.8691V40.4735V38.7583V35.7523C24.9133 35.6854 24.9066 35.6016 24.8958 35.5016C24.8605 35.1749 24.7816 34.6752 24.6052 34.0291C24.3006 32.9137 23.7032 31.3532 22.5288 29.4855C21.8028 30.1496 20.91 30.6213 19.8437 30.8017C18.0905 31.0983 16.0403 30.5778 13.724 29.1653C11.2824 27.6764 9.3666 24.8131 8.09349 22.4684C7.44478 21.2736 6.93884 20.1675 6.59492 19.3601C6.42271 18.9558 6.29049 18.6249 6.20072 18.3934C6.15582 18.2776 6.1215 18.1866 6.09806 18.1235L6.07109 18.0503L6.06379 18.0302L6.06169 18.0244L6.06104 18.0226L6.06081 18.022C6.06072 18.0217 6.06065 18.0215 6.98859 17.6846C6.82915 16.6846 6.82937 16.6846 6.82962 16.6845L6.83028 16.6844L6.83214 16.6841L6.83809 16.6832L6.85873 16.6802C6.87632 16.6776 6.90154 16.6739 6.93401 16.6693C6.99894 16.6602 7.09295 16.6474 7.21311 16.6322C7.45335 16.602 7.79861 16.5623 8.2256 16.5233C9.07834 16.4456 10.2633 16.3706 11.5923 16.3819C14.2005 16.404 17.5593 16.7571 20.0009 18.2459C22.3172 19.6584 23.7462 21.2595 24.3368 22.9853C24.9245 24.7023 24.6254 26.3748 23.8218 27.8211C24.2647 28.4824 24.6446 29.1158 24.9704 29.7168ZM22.4555 26.0136C22.7256 25.2233 22.7429 24.4251 22.4716 23.6324C22.0913 22.5212 21.0854 21.249 19.0041 19.9798C17.048 18.787 14.1498 18.426 11.6005 18.4043C10.3508 18.3938 9.23179 18.4645 8.42533 18.5379L8.39289 18.5409L8.40596 18.5716C8.73121 19.3353 9.20915 20.3798 9.81915 21.5032C11.0635 23.7949 12.7646 26.2385 14.7207 27.4313C16.802 28.7005 18.3687 28.9971 19.4975 28.8061C20.2277 28.6826 20.8477 28.3426 21.3617 27.815C19.9633 26.0474 18.433 24.9179 17.2053 24.217C16.5064 23.818 15.907 23.5588 15.4894 23.4012C15.2807 23.3224 15.1179 23.2693 15.0115 23.2368C14.9583 23.2205 14.9192 23.2095 14.8955 23.203L14.8718 23.1967C14.8706 23.1963 14.8697 23.1961 14.8693 23.196L14.8697 23.1961C14.8695 23.1961 14.8693 23.196 14.8691 23.196C14.3341 23.0635 14.0027 22.5227 14.1286 21.9865C14.2548 21.4493 14.7924 21.12 15.3293 21.2511L15.1074 22.196C15.3293 21.2511 15.3297 21.2512 15.3301 21.2514L15.3311 21.2516L15.3333 21.2521L15.3389 21.2535L15.355 21.2576C15.3678 21.2609 15.3847 21.2654 15.4057 21.2712C15.4476 21.2826 15.5055 21.2991 15.578 21.3212C15.7231 21.3655 15.927 21.4325 16.1789 21.5276C16.6823 21.7175 17.3795 22.0203 18.1823 22.4787C19.4565 23.2062 21.0008 24.3279 22.4555 26.0136ZM14.8704 23.1963L14.8699 23.1962L14.8697 23.1961C14.8699 23.1962 14.8702 23.1962 14.8704 23.1963ZM14.8704 23.1963L14.8709 23.1964L14.8716 23.1966C14.8712 23.1965 14.8708 23.1964 14.8704 23.1963ZM6.98859 17.6846L6.06065 18.0215C5.95894 17.7371 5.98614 17.4226 6.13481 17.164C6.28348 16.9053 6.5381 16.7295 6.82915 16.6846L6.98859 17.6846ZM41.0229 6.014L40.8122 5.02215C41.1028 4.95854 41.4067 5.03356 41.639 5.22628C41.8713 5.41899 42.0072 5.70878 42.0087 6.01483L41.0229 6.014Z"/>
</svg>
