<svg width="48" height="48" viewBox="0 0 48 48" xmlns="http://www.w3.org/2000/svg">
<path fill-rule="evenodd" clip-rule="evenodd" d="M22.8024 4.39814C23.5125 3.86728 24.4874 3.86729 25.1975 4.39814L45.4456 19.5352C46.9863 20.687 46.1717 23.1371 44.2481 23.1371H38.9535V41.9999C38.9535 43.1045 38.0581 43.9999 36.9535 43.9999H29.6511C28.5466 43.9999 27.6511 43.1045 27.6511 41.9999L27.6511 32.4095L20.3488 32.4095V41.9999C20.3488 43.1045 19.4533 43.9999 18.3488 43.9999H11.0464C9.94183 43.9999 9.04639 43.1045 9.04639 41.9999V23.1371H3.7518C1.8282 23.1371 1.01362 20.687 2.55428 19.5352L22.8024 4.39814ZM23.9999 6L3.7518 21.1371H10.0464C10.5987 21.1371 11.0464 21.5848 11.0464 22.1371V41.9999L18.3488 41.9999V32.4095C18.3488 31.3049 19.2442 30.4095 20.3488 30.4095H27.6511C28.7557 30.4095 29.6511 31.3049 29.6511 32.4095V41.9999H36.9535V22.1371C36.9535 21.5848 37.4012 21.1371 37.9535 21.1371L44.2481 21.1371L23.9999 6Z"/>
</svg>
