<svg width="48" height="48" viewBox="0 0 48 48" xmlns="http://www.w3.org/2000/svg">
<path fill-rule="evenodd" clip-rule="evenodd" d="M20.3363 9.06281C21.0007 6.71707 23.1588 5 25.7153 5C28.8026 5 31.3052 7.50268 31.3052 10.5899C31.3052 10.7581 31.2978 10.9243 31.2834 11.0883C31.2435 11.5401 31.3728 11.991 31.6459 12.3531C32.3516 13.2888 32.7696 14.4518 32.7696 15.7153C32.7696 16.464 32.623 17.1765 32.3572 17.8272L22.4884 17.8272H15.4124C15.1467 17.1765 15 16.464 15 15.7153C15 13.1588 16.7171 11.0007 19.0628 10.3363C19.6788 10.1619 20.1619 9.67877 20.3363 9.06281ZM22.9026 19.8272H30.6652L19.5623 30.9301L17.6988 25.0311L22.9026 19.8272ZM30.8934 22.4275L20.2413 33.0795L20.6296 34.3086L21.8574 38.195L27.7848 32.2675L30.8934 22.4275ZM22.9745 41.7313L22.5364 40.3444L26.4787 36.4021L24.3277 43.2111C24.191 43.6437 23.5787 43.6437 23.442 43.2111L22.9745 41.7313ZM20.0742 19.8272L17.0198 22.8817L16.0548 19.8272H20.0742ZM13.7367 19.1285L13.5763 18.6209C13.2048 17.7251 13 16.7432 13 15.7153C13 12.2706 15.294 9.36422 18.4358 8.43577C19.3642 5.294 22.2706 3 25.7153 3C29.9071 3 33.3052 6.39811 33.3052 10.5899C33.3052 10.7951 33.2971 10.9986 33.281 11.2001C34.2162 12.4619 34.7696 14.0254 34.7696 15.7153C34.7696 16.7432 34.5648 17.725 34.1934 18.6208L34.033 19.1285L32.9343 22.6065L29.6183 33.103L28.4237 36.8845L26.2348 43.8135C25.5094 46.1096 22.2602 46.1096 21.5349 43.8135L21.0674 42.3337L20.4464 40.3679L18.7225 34.9111L18.1513 33.103L15.6088 25.0546L13.7367 19.1285ZM22.0543 9.58988C21.502 9.58988 21.0543 10.0376 21.0543 10.5899C21.0543 11.1422 21.502 11.5899 22.0543 11.5899C24.3327 11.5899 26.1798 13.4369 26.1798 15.7153C26.1798 16.2676 26.6275 16.7153 27.1798 16.7153C27.732 16.7153 28.1798 16.2676 28.1798 15.7153C28.1798 12.3323 25.4373 9.58988 22.0543 9.58988Z"/>
</svg>
