<svg width="48" height="48" viewBox="0 0 48 48" xmlns="http://www.w3.org/2000/svg">
<path fill-rule="evenodd" clip-rule="evenodd" d="M5.46157 2C5.46157 1.44772 5.90928 1 6.46157 1H12.795C14.4061 1 15.7438 2.28691 15.7438 3.9131V6.76942C19.515 6.99991 22.0015 8.51271 23.5058 9.91156C25.1071 11.4006 25.4875 13.5413 25.4875 15.3917V15.4374L25.4834 15.4828L24.4875 15.3917L25.4834 15.4829L25.4834 15.4831L25.4833 15.4839L25.483 15.4871L25.4818 15.4997L25.4773 15.5497L25.4594 15.745L25.3912 16.4896L25.1454 19.1758L24.4951 26.2803C25.8912 26.1451 27.3069 26.31 28.4679 26.5198C29.2536 26.6618 29.9544 26.8309 30.4841 26.9598L30.5411 26.9737C30.5507 26.976 30.5603 26.9784 30.5697 26.9807C30.5702 26.9785 30.5707 26.9764 30.5712 26.9742C30.6016 26.8354 30.6321 26.6966 30.6645 26.554C30.7631 26.1201 30.875 25.6766 31.0451 25.2233C31.3974 24.2845 31.9647 23.3963 33.0394 22.3331C33.4321 21.9447 34.0652 21.9482 34.4536 22.3408C34.842 22.7334 34.8386 23.3666 34.446 23.755C33.5343 24.6568 33.1493 25.3085 32.9176 25.9261C32.8117 26.208 32.7313 26.5004 32.6513 26.8393C32.9597 26.7659 33.3041 26.6873 33.6724 26.6123C34.9798 26.346 36.6706 26.1065 38.3039 26.3036C39.9512 26.5024 41.6458 27.1624 42.7649 28.7884C43.8671 30.3899 44.2739 32.7335 43.814 35.9965C42.9536 42.1006 40.9682 45.1763 38.4963 46.3913C36.0496 47.5939 33.5401 46.7626 32.1418 46.088C31.6265 45.8394 30.9694 45.8407 30.4475 46.0925C29.0657 46.7593 26.6062 47.5582 24.1879 46.3388C23.5191 46.0015 22.884 45.5256 22.2953 44.8868C21.4242 46.2361 19.8457 47.0012 18.1386 47.0012H11.075C8.53648 47.0012 6.39707 45.0824 6.19301 42.5583L4.00325 15.4723L4 15.432V15.3917C4 13.5413 4.38044 11.4006 5.98172 9.91156C7.48604 8.51271 9.97257 6.99991 13.7438 6.76942V3.9131C13.7438 3.42614 13.3365 3 12.795 3H6.46157C5.90928 3 5.46157 2.55228 5.46157 2ZM20.9445 42.9688C20.0309 41.2968 19.3032 39.0251 18.8361 36.01C18.3893 33.1252 18.6344 30.9598 19.4537 29.3836C20.1614 28.0221 21.2441 27.2011 22.4445 26.7422L23.1537 18.9935L23.3918 16.3917H6.08411L8.18651 42.3972C8.30413 43.8521 9.54771 45.0012 11.075 45.0012H18.1386C19.6268 45.0012 20.699 44.1766 20.9445 42.9688ZM6.04825 14.3917C6.17422 13.1618 6.55902 12.1058 7.34366 11.3762C8.65236 10.1592 10.9707 8.73929 14.7438 8.73929C18.5168 8.73929 20.8352 10.1592 22.1439 11.3762C22.9285 12.1058 23.3133 13.1618 23.4393 14.3917H6.04825ZM28.1122 28.4879C26.6442 28.2226 25.0031 28.0897 23.6392 28.4553C22.5986 28.7342 21.7564 29.2901 21.2283 30.306C20.6809 31.3591 20.4002 33.0419 20.8125 35.7039C21.7155 41.5331 23.5313 43.7678 25.0884 44.553C26.6577 45.3443 28.3727 44.873 29.5783 44.2912C30.6426 43.7777 31.9398 43.77 33.0108 44.2867C34.2492 44.8841 36.0187 45.3806 37.6141 44.5964C39.1844 43.8246 41.0045 41.599 41.8336 35.7174C42.2587 32.7011 41.8194 30.9423 41.1174 29.9223C40.4322 28.9267 39.3644 28.4461 38.0643 28.2892C36.7501 28.1306 35.3085 28.3202 34.0715 28.5721C33.5044 28.6875 32.9977 28.8122 32.5724 28.9168C32.5381 28.9253 32.5043 28.9336 32.4711 28.9417C32.2533 28.9952 32.0478 29.0452 31.876 29.0816C31.73 29.1125 31.517 29.1547 31.324 29.1547C31.116 29.1547 30.8751 29.1047 30.7087 29.0684C30.5282 29.0291 30.3098 28.9758 30.076 28.9189L30.0111 28.9031C29.4838 28.7747 28.8337 28.6183 28.1122 28.4879ZM27.4107 32.6304C26.3311 32.6304 25.4875 33.4848 25.4875 34.5V35.4566C25.4875 36.0088 25.0398 36.4566 24.4875 36.4566C23.9353 36.4566 23.4875 36.0088 23.4875 35.4566V34.5C23.4875 32.3455 25.2615 30.6304 27.4107 30.6304H28.385C28.9373 30.6304 29.385 31.0781 29.385 31.6304C29.385 32.1826 28.9373 32.6304 28.385 32.6304H27.4107Z"/>
</svg>
