<svg width="48" height="48" viewBox="0 0 48 48" xmlns="http://www.w3.org/2000/svg">
<path fill-rule="evenodd" clip-rule="evenodd" d="M25.2014 9.62701C29.5709 5.25755 36.2175 5.04593 40.0533 8.88173C43.8891 12.7175 43.6775 19.3642 39.308 23.7336C37.4138 25.6278 34.1803 27.644 30.7516 28.99C27.6965 30.1894 24.6804 30.7803 22.42 30.4314C22.4019 30.2792 22.3693 30.1358 22.3299 30.0061C22.1832 29.5243 21.9063 29.0921 21.6712 28.7775C21.2162 28.1688 20.6773 27.6195 20.075 27.1536C19.7703 26.9178 19.3528 26.6404 18.8849 26.4869C18.7633 26.447 18.6288 26.4129 18.4856 26.3913C18.1725 24.1168 18.7828 21.1125 19.9837 18.0853C21.3298 14.6923 23.3257 11.5027 25.2014 9.62701ZM31.4824 30.8517C28.147 32.1611 24.4924 32.9325 21.5985 32.3131L16.1034 37.8082C17.5476 39.5653 17.6348 42.1485 16.0043 43.779C14.2595 45.5238 11.4238 45.3017 9.6767 43.5546C9.04232 42.9202 8.61361 42.1547 8.40253 41.352C8.36122 41.1949 8.24241 40.9824 8.04377 40.7837C7.84513 40.5851 7.63257 40.4663 7.47547 40.425C6.67286 40.2139 5.90728 39.7852 5.2729 39.1508C3.52585 37.4038 3.3037 34.568 5.04848 32.8233C6.67898 31.1928 9.26218 31.28 11.0193 32.7241L16.5856 27.1578C16.0293 24.2665 16.8147 20.6497 18.1247 17.3478C19.5424 13.7742 21.67 10.33 23.7872 8.2128C28.8129 3.18713 36.7314 2.73141 41.4675 7.46752C46.2036 12.2036 45.7479 20.1222 40.7222 25.1478C38.5848 27.2853 35.0943 29.4338 31.4824 30.8517ZM18.8512 28.7355C19.3094 29.0899 19.7215 29.5096 20.0692 29.9749C20.2472 30.2129 20.368 30.4289 20.4166 30.5886C20.4239 30.6125 20.4285 30.6313 20.4315 30.6455C20.4097 30.6713 20.3867 30.6965 20.3622 30.721L14.3295 36.7536C13.6686 37.4145 13.8686 38.3687 14.3656 38.8657C15.4561 39.9561 15.4349 41.52 14.59 42.3648C13.7452 43.2097 12.1814 43.2309 11.0909 42.1404C10.7078 41.7573 10.458 41.3045 10.3368 40.8434C10.1867 40.2726 9.84946 39.761 9.45799 39.3695C9.06651 38.9781 8.55487 38.6408 7.98415 38.4908C7.52302 38.3695 7.07023 38.1197 6.68712 37.7366C5.59666 36.6461 5.61786 35.0823 6.46269 34.2375C7.30753 33.3926 8.87136 33.3714 9.96182 34.4619C10.4588 34.9589 11.413 35.1589 12.0739 34.498L18.1066 28.4653C18.14 28.4319 18.1748 28.401 18.2108 28.3726C18.2239 28.3758 18.2406 28.3804 18.2614 28.3872C18.4149 28.4376 18.6222 28.5583 18.8512 28.7355ZM20.4361 30.6824C20.436 30.6822 20.4358 30.6798 20.4361 30.6757C20.4365 30.6804 20.4363 30.6825 20.4361 30.6824ZM18.1717 28.3662C18.1716 28.3661 18.1735 28.366 18.1777 28.3664C18.1739 28.3666 18.1718 28.3664 18.1717 28.3662ZM34.5066 21.2974C34.0545 21.6128 33.9512 22.2316 34.276 22.6795C34.6007 23.1274 35.2306 23.2348 35.6828 22.9194L36.6828 22.2219C38.2373 21.1376 39.2102 19.377 39.5877 17.261C39.6838 16.7224 39.3171 16.2049 38.7688 16.1054C38.2204 16.0058 37.6979 16.3617 37.6018 16.9004C37.2908 18.6439 36.53 19.8861 35.5067 20.5999L34.5066 21.2974Z"/>
</svg>
