<svg width="48" height="48" viewBox="0 0 48 48" xmlns="http://www.w3.org/2000/svg">
<path fill-rule="evenodd" clip-rule="evenodd" d="M15.6991 6C15.6991 4.34314 17.0422 3 18.6991 3H28.2999C29.9568 3 31.2999 4.34315 31.2999 6V7.33302C31.2999 8.41473 30.7274 9.36273 29.8689 9.89054L31.2402 13.6413L31.7243 14.9653C32.5689 17.2756 33.0011 19.7164 33.0011 22.1762V39.9992C33.0011 42.7606 30.7625 44.9992 28.0011 44.9992H19C16.2386 44.9992 14 42.7606 14 39.9992V22.1762C14 19.7164 14.4322 17.2756 15.2768 14.9653L15.7609 13.6413L17.1318 9.8916C16.2723 9.364 15.6991 8.41546 15.6991 7.33302V6ZM18.6991 5C18.1468 5 17.6991 5.44771 17.6991 6V7.33302C17.6991 7.8853 18.1468 8.33302 18.6991 8.33302H28.2999C28.8522 8.33302 29.2999 7.88531 29.2999 7.33302V6C29.2999 5.44772 28.8522 5 28.2999 5H18.6991ZM19.0994 10.3345L17.9988 13.3449C18.3182 13.4271 18.7027 13.5106 19.128 13.5722C20.3642 13.7513 21.8204 13.728 23.0411 13.0965C24.7956 12.1888 26.7396 12.2121 28.1598 12.4178C28.3459 12.4447 28.5252 12.4751 28.6963 12.5077L27.9018 10.3345H19.0994ZM29.5246 14.7735C29.4775 14.7586 29.4266 14.743 29.3723 14.7269C29.0021 14.617 28.4791 14.4849 27.8731 14.3971C26.6369 14.2181 25.1807 14.2414 23.9601 14.8728C22.2055 15.7806 20.2615 15.7573 18.8413 15.5515C18.2466 15.4654 17.7217 15.3441 17.3092 15.231L17.1552 15.6521C16.391 17.7424 16 19.9506 16 22.1762V39.9992C16 41.656 17.3431 42.9992 19 42.9992H28.0011C29.658 42.9992 31.0011 41.656 31.0011 39.9992V22.1762C31.0011 19.9506 30.6101 17.7423 29.8459 15.6521L29.5246 14.7735ZM19.9402 19.1828C20.0412 18.6398 19.6829 18.1178 19.1399 18.0169C18.5969 17.9159 18.0749 18.2742 17.9739 18.8172L17.6856 20.3678C17.4951 21.3928 17.3992 22.433 17.3992 23.4755V26.0004C17.3992 26.5527 17.8469 27.0004 18.3992 27.0004C18.9514 27.0004 19.3992 26.5527 19.3992 26.0004V23.4755C19.3992 22.5557 19.4838 21.6378 19.6519 20.7334L19.9402 19.1828Z"/>
</svg>
