<svg width="48" height="48" viewBox="0 0 48 48" xmlns="http://www.w3.org/2000/svg">
<path fill-rule="evenodd" clip-rule="evenodd" d="M46 24C46 11.8497 36.1504 2 24 2C11.8497 2 2 11.8497 2 24C2 36.1504 11.8497 46 24 46C36.1504 46 46 36.1504 46 24ZM5.14285 24C5.14285 13.5861 13.5861 5.14285 24 5.14285C34.4139 5.14285 42.8571 13.5861 42.8571 24C42.8571 34.4139 34.4139 42.8571 24 42.8571C22.9791 42.8571 21.9772 42.776 21.0005 42.6176C23.3663 41.4225 25.678 39.574 27.4072 36.7313C31.7238 29.6205 33.2341 18.3314 33.2341 18.3314L37.9626 16.1031C38.2547 15.9522 38.1808 15.5091 37.8163 15.5091H32.7217C31.9203 13.9502 29.1483 11.4281 25.0736 11.4281C22.652 11.4281 20.54 12.0865 18.6355 13.3531C18.6355 13.3531 15.8729 15.264 11.8437 18.8154L5.14984 24.5185C5.14521 24.3462 5.14285 24.1734 5.14285 24ZM19.781 31.3539C20.1189 30.8259 20.4489 30.2884 20.7585 29.7384C20.903 29.8075 20.9282 29.9756 20.8527 30.125C19.9248 32.417 17.7441 36.8383 13.8726 39.9093C13.326 39.5606 12.7986 39.1846 12.2949 38.784C15.406 36.9158 17.8366 34.341 19.781 31.3539ZM24.1292 16.2681C24.9589 15.4195 26.2223 15.2875 27.195 15.869C27.0756 15.8375 26.9593 15.814 26.8383 15.814C26.0432 15.814 25.4036 16.474 25.4036 17.2722C25.4036 18.0737 26.0432 18.7337 26.8383 18.7337C27.6208 18.7337 28.2621 18.0737 28.2621 17.2722C28.2621 17.2047 28.2542 17.1292 28.2401 17.057C28.6487 18.0061 28.4788 19.1501 27.7167 19.9248C26.7236 20.9368 25.1207 20.9368 24.1292 19.9248C23.1297 18.9175 23.1297 17.277 24.1292 16.2681Z"/>
</svg>
