<svg width="48" height="48" viewBox="0 0 48 48" xmlns="http://www.w3.org/2000/svg">
<path fill-rule="evenodd" clip-rule="evenodd" d="M22.0399 5.12706C22.4898 4.85136 23.0753 5.0392 23.3477 5.54661C24.5066 7.7055 24.9277 9.54201 25.0705 11.0463H29.0828C35.233 11.0463 40.0138 16.6493 40.0138 23.2919C40.0138 24.1378 39.3829 25.0417 38.3517 25.0417H38.1143C37.4255 32.2192 34.1195 36.6768 30.8893 39.3441C29.2152 40.7264 27.5722 41.6203 26.3445 42.1699C25.7298 42.445 25.2168 42.635 24.8526 42.7575C24.6704 42.8187 24.5251 42.8632 24.4226 42.893C24.3714 42.9079 24.3308 42.9192 24.3017 42.9271L24.2665 42.9365L24.2556 42.9393L24.2517 42.9403L24.2503 42.9407C24.2496 42.9408 24.2491 42.941 24.0051 41.9712C23.7612 42.941 23.7606 42.9408 23.76 42.9407L23.7585 42.9403L23.7547 42.9393L23.7437 42.9365L23.7086 42.9271C23.6794 42.9192 23.6388 42.9079 23.5876 42.893C23.4851 42.8632 23.3399 42.8187 23.1576 42.7575C22.7934 42.635 22.2804 42.445 21.6658 42.1699C20.438 41.6203 18.795 40.7264 17.121 39.3441C13.8907 36.6768 10.5847 32.2192 9.89589 25.0417H9.66207C8.63092 25.0417 8 24.1378 8 23.2919C8 16.6493 12.7808 11.0463 18.931 11.0463H23.1645C23.0351 9.82006 22.6768 8.32992 21.7186 6.54501C21.4462 6.0376 21.5901 5.40276 22.0399 5.12706ZM23.9434 13.0463H18.931C14.1816 13.0463 10.1193 17.3845 10.0026 23.0417H10.82H37.1902H38.0112C37.8945 17.3845 33.8322 13.0463 29.0828 13.0463H24.501C24.4091 13.0776 24.3106 13.0937 24.2079 13.0917C24.1165 13.09 24.0277 13.0742 23.9434 13.0463ZM24.0051 41.9712L24.2491 42.941L24.0051 43.0023L23.7612 42.941L24.0051 41.9712ZM31.716 28.7402C32.2206 28.9646 32.4478 29.5556 32.2233 30.0603C31.6073 31.4453 30.5659 32.7407 29.5622 33.7758C28.5514 34.8182 27.5218 35.6544 26.8626 36.1175C26.4107 36.435 25.787 36.3261 25.4695 35.8742C25.152 35.4223 25.2609 34.7985 25.7128 34.481C26.2711 34.0888 27.2046 33.334 28.1264 32.3834C29.0554 31.4255 29.9163 30.3259 30.3959 29.2475C30.6204 28.7428 31.2114 28.5157 31.716 28.7402ZM18.3944 37.8019C15.5527 35.4555 12.5779 31.5197 11.9058 25.0417H36.1044C35.4323 31.5197 32.4575 35.4555 29.6158 37.8019C28.1086 39.0465 26.628 39.8517 25.5273 40.3444C24.9777 40.5905 24.5253 40.7575 24.2152 40.8617C24.1354 40.8886 24.0651 40.9112 24.0051 40.93C23.9451 40.9112 23.8748 40.8886 23.795 40.8617C23.4849 40.7575 23.0325 40.5905 22.4829 40.3444C21.3823 39.8517 19.9016 39.0465 18.3944 37.8019Z"/>
</svg>
