<svg width="48" height="48" viewBox="0 0 48 48" xmlns="http://www.w3.org/2000/svg">
<path fill-rule="evenodd" clip-rule="evenodd" d="M22.0001 3C20.8956 3 20.0001 3.89543 20.0001 5V7.47704C19.8408 7.57309 19.6876 7.6806 19.5419 7.7991L15.4765 11.1047C14.5423 11.8642 14 13.0042 14 14.2082V15.8003C14 16.6695 14.4067 17.4887 15.0991 18.0142C15.51 18.326 15.51 18.9439 15.0991 19.2557C14.4067 19.7812 14 20.6004 14 21.4696V41.0022C14 43.2113 15.7909 45.0022 18 45.0022H29.999C32.2081 45.0022 33.999 43.2113 33.999 41.0022V40H34V39V24V23H33.999V21.4696C33.999 20.6004 33.5923 19.7812 32.8999 19.2557C32.489 18.9439 32.489 18.326 32.8999 18.0142C33.5923 17.4887 33.999 16.6695 33.999 15.8003V14.2082C33.999 13.0042 33.4566 11.8642 32.5225 11.1047L28.4571 7.7991C28.3116 7.68084 28.1588 7.57353 27.9998 7.47762V5C27.9998 3.89543 27.1044 3 25.9998 3H22.0001ZM22.0606 8.90265H25.9384C26.3963 8.90375 26.84 9.06194 27.1953 9.35088L31.2607 12.6564C31.7278 13.0362 31.999 13.6062 31.999 14.2082V15.8003C31.999 16.044 31.885 16.2737 31.6908 16.421C30.2253 17.5332 30.2253 19.7367 31.6908 20.8489C31.885 20.9962 31.999 21.2259 31.999 21.4696V23H23C21.3431 23 20 24.3431 20 26V37C20 38.6569 21.3431 40 23 40H31.999V41.0022C31.999 42.1068 31.1036 43.0022 29.999 43.0022H18C16.8954 43.0022 16 42.1068 16 41.0022V21.4696C16 21.2259 16.114 20.9962 16.3082 20.8489C17.7737 19.7367 17.7737 17.5332 16.3082 16.421C16.114 16.2737 16 16.044 16 15.8003V14.2082C16 13.6062 16.2712 13.0362 16.7383 12.6564L20.8036 9.35088C21.159 9.06194 21.6027 8.90375 22.0606 8.90265ZM25.9402 6.90265H25.9998L25.9998 5L22.0001 5V6.90265H22.0588C22.061 6.90265 22.0632 6.90265 22.0654 6.90265H25.9336C25.9358 6.90265 25.938 6.90265 25.9402 6.90265ZM31.999 38V25H23C22.4477 25 22 25.4477 22 26V37C22 37.5523 22.4477 38 23 38H31.999ZM20 18.6349C20 18.0827 20.4477 17.6349 21 17.6349H27C27.5523 17.6349 28 18.0827 28 18.6349C28 19.1872 27.5523 19.6349 27 19.6349H21C20.4477 19.6349 20 19.1872 20 18.6349Z"/>
</svg>
