<svg width="48" height="48" viewBox="0 0 48 48" xmlns="http://www.w3.org/2000/svg">
<path fill-rule="evenodd" clip-rule="evenodd" d="M16.2414 4.50049C15.3033 4.50049 14.4912 5.15255 14.2886 6.06854L7.04604 38.8116C6.82508 39.8105 7.39361 40.8151 8.36373 41.14L15.099 43.3955C16.1656 43.7527 17.317 43.1603 17.6464 42.0847L24 21.3395L30.3536 42.0847C30.683 43.1603 31.8343 43.7527 32.901 43.3955L39.6362 41.14C40.6064 40.8151 41.1749 39.8105 40.9539 38.8116L33.7114 6.06854C33.5088 5.15255 32.6967 4.50049 31.7586 4.50049H16.2414ZM16.2414 6.50049L31.7586 6.50049L32.1614 8.32172H15.8385L16.2414 6.50049ZM15.3962 10.3217L8.99884 39.2435L15.7341 41.499L23.0438 17.6319C23.1725 17.2117 23.5605 16.9247 24 16.9247C24.4395 16.9247 24.8275 17.2117 24.9562 17.6319L32.2659 41.499L39.0011 39.2435L32.6038 10.3217H15.3962Z"/>
</svg>
