<svg width="48" height="48" viewBox="0 0 48 48" xmlns="http://www.w3.org/2000/svg">
<path fill-rule="evenodd" clip-rule="evenodd" d="M33.1528 7.70463C33.5437 7.31446 34.1775 7.31444 34.5683 7.7046L40.7749 13.8996C41.1658 14.2897 41.1658 14.9223 40.7749 15.3125L15.1781 40.8637L7.55703 33.2548L33.1528 7.70463ZM5.61715 32.4052C5.55237 32.4451 5.49115 32.4931 5.43496 32.5492C5.22218 32.7615 5.12519 33.0457 5.14401 33.3235C5.04895 33.6282 5.00234 33.949 5.00884 34.2743L5.13147 40.4181C5.16381 42.0384 6.48061 43.3396 8.10412 43.3555L14.1796 43.4151C14.5007 43.4182 14.8169 43.37 15.1172 43.2749C15.3935 43.2918 15.6755 43.195 15.8867 42.9842C15.944 42.9271 15.9928 42.8647 16.0333 42.7987C16.1381 42.7187 16.2381 42.6315 16.3324 42.5373L42.1904 16.7254C43.3631 15.5549 43.363 13.6571 42.1903 12.4866L35.9838 6.29165C34.8112 5.12117 32.9099 5.12121 31.7373 6.29174L5.88768 32.0953C5.78993 32.1928 5.69964 32.2964 5.61715 32.4052ZM12.8888 41.4041L8.12378 41.3574C7.58261 41.3521 7.14368 40.9184 7.1329 40.3783L7.03675 35.5615L12.8888 41.4041Z"/>
</svg>
