<svg width="48" height="48" viewBox="0 0 48 48" xmlns="http://www.w3.org/2000/svg">
<path fill-rule="evenodd" clip-rule="evenodd" d="M14.5 10.5C11.7386 10.5 9.5 12.7386 9.5 15.5C9.5 18.2614 11.7386 20.5 14.5 20.5C17.2614 20.5 19.5 18.2614 19.5 15.5C19.5 12.7386 17.2614 10.5 14.5 10.5ZM7.5 15.5C7.5 11.634 10.634 8.5 14.5 8.5C18.366 8.5 21.5 11.634 21.5 15.5C21.5 19.366 18.366 22.5 14.5 22.5C10.634 22.5 7.5 19.366 7.5 15.5ZM38.2071 9.79289C38.5976 10.1834 38.5976 10.8166 38.2071 11.2071L11.2071 38.2071C10.8166 38.5976 10.1834 38.5976 9.79289 38.2071C9.40237 37.8166 9.40237 37.1834 9.79289 36.7929L36.7929 9.79289C37.1834 9.40237 37.8166 9.40237 38.2071 9.79289ZM28.5 32.5C28.5 29.7386 30.7386 27.5 33.5 27.5C36.2614 27.5 38.5 29.7386 38.5 32.5C38.5 35.2614 36.2614 37.5 33.5 37.5C30.7386 37.5 28.5 35.2614 28.5 32.5ZM33.5 25.5C29.634 25.5 26.5 28.634 26.5 32.5C26.5 36.366 29.634 39.5 33.5 39.5C37.366 39.5 40.5 36.366 40.5 32.5C40.5 28.634 37.366 25.5 33.5 25.5Z"/>
</svg>
