<svg width="48" height="48" viewBox="0 0 48 48" xmlns="http://www.w3.org/2000/svg">
<path fill-rule="evenodd" clip-rule="evenodd" d="M20.7262 5.02004L19.1652 8.70395C22.3316 9.86428 27.0973 12.1032 31.0364 16.0423C34.9755 19.9814 37.2144 24.7471 38.3747 27.9135L42.0587 26.3525C41.4394 24.088 39.331 17.6547 34.3775 12.7012C29.424 7.74768 22.9907 5.63928 20.7262 5.02004ZM36.5308 28.6948C35.4374 25.6847 33.3216 21.1559 29.6222 17.4565C25.9228 13.7571 21.394 11.6413 18.3839 10.5479L11.4741 26.8549C12.657 26.8952 13.8285 27.3665 14.7324 28.2703C16.6236 30.1616 16.6236 33.228 14.7324 35.1192C12.8619 36.9897 9.84193 37.0103 7.94619 35.1808L5.04055 42.0382L36.5308 28.6948ZM8.83114 33.0924C8.95479 33.3111 9.1101 33.5174 9.29769 33.705C10.4079 34.8152 12.2079 34.8152 13.3182 33.705C14.4284 32.5948 14.4284 30.7948 13.3182 29.6846C12.5796 28.946 11.5343 28.6976 10.5891 28.9436L8.83114 33.0924ZM21.1635 3.06636C23.4637 3.68649 30.4044 5.89966 35.7917 11.287C41.179 16.6743 43.3922 23.615 44.0123 25.9153C44.2698 26.8701 43.753 27.8067 42.8982 28.1689L38.1731 30.1711L5.7315 43.9175C4.10898 44.605 2.47368 42.9697 3.16118 41.3472L6.81501 32.7242L8.92238 27.7508L16.9076 8.90557L18.9098 4.18053C19.272 3.32568 20.2086 2.80894 21.1635 3.06636ZM24.1875 28.3259C23.4525 27.5909 22.2607 27.5909 21.5257 28.3259C20.7907 29.061 20.7907 30.2527 21.5257 30.9877C22.2607 31.7228 23.4525 31.7228 24.1875 30.9877C24.9225 30.2527 24.9225 29.061 24.1875 28.3259ZM20.1115 26.9117C21.6276 25.3956 24.0856 25.3956 25.6017 26.9117C27.1178 28.4278 27.1178 30.8859 25.6017 32.4019C24.0856 33.918 21.6276 33.918 20.1115 32.4019C18.5954 30.8859 18.5954 28.4278 20.1115 26.9117ZM19.4877 16.7772C20.5979 15.667 22.3979 15.667 23.5081 16.7772C24.6184 17.8874 24.6184 19.6874 23.5081 20.7977C22.3979 21.9079 20.5979 21.9079 19.4877 20.7977C18.3774 19.6874 18.3774 17.8874 19.4877 16.7772ZM24.9223 15.363C23.0311 13.4717 19.9647 13.4717 18.0735 15.363C16.1822 17.2543 16.1822 20.3206 18.0735 22.2119C19.9647 24.1031 23.0311 24.1031 24.9223 22.2119C26.8136 20.3206 26.8136 17.2543 24.9223 15.363Z"/>
</svg>
