<svg width="48" height="48" viewBox="0 0 48 48" xmlns="http://www.w3.org/2000/svg">
<path fill-rule="evenodd" clip-rule="evenodd" d="M26.3314 5C26.3314 4.44772 26.7792 4 27.3314 4C31.0627 4 34.712 5.08154 37.8179 7.11033C40.9241 9.13928 43.3485 12.0255 44.7811 15.4066C45.7369 17.6624 46.2222 20.0701 46.2222 22.4897C46.2222 23.6966 46.1015 24.9062 45.8584 26.1012C45.1277 29.6922 43.3247 32.9876 40.6812 35.5719C39.6298 36.5997 38.4642 37.4967 37.2113 38.2492C37.4812 38.7671 37.6347 39.3552 37.6347 39.9794C37.6347 42.0985 35.8838 43.7778 33.7721 43.7778C31.9397 43.7778 30.379 42.5133 29.9983 40.7943C28.2233 41.042 26.4275 41.0403 24.6646 40.7943C24.2839 42.5133 22.7232 43.7778 20.8908 43.7778C18.7791 43.7778 17.0282 42.0985 17.0282 39.9794C17.0282 39.3552 17.1817 38.7671 17.4516 38.2492C15.1415 36.8618 13.1518 34.9969 11.6302 32.7708C9.55161 29.7296 8.44067 26.1517 8.44067 22.4897V21.7901C8.44067 19.2727 6.34669 17.1934 3.71562 17.1934H3C2.44772 17.1934 2 16.7457 2 16.1934C2 15.6411 2.44772 15.1934 3 15.1934H3.71562C7.30679 15.1934 10.2735 17.9667 10.4338 21.4897H26.3314V5ZM28.3314 21.4897H44.1911C44.0783 19.6766 43.6587 17.884 42.9396 16.1868C41.664 13.1763 39.5022 10.5994 36.7242 8.78477C34.2234 7.15127 31.3253 6.20224 28.3314 6.02892V21.4897ZM44.1911 23.4897H27.3314H10.4718C10.6525 26.3948 11.6185 29.2093 13.2814 31.6422C14.719 33.7454 16.6278 35.4908 18.8536 36.7519C19.4462 36.3896 20.1452 36.1811 20.8908 36.1811C22.5751 36.1811 24.0266 37.2468 24.5479 38.754C26.3834 39.0534 28.2646 39.0558 30.115 38.754C30.6363 37.2468 32.0878 36.1811 33.7721 36.1811C34.5177 36.1811 35.2167 36.3896 35.8093 36.7518C37.0721 36.0364 38.2409 35.1605 39.2831 34.1417C41.6437 31.8341 43.2486 28.8967 43.8985 25.7024C44.0477 24.9692 44.1451 24.23 44.1911 23.4897ZM20.8908 38.1811C20.3918 38.1811 19.9436 38.3691 19.6112 38.6728C19.2479 39.0047 19.0282 39.4688 19.0282 39.9794C19.0282 40.9514 19.8406 41.7778 20.8908 41.7778C21.9409 41.7778 22.7533 40.9514 22.7533 39.9794C22.7533 39.9016 22.7482 39.8254 22.7385 39.7509C22.6252 38.8834 21.8564 38.1811 20.8908 38.1811ZM33.7721 38.1811C32.8065 38.1811 32.0377 38.8834 31.9244 39.7509C31.9147 39.8253 31.9096 39.9016 31.9096 39.9794C31.9096 40.9514 32.722 41.7778 33.7721 41.7778C34.8223 41.7778 35.6347 40.9514 35.6347 39.9794C35.6347 39.4687 35.415 39.0047 35.0517 38.6728C34.7193 38.3691 34.2711 38.1811 33.7721 38.1811Z"/>
</svg>
