<svg width="48" height="48" viewBox="0 0 48 48" xmlns="http://www.w3.org/2000/svg">
<path fill-rule="evenodd" clip-rule="evenodd" d="M17.0368 6.75501C17.316 6.4876 17.9965 6.32871 19.0795 6.58233C20.1004 6.82143 21.1058 7.35227 21.6687 7.8914C21.8528 8.06768 22.0437 8.398 22.201 8.9083C22.3536 9.40309 22.4487 9.98099 22.5041 10.5623C22.5694 11.2464 22.5762 11.8779 22.5706 12.3381C22.257 12.3708 21.8395 12.3819 21.3703 12.3471C20.2041 12.2605 18.9751 11.9115 18.2232 11.1915C17.3446 10.3499 16.8225 9.38811 16.6518 8.55041C16.4795 7.70564 16.6749 7.10162 17.0368 6.75501ZM23.1131 6.508C22.2438 5.67539 20.8862 4.99138 19.5646 4.68189C18.3051 4.38693 16.6635 4.34572 15.5924 5.37161C14.604 6.3183 14.3898 7.66375 14.647 8.92535C14.8928 10.1312 15.5792 11.3666 16.6142 12.4128L7.49887 12.4163C6.3946 12.4167 5.49963 13.312 5.49963 14.4163V20.1723C5.49963 21.2768 6.39506 22.1723 7.49963 22.1723H9.18391V41.5002C9.18391 42.6047 10.0793 43.5002 11.1839 43.5002H36.8159C37.9205 43.5002 38.8159 42.6047 38.8159 41.5002V22.1723H40.5002C41.6048 22.1723 42.5002 21.2768 42.5002 20.1723V14.4037C42.5002 13.2988 41.6043 12.4033 40.4995 12.4037L31.4055 12.4072C32.4374 11.3622 33.1217 10.129 33.3671 8.92535C33.6243 7.66375 33.4101 6.3183 32.4217 5.37161C31.3506 4.34572 29.709 4.38693 28.4495 4.68189C27.1279 4.99138 25.7703 5.67539 24.901 6.508C24.4884 6.9032 24.206 7.40681 24.007 7.91464C23.8081 7.40681 23.5257 6.9032 23.1131 6.508ZM22.9996 14.4104L7.49963 14.4163L7.49963 20.1723H10.1839H22.9996V14.4104ZM24.9996 20.1723V14.4096L40.5002 14.4037V20.1723L37.8159 20.1723H24.9996ZM22.9996 22.1723H11.1839V41.5002H22.9996V22.1723ZM24.9996 41.5002V22.1723H36.8159V41.5002H24.9996ZM28.9346 6.58233C30.0176 6.32871 30.6981 6.4876 30.9773 6.75501C31.3392 7.10162 31.5345 7.70564 31.3623 8.55041C31.1915 9.38811 30.6695 10.3499 29.7908 11.1915C29.039 11.9115 27.81 12.2605 26.6438 12.3471C26.1746 12.3819 25.7571 12.3708 25.4435 12.3381C25.4379 11.8779 25.4447 11.2464 25.5099 10.5623C25.5654 9.98099 25.6605 9.40309 25.8131 8.9083C25.9704 8.398 26.1613 8.06768 26.3453 7.8914C26.9082 7.35227 27.9136 6.82143 28.9346 6.58233Z"/>
</svg>
