<svg width="49" height="48" viewBox="0 0 49 48" xmlns="http://www.w3.org/2000/svg">
<path fill-rule="evenodd" clip-rule="evenodd" d="M26.969 6.0165C23.173 6.25902 19.3759 8.08943 16.202 11.226C13.0281 14.3626 11.1759 18.1151 10.9305 21.8666C10.6864 25.5976 12.0239 29.4188 15.4016 32.7568C18.7794 36.0949 22.646 37.4166 26.4214 37.1754C30.2174 36.9329 34.0146 35.1025 37.1885 31.9659C40.3624 28.8293 42.2146 25.0768 42.46 21.3254C42.704 17.5943 41.3666 13.7732 37.9888 10.4351C34.6111 7.09705 30.7444 5.7753 26.969 6.0165ZM26.8392 4.0325C31.226 3.75224 35.649 5.31112 39.4114 9.02927C43.1737 12.7474 44.7512 17.1185 44.4676 21.4536C44.1853 25.7684 42.0673 29.9562 38.611 33.3717C35.1548 36.7873 30.9173 38.8805 26.5512 39.1594C23.2059 39.3732 19.8395 38.5173 16.7611 36.45L9.71233 43.417C8.92673 44.1935 7.65303 44.1935 6.86743 43.417L5.08932 41.6595C4.30372 40.8831 4.30372 39.6241 5.08932 38.8477L12.0568 31.9611C9.68112 28.7728 8.69356 25.2438 8.92289 21.7383C9.20515 17.4235 11.3232 13.2358 14.7794 9.82019C18.2356 6.4046 22.4731 4.31144 26.8392 4.0325ZM13.9791 34.1627C14.3623 34.5414 14.7524 34.8977 15.1486 35.232L8.28988 42.0111L6.51177 40.2536L13.3411 33.5035C13.5463 33.7254 13.759 33.9451 13.9791 34.1627ZM28.4562 25.6148C28.4562 23.9801 29.8342 22.6002 31.6026 22.6002C33.3709 22.6002 34.7489 23.9801 34.7489 25.6148C34.7489 27.2495 33.3709 28.6294 31.6026 28.6294C29.8342 28.6294 28.4562 27.2495 28.4562 25.6148ZM31.6026 20.6002C28.791 20.6002 26.4562 22.8151 26.4562 25.6148C26.4562 28.4145 28.791 30.6294 31.6026 30.6294C34.4141 30.6294 36.7489 28.4145 36.7489 25.6148C36.7489 22.8151 34.4141 20.6002 31.6026 20.6002Z"/>
</svg>
