<svg width="49" height="48" viewBox="0 0 49 48" xmlns="http://www.w3.org/2000/svg">
<path fill-rule="evenodd" clip-rule="evenodd" d="M5.99976 6.00037C5.99976 4.8958 6.89519 4.00037 7.99976 4.00037H37.8188C38.9234 4.00037 39.8188 4.8958 39.8188 6.00037V9.42944L41.0003 9.42944C42.1049 9.42944 43.0003 10.3249 43.0003 11.4294V20.2862C43.0003 21.3908 42.1048 22.2862 41.0003 22.2862L23.9088 22.2862V26.8003H24.03C25.1346 26.8003 26.03 27.6957 26.03 28.8003V41.9998C26.03 43.1044 25.1346 43.9998 24.03 43.9998H21.7874C20.6829 43.9998 19.7874 43.1044 19.7874 41.9998V28.8003C19.7874 27.6957 20.6829 26.8003 21.7874 26.8003H21.9088V22.2862C21.9088 21.1817 22.8043 20.2862 23.9088 20.2862H41.0003V11.4294L39.8188 11.4294V14.8571C39.8188 15.9617 38.9234 16.8571 37.8188 16.8571H7.99976C6.89519 16.8571 5.99976 15.9617 5.99976 14.8571V6.00037ZM37.8188 6.00037L7.99976 6.00037V14.8571H37.8188V6.00037ZM24.03 28.8003H21.7874V41.9998H24.03V28.8003Z"/>
</svg>
