<svg width="48" height="48" viewBox="0 0 48 48" xmlns="http://www.w3.org/2000/svg">
<path fill-rule="evenodd" clip-rule="evenodd" d="M42.6702 10.8636C43.2084 10.7394 43.544 10.2025 43.4198 9.66436C43.2956 9.12621 42.7587 8.79064 42.2205 8.91482L39.0454 9.64755L39.5462 6.14155C39.6243 5.59481 39.2444 5.08828 38.6977 5.01018C38.151 4.93207 37.6444 5.31197 37.5663 5.85871L37.1047 9.09008C32.3965 5.41161 25.5752 5.73864 21.2426 10.0712L8.51472 22.7991C3.82843 27.4854 3.82843 35.0834 8.51472 39.7697C13.201 44.456 20.799 44.456 25.4853 39.7697L38.2132 27.0418C42.4202 22.8348 42.8505 16.2812 39.5041 11.5943L42.6702 10.8636ZM36.799 11.4854C32.8937 7.58017 26.5621 7.58017 22.6569 11.4854L14.7156 19.4267C18.4395 18.7518 22.4887 19.922 25.4272 22.8605C28.3636 25.7969 29.5343 29.8423 28.8626 33.564L36.799 25.6275C40.7042 21.7223 40.7042 15.3907 36.799 11.4854ZM9.92893 24.2133L10.2227 23.9195L10.227 23.9238C10.8063 23.3445 11.4473 22.8588 12.1316 22.4669C12.8629 23.5107 12.7624 24.9598 11.8301 25.8921C10.8946 26.8275 9.43889 26.9256 8.39438 26.1862C8.81207 25.4823 9.32358 24.8187 9.92893 24.2133ZM7.54582 28.0188C6.33902 31.521 7.13339 35.5599 9.92893 38.3555C12.0124 40.439 14.7866 41.4109 17.5144 41.2712C16.9567 39.2657 17.7971 37.0609 19.6833 35.9719C21.5942 34.8686 23.9601 35.2675 25.4138 36.802C27.9793 33.0882 27.5276 27.7894 24.013 24.2747C21.2322 21.494 17.3345 20.6306 13.9886 21.662C15.0223 23.4502 14.7741 25.7764 13.2443 27.3063C11.6989 28.8517 9.34097 29.0892 7.54582 28.0188ZM24.0711 38.3555C22.7641 39.6625 21.1853 40.532 19.5167 40.9642C19.0615 39.7598 19.532 38.3687 20.6833 37.7039C21.8374 37.0377 23.2814 37.3287 24.0959 38.3307L24.0711 38.3555ZM18 29.0425C18 27.9144 18.9144 27 20.0425 27C21.1705 27 22.0849 27.9144 22.0849 29.0425C22.0849 30.1705 21.1705 31.0849 20.0425 31.0849C18.9144 31.0849 18 30.1705 18 29.0425ZM20.0425 25C17.8099 25 16 26.8099 16 29.0425C16 31.2751 17.8099 33.0849 20.0425 33.0849C22.2751 33.0849 24.0849 31.2751 24.0849 29.0425C24.0849 26.8099 22.2751 25 20.0425 25ZM13 33C12.4477 33 12 33.4477 12 34C12 34.5523 12.4477 35 13 35C13.5523 35 14 34.5523 14 34C14 33.4477 13.5523 33 13 33ZM10 34C10 32.3431 11.3431 31 13 31C14.6569 31 16 32.3431 16 34C16 35.6569 14.6569 37 13 37C11.3431 37 10 35.6569 10 34Z"/>
</svg>
