<svg width="48" height="48" viewBox="0 0 48 48" xmlns="http://www.w3.org/2000/svg">
<path fill-rule="evenodd" clip-rule="evenodd" d="M24 5C24.4332 5 24.8171 5.27894 24.951 5.69095L29.2172 18.8191L43.0211 18.8197C43.4543 18.8197 43.8383 19.0986 43.9721 19.5106C44.106 19.9227 43.9594 20.374 43.6089 20.6287L32.4416 28.7428L36.7067 41.8714C36.8406 42.2834 36.6939 42.7347 36.3434 42.9894C35.993 43.244 35.5184 43.244 35.1679 42.9894L24 34.876L12.832 42.9894C12.4815 43.244 12.0069 43.244 11.6565 42.9894C11.306 42.7347 11.1593 42.2834 11.2932 41.8714L15.5583 28.7428L4.39101 20.6287C4.04055 20.374 3.8939 19.9227 4.02777 19.5106C4.16164 19.0986 4.54558 18.8197 4.97879 18.8197L18.7828 18.8191L23.0489 5.69095C23.1828 5.27894 23.5667 5 24 5ZM24 9.23569L20.4603 20.1282C20.3264 20.5402 19.9425 20.8191 19.5093 20.8191L8.05615 20.8195L17.3217 27.5519C17.6722 27.8065 17.8188 28.2579 17.685 28.6699L14.1461 39.5626L23.4122 32.831C23.7627 32.5763 24.2372 32.5763 24.5877 32.831L33.8538 39.5626L30.315 28.6699C30.1811 28.2579 30.3278 27.8065 30.6782 27.5519L39.9438 20.8195L28.4906 20.8191C28.0574 20.8191 27.6735 20.5402 27.5396 20.1282L24 9.23569Z"/>
</svg>
