<svg width="48" height="48" viewBox="0 0 48 48" xmlns="http://www.w3.org/2000/svg">
<path fill-rule="evenodd" clip-rule="evenodd" d="M25.2065 9.89139C26.1129 8.70978 26.0901 7.67012 25.8805 6.91868C25.7708 6.52524 25.6043 6.19839 25.4641 5.9699C25.3947 5.85681 25.3338 5.77121 25.2933 5.71734C25.2731 5.69051 25.2582 5.67185 25.25 5.66192L25.2435 5.65405C24.8843 5.23869 24.9272 4.6106 25.3408 4.24804C25.7561 3.88398 26.3879 3.92552 26.752 4.34082L26 5.00001C26.752 4.34082 26.7523 4.34122 26.7527 4.34163L26.7534 4.3425L26.7551 4.34443L26.7591 4.34904L26.7695 4.3612C26.7775 4.37061 26.7875 4.38263 26.7994 4.39719C26.8231 4.42629 26.8544 4.46564 26.8913 4.51472C26.965 4.61267 27.0623 4.75051 27.1687 4.92387C27.3801 5.2683 27.6355 5.76646 27.807 6.38134C28.1599 7.64658 28.1371 9.35691 26.7935 11.1086C25.8871 12.2902 25.9099 13.3299 26.1195 14.0813C26.2292 14.4748 26.3957 14.8016 26.5359 15.0301C26.6053 15.1432 26.6662 15.2288 26.7067 15.2827C26.7269 15.3095 26.7418 15.3282 26.75 15.3381L26.7565 15.346C27.1157 15.7613 27.0728 16.3894 26.6592 16.752C26.2439 17.116 25.6121 17.0745 25.248 16.6592L26 16C25.248 16.6592 25.2477 16.6588 25.2473 16.6584L25.2466 16.6575L25.2449 16.6556L25.2409 16.651L25.2305 16.6388C25.2225 16.6294 25.2125 16.6174 25.2006 16.6028C25.1769 16.5737 25.1456 16.5344 25.1087 16.4853C25.035 16.3874 24.9377 16.2495 24.8313 16.0762C24.6199 15.7317 24.3645 15.2336 24.193 14.6187C23.8401 13.3534 23.8629 11.6431 25.2065 9.89139ZM13.2065 9.89141C14.1129 8.70979 14.0901 7.67013 13.8805 6.9187C13.7708 6.52525 13.6043 6.1984 13.4641 5.96992C13.3947 5.85682 13.3338 5.77122 13.2933 5.71736C13.2731 5.69052 13.2582 5.67187 13.25 5.66193L13.2435 5.65407C12.8843 5.23871 12.9272 4.61061 13.3408 4.24805C13.7561 3.88399 14.3879 3.92553 14.752 4.34083L14 5.00003C14.752 4.34083 14.7523 4.34123 14.7527 4.34164L14.7534 4.34252L14.7551 4.34445L14.7591 4.34906L14.7695 4.36122C14.7775 4.37063 14.7875 4.38264 14.7994 4.3972C14.8231 4.4263 14.8544 4.46565 14.8913 4.51473C14.965 4.61269 15.0623 4.75052 15.1687 4.92389C15.3801 5.26832 15.6355 5.76647 15.807 6.38136C16.1599 7.64659 16.1371 9.35693 14.7935 11.1086C13.8871 12.2903 13.9099 13.3299 14.1195 14.0814C14.2292 14.4748 14.3957 14.8016 14.5359 15.0301C14.6053 15.1432 14.6662 15.2288 14.7067 15.2827C14.7269 15.3095 14.7418 15.3282 14.75 15.3381L14.7565 15.346C15.1157 15.7613 15.0728 16.3894 14.6592 16.752C14.2439 17.1161 13.6121 17.0745 13.248 16.6592L14 16C13.248 16.6592 13.2477 16.6588 13.2473 16.6584L13.2466 16.6575L13.2449 16.6556L13.2409 16.651L13.2305 16.6388C13.2225 16.6294 13.2125 16.6174 13.2006 16.6029C13.1769 16.5738 13.1456 16.5344 13.1087 16.4853C13.035 16.3874 12.9377 16.2495 12.8313 16.0762C12.6199 15.7317 12.3645 15.2336 12.193 14.6187C11.8401 13.3535 11.8629 11.6431 13.2065 9.89141ZM2.86908 21.5591C3.38646 20.8687 4.14729 20.5287 5.11096 20.5287H34.7154C35.6791 20.5287 36.4399 20.8687 36.9573 21.5591C37.4967 22.279 37.7197 23.1062 37.795 23.9088L38.0322 23.7719C40.5866 22.297 43.853 23.1723 45.3278 25.7267C45.8927 26.7052 46.1729 27.6631 46.176 28.6077C46.179 29.5521 45.9049 30.412 45.4708 31.194C44.629 32.7105 43.1202 34.0349 41.6402 35.2682C39.9956 36.6387 37.7864 37.5642 36.0572 38.142C35.1805 38.435 34.4018 38.6467 33.8411 38.7856C33.6222 38.8398 33.4358 38.8831 33.2893 38.9158C30.6864 42.1051 26.9244 44.0351 21.9359 44.0351H17.8905C12.8818 44.0351 9.10645 42.0893 6.50022 38.8704C3.92331 35.6877 2.54732 31.3363 2.12292 26.578C2.11625 26.5032 2.10921 26.4265 2.10202 26.3481L2.10199 26.3478L2.10199 26.3478C2.04148 25.688 1.97009 24.9095 2.01315 24.158C2.06215 23.3027 2.26197 22.3693 2.86908 21.5591ZM34.976 36.3901C35.1215 36.3444 35.2708 36.2961 35.4233 36.2451C37.0788 35.6919 39.0044 34.8613 40.3598 33.7318C41.8798 32.4651 43.0894 31.3632 43.7222 30.2233C44.0254 29.677 44.1777 29.1511 44.176 28.6142C44.1742 28.0775 44.0184 27.4587 43.5958 26.7267C42.6733 25.1288 40.6301 24.5814 39.0322 25.5039L37.7329 26.254L37.7237 26.3551L37.7035 26.578C37.3808 30.1963 36.508 33.5782 34.976 36.3901ZM4.655 22.6036C4.58511 22.6356 4.52808 22.6804 4.46959 22.7585C4.18799 23.1343 4.0468 23.628 4.00987 24.2724C3.97588 24.8656 4.03257 25.4904 4.09446 26.1725L4.11501 26.4003C4.51807 30.9193 5.81102 34.8409 8.0546 37.6119C10.2689 40.3466 13.4655 42.0351 17.8905 42.0351H21.9359C26.4709 42.0351 29.7189 40.2615 31.9405 37.399C34.0807 34.6414 35.3187 30.8036 35.7114 26.4003C35.7186 26.3194 35.7259 26.2397 35.7331 26.1607C35.7512 25.9625 35.7688 25.7688 35.7843 25.5709C35.8826 24.3122 35.8306 23.3907 35.3568 22.7585C35.2983 22.6804 35.2413 22.6356 35.1714 22.6036C35.0948 22.5685 34.9574 22.5287 34.7154 22.5287H5.11096C4.86898 22.5287 4.73158 22.5685 4.655 22.6036ZM8.7921 25.0016C9.34347 24.97 9.81612 25.3913 9.84779 25.9427L9.94871 27.6997C10.0679 29.7756 10.7731 31.7752 11.9824 33.4666L12.6629 34.4184C12.9841 34.8677 12.8803 35.4923 12.431 35.8135C11.9818 36.1347 11.3572 36.0309 11.036 35.5816L10.3555 34.6298C8.92627 32.6309 8.09291 30.2677 7.952 27.8144L7.85108 26.0573C7.81942 25.506 8.24072 25.0333 8.7921 25.0016ZM19.8805 6.9187C20.0901 7.67013 20.1129 8.70979 19.2065 9.89141C17.8629 11.6431 17.8401 13.3535 18.193 14.6187C18.3645 15.2336 18.6199 15.7317 18.8313 16.0762C18.9377 16.2495 19.035 16.3874 19.1087 16.4853C19.1456 16.5344 19.1769 16.5738 19.2006 16.6029C19.2077 16.6116 19.2142 16.6194 19.22 16.6263C19.2238 16.6309 19.2273 16.6351 19.2305 16.6388L19.2409 16.651L19.2449 16.6556L19.2466 16.6575L19.2473 16.6584C19.2477 16.6588 19.248 16.6592 20 16L19.248 16.6592C19.6121 17.0745 20.2439 17.1161 20.6592 16.752C21.0728 16.3894 21.1157 15.7613 20.7565 15.346L20.75 15.3381C20.7418 15.3282 20.7269 15.3095 20.7067 15.2827C20.6662 15.2288 20.6053 15.1432 20.5359 15.0301C20.3957 14.8016 20.2292 14.4748 20.1195 14.0814C19.9099 13.3299 19.8871 12.2903 20.7935 11.1086C22.1371 9.35693 22.1599 7.64659 21.807 6.38136C21.6355 5.76647 21.3801 5.26832 21.1687 4.92389C21.0623 4.75052 20.965 4.61269 20.8913 4.51473C20.8544 4.46565 20.8231 4.4263 20.7994 4.3972C20.7875 4.38264 20.7775 4.37063 20.7695 4.36122L20.7591 4.34906L20.7551 4.34445L20.7534 4.34252L20.7527 4.34164C20.7523 4.34123 20.752 4.34083 20 5.00003L20.752 4.34083C20.3879 3.92553 19.7561 3.88399 19.3408 4.24805C18.9272 4.61061 18.8843 5.23871 19.2435 5.65407L19.25 5.66193C19.2582 5.67187 19.2731 5.69052 19.2933 5.71736C19.3338 5.77122 19.3947 5.85682 19.4641 5.96992C19.6043 6.1984 19.7708 6.52525 19.8805 6.9187Z"/>
</svg>
