<svg width="48" height="48" viewBox="0 0 48 48" xmlns="http://www.w3.org/2000/svg">
<path fill-rule="evenodd" clip-rule="evenodd" d="M7.00012 7.00134C7.00012 5.34449 8.34327 4.00134 10.0001 4.00134H37.9998C39.6566 4.00134 40.9998 5.34449 40.9998 7.00134V40.9986C40.9998 42.6555 39.6566 43.9986 37.9998 43.9986H10.0001C8.34327 43.9986 7.00012 42.6555 7.00012 40.9986V7.00134ZM10.0001 6.00134C9.44784 6.00134 9.00012 6.44906 9.00012 7.00134V40.9986C9.00012 41.5509 9.44784 41.9986 10.0001 41.9986H37.9998C38.5521 41.9986 38.9998 41.5509 38.9998 40.9986V7.00134C38.9998 6.44906 38.5521 6.00134 37.9998 6.00134H10.0001ZM24.0001 18.3577C19.0516 18.3577 15.0002 22.4711 15.0002 27.595C15.0002 32.7189 19.0516 36.8324 24.0001 36.8324C26.4022 36.8324 28.593 35.8631 30.2115 34.2794C29.458 33.875 28.8217 33.2339 28.3334 32.484C27.4894 31.1877 27 29.4564 27 27.595C27 25.7336 27.4894 24.0023 28.3334 22.706C28.8216 21.9561 29.458 21.315 30.2115 20.9106C28.5929 19.3269 26.4022 18.3577 24.0001 18.3577ZM31.5239 22.5231C31.0068 22.6761 30.4744 23.0832 30.0094 23.7973C29.406 24.7241 29 26.064 29 27.595C29 29.126 29.406 30.4658 30.0094 31.3927C30.4744 32.1068 31.0069 32.5139 31.524 32.6669C32.4563 31.2136 33 29.4721 33 27.595C33 25.7179 32.4563 23.9764 31.5239 22.5231ZM13.0002 27.595C13.0002 21.4111 17.903 16.3577 24.0001 16.3577C30.0972 16.3577 35 21.4111 35 27.595C35 33.779 30.0972 38.8324 24.0001 38.8324C17.903 38.8324 13.0002 33.779 13.0002 27.595ZM25.0001 9.16748C24.4478 9.16748 24.0001 9.6152 24.0001 10.1675C24.0001 10.7198 24.4478 11.1675 25.0001 11.1675H28.9991C29.5513 11.1675 29.9991 10.7198 29.9991 10.1675C29.9991 9.6152 29.5513 9.16748 28.9991 9.16748H25.0001ZM32 10.1675C32 9.6152 32.4477 9.16748 33 9.16748H34.9993C35.5516 9.16748 35.9993 9.6152 35.9993 10.1675C35.9993 10.7198 35.5516 11.1675 34.9993 11.1675H33C32.4477 11.1675 32 10.7198 32 10.1675Z"/>
</svg>
