<svg width="48" height="48" viewBox="0 0 48 48" xmlns="http://www.w3.org/2000/svg">
<path fill-rule="evenodd" clip-rule="evenodd" d="M24 6.00024C14.059 6.00024 6.00024 14.059 6.00024 24C6.00024 33.941 14.059 41.9998 24 41.9998C33.941 41.9998 41.9998 33.941 41.9998 24C41.9998 14.059 33.941 6.00024 24 6.00024ZM4.00024 24C4.00024 12.9545 12.9545 4.00024 24 4.00024C35.0456 4.00024 43.9998 12.9545 43.9998 24C43.9998 35.0456 35.0456 43.9998 24 43.9998C12.9545 43.9998 4.00024 35.0456 4.00024 24ZM10.735 19.3987C11.2632 19.16 11.8893 18.9026 12.6122 18.6459C15.1959 17.7287 19.0107 16.8236 24 16.8236C28.9894 16.8236 32.8042 17.7287 35.3879 18.6459C36.1108 18.9026 36.7369 19.16 37.2651 19.3987C35.3567 13.9284 30.1388 10.0002 24 10.0002C17.8612 10.0002 12.6434 13.9284 10.735 19.3987ZM38.2364 22.174L38.2333 22.1719C38.2273 22.1679 38.2165 22.1607 38.2008 22.1504C38.1695 22.1299 38.1187 22.0973 38.0485 22.0544C37.9081 21.9686 37.6904 21.8413 37.3961 21.6862C36.8075 21.376 35.9129 20.9546 34.7187 20.5307C32.3318 19.6833 28.743 18.8236 24 18.8236C19.2571 18.8236 15.6682 19.6833 13.2813 20.5307C12.0872 20.9546 11.1926 21.376 10.604 21.6862C10.3097 21.8413 10.0919 21.9686 9.95157 22.0544C9.8814 22.0973 9.83058 22.1299 9.79922 22.1504C9.78354 22.1607 9.77273 22.1679 9.7668 22.1719L9.76366 22.174C9.76344 22.1741 9.76322 22.1743 9.76299 22.1744C9.76281 22.1746 9.76263 22.1747 9.76245 22.1748C9.76221 22.175 9.76197 22.1752 9.76173 22.1753C9.43007 22.4048 8.99287 22.4127 8.65316 22.195C8.31278 21.9768 8.13722 21.5752 8.20828 21.1772C9.54591 13.685 16.1079 8.0002 24 8.0002C31.8922 8.0002 38.4541 13.685 39.7918 21.1772C39.8628 21.5752 39.6873 21.9768 39.3469 22.1949C39.0072 22.4126 38.57 22.4048 38.2384 22.1753C38.2381 22.1752 38.2379 22.175 38.2376 22.1748L38.2371 22.1744C38.2368 22.1743 38.2366 22.1741 38.2364 22.174ZM24 24C22.8955 24 22.0001 24.8955 22.0001 26C22.0001 27.1046 22.8955 28 24 28C25.1046 28 26 27.1046 26 26C26 24.8955 25.1046 24 24 24ZM20.0001 26C20.0001 23.7909 21.7909 22 24 22C26.2091 22 28 23.7909 28 26C28 28.2091 26.2091 30 24 30C21.7909 30 20.0001 28.2091 20.0001 26ZM13.3494 24.4623C14.1019 25.0419 14.7664 25.9101 15.2874 27.1391C16.353 29.6529 15.8947 31.552 15.0465 32.8261C14.64 33.4367 14.1659 33.8725 13.7964 34.1552C13.6104 34.2976 13.4471 34.4042 13.3258 34.4774C13.265 34.5141 13.2143 34.5427 13.1762 34.5634C13.1571 34.5738 13.1411 34.5822 13.1285 34.5888L13.1122 34.5971L13.106 34.6002L13.1034 34.6015L13.1022 34.6021C13.1016 34.6024 13.1011 34.6027 12.6588 33.7058L13.1011 34.6027C12.6916 34.8046 12.1972 34.7035 11.8999 34.357C9.67075 31.7591 8.2419 28.469 8.0025 24.9502C7.97522 24.5492 8.19074 24.1708 8.54961 23.9896L9.0002 24.8824C8.54961 23.9896 8.55016 23.9894 8.55072 23.9891L8.55191 23.9885L8.55455 23.9872L8.56083 23.984L8.57738 23.976C8.59017 23.9699 8.60647 23.9622 8.6261 23.9533C8.66535 23.9354 8.71815 23.9125 8.78322 23.8865C8.91298 23.8347 9.09373 23.77 9.31476 23.7102C9.75267 23.5918 10.374 23.486 11.0812 23.5564C11.7982 23.6278 12.5933 23.88 13.3494 24.4623ZM12.8455 32.344C11.3657 30.3843 10.3836 28.0565 10.0727 25.5867C10.3093 25.5418 10.5878 25.5172 10.8831 25.5466C11.274 25.5855 11.7036 25.7193 12.1291 26.0469C12.558 26.3773 13.0319 26.9429 13.446 27.9197C14.2506 29.8177 13.855 31.0067 13.3816 31.7179C13.2138 31.97 13.0246 32.1781 12.8455 32.344ZM35.8651 26.0465C35.4375 26.3763 34.9656 26.941 34.5551 27.917C33.7567 29.8159 34.152 31.0067 34.6248 31.719C34.7912 31.9696 34.9785 32.1768 35.156 32.3422C36.6348 30.383 37.6164 28.056 37.9273 25.5873C37.689 25.542 37.4084 25.517 37.1112 25.5466C36.7191 25.5856 36.2894 25.7194 35.8651 26.0465ZM38.9999 24.8824L39.4489 23.9889C39.8086 24.1697 40.0249 24.5486 39.9975 24.9502C39.7581 28.469 38.3293 31.7591 36.1002 34.357C35.8024 34.704 35.3072 34.8049 34.8975 34.6019L35.3413 33.7058C34.8975 34.6019 34.8969 34.6017 34.8964 34.6014L34.8952 34.6008L34.8926 34.5995L34.8864 34.5964L34.87 34.588C34.864 34.5848 34.8572 34.5813 34.8497 34.5773C34.8415 34.5729 34.8324 34.568 34.8225 34.5626C34.7845 34.5418 34.734 34.5132 34.6734 34.4765C34.5525 34.4032 34.3896 34.2965 34.2043 34.1541C33.836 33.8712 33.3636 33.4354 32.9584 32.825C32.1135 31.552 31.6548 29.6547 32.7115 27.1418C33.2287 25.9119 33.8914 25.0429 34.6439 24.4627C35.3998 23.8799 36.1958 23.6277 36.9134 23.5564C37.6213 23.486 38.2437 23.5918 38.6824 23.71C38.9038 23.7697 39.085 23.8343 39.215 23.886C39.2802 23.9119 39.3331 23.9348 39.3724 23.9526C39.3921 23.9615 39.4084 23.9692 39.4212 23.9753L39.4377 23.9833L39.444 23.9864L39.4466 23.9877L39.4478 23.9883C39.4484 23.9886 39.4489 23.9889 38.9999 24.8824ZM17.5122 36.3594C19.449 37.4019 21.653 37.9999 24 37.9999C26.3471 37.9999 28.551 37.4019 30.4879 36.3594C30.2896 36.1552 30.0354 35.9263 29.7168 35.6952C28.6764 34.9406 26.8926 34.121 24 34.121C21.1075 34.121 19.3237 34.9406 18.2833 35.6952C17.9646 35.9263 17.7104 36.1552 17.5122 36.3594ZM31.9628 36.6504C32.8567 36.2022 32.8564 36.2015 32.8561 36.2009L32.8554 36.1996L32.8539 36.1966L32.8504 36.1897L32.8412 36.1722C32.8341 36.1588 32.8251 36.142 32.8139 36.1222C32.7917 36.0826 32.7613 36.0304 32.722 35.9677C32.6433 35.8422 32.5288 35.6738 32.3727 35.4771C32.0605 35.0838 31.5814 34.5769 30.891 34.0762C29.4983 33.066 27.3007 32.121 24 32.121C20.6993 32.121 18.5017 33.066 17.1091 34.0762C16.4187 34.5769 15.9396 35.0838 15.6273 35.4771C15.4712 35.6738 15.3567 35.8422 15.2781 35.9677C15.2387 36.0304 15.2083 36.0826 15.1861 36.1222C15.175 36.142 15.1659 36.1588 15.1589 36.1722L15.1497 36.1897L15.1462 36.1966L15.1447 36.1996L15.144 36.2009C15.1437 36.2015 15.1433 36.2022 16.0373 36.6504L15.1433 36.2022C14.9142 36.6593 15.0668 37.2156 15.4971 37.4919C17.9514 39.0675 20.8631 39.9999 24 39.9999C27.1369 39.9999 30.0486 39.0675 32.503 37.4919C32.9333 37.2156 33.0859 36.6593 32.8567 36.2022L31.9628 36.6504Z"/>
</svg>
