<svg width="48" height="48" viewBox="0 0 48 48" xmlns="http://www.w3.org/2000/svg">
<path fill-rule="evenodd" clip-rule="evenodd" d="M28.4834 6.45562C30.4159 4.52314 33.5237 4.51853 35.4249 6.41976C36.2405 7.23534 36.704 8.2686 36.8173 9.33813L36.9024 10.1422L37.7064 10.2273C38.776 10.3405 39.8092 10.8041 40.6248 11.6197C42.526 13.5209 42.5214 16.6287 40.5889 18.5611C38.6565 20.4936 35.5487 20.4982 33.6475 18.597C33.2569 18.2065 32.6238 18.2065 32.2333 18.597L18.597 32.2333L17.8899 32.9404L18.597 33.6475C20.4982 35.5487 20.4936 38.6565 18.5611 40.589C16.6287 42.5214 13.5209 42.526 11.6196 40.6248C10.8041 39.8092 10.3405 38.776 10.2273 37.7064L10.1422 36.9024L9.33813 36.8173C8.2686 36.704 7.23534 36.2405 6.41976 35.4249C4.51853 33.5237 4.52314 30.4159 6.45562 28.4834C8.38809 26.551 11.4959 26.5464 13.3971 28.4476L14.1042 29.1547L14.8113 28.4476L28.4476 14.8113C28.8381 14.4208 28.8381 13.7876 28.4476 13.3971C26.5464 11.4959 26.551 8.38809 28.4834 6.45562ZM36.8391 5.00554C34.1454 2.31185 29.7713 2.33935 27.0692 5.0414C24.6081 7.50248 24.3658 11.3507 26.3776 14.0529L14.0529 26.3776C11.3507 24.3659 7.50248 24.6082 5.0414 27.0692C2.33935 29.7713 2.31185 34.1454 5.00554 36.8391C5.96133 37.7949 7.13168 38.409 8.36304 38.6815C8.63556 39.9129 9.24965 41.0832 10.2054 42.039C12.8991 44.7327 17.2733 44.7052 19.9753 42.0032C22.4364 39.5421 22.6787 35.6939 20.667 32.9917L32.9917 20.667C35.6938 22.6787 39.5421 22.4364 42.0032 19.9753C44.7052 17.2733 44.7327 12.8991 42.039 10.2054C41.0832 9.24965 39.9129 8.63556 38.6815 8.36304C38.409 7.13167 37.7949 5.96133 36.8391 5.00554ZM36.4843 12.0192C35.932 12.0192 35.4843 12.4669 35.4843 13.0192C35.4843 13.5715 35.932 14.0192 36.4843 14.0192C37.012 14.0192 37.4397 14.4469 37.4397 14.9746C37.4397 15.5269 37.8874 15.9746 38.4397 15.9746C38.992 15.9746 39.4397 15.5269 39.4397 14.9746C39.4397 13.3424 38.1165 12.0192 36.4843 12.0192Z"/>
</svg>
