<svg width="24" height="24" viewBox="0 0 24 24" xmlns="http://www.w3.org/2000/svg">
<path fill-rule="evenodd" clip-rule="evenodd" d="M13.8322 5.6263C13.6258 5.44284 13.3098 5.46143 13.1263 5.66782C12.9428 5.87421 12.9614 6.19025 13.1678 6.37371L18.9349 11.5H3.75C3.47386 11.5 3.25 11.7239 3.25 12C3.25 12.2761 3.47386 12.5 3.75 12.5H18.9349L13.1678 17.6263C12.9614 17.8098 12.9428 18.1258 13.1263 18.3322C13.3098 18.5386 13.6258 18.5572 13.8322 18.3737L20.5822 12.3737C20.6889 12.2788 20.75 12.1428 20.75 12C20.75 11.8572 20.6889 11.7212 20.5822 11.6263L13.8322 5.6263Z"/>
</svg>
