<svg width="24" height="24" viewBox="0 0 24 24" xmlns="http://www.w3.org/2000/svg">
<path fill-rule="evenodd" clip-rule="evenodd" d="M4.03386 11.259C4.40773 7.18812 7.83155 4 12 4C16.4183 4 20 7.58172 20 12C20 16.4183 16.4183 20 12 20C9.81065 20 7.82754 19.1212 6.38252 17.696C6.18592 17.502 5.86934 17.5042 5.67543 17.7008C5.48152 17.8974 5.4837 18.214 5.6803 18.4079C7.30484 20.0102 9.53732 21 12 21C16.9706 21 21 16.9706 21 12C21 7.02944 16.9706 3 12 3C7.25877 3 3.37382 6.6662 3.02543 11.3183L1.85355 10.1464C1.65829 9.95118 1.34171 9.95118 1.14645 10.1464C0.951184 10.3417 0.951184 10.6583 1.14645 10.8536L3.14645 12.8536C3.34171 13.0488 3.65829 13.0488 3.85355 12.8536L5.85355 10.8536C6.04882 10.6583 6.04882 10.3417 5.85355 10.1464C5.65829 9.95118 5.34171 9.95118 5.14645 10.1464L4.03386 11.259Z"/>
</svg>
