<svg width="24" height="24" viewBox="0 0 24 24" xmlns="http://www.w3.org/2000/svg">
<path fill-rule="evenodd" clip-rule="evenodd" d="M4.75067 6.99608C4.98982 5.83396 6.01288 5 7.19935 5H13.4277C14.4078 5 15.2976 5.57281 15.7034 6.46506L17.6088 10.655H18.3396H20.0251C21.9581 10.655 23.5251 12.222 23.5251 14.155V15.9737C23.5251 16.2498 23.3013 16.4737 23.0251 16.4737H21.1535C20.9174 17.7968 19.7611 18.8011 18.3701 18.8011C16.9792 18.8011 15.8228 17.7968 15.5867 16.4737H9.51617C9.28008 17.7968 8.12371 18.8011 6.73277 18.8011C5.34182 18.8011 4.18546 17.7968 3.94936 16.4737H2.07776C1.80162 16.4737 1.57776 16.2498 1.57776 15.9737V12.155C1.57776 11.3266 2.24933 10.655 3.07776 10.655H3.9977L4.75067 6.99608ZM22.5251 15.4737H21.1536C20.9175 14.1506 19.7611 13.1462 18.3701 13.1462C16.9792 13.1462 15.8228 14.1506 15.5867 15.4737H9.51619C9.28012 14.1506 8.12374 13.1462 6.73277 13.1462C5.3418 13.1462 4.18542 14.1506 3.94935 15.4737H2.57776V12.155C2.57776 11.8788 2.80162 11.655 3.07776 11.655H18.3396H20.0251C21.4058 11.655 22.5251 12.7743 22.5251 14.155V15.4737ZM7.19935 6C6.48747 6 5.87364 6.50037 5.73014 7.19765L5.01866 10.655H9L9 6H7.19935ZM10 6V10.655H16.5103L14.7931 6.87904C14.5496 6.34369 14.0158 6 13.4277 6H10ZM4.90528 15.9737C4.90528 14.9644 5.72348 14.1462 6.73277 14.1462C7.74206 14.1462 8.56025 14.9644 8.56025 15.9737C8.56025 16.983 7.74206 17.8011 6.73277 17.8011C5.72348 17.8011 4.90528 16.983 4.90528 15.9737ZM18.3701 14.1462C17.3608 14.1462 16.5427 14.9644 16.5427 15.9737C16.5427 16.983 17.3608 17.8011 18.3701 17.8011C19.3794 17.8011 20.1976 16.983 20.1976 15.9737C20.1976 14.9644 19.3794 14.1462 18.3701 14.1462ZM6.7605 16.4986C7.05118 16.4986 7.28682 16.263 7.28682 15.9723C7.28682 15.6816 7.05118 15.446 6.7605 15.446C6.46982 15.446 6.23418 15.6816 6.23418 15.9723C6.23418 16.263 6.46982 16.4986 6.7605 16.4986ZM18.8659 15.9723C18.8659 16.263 18.6303 16.4986 18.3396 16.4986C18.0489 16.4986 17.8133 16.263 17.8133 15.9723C17.8133 15.6816 18.0489 15.446 18.3396 15.446C18.6303 15.446 18.8659 15.6816 18.8659 15.9723Z"/>
</svg>
