<svg width="24" height="24" viewBox="0 0 24 24" xmlns="http://www.w3.org/2000/svg">
<path fill-rule="evenodd" clip-rule="evenodd" d="M3.5 5C2.11929 5 1 6.11929 1 7.5V16.4996C1 17.8803 2.11929 18.9996 3.5 18.9996H20.5011C21.8818 18.9996 23.0011 17.8803 23.0011 16.4996V7.5C23.0011 6.11929 21.8818 5 20.5011 5H3.5ZM2 7.5C2 6.67157 2.67157 6 3.5 6H20.5011C21.3295 6 22.0011 6.67157 22.0011 7.5V16.4996C22.0011 17.328 21.3295 17.9996 20.5011 17.9996H3.5C2.67157 17.9996 2 17.328 2 16.4996V11H22V10H2V9H22V8H2V7.5ZM13 16H4V15H13V16ZM17.2754 14.4786C17.2754 13.9921 17.6538 13.6245 18.088 13.6245C18.5222 13.6245 18.9005 13.9921 18.9005 14.4786C18.9005 14.9652 18.5222 15.3328 18.088 15.3328C17.6538 15.3328 17.2754 14.9652 17.2754 14.4786ZM18.088 12.6245C17.0723 12.6245 16.2754 13.4694 16.2754 14.4786C16.2754 15.4878 17.0723 16.3328 18.088 16.3328C19.1036 16.3328 19.9005 15.4878 19.9005 14.4786C19.9005 13.4694 19.1036 12.6245 18.088 12.6245Z"/>
</svg>
