<svg width="24" height="24" viewBox="0 0 24 24" xmlns="http://www.w3.org/2000/svg">
<path fill-rule="evenodd" clip-rule="evenodd" d="M4 6H20C21.1046 6 22 6.89543 22 8V9V11V12V17C22 18.1046 21.1046 19 20 19H4C2.89543 19 2 18.1046 2 17V12V11V9V8C2 6.89543 2.89543 6 4 6ZM20 7C20.5523 7 21 7.44772 21 8L3 8C3 7.44771 3.44772 7 4 7H20ZM3 10V9H4H20H21V10V11H20H4H3V10ZM3 12H21V17C21 17.5523 20.5523 18 20 18H4C3.44772 18 3 17.5523 3 17V12ZM18.5 14H17.5C16.6716 14 16 14.6716 16 15.5C16 16.3284 16.6716 17 17.5 17H18.5C19.3284 17 20 16.3284 20 15.5C20 14.6716 19.3284 14 18.5 14ZM17 15.5C17 15.2239 17.2239 15 17.5 15H18.5C18.7761 15 19 15.2239 19 15.5C19 15.7761 18.7761 16 18.5 16H17.5C17.2239 16 17 15.7761 17 15.5Z"/>
</svg>
