<svg width="24" height="24" viewBox="0 0 24 24" xmlns="http://www.w3.org/2000/svg">
<path d="M12.3126 7C13.4969 7 14.943 8.18361 16.8467 10.5367L20.78 11.8478C21.0607 11.9414 21.2501 12.2041 21.2501 12.5V15.25C21.2501 15.6297 20.9423 15.9375 20.5626 15.9375H18.5001C18.4612 15.9375 18.4231 15.9343 18.386 15.9281C18.1061 16.7337 17.3395 17.3125 16.4376 17.3125C15.5357 17.3125 14.7691 16.7337 14.4889 15.9272C14.4526 15.9342 14.4142 15.9375 14.3751 15.9375H8.8751C8.83622 15.9375 8.79809 15.9343 8.76097 15.9281C8.48113 16.7337 7.71447 17.3125 6.8126 17.3125C5.91074 17.3125 5.14408 16.7337 4.86386 15.9272C4.82758 15.9342 4.78923 15.9375 4.7501 15.9375H3.3751C3.1147 15.9375 2.87664 15.7904 2.76019 15.5575L2.07269 14.1825C1.94035 13.9178 1.99222 13.5981 2.20147 13.3889L2.6876 12.9027V11.8125C2.6876 11.4848 2.91892 11.2026 3.24027 11.1384L4.41794 10.9022L2.33389 9.65203C2.0083 9.45667 1.90273 9.03437 2.09808 8.70878C2.29343 8.3832 2.71573 8.27762 3.04132 8.47297L6.345 10.4554L6.41073 10.3026C7.35605 8.13237 8.35524 7 9.5626 7H12.3126ZM6.8126 14.5625C6.43291 14.5625 6.1251 14.8703 6.1251 15.25C6.1251 15.6297 6.43291 15.9375 6.8126 15.9375C7.1923 15.9375 7.5001 15.6297 7.5001 15.25C7.5001 14.8703 7.1923 14.5625 6.8126 14.5625ZM16.4376 14.5625C16.0579 14.5625 15.7501 14.8703 15.7501 15.25C15.7501 15.6297 16.0579 15.9375 16.4376 15.9375C16.8173 15.9375 17.1251 15.6297 17.1251 15.25C17.1251 14.8703 16.8173 14.5625 16.4376 14.5625ZM12.3126 8.375H9.5626C9.03774 8.375 8.26838 9.3367 7.45093 11.3803C7.36465 11.596 7.17525 11.7536 6.94743 11.7991L4.0626 12.3761V13.1875C4.0626 13.3698 3.99017 13.5447 3.86124 13.6736L3.52413 14.0107L3.8 14.5625H4.7501C4.78923 14.5625 4.82758 14.5658 4.86492 14.572C5.14408 13.7663 5.91074 13.1875 6.8126 13.1875C7.71447 13.1875 8.48113 13.7663 8.76135 14.5728C8.79809 14.5657 8.83622 14.5625 8.8751 14.5625H14.3751C14.4142 14.5625 14.4526 14.5658 14.4899 14.572C14.7691 13.7663 15.5357 13.1875 16.4376 13.1875C17.3395 13.1875 18.1061 13.7663 18.3863 14.5728C18.4231 14.5657 18.4612 14.5625 18.5001 14.5625H19.8751V12.9955L16.2202 11.7772C16.0945 11.7353 15.9835 11.658 15.9008 11.5545C14.201 9.42978 12.9353 8.375 12.3126 8.375Z"/>
</svg>
