<svg width="24" height="24" viewBox="0 0 24 24" xmlns="http://www.w3.org/2000/svg">
<path fill-rule="evenodd" clip-rule="evenodd" d="M9.95656 3.12003C10.1664 3.29951 10.191 3.61514 10.0116 3.82499L5.58556 9.00001H18.4144L13.9884 3.82499C13.809 3.61514 13.8336 3.29951 14.0434 3.12003C14.2533 2.94054 14.5689 2.96517 14.7484 3.17503L19.7303 9.00001H21.5C21.7761 9.00001 22 9.22387 22 9.50001V12.5C22 12.5409 21.995 12.5816 21.9851 12.6213L20.5532 18.3489C20.1636 19.907 18.7637 21 17.1577 21H6.84233C5.23629 21 3.83635 19.907 3.44683 18.3489L2.01493 12.6213C2.00501 12.5816 2 12.5409 2 12.5V9.50001C2 9.22387 2.22386 9.00001 2.5 9.00001H4.2697L9.2516 3.17503C9.43108 2.96517 9.74671 2.94054 9.95656 3.12003ZM4.50282 10H4.49671H3V12H21V10H19.5033H19.4972H4.50282ZM20.8596 13H3.14039L4.41697 18.1063C4.6952 19.2193 5.69516 20 6.84233 20H17.1577C18.3048 20 19.3048 19.2193 19.583 18.1063L20.8596 13ZM8.5 15C8.5 14.7239 8.27614 14.5 8 14.5C7.72386 14.5 7.5 14.7239 7.5 15V18C7.5 18.2762 7.72386 18.5 8 18.5C8.27614 18.5 8.5 18.2762 8.5 18V15ZM12 14.5C12.2761 14.5 12.5 14.7239 12.5 15V18C12.5 18.2762 12.2761 18.5 12 18.5C11.7239 18.5 11.5 18.2762 11.5 18V15C11.5 14.7239 11.7239 14.5 12 14.5ZM16.5 15C16.5 14.7239 16.2761 14.5 16 14.5C15.7239 14.5 15.5 14.7239 15.5 15V18C15.5 18.2762 15.7239 18.5 16 18.5C16.2761 18.5 16.5 18.2762 16.5 18V15Z"/>
</svg>
