<svg width="24" height="24" viewBox="0 0 24 24" xmlns="http://www.w3.org/2000/svg">
<path fill-rule="evenodd" clip-rule="evenodd" d="M15 5C15 2.79086 16.7908 1 19 1C21.2091 1 23 2.79086 23 5C23 7.20914 21.2091 9 19 9C16.7908 9 15 7.20914 15 5ZM19 0C16.2385 0 14 2.23858 14 5C14 5.16875 14.0083 5.33555 14.0246 5.50001H6.21444L5.49017 1.90135C5.44319 1.66792 5.23811 1.5 5 1.5L1 1.5C0.723858 1.5 0.5 1.72386 0.5 2C0.5 2.27614 0.723858 2.5 0.999999 2.5H4.59061L7.47994 16.8561C7.52692 17.0896 7.73199 17.2575 7.97011 17.2575L18.4999 17.2575C18.7761 17.2575 18.9999 17.0336 18.9999 16.7575C18.9999 16.4813 18.7761 16.2575 18.4999 16.2575L8.3795 16.2575L7.70176 12.89H7.72036H7.75195H7.78356H7.8152H7.84686H7.87854H7.91025H7.94198H7.97373H8.0055H8.0373H8.06911H8.10095H8.13281H8.16469H8.19658H8.2285H8.26044H8.29239H8.32436H8.35635H8.38836H8.42039H8.45243H8.48449H8.51657H8.54866H8.58077H8.6129H8.64503H8.67719H8.70936H8.74154H8.77373H8.80594H8.83816H8.8704H8.90265H8.9349H8.96717H8.99945H9.03175H9.06405H9.09636H9.12868H9.16102H9.19336H9.22571H9.25807H9.29043H9.32281H9.35519H9.38758H9.41997H9.45238H9.48478H9.5172H9.54962H9.58204H9.61447H9.6469H9.67934H9.71178H9.74422H9.77667H9.80912H9.84157H9.87402H9.90648H9.93894H9.97139H10.0038H10.0363H10.0688H10.1012H10.1337H10.1661H10.1986H10.231H10.2635H10.2959H10.3284H10.3608H10.3933H10.4257H10.4581H10.4905H10.523H10.5554H10.5878H10.6202H10.6526H10.685H10.7173H10.7497H10.7821H10.8144H10.8468H10.8791H10.9115H10.9438H10.9761H11.0084H11.0407H11.073H11.1052H11.1375H11.1697H11.202H11.2342H11.2664H11.2986H11.3308H11.3629H11.3951H11.4272H11.4594H11.4915H11.5236H11.5556H11.5877H11.6197H11.6518H11.6838H11.7158H11.7477H11.7797H11.8116H11.8435H11.8754H11.9073H11.9392H11.971H12.0028H12.0346H12.0664H12.0981H12.1299H12.1616H12.1932H12.2249H12.2565H12.2881H12.3197H12.3513H12.3828H12.4143H12.4458H12.4773H12.5087H12.5401H12.5715H12.6029H12.6342H12.6655H12.6967H12.728H12.7592H12.7904H12.8215H12.8526H12.8837H12.9148H12.9458H12.9768H13.0078H13.0387H13.0696H13.1005H13.1313H13.1621H13.1929H13.2236H13.2543H13.2849H13.3156H13.3461H13.3767H13.4072H13.4377H13.4681H13.4985H13.5289H13.5592H13.5895H13.6198H13.65H13.6802H13.7103H13.7404H13.7704H13.8005H13.8304H13.8603H13.8902H13.9201H13.9499H13.9796H14.0094H14.039H14.0686H14.0982H14.1278H14.1573H14.1867H14.2161H14.2455H14.2748H14.304H14.3333H14.3624H14.3915H14.4206H14.4496H14.4786H14.5075H14.5364H14.5652H14.594H14.6227H14.6514H14.68H14.7086H14.7371H14.7656H14.794H14.8224H14.8507H14.8789H14.9071H14.9353H14.9633H14.9914H15.0194H15.0473H15.0751H15.103H15.1307H15.1584H15.1861H15.2136H15.2412H15.2686H15.296H15.3234H15.3507H15.3779H15.4051H15.4322H15.4592H15.4862H15.5131H15.54H15.5668H15.5935H15.6202H15.6468H15.6733H15.6998H15.7262H15.7526H15.7789H15.8051H15.8312H15.8573H15.8834H15.9093H15.9352H15.961H15.9868H16.0125H16.0381H16.0636H16.0891H16.1145H16.1399H16.1651H16.1903H16.2154H16.2405H16.2655H16.2904H16.3152H16.34H16.3647H16.3893H16.4139H16.4383H16.4627H16.4871H16.5113H16.5355H16.5596H16.5836H16.6075H16.6314H16.6552H16.6789H16.7025H16.7261H16.7496H16.773H16.7963H16.8195H16.8427H16.8658H16.8888H16.9117H16.9345H16.9573H16.98H17.0025H17.0251H17.0475H17.0698H17.0921H17.1142H17.1363H17.1583H17.1803H17.2021H17.2238H17.2455H17.2671H17.2886H17.31H17.3313H17.3525H17.3736H17.3947H17.4156H17.4365H17.4573H17.478H17.4986H17.5191H17.5395H17.5598H17.5801H17.6002H17.6203H17.6402H17.6601H17.6799H17.6996H17.7191H17.7386H17.758H17.7773H17.7965H17.8156H17.8346H17.8536H17.8724H17.8911H17.9097H17.9282H17.9467H17.965H17.9832H18.0014H18.0194H18.0373H18.0552H18.0729H18.0905H18.108H18.1255H18.1428H18.16H18.1771H18.1941H18.2111H18.2279H18.2446H18.2612H18.2777H18.2941H18.3103H18.3265H18.3426H18.3585H18.3744H18.3902H18.4058H18.4213H18.4368H18.4521H18.4673H18.4824H18.4974H18.5123H18.527H18.5417H18.5562H18.5707H18.585H18.5992H18.6133H18.6273H18.6412H18.6549H18.6686H18.6821H18.6955H18.7088H18.722H18.7351H18.7481H18.7609H18.7736H18.7862H18.7987H18.8111H18.8234H18.8355H18.8475H18.8594H18.8712H18.8829H18.8944H18.9058H18.9171H18.9283H18.9393H18.9503H18.9611H18.9718H18.9823H18.9928H19.0031H19.0133H19.0234H19.0333H19.0432H19.0529H19.0624H19.0719H19.0812H19.0904H19.0995H19.1084H19.1172H19.1259H19.1344H19.1429H19.1512H19.1593H19.1674H19.1753H19.1831H19.1907H19.1982H19.2056H19.2129H19.22H19.227H19.2338H19.2406H19.2471H19.2536H19.2599H19.2661H19.2722H19.2781H19.2839H19.2895H19.295H19.3004H19.3056H19.3107H19.3157H19.3205H19.3252H19.3297H19.3341H19.3384H19.3425H19.3465H19.3504H19.3541H19.3576H19.3611H19.3643H19.3675H19.3705H19.3733H19.376H19.3786H19.381H19.3833H19.3854H19.3874H19.3893H19.391H19.3925H19.3939H19.3952H19.3963H19.3973H19.3981H19.3988H19.3993H19.3997H19.3999L19.4 12.39V12.89C19.6293 12.89 19.8293 12.734 19.885 12.5115L20.5774 9.74607C22.5659 9.0855 24 7.21022 24 5C24 2.23858 21.7614 0 19 0ZM19.4889 9.9764C19.328 9.99201 19.1649 10 19 10C16.7611 10 14.866 8.52856 14.2289 6.50001H6.4157L7.5005 11.89H7.53137H7.5628H7.59426H7.62575H7.65726H7.6888H7.72036H7.75195H7.78356H7.8152H7.84686H7.87854H7.91025H7.94198H7.97373H8.0055H8.0373H8.06911H8.10095H8.13281H8.16469H8.19658H8.2285H8.26044H8.29239H8.32436H8.35635H8.38836H8.42039H8.45243H8.48449H8.51657H8.54866H8.58077H8.6129H8.64503H8.67719H8.70936H8.74154H8.77373H8.80594H8.83816H8.8704H8.90265H8.9349H8.96717H8.99945H9.03175H9.06405H9.09636H9.12868H9.16102H9.19336H9.22571H9.25807H9.29043H9.32281H9.35519H9.38758H9.41997H9.45238H9.48478H9.5172H9.54962H9.58204H9.61447H9.6469H9.67934H9.71178H9.74422H9.77667H9.80912H9.84157H9.87402H9.90648H9.93894H9.97139H10.0038H10.0363H10.0688H10.1012H10.1337H10.1661H10.1986H10.231H10.2635H10.2959H10.3284H10.3608H10.3933H10.4257H10.4581H10.4905H10.523H10.5554H10.5878H10.6202H10.6526H10.685H10.7173H10.7497H10.7821H10.8144H10.8468H10.8791H10.9115H10.9438H10.9761H11.0084H11.0407H11.073H11.1052H11.1375H11.1697H11.202H11.2342H11.2664H11.2986H11.3308H11.3629H11.3951H11.4272H11.4594H11.4915H11.5236H11.5556H11.5877H11.6197H11.6518H11.6838H11.7158H11.7477H11.7797H11.8116H11.8435H11.8754H11.9073H11.9392H11.971H12.0028H12.0346H12.0664H12.0981H12.1299H12.1616H12.1932H12.2249H12.2565H12.2881H12.3197H12.3513H12.3828H12.4143H12.4458H12.4773H12.5087H12.5401H12.5715H12.6029H12.6342H12.6655H12.6967H12.728H12.7592H12.7904H12.8215H12.8526H12.8837H12.9148H12.9458H12.9768H13.0078H13.0387H13.0696H13.1005H13.1313H13.1621H13.1929H13.2236H13.2543H13.2849H13.3156H13.3461H13.3767H13.4072H13.4377H13.4681H13.4985H13.5289H13.5592H13.5895H13.6198H13.65H13.6802H13.7103H13.7404H13.7704H13.8005H13.8304H13.8603H13.8902H13.9201H13.9499H13.9796H14.0094H14.039H14.0686H14.0982H14.1278H14.1573H14.1867H14.2161H14.2455H14.2748H14.304H14.3333H14.3624H14.3915H14.4206H14.4496H14.4786H14.5075H14.5364H14.5652H14.594H14.6227H14.6514H14.68H14.7086H14.7371H14.7656H14.794H14.8224H14.8507H14.8789H14.9071H14.9353H14.9633H14.9914H15.0194H15.0473H15.0751H15.103H15.1307H15.1584H15.1861H15.2136H15.2412H15.2686H15.296H15.3234H15.3507H15.3779H15.4051H15.4322H15.4592H15.4862H15.5131H15.54H15.5668H15.5935H15.6202H15.6468H15.6733H15.6998H15.7262H15.7526H15.7789H15.8051H15.8312H15.8573H15.8834H15.9093H15.9352H15.961H15.9868H16.0125H16.0381H16.0636H16.0891H16.1145H16.1399H16.1651H16.1903H16.2154H16.2405H16.2655H16.2904H16.3152H16.34H16.3647H16.3893H16.4139H16.4383H16.4627H16.4871H16.5113H16.5355H16.5596H16.5836H16.6075H16.6314H16.6552H16.6789H16.7025H16.7261H16.7496H16.773H16.7963H16.8195H16.8427H16.8658H16.8888H16.9117H16.9345H16.9573H16.98H17.0025H17.0251H17.0475H17.0698H17.0921H17.1142H17.1363H17.1583H17.1803H17.2021H17.2238H17.2455H17.2671H17.2886H17.31H17.3313H17.3525H17.3736H17.3947H17.4156H17.4365H17.4573H17.478H17.4986H17.5191H17.5395H17.5598H17.5801H17.6002H17.6203H17.6402H17.6601H17.6799H17.6996H17.7191H17.7386H17.758H17.7773H17.7965H17.8156H17.8346H17.8536H17.8724H17.8911H17.9097H17.9282H17.9467H17.965H17.9832H18.0014H18.0194H18.0373H18.0552H18.0729H18.0905H18.108H18.1255H18.1428H18.16H18.1771H18.1941H18.2111H18.2279H18.2446H18.2612H18.2777H18.2941H18.3103H18.3265H18.3426H18.3585H18.3744H18.3902H18.4058H18.4213H18.4368H18.4521H18.4673H18.4824H18.4974H18.5123H18.527H18.5417H18.5562H18.5707H18.585H18.5992H18.6133H18.6273H18.6412H18.6549H18.6686H18.6821H18.6955H18.7088H18.722H18.7351H18.7481H18.7609H18.7736H18.7862H18.7987H18.8111H18.8234H18.8355H18.8475H18.8594H18.8712H18.8829H18.8944H18.9058H18.9171H18.9283H18.9393H18.9503H18.9611H18.9718H18.9823H18.9928H19.0031H19.0097L19.4889 9.9764ZM9.49996 23C10.3284 23 11 22.3284 11 21.5C11 20.6716 10.3284 20 9.49996 20C8.67153 20 7.99996 20.6716 7.99996 21.5C7.99996 22.3284 8.67153 23 9.49996 23ZM16.5 23C17.3284 23 18 22.3284 18 21.5C18 20.6716 17.3284 20 16.5 20C15.6715 20 15 20.6716 15 21.5C15 22.3284 15.6715 23 16.5 23ZM19 2C19.2761 2 19.5 2.22386 19.5 2.5V4.5H21.5C21.7761 4.5 22 4.72386 22 5C22 5.27614 21.7761 5.5 21.5 5.5H19.5V7.5C19.5 7.77614 19.2761 8 19 8C18.7238 8 18.5 7.77614 18.5 7.5V5.5H16.5C16.2238 5.5 16 5.27614 16 5C16 4.72386 16.2238 4.5 16.5 4.5H18.5V2.5C18.5 2.22386 18.7238 2 19 2Z"/>
</svg>
