<svg width="24" height="24" viewBox="0 0 24 24" xmlns="http://www.w3.org/2000/svg">
<path fill-rule="evenodd" clip-rule="evenodd" d="M17.0651 5.61546C16.9339 5.60645 16.8048 5.58523 16.6787 5.55267H7.21705C7.12607 5.57054 7.03386 5.58269 6.94082 5.58887L6.93884 5.55267H2.86952V9.6011C2.87075 10.2371 3.35311 10.7624 3.93706 10.7638H5.47647V9.86023C5.4777 9.05049 6.07966 8.3949 6.82315 8.3949H8.5661C9.38135 8.39624 10.04 9.11492 10.0425 10.0001V10.7638H14.3901V9.9526C14.3901 9.09237 15.0296 8.3949 15.8204 8.3949H17.2739C18.0817 8.3949 18.7376 9.10795 18.7389 9.99047V10.7638H20.2328C20.7293 10.7624 21.1292 10.3238 21.1307 9.7859V5.55267H17.0686L17.0651 5.61546ZM17.8682 9.99047V10.7637H15.2596V9.9526C15.2596 9.61635 15.5119 9.34321 15.8204 9.34187H17.2739C17.6018 9.34321 17.8669 9.63328 17.8682 9.99047ZM9.17173 10.7637V10.0001C9.17173 9.64159 8.89654 9.34321 8.5661 9.34187H6.82315C6.55954 9.34321 6.3472 9.57447 6.3472 9.86023V10.7637H9.17173ZM22 4.6057H16.7951C16.3814 4.46867 16.0015 4.12304 15.7968 3.65574C15.3889 2.72998 14.5554 2.0043 13.5394 2H10.4665C9.45023 2.0043 8.61672 2.72998 8.20908 3.65574C7.99305 4.14998 7.58284 4.49316 7.13363 4.6057H2V9.6011C2.00088 10.432 2.44459 11.152 3.08739 11.4958V20.0001H20.9149V11.5623C21.5528 11.2715 22 10.585 22 9.7859V4.6057ZM8.99378 4.06473C8.90715 4.26118 8.80112 4.44221 8.6792 4.6057H15.3249C15.2038 4.44083 15.0984 4.25957 15.0121 4.06473C14.7214 3.40647 14.1478 2.94267 13.5394 2.94697H10.4665C9.85935 2.94267 9.28428 3.40647 8.99378 4.06473ZM20.0441 11.7113V19.0515H12.4344V11.7113H15.2635V15.7371H17.872V15.2622V11.7113H20.0441ZM11.5643 11.7113V19.0515H3.95667V11.7113H6.56386V15.7371H8.95484V15.2622V11.7113H11.5643ZM16.133 14.7901V11.7113H17.0025V14.7901H16.133ZM8.08535 11.7113H7.43334V14.7901H8.08535V11.7113Z"/>
</svg>
