<svg width="24" height="24" viewBox="0 0 24 24" xmlns="http://www.w3.org/2000/svg">
<path fill-rule="evenodd" clip-rule="evenodd" d="M4.25056 18.7502C5.91693 20.4166 8.61864 20.4166 10.285 18.7502L20.3973 8.6379C21.2699 7.76535 21.2212 6.12397 20.0603 4.96299C18.8993 3.80202 17.2579 3.75337 16.3854 4.62592L8.96965 12.0416C8.42026 12.591 8.42026 13.4817 8.96965 14.0311C9.51904 14.5805 10.4098 14.5805 10.9592 14.0311L16.3524 8.6379C16.5477 8.44263 16.8643 8.44263 17.0595 8.6379C17.2548 8.83316 17.2548 9.14974 17.0595 9.345L11.6663 14.7382C10.7264 15.6782 9.20246 15.6782 8.26254 14.7382C7.32263 13.7983 7.32263 12.2744 8.26254 11.3345L15.6783 3.91881C17.0397 2.5574 19.3221 2.81058 20.7674 4.25589C22.2127 5.70119 22.4659 7.9836 21.1044 9.345L10.9921 19.4573C8.93522 21.5142 5.60035 21.5142 3.54346 19.4573C1.48656 17.4004 1.48657 14.0656 3.54346 12.0087L11.6333 3.91881C11.8286 3.72355 12.1452 3.72355 12.3404 3.91881C12.5357 4.11407 12.5357 4.43065 12.3404 4.62591L4.25056 12.7158C2.58419 14.3821 2.58419 17.0839 4.25056 18.7502Z"/>
</svg>
