<svg width="24" height="24" viewBox="0 0 24 24" xmlns="http://www.w3.org/2000/svg">
<path fill-rule="evenodd" clip-rule="evenodd" d="M8.5 2C8.22386 2 8 2.22386 8 2.5V5H5.5H3C2.72386 5 2.5 5.22386 2.5 5.5C2.5 5.77614 2.72386 6 3 6H5V21.5C5 21.7761 5.22386 22 5.5 22H18.5C18.7761 22 19 21.7761 19 21.5V6H21C21.2761 6 21.5 5.77614 21.5 5.5C21.5 5.22386 21.2761 5 21 5H18.5H16V2.5C16 2.22386 15.7761 2 15.5 2H8.5ZM15 5V3H9V5H15ZM18 6H15.5H8.5H6V21H18V6ZM12 8C12.2761 8 12.5 8.22386 12.5 8.5V18.5C12.5 18.7761 12.2761 19 12 19C11.7239 19 11.5 18.7761 11.5 18.5V8.5C11.5 8.22386 11.7239 8 12 8ZM16 8.5C16 8.22386 15.7761 8 15.5 8C15.2239 8 15 8.22386 15 8.5V18.5C15 18.7761 15.2239 19 15.5 19C15.7761 19 16 18.7761 16 18.5V8.5ZM8.5 8C8.77614 8 9 8.22386 9 8.5V18.5C9 18.7761 8.77614 19 8.5 19C8.22386 19 8 18.7761 8 18.5V8.5C8 8.22386 8.22386 8 8.5 8Z"/>
</svg>
