<svg width="24" height="24" viewBox="0 0 24 24" xmlns="http://www.w3.org/2000/svg">
<path fill-rule="evenodd" clip-rule="evenodd" d="M7 11.5C7 10.6716 6.32843 10 5.5 10C4.67157 10 4 10.6716 4 11.5C4 12.3284 4.67157 13 5.5 13C6.32843 13 7 12.3284 7 11.5ZM14 11.5C14 10.6716 13.3284 10 12.5 10C11.6716 10 11 10.6716 11 11.5C11 12.3284 11.6716 13 12.5 13C13.3284 13 14 12.3284 14 11.5ZM19.5 10C20.3284 10 21 10.6716 21 11.5C21 12.3284 20.3284 13 19.5 13C18.6716 13 18 12.3284 18 11.5C18 10.6716 18.6716 10 19.5 10Z"/>
</svg>
