<svg width="24" height="24" viewBox="0 0 24 24" xmlns="http://www.w3.org/2000/svg">
<path fill-rule="evenodd" clip-rule="evenodd" d="M12 3.25C12.2761 3.25 12.5 3.47386 12.5 3.75L12.5 14.9349L17.6263 9.16782C17.8098 8.96143 18.1258 8.94284 18.3322 9.1263C18.5386 9.30975 18.5572 9.62579 18.3737 9.83218L12.3737 16.5822C12.2788 16.6889 12.1428 16.75 12 16.75C11.8572 16.75 11.7212 16.6889 11.6263 16.5822L5.6263 9.83218C5.44284 9.62579 5.46143 9.30975 5.66782 9.12629C5.87421 8.94284 6.19025 8.96143 6.3737 9.16782L11.5 14.9349L11.5 3.75C11.5 3.47386 11.7239 3.25 12 3.25ZM5.5 20C5.22386 20 5 20.2239 5 20.5C5 20.7762 5.22386 21 5.5 21L18.5 21C18.7761 21 19 20.7762 19 20.5C19 20.2239 18.7761 20 18.5 20L5.5 20Z"/>
</svg>
