<svg width="24" height="24" viewBox="0 0 24 24" xmlns="http://www.w3.org/2000/svg">
<path fill-rule="evenodd" clip-rule="evenodd" d="M16.9602 3.64645C17.1554 3.45118 17.472 3.45118 17.6673 3.64645L21.2028 7.18198C21.3981 7.37724 21.3981 7.69383 21.2028 7.88909L11.6568 17.435L11.3033 17.7886C11.1959 17.896 11.0455 17.9487 10.8945 17.932L7.71256 17.5784C7.48014 17.5526 7.29666 17.3691 7.27084 17.1367L6.91728 13.9547C6.90051 13.8037 6.95327 13.6533 7.06067 13.5459L7.41088 13.1957L7.41421 13.1924L7.41757 13.189L16.9602 3.64645ZM20.1421 7.53553L11.3033 16.3744L8.47488 13.5459L17.3137 4.70711L20.1421 7.53553ZM10.3838 16.8691L7.98019 14.4655L8.22055 16.6287L10.3838 16.8691ZM3.5 20C3.22386 20 3 20.2239 3 20.5C3 20.7761 3.22386 21 3.5 21H16C16.2761 21 16.5 20.7761 16.5 20.5C16.5 20.2239 16.2761 20 16 20H3.5Z"/>
</svg>
