<svg width="24" height="24" viewBox="0 0 24 24" xmlns="http://www.w3.org/2000/svg">
<path fill-rule="evenodd" clip-rule="evenodd" d="M14.1874 1.84595C13.6776 1.84595 13.2643 2.25922 13.2643 2.76902C13.2643 3.27883 13.6776 3.6921 14.1874 3.6921L16.3509 3.6921C16.8607 3.6921 17.274 3.27883 17.274 2.76902C17.274 2.25922 16.8607 1.84595 16.3509 1.84595H14.1874ZM15.271 4.61522C10.6828 4.61522 6.9633 8.3347 6.9633 12.9229C6.9633 17.5111 10.6828 21.2306 15.271 21.2306C19.8592 21.2306 23.5787 17.5111 23.5787 12.9229C23.5787 8.3347 19.8592 4.61522 15.271 4.61522ZM8.34039 12.9229C8.34039 9.09524 11.4433 5.99231 15.271 5.99231C19.0987 5.99231 22.2016 9.09524 22.2016 12.9229C22.2016 16.7506 19.0987 19.8535 15.271 19.8535C11.4433 19.8535 8.34039 16.7506 8.34039 12.9229ZM15.271 8.17076C14.8907 8.17076 14.5824 8.47903 14.5824 8.8593V13.126C14.5824 13.3868 14.7298 13.6252 14.9631 13.7419L17.8075 15.1641C18.1477 15.3342 18.5613 15.1963 18.7313 14.8562C18.9014 14.5161 18.7635 14.1025 18.4234 13.9324L15.9595 12.7005V8.8593C15.9595 8.47903 15.6513 8.17076 15.271 8.17076ZM1.65137 8.3076C1.65137 7.92525 1.96132 7.61529 2.34367 7.61529H6.03598C6.41833 7.61529 6.72829 7.92525 6.72829 8.3076C6.72829 8.68995 6.41833 8.99991 6.03598 8.99991L2.34367 8.99991C1.96132 8.99991 1.65137 8.68995 1.65137 8.3076ZM2.34367 12.2305C1.96132 12.2305 1.65137 12.5405 1.65137 12.9228C1.65137 13.3052 1.96132 13.6151 2.34367 13.6151H5.11291C5.49526 13.6151 5.80521 13.3052 5.80521 12.9228C5.80521 12.5405 5.49526 12.2305 5.11291 12.2305L2.34367 12.2305ZM1.65137 17.5386C1.65137 17.1562 1.96132 16.8462 2.34367 16.8462H6.03598C6.41833 16.8462 6.72829 17.1562 6.72829 17.5386C6.72829 17.9209 6.41833 18.2309 6.03598 18.2309H2.34367C1.96132 18.2309 1.65137 17.9209 1.65137 17.5386Z"/>
</svg>
