<svg width="24" height="24" viewBox="0 0 24 24" xmlns="http://www.w3.org/2000/svg">
<path fill-rule="evenodd" clip-rule="evenodd" d="M3.55791 12.0779C3.54692 12.0494 3.53715 12.0234 3.52855 12C3.53715 11.9766 3.54692 11.9506 3.55791 11.9221C3.61612 11.7712 3.70823 11.5516 3.84096 11.2861C4.10684 10.7544 4.53302 10.0441 5.17165 9.33448C6.43959 7.92565 8.55977 6.5 12 6.5C15.4402 6.5 17.5604 7.92565 18.8284 9.33448C19.467 10.0441 19.8932 10.7544 20.159 11.2861C20.2918 11.5516 20.3839 11.7712 20.4421 11.9221C20.4531 11.9506 20.4628 11.9766 20.4714 12C20.4628 12.0234 20.4531 12.0494 20.4421 12.0779C20.3839 12.2288 20.2918 12.4484 20.159 12.7139C19.8932 13.2456 19.467 13.9559 18.8284 14.6655C17.5604 16.0743 15.4402 17.5 12 17.5C8.55977 17.5 6.43959 16.0743 5.17165 14.6655C4.53302 13.9559 4.10684 13.2456 3.84096 12.7139C3.70823 12.4484 3.61612 12.2288 3.55791 12.0779ZM21.4787 11.8557C21.4788 11.856 21.4789 11.8563 21 12C21.4789 12.1437 21.4788 12.144 21.4787 12.1443L21.4785 12.145L21.478 12.1468L21.4763 12.1522L21.4709 12.1693C21.4664 12.1836 21.4599 12.2033 21.4514 12.2283C21.4344 12.2783 21.4093 12.3491 21.3751 12.4377C21.3067 12.615 21.202 12.8641 21.0535 13.1611C20.7568 13.7544 20.283 14.5441 19.5716 15.3345C18.1396 16.9257 15.7598 18.5 12 18.5C8.24023 18.5 5.86041 16.9257 4.42835 15.3345C3.71698 14.5441 3.24316 13.7544 2.94654 13.1611C2.79802 12.8641 2.69326 12.615 2.62491 12.4377C2.59071 12.3491 2.56558 12.2783 2.54859 12.2283C2.54009 12.2033 2.53363 12.1836 2.52908 12.1693L2.52369 12.1522L2.52204 12.1468L2.52148 12.145L2.52126 12.1443C2.52117 12.144 2.52109 12.1437 3 12C2.52109 11.8563 2.52117 11.856 2.52126 11.8557L2.52148 11.855L2.52204 11.8532L2.52369 11.8478L2.52908 11.8307C2.53363 11.8164 2.54009 11.7967 2.54859 11.7717C2.56558 11.7217 2.59071 11.6509 2.62491 11.5623C2.69326 11.385 2.79802 11.1359 2.94654 10.8389C3.24316 10.2456 3.71698 9.45594 4.42835 8.66552C5.86041 7.07435 8.24023 5.5 12 5.5C15.7598 5.5 18.1396 7.07435 19.5716 8.66552C20.283 9.45594 20.7568 10.2456 21.0535 10.8389C21.202 11.1359 21.3067 11.385 21.3751 11.5623C21.4093 11.6509 21.4344 11.7217 21.4514 11.7717C21.4599 11.7967 21.4664 11.8164 21.4709 11.8307L21.4763 11.8478L21.478 11.8532L21.4785 11.855L21.4787 11.8557ZM21 12L21.4789 11.8563C21.507 11.95 21.507 12.05 21.4789 12.1437L21 12ZM2.52109 11.8563L3 12L2.52109 12.1437C2.49297 12.05 2.49297 11.95 2.52109 11.8563ZM9.5 12C9.5 10.6193 10.6193 9.5 12 9.5C13.3807 9.5 14.5 10.6193 14.5 12C14.5 13.3807 13.3807 14.5 12 14.5C10.6193 14.5 9.5 13.3807 9.5 12ZM12 8.5C10.067 8.5 8.5 10.067 8.5 12C8.5 13.933 10.067 15.5 12 15.5C13.933 15.5 15.5 13.933 15.5 12C15.5 10.067 13.933 8.5 12 8.5Z"/>
</svg>
