<svg width="24" height="24" viewBox="0 0 24 24" xmlns="http://www.w3.org/2000/svg">
<path fill-rule="evenodd" clip-rule="evenodd" d="M18.3195 7.50454L17.6059 8.21817C18.0816 8.57256 18.486 8.9541 18.8283 9.33442C19.4669 10.044 19.8931 10.7543 20.159 11.286C20.2917 11.5515 20.3838 11.7711 20.442 11.9221C20.453 11.9505 20.4628 11.9766 20.4714 11.9999C20.4628 12.0233 20.453 12.0493 20.442 12.0778C20.3838 12.2287 20.2917 12.4484 20.159 12.7138C19.8931 13.2456 19.4669 13.9559 18.8283 14.6655C17.5603 16.0743 15.4402 17.4999 11.9999 17.4999C10.7734 17.4999 9.7146 17.3187 8.80244 17.0216L8.01925 17.8048C9.13131 18.2317 10.4481 18.4999 11.9999 18.4999C15.7597 18.4999 18.1395 16.9256 19.5716 15.3344C20.2829 14.544 20.7568 13.7543 21.0534 13.161C21.2019 12.864 21.3067 12.6149 21.375 12.4377C21.4092 12.349 21.4343 12.2782 21.4513 12.2283C21.4598 12.2033 21.4663 12.1835 21.4708 12.1693L21.4762 12.1521L21.4779 12.1468L21.4784 12.1449L21.4787 12.1442C21.4788 12.1439 21.4788 12.1436 20.9999 11.9999L21.4788 12.1436C21.507 12.0499 21.507 11.95 21.4788 11.8563L20.9999 11.9999C21.4788 11.8563 21.4788 11.856 21.4787 11.8557L21.4784 11.855L21.4779 11.8531L21.4762 11.8477L21.4708 11.8306C21.4663 11.8164 21.4598 11.7966 21.4513 11.7716C21.4343 11.7216 21.4092 11.6508 21.375 11.5622C21.3067 11.385 21.2019 11.1359 21.0534 10.8388C20.7568 10.2456 20.2829 9.45587 19.5716 8.66546C19.2152 8.26944 18.8 7.87446 18.3195 7.50454ZM3.72685 20.6872C3.73818 20.6731 3.7504 20.6595 3.76349 20.6464L21.3901 3.01973C21.5479 2.8234 21.5356 2.53564 21.3535 2.35348C21.1582 2.15822 20.8416 2.15822 20.6464 2.35348L16.5601 6.43977C15.3339 5.87313 13.8305 5.49994 11.9999 5.49994C8.24015 5.49994 5.86033 7.07429 4.42828 8.66546C3.7169 9.45587 3.24309 10.2456 2.94646 10.8388C2.79794 11.1359 2.69318 11.385 2.62483 11.5622C2.59064 11.6508 2.5655 11.7216 2.54851 11.7716C2.54001 11.7966 2.53355 11.8164 2.52901 11.8306L2.52361 11.8477L2.52197 11.8531L2.5214 11.855L2.52119 11.8557C2.5211 11.856 2.52101 11.8563 2.99992 11.9999L2.52101 11.8563C2.4929 11.95 2.4929 12.0499 2.52101 12.1436L2.99992 11.9999C2.52101 12.1436 2.5211 12.1439 2.52119 12.1442L2.5214 12.1449L2.52197 12.1468L2.52361 12.1521L2.52901 12.1693C2.53355 12.1835 2.54001 12.2033 2.54851 12.2283C2.5655 12.2782 2.59064 12.349 2.62483 12.4377C2.69318 12.6149 2.79794 12.864 2.94646 13.161C3.24309 13.7543 3.7169 14.544 4.42828 15.3344C4.8982 15.8566 5.47018 16.3769 6.15949 16.8404L2.35348 20.6464C2.15822 20.8416 2.15821 21.1582 2.35348 21.3535C2.54874 21.5487 2.86532 21.5487 3.06058 21.3535L3.72685 20.6872ZM10.6107 15.2134C11.0366 15.3978 11.5063 15.4999 11.9999 15.4999C13.9329 15.4999 15.4999 13.9329 15.4999 11.9999C15.4999 11.5063 15.3977 11.0366 15.2134 10.6107L14.4268 11.3973C14.4746 11.5903 14.4999 11.7922 14.4999 11.9999C14.4999 13.3807 13.3806 14.4999 11.9999 14.4999C11.7921 14.4999 11.5903 14.4746 11.3973 14.4268L10.6107 15.2134ZM11.9999 6.49994C13.507 6.49994 14.7607 6.77352 15.8004 7.19943L13.924 9.07581C13.372 8.7118 12.7107 8.49994 11.9999 8.49994C10.0669 8.49994 8.49992 10.0669 8.49992 11.9999C8.49992 12.7107 8.71178 13.372 9.0758 13.9241L6.88159 16.1183C6.18816 15.6759 5.6253 15.1696 5.17157 14.6655C4.53295 13.9559 4.10676 13.2456 3.84089 12.7138C3.70816 12.4484 3.61604 12.2287 3.55783 12.0778C3.54685 12.0493 3.53708 12.0233 3.52848 11.9999C3.53708 11.9766 3.54685 11.9505 3.55783 11.9221C3.61604 11.7711 3.70816 11.5515 3.84089 11.286C4.10676 10.7543 4.53295 10.044 5.17157 9.33442C6.43952 7.92559 8.55969 6.49994 11.9999 6.49994ZM11.9999 9.49994C12.4331 9.49994 12.8406 9.61013 13.1958 9.804L9.80399 13.1959C9.61011 12.8406 9.49992 12.4331 9.49992 11.9999C9.49992 10.6192 10.6192 9.49994 11.9999 9.49994Z"/>
</svg>
