<svg width="24" height="24" viewBox="0 0 24 24" xmlns="http://www.w3.org/2000/svg">
<path fill-rule="evenodd" clip-rule="evenodd" d="M12 4C6.90856 4 3 7.21308 3 10.9375C3 12.5966 3.76 14.138 5.06373 15.353C5.20339 15.4831 5.25675 15.6814 5.20125 15.8641C5.05491 16.3457 4.87495 17.0572 4.67296 17.8559C4.65816 17.9144 4.64324 17.9734 4.6282 18.0328C4.51493 18.4804 4.39578 18.9489 4.27366 19.4091C5.35123 18.7152 6.74348 17.7498 7.4044 17.1975C7.54494 17.0801 7.73843 17.0489 7.90876 17.1162C9.13407 17.6004 10.524 17.875 12 17.875C17.0914 17.875 21 14.6619 21 10.9375C21 7.21308 17.0914 4 12 4ZM2 10.9375C2 6.44669 6.59803 3 12 3C17.402 3 22 6.44669 22 10.9375C22 15.4283 17.402 18.875 12 18.875C10.5088 18.875 9.09102 18.6164 7.81621 18.1507C6.73366 19.0054 4.59775 20.431 3.69404 20.9364C3.51641 21.0357 3.29629 21.0175 3.13744 20.8903C2.97859 20.763 2.9127 20.5522 2.97083 20.3572C3.20487 19.5719 3.43992 18.6522 3.65876 17.7875C3.67468 17.7246 3.69052 17.662 3.70628 17.5996C3.86926 16.9551 4.02337 16.3457 4.15824 15.8684C2.8193 14.5277 2 12.817 2 10.9375Z"/>
</svg>
