<svg width="25" height="24" viewBox="0 0 25 24" xmlns="http://www.w3.org/2000/svg">
<path fill-rule="evenodd" clip-rule="evenodd" d="M9.57618 3.39746C11.1186 2.21628 13.2279 1.5 15.5374 1.5C17.8468 1.5 19.9561 2.21628 21.4986 3.39746C23.0415 4.57901 24.0378 6.24656 24.0378 8.12658C24.0378 9.68765 23.3499 11.1046 22.2322 12.2162C22.3424 12.6023 22.4669 13.0837 22.5976 13.5893C22.6109 13.641 22.6244 13.6929 22.6378 13.745C22.8222 14.4576 23.0197 15.2132 23.2161 15.8579C23.2753 16.0523 23.211 16.2632 23.0534 16.3914C22.8957 16.5197 22.6761 16.5398 22.4979 16.4423C21.7426 16.0291 19.9732 14.8751 19.0479 14.1654C18.3989 14.3944 17.707 14.5615 16.985 14.6578C16.9956 14.7934 17.0009 14.9301 17.0009 15.0678C17.0009 16.9478 16.0046 18.6154 14.4617 19.7969C12.9192 20.9781 10.8099 21.6944 8.50047 21.6944C7.2511 21.6944 6.06197 21.4849 4.9899 21.1066C4.0646 21.8163 2.29528 22.9704 1.53999 23.3835C1.3617 23.481 1.14211 23.4609 0.984479 23.3327C0.826845 23.2044 0.762524 22.9935 0.821758 22.7991C1.01818 22.1545 1.21564 21.3988 1.40001 20.6862C1.41349 20.6341 1.42691 20.5822 1.44027 20.5305C1.57099 20.0249 1.69544 19.5435 1.80569 19.1574C0.687965 18.0458 0 16.6289 0 15.0678C0 11.698 3.1474 9.06022 7.05286 8.53682C7.04227 8.40109 7.03689 8.26431 7.03689 8.12658C7.03689 6.24656 8.03324 4.57901 9.57618 3.39746ZM8.04916 8.45038C8.19864 8.4443 8.34911 8.44122 8.50047 8.44122C12.4926 8.44122 15.9775 10.6085 16.813 13.6718C17.5741 13.5735 18.2948 13.389 18.9573 13.1329C19.1251 13.0681 19.3147 13.0983 19.454 13.2121C19.9734 13.6367 21.0354 14.3614 21.912 14.9201C21.8287 14.6088 21.7475 14.2962 21.6697 13.9955C21.6572 13.947 21.6447 13.8988 21.6324 13.851C21.4619 13.1919 21.3109 12.6079 21.1884 12.2134C21.1308 12.0281 21.1856 11.8263 21.329 11.6956C22.4134 10.7072 23.0378 9.46074 23.0378 8.12658C23.0378 6.62298 22.2432 5.22724 20.8906 4.19141C19.5374 3.15521 17.6465 2.5 15.5374 2.5C13.4283 2.5 11.5373 3.15521 10.1842 4.19141C8.83151 5.22724 8.03689 6.62298 8.03689 8.12658C8.03689 8.2353 8.04102 8.34325 8.04916 8.45038ZM11.0378 6.5C11.0378 6.22386 11.2617 6 11.5378 6H19.5378C19.814 6 20.0378 6.22386 20.0378 6.5C20.0378 6.77614 19.814 7 19.5378 7H11.5378C11.2617 7 11.0378 6.77614 11.0378 6.5ZM8.50047 9.44122C8.21475 9.44122 7.93288 9.45326 7.65568 9.47667C3.79495 9.80271 1 12.2775 1 15.0678C1 16.402 1.62449 17.6484 2.70881 18.6368C2.8522 18.7675 2.90703 18.9694 2.84947 19.1547C2.72695 19.5491 2.57596 20.133 2.40552 20.7921C2.39316 20.8399 2.38069 20.8882 2.36813 20.9367C2.29032 21.2374 2.20912 21.55 2.12587 21.8613C3.00242 21.3026 4.06443 20.5779 4.58385 20.1534C4.72311 20.0395 4.91277 20.0093 5.08053 20.0741C6.10387 20.4697 7.26575 20.6944 8.50047 20.6944C10.6096 20.6944 12.5005 20.0392 13.8537 19.003C15.2063 17.9671 16.0009 16.5714 16.0009 15.0678C16.0009 14.809 15.9776 14.5545 15.9323 14.3053C15.4492 11.6458 12.3956 9.44122 8.50047 9.44122ZM15.9242 9.5C15.9242 9.22386 16.1481 9 16.4242 9H19.5378C19.814 9 20.0378 9.22386 20.0378 9.5C20.0378 9.77614 19.814 10 19.5378 10H16.4242C16.1481 10 15.9242 9.77614 15.9242 9.5ZM4.40026 13.5C4.40026 13.2239 4.62412 13 4.90026 13H12.5378C12.814 13 13.0378 13.2239 13.0378 13.5C13.0378 13.7761 12.814 14 12.5378 14H4.90026C4.62412 14 4.40026 13.7761 4.40026 13.5ZM4.40026 16.5C4.40026 16.2239 4.62412 16 4.90026 16H10.5C10.7761 16 11 16.2239 11 16.5C11 16.7761 10.7761 17 10.5 17H4.90026C4.62412 17 4.40026 16.7761 4.40026 16.5Z"/>
</svg>
