<svg width="24" height="24" viewBox="0 0 24 24" xmlns="http://www.w3.org/2000/svg">
<path fill-rule="evenodd" clip-rule="evenodd" d="M5.5 3.5C5.77614 3.5 6 3.72386 6 4V7.06301C6.86261 7.28503 7.5 8.06808 7.5 9C7.5 9.93192 6.86261 10.715 6 10.937L6 20C6 20.2761 5.77614 20.5 5.5 20.5C5.22386 20.5 5 20.2761 5 20L5 10.937C4.13739 10.715 3.5 9.93192 3.5 9C3.5 8.06808 4.13739 7.28503 5 7.06301L5 4C5 3.72386 5.22386 3.5 5.5 3.5ZM12 3.5C12.2761 3.5 12.5 3.72386 12.5 4V12.063C13.3626 12.285 14 13.0681 14 14C14 14.9319 13.3626 15.715 12.5 15.937V20C12.5 20.2761 12.2761 20.5 12 20.5C11.7239 20.5 11.5 20.2761 11.5 20V15.937C10.6374 15.715 10 14.9319 10 14C10 13.0681 10.6374 12.285 11.5 12.063V4C11.5 3.72386 11.7239 3.5 12 3.5ZM18.5 3.5C18.7761 3.5 19 3.72386 19 4V9.06301C19.8626 9.28503 20.5 10.0681 20.5 11C20.5 11.9319 19.8626 12.715 19 12.937V20C19 20.2761 18.7761 20.5 18.5 20.5C18.2239 20.5 18 20.2761 18 20V12.937C17.1374 12.715 16.5 11.9319 16.5 11C16.5 10.0681 17.1374 9.28503 18 9.06301V4C18 3.72386 18.2239 3.5 18.5 3.5ZM5.5 8C4.94772 8 4.5 8.44772 4.5 9C4.5 9.55228 4.94772 10 5.5 10C6.05228 10 6.5 9.55228 6.5 9C6.5 8.44772 6.05228 8 5.5 8ZM18.5 10C17.9477 10 17.5 10.4477 17.5 11C17.5 11.5523 17.9477 12 18.5 12C19.0523 12 19.5 11.5523 19.5 11C19.5 10.4477 19.0523 10 18.5 10ZM12 13C11.4477 13 11 13.4477 11 14C11 14.5523 11.4477 15 12 15C12.5523 15 13 14.5523 13 14C13 13.4477 12.5523 13 12 13Z"/>
</svg>
