<svg width="24" height="24" viewBox="0 0 24 24" xmlns="http://www.w3.org/2000/svg">
<path fill-rule="evenodd" clip-rule="evenodd" d="M14.6 2.71667C14.6 2.14633 13.9377 1.79205 13.4653 2.13442C11.5703 3.49083 9.99275 5.76895 9.43848 7.95735C9.10203 9.28955 9.02408 10.7591 9.00557 11.8398C8.49555 11.591 8.13848 11.0817 7.89443 10.5415C7.60621 9.9035 7.51054 9.28821 7.50944 9.28097C7.44109 8.81244 6.92363 8.52351 6.48638 8.73882C5.40422 9.26307 4.78852 10.3353 4.44194 11.4646C4.09366 12.5993 4 13.8445 4 14.7995C4 19.1004 7.49897 22.5993 11.8 22.5993C16.101 22.5993 19.6 19.1004 19.6 14.7995C19.6 11.9261 18.2834 9.52107 16.6551 7.32927C15.5132 5.79228 14.6 4.54948 14.6 2.71667ZM10.8284 8.30878C11.1946 6.8623 12.1421 5.29592 13.3196 4.13219C13.6716 5.7175 14.5809 6.94104 15.4875 8.16084L15.5046 8.1839C17.0021 10.1995 18.1668 12.2993 18.1668 14.7996C18.1667 17.0712 16.9695 19.0686 15.172 20.1954C15.3392 19.7657 15.4334 19.2969 15.4334 18.8029C15.4334 17.4682 14.8639 16.3448 14.1482 15.328C13.6961 14.686 13.3745 14.2149 13.3745 13.5496C13.3745 12.9674 12.6941 12.6227 12.2259 12.9779C11.2481 13.7166 10.559 14.8649 10.3484 16.0699C10.1587 15.771 9.75722 15.6339 9.41412 15.8103C8.85555 16.0962 8.54868 16.6424 8.38036 17.1895C8.21091 17.7402 8.16676 18.3383 8.16676 18.8029C8.16676 19.2969 8.26087 19.7657 8.42807 20.1954C6.63063 19.0686 5.43344 17.0712 5.43344 14.7996C5.43344 13.3902 5.63042 11.8499 6.41871 10.7398C6.62207 11.2787 6.92061 11.8439 7.33666 12.3173C7.89804 12.9561 8.68011 13.433 9.71676 13.433C10.1127 13.433 10.4334 13.1123 10.4334 12.7163C10.4334 11.3212 10.4658 9.74398 10.8284 8.30878ZM11.8106 16.0717C11.8934 15.7266 12.0589 15.3596 12.2775 15.0209C12.4741 15.4395 12.7298 15.803 12.9657 16.1382L12.976 16.1529C13.5617 16.9852 14.0001 17.8321 14.0001 18.8029C14 20.1238 12.9953 21.166 11.8 21.166C10.6047 21.166 9.6 20.1238 9.6 18.8029C9.6 18.5346 9.61659 18.2703 9.66273 18.0193C9.95718 18.3569 10.3738 18.6138 10.9423 18.6138C11.3383 18.6138 11.6589 18.2932 11.6589 17.8972C11.6589 17.3026 11.6721 16.6509 11.8106 16.0717Z"/>
</svg>
