<svg width="24" height="24" viewBox="0 0 24 24" xmlns="http://www.w3.org/2000/svg">
<path fill-rule="evenodd" clip-rule="evenodd" d="M8.62052 4.08099C8.74461 3.96818 9.06064 3.89248 9.58258 4.00851C10.0728 4.11747 10.5546 4.35942 10.8229 4.60332C10.9072 4.6799 10.9978 4.82695 11.0734 5.05968C11.1466 5.28488 11.1924 5.54867 11.2192 5.81493C11.2495 6.1171 11.2537 6.39653 11.2515 6.60525C11.1047 6.61822 10.9141 6.62196 10.7009 6.60693C10.139 6.56732 9.55205 6.40789 9.19504 6.08332C8.77306 5.69967 8.52342 5.26212 8.44195 4.88282C8.35975 4.50008 8.45408 4.23232 8.62052 4.08099ZM11.5628 3.93062C11.1376 3.54401 10.4753 3.22757 9.83111 3.08439C9.21874 2.94826 8.41037 2.92666 7.88061 3.40829C7.3932 3.85142 7.28922 4.47971 7.41495 5.06513C7.53068 5.604 7.84577 6.15447 8.31925 6.62665H8.31546H8.29786H8.28025H8.26264H8.24501H8.22738H8.20974H8.19209H8.17443H8.15676H8.13908H8.12139H8.10369H8.08599H8.06827H8.05054H8.0328H8.01505H7.9973H7.97953H7.96174H7.94395H7.92615H7.90834H7.89051H7.87267H7.85482H7.83696H7.81909H7.8012H7.7833H7.76539H7.74747H7.72954H7.71159H7.69362H7.67565H7.65766H7.63966H7.62164H7.60361H7.58557H7.56751H7.54944H7.53135H7.51325H7.49513H7.477H7.45885H7.44069H7.42251H7.40432H7.38611H7.36789H7.34965H7.33139H7.31312H7.29483H7.27652H7.2582H7.23986H7.22151H7.20313H7.18474H7.16634H7.14791H7.12947H7.111H7.09253H7.07403H7.05551H7.03698H7.01842H6.99985H6.98126H6.96265H6.94402H6.92537H6.9067H6.88802H6.86931H6.85058H6.83183H6.81306H6.79428H6.77547H6.75664H6.73779H6.71891H6.70002H6.68111H6.66217H6.64321H6.62423H6.60523H6.58621H6.56716H6.54809H6.529H6.50989H6.49075H6.47159H6.45241H6.4332H6.41398H6.39472H6.37545H6.35615H6.33682H6.31747H6.2981H6.2787H6.25928H6.23983H6.22036H6.20086H6.18134H6.16179H6.14222H6.12262H6.103H6.08335H6.06367H6.04397H6.02424H6.00448H5.9847H5.96489H5.94506H5.92519H5.9053H5.88538H5.86544H5.84546H5.82546H5.80543H5.78537H5.76529H5.74517H5.72503H5.70485H5.68465H5.66442H5.64416H5.62387H5.60356H5.58321H5.56283H5.54242H5.52198H5.50151H5.48101H5.46048H5.43992H5.41933H5.39871H5.37806H5.35737H5.33665H5.31591H5.29513H5.27431H5.25347H5.23259H5.21169H5.19074H5.16977H5.14876H5.12772H5.10665H5.08554H5.0644H5.04323H5.02202H5.00078H4.97951H4.9582H4.93686H4.91548H4.89407H4.87262H4.85114H4.82962H4.80807H4.78648H4.76486H4.7432H4.7215H4.69977H4.678H4.6562H4.63436H4.61248H4.59057H4.56862H4.54663H4.52461H4.50255H4.48045H4.45831H4.43614H4.41393H4.39167C3.62307 6.62665 3 7.24972 3 8.01832V10.6933V11.1933H3.5H4.78335V20.5018C4.78335 20.7779 5.00721 21.0018 5.28335 21.0018H18.6585C18.9346 21.0018 19.1585 20.7779 19.1585 20.5018V11.1933H20.4418H20.9418V10.6933V8.01832C20.9418 7.24972 20.3187 6.62665 19.5501 6.62665H15.6298C16.1033 6.15447 16.4183 5.604 16.5341 5.06513C16.6598 4.47971 16.5558 3.85142 16.0684 3.40829C15.5387 2.92666 14.7303 2.94826 14.1179 3.08439C13.4738 3.22757 12.8114 3.54401 12.3862 3.93062C12.2013 4.09874 12.0699 4.30815 11.9745 4.5218C11.8791 4.30815 11.7478 4.09874 11.5628 3.93062ZM11.4709 7.62665H11.46H11.4415H11.423H11.4045H11.3861H11.3676H11.3492H11.3308H11.3124H11.294H11.2757H11.2573H11.239H11.2207H11.2024H11.1841H11.1659H11.1476H11.1294H11.1112H11.093H11.0748H11.0567H11.0385H11.0204H11.0023H10.9842H10.9661H10.948H10.93H10.9119H10.8939H10.8759H10.8579H10.8399H10.8219H10.8039H10.786H10.7681H10.7501H10.7322H10.7143H10.6964H10.6786H10.6607H10.6429H10.625H10.6072H10.5894H10.5716H10.5538H10.536H10.5182H10.5005H10.4827H10.465H10.4473H10.4295H10.4118H10.3941H10.3764H10.3588H10.3411H10.3234H10.3058H10.2881H10.2705H10.2529H10.2353H10.2177H10.2001H10.1825H10.1649H10.1473H10.1297H10.1122H10.0946H10.0771H10.0596H10.042H10.0245H10.007H9.98946H9.97196H9.95446H9.93696H9.91947H9.90199H9.88451H9.86704H9.84958H9.83212H9.81466H9.79721H9.77976H9.76232H9.74488H9.72745H9.71002H9.69259H9.67517H9.65775H9.64033H9.62292H9.60551H9.58811H9.5707H9.5533H9.53591H9.51851H9.50112H9.48373H9.46634H9.44895H9.43156H9.41418H9.3968H9.37941H9.36203H9.34465H9.32728H9.3099H9.29252H9.27514H9.25776H9.24039H9.22301H9.20563H9.18825H9.17087H9.15349H9.13611H9.11873H9.10135H9.08396H9.06658H9.04919H9.0318H9.01441H8.99702H8.97962H8.96222H8.94482H8.92742H8.91001H8.89261H8.87519H8.85778H8.84036H8.82294H8.80551H8.78808H8.77065H8.75321H8.73577H8.71832H8.70087H8.68341H8.66595H8.64848H8.63101H8.61353H8.59605H8.57856H8.56107H8.54357H8.52606H8.50855H8.49103H8.47351H8.45598H8.43844H8.42089H8.40334H8.38578H8.36821H8.35063H8.33305H8.31546H8.29786H8.28025H8.26264H8.24501H8.22738H8.20974H8.19209H8.17443H8.15676H8.13908H8.12139H8.10369H8.08599H8.06827H8.05054H8.0328H8.01505H7.9973H7.97953H7.96174H7.94395H7.92615H7.90834H7.89051H7.87267H7.85482H7.83696H7.81909H7.8012H7.7833H7.76539H7.74747H7.72954H7.71159H7.69362H7.67565H7.65766H7.63966H7.62164H7.60361H7.58557H7.56751H7.54944H7.53135H7.51325H7.49513H7.477H7.45885H7.44069H7.42251H7.40432H7.38611H7.36789H7.34965H7.33139H7.31312H7.29483H7.27652H7.2582H7.23986H7.22151H7.20313H7.18474H7.16634H7.14791H7.12947H7.111H7.09253H7.07403H7.05551H7.03698H7.01842H6.99985H6.98126H6.96265H6.94402H6.92537H6.9067H6.88802H6.86931H6.85058H6.83183H6.81306H6.79428H6.77547H6.75664H6.73779H6.71891H6.70002H6.68111H6.66217H6.64321H6.62423H6.60523H6.58621H6.56716H6.54809H6.529H6.50989H6.49075H6.47159H6.45241H6.4332H6.41398H6.39472H6.37545H6.35615H6.33682H6.31747H6.2981H6.2787H6.25928H6.23983H6.22036H6.20086H6.18134H6.16179H6.14222H6.12262H6.103H6.08335H6.06367H6.04397H6.02424H6.00448H5.9847H5.96489H5.94506H5.92519H5.9053H5.88538H5.86544H5.84546H5.82546H5.80543H5.78537H5.76529H5.74517H5.72503H5.70485H5.68465H5.66442H5.64416H5.62387H5.60356H5.58321H5.56283H5.54242H5.52198H5.50151H5.48101H5.46048H5.43992H5.41933H5.39871H5.37806H5.35737H5.33665H5.31591H5.29513H5.27431H5.25347H5.23259H5.21169H5.19074H5.16977H5.14876H5.12772H5.10665H5.08554H5.0644H5.04323H5.02202H5.00078H4.97951H4.9582H4.93686H4.91548H4.89407H4.87262H4.85114H4.82962H4.80807H4.78648H4.76486H4.7432H4.7215H4.69977H4.678H4.6562H4.63436H4.61248H4.59057H4.56862H4.54663H4.52461H4.50255H4.48045H4.45831H4.43614H4.41393H4.39167C4.17536 7.62665 4 7.80201 4 8.01832V10.1933H5.28335H11.4709V7.62665ZM12.4709 10.1933V7.62665H12.4716H12.4913H12.511H12.5308H12.5506H12.5705H12.5903H12.6102H12.6301H12.6501H12.6701H12.6901H12.7101H12.7302H12.7502H12.7704H12.7905H12.8107H12.8309H12.8511H12.8714H12.8917H12.912H12.9323H12.9527H12.9731H12.9935H13.014H13.0345H13.055H13.0756H13.0962H13.1168H13.1375H13.1582H13.1789H13.1996H13.2204H13.2412H13.2621H13.2829H13.3038H13.3248H13.3458H13.3668H13.3878H13.4089H13.43H13.4511H13.4723H13.4935H13.5147H13.536H13.5573H13.5787H13.6H13.6215H13.6429H13.6644H13.6859H13.7075H13.729H13.7507H13.7723H13.794H13.8158H13.8375H13.8593H13.8812H13.903H13.925H13.9469H13.9689H13.9909H14.013H14.0351H14.0572H14.0794H14.1016H14.1239H19.5501C19.7665 7.62665 19.9418 7.80201 19.9418 8.01832V10.1933H18.6585H12.4709ZM11.4709 11.1933H5.78335V20.0018H11.4709V11.1933ZM12.4709 20.0018V11.1933H18.1585V20.0018H12.4709ZM14.3664 4.00851C14.8884 3.89248 15.2044 3.96818 15.3285 4.08099C15.4949 4.23232 15.5893 4.50008 15.5071 4.88282C15.4256 5.26212 15.176 5.69967 14.754 6.08332C14.397 6.40789 13.81 6.56732 13.2481 6.60693C13.035 6.62196 12.8443 6.61822 12.6975 6.60525C12.6953 6.39653 12.6995 6.1171 12.7298 5.81493C12.7566 5.54867 12.8024 5.28488 12.8756 5.05968C12.9512 4.82695 13.0419 4.6799 13.1261 4.60332C13.3944 4.35942 13.8763 4.11747 14.3664 4.00851Z"/>
</svg>
