<svg width="24" height="24" viewBox="0 0 24 24" xmlns="http://www.w3.org/2000/svg">
<path fill-rule="evenodd" clip-rule="evenodd" d="M2.02808 6.55C2.02808 5.14167 3.16975 4 4.57808 4H19.5781C20.9864 4 22.1281 5.14167 22.1281 6.55V17.55C22.1281 18.9583 20.9864 20.1 19.5781 20.1H4.57808C3.16975 20.1 2.02808 18.9583 2.02808 17.55V6.55ZM4.57808 5.1C3.77726 5.1 3.12808 5.74919 3.12808 6.55V11.0422H5.71734C5.6493 10.9925 5.58357 10.9391 5.52067 10.8819C4.9715 10.3826 4.60696 9.7799 4.48049 9.19103C4.35476 8.6056 4.45874 7.97731 4.94615 7.53419C5.47591 7.05255 6.28428 7.07416 6.89665 7.21028C7.47915 7.33977 8.07653 7.61093 8.5 7.94754V5.1H4.57808ZM7.72393 12.0422H3.12808V17.55C3.12808 18.3508 3.77726 19 4.57808 19H8.5V12.6057C8.45796 12.6679 8.41416 12.7306 8.36861 12.7934C7.74646 13.652 6.7477 14.6185 5.39443 14.8921C5.13119 14.9453 4.88998 14.7604 4.85566 14.4789C4.82135 14.1975 5.00693 13.9262 5.27017 13.873C6.2879 13.6672 7.08601 12.927 7.62419 12.1842C7.65872 12.1366 7.69197 12.0892 7.72393 12.0422ZM10.2909 12.0422H21.0281V17.55C21.0281 18.3508 20.3789 19 19.5781 19H9.5V12.5839C9.56657 12.6752 9.63738 12.7677 9.71233 12.8605C10.3786 13.6854 11.4265 14.5982 12.7923 14.8007C13.0579 14.8401 13.2891 14.6427 13.3087 14.3599C13.3282 14.077 13.1287 13.8158 12.863 13.7764C11.8359 13.6242 11.0002 12.9268 10.4239 12.2132C10.3775 12.1558 10.3331 12.0987 10.2909 12.0422ZM21.0281 11.0422H12.3608C12.4288 10.9925 12.4946 10.9391 12.5575 10.8819C13.1066 10.3826 13.4712 9.7799 13.5976 9.19103C13.7234 8.6056 13.6194 7.97731 13.132 7.53419C12.6022 7.05255 11.7938 7.07416 11.1815 7.21028C10.5622 7.34795 9.92606 7.64575 9.5 8.0121V5.1H19.5781C20.3789 5.1 21.0281 5.74919 21.0281 6.55V11.0422ZM11.43 8.1344C11.9519 8.01838 12.268 8.09407 12.3921 8.20689C12.5585 8.35821 12.6528 8.62597 12.5706 9.00871C12.4892 9.38801 12.2395 9.82556 11.8175 10.2092C11.4605 10.5338 10.8735 10.6932 10.3117 10.7328C10.0985 10.7479 9.90788 10.7441 9.7611 10.7311C9.75891 10.5224 9.76306 10.243 9.79341 9.94083C9.82016 9.67456 9.866 9.41078 9.93914 9.18558C10.0147 8.95284 10.1054 8.8058 10.1897 8.72922C10.4579 8.48532 10.9398 8.24336 11.43 8.1344ZM5.68606 8.20689C5.81015 8.09407 6.12618 8.01838 6.64812 8.1344C7.13829 8.24336 7.62019 8.48532 7.88846 8.72922C7.97269 8.8058 8.06339 8.95284 8.13898 9.18558C8.21213 9.41078 8.25796 9.67456 8.28471 9.94083C8.31506 10.243 8.31922 10.5224 8.31703 10.7311C8.17025 10.7441 7.97961 10.7479 7.76641 10.7328C7.20458 10.6932 6.61759 10.5338 6.26058 10.2092C5.8386 9.82556 5.58896 9.38801 5.50749 9.00871C5.42529 8.62597 5.51962 8.35821 5.68606 8.20689Z"/>
</svg>
