<svg width="24" height="24" viewBox="0 0 24 24" xmlns="http://www.w3.org/2000/svg">
<path fill-rule="evenodd" clip-rule="evenodd" d="M16.2656 3.00049C19.704 3.00049 22.5 5.82793 22.5 9.30312C22.5 10.8795 22.2238 12.1078 21.3279 13.4188C20.4561 14.6948 19.0091 16.0301 16.7423 17.8727L16.7403 17.8743L15.8039 18.6277L13.4397 20.4977C12.5938 21.1669 11.4062 21.1669 10.5603 20.4977L7.87198 18.3685L7.86962 18.3666C5.34748 16.344 3.74888 14.9199 2.78969 13.5867C1.80221 12.2143 1.5 10.9509 1.5 9.30312C1.5 5.82793 4.29597 3.00049 7.73438 3.00049C9.31949 3.00049 10.7507 3.57214 11.993 4.65582C13.1492 3.63896 14.4849 3.07332 15.9695 3.00706L15.9807 3.00656L16.2656 3.00049Z"/>
</svg>
