<svg width="24" height="24" viewBox="0 0 24 24" xmlns="http://www.w3.org/2000/svg">
<path fill-rule="evenodd" clip-rule="evenodd" d="M16.2656 3.00037V3.00049C19.704 3.00049 22.5 5.82793 22.5 9.30312C22.5 10.8795 22.2238 12.1078 21.3279 13.4188C20.4561 14.6948 19.0091 16.0301 16.7423 17.8727L16.7403 17.8743L15.8071 18.6251L15.8039 18.6277L15.8039 18.6277L13.4397 20.4977C12.5938 21.1669 11.4062 21.1669 10.5603 20.4977L10.56 20.4976L7.87198 18.3685L7.86962 18.3666C5.34748 16.344 3.74888 14.9199 2.78969 13.5867C1.80221 12.2143 1.5 10.9509 1.5 9.30312C1.5 5.82793 4.29597 3.00049 7.73438 3.00049C9.31949 3.00049 10.7507 3.57214 11.993 4.65582C13.1492 3.63896 14.4849 3.07332 15.9695 3.00706L15.9807 3.00656L15.9807 3.00669L16.2545 3.00061L16.2656 3.00037ZM7.73438 4.00049C4.85834 4.00049 2.5 6.37007 2.5 9.30312C2.5 10.7888 2.76145 11.8353 3.60142 13.0027C4.46953 14.2092 5.96183 15.5548 8.49408 17.5856C8.49446 17.5859 8.49485 17.5862 8.49523 17.5865L11.1806 19.7135C11.6629 20.095 12.3371 20.095 12.8194 19.7135L15.1803 17.846L15.1818 17.8447L16.1115 17.0968C16.1118 17.0965 16.1122 17.0962 16.1125 17.096C18.3829 15.2503 19.7221 13.9964 20.5023 12.8547C21.2586 11.7479 21.5 10.7297 21.5 9.30312C21.5 6.37192 19.1446 4.00347 16.271 4.00049L16.0086 4.00631C14.6921 4.06638 13.5051 4.59143 12.4586 5.58484L12.3448 5.69689L11.9941 6.04206L11.6434 5.69702L11.5259 5.58142C10.4001 4.52623 9.13293 4.00049 7.73438 4.00049Z"/>
</svg>
