<svg width="24" height="24" viewBox="0 0 24 24" xmlns="http://www.w3.org/2000/svg">
<path fill-rule="evenodd" clip-rule="evenodd" d="M3 10.9375C3 7.21308 6.90856 4 12 4C17.0914 4 21 7.21308 21 10.9375C21 14.6619 17.0914 17.875 12 17.875C10.524 17.875 9.13407 17.6004 7.90876 17.1162C7.73843 17.0489 7.54494 17.0801 7.4044 17.1975C6.74348 17.7498 5.35123 18.7152 4.27366 19.4091C4.39578 18.9489 4.51493 18.4804 4.6282 18.0328L4.67296 17.8559C4.87495 17.0572 5.05491 16.3457 5.20125 15.8641C5.25675 15.6814 5.20339 15.4831 5.06373 15.353C3.76 14.138 3 12.5966 3 10.9375ZM12 3C6.59803 3 2 6.44669 2 10.9375C2 12.817 2.8193 14.5277 4.15824 15.8684C4.02337 16.3457 3.86926 16.9551 3.70628 17.5996L3.65876 17.7875C3.43992 18.6522 3.20487 19.5719 2.97083 20.3572C2.9127 20.5522 2.97859 20.763 3.13744 20.8903C3.29629 21.0175 3.51641 21.0357 3.69404 20.9364C4.59775 20.431 6.73366 19.0054 7.81621 18.1507C9.09102 18.6164 10.5088 18.875 12 18.875C17.402 18.875 22 15.4283 22 10.9375C22 6.44669 17.402 3 12 3ZM12.5 7.5C12.5 7.22386 12.2761 7 12 7C11.7239 7 11.5 7.22386 11.5 7.5V8C11.5 8.27614 11.7239 8.5 12 8.5C12.2761 8.5 12.5 8.27614 12.5 8V7.5ZM10 9C9.72386 9 9.5 9.22386 9.5 9.5C9.5 9.77614 9.72386 10 10 10H11.5V14H10C9.72386 14 9.5 14.2239 9.5 14.5C9.5 14.7761 9.72386 15 10 15H14C14.2761 15 14.5 14.7761 14.5 14.5C14.5 14.2239 14.2761 14 14 14H12.5V9.5C12.5 9.22386 12.2761 9 12 9H10Z"/>
</svg>
