<svg width="24" height="24" viewBox="0 0 24 24" xmlns="http://www.w3.org/2000/svg">
<path fill-rule="evenodd" clip-rule="evenodd" d="M12 4C7.83155 4 4.40773 7.18812 4.03386 11.259L5.14645 10.1464C5.34171 9.95118 5.65829 9.95118 5.85355 10.1464C6.04882 10.3417 6.04882 10.6583 5.85355 10.8536L3.85355 12.8536C3.65829 13.0488 3.34171 13.0488 3.14645 12.8536L1.14645 10.8536C0.951184 10.6583 0.951184 10.3417 1.14645 10.1464C1.34171 9.95118 1.65829 9.95118 1.85355 10.1464L3.02543 11.3183C3.37382 6.6662 7.25877 3 12 3C16.9706 3 21 7.02944 21 12C21 16.9706 16.9706 21 12 21C9.53732 21 7.30484 20.0102 5.6803 18.4079C5.4837 18.214 5.48152 17.8974 5.67543 17.7008C5.86934 17.5042 6.18592 17.502 6.38252 17.696C7.82754 19.1212 9.81065 20 12 20C16.4183 20 20 16.4183 20 12C20 7.58172 16.4183 4 12 4ZM12 7.5C12 7.22386 11.7761 7 11.5 7C11.2239 7 11 7.22386 11 7.5V12C11 12.1326 11.0527 12.2598 11.1464 12.3536L13.6464 14.8536C13.8417 15.0488 14.1583 15.0488 14.3536 14.8536C14.5488 14.6583 14.5488 14.3417 14.3536 14.1464L12 11.7929V7.5Z"/>
</svg>
