<svg width="24" height="24" viewBox="0 0 24 24" xmlns="http://www.w3.org/2000/svg">
<path fill-rule="evenodd" clip-rule="evenodd" d="M3 6.5C3 6.22386 3.22386 6 3.5 6H20.5C20.7761 6 21 6.22386 21 6.5C21 6.77614 20.7761 7 20.5 7H3.5C3.22386 7 3 6.77614 3 6.5ZM3 12C3 11.7239 3.22386 11.5 3.5 11.5H20.5C20.7761 11.5 21 11.7239 21 12C21 12.2761 20.7761 12.5 20.5 12.5H3.5C3.22386 12.5 3 12.2761 3 12ZM3.5 17C3.22386 17 3 17.2239 3 17.5C3 17.7761 3.22386 18 3.5 18H20.5C20.7761 18 21 17.7761 21 17.5C21 17.2239 20.7761 17 20.5 17H3.5Z"/>
</svg>
