<svg width="24" height="24" viewBox="0 0 24 24" xmlns="http://www.w3.org/2000/svg">
<path fill-rule="evenodd" clip-rule="evenodd" d="M5.5 11.3333C5.5 9.28805 6.2044 7.71817 7.34116 6.65719C8.48266 5.5918 10.1031 5 12 5C13.8969 5 15.5173 5.5918 16.6588 6.65719C17.7956 7.71817 18.5 9.28805 18.5 11.3333C18.5 12.9647 17.4524 14.606 16.0087 16.1596C14.9935 17.2522 13.8491 18.2357 12.8402 19.1027C12.5465 19.3552 12.2642 19.5977 12 19.8303C11.7358 19.5978 11.4535 19.3552 11.1598 19.1028L11.1598 19.1027C10.1509 18.2357 9.00645 17.2522 7.99128 16.1596C6.54763 14.606 5.5 12.9647 5.5 11.3333ZM12 4C9.89695 4 8.01734 4.6582 6.65884 5.92614C5.2956 7.1985 4.5 9.04528 4.5 11.3333C4.5 13.3686 5.78571 15.2551 7.25872 16.8404C8.31416 17.9762 9.53473 19.0254 10.5574 19.9045L10.5574 19.9045C10.9657 20.2555 11.3424 20.5793 11.6645 20.8708C11.855 21.0431 12.145 21.0431 12.3355 20.8708C12.6575 20.5794 13.0342 20.2556 13.4424 19.9047L13.4426 19.9045C14.4653 19.0254 15.6858 17.9762 16.7413 16.8404C18.2143 15.2551 19.5 13.3686 19.5 11.3333C19.5 9.04528 18.7044 7.1985 17.3412 5.92614C15.9827 4.6582 14.1031 4 12 4ZM9.5 11C9.5 9.61929 10.6193 8.5 12 8.5C13.3807 8.5 14.5 9.61929 14.5 11C14.5 12.3807 13.3807 13.5 12 13.5C10.6193 13.5 9.5 12.3807 9.5 11ZM12 7.5C10.067 7.5 8.5 9.067 8.5 11C8.5 12.933 10.067 14.5 12 14.5C13.933 14.5 15.5 12.933 15.5 11C15.5 9.067 13.933 7.5 12 7.5Z" />
</svg>
