<svg width="24" height="24" viewBox="0 0 24 24" xmlns="http://www.w3.org/2000/svg">
<path fill-rule="evenodd" clip-rule="evenodd" d="M20.4048 3.14646C20.5485 3.29021 20.5909 3.50668 20.512 3.69404L13.311 20.7965C13.2218 21.0083 12.9998 21.132 12.7728 21.0965C12.5458 21.0609 12.3722 20.8752 12.3521 20.6463L11.5886 11.9627L2.90495 11.1991C2.67605 11.179 2.49034 11.0055 2.45477 10.7784C2.4192 10.5514 2.54294 10.3294 2.75471 10.2402L19.8572 3.0392C20.0445 2.96031 20.261 3.00271 20.4048 3.14646ZM5.00077 10.3796L12.0937 11.0032C12.3353 11.0245 12.5268 11.216 12.548 11.4575L13.1717 18.5505L19.1141 4.43708L5.00077 10.3796Z"/>
</svg>
