<svg width="24" height="24" viewBox="0 0 24 24" xmlns="http://www.w3.org/2000/svg">
<path fill-rule="evenodd" clip-rule="evenodd" d="M5 9C5 5.13401 8.13401 2 12 2C15.866 2 19 5.13401 19 9C19 12.866 15.866 16 12 16C8.13401 16 5 12.866 5 9ZM12 1C7.58172 1 4 4.58172 4 9C4 13.2504 7.31476 16.7267 11.5002 16.9846C11.5001 16.9897 11.5 16.9949 11.5 17V20C11.5 20.2761 11.7239 20.5 12 20.5C12.2761 20.5 12.5 20.2761 12.5 20V17C12.5 16.9949 12.4999 16.9897 12.4998 16.9846C16.6852 16.7267 20 13.2504 20 9C20 4.58172 16.4183 1 12 1ZM10 9C10 7.89543 10.8954 7 12 7C13.1046 7 14 7.89543 14 9C14 10.1046 13.1046 11 12 11C10.8954 11 10 10.1046 10 9ZM12 6C10.3431 6 9 7.34315 9 9C9 10.6569 10.3431 12 12 12C13.6569 12 15 10.6569 15 9C15 7.34315 13.6569 6 12 6ZM9.5 20C9.77614 20 10 20.2239 10 20.5C10 21.2301 10.7855 22 12 22C13.2145 22 14 21.2301 14 20.5C14 20.2239 14.2239 20 14.5 20C14.7761 20 15 20.2239 15 20.5C15 21.9791 13.547 23 12 23C10.453 23 9 21.9791 9 20.5C9 20.2239 9.22386 20 9.5 20Z"/>
</svg>
