<svg width="24" height="24" viewBox="0 0 24 24" xmlns="http://www.w3.org/2000/svg">
<path fill-rule="evenodd" clip-rule="evenodd" d="M19.1745 4.70723C19.9884 5.47604 20.5 6.61947 20.5 8.125C20.5 9.30028 19.7519 10.5013 18.6863 11.6618C18.1486 12.2475 17.5635 12.7895 16.9998 13.289C16.9955 13.8053 16.917 14.3135 16.7786 14.8114C16.8383 14.7593 16.8993 14.7062 16.9613 14.6523L16.9614 14.6522L16.9615 14.6521L16.9617 14.6519L16.9618 14.6519C17.7212 13.9912 18.6356 13.1957 19.4229 12.3382C20.5189 11.1445 21.5 9.69972 21.5 8.125C21.5 6.38053 20.8999 4.96146 19.8612 3.98027C18.8265 3.003 17.3993 2.5 15.8124 2.5C13.6277 2.5 11.7541 3.4583 10.7972 5.24659C11.137 5.32292 11.4677 5.41681 11.7882 5.52804C12.5762 4.23205 14.019 3.5 15.8124 3.5C17.1899 3.5 18.3564 3.9345 19.1745 4.70723ZM10.5489 6.21561C10.5505 6.21906 10.5522 6.22249 10.5539 6.2259C9.90282 6.07593 9.21429 6 8.49998 6C6.39692 6 4.51732 6.6582 3.15882 7.92614C1.80619 9.18859 1.0124 11.0166 1.00012 13.28C1.01531 15.1424 2.22292 17.0058 3.86483 18.7581C5.0278 19.9993 6.34094 21.1184 7.49502 22.102C7.84782 22.4026 8.18575 22.6906 8.49998 22.9656C8.8141 22.6907 9.1519 22.4028 9.50455 22.1023L9.50494 22.102C10.659 21.1184 11.9722 19.9993 13.1351 18.7581C14.777 17.0058 15.9846 15.1424 15.9998 13.28C15.9876 11.0166 15.1938 9.1886 13.8411 7.92614C13.1158 7.24919 12.242 6.74604 11.2649 6.42408C11.2706 6.42054 11.2762 6.41689 11.2817 6.41312C11.0442 6.33701 10.7998 6.27108 10.5489 6.21561ZM16.5865 10.4118C17.6773 10.1248 18.5 9.16853 18.5 8C18.5 6.59703 17.314 5.5 15.902 5.5C15.0373 5.5 14.2632 5.90801 13.7889 6.54519C14.0576 6.73443 14.313 6.94065 14.5539 7.16361C14.5583 7.16764 14.5626 7.17168 14.5669 7.17572C14.8498 6.7734 15.3374 6.5 15.902 6.5C16.8073 6.5 17.5 7.19383 17.5 8C17.5 8.70766 16.9663 9.32876 16.2235 9.46998C16.3623 9.77066 16.4836 10.0848 16.5865 10.4118ZM13.1588 8.65719C14.2956 9.71817 15 11.2881 15 13.3333C15 14.9647 13.9524 16.606 12.5087 18.1596C11.4935 19.2522 10.3491 20.2357 9.34023 21.1027L9.3402 21.1027L9.34014 21.1028C9.04642 21.3552 8.76419 21.5978 8.49998 21.8303C8.23575 21.5977 7.9535 21.3552 7.65976 21.1027L7.65973 21.1027C6.65084 20.2357 5.50642 19.2522 4.49126 18.1596C3.0476 16.606 1.99998 14.9647 1.99998 13.3333C1.99998 11.2881 2.70438 9.71817 3.84114 8.65719C4.98263 7.5918 6.60303 7 8.49998 7C10.3969 7 12.0173 7.5918 13.1588 8.65719ZM8.49998 10.5C9.88069 10.5 11 11.6193 11 13C11 14.3807 9.88069 15.5 8.49998 15.5C7.11927 15.5 5.99998 14.3807 5.99998 13C5.99998 11.6193 7.11927 10.5 8.49998 10.5ZM12 13C12 11.067 10.433 9.5 8.49998 9.5C6.56698 9.5 4.99998 11.067 4.99998 13C4.99998 14.933 6.56698 16.5 8.49998 16.5C10.433 16.5 12 14.933 12 13Z"/>
</svg>
