<svg width="24" height="24" viewBox="0 0 24 24" xmlns="http://www.w3.org/2000/svg">
<path fill-rule="evenodd" clip-rule="evenodd" d="M7 8C7 5.23858 9.23858 3 12 3C14.7614 3 17 5.23858 17 8V9H19.5C19.7761 9 20 9.22386 20 9.5V20.5C20 20.7761 19.7761 21 19.5 21H4.5C4.22386 21 4 20.7761 4 20.5V9.5C4 9.22386 4.22386 9 4.5 9H7V8ZM16 8V9H8V8C8 5.79086 9.79086 4 12 4C14.2091 4 16 5.79086 16 8ZM5 10H7H8H16H17H19V20H5V10ZM11 14.4545C11 13.9418 11.4331 13.5 12 13.5C12.5669 13.5 13 13.9418 13 14.4545C13 14.7996 12.8072 15.1091 12.5054 15.2784C12.3816 15.3478 12.3129 15.4472 12.2778 15.5095C12.2411 15.5748 12.2189 15.6393 12.2048 15.688C12.1769 15.7846 12.1608 15.8919 12.1492 15.9825C12.1377 16.0728 12.1295 16.1526 12.1215 16.2305L12.1215 16.2306C12.11 16.3421 12.099 16.4496 12.0793 16.5778C12.0565 16.7263 12.0294 16.8392 12 16.9189C11.9706 16.8392 11.9435 16.7263 11.9207 16.5778C11.901 16.4496 11.89 16.3421 11.8785 16.2306L11.8785 16.2306C11.8705 16.1527 11.8623 16.0728 11.8508 15.9825C11.8392 15.8919 11.8231 15.7846 11.7952 15.688C11.7811 15.6393 11.7589 15.5748 11.7222 15.5095C11.6871 15.4472 11.6184 15.3478 11.4946 15.2784C11.1928 15.1091 11 14.7996 11 14.4545ZM12 12.5C10.91 12.5 10 13.3607 10 14.4545C10 15.1213 10.3408 15.7041 10.8514 16.0548C10.8537 16.0705 10.8562 16.0885 10.8588 16.1089C10.8643 16.1521 10.8708 16.2131 10.8782 16.2832L10.8782 16.2832L10.8782 16.2832C10.8926 16.419 10.9107 16.5889 10.9323 16.7296C10.9671 16.9564 11.0269 17.2427 11.1611 17.4825C11.3081 17.7454 11.578 18 12 18C12.422 18 12.6919 17.7454 12.8389 17.4825C12.9731 17.2427 13.0329 16.9564 13.0677 16.7296C13.0893 16.5889 13.1074 16.419 13.1218 16.2832L13.1218 16.2832C13.1292 16.2131 13.1357 16.1521 13.1412 16.1089C13.1438 16.0885 13.1463 16.0705 13.1486 16.0548C13.6592 15.7041 14 15.1213 14 14.4545C14 13.3607 13.09 12.5 12 12.5Z"/>
</svg>
