<svg width="24" height="24" viewBox="0 0 24 24" xmlns="http://www.w3.org/2000/svg">
<path fill-rule="evenodd" clip-rule="evenodd" d="M4.5 4C3.11929 4 2 5.11929 2 6.5V17.5C2 18.8807 3.11929 20 4.5 20H19.5C20.8807 20 22 18.8807 22 17.5V6.5C22 5.11929 20.8807 4 19.5 4H4.5ZM3 6.5C3 5.67157 3.67157 5 4.5 5H19.5C20.3284 5 21 5.67157 21 6.5V17.5C21 18.3284 20.3284 19 19.5 19H4.5C3.67157 19 3 18.3284 3 17.5V6.5ZM14.5533 7.99259C14.2012 7.24209 13.9537 6.73608 13.8324 6.5H10.8293L10.8038 6.54839C10.5201 7.0909 9.61082 8.94198 8.5528 11.4577H9.65755L9.74023 11.4527C9.86666 11.4364 9.93894 11.3836 9.99725 11.3358L11.5445 10.0706L11.6722 9.73514C11.8866 9.17745 12.1086 8.63065 12.3378 8.15297C12.4753 8.45854 12.6051 8.76404 12.7418 9.08928C13.3388 8.60885 13.7312 8.3479 13.7511 8.33507L13.7595 8.32949L13.9106 8.24095C14.1148 8.13087 14.33 8.05171 14.5533 7.99259ZM15.3496 8.51408C16.1357 8.51408 16.6695 9.02033 16.8236 9.25807H17.8068C17.8763 9.25807 17.8914 9.35571 17.8344 9.38408L16.922 9.81234C16.922 9.81234 16.6318 11.9147 15.7987 13.2395C14.9664 14.5642 13.4287 14.7263 12.7846 14.7263H12.7576L13.7472 17.5H13.1578L12.0785 14.5088C12.0647 14.4678 12.0766 14.4211 12.1066 14.4082C12.5418 14.2428 12.6401 14.1878 12.9494 14.0083C13.8479 13.4413 14.3391 12.488 14.5358 12.0179C14.5493 11.9908 14.5465 11.9631 14.5174 11.9491C14.4577 12.0512 14.3948 12.1571 14.328 12.2563C13.5495 13.4148 12.3641 14.2508 10.4365 14.2508H7.76909C7.69967 14.2508 7.69967 14.1697 7.72718 14.1427L8.42929 13.4264C7.44711 13.4264 6.88431 12.8586 6.67357 12.2222L6.67157 12.2162C6.65751 12.175 6.63573 12.111 6.71645 12.111H9.70602C10.0156 12.111 10.2397 12.0125 10.4227 11.8612L12.7988 9.90261C13.5748 9.2408 14.1086 8.88077 14.1086 8.88077C14.4746 8.64437 14.8834 8.51408 15.3496 8.51408ZM16.5218 13.162C16.9976 14.3297 17.5004 15.5662 17.9808 16.915L18.1852 17.5H15.4822L14.5533 14.9835C15.2913 14.6822 15.8712 14.1945 16.2783 13.5644L16.2934 13.5411C16.3746 13.4157 16.4505 13.2985 16.5218 13.162ZM14.1011 15.176L14.8691 17.5H14.3329L13.6059 15.2819C13.7624 15.2589 13.931 15.2288 14.1011 15.176ZM9.12451 17.5L9.97397 14.8662H7.4134L7.30379 15.1605C7.04623 15.8563 6.77636 16.6188 6.5 17.5H9.12451ZM15.027 9.75374C15.027 9.49604 15.2394 9.28876 15.5005 9.28876C15.5741 9.28876 15.6429 9.30604 15.705 9.33549L15.7025 9.33508C15.6907 9.33314 15.679 9.33121 15.6668 9.33121C15.5155 9.33121 15.3929 9.45267 15.3929 9.60076C15.3929 9.74938 15.5155 9.86924 15.6668 9.86924C15.818 9.86924 15.94 9.74938 15.94 9.60076C15.94 9.59435 15.9394 9.58852 15.9388 9.58293L15.9381 9.57559C15.961 9.63021 15.9744 9.69017 15.9744 9.75374C15.9744 10.0097 15.7621 10.2183 15.5005 10.2183C15.2394 10.2183 15.027 10.0097 15.027 9.75374Z"/>
</svg>
