<svg width="24" height="24" viewBox="0 0 24 24" xmlns="http://www.w3.org/2000/svg">
<path fill-rule="evenodd" clip-rule="evenodd" d="M2 5.5C2 5.22386 2.22386 5 2.5 5H21.5C21.7761 5 22 5.22386 22 5.5V18.5C22 18.7761 21.7761 19 21.5 19H2.5C2.22386 19 2 18.7761 2 18.5V5.5ZM3.75479 6L9.41369 11.3611L12 13.8112L14.6561 11.2949L20.2452 6H3.75479ZM21 6.66243L15.7073 11.6765L21 17.2477V6.66243ZM20.3353 18L14.9814 12.3643L12.3439 14.863C12.151 15.0457 11.849 15.0457 11.6561 14.863L9.08474 12.4269L3.68122 18H20.3353ZM3 17.266V6.66243L8.35874 11.7391L3 17.266Z"/>
</svg>
