<svg width="24" height="24" viewBox="0 0 24 24" xmlns="http://www.w3.org/2000/svg">
<path fill-rule="evenodd" clip-rule="evenodd" d="M1.00897 6.00903C1.00897 5.45675 1.45669 5.00903 2.00897 5.00903H21.991C22.5433 5.00903 22.991 5.45675 22.991 6.00903C22.991 6.56132 22.5433 7.00903 21.991 7.00903H2.00897C1.45669 7.00903 1.00897 6.56132 1.00897 6.00903ZM1.00897 12.0629C1.00897 11.5106 1.45669 11.0629 2.00897 11.0629H21.991C22.5433 11.0629 22.991 11.5106 22.991 12.0629C22.991 12.6152 22.5433 13.0629 21.991 13.0629H2.00897C1.45669 13.0629 1.00897 12.6152 1.00897 12.0629ZM2.00897 17.1167C1.45669 17.1167 1.00897 17.5644 1.00897 18.1167C1.00897 18.669 1.45669 19.1167 2.00897 19.1167H21.991C22.5433 19.1167 22.991 18.669 22.991 18.1167C22.991 17.5644 22.5433 17.1167 21.991 17.1167H2.00897Z"/>
</svg>
