<svg width="24" height="24" viewBox="0 0 24 24" xmlns="http://www.w3.org/2000/svg">
<path fill-rule="evenodd" clip-rule="evenodd" d="M12.2535 1.56903C12.097 1.47699 11.903 1.47699 11.7465 1.56903L3.24649 6.56903C3.09377 6.65887 3 6.82282 3 7V17C3 17.1772 3.09377 17.3411 3.24649 17.431L11.7465 22.431C11.903 22.523 12.097 22.523 12.2535 22.431L20.7535 17.431C20.9062 17.3411 21 17.1772 21 17V7C21 6.82282 20.9062 6.65887 20.7535 6.56903L12.2535 1.56903ZM4 7.87421V16.714L11.5 21.1258V12.286L4 7.87421ZM12.5 21.1258L20 16.714V7.87421L12.5 12.286V21.1258ZM19.5138 7L12 2.58009L4.48615 7L12 11.4199L19.5138 7Z"/>
</svg>
