<svg width="24" height="24" viewBox="0 0 24 24" xmlns="http://www.w3.org/2000/svg">
<path fill-rule="evenodd" clip-rule="evenodd" d="M11.7465 1.56903C11.903 1.47699 12.097 1.47699 12.2535 1.56903L20.7535 6.56903C20.9062 6.65887 21 6.82282 21 7V17C21 17.1772 20.9062 17.3411 20.7535 17.431L12.2535 22.431C12.097 22.523 11.903 22.523 11.7465 22.431L3.24649 17.431C3.09377 17.3411 3 17.1772 3 17V7C3 6.82282 3.09377 6.65887 3.24649 6.56903L7.49649 4.06903L11.7465 1.56903ZM8.73615 4.5L16.25 8.91991L19.5138 7L12 2.58009L8.73615 4.5ZM20 7.87421L16.5035 9.93097L12.5 12.286L12.5 21.1258L20 16.714V7.87421ZM11.5 21.1258L11.5 12.286L4 7.87421V16.714L11.5 21.1258ZM4.48615 7L12 11.4199L15.2638 9.5L7.75 5.08009L4.48615 7ZM4.57125 14.7428C4.71333 14.506 5.02046 14.4292 5.25725 14.5713L7.75725 16.0713C7.99404 16.2133 8.07082 16.5205 7.92875 16.7572C7.78667 16.994 7.47954 17.0708 7.24275 16.9287L4.74275 15.4287C4.50596 15.2867 4.42918 14.9795 4.57125 14.7428Z"/>
</svg>
