<svg width="24" height="24" viewBox="0 0 24 24" xmlns="http://www.w3.org/2000/svg">
<path fill-rule="evenodd" clip-rule="evenodd" d="M15.4601 4.14645C15.2649 3.95119 14.9483 3.95119 14.753 4.14645L4.50668 14.3928C4.50443 14.395 4.5022 14.3972 4.49998 14.3994C4.49776 14.4016 4.49556 14.4038 4.4934 14.4061L4.14643 14.7531C4.03902 14.8605 3.98626 15.0109 4.00304 15.1618L4.35659 18.3438C4.38242 18.5762 4.56589 18.7597 4.79832 18.7855L7.9803 19.1391C8.13126 19.1559 8.28166 19.1031 8.38907 18.9957L18.9957 8.38909C19.1909 8.19383 19.1909 7.87725 18.9957 7.68199L15.4601 4.14645ZM5.06593 15.6724L5.3063 17.8358L7.46968 18.0762L5.06593 15.6724ZM8.38912 17.5814L17.935 8.03554L15.1066 5.20711L5.5607 14.753L8.38912 17.5814Z"/>
</svg>
