<svg width="24" height="24" viewBox="0 0 24 24" xmlns="http://www.w3.org/2000/svg">
<path d="M17.3121 5.18544C17.6516 5.46829 17.6974 5.97274 17.4146 6.31216L7.41458 18.3121C7.13173 18.6515 6.62727 18.6974 6.28785 18.4145C5.94843 18.1317 5.90257 17.6272 6.18542 17.2878L16.1854 5.28787C16.4683 4.94845 16.9727 4.90259 17.3121 5.18544Z"/>
<path fill-rule="evenodd" clip-rule="evenodd" d="M16.8 12C18.3464 12 19.6 13.2536 19.6 14.8C19.6 16.3464 18.3464 17.6 16.8 17.6C15.2536 17.6 14 16.3464 14 14.8C14 13.2536 15.2536 12 16.8 12ZM16.8 13.6C16.1373 13.6 15.6 14.1372 15.6 14.8C15.6 15.4627 16.1373 16 16.8 16C17.4627 16 18 15.4627 18 14.8C18 14.1372 17.4627 13.6 16.8 13.6Z"/>
<path fill-rule="evenodd" clip-rule="evenodd" d="M6.8 6.00002C8.3464 6.00002 9.6 7.25362 9.6 8.80001C9.6 10.3464 8.3464 11.6 6.8 11.6C5.2536 11.6 4 10.3464 4 8.80001C4 7.25362 5.2536 6.00002 6.8 6.00002ZM6.8 7.60001C6.13726 7.60001 5.6 8.13727 5.6 8.80001C5.6 9.46275 6.13726 10 6.8 10C7.46274 10 8 9.46275 8 8.80001C8 8.13727 7.46274 7.60001 6.8 7.60001Z"/>
</svg>
