<svg width="24" height="24" viewBox="0 0 24 24" xmlns="http://www.w3.org/2000/svg">
<path fill-rule="evenodd" clip-rule="evenodd" d="M4.85945 5.45349C4.75622 5.56196 4.66037 5.66266 4.5798 5.74332C4.15343 6.16957 3.99345 6.81764 4.0002 7.51457C4.00709 8.2249 4.18609 9.06713 4.53134 9.98413C5.22307 11.8213 6.60862 14.0294 8.78693 16.2082L8.78701 16.2083C10.9658 18.3866 13.1738 19.7728 15.0109 20.4654C15.9278 20.8111 16.77 20.9906 17.4803 20.998C18.1773 21.0052 18.8257 20.8456 19.2521 20.4192C19.3324 20.339 19.432 20.2441 19.5393 20.1419C19.7166 19.9731 19.9148 19.7843 20.081 19.6092C20.3654 19.3095 20.6567 18.9526 20.8313 18.5387C21.0127 18.1083 21.0654 17.6204 20.8755 17.097C20.6917 16.5906 20.2985 16.0996 19.6868 15.608C18.5217 14.6715 17.6276 14.3042 16.8152 14.4817C16.4179 14.5685 16.0967 14.7754 15.8232 15.004C15.6168 15.1765 15.4115 15.3849 15.2165 15.5829C15.1618 15.6385 15.1079 15.6932 15.055 15.7461C15.0363 15.7648 14.985 15.8124 14.784 15.7689C14.5726 15.7231 14.2858 15.5902 13.9318 15.3601C13.2305 14.9042 12.4065 14.161 11.6202 13.3753C11.6202 13.3752 11.6201 13.3752 11.6201 13.3751C11.62 13.3751 11.62 13.3751 11.62 13.375C10.8342 12.5888 10.0913 11.7647 9.6352 11.0634C9.40499 10.7094 9.27187 10.4223 9.22579 10.2107C9.18222 10.0107 9.2289 9.95857 9.2474 9.93993C9.29999 9.88739 9.35438 9.83387 9.40958 9.77956C9.60822 9.58411 9.81725 9.37843 9.99019 9.17153C10.2189 8.89789 10.4259 8.57666 10.5128 8.17928C10.6903 7.36675 10.3226 6.47287 9.38618 5.30837C8.8947 4.69686 8.40419 4.30359 7.89845 4.11971C7.37546 3.92956 6.88805 3.98216 6.45813 4.16371C6.04477 4.33827 5.68851 4.62974 5.3894 4.91406C5.2159 5.07898 5.02785 5.27657 4.85945 5.45349ZM7.55676 5.05952C7.82808 5.15817 8.17929 5.40299 8.60679 5.93491L8.60687 5.93502C9.50949 7.05752 9.60979 7.62714 9.5358 7.96586C9.49686 8.1441 9.39826 8.32044 9.22292 8.5302C9.08417 8.6962 8.92272 8.85521 8.73172 9.04333C8.67093 9.10321 8.60714 9.16603 8.54014 9.23297L8.53924 9.23387C8.19644 9.5781 8.16253 10.0279 8.24869 10.4235C8.33268 10.8092 8.54131 11.2155 8.79685 11.6085C9.31223 12.4011 10.1167 13.2854 10.9129 14.0821L10.9131 14.0824C11.7097 14.8785 12.5941 15.6832 13.3868 16.1985C13.7798 16.454 14.1863 16.6626 14.5722 16.7462C14.9685 16.8321 15.4183 16.7971 15.7621 16.4532C15.8294 16.3859 15.8925 16.3219 15.9527 16.2608C16.1402 16.0706 16.2987 15.9097 16.4644 15.7714C16.674 15.5962 16.8503 15.4976 17.0286 15.4587C17.3674 15.3847 17.9374 15.4849 19.0603 16.3874L19.0603 16.3874C19.5921 16.8148 19.8368 17.1663 19.9354 17.4381C20.0279 17.6928 20.0074 17.9188 19.9098 18.1502C19.8053 18.398 19.6119 18.6507 19.3557 18.9208C19.1961 19.0889 19.0456 19.2316 18.8904 19.3786C18.7793 19.4838 18.6659 19.5913 18.5451 19.712L18.545 19.7121C18.3914 19.8658 18.0642 20.004 17.4907 19.998C16.9304 19.9922 16.207 19.8476 15.3637 19.5297C13.6803 18.8951 11.5893 17.5958 9.49404 15.5011L9.14053 15.8547L9.49404 15.5011C7.39935 13.4059 6.10099 11.3151 5.46721 9.63176C5.14971 8.78851 5.00559 8.06511 5.00016 7.50488C4.9946 6.93142 5.13304 6.60416 5.28693 6.4504L5.28725 6.45007C5.40937 6.32783 5.51756 6.21355 5.62341 6.10173C5.76936 5.94756 5.91087 5.79807 6.07837 5.63886C6.3481 5.38246 6.60016 5.18924 6.84717 5.08493C7.07763 4.98761 7.30266 4.96714 7.55676 5.05952Z"/>
</svg>
