<svg width="24" height="24" viewBox="0 0 24 24" xmlns="http://www.w3.org/2000/svg">
<path fill-rule="evenodd" clip-rule="evenodd" d="M7 2.5C6.72386 2.5 6.5 2.72386 6.5 3V8.5H4C3.33696 8.5 2.70107 8.76339 2.23223 9.23223C1.76339 9.70107 1.5 10.337 1.5 11V16C1.5 16.663 1.76339 17.2989 2.23223 17.7678C2.70107 18.2366 3.33696 18.5 4 18.5H6C6.27614 18.5 6.5 18.2761 6.5 18V21C6.5 21.2761 6.72386 21.5 7 21.5H17C17.2761 21.5 17.5 21.2761 17.5 21V18C17.5 18.2761 17.7239 18.5 18 18.5H20C20.663 18.5 21.2989 18.2366 21.7678 17.7678C22.2366 17.2989 22.5 16.663 22.5 16V11C22.5 10.337 22.2366 9.70107 21.7678 9.23223C21.2989 8.76339 20.663 8.5 20 8.5H17.5V3C17.5 2.72386 17.2761 2.5 17 2.5H7ZM17.5 18V16C17.5 15.7239 17.2761 15.5 17 15.5H7C6.72386 15.5 6.5 15.7239 6.5 16V18C6.5 17.7239 6.27614 17.5 6 17.5H4C3.60218 17.5 3.22064 17.342 2.93934 17.0607C2.65804 16.7794 2.5 16.3978 2.5 16V11C2.5 10.6022 2.65804 10.2206 2.93934 9.93934C3.22064 9.65804 3.60218 9.5 4 9.5H7H17H20C20.3978 9.5 20.7794 9.65804 21.0607 9.93934C21.342 10.2206 21.5 10.6022 21.5 11V16C21.5 16.3978 21.342 16.7794 21.0607 17.0607C20.7794 17.342 20.3978 17.5 20 17.5H18C17.7239 17.5 17.5 17.7239 17.5 18ZM16.5 8.5V3.5H7.5V8.5H16.5ZM5.5 13.5C6.32843 13.5 7 12.8284 7 12C7 11.1716 6.32843 10.5 5.5 10.5C4.67157 10.5 4 11.1716 4 12C4 12.8284 4.67157 13.5 5.5 13.5ZM16.5 20.5H7.5V16.5H16.5V20.5Z"/>
</svg>
