<svg width="24" height="24" viewBox="0 0 24 24" xmlns="http://www.w3.org/2000/svg">
<path fill-rule="evenodd" clip-rule="evenodd" d="M7 4.5C5.61929 4.5 4.5 5.61929 4.5 7C4.5 8.38071 5.61929 9.5 7 9.5C8.38071 9.5 9.5 8.38071 9.5 7C9.5 5.61929 8.38071 4.5 7 4.5ZM3.5 7C3.5 5.067 5.067 3.5 7 3.5C8.933 3.5 10.5 5.067 10.5 7C10.5 8.933 8.933 10.5 7 10.5C5.067 10.5 3.5 8.933 3.5 7ZM18.941 4.15328C19.1362 4.34854 19.1362 4.66513 18.941 4.86039L5.25701 18.5443C5.06175 18.7396 4.74517 18.7396 4.5499 18.5443C4.35464 18.3491 4.35464 18.0325 4.5499 17.8372L18.2338 4.15328C18.4291 3.95802 18.7457 3.95802 18.941 4.15328ZM14.5 16C14.5 14.6193 15.6193 13.5 17 13.5C18.3807 13.5 19.5 14.6193 19.5 16C19.5 17.3807 18.3807 18.5 17 18.5C15.6193 18.5 14.5 17.3807 14.5 16ZM17 12.5C15.067 12.5 13.5 14.067 13.5 16C13.5 17.933 15.067 19.5 17 19.5C18.933 19.5 20.5 17.933 20.5 16C20.5 14.067 18.933 12.5 17 12.5Z"/>
</svg>
