<svg width="24" height="24" viewBox="0 0 24 24" xmlns="http://www.w3.org/2000/svg">
<path fill-rule="evenodd" clip-rule="evenodd" d="M3 10.9375C3 7.21308 6.90856 4 12 4C17.0914 4 21 7.21308 21 10.9375C21 14.6619 17.0914 17.875 12 17.875C10.524 17.875 9.13407 17.6004 7.90876 17.1162C7.73843 17.0489 7.54494 17.0801 7.4044 17.1975C6.74348 17.7498 5.35123 18.7152 4.27366 19.4091C4.39578 18.9489 4.51493 18.4804 4.6282 18.0328L4.67296 17.8559C4.87495 17.0572 5.05491 16.3457 5.20125 15.8641C5.25675 15.6814 5.20339 15.4831 5.06373 15.353C3.76 14.138 3 12.5966 3 10.9375ZM12 3C6.59803 3 2 6.44669 2 10.9375C2 12.817 2.8193 14.5277 4.15824 15.8684C4.02337 16.3457 3.86926 16.9551 3.70628 17.5996L3.65876 17.7875C3.43992 18.6522 3.20487 19.5719 2.97083 20.3572C2.9127 20.5522 2.97859 20.763 3.13744 20.8903C3.29629 21.0175 3.51641 21.0357 3.69404 20.9364C4.59775 20.431 6.73366 19.0054 7.81621 18.1507C9.09102 18.6164 10.5088 18.875 12 18.875C17.402 18.875 22 15.4283 22 10.9375C22 6.44669 17.402 3 12 3ZM9.5 8.625C9.5 7.8843 9.7657 7.37648 10.1734 7.04352C10.595 6.69923 11.2213 6.5 12 6.5C12.9658 6.5 13.5767 6.79282 13.9464 7.1702C14.321 7.5526 14.5 8.07477 14.5 8.625C14.5 9.08772 14.3966 9.38251 14.2507 9.61036C14.0953 9.8533 13.8719 10.0536 13.5597 10.3073C13.5193 10.34 13.478 10.3733 13.4359 10.4073L13.4356 10.4075C12.8298 10.8952 12.0533 11.5204 11.5358 12.8143C11.4332 13.0707 11.5579 13.3617 11.8143 13.4642C12.0707 13.5668 12.3617 13.4421 12.4642 13.1857C12.8829 12.139 13.4808 11.6563 14.0731 11.1782C14.1122 11.1466 14.1513 11.1151 14.1903 11.0834C14.5031 10.8292 14.8422 10.5412 15.093 10.1494C15.3534 9.74249 15.5 9.25603 15.5 8.625C15.5 7.86273 15.2504 7.0724 14.6608 6.47042C14.0661 5.86343 13.177 5.5 12 5.5C11.0644 5.5 10.1907 5.73827 9.54088 6.26898C8.87716 6.81102 8.5 7.6157 8.5 8.625C8.5 8.90114 8.72386 9.125 9 9.125C9.27614 9.125 9.5 8.90114 9.5 8.625Z"/>
<path d="M12 15.5V16" stroke="#010810" stroke-linecap="round" stroke-linejoin="round"/>
</svg>
