<svg width="24" height="24" viewBox="0 0 24 24" xmlns="http://www.w3.org/2000/svg">
<path fill-rule="evenodd" clip-rule="evenodd" d="M6.2312 7.60718C6.2312 6.57558 6.76942 5.78766 7.76601 5.23124C8.7834 4.6632 10.2559 4.35718 11.9999 4.35718C14.1765 4.35718 15.6315 4.81392 16.5272 5.43907C17.4103 6.0554 17.7686 6.84449 17.7686 7.60718C17.7686 8.411 17.4612 8.86947 16.9948 9.20914C16.5042 9.56643 15.8434 9.79013 15.0748 10.0503L14.9737 10.0845C14.2034 10.3457 13.3305 10.6506 12.6607 11.2046C11.9548 11.7884 11.4999 12.6233 11.4999 13.8572C11.4999 14.1333 11.7238 14.3572 11.9999 14.3572C12.276 14.3572 12.4999 14.1333 12.4999 13.8572C12.4999 12.9125 12.8286 12.3635 13.2981 11.9752C13.8036 11.557 14.498 11.3017 15.2948 11.0316L15.4469 10.9802C16.165 10.738 16.9642 10.4685 17.5835 10.0175C18.2925 9.50113 18.7686 8.74979 18.7686 7.60718C18.7686 6.49486 18.2314 5.40895 17.0995 4.61903C15.9803 3.83794 14.3009 3.35718 11.9999 3.35718C10.1618 3.35718 8.49994 3.67616 7.27851 4.35811C6.03627 5.05169 5.2312 6.13878 5.2312 7.60718C5.2312 7.88332 5.45506 8.10718 5.7312 8.10718C6.00734 8.10718 6.2312 7.88332 6.2312 7.60718ZM11.5 18C11.5 17.7239 11.7239 17.5 12 17.5C12.2761 17.5 12.5 17.7239 12.5 18C12.5 18.2762 12.2761 18.5 12 18.5C11.7239 18.5 11.5 18.2762 11.5 18ZM12 16.5C11.1716 16.5 10.5 17.1716 10.5 18C10.5 18.8285 11.1716 19.5 12 19.5C12.8284 19.5 13.5 18.8285 13.5 18C13.5 17.1716 12.8284 16.5 12 16.5Z"/>
</svg>
