<svg width="24" height="24" viewBox="0 0 24 24" xmlns="http://www.w3.org/2000/svg">
<path fill-rule="evenodd" clip-rule="evenodd" d="M12 4C7.83155 4 4.40773 7.18812 4.03386 11.259L5.14645 10.1464C5.34171 9.95118 5.65829 9.95118 5.85355 10.1464C6.04882 10.3417 6.04882 10.6583 5.85355 10.8536L3.85355 12.8536C3.65829 13.0488 3.34171 13.0488 3.14645 12.8536L1.14645 10.8536C0.951184 10.6583 0.951184 10.3417 1.14645 10.1464C1.34171 9.95118 1.65829 9.95118 1.85355 10.1464L3.02543 11.3183C3.37382 6.6662 7.25877 3 12 3C15.4401 3 18.4286 4.93023 19.9429 7.76437C20.073 8.00793 19.9811 8.31086 19.7375 8.441C19.494 8.57113 19.191 8.47919 19.0609 8.23563C17.7136 5.71399 15.0566 4 12 4ZM20.9746 12.6817L22.1464 13.8536C22.3417 14.0488 22.6583 14.0488 22.8536 13.8536C23.0488 13.6583 23.0488 13.3417 22.8536 13.1464L20.8536 11.1464C20.6583 10.9512 20.3417 10.9512 20.1464 11.1464L18.1464 13.1464C17.9512 13.3417 17.9512 13.6583 18.1464 13.8536C18.3417 14.0488 18.6583 14.0488 18.8536 13.8536L19.9661 12.741C19.5923 16.8119 16.1684 20 12 20C8.94345 20 6.28644 18.286 4.9391 15.7644C4.80896 15.5208 4.50603 15.4289 4.26247 15.559C4.01891 15.6891 3.92697 15.9921 4.0571 16.2356C5.57142 19.0698 8.55991 21 12 21C16.7412 21 20.6262 17.3338 20.9746 12.6817Z"/>
</svg>
