<svg width="24" height="24" viewBox="0 0 24 24" xmlns="http://www.w3.org/2000/svg">
<path fill-rule="evenodd" clip-rule="evenodd" d="M8.75054 6C8.75054 4.20507 10.2056 2.75 12.0005 2.75C13.7955 2.75 15.2505 4.20507 15.2505 6V7H8.75054V6ZM16.2505 6V7H18.4877C19.3194 7 20.0168 7.62785 20.1038 8.45489L21.367 20.4549C21.468 21.4144 20.7157 22.25 19.7509 22.25H4.25017C3.28541 22.25 2.53311 21.4144 2.6341 20.4549L3.89726 8.45489C3.98432 7.62785 4.68172 7 5.51333 7H7.75054V6C7.75054 3.65279 9.65333 1.75 12.0005 1.75C14.3477 1.75 16.2505 3.65279 16.2505 6ZM8.75054 9.78184V8H15.2505V9.78184C15.0239 9.93995 14.8755 10.2027 14.8755 10.5C14.8755 10.9832 15.2673 11.375 15.7505 11.375C16.2338 11.375 16.6255 10.9832 16.6255 10.5C16.6255 10.2027 16.4772 9.93995 16.2505 9.78184V8H18.4877C18.8076 8 19.0758 8.24148 19.1093 8.55957L20.3725 20.5596C20.4113 20.9286 20.122 21.25 19.7509 21.25H4.25017C3.87911 21.25 3.58976 20.9286 3.62861 20.5596L4.89177 8.55957C4.92525 8.24148 5.19348 8 5.51333 8H7.75054V9.78184C7.52385 9.93995 7.37554 10.2027 7.37554 10.5C7.37554 10.9832 7.76729 11.375 8.25054 11.375C8.73379 11.375 9.12554 10.9832 9.12554 10.5C9.12554 10.2027 8.97722 9.93995 8.75054 9.78184ZM11.1536 13.3536C11.3489 13.1583 11.3489 12.8417 11.1536 12.6464C10.9583 12.4512 10.6418 12.4512 10.4465 12.6464L8.6465 14.4464C8.55273 14.5402 8.50005 14.6674 8.50005 14.8C8.50005 14.9326 8.55273 15.0598 8.6465 15.1536L10.4465 16.9536C10.6418 17.1488 10.9583 17.1488 11.1536 16.9536C11.3489 16.7583 11.3489 16.4417 11.1536 16.2464L10.2072 15.3H12.9001C13.7837 15.3 14.5001 16.0163 14.5001 16.9C14.5001 17.7837 13.7837 18.5 12.9001 18.5H12.0001C11.7239 18.5 11.5001 18.7239 11.5001 19C11.5001 19.2761 11.7239 19.5 12.0001 19.5H12.9001C14.336 19.5 15.5001 18.3359 15.5001 16.9C15.5001 15.4641 14.336 14.3 12.9001 14.3H10.2072L11.1536 13.3536Z"/>
</svg>
