<svg width="24" height="24" viewBox="0 0 24 24" xmlns="http://www.w3.org/2000/svg">
<path fill-rule="evenodd" clip-rule="evenodd" d="M4 2.5C4 2.22386 4.22386 2 4.5 2H19.4958C19.772 2 19.9958 2.22386 19.9958 2.5V21.5C19.9958 21.7761 19.772 22 19.4958 22H4.5C4.22386 22 4 21.7761 4 21.5V2.5ZM5 3V21H18.9958V3H5ZM7.21339 6.5C7.21339 6.22386 7.43725 6 7.71339 6H16.2824C16.5586 6 16.7824 6.22386 16.7824 6.5C16.7824 6.77614 16.5586 7 16.2824 7H7.71339C7.43725 7 7.21339 6.77614 7.21339 6.5ZM7.21339 10C7.21339 9.72386 7.43725 9.5 7.71339 9.5H16.2824C16.5586 9.5 16.7824 9.72386 16.7824 10C16.7824 10.2761 16.5586 10.5 16.2824 10.5H7.71339C7.43725 10.5 7.21339 10.2761 7.21339 10ZM7.21339 13.5C7.21339 13.2239 7.43725 13 7.71339 13H16.2824C16.5586 13 16.7824 13.2239 16.7824 13.5C16.7824 13.7761 16.5586 14 16.2824 14H7.71339C7.43725 14 7.21339 13.7761 7.21339 13.5ZM7.21339 17C7.21339 16.7239 7.43725 16.5 7.71339 16.5H11.9979C12.274 16.5 12.4979 16.7239 12.4979 17C12.4979 17.2761 12.274 17.5 11.9979 17.5H7.71339C7.43725 17.5 7.21339 17.2761 7.21339 17Z"/>
</svg>
