<svg width="24" height="24" viewBox="0 0 24 24" xmlns="http://www.w3.org/2000/svg">
<path fill-rule="evenodd" clip-rule="evenodd" d="M1 11.1875C1 6.48843 5.81429 2.5 12 2.5C18.1857 2.5 23 6.48843 23 11.1875C23 15.8866 18.1857 19.875 12 19.875C10.2016 19.875 8.50706 19.5336 7.012 18.9307C6.83932 18.8611 6.64226 18.8932 6.50059 19.014C5.64894 19.7401 3.80472 21.0379 2.47177 21.9031C2.64521 21.2461 2.81472 20.5665 2.97477 19.9211L3.02934 19.701C3.27344 18.7161 3.49198 17.8344 3.67002 17.2364C3.7237 17.0562 3.67167 16.861 3.53537 16.7314C1.93909 15.2134 1 13.2787 1 11.1875ZM12 1.5C5.48316 1.5 0 5.73834 0 11.1875C0 13.4932 0.994684 15.596 2.62772 17.2421C2.46045 17.8393 2.26713 18.6194 2.06139 19.4496L2.00418 19.6804C1.73935 20.7482 1.45422 21.8869 1.17005 22.8598C1.11291 23.0555 1.18024 23.2662 1.34021 23.3925C1.50019 23.5187 1.7208 23.5353 1.89782 23.4343C3.00001 22.8053 5.6277 21.014 6.91767 19.9673C8.46293 20.5504 10.1858 20.875 12 20.875C18.5168 20.875 24 16.6367 24 11.1875C24 5.73834 18.5168 1.5 12 1.5ZM5.85239 7.91977C5.14611 7.91977 4.59976 8.12164 4.22771 8.48114C3.85836 8.83804 3.71476 9.29876 3.71476 9.71141C3.71476 10.2112 3.88665 10.6758 4.24446 11.0584C4.59373 11.4319 5.09467 11.701 5.71667 11.8764C6.33123 12.0497 6.58815 12.2709 6.70452 12.4377C6.82134 12.6051 6.85163 12.7945 6.85163 13.0338C6.85163 13.2706 6.75044 13.4396 6.56042 13.5686C6.35312 13.7092 6.03274 13.8014 5.64481 13.8014C5.19643 13.8014 4.74711 13.6808 4.34517 13.3778C4.12466 13.2115 3.81115 13.2555 3.64492 13.476C3.47869 13.6965 3.52269 14.01 3.74319 14.1763C4.34194 14.6276 5.01041 14.8014 5.64481 14.8014C6.17146 14.8014 6.70449 14.6793 7.12196 14.396C7.5567 14.101 7.85163 13.6362 7.85163 13.0338C7.85163 12.7199 7.81572 12.2827 7.52463 11.8655C7.23309 11.4476 6.74038 11.1261 5.9881 10.9139C5.47967 10.7706 5.1618 10.5753 4.97486 10.3754C4.79646 10.1846 4.71476 9.96674 4.71476 9.71141C4.71476 9.52436 4.77875 9.33926 4.92259 9.20027C5.06374 9.06387 5.33621 8.91977 5.85239 8.91977C6.37393 8.91977 6.69549 9.0171 7.11334 9.24368C7.35609 9.37531 7.65959 9.28523 7.79122 9.04248C7.92285 8.79973 7.83277 8.49623 7.59002 8.3646C7.04038 8.06656 6.55623 7.91977 5.85239 7.91977ZM16.6933 8.48114C17.0654 8.12164 17.6117 7.91977 18.318 7.91977C19.0218 7.91977 19.506 8.06656 20.0556 8.3646C20.2984 8.49623 20.3885 8.79973 20.2568 9.04248C20.1252 9.28523 19.8217 9.37531 19.579 9.24368C19.1611 9.0171 18.8396 8.91977 18.318 8.91977C17.8018 8.91977 17.5294 9.06387 17.3882 9.20027C17.2444 9.33926 17.1804 9.52436 17.1804 9.71141C17.1804 9.96674 17.2621 10.1846 17.4405 10.3754C17.6274 10.5753 17.9453 10.7706 18.4537 10.9139C19.206 11.1261 19.6987 11.4476 19.9903 11.8655C20.2813 12.2827 20.3173 12.7199 20.3173 13.0338C20.3173 13.6362 20.0223 14.101 19.5876 14.396C19.1701 14.6793 18.6371 14.8014 18.1104 14.8014C17.476 14.8014 16.8076 14.6276 16.2088 14.1763C15.9883 14.01 15.9443 13.6965 16.1105 13.476C16.2768 13.2555 16.5903 13.2115 16.8108 13.3778C17.2127 13.6808 17.6621 13.8014 18.1104 13.8014C18.4984 13.8014 18.8187 13.7092 19.026 13.5686C19.2161 13.4396 19.3173 13.2706 19.3173 13.0338C19.3173 12.7945 19.287 12.6051 19.1701 12.4377C19.0538 12.2709 18.7969 12.0497 18.1823 11.8764C17.5603 11.701 17.0593 11.4319 16.7101 11.0584C16.3523 10.6758 16.1804 10.2112 16.1804 9.71141C16.1804 9.29876 16.324 8.83804 16.6933 8.48114ZM9.87816 8.21541C9.75561 8.03258 9.52792 7.9514 9.31734 8.01544C9.10676 8.07949 8.96283 8.2737 8.96283 8.4938V14.1812C8.96283 14.4574 9.18669 14.6812 9.46283 14.6812C9.73898 14.6812 9.96283 14.4574 9.96283 14.1812V10.1378L11.5847 12.5573C11.6775 12.6958 11.8333 12.7789 12 12.7789C12.1667 12.7789 12.3225 12.6958 12.4153 12.5573L14.0372 10.1378V14.1812C14.0372 14.4574 14.261 14.6812 14.5372 14.6812C14.8133 14.6812 15.0372 14.4574 15.0372 14.1812V8.4938C15.0372 8.2737 14.8932 8.07949 14.6827 8.01544C14.4721 7.9514 14.2444 8.03258 14.1218 8.21541L12 11.3809L9.87816 8.21541Z"/>
</svg>
