<svg width="24" height="24" viewBox="0 0 24 24" xmlns="http://www.w3.org/2000/svg">
<path fill-rule="evenodd" clip-rule="evenodd" d="M5.64645 4.14645C5.74021 4.05268 5.86739 4 6 4H17.75C18.0261 4 18.25 4.22386 18.25 4.5V8H21.5C21.7761 8 22 8.22386 22 8.5V20.5C22 20.7761 21.7761 21 21.5 21H2.5C2.22386 21 2 20.7761 2 20.5V8.5C2 8.22386 2.22386 8 2.5 8H5.5V4.5C5.5 4.36739 5.55268 4.24021 5.64645 4.14645ZM5.5 9H3.77327L5.5 10.6034V9ZM6.5 11.532L9.69635 14.5H13.8135L17.25 11.5217V8.5V8.125V5H6.5V8.5V11.532ZM18.25 10.655L20.1596 9H18.25V10.655ZM21 9.59498L18.0775 12.1278L14.8011 14.9674L21 19.5133V9.59498ZM19.9727 20L13.8363 15.5H9.67293L3.94566 20H19.9727ZM3 19.4713V9.64661L5.65977 12.1164L8.73105 14.9683L3 19.4713Z"/>
</svg>
