<svg width="24" height="24" viewBox="0 0 24 24" xmlns="http://www.w3.org/2000/svg">
<path fill-rule="evenodd" clip-rule="evenodd" d="M9.3763 2.66782C9.55975 2.46143 9.87579 2.44284 10.0822 2.6263L14.5822 6.6263C14.6889 6.72118 14.75 6.85718 14.75 7C14.75 7.14282 14.6889 7.27882 14.5822 7.3737L10.0822 11.3737C9.87579 11.5572 9.55975 11.5386 9.3763 11.3322C9.19284 11.1258 9.21143 10.8098 9.41782 10.6263L12.9349 7.5H3.25C2.97386 7.5 2.75 7.27614 2.75 7C2.75 6.72386 2.97386 6.5 3.25 6.5H12.9349L9.41782 3.3737C9.21143 3.19025 9.19284 2.87421 9.3763 2.66782ZM11.0651 17.5L14.5822 20.6263C14.7886 20.8098 14.8072 21.1258 14.6237 21.3322C14.4402 21.5386 14.1242 21.5572 13.9178 21.3737L9.41782 17.3737C9.31107 17.2788 9.25 17.1428 9.25 17C9.25 16.8572 9.31107 16.7212 9.41782 16.6263L13.9178 12.6263C14.1242 12.4428 14.4402 12.4614 14.6237 12.6678C14.8072 12.8742 14.7886 13.1902 14.5822 13.3737L11.0651 16.5L20.75 16.5C21.0261 16.5 21.25 16.7239 21.25 17C21.25 17.2761 21.0261 17.5 20.75 17.5L11.0651 17.5Z"/>
</svg>
