<svg width="24" height="24" viewBox="0 0 24 24" xmlns="http://www.w3.org/2000/svg">
<path fill-rule="evenodd" clip-rule="evenodd" d="M8.5 6C8.5 4.067 10.067 2.5 12 2.5C13.933 2.5 15.5 4.067 15.5 6C15.5 7.933 13.933 9.5 12 9.5C10.067 9.5 8.5 7.933 8.5 6ZM12 1.5C9.51472 1.5 7.5 3.51472 7.5 6C7.5 8.48528 9.51472 10.5 12 10.5C14.4853 10.5 16.5 8.48528 16.5 6C16.5 3.51472 14.4853 1.5 12 1.5ZM4.5 19.5C4.5 17.5798 4.98043 16.0558 5.66603 15.0274C6.35605 13.9923 7.21867 13.5 8 13.5C8.88201 13.5 9.30025 13.7091 9.7689 13.9435L9.77639 13.9472C10.3047 14.2114 10.8867 14.5 12 14.5C13.1133 14.5 13.6953 14.2114 14.2236 13.9472L14.2311 13.9435C14.6997 13.7091 15.118 13.5 16 13.5C16.7813 13.5 17.6439 13.9923 18.334 15.0274C19.0196 16.0558 19.5 17.5798 19.5 19.5V20.5H4.5V19.5ZM8 12.5C6.78133 12.5 5.64395 13.2577 4.83397 14.4727C4.01957 15.6943 3.5 17.4203 3.5 19.5V21C3.5 21.2761 3.72386 21.5 4 21.5H20C20.2761 21.5 20.5 21.2761 20.5 21V19.5C20.5 17.4203 19.9804 15.6943 19.166 14.4727C18.3561 13.2577 17.2187 12.5 16 12.5C14.8867 12.5 14.3047 12.7886 13.7764 13.0528L13.7689 13.0565C13.3003 13.2909 12.882 13.5 12 13.5C11.118 13.5 10.6997 13.2909 10.2311 13.0565L10.2236 13.0528C9.69531 12.7886 9.11329 12.5 8 12.5Z"/>
</svg>
