<svg width="24" height="24" viewBox="0 0 24 24" xmlns="http://www.w3.org/2000/svg">
<path fill-rule="evenodd" clip-rule="evenodd" d="M4 4.5C4 4.22386 4.22386 4 4.5 4H19.5C19.7761 4 20 4.22386 20 4.5V7.5C20 7.77614 19.7761 8 19.5 8H4.5C4.22386 8 4 7.77614 4 7.5V4.5ZM5 5V7H19V5H5ZM4 10.5C4 10.2239 4.22386 10 4.5 10H19.5C19.7761 10 20 10.2239 20 10.5V13.5C20 13.7761 19.7761 14 19.5 14H4.5C4.22386 14 4 13.7761 4 13.5V10.5ZM5 11V13H19V11H5ZM4.5 16C4.22386 16 4 16.2239 4 16.5V19.5C4 19.7761 4.22386 20 4.5 20H19.5C19.7761 20 20 19.7761 20 19.5V16.5C20 16.2239 19.7761 16 19.5 16H4.5ZM5 19V17H19V19H5Z"/>
</svg>
