<svg width="24" height="24" viewBox="0 0 24 24" xmlns="http://www.w3.org/2000/svg">
<path fill-rule="evenodd" clip-rule="evenodd" d="M4.5 4C4.22386 4 4 4.22386 4 4.5V10.5C4 10.7761 4.22386 11 4.5 11H10.5C10.7761 11 11 10.7761 11 10.5V4.5C11 4.22386 10.7761 4 10.5 4H4.5ZM5 10V5H10V10H5ZM4.5 13C4.22386 13 4 13.2239 4 13.5V19.5C4 19.7761 4.22386 20 4.5 20H10.5C10.7761 20 11 19.7761 11 19.5V13.5C11 13.2239 10.7761 13 10.5 13H4.5ZM5 19V14H10V19H5ZM13 4.5C13 4.22386 13.2239 4 13.5 4H19.5C19.7761 4 20 4.22386 20 4.5V10.5C20 10.7761 19.7761 11 19.5 11H13.5C13.2239 11 13 10.7761 13 10.5V4.5ZM14 5V10H19V5H14ZM13.5 13C13.2239 13 13 13.2239 13 13.5V19.5C13 19.7761 13.2239 20 13.5 20H19.5C19.7761 20 20 19.7761 20 19.5V13.5C20 13.2239 19.7761 13 19.5 13H13.5ZM14 19V14H19V19H14Z"/>
</svg>
