<svg width="24" height="24" viewBox="0 0 24 24" xmlns="http://www.w3.org/2000/svg">
<path fill-rule="evenodd" clip-rule="evenodd" d="M9.5 5C9.5 4.72386 9.72386 4.5 10 4.5H14C14.2761 4.5 14.5 4.72386 14.5 5V7H9.5V5ZM15.5 5V7H19C19.8284 7 20.5 7.67157 20.5 8.5V19C20.5 19.8284 19.8284 20.5 19 20.5H5C4.17157 20.5 3.5 19.8284 3.5 19V8.5C3.5 7.67157 4.17157 7 5 7H8.5V5C8.5 4.17157 9.17157 3.5 10 3.5H14C14.8284 3.5 15.5 4.17157 15.5 5ZM4.5 8.5C4.5 8.22386 4.72386 8 5 8H9H15H19C19.2761 8 19.5 8.22386 19.5 8.5V10.6535L12.3481 13.3355C12.244 13.2809 12.1256 13.25 12 13.25C11.8744 13.25 11.756 13.2809 11.6519 13.3355L4.5 10.6535V8.5ZM11.25 14.2528L4.5 11.7215V19C4.5 19.2761 4.72386 19.5 5 19.5H19C19.2761 19.5 19.5 19.2761 19.5 19V11.7215L12.75 14.2528V15C12.75 15.4142 12.4142 15.75 12 15.75C11.5858 15.75 11.25 15.4142 11.25 15V14.2528Z"/>
</svg>
