<svg width="24" height="24" viewBox="0 0 24 24" xmlns="http://www.w3.org/2000/svg">
<path fill-rule="evenodd" clip-rule="evenodd" d="M8.43285 1C8.23859 1 8.06191 1.11252 7.97976 1.28855L8.43285 1.5C7.97976 1.28855 7.97973 1.28862 7.97969 1.2887L7.97957 1.28895L7.97921 1.28972L7.97797 1.29239L7.97343 1.30219L7.95646 1.33913C7.94175 1.37128 7.92041 1.41827 7.89338 1.47868C7.83934 1.59949 7.76252 1.77408 7.6705 1.99114C7.48661 2.42491 7.2413 3.03002 6.99572 3.71544C6.51164 5.06653 6 6.80021 6 8.14758C6 11.0576 8.51385 13.3533 11.5944 13.5639L11.5942 13.5796L11.5942 18.8963C10.3387 19.0349 9.24505 19.7104 8.46799 20.3399C8.02567 20.6982 7.66888 21.0555 7.42244 21.3232C7.29893 21.4574 7.20238 21.5699 7.13589 21.6499C7.10263 21.69 7.07684 21.7219 7.05891 21.7445L7.03793 21.7711L7.03194 21.7789L7.03009 21.7813L7.02944 21.7821L7.0292 21.7824C7.02909 21.7826 7.029 21.7827 7.42641 22.0861L7.029 21.7827C6.9136 21.9338 6.89393 22.1374 6.97824 22.3078C7.06255 22.4783 7.23625 22.5861 7.42641 22.5861H12.0572H16.688C16.8781 22.5861 17.0518 22.4783 17.1361 22.3078C17.2204 22.1374 17.2008 21.9338 17.0854 21.7827L16.688 22.0861C17.0854 21.7827 17.0853 21.7826 17.0852 21.7824L17.0849 21.7821L17.0843 21.7813L17.0824 21.7789L17.0764 21.7711L17.0555 21.7445C17.0375 21.7219 17.0117 21.69 16.9785 21.6499C16.912 21.5699 16.8154 21.4574 16.6919 21.3232C16.4455 21.0555 16.0887 20.6982 15.6464 20.3399C14.8846 19.7228 13.8187 19.0615 12.5942 18.9051L12.5942 13.5796C12.5942 13.5725 12.594 13.5654 12.5937 13.5584C15.6403 13.3163 18.1139 11.0342 18.1139 8.14758C18.1139 7.83448 18.0862 7.50052 18.0378 7.15535C18.0384 7.10196 18.0304 7.04888 18.0144 6.99822C17.8421 5.90015 17.4727 4.70515 17.1181 3.71544C16.8726 3.03002 16.6273 2.42491 16.4434 1.99114C16.3514 1.77408 16.2745 1.59949 16.2205 1.47868C16.1935 1.41827 16.1721 1.37128 16.1574 1.33913L16.1404 1.30219L16.1359 1.29239L16.1347 1.28972L16.1343 1.28895L16.1342 1.2887C16.1341 1.28862 16.1341 1.28855 15.681 1.5L16.1341 1.28855C16.052 1.11252 15.8753 1 15.681 1H12.0569H8.43285ZM16.8497 6.26803C16.6736 5.5273 16.429 4.75667 16.1767 4.05273C15.9391 3.38949 15.7012 2.80255 15.5227 2.38145C15.4592 2.23178 15.4034 2.10328 15.3578 2H12.0569H8.75604C8.71048 2.10328 8.65463 2.23178 8.59118 2.38145C8.41266 2.80255 8.17476 3.38949 7.93712 4.05273C7.64021 4.88143 7.35374 5.80253 7.17736 6.65849C7.23543 6.66989 7.29244 6.69186 7.34563 6.72506L7.34565 6.72507L7.34883 6.72701L7.36773 6.73829C7.38553 6.74876 7.41354 6.76491 7.45092 6.78544C7.52576 6.82653 7.63765 6.8849 7.7799 6.95028C8.0656 7.08161 8.46728 7.23829 8.93266 7.34219C9.86625 7.55063 11.0003 7.53759 12.0014 6.75526C13.324 5.72175 14.8042 5.73479 15.9039 5.98031C16.2577 6.05932 16.578 6.16335 16.8497 6.26803ZM7.02087 7.68976C7.00724 7.84833 7 8.00139 7 8.14758C7 10.5409 9.20633 12.5796 12.0569 12.5796C14.9075 12.5796 17.1139 10.5409 17.1139 8.14758C17.1139 7.94257 17.0996 7.72406 17.0735 7.49577C17.0722 7.48409 17.0708 7.47239 17.0694 7.46066C17.0056 7.42765 16.9282 7.3893 16.8387 7.34818C16.553 7.21686 16.1513 7.06018 15.686 6.95628C14.7524 6.74784 13.6183 6.76087 12.6172 7.54321C11.2946 8.57672 9.81444 8.56368 8.71476 8.31816C8.1635 8.19508 7.69379 8.01129 7.36225 7.85889C7.22434 7.7955 7.10923 7.73703 7.02087 7.68976ZM12.0572 21.5861H8.5651C8.72212 21.4361 8.9006 21.2764 9.09747 21.1169C9.90231 20.4649 10.9487 19.8706 12.0572 19.8706C13.1657 19.8706 14.2121 20.4649 15.0169 21.1169C15.2138 21.2764 15.3923 21.4361 15.5493 21.5861H12.0572Z"/>
</svg>
