<svg width="24" height="24" viewBox="0 0 24 24" xmlns="http://www.w3.org/2000/svg">
<path fill-rule="evenodd" clip-rule="evenodd" d="M19.9604 2.93863L19.5042 2.72008L19.6342 2.24334C19.7788 2.28342 19.8988 2.38423 19.9618 2.51852C20.0248 2.6528 20.0243 2.80671 19.9604 2.93863ZM19.5042 2.72008C19.6342 2.24334 19.634 2.2433 19.6339 2.24325L19.6335 2.24315L19.6326 2.2429L19.6301 2.24223L19.6226 2.24021L19.5975 2.23365C19.5764 2.22822 19.5465 2.22078 19.5085 2.21188C19.4326 2.1941 19.3241 2.17043 19.1884 2.14537C18.9172 2.09533 18.5347 2.03931 18.083 2.01389C17.1855 1.96338 15.982 2.03178 14.8332 2.53781C13.6683 3.05094 12.8621 3.94368 12.354 4.68178C12.2335 4.85686 12.1285 5.02508 12.0383 5.1801C11.5828 4.22554 10.8573 3.29068 9.74242 2.52437C9.51485 2.36795 9.20357 2.42563 9.04715 2.6532C8.89073 2.88077 8.94841 3.19206 9.17598 3.34847C11.5763 4.99832 11.8657 7.57603 11.6753 9.00455L11.5667 8.9813L11.5554 8.97887C11.2501 8.91334 10.849 8.82758 10.396 8.75393C9.49755 8.60788 8.35296 8.5018 7.28029 8.70939C6.19449 8.91952 5.14001 9.46224 4.52804 10.6382C3.92859 11.7902 3.80595 13.4537 4.33438 15.7935C5.05356 18.978 6.04584 20.7892 7.16225 21.7107C8.32106 22.6671 9.53565 22.6061 10.4794 22.2577C11.4474 21.9003 12.6766 21.89 13.6299 22.2524C14.5851 22.6156 15.828 22.7075 17.0059 21.7565C18.1415 20.8396 19.1328 19.0148 19.8178 15.7872C20.3153 13.4431 20.1753 11.7795 19.5707 10.6294C18.9537 9.45543 17.9052 8.91267 16.8253 8.70322C15.7594 8.49647 14.6255 8.60439 13.7363 8.75186C13.3346 8.81846 12.9742 8.89474 12.6863 8.9573C12.7476 8.35354 12.7366 7.60914 12.5788 6.81676C12.8121 6.84095 13.1039 6.86109 13.4371 6.86277C14.2914 6.86707 15.4401 6.75015 16.5749 6.25027C17.7237 5.74425 18.5681 4.91051 19.1189 4.22206C19.3962 3.87553 19.6041 3.55943 19.7434 3.32855C19.8132 3.21294 19.8661 3.1182 19.9022 3.05107C19.9203 3.0175 19.9341 2.99078 19.9438 2.97178L19.9552 2.94913L19.9586 2.94233L19.9597 2.94009L19.9601 2.93926L19.9602 2.93892C19.9603 2.93877 19.9604 2.93863 19.5042 2.72008ZM12.8239 5.84562C12.9981 5.85998 13.2014 5.87063 13.4265 5.87177C14.1911 5.87562 15.1862 5.76958 16.1502 5.34495C17.1002 4.92647 17.8266 4.22144 18.3219 3.60225C18.4759 3.40976 18.6057 3.228 18.711 3.06948C18.5185 3.04218 18.2919 3.0174 18.0409 3.00328C17.2338 2.95785 16.2079 3.02465 15.2579 3.44313C14.3241 3.85449 13.645 4.58829 13.1926 5.24561C13.0429 5.46312 12.9204 5.66867 12.8239 5.84562ZM12.4041 10.0396C12.3043 10.0589 12.1798 10.0809 12.0754 10.0809C11.9716 10.0809 11.847 10.0591 11.7467 10.0401C11.6387 10.0195 11.5076 9.99137 11.3649 9.96075L11.3456 9.95661C11.0405 9.89113 10.6612 9.81018 10.2355 9.74097C9.37638 9.60131 8.36984 9.51708 7.47029 9.69117C6.58388 9.86272 5.84506 10.2736 5.41512 11.0998C4.97267 11.9501 4.80482 13.3372 5.30981 15.5732C6.01269 18.6855 6.93994 20.2306 7.7988 20.9394C8.61525 21.6133 9.43167 21.5785 10.133 21.3196C11.3163 20.8827 12.7951 20.8652 13.9853 21.3177C14.7142 21.5948 15.5546 21.6429 16.3777 20.9784C17.243 20.2798 18.1702 18.7337 18.8396 15.5796C19.315 13.3396 19.1343 11.9484 18.6856 11.0947C18.2494 10.2649 17.5122 9.85508 16.6349 9.68492C15.7437 9.51207 14.7492 9.59755 13.8998 9.73839C13.4789 9.80818 13.1041 9.88964 12.8019 9.95557L12.787 9.95882C12.6441 9.99 12.5124 10.0187 12.4041 10.0396ZM7.43869 12.7424C7.43869 12.2104 7.86994 11.7792 8.40191 11.7792H8.88965C9.16579 11.7792 9.38965 11.5553 9.38965 11.2792C9.38965 11.003 9.16579 10.7792 8.88965 10.7792H8.40191C7.31765 10.7792 6.43869 11.6581 6.43869 12.7424V13.2301C6.43869 13.5063 6.66255 13.7301 6.93869 13.7301C7.21483 13.7301 7.43869 13.5063 7.43869 13.2301V12.7424Z"/>
</svg>
