<svg width="24" height="24" viewBox="0 0 24 24" xmlns="http://www.w3.org/2000/svg">
<path fill-rule="evenodd" clip-rule="evenodd" d="M8.55451 4C6.79875 4 5.37542 5.42333 5.37542 7.17909V8.17048C5.37542 8.82643 4.84367 9.35819 4.18771 9.35819C2.97947 9.35819 2 10.3377 2 11.5459V15.3596C2 16.7404 3.11929 17.8596 4.5 17.8596H6.50056V19.5029C6.50056 19.7791 6.72442 20.0029 7.00056 20.0029C7.2767 20.0029 7.50056 19.7791 7.50056 19.5029V17.8596H15.5017V19.5029C15.5017 19.7791 15.7255 20.0029 16.0017 20.0029C16.2778 20.0029 16.5017 19.7791 16.5017 19.5029V17.8596H18.5022C19.883 17.8596 21.0022 16.7404 21.0022 15.3596V11.5459C21.0022 10.3377 20.0228 9.35819 18.8145 9.35819C18.1586 9.35819 17.6268 8.82643 17.6268 8.17048V7.17909C17.6268 5.42333 16.2035 4 14.4477 4H8.55451ZM6.37542 7.17909C6.37542 5.97561 7.35104 5 8.55451 5H14.4477C15.6512 5 16.6268 5.97561 16.6268 7.17909V8.17048C16.6268 9.37871 17.6063 10.3582 18.8145 10.3582C19.4705 10.3582 20.0022 10.8899 20.0022 11.5459V15.3596C20.0022 16.1881 19.3307 16.8596 18.5022 16.8596H16.0017H7.00056H4.5C3.67157 16.8596 3 16.1881 3 15.3596V11.5459C3 10.8899 3.53176 10.3582 4.18771 10.3582C5.39595 10.3582 6.37542 9.37871 6.37542 8.17048V7.17909ZM5.87543 12.5731C5.59928 12.5731 5.37543 12.797 5.37543 13.0731C5.37543 13.3493 5.59928 13.5731 5.87543 13.5731H17.1268C17.403 13.5731 17.6268 13.3493 17.6268 13.0731C17.6268 12.797 17.403 12.5731 17.1268 12.5731H5.87543Z"/>
</svg>
