<svg width="24" height="24" viewBox="0 0 24 24" xmlns="http://www.w3.org/2000/svg">
<path fill-rule="evenodd" clip-rule="evenodd" d="M13.4919 1.28872C13.9254 0.852495 14.6119 0.937713 14.9586 1.41258C15.3251 1.9146 15.9314 2.85202 16.2818 4.00144C17.7148 3.01698 19.4888 2.73477 20.3552 2.69101C20.5376 2.6818 20.8311 2.69422 21.051 2.91413C21.2761 3.13922 21.2812 3.43659 21.2655 3.61997C21.2249 4.09461 21.1402 4.91352 20.8832 5.7861C20.6962 6.42105 20.4118 7.10592 19.97 7.71278C21.1345 8.06146 22.0851 8.67594 22.592 9.04596C23.0668 9.39264 23.1521 10.0792 22.7158 10.5127C22.1846 11.0407 21.0636 12.0139 19.5976 12.4552C19.877 12.8246 19.8734 13.3573 19.5121 13.7165C18.9815 14.2438 17.8627 15.2152 16.3994 15.6573C16.6771 16.0266 16.6728 16.5579 16.3122 16.9163C15.7814 17.4438 14.662 18.4158 13.1978 18.8577C13.476 19.227 13.472 19.7587 13.1112 20.1174C12.4432 20.7812 10.8432 22.1488 8.79709 22.2782C6.75598 22.4072 4.92853 21.261 4.14952 20.6922C4.12329 20.6731 4.09842 20.6531 4.07488 20.6323L1.85368 22.8535C1.65841 23.0488 1.34183 23.0488 1.14657 22.8535C0.951307 22.6582 0.951307 22.3417 1.14657 22.1464L3.36684 19.9261C3.34048 19.8976 3.31519 19.8668 3.29113 19.8339C2.72241 19.0548 1.57614 17.2274 1.7052 15.1863C1.83457 13.1402 3.20222 11.5402 3.86602 10.8722C4.23193 10.504 4.77813 10.5073 5.14805 10.8029C5.59042 9.34062 6.56117 8.2227 7.08821 7.69236C7.44662 7.33171 7.97799 7.32748 8.34725 7.60519C8.78932 6.14187 9.76078 5.02309 10.2881 4.49249C10.6472 4.13111 11.18 4.12759 11.5493 4.40699C11.9906 2.94094 12.9639 1.81999 13.4919 1.28872ZM12.3408 5.52181C12.8746 6.45749 13.4329 7.80622 13.3408 9.26392C13.3232 9.54141 13.2826 9.81019 13.2238 10.0692L13.6543 9.63867L13.807 9.48596C13.817 9.47598 13.8273 9.46652 13.8378 9.45756C14.4926 8.75892 15.4512 7.50467 15.5465 5.99705C15.5675 5.6657 15.5466 5.3379 15.4954 5.01948C15.4863 4.98674 15.4806 4.95328 15.4783 4.91964C15.2553 3.69104 14.5935 2.61308 14.1686 2.02656C13.555 2.65183 12.4972 3.94907 12.3408 5.52181ZM16.5135 5.07824C16.5526 5.39737 16.5657 5.7259 16.5445 6.06015C16.5013 6.74375 16.3179 7.37448 16.0686 7.93597C16.6301 7.68661 17.2608 7.50325 17.9444 7.46003C18.2567 7.44028 18.5639 7.45039 18.8632 7.48371C19.381 6.9378 19.7122 6.2224 19.9239 5.50358C20.1263 4.81641 20.2106 4.15735 20.2543 3.6995C19.3398 3.77049 17.6847 4.10545 16.5135 5.07824ZM14.3039 10.4033C14.3256 10.3876 14.3464 10.3699 14.3659 10.3502C14.413 10.3029 14.4633 10.2513 14.5162 10.1957C15.2084 9.54062 16.4775 8.55477 18.0075 8.45803C19.6603 8.35353 21.2246 9.29018 21.978 9.83592C21.3527 10.4496 20.0555 11.5073 18.4827 11.6638C17.5471 11.1299 16.1983 10.5716 14.7406 10.6638C14.459 10.6816 14.1863 10.7232 13.9238 10.7834L14.3039 10.4033ZM11.3125 13.3994C12.0047 12.7444 13.2737 11.7585 14.8037 11.6618C16.4566 11.5573 18.0208 12.494 18.7742 13.0397C18.1502 13.6522 16.8567 14.707 15.2881 14.8666C14.3522 14.3319 13.0012 13.7713 11.5408 13.8637C11.2591 13.8815 10.9865 13.9231 10.7239 13.9833L11.1001 13.6071C11.1218 13.5913 11.1426 13.5737 11.1621 13.554C11.2092 13.5066 11.2595 13.455 11.3125 13.3994ZM10.6675 12.6254L10.4505 12.8424L10.0239 13.269C10.0827 13.0101 10.1233 12.7413 10.1409 12.4638C10.2332 11.0034 9.67266 9.65234 9.13792 8.71646C9.29756 7.14783 10.3524 5.85439 10.9649 5.23033C11.5106 5.98372 12.4473 7.54799 12.3427 9.20082C12.249 10.683 11.321 11.9202 10.6675 12.6254ZM8.17024 9.0434C8.18563 9.0775 8.20474 9.10962 8.2271 9.13923C8.71529 9.97433 9.22115 11.1627 9.14287 12.4007C9.04916 13.8828 8.12111 15.1201 7.46765 15.8253L7.25066 16.0423L6.7898 16.5032C6.85496 16.2276 6.89991 15.9406 6.91869 15.6436C7.00984 14.2021 6.46481 12.867 5.93641 11.9327C6.09035 10.3567 7.15037 9.05644 7.76498 8.4302C7.88604 8.59733 8.02634 8.80436 8.17024 9.0434ZM4.06666 19.1999C4.70099 18.5569 5.81675 17.2242 5.92068 15.5805C6.02519 13.9277 5.08853 12.3634 4.54279 11.6101C3.91047 12.2543 2.80674 13.612 2.70321 15.2494C2.59961 16.8877 3.51902 18.4391 4.06666 19.1999ZM4.78754 19.9196L5.13333 19.5739C5.85154 18.9468 7.0203 18.1501 8.40283 18.0627C10.0541 17.9583 11.6518 18.9184 12.3733 19.4406C11.729 20.0729 10.3714 21.1766 8.73399 21.2802C7.09855 21.3836 5.54981 20.4676 4.78754 19.9196ZM7.52447 17.1827L7.90023 16.8069C7.92197 16.7912 7.94272 16.7735 7.96224 16.7539C8.00934 16.7065 8.05966 16.6549 8.11258 16.5993C8.80478 15.9443 10.0738 14.9584 11.6039 14.8617C12.8419 14.7834 14.0302 15.2893 14.8653 15.7775C14.8949 15.7998 14.9271 15.8189 14.9611 15.8343C15.2002 15.9782 15.4072 16.1185 15.5743 16.2396C14.9494 16.8529 13.6533 17.9097 12.0818 18.0672C11.1494 17.5379 9.78956 16.973 8.33973 17.0647C8.05878 17.0825 7.78664 17.1235 7.52447 17.1827Z"/>
</svg>
