<svg width="24" height="24" viewBox="0 0 24 24" xmlns="http://www.w3.org/2000/svg">
<path fill-rule="evenodd" clip-rule="evenodd" d="M5.08379 7.09227C5.55514 6.55056 6.39699 6.66312 6.74178 7.26032L6.88724 7.51226C7.01798 7.37368 7.15139 7.23631 7.28744 7.10026C7.59855 6.78915 7.91653 6.49186 8.24022 6.20863L7.87171 5.57035C7.61617 5.12774 7.71795 4.55245 8.13939 4.23559C8.67229 3.83491 9.20612 3.47935 9.73837 3.16475C10.2385 2.86914 10.8654 3.05588 11.1451 3.54032L11.3973 3.97721C11.6525 3.83541 11.9088 3.70154 12.1659 3.57569C12.4572 3.43307 12.7495 3.30073 13.042 3.17885L12.9577 3.03267C12.6312 2.46724 12.9011 1.71628 13.5628 1.53477C14.767 1.20441 15.9228 1.04748 16.9959 1.00505C21.52 0.826175 24.4107 5.43169 22.2872 9.42954C20.8495 12.1363 18.7456 14.5384 16.642 16.642C14.5384 18.7456 12.1363 20.8495 9.42954 22.2872C5.43169 24.4107 0.826177 21.52 1.00505 16.9959C1.05093 15.8356 1.23068 14.5785 1.61877 13.2683C1.86251 12.4454 2.85582 12.3439 3.34398 12.9081C3.43589 12.6851 3.53386 12.4623 3.63783 12.24C3.84388 11.7993 4.07353 11.3604 4.32627 10.9253L3.72716 9.88765C3.53241 9.55033 3.53981 9.12496 3.76591 8.79414C4.15432 8.22582 4.59195 7.65753 5.08379 7.09227ZM4.90872 11.9342C4.77924 12.1768 4.65754 12.4201 4.54369 12.6636C4.35422 13.0687 4.18656 13.4743 4.04099 13.8781C4.31913 14.0574 4.68572 14.0783 4.99178 13.9016C5.42787 13.6498 5.57729 13.0922 5.32551 12.6561L4.90872 11.9342ZM13.5465 4.05263C13.233 4.17991 12.9191 4.32036 12.6056 4.47382C12.3691 4.58963 12.1329 4.71283 11.8974 4.84336L12.1073 5.20685C12.3591 5.64294 12.9167 5.79236 13.3528 5.54058C13.7889 5.2888 13.9383 4.73118 13.6865 4.29508L13.5465 4.05263ZM8.75045 7.09237C8.49448 7.32126 8.24229 7.55963 7.99455 7.80737C7.79367 8.00825 7.59894 8.21206 7.41043 8.41845L9.06692 11.2876C9.31869 11.7237 9.87632 11.8731 10.3124 11.6213C10.7485 11.3695 10.8979 10.8119 10.6461 10.3758L8.75045 7.09237ZM5.8425 7.74457C5.84203 7.7449 5.84053 7.746 5.83819 7.74868C5.37145 8.28509 4.95766 8.82264 4.59152 9.35838C4.58868 9.36253 4.58507 9.37358 4.59318 9.38764L4.16017 9.63764L4.59318 9.38765L5.3385 10.6786L6.19154 12.1561C6.71946 13.0705 6.40617 14.2397 5.49178 14.7676C4.67876 15.237 3.66533 15.0413 3.07894 14.3501C3.00537 14.2634 2.93875 14.1691 2.88026 14.0678L2.59213 13.5688C2.58796 13.5616 2.58461 13.5581 2.58307 13.5566C2.58143 13.5551 2.58024 13.5543 2.5794 13.5539C2.57878 13.5536 2.57809 13.5533 2.57734 13.5531C2.21517 14.7761 2.04718 15.9501 2.00427 17.0354C1.85591 20.7876 5.64337 23.1659 8.96045 21.404C11.5369 20.0355 13.8564 18.0134 15.9349 15.9349C18.0134 13.8564 20.0355 11.5369 21.404 8.96044C23.1659 5.64337 20.7876 1.85591 17.0354 2.00427C16.0314 2.04397 14.9516 2.1907 13.8273 2.49913C13.8247 2.49986 13.8236 2.50048 13.8234 2.50056L13.8232 2.50072C13.8231 2.5008 13.8217 2.50215 13.8204 2.50557C13.819 2.50905 13.8183 2.51322 13.8186 2.51745C13.8188 2.52103 13.8198 2.52596 13.8237 2.53267L14.1981 3.18124L14.5525 3.79508C15.0804 4.70947 14.7672 5.87868 13.8528 6.4066C12.9384 6.93452 11.7692 6.62123 11.2413 5.70685L10.7809 4.90947L10.2791 4.04032C10.2736 4.03084 10.2663 4.02617 10.2595 4.0243C10.2562 4.02338 10.2538 4.02341 10.2524 4.02357C10.2515 4.02369 10.25 4.02394 10.2472 4.02561C9.74701 4.32127 9.24392 4.65624 8.74035 5.03486C8.73797 5.03665 8.7368 5.03814 8.73598 5.03947C8.73501 5.04105 8.73393 5.04346 8.73328 5.04679C8.73196 5.05356 8.73278 5.06177 8.73774 5.07035L9.31393 6.06834L11.5122 9.8758C12.0401 10.7902 11.7268 11.9594 10.8124 12.4873C9.89803 13.0152 8.72881 12.702 8.20089 11.7876L6.36327 8.60471L5.87576 7.76032C5.87149 7.75293 5.8675 7.74964 5.86453 7.74774C5.86086 7.7454 5.85639 7.74381 5.85182 7.74331C5.84731 7.74282 5.84461 7.74358 5.84377 7.74389L5.8425 7.74457Z"/>
</svg>
