<svg width="24" height="24" viewBox="0 0 24 24" xmlns="http://www.w3.org/2000/svg">
<path fill-rule="evenodd" clip-rule="evenodd" d="M9.40586 5.30851C9.40586 6.13149 8.81366 6.83141 7.99527 7.07643V8.8988H9.44921H11.3579V7.07663C10.5394 6.83169 9.94703 6.13171 9.94708 5.30869C9.94708 4.49654 11.1032 2.77826 11.4575 2.271C11.5752 2.10235 11.78 2.00018 12.0001 2.00018C12.2201 2.00018 12.4248 2.10235 12.5427 2.27094C12.897 2.7782 14.0531 4.49654 14.0531 5.30863C14.0531 6.13168 13.4608 6.83165 12.6423 7.07661V8.8988H14.5508H16.0049V7.07658C15.1864 6.83159 14.5941 6.13164 14.5941 5.30863C14.5941 4.49648 15.7503 2.77814 16.1046 2.27082C16.2223 2.10235 16.4272 2.00018 16.6472 2.00018C16.8673 2.00018 17.072 2.10235 17.1899 2.27094C17.5442 2.7782 18.7002 4.49654 18.7002 5.30863C18.7002 6.13171 18.1079 6.8317 17.2893 7.07664V8.8988H21.0631C22.1312 8.8988 23 9.68651 23 10.6547V12.0628C23 13.0045 22.507 13.8432 21.7431 14.3795V20.3335C21.7437 20.4882 21.7445 20.5802 21.7453 20.6642C21.7463 20.7728 21.7472 20.868 21.7472 21.0681C21.7472 21.2601 21.544 21.4978 21.2628 21.4978H14.5508H9.44921H2.73716C2.45599 21.4978 2.25279 21.2601 2.25279 21.0681C2.25279 20.8664 2.25367 20.7713 2.25469 20.6615C2.25546 20.5783 2.25632 20.4866 2.25692 20.3335V14.3795C1.49302 13.8431 1 13.0044 1 12.0628V10.6547C1 9.68645 1.86883 8.8988 2.93693 8.8988H6.71082V7.07654C5.89222 6.83163 5.29981 6.13161 5.29987 5.30851C5.29987 4.49636 6.45598 2.77808 6.81029 2.27081C6.92802 2.10217 7.13281 2 7.35286 2C7.57298 2 7.77771 2.10217 7.89543 2.27081C8.24981 2.77808 9.40586 4.49641 9.40586 5.30851ZM7.35299 3.72255C7.79787 4.44758 8.12146 5.10042 8.12146 5.30851C8.12146 5.69279 7.77663 6.00534 7.35286 6.00534C6.92897 6.00534 6.5842 5.69273 6.5842 5.30851C6.58413 5.10077 6.90779 4.44793 7.35293 3.72255H7.35299ZM16.6472 3.72262C17.0921 4.44776 17.4157 5.10049 17.4157 5.30869C17.4157 5.69297 17.071 6.00553 16.6471 6.00553C16.2232 6.00553 15.8784 5.69291 15.8784 5.30869C15.8784 5.10095 16.2021 4.44805 16.6472 3.72262H16.6472ZM12.7687 5.30863C12.7687 5.10095 12.445 4.44817 12.0001 3.72285C11.555 4.44817 11.2313 5.10095 11.2314 5.30863C11.2314 5.69286 11.5762 6.00547 12.0001 6.00547C12.4238 6.00547 12.7687 5.69291 12.7687 5.30863ZM9.44921 20.3334H14.5508H20.4587V17.7141H14.5508H9.44921H3.54131V20.3334H9.44921ZM9.44921 16.5498H14.5508H20.4586V14.9244C20.236 14.9685 20.0052 14.9924 19.7683 14.9924C18.71 14.9924 17.7687 14.5286 17.1789 13.8137C16.5891 14.5286 15.6479 14.9924 14.5897 14.9924C14.562 14.9924 14.5344 14.992 14.507 14.9913L14.5002 14.9912L14.4635 14.9901L14.4495 14.9896L14.4188 14.9882L14.4001 14.9873L14.372 14.9857L14.351 14.9844L14.3258 14.9826L14.3015 14.9808L14.2811 14.979L14.2518 14.9764L14.2363 14.9749L14.2021 14.9714L14.1916 14.9702L14.1539 14.9658L14.1441 14.9645C14.1311 14.9629 14.118 14.9612 14.105 14.9594L14.0998 14.9587C13.2438 14.8404 12.4971 14.4165 11.9999 13.814C11.5028 14.4165 10.7561 14.8403 9.90007 14.9587L9.89485 14.9594L9.85574 14.9645L9.84595 14.9658L9.80829 14.9702L9.7978 14.9714L9.76358 14.9749L9.74806 14.9764L9.71881 14.979L9.69839 14.9808L9.6741 14.9826L9.64891 14.9844L9.62786 14.9857L9.59981 14.9873L9.58105 14.9882L9.5504 14.9896L9.53641 14.9901L9.49971 14.9912L9.4929 14.9913C9.46543 14.992 9.43783 14.9924 9.41022 14.9924C8.35193 14.9924 7.41078 14.5286 6.82096 13.8137C6.23113 14.5286 5.28992 14.9924 4.23156 14.9924C3.99465 14.9924 3.76385 14.9685 3.54131 14.9244V16.5498H9.44921ZM14.5077 13.8263C14.5218 13.8269 14.5359 13.8273 14.55 13.8276C14.5588 13.8278 14.5674 13.8279 14.576 13.828C14.5806 13.828 14.5851 13.828 14.5897 13.828C15.6633 13.828 16.5368 13.0361 16.5368 12.0628C16.5368 11.7413 16.8244 11.4806 17.179 11.4806C17.5337 11.4806 17.8212 11.7413 17.8212 12.0628C17.8212 13.0362 18.6948 13.828 19.7684 13.828C20.842 13.828 21.7155 13.0361 21.7155 12.0628L21.7157 10.6547C21.7154 10.3286 21.4227 10.0632 21.0629 10.0632H14.5506H9.44902H2.93674C2.57695 10.0632 2.28452 10.3286 2.28414 10.6547V12.0628C2.28414 13.0361 3.15762 13.828 4.23124 13.828C5.30487 13.828 6.17841 13.0362 6.17841 12.0628C6.17841 11.7413 6.46601 11.4806 6.82064 11.4806C7.17527 11.4806 7.46287 11.7413 7.46287 12.0628C7.46287 13.0361 8.33628 13.828 9.40997 13.828C9.42333 13.828 9.43662 13.8279 9.44985 13.8276C9.4575 13.8274 9.46515 13.8272 9.47278 13.827C9.47925 13.8268 9.4857 13.8265 9.49214 13.8263L9.50054 13.826C9.51294 13.8255 9.52528 13.8249 9.53761 13.8241L9.55084 13.8234C9.56102 13.8227 9.57119 13.8219 9.58131 13.8211L9.60223 13.8194L9.62621 13.8171L9.65146 13.8145L9.67225 13.812L9.70176 13.8083L9.71607 13.8062C9.72765 13.8046 9.73923 13.8028 9.75074 13.801L9.7618 13.7992C9.77452 13.797 9.78724 13.7948 9.7999 13.7925L9.80607 13.7914C9.82031 13.7887 9.83456 13.7859 9.84868 13.783L9.85027 13.7826C9.86547 13.7794 9.88067 13.7761 9.89574 13.7726L9.89663 13.7723C10.7356 13.5759 11.3573 12.884 11.3573 12.0629C11.3573 11.7462 11.6364 11.4885 11.9838 11.481L12.0004 11.4808L12.0161 11.481C12.3635 11.4885 12.6426 11.7462 12.6426 12.0629C12.6426 12.884 13.2642 13.576 14.1032 13.7723L14.1041 13.7726C14.1192 13.776 14.1344 13.7794 14.1496 13.7826L14.1512 13.783C14.1653 13.7859 14.1796 13.7887 14.1938 13.7914L14.2 13.7925C14.2126 13.7948 14.2254 13.797 14.2381 13.7992L14.2491 13.801C14.2606 13.8029 14.2722 13.8046 14.2838 13.8062L14.2981 13.8083L14.3276 13.812L14.3484 13.8145L14.3737 13.8171L14.3976 13.8194L14.4186 13.8211L14.449 13.8234L14.4623 13.8241C14.4745 13.8248 14.4869 13.8255 14.4993 13.826L14.5077 13.8263Z"/>
</svg>
