<svg width="24" height="24" viewBox="0 0 24 24" xmlns="http://www.w3.org/2000/svg">
<path fill-rule="evenodd" clip-rule="evenodd" d="M16.9387 1.77547C17.1333 1.7274 17.3379 1.80026 17.4583 1.96055L18.8276 3.7831C19.3651 4.49854 20.001 5.13444 20.7164 5.67196L22.539 7.04126C22.6993 7.16169 22.7721 7.36623 22.7241 7.56088C22.676 7.75552 22.5163 7.90264 22.3184 7.93461L18.2845 8.58618C19.0211 9.876 18.839 11.5478 17.738 12.6487L12.646 17.7407C11.5451 18.8417 9.87332 19.0238 8.58349 18.2872L7.93192 22.3211C7.89993 22.5192 7.75262 22.6789 7.55778 22.7269C7.36295 22.7748 7.15832 22.7016 7.03807 22.541L5.68154 20.7291C5.13883 20.0043 4.49528 19.3607 3.77041 18.818L1.95854 17.4615C1.79792 17.3412 1.72474 17.1366 1.77268 16.9418C1.82062 16.7469 1.98039 16.5996 2.17847 16.5676L6.21236 15.916C5.47573 14.6262 5.65788 12.9544 6.75881 11.8535L11.8508 6.76149C12.9518 5.66056 14.6235 5.47842 15.9134 6.21505L16.5649 2.18116C16.5969 1.98323 16.744 1.82354 16.9387 1.77547ZM16.8089 6.94232L17.5572 7.69069L20.9987 7.13481L20.1158 6.47146C19.325 5.87736 18.6222 5.17452 18.0281 4.38377L17.3647 3.50084L16.8089 6.94232ZM6.93963 16.8115L3.50086 17.367L4.36974 18.0175C5.17091 18.6173 5.88221 19.3286 6.48204 20.1298L7.13256 20.9987L7.688 17.5599L6.93963 16.8115ZM15.9209 7.4686C14.9923 6.53994 13.4866 6.53994 12.5579 7.4686L7.46591 12.5606C6.53725 13.4893 6.53725 14.9949 7.46591 15.9236L8.57594 17.0336C9.5046 17.9623 11.0103 17.9623 11.9389 17.0336L17.0309 11.9416C17.9596 11.0129 17.9596 9.50729 17.0309 8.57862L15.9209 7.4686ZM14.7338 11.559C15.3293 10.9635 15.318 9.99462 14.7087 9.41321L14.6548 9.36168C14.455 9.17104 14.4476 8.85454 14.6382 8.65477C14.8289 8.455 15.1454 8.4476 15.3451 8.63824L15.3991 8.68976C16.4145 9.65878 16.4334 11.2736 15.4409 12.2661L14.8536 12.8535C14.6583 13.0488 14.3417 13.0488 14.1465 12.8535C13.9512 12.6583 13.9512 12.3417 14.1465 12.1464L14.7338 11.559Z"/>
</svg>
