<svg width="24" height="24" viewBox="0 0 24 24" xmlns="http://www.w3.org/2000/svg">
<path fill-rule="evenodd" clip-rule="evenodd" d="M8.73046 1.02005C8.73011 1.02085 8.72992 1.02144 8.72992 1.02296V2.0988L8.72992 2.09884C8.72991 2.09947 8.72979 2.10569 8.73917 2.11701C8.74957 2.12956 8.7682 2.14326 8.79399 2.15002C8.84289 2.16283 8.89184 2.17523 8.94043 2.18754L8.94049 2.18756C9.15479 2.24186 9.36191 2.29434 9.52537 2.37206C9.78393 2.495 9.94537 2.67401 10.0995 2.9117C10.2051 3.07441 10.2704 3.26688 10.3138 3.43159C10.3589 3.60332 10.3894 3.78195 10.4103 3.93855C10.4146 3.97097 10.4185 4.00278 10.4221 4.03376H13.5117C13.5214 3.97403 13.5319 3.91108 13.5431 3.847C13.571 3.68663 13.6041 3.51302 13.6395 3.36325C13.6571 3.28866 13.6767 3.21372 13.6982 3.1463C13.7165 3.08914 13.7477 2.99913 13.7983 2.91841C14.1228 2.40025 14.7082 2.23107 15.0882 2.16968C15.164 2.15743 15.2373 2.14856 15.3064 2.14221V1.00024H8.77107C8.75398 1.00024 8.74249 1.0065 8.73579 1.01297C8.73245 1.0162 8.73098 1.01885 8.73046 1.02005ZM16.3064 1.00024V2.13368H17.0015C17.2777 2.13368 17.5015 1.90983 17.5015 1.63368V1.50024C17.5015 1.2241 17.2777 1.00024 17.0015 1.00024H16.3064ZM14.4375 4.60097L14.4363 4.61007L14.4362 4.61005L14.4361 4.61032L14.4359 4.61166L14.435 4.61752L14.4315 4.64111C14.4284 4.66186 14.4239 4.69221 14.4186 4.72995C14.4078 4.80555 14.3935 4.91017 14.3792 5.02625C14.3495 5.26698 14.3238 5.52767 14.3238 5.68746V6.06341C14.3238 6.53252 14.3732 6.99796 14.4699 7.45298C14.6621 8.35753 15.0411 9.22147 15.5907 9.9911C17.4218 12.5555 18.4037 15.5992 18.4037 18.7181V21.8406C18.4037 23.0492 17.3944 23.9997 16.1862 23.9997H7.71596C6.50772 23.9997 5.49841 23.0492 5.49841 21.8406V18.7181C5.49841 16.889 5.83612 15.0856 6.48493 13.3895C6.94235 12.1937 7.55433 11.0514 8.31144 9.9911C8.86099 9.22147 9.24005 8.35753 9.43223 7.45298C9.5289 6.99796 9.57832 6.53252 9.57832 6.06341V5.68746C9.57832 5.52767 9.55261 5.26698 9.52295 5.02625C9.50865 4.91017 9.49431 4.80555 9.48355 4.72995C9.47817 4.69221 9.47371 4.66186 9.47062 4.64111L9.46707 4.61752L9.46618 4.61166L9.46597 4.61032L9.46593 4.61006L9.46593 4.61005L9.46593 4.61003L9.46593 4.61002L9.46119 4.57932L9.4603 4.54855L9.4603 4.54853L9.46029 4.54844L9.46029 4.54835L9.46029 4.54823L9.46026 4.54747L9.46005 4.54146L9.45893 4.51486C9.45782 4.49099 9.45595 4.45556 9.45294 4.41147C9.44691 4.32281 9.43647 4.20164 9.41901 4.07059C9.40139 3.9383 9.37762 3.80374 9.34664 3.6859C9.3138 3.56104 9.28112 3.48756 9.26057 3.45587C9.16442 3.30763 9.12778 3.29026 9.09772 3.27601L9.09597 3.27518C9.06376 3.25986 9.01368 3.24177 8.91745 3.21519C8.85919 3.19909 8.7992 3.1838 8.72697 3.16539L8.72689 3.16537L8.72687 3.16537L8.72679 3.16535C8.67295 3.15163 8.61231 3.13617 8.54051 3.11735C8.09762 3.0013 7.72992 2.60667 7.72992 2.0988V1.02296C7.72992 0.441935 8.21254 0.000244141 8.77107 0.000244141H15.8064H17.0015C17.8299 0.000244141 18.5015 0.671817 18.5015 1.50024V1.63368C18.5015 2.46211 17.8299 3.13368 17.0015 3.13368H15.8064H15.7843L15.7636 3.13185L15.7634 3.13183L15.7634 3.13183L15.7631 3.1318L15.7627 3.13176L15.7585 3.13147C15.7531 3.1311 15.7439 3.13051 15.7312 3.1299C15.7058 3.12868 15.667 3.12741 15.6184 3.12759C15.5454 3.12786 15.4538 3.13142 15.3543 3.14243L15.3524 3.15658C15.355 3.17136 15.3616 3.20012 15.3783 3.24381C15.4345 3.39029 15.5994 3.69165 16.0694 4.1634C16.5354 4.63111 16.924 4.8877 17.1823 5.02493C17.3117 5.0937 17.4094 5.13303 17.469 5.15404C17.4978 5.16421 17.5178 5.17012 17.5283 5.173L17.5289 5.17355L17.5294 5.17365L17.5288 5.17316L17.5293 5.17329L17.5358 5.17501C17.8023 5.23266 17.974 5.49383 17.9202 5.76208C17.8658 6.03282 17.6023 6.20824 17.3316 6.15389L17.43 5.66367C17.3316 6.15389 17.3313 6.15384 17.331 6.15379L17.3305 6.15368L17.3294 6.15345L17.3269 6.15293L17.3212 6.15171L17.3066 6.14839C17.2955 6.14577 17.2817 6.1423 17.2653 6.13781C17.2325 6.12882 17.1892 6.11573 17.1364 6.09711C17.0307 6.05985 16.8873 6.00059 16.7131 5.908C16.364 5.72254 15.8953 5.40544 15.361 4.8692C14.9582 4.46491 14.7092 4.12781 14.5591 3.84901C14.5485 3.90446 14.5382 3.96155 14.5282 4.01876C14.5019 4.16988 14.4791 4.31582 14.4629 4.42442C14.4548 4.47857 14.4484 4.5231 14.4441 4.55393L14.4391 4.58931L14.4379 4.59829L14.4376 4.60043L14.4375 4.6009L14.4375 4.60094L14.4375 4.60097ZM17.5288 5.17316L17.5283 5.173L15.3524 3.15658L17.5288 5.17316ZM10.5309 5.03376C10.5554 5.24956 10.5783 5.49862 10.5783 5.68746V6.06341C10.5783 6.39683 10.5566 6.72861 10.5138 7.05688H13.3883C13.3455 6.72861 13.3238 6.39683 13.3238 6.06341V5.68746C13.3238 5.49862 13.3467 5.24956 13.3713 5.03376H10.5309ZM13.5869 8.05688H10.3152C10.0751 8.95192 9.67386 9.80392 9.12526 10.5722C8.41748 11.5634 7.84592 12.6305 7.41893 13.7467C6.81331 15.33 6.49841 17.0124 6.49841 18.7181V21.8406C6.49841 22.4645 7.02705 22.9997 7.71596 22.9997H16.1862C16.8751 22.9997 17.4037 22.4645 17.4037 21.8406V18.7181C17.4037 15.8101 16.4884 12.9692 14.7769 10.5722C14.2283 9.80392 13.827 8.95192 13.5869 8.05688ZM10.7249 12.3038C10.8926 12.0844 10.8507 11.7706 10.6313 11.6029C10.4119 11.4352 10.0981 11.4772 9.93042 11.6966C9.32122 12.4936 8.82809 13.3533 8.4592 14.2542C7.93591 15.5323 7.66308 16.8924 7.66308 18.2728C7.66308 18.5489 7.88694 18.7728 8.16308 18.7728C8.43922 18.7728 8.66308 18.5489 8.66308 18.2728C8.66308 17.0249 8.90961 15.7933 9.38463 14.6331C9.71958 13.8151 10.1683 13.032 10.7249 12.3038Z"/>
</svg>
