<svg width="24" height="24" viewBox="0 0 24 24" xmlns="http://www.w3.org/2000/svg">
<path fill-rule="evenodd" clip-rule="evenodd" d="M8.18502 6.59924C8.18502 4.61419 9.80445 3 11.8083 3C13.8121 3 15.4316 4.61419 15.4316 6.59924C15.4316 6.87538 15.6554 7.09924 15.9316 7.09924C16.2077 7.09924 16.4316 6.87538 16.4316 6.59924C16.4316 6.35101 16.4118 6.10742 16.3738 5.86992C16.7195 5.55412 17.1336 5.31904 17.5856 5.1833C18.0777 5.03551 18.5992 5.01013 19.1037 5.10948C19.6082 5.20883 20.0798 5.42974 20.4767 5.75222C20.8735 6.07467 21.1835 6.48865 21.3795 6.95718C21.5755 7.42569 21.6517 7.93458 21.6016 8.43889C21.5514 8.94321 21.3763 9.42784 21.0915 9.84984C20.8067 10.2719 20.4208 10.6184 19.9675 10.8582C19.5238 11.093 19.0293 11.2183 18.526 11.2235C18.52 11.2233 18.514 11.2232 18.508 11.2232C18.4999 11.2232 18.4918 11.2234 18.4838 11.2237C18.2121 11.2289 17.9935 11.4508 17.9935 11.7237C17.9935 11.765 17.9985 11.8052 18.008 11.8437V16.8419H15.3853V14.7551C15.3853 14.479 15.1615 14.2551 14.8853 14.2551C14.6092 14.2551 14.3853 14.479 14.3853 14.7551V16.8419H12.2929V14.7551C12.2929 14.479 12.069 14.2551 11.7929 14.2551C11.5167 14.2551 11.2929 14.479 11.2929 14.7551V16.8419H9.20037V14.7551C9.20037 14.479 8.97651 14.2551 8.70037 14.2551C8.42423 14.2551 8.20037 14.479 8.20037 14.7551L8.20037 16.8419H5.60737V11.8483C5.6176 11.8085 5.62304 11.7667 5.62304 11.7237C5.62304 11.4501 5.40343 11.2279 5.13093 11.2237C5.12312 11.2234 5.11527 11.2232 5.10737 11.2232C5.10144 11.2232 5.09554 11.2233 5.08966 11.2235C4.58667 11.2182 4.09244 11.0928 3.64901 10.8582C3.1958 10.6184 2.80987 10.2719 2.52503 9.84984C2.24022 9.42784 2.06516 8.94321 2.01499 8.43889C1.96482 7.93458 2.04102 7.42569 2.23704 6.95718C2.43307 6.48865 2.74302 6.07467 3.1399 5.75222C3.5368 5.42974 4.00833 5.20883 4.51283 5.10948C5.01733 5.01013 5.53881 5.03551 6.03094 5.1833C6.48296 5.31905 6.89708 5.55413 7.24278 5.86994C7.20477 6.10743 7.18502 6.35102 7.18502 6.59924C7.18502 6.87538 7.40887 7.09924 7.68502 7.09924C7.96116 7.09924 8.18502 6.87538 8.18502 6.59924ZM14.8807 17.8419H11.7976L11.7929 17.8419L11.7882 17.8419H8.70505L8.70037 17.8419L8.69569 17.8419H5.60737V19.9465C5.60737 20.2226 5.83123 20.4465 6.10737 20.4465H17.508C17.7842 20.4465 18.008 20.2226 18.008 19.9465V17.8419H14.89C14.8885 17.8419 14.8869 17.8419 14.8853 17.8419C14.8838 17.8419 14.8822 17.8419 14.8807 17.8419ZM4.60737 12.1916C4.10986 12.1294 3.62638 11.9776 3.18129 11.7421C2.58358 11.4258 2.07335 10.9681 1.69615 10.4093C1.31894 9.85037 1.08653 9.2076 1.0199 8.53789C0.953275 7.86816 1.05454 7.19262 1.31453 6.57121C1.57452 5.94982 1.98506 5.40204 2.50932 4.97609C3.03355 4.55017 3.65538 4.25913 4.31961 4.12832C4.98383 3.99752 5.67038 4.0309 6.31856 4.22556C6.75812 4.35756 7.17101 4.56103 7.54086 4.82644C8.2389 3.16541 9.88817 2 11.8083 2C13.7284 2 15.3777 3.16541 16.0757 4.82642C16.4456 4.56102 16.8584 4.35756 17.298 4.22556C17.9462 4.0309 18.6327 3.99752 19.2969 4.12832C19.9612 4.25913 20.583 4.55017 21.1072 4.97609C21.6315 5.40204 22.042 5.94982 22.302 6.57121C22.562 7.19262 22.6633 7.86816 22.5967 8.53789C22.53 9.2076 22.2976 9.85037 21.9204 10.4093C21.5432 10.9681 21.033 11.4258 20.4353 11.7421C19.9898 11.9778 19.5059 12.1296 19.008 12.1917V19.9465C19.008 20.7749 18.3364 21.4465 17.508 21.4465H6.10737C5.27894 21.4465 4.60737 20.7749 4.60737 19.9465V12.1916Z"/>
</svg>
