<svg width="24" height="25" viewBox="0 0 24 25" xmlns="http://www.w3.org/2000/svg">
<path fill-rule="evenodd" clip-rule="evenodd" d="M5.28568 0.5C5.28568 0.223858 5.50954 0 5.78568 0H14.7307C16.348 0 17.9072 0.602929 19.1038 1.69101L19.2648 1.83741C19.4691 2.0232 19.4841 2.33942 19.2983 2.54373C19.1125 2.74803 18.7963 2.76304 18.592 2.57726L18.431 2.43086C17.4186 1.51017 16.0992 1 14.7307 1H10.7569L10.7569 4.18923H11.453C11.7291 4.18923 11.953 4.41308 11.953 4.68923L11.953 6.7001L12.1041 6.7001C13.4848 6.70008 14.6041 7.81936 14.6041 9.20008L14.6041 10.8269V19.6478L14.6041 21.5055C14.6041 22.8862 13.4848 24.0055 12.1041 24.0055H5.50001C4.1193 24.0055 3.00002 22.8862 3.00001 21.5055L3 20.5379V9.20011C3 7.84275 4.08174 6.73805 5.43015 6.70106L5.43014 4.68923C5.43014 4.55662 5.48282 4.42944 5.57659 4.33567C5.67036 4.24191 5.79753 4.18923 5.93014 4.18923H6.55687L6.55687 1H5.78568C5.50954 1 5.28568 0.776142 5.28568 0.5ZM10.953 6.7001L10.953 5.18923H10.2569L7.05687 5.18923H6.43014L6.43015 6.7001L10.953 6.7001ZM9.75686 4.18923V1.00025L7.55687 1.00024L7.55687 4.18923L9.75686 4.18923ZM12.1041 23.0055C12.9325 23.0055 13.6041 22.3339 13.6041 21.5055L13.6041 20.1478H8.18648C7.35805 20.1478 6.68648 19.4762 6.68648 18.6478L6.68648 11.8269C6.68648 10.9985 7.35805 10.3269 8.18648 10.3269L13.6041 10.3269L13.6041 9.20009C13.6041 8.37166 12.9325 7.70009 12.1041 7.7001L11.453 7.70011L5.93015 7.70011L5.5 7.7001C4.67157 7.7001 4 8.37168 4 9.20011V20.5379L4.00001 21.5055C4.00001 22.3339 4.67158 23.0055 5.50001 23.0055H12.1041ZM13.6041 11.3269L8.18648 11.3269C7.91034 11.3269 7.68648 11.5508 7.68648 11.8269L7.68648 18.6478C7.68648 18.924 7.91034 19.1478 8.18648 19.1478H13.6041V11.3269ZM18.4903 4.43614L18.8659 4.76617C18.4903 4.43614 18.4902 4.43621 18.4902 4.43628L18.49 4.43646L18.4896 4.43693L18.4884 4.43835L18.4843 4.44305L18.4699 4.45965C18.4577 4.47386 18.4403 4.49427 18.4184 4.52032C18.3747 4.5724 18.3131 4.64718 18.2395 4.74016C18.0927 4.92558 17.8962 5.18601 17.6987 5.48487C17.5022 5.78231 17.2987 6.12682 17.1429 6.47967C16.9901 6.82564 16.8659 7.21754 16.8659 7.59951C16.8659 8.22811 17.0056 8.86895 17.3192 9.37031C17.6422 9.88677 18.1633 10.2662 18.8659 10.2662C19.5685 10.2662 20.0896 9.88677 20.4126 9.37031C20.7262 8.86895 20.8659 8.22811 20.8659 7.59951C20.8659 7.21754 20.7417 6.82564 20.5889 6.47967C20.4331 6.12682 20.2296 5.78231 20.0331 5.48487C19.8356 5.18601 19.6391 4.92558 19.4923 4.74016C19.4187 4.64718 19.3571 4.5724 19.3134 4.52032C19.2915 4.49427 19.2741 4.47386 19.2619 4.45965L19.2475 4.44305L19.2435 4.43835L19.2422 4.43693L19.2418 4.43646L19.2416 4.43628C19.2416 4.43621 19.2415 4.43614 18.8659 4.76617L19.2415 4.43614C19.1466 4.3281 19.0097 4.26617 18.8659 4.26617C18.7221 4.26617 18.5852 4.3281 18.4903 4.43614ZM18.5331 6.03614C18.6477 5.86273 18.7626 5.70263 18.8659 5.56523C18.9692 5.70263 19.0842 5.86273 19.1987 6.03614C19.3772 6.30625 19.5487 6.59969 19.6742 6.88367C19.8026 7.17454 19.8659 7.41836 19.8659 7.59951C19.8659 8.09714 19.7527 8.53963 19.5648 8.84004C19.3863 9.12536 19.1574 9.26617 18.8659 9.26617C18.5744 9.26617 18.3455 9.12536 18.167 8.84004C17.9791 8.53963 17.8659 8.09714 17.8659 7.59951C17.8659 7.41836 17.9292 7.17454 18.0577 6.88367C18.1831 6.59969 18.3546 6.30625 18.5331 6.03614Z"/>
</svg>
