<svg width="24" height="24" viewBox="0 0 24 24" xmlns="http://www.w3.org/2000/svg">
<path fill-rule="evenodd" clip-rule="evenodd" d="M1.99878 5.5C1.99878 4.67157 2.67035 4 3.49878 4H20.5012C21.3296 4 22.0012 4.67157 22.0012 5.5V14.9211C22.0012 15.7495 21.3296 16.4211 20.5012 16.4211H14.6593V19H15.8868C16.163 19 16.3868 19.2239 16.3868 19.5C16.3868 19.7761 16.163 20 15.8868 20H14.1593H9.84061H8.11312C7.83697 20 7.61312 19.7761 7.61312 19.5C7.61312 19.2239 7.83697 19 8.11312 19H9.34061V16.4211H3.49878C2.67035 16.4211 1.99878 15.7495 1.99878 14.9211V5.5ZM10.3406 16.4211V19H13.6593V16.4211H10.3406ZM3.49878 5C3.22264 5 2.99878 5.22386 2.99878 5.5V14.9211C2.99878 15.1972 3.22264 15.4211 3.49878 15.4211H9.84061H14.1593H20.5012C20.7773 15.4211 21.0012 15.1972 21.0012 14.9211V5.5C21.0012 5.22386 20.7773 5 20.5012 5H3.49878Z"/>
</svg>
