<svg width="24" height="24" viewBox="0 0 24 24" xmlns="http://www.w3.org/2000/svg">
<path fill-rule="evenodd" clip-rule="evenodd" d="M17.0529 6.1301C16.6058 4.9128 15.4504 4.03312 14.0771 4.00092C12.2827 3.95884 10.7939 5.3794 10.7519 7.17382C10.7214 8.47277 11.4573 9.61257 12.5489 10.1586C12.7959 10.2821 12.8959 10.5825 12.7724 10.8294C12.7164 10.9414 12.6241 11.0231 12.5169 11.0676C12.4485 11.1205 12.3786 11.1755 12.3069 11.2318C11.4652 11.8933 10.3843 12.7428 8.81379 12.706C7.51965 12.6756 6.57477 12.0055 5.93512 11.547C5.58584 11.2966 5.37939 11.1499 5.22088 11.092C5.19905 11.084 5.18361 11.08 5.17352 11.0779C5.16826 11.083 5.16129 11.0904 5.15263 11.101C4.72656 11.621 4.39857 12.0656 4.17601 12.5766C3.95724 13.0788 3.82979 13.671 3.85205 14.4884C3.89992 16.2451 4.76785 17.5812 6.08962 18.5061C7.4238 19.4397 9.21852 19.9485 11.0539 19.9951C13.214 20.05 15.1459 19.593 16.5076 18.7114C17.8507 17.8418 18.6437 16.5623 18.598 14.8848C18.5403 12.7661 17.3317 11.4948 15.9047 10.9638C15.7454 10.9547 15.5932 10.8696 15.5046 10.7225C15.3622 10.486 15.4384 10.1787 15.675 10.0363C16.3094 9.65411 16.8037 9.06122 17.0589 8.35353C17.0661 8.33376 17.0743 8.31472 17.0836 8.29645C17.1616 8.12627 17.3324 8.00711 17.5321 8.00461C18.5301 7.9921 19.062 7.60952 19.3893 7.18691C19.569 6.95476 19.6913 6.70927 19.788 6.47008L17.5281 6.47008C17.3241 6.47008 17.1486 6.34793 17.0709 6.17278C17.0643 6.15897 17.0583 6.14474 17.0529 6.1301ZM17.8612 5.47008C17.2029 4.04526 15.777 3.0405 14.1006 3.00119C11.754 2.94617 9.80715 4.80382 9.75213 7.15038C9.71883 8.57017 10.3858 9.84294 11.4363 10.6392C10.665 11.2307 9.91386 11.7315 8.83723 11.7063C7.882 11.6839 7.16276 11.1967 6.51777 10.7343L6.45 10.6855C6.17291 10.4862 5.85939 10.2606 5.56398 10.1527C5.3894 10.0889 5.17631 10.0475 4.94785 10.0991C4.71236 10.1523 4.52461 10.2897 4.37913 10.4672C3.94267 10.9999 3.53983 11.533 3.25921 12.1773C2.97478 12.8302 2.82668 13.5706 2.85243 14.5156C2.91018 16.6355 3.97557 18.2473 5.51629 19.3255C7.0446 20.3949 9.04155 20.9443 11.0285 20.9948C13.3257 21.0532 15.4732 20.5724 17.051 19.5508C18.6475 18.5173 19.6541 16.9283 19.5977 14.8576C19.5368 12.623 18.3895 11.1188 16.9277 10.3316C17.3261 9.95326 17.6516 9.49795 17.8802 8.98841C18.9946 8.89351 19.7143 8.40053 20.1799 7.79916C20.5821 7.27975 20.7862 6.67781 20.907 6.32131C20.9303 6.25251 20.9506 6.19286 20.9685 6.1447C21.0257 5.99121 21.0041 5.81942 20.9107 5.68487C20.8172 5.55032 20.6638 5.47008 20.5 5.47008L17.8612 5.47008ZM15.9509 5.92817C15.9509 5.65202 15.727 5.42816 15.4509 5.42816C15.1748 5.42816 14.9509 5.65201 14.9509 5.92815L14.9509 5.96529C14.9509 6.24143 15.1747 6.46529 15.4509 6.46529C15.727 6.4653 15.9509 6.24144 15.9509 5.9653L15.9509 5.92817ZM5.18551 11.0679C5.1855 11.0679 5.18489 11.0682 5.18367 11.0691L5.18551 11.0679Z"/>
</svg>
