<svg width="24" height="24" viewBox="0 0 24 24" xmlns="http://www.w3.org/2000/svg">
<path fill-rule="evenodd" clip-rule="evenodd" d="M14.655 3.26844C14.6598 3.22089 14.6654 3.17876 14.6711 3.14233C16.0402 2.35413 17.5699 2.0366 18.8614 2.00301C19.5344 1.98551 20.1299 2.04555 20.591 2.14923C21.0777 2.25864 21.336 2.39919 21.4184 2.4816C21.5008 2.56402 21.6414 2.82236 21.7508 3.309C21.8545 3.77013 21.9145 4.36564 21.897 5.03867C21.863 6.34541 21.5383 7.89608 20.7295 9.27757C20.6967 9.28934 20.6563 9.30235 20.6086 9.31505C20.4386 9.3603 20.1731 9.40224 19.8236 9.36838C19.1328 9.30144 18.05 8.93116 16.6877 7.5689C15.327 6.20816 14.8536 5.02288 14.704 4.2122C14.6286 3.80373 14.6337 3.48133 14.655 3.26844ZM19.7271 10.3637C19.8226 10.373 19.9144 10.3782 20.0023 10.38C19.4935 11.0829 18.9028 11.7783 18.236 12.4451C16.4344 14.2467 13.8929 15.0186 11.7479 15.3296C10.6824 15.4841 9.73204 15.5223 9.04858 15.5218C8.78692 15.5216 8.56497 15.5158 8.39135 15.5087C8.38772 15.42 8.38442 15.3187 8.38203 15.2058C8.3721 14.7374 8.378 14.0728 8.44161 13.2938C8.56936 11.7295 8.92753 9.73408 9.83374 7.94061C10.2506 7.11553 10.7812 6.33774 11.4549 5.66407C11.8909 5.22812 12.3392 4.82456 12.794 4.45508C13.0769 4.22519 13.3623 4.00859 13.6487 3.80564C13.6591 3.98425 13.6813 4.18095 13.7206 4.3937C13.9099 5.41963 14.4887 6.78412 15.9806 8.27601C17.471 9.76639 18.7596 10.27 19.7271 10.3637ZM7.44493 13.2124C7.39329 13.8448 7.37776 14.4059 7.3782 14.857C5.86055 13.7512 4.42246 13.693 3.29405 14.0007C2.63815 14.1796 2.10639 14.4759 1.74036 14.7248C1.5565 14.8498 1.41197 14.9645 1.31178 15.0496C1.26161 15.0922 1.22236 15.1275 1.19464 15.1532C1.18077 15.1661 1.16977 15.1765 1.16172 15.1843L1.15185 15.1939L1.14859 15.1971L1.14738 15.1983L1.14688 15.1988C1.14666 15.199 1.14645 15.1992 1.5 15.5528L1.14645 15.1992C0.951185 15.3945 0.951184 15.7111 1.14645 15.9063L1.5 15.5528C1.14645 15.9063 1.14656 15.9064 1.14667 15.9066L1.14694 15.9068L1.14757 15.9075L1.14927 15.9091L1.15438 15.9142L1.17136 15.9307C1.18566 15.9444 1.20586 15.9635 1.23167 15.9873C1.28325 16.0348 1.35742 16.1009 1.45176 16.1795C1.64 16.3362 1.91097 16.5444 2.24519 16.7528C2.90529 17.1645 3.85515 17.6044 4.92362 17.6044C5.55199 17.6044 6.10437 17.4902 6.56894 17.3311C6.40986 17.7957 6.29566 18.348 6.29566 18.9764C6.29566 20.0449 6.73549 20.9947 7.14721 21.6548C7.35568 21.9891 7.56384 22.26 7.72056 22.4483C7.79911 22.5426 7.86524 22.6168 7.91273 22.6684C7.93649 22.6942 7.95563 22.7144 7.96937 22.7287L7.98585 22.7457L7.99089 22.7508L7.99258 22.7525L7.99321 22.7531L7.99347 22.7534C7.99359 22.7535 7.9937 22.7536 8.34725 22.4L7.9937 22.7536C8.08746 22.8474 8.21464 22.9 8.34725 22.9C8.47986 22.9 8.60703 22.8474 8.7008 22.7536L8.34725 22.4C8.7008 22.7536 8.70101 22.7534 8.70123 22.7532L8.70173 22.7527L8.70293 22.7514L8.70615 22.7482L8.71575 22.7383C8.72351 22.7303 8.73396 22.7193 8.74681 22.7054C8.77249 22.6777 8.80782 22.6384 8.85042 22.5883C8.93549 22.4881 9.05022 22.3435 9.17524 22.1597C9.42413 21.7936 9.72048 21.2619 9.89932 20.606C10.207 19.4776 10.1489 18.0395 9.04299 16.5218L9.04786 16.5218C9.76743 16.5223 10.7675 16.4822 11.8914 16.3193C14.1254 15.9954 16.9192 15.1761 18.9431 13.1522C19.9692 12.1261 20.8297 11.0307 21.5034 9.93144C22.4808 8.3367 22.8581 6.54806 22.8967 5.06467C22.916 4.32186 22.8508 3.64276 22.7264 3.08964C22.6078 2.56203 22.4175 2.06649 22.1255 1.7745C21.8335 1.4825 21.338 1.29221 20.8104 1.17358C20.2573 1.04922 19.5782 0.984033 18.8354 1.00335C17.352 1.04193 15.5633 1.4192 13.9686 2.39661C13.4499 2.71451 12.9323 3.07388 12.4225 3.47245C12.2828 3.40804 12.1011 3.3345 11.8824 3.26779C11.3526 3.10621 10.6016 2.98364 9.7087 3.13244C9.12139 3.23032 8.59298 3.45992 8.1526 3.71696C7.53848 4.0754 7.24447 4.676 7.2321 5.29202C7.21998 5.89564 7.47479 6.50955 7.93272 6.96748L8.78221 7.81697C7.91326 9.67886 7.5708 11.6711 7.44493 13.2124ZM2.77441 15.9043C2.58614 15.7869 2.42088 15.6693 2.28398 15.5645L2.30265 15.5517C2.60522 15.346 3.03625 15.1075 3.55712 14.9655C4.47299 14.7158 5.73233 14.743 7.14667 15.9473C7.06902 15.9977 6.98126 16.0507 6.88384 16.1038C6.42422 16.3545 5.7574 16.6044 4.92362 16.6044C4.12005 16.6044 3.35811 16.2684 2.77441 15.9043ZM8.93454 20.3429C9.18426 19.427 9.15703 18.1677 7.95272 16.7534C7.90236 16.831 7.84936 16.9188 7.79622 17.0162C7.54552 17.4758 7.29566 18.1426 7.29566 18.9764C7.29566 19.78 7.63163 20.5419 7.9957 21.1256C8.11313 21.3139 8.23069 21.4791 8.33553 21.6161L8.3483 21.5974C8.55403 21.2948 8.79252 20.8638 8.93454 20.3429ZM9.87308 4.11884C10.5562 4.005 11.1299 4.09081 11.54 4.20926C11.2723 4.44759 11.0078 4.69693 10.7478 4.95696C10.1576 5.54719 9.67031 6.20254 9.26828 6.88882L8.63983 6.26037C8.36133 5.98187 8.2256 5.6257 8.2319 5.31211C8.23795 5.01091 8.37134 4.74716 8.65668 4.58061C9.02428 4.36605 9.43736 4.19145 9.87308 4.11884ZM19.5046 5.06071C19.6999 4.86545 19.6999 4.54887 19.5046 4.35361C19.3094 4.15834 18.9928 4.15834 18.7975 4.35361L18.7554 4.39573C18.5601 4.591 18.5601 4.90758 18.7554 5.10284C18.9507 5.2981 19.2673 5.2981 19.4625 5.10284L19.5046 5.06071Z"/>
</svg>
