<svg width="24" height="24" viewBox="0 0 24 24" xmlns="http://www.w3.org/2000/svg">
<path fill-rule="evenodd" clip-rule="evenodd" d="M20.4602 2.20359L20.0155 1.94591L20.1727 1.48639C20.3176 1.53779 20.4339 1.64806 20.4896 1.78693C20.5453 1.9258 20.5345 2.07868 20.4602 2.20359ZM10.4615 9.30956V11.3807H5.03965C4.21123 11.3807 3.53965 12.0523 3.53965 12.8807V13.6311C3.53965 14.4595 4.21122 15.1311 5.03965 15.1311H5.09008L6.47611 21.8031C6.62069 22.4991 7.23392 22.998 7.94476 22.998H13.9782C14.6891 22.998 15.3023 22.4991 15.4469 21.8031L16.8329 15.1311H16.8833C17.7118 15.1311 18.3833 14.4595 18.3833 13.6311V12.8807C18.3833 12.0523 17.7118 11.3807 16.8833 11.3807H11.4615V5.604C11.7573 5.67762 12.1478 5.76032 12.6017 5.82166C13.6246 5.95989 15.0018 5.99397 16.3472 5.54278C17.6925 5.0916 18.7192 4.25139 19.4019 3.54114C19.7453 3.18397 20.007 2.85405 20.1838 2.61206C20.2724 2.49091 20.3399 2.39136 20.3861 2.32088C20.4092 2.28563 20.4269 2.25762 20.4393 2.23777L20.4538 2.21422L20.458 2.20724L20.4594 2.205L20.4599 2.20419L20.4601 2.20386C20.4601 2.20372 20.4602 2.20359 20.0155 1.94591C20.1727 1.48639 20.1725 1.48634 20.1724 1.48628L20.172 1.48615L20.171 1.48581L20.1684 1.4849L20.1603 1.48207L20.1325 1.47269C20.1091 1.46485 20.0757 1.45398 20.0332 1.44073C19.9482 1.41425 19.8263 1.37824 19.6731 1.33814C19.3671 1.25807 18.9342 1.16111 18.4198 1.0916C17.3968 0.953369 16.0197 0.919294 14.6743 1.37048C13.3289 1.82166 12.3023 2.66187 11.6195 3.37212C11.2762 3.72929 11.0144 4.05921 10.8376 4.3012C10.7491 4.42235 10.6815 4.5219 10.6354 4.59238C10.6123 4.62763 10.5945 4.65564 10.5822 4.67549L10.5676 4.69904L10.5634 4.70601L10.5621 4.70826L10.5616 4.70907L10.5614 4.7094C10.5614 4.70946 10.5613 4.70951 10.5881 4.72509L10.588 4.72519L10.5612 4.70967C10.5351 4.75354 10.5169 4.80085 10.5066 4.84979C10.4776 4.91308 10.4615 4.98346 10.4615 5.05761V6.30404C10.0371 5.56346 9.44292 4.76658 8.62668 4.11609C7.51525 3.23035 6.22881 2.80467 5.23909 2.59803C4.74142 2.49413 4.31104 2.444 4.00341 2.41979C3.84939 2.40767 3.72558 2.402 3.63882 2.39938C3.59542 2.39807 3.56125 2.39752 3.53715 2.3973L3.50864 2.39717L3.50024 2.3972L3.49754 2.39722L3.49656 2.39723L3.49617 2.39723C3.496 2.39724 3.49584 2.39724 3.50083 2.89644L3.49584 2.39724C3.34548 2.39883 3.20376 2.46771 3.10982 2.58482C3.01588 2.70194 2.97967 2.8549 3.0112 3.00145L3.50083 2.89644C3.0112 3.00145 3.01123 3.00161 3.01127 3.00177L3.01135 3.00215L3.01155 3.0031L3.01213 3.00573L3.01395 3.01391L3.02035 3.0416C3.02586 3.06498 3.03393 3.09809 3.04476 3.14C3.06642 3.22378 3.09922 3.34292 3.14497 3.49001C3.23637 3.7838 3.38014 4.19124 3.59136 4.65227C4.01141 5.56913 4.71111 6.72629 5.82254 7.61204C6.93397 8.49778 8.22041 8.92345 9.21013 9.13009C9.7078 9.234 10.1382 9.28413 10.4458 9.30834C10.4511 9.30875 10.4563 9.30916 10.4615 9.30956ZM11.8286 4.69145C12.0695 4.74698 12.3652 4.80499 12.6994 4.85015C13.632 4.97618 14.8325 4.99777 15.975 4.61461C17.1176 4.23144 18.0182 3.50525 18.6407 2.8577C18.8637 2.62567 19.0483 2.40659 19.1928 2.2218C18.9519 2.16627 18.6562 2.10827 18.3221 2.06311C17.3894 1.93708 16.189 1.91549 15.0464 2.29865C13.9039 2.68182 13.0033 3.40801 12.3808 4.05556C12.1578 4.28759 11.9732 4.50667 11.8286 4.69145ZM4.53965 12.8807C4.53965 12.6046 4.76351 12.3807 5.03965 12.3807H16.8833C17.1595 12.3807 17.3833 12.6046 17.3833 12.8807V13.6311C17.3833 13.9072 17.1595 14.1311 16.8833 14.1311H16.4261H5.49688H5.03965C4.76351 14.1311 4.53965 13.9072 4.53965 13.6311V12.8807ZM15.8116 15.1311L14.4678 21.5997C14.4196 21.8317 14.2152 21.998 13.9782 21.998H7.94476C7.70781 21.998 7.5034 21.8317 7.45521 21.5997L6.11143 15.1311H15.8116ZM4.50243 4.23694C4.36599 3.93914 4.26094 3.66642 4.18247 3.43966C4.42166 3.46606 4.71167 3.50818 5.03314 3.5753C5.93577 3.76375 7.05583 4.14293 8.00098 4.89616C8.94613 5.64938 9.56371 6.65501 9.9468 7.49119C10.0832 7.78899 10.1883 8.06171 10.2668 8.28847C10.0276 8.26207 9.73756 8.21995 9.41608 8.15283C8.51345 7.96437 7.39339 7.5852 6.44824 6.83197C5.50309 6.07874 4.88551 5.07312 4.50243 4.23694Z"/>
</svg>
