<svg width="24" height="24" viewBox="0 0 24 24" xmlns="http://www.w3.org/2000/svg">
<path fill-rule="evenodd" clip-rule="evenodd" d="M20.2259 9.1905C19.1848 10.4831 18.2279 11.0692 17.4159 11.2299C16.7675 11.3582 16.1568 11.226 15.5949 10.8843C15.8147 10.5035 16.0429 10.133 16.2732 9.77739C16.9235 8.77302 17.5748 7.91031 18.0635 7.29864C18.3077 6.99307 18.5108 6.75083 18.6523 6.58564C18.723 6.50305 18.7783 6.43977 18.8156 6.39751L18.8576 6.3501L18.8679 6.33864L18.8702 6.33603L18.8707 6.33554L18.5 6.00003C18.8707 6.33554 18.8707 6.33549 18.8708 6.33547L18.8707 6.33548C19.056 6.13074 19.0402 5.81459 18.8355 5.62931C18.6308 5.44401 18.3146 5.45977 18.1293 5.66451L18.5 6.00003C18.1293 5.66451 18.1292 5.6646 18.1291 5.66472L18.1288 5.66506L18.1278 5.66615L18.1244 5.66993L18.112 5.68378L18.0655 5.73617C18.0252 5.78185 17.9668 5.84875 17.8928 5.93517C17.7448 6.10797 17.5344 6.35897 17.2823 6.67436C16.7787 7.30461 16.1067 8.19471 15.4338 9.23386C15.2271 9.55304 15.0188 9.88861 14.8143 10.2371C14.4021 9.77591 14.1675 9.23141 14.1554 8.60359C14.1394 7.77604 14.5082 6.71624 15.5494 5.42365C16.5448 4.1878 18.3348 3.26562 19.9479 2.64664C20.743 2.34156 21.473 2.11823 22.0043 1.97125C22.0865 1.9485 22.164 1.92759 22.236 1.90851C22.2328 1.983 22.2288 2.0631 22.2241 2.14833C22.1937 2.69868 22.131 3.45953 22.0022 4.30132C21.7411 6.00926 21.2214 7.95465 20.2259 9.1905ZM13.1556 8.62287C13.1753 9.6489 13.6212 10.4957 14.3065 11.1482C13.4565 12.7601 12.7703 14.563 12.7111 16.2638C12.456 15.7652 12.1362 15.2238 11.7355 14.648C11.7372 14.6451 11.7388 14.6423 11.7405 14.6395C12.2611 13.7603 12.4567 12.7472 12.0915 11.7112C11.7318 10.6908 10.8567 9.72989 9.40931 8.87297C7.89927 7.97894 5.80772 7.7617 4.16308 7.74816C3.32844 7.74129 2.58397 7.78706 2.04809 7.83448C1.77985 7.85821 1.5631 7.88243 1.41253 7.90084C1.33723 7.91005 1.27842 7.91782 1.23795 7.92335L1.1912 7.92989L1.17856 7.93172L1.175 7.93225L1.17391 7.93241L1.17354 7.93247C1.17341 7.93249 1.1733 7.9325 1.24744 8.42698L1.1733 7.9325C1.02458 7.9548 0.893802 8.04285 0.817192 8.17224C0.740581 8.30164 0.726276 8.45865 0.77824 8.59976L1.24744 8.42698C0.77824 8.59976 0.778281 8.59987 0.778327 8.59999L0.778455 8.60034L0.778836 8.60137L0.780089 8.60475L0.784562 8.61672L0.801312 8.66085C0.81592 8.69899 0.837391 8.75428 0.865529 8.82474C0.921792 8.96561 1.00479 9.1673 1.11298 9.4139C1.32911 9.90655 1.64699 10.5813 2.05439 11.3098C2.85715 12.7453 4.05344 14.4746 5.56348 15.3686C7.01083 16.2256 8.27415 16.5308 9.34182 16.3555C10.0443 16.2401 10.625 15.9229 11.0885 15.4746C11.8978 16.6922 12.3028 17.7099 12.5059 18.4321C12.619 18.8343 12.6699 19.1463 12.6927 19.3519C12.6999 19.4159 12.7043 19.4696 12.707 19.5126V21.3608L12.707 22.4131L12.707 22.6558V22.7139L12.707 22.7281L12.707 22.7317V22.7325L12.707 22.7328V22.7328L13.207 22.7328L12.707 22.7328C12.707 23.009 12.9308 23.2328 13.207 23.2328C13.4831 23.2328 13.707 23.009 13.707 22.7328H13.207L13.707 22.7328V22.7328V22.7325V22.7317L13.707 22.7281L13.707 22.7139L13.707 22.6558V22.4131L13.707 21.3608V19.7156C13.7089 19.7007 13.7101 19.6856 13.7106 19.6703L13.707 19.6702V19.6698C13.7106 19.6699 13.7106 19.6698 13.7107 19.6698L13.7107 19.6692L13.7107 19.6678L13.7108 19.6646L13.711 19.6559L13.7113 19.6299C13.7113 19.6087 13.7109 19.58 13.7097 19.5439C13.709 19.5256 13.7082 19.5055 13.707 19.4835V16.5C13.707 14.9957 14.3073 13.3237 15.1144 11.7619C15.8493 12.1974 16.6948 12.392 17.61 12.2108C18.7345 11.9883 19.8791 11.2153 21.0047 9.81779C22.1761 8.36355 22.725 6.19048 22.9908 4.45247C23.1255 3.57129 23.1908 2.7773 23.2226 2.20355C23.2385 1.91638 23.246 1.68359 23.2495 1.52172C23.2513 1.44076 23.252 1.37749 23.2524 1.33395L23.2526 1.28369L23.2526 1.27014L23.2526 1.26634L23.2526 1.26519L23.2526 1.26481C23.2526 1.26467 23.2526 1.26455 22.7526 1.26722L23.2526 1.26455C23.2518 1.11418 23.1833 0.972153 23.0662 0.877824C22.9491 0.783495 22.7958 0.746882 22.6487 0.778131L22.7526 1.26722C22.6487 0.778131 22.6486 0.778156 22.6484 0.778184L22.6481 0.778265L22.6469 0.778504L22.6432 0.779303L22.63 0.782184L22.5809 0.793115C22.5384 0.80271 22.4768 0.816945 22.3981 0.835916C22.2407 0.873848 22.0148 0.930767 21.7376 1.00746C21.1838 1.16068 20.4219 1.39366 19.5897 1.71301C17.9482 2.3429 15.9419 3.34212 14.7706 4.79636C13.6449 6.19388 13.1335 7.47683 13.1556 8.62287ZM11.0641 13.7717C10.1142 12.6562 9.08986 11.9274 8.25407 11.4641C7.75408 11.1869 7.3205 11.0042 7.0086 10.8899C6.85256 10.8327 6.72669 10.7926 6.63782 10.7662C6.59337 10.7531 6.55815 10.7434 6.533 10.7367L6.50292 10.7289L6.49374 10.7266L6.49065 10.7259L6.48948 10.7256L6.48899 10.7255C6.48878 10.7254 6.48857 10.7254 6.37321 11.2119L6.48857 10.7254C6.21988 10.6617 5.95041 10.8278 5.8867 11.0965C5.82301 11.3651 5.989 11.6344 6.25748 11.6983L6.25944 11.6988L6.27638 11.7032C6.29264 11.7075 6.3187 11.7147 6.35372 11.725C6.42379 11.7458 6.5296 11.7794 6.66455 11.8289C6.93464 11.9278 7.3203 12.0898 7.76926 12.3387C8.57575 12.7857 9.5831 13.511 10.4945 14.6527C10.1419 15.0336 9.70517 15.2824 9.17975 15.3687C8.42641 15.4924 7.40436 15.2964 6.07294 14.5082C4.8042 13.757 3.7151 12.2306 2.92718 10.8217C2.53923 10.128 2.23544 9.48334 2.02873 9.01216C2.00342 8.95446 1.97958 8.8994 1.95724 8.84722C2.01373 8.84172 2.07347 8.83614 2.13623 8.83059C2.64876 8.78524 3.36006 8.74159 4.15485 8.74813C5.76908 8.76142 7.63111 8.9823 8.89984 9.73347C10.2313 10.5217 10.8946 11.3236 11.1484 12.0436C11.3532 12.6246 11.3102 13.206 11.0641 13.7717Z"/>
</svg>
