<svg width="24" height="24" viewBox="0 0 24 24" xmlns="http://www.w3.org/2000/svg">
<path fill-rule="evenodd" clip-rule="evenodd" d="M12.3001 3.09963C12.1223 2.9663 11.8778 2.9663 11.7001 3.09963L3.03293 9.59998C2.64852 9.88828 2.85242 10.5 3.33292 10.5H4.99978C5.27592 10.5 5.49978 10.7238 5.49978 11V20.5004C5.49978 20.7765 5.72363 21.0004 5.99978 21.0004H8.66663C8.94277 21.0004 9.16663 20.7765 9.16663 20.5004V16.6668C9.16663 15.8384 9.8382 15.1668 10.6666 15.1668H13.3335C14.1619 15.1668 14.8335 15.8384 14.8335 16.6668V20.5004C14.8335 20.7765 15.0573 21.0004 15.3335 21.0004H18.0003C18.2765 21.0004 18.5003 20.7765 18.5003 20.5004V11C18.5003 10.7238 18.7242 10.5 19.0003 10.5H20.6672C21.1477 10.5 21.3516 9.88828 20.9672 9.59998L12.3001 3.09963ZM11.1001 2.29963C11.6334 1.89963 12.3667 1.89963 12.9001 2.29963L21.5672 8.79998C22.7204 9.66489 22.1087 11.5 20.6672 11.5H19.5003V20.5004C19.5003 21.3288 18.8288 22.0004 18.0003 22.0004H15.3335C14.5051 22.0004 13.8335 21.3288 13.8335 20.5004V16.6668C13.8335 16.3907 13.6096 16.1668 13.3335 16.1668H10.6666C10.3905 16.1668 10.1666 16.3907 10.1666 16.6668V20.5004C10.1666 21.3288 9.49506 22.0004 8.66663 22.0004H5.99978C5.17135 22.0004 4.49978 21.3288 4.49978 20.5004V11.5H3.33292C1.8914 11.5 1.27971 9.66489 2.43293 8.79998L11.1001 2.29963Z"/>
</svg>
