<svg width="24" height="24" viewBox="0 0 24 24" xmlns="http://www.w3.org/2000/svg">
<path fill-rule="evenodd" clip-rule="evenodd" d="M9.97229 3.35182C10.3511 1.98817 11.5773 1 13.0191 1C14.7591 1 16.1862 2.44097 16.1862 4.23908C16.1862 4.33679 16.182 4.43337 16.1737 4.52865C16.1532 4.76558 16.2195 5.00315 16.3615 5.19519C16.7626 5.73738 17.0011 6.41272 17.0011 7.14725C17.0011 7.59727 16.9116 8.02474 16.7503 8.41293H11.2235H7.25077C7.08947 8.02474 7 7.59727 7 7.14725C7 5.65914 7.97964 4.41225 9.30435 4.02967C9.63137 3.93522 9.88235 3.67561 9.97229 3.35182ZM11.4335 9.41293H15.9263L9.57034 15.8938L8.49174 12.4124L11.4335 9.41293ZM16.0284 10.737L9.90659 16.9791L10.1361 17.72L10.8474 20.0159L14.2186 16.5784L16.028 10.7384L16.0284 10.737ZM11.441 21.9316L11.1837 21.1012L13.5718 18.6661L13.518 18.8397L12.3 22.7712C12.2055 23.076 11.7955 23.076 11.7011 22.7712L11.441 21.9316ZM10.0328 9.41293L8.15549 11.3271L7.56243 9.41293H10.0328ZM6.40647 9.0609L6.3163 8.76984C6.11235 8.26942 6 7.72112 6 7.14725C6 5.21886 7.26732 3.5844 9.0118 3.07332C9.50804 1.30505 11.1088 0 13.0191 0C15.3297 0 17.1862 1.90712 17.1862 4.23908C17.1862 4.36307 17.1809 4.48594 17.1706 4.60744C17.6925 5.31594 18.0011 6.19604 18.0011 7.14725C18.0011 7.7211 17.8887 8.26938 17.6848 8.76978L17.5946 9.0609L16.9832 11.0343L15.138 16.99L14.4732 19.1356L13.2552 23.0671C12.8699 24.3107 11.1312 24.3107 10.7459 23.0671L10.4858 22.2275L10.1402 21.1121L9.18092 18.0159L8.86308 16.99L7.44823 12.4234L6.40647 9.0609ZM10.9813 3.73822C10.7052 3.73822 10.4813 3.96208 10.4813 4.23822C10.4813 4.51436 10.7052 4.73822 10.9813 4.73822C12.2714 4.73822 13.3335 5.80699 13.3335 7.14574C13.3335 7.42189 13.5573 7.64574 13.8335 7.64574C14.1096 7.64574 14.3335 7.42189 14.3335 7.14574C14.3335 5.27293 12.8417 3.73822 10.9813 3.73822Z"/>
</svg>
