<svg width="24" height="24" viewBox="0 0 24 24" xmlns="http://www.w3.org/2000/svg">
<g clip-path="url(#clip0_3201_217)">
<path fill-rule="evenodd" clip-rule="evenodd" d="M2.76403 0.5C2.76403 0.223858 2.98789 0 3.26403 0H6.57484C7.40485 0 8.09355 0.66294 8.09355 1.50007V3.01464C10.0711 3.13035 11.3726 3.92172 12.1584 4.65242C12.9885 5.42433 13.1871 6.53546 13.1871 7.50049V7.52333L13.185 7.54607L12.6871 7.50049L13.185 7.5461L13.185 7.54621L13.185 7.54662L13.1848 7.54828L13.1842 7.55489L13.1818 7.58101L13.1725 7.6831L13.1368 8.07237L13.0083 9.47655L12.6659 13.2179C13.4013 13.1426 14.1499 13.2292 14.7638 13.3401C15.1738 13.4142 15.5395 13.5024 15.8164 13.5698L15.8464 13.5771C15.8591 13.5802 15.8716 13.5833 15.8838 13.5862C15.8857 13.5774 15.8877 13.5685 15.8896 13.5597C15.9055 13.4873 15.9214 13.4149 15.9383 13.3406C15.9898 13.1141 16.048 12.8834 16.1364 12.6479C16.3192 12.1609 16.6136 11.6993 17.1736 11.1453C17.3699 10.9511 17.6865 10.9528 17.8807 11.1491C18.0749 11.3455 18.0732 11.662 17.8769 11.8562C17.3984 12.3295 17.1951 12.6728 17.0726 12.9993C17.0131 13.1579 16.9689 13.3225 16.9242 13.5154C17.0942 13.4747 17.2864 13.4304 17.493 13.3883C18.1757 13.2493 19.0567 13.1247 19.9069 13.2273C20.764 13.3307 21.6428 13.6737 22.2228 14.5165C22.7945 15.3471 23.0075 16.5655 22.7675 18.2685C22.318 21.4569 21.2821 23.055 20.0002 23.6851C18.7308 24.309 17.4274 23.8783 16.6982 23.5265C16.4225 23.3935 16.0718 23.3942 15.7928 23.5288C15.0725 23.8764 13.7952 24.2903 12.5407 23.6578C12.1862 23.479 11.8496 23.2249 11.5378 22.8817C11.0904 23.5956 10.2644 24.0016 9.36819 24.0016H5.67573C4.36019 24.0016 3.25201 23.0073 3.14632 21.7L2.00163 7.54078L2 7.52067V7.50049C2 6.53546 2.19857 5.42433 3.02869 4.65242C3.81449 3.92172 5.11599 3.13035 7.09355 3.01464V1.50007C7.09355 1.23255 6.87006 1 6.57484 1H3.26403C2.98789 1 2.76403 0.776142 2.76403 0.5ZM10.8589 21.9128C10.3812 21.0413 9.99993 19.8545 9.7553 18.2752C9.5221 16.7697 9.65066 15.6432 10.0759 14.8252C10.4454 14.1143 11.012 13.6874 11.6405 13.4502L12.0125 9.3854L12.1392 8.00049H3.04205L4.14307 21.6194C4.20554 22.3921 4.86581 23.0016 5.67573 23.0016H9.36819C10.1584 23.0016 10.7314 22.5608 10.8589 21.9128ZM3.02285 7.00049C3.08635 6.34365 3.28867 5.7762 3.70965 5.38473C4.39747 4.74514 5.61477 4.00021 7.59355 4.00021C9.57233 4.00021 10.7896 4.74514 11.4774 5.38473C11.8984 5.7762 12.1007 6.34365 12.1642 7.00049H3.02285ZM14.5859 14.3242C13.8177 14.1853 12.9557 14.1151 12.2377 14.3075C11.689 14.4546 11.2427 14.7486 10.9632 15.2864C10.6739 15.8429 10.5276 16.7281 10.7435 18.1222C11.2159 21.1719 12.167 22.3494 12.991 22.7648C13.821 23.1834 14.726 22.9333 15.3582 22.6282C15.9084 22.3627 16.5792 22.3588 17.1327 22.6258C17.7819 22.939 18.7154 23.2023 19.559 22.7876C20.3902 22.3791 21.3435 21.2061 21.7772 18.1289C21.9999 16.5493 21.7706 15.6233 21.3991 15.0834C21.036 14.5559 20.4706 14.3026 19.7871 14.2201C19.0965 14.1367 18.34 14.2364 17.6926 14.3682C17.3957 14.4287 17.1304 14.4939 16.9082 14.5486C16.8902 14.553 16.8725 14.5574 16.8551 14.5617C16.7411 14.5897 16.6341 14.6157 16.5447 14.6346C16.4682 14.6508 16.359 14.6724 16.2609 14.6724C16.155 14.6724 16.0314 14.6468 15.9441 14.6278C15.85 14.6072 15.736 14.5795 15.6137 14.5497L15.5799 14.5415C15.3042 14.4744 14.9638 14.3925 14.5859 14.3242ZM14.2152 16.4892C13.6386 16.4892 13.1871 16.9457 13.1871 17.4894V17.9894C13.1871 18.2655 12.9632 18.4894 12.6871 18.4894C12.411 18.4894 12.1871 18.2655 12.1871 17.9894V17.4894C12.1871 16.3761 13.1038 15.4892 14.2152 15.4892H14.7245C15.0007 15.4892 15.2245 15.7131 15.2245 15.9892C15.2245 16.2654 15.0007 16.4892 14.7245 16.4892H14.2152Z" fill="#00985F"/>
</g>
<defs>
<clipPath id="clip0_3201_217">
<rect width="24" height="24" fill="white"/>
</clipPath>
</defs>
</svg>
