<svg width="24" height="24" viewBox="0 0 24 24" xmlns="http://www.w3.org/2000/svg">
<path fill-rule="evenodd" clip-rule="evenodd" d="M20.7231 3.49764C18.6121 1.38097 14.961 1.50199 12.5644 3.90498C11.5365 4.93572 10.4454 6.68497 9.70991 8.54379C9.0484 10.2157 8.71178 11.8823 8.89529 13.1423C8.92557 13.146 8.95522 13.1508 8.98407 13.1566C9.20521 13.2009 9.4047 13.3041 9.56071 13.4037C10.0548 13.7192 10.4766 14.1512 10.7826 14.6494C10.882 14.8113 10.9846 15.0183 11.0251 15.2463C11.0311 15.2799 11.0357 15.3145 11.0388 15.3499C12.2868 15.5538 13.9548 15.2272 15.6374 14.565C17.5104 13.8277 19.2788 12.7228 20.3169 11.6819C22.714 9.27843 22.8351 5.61529 20.7231 3.49764ZM10.6177 16.2871C12.1857 16.632 14.1786 16.2139 16.0036 15.4955C17.9685 14.7221 19.8653 13.5508 21.0249 12.3881C23.7492 9.65654 23.9918 5.35891 21.4312 2.79148C18.8696 0.223072 14.5811 0.466798 11.8564 3.19882C10.7078 4.35045 9.55117 6.22696 8.78005 8.17587C8.06316 9.98772 7.63849 11.9653 7.94841 13.5358L4.86785 16.6246C3.92489 15.823 2.52142 15.768 1.64181 16.65C0.711802 17.5825 0.827088 19.102 1.76414 20.0416C2.1042 20.3825 2.5145 20.6129 2.94451 20.7263C3.03926 20.7512 3.16185 20.821 3.27456 20.9341C3.38723 21.047 3.45714 21.1702 3.48224 21.2659C3.59516 21.6964 3.82463 22.1076 4.16468 22.4485C5.10223 23.3886 6.62004 23.5046 7.55102 22.5712C8.43032 21.6895 8.37521 20.2831 7.57461 19.3383L10.6177 16.2871ZM19.9843 7.52003C20.2561 7.5684 20.4373 7.82801 20.3889 8.09988C20.1842 9.25064 19.6572 10.2036 18.8204 10.7887L18.2753 11.17C18.049 11.3282 17.7373 11.2731 17.579 11.0468C17.4208 10.8205 17.4759 10.5088 17.7022 10.3505L18.2473 9.96926C18.8158 9.5717 19.2338 8.8834 19.4044 7.92471C19.4528 7.65284 19.7124 7.47166 19.9843 7.52003ZM8.7737 14.1349C8.74701 14.1547 8.72138 14.1768 8.697 14.2013L5.40855 17.4985C5.06941 17.8386 4.57739 17.7368 4.3201 17.4788C3.7109 16.868 2.83049 16.8742 2.34986 17.3561C1.86825 17.839 1.86251 18.7241 2.47219 19.3354C2.68678 19.5506 2.94062 19.6911 3.19948 19.7593C3.50147 19.8389 3.77365 20.0184 3.98261 20.2279C4.19162 20.4375 4.37029 20.7101 4.44952 21.0122C4.51776 21.2724 4.65813 21.5272 4.87273 21.7424C5.48193 22.3532 6.36234 22.3469 6.84297 21.865C7.32458 21.3821 7.33032 20.497 6.72064 19.8857C6.46373 19.6281 6.36287 19.1371 6.70094 18.7982L9.98939 15.5009C10.0087 15.4816 10.0266 15.4614 10.043 15.4406C10.0427 15.4359 10.042 15.4296 10.0405 15.4213C10.0308 15.3668 9.99762 15.282 9.93053 15.1728C9.70254 14.8016 9.38746 14.4795 9.0226 14.2466C8.91865 14.1802 8.83859 14.1473 8.78777 14.1372C8.78209 14.136 8.77743 14.1353 8.7737 14.1349Z"/>
</svg>
