<svg width="24" height="24" viewBox="0 0 24 24" xmlns="http://www.w3.org/2000/svg">
<g clip-path="url(#clip0_3201_221)">
<path fill-rule="evenodd" clip-rule="evenodd" d="M8.00042 1.65008C8.00042 0.733194 8.75093 0 9.66421 0H15.3358C16.2491 0 16.9996 0.733194 16.9996 1.65008V2.41662C16.9996 3.0405 16.6521 3.57933 16.1423 3.86L16.9674 6.06651L17.2459 6.81109C17.744 8.14318 17.999 9.55221 17.999 10.9726V21.201C17.999 22.7531 16.7274 24.0012 15.1714 24.0012H9.82759C8.27156 24.0012 7 22.7531 7 21.201V10.9726C7 9.55221 7.25504 8.14319 7.75315 6.81109L8.03157 6.06651L8.85684 3.85953C8.34751 3.57872 8.00042 3.04015 8.00042 2.41662V1.65008ZM9.66421 1C9.29201 1 9.00042 1.29662 9.00042 1.65008V2.41662C9.00042 2.77008 9.29201 3.0667 9.66422 3.0667H15.3358C15.708 3.0667 15.9996 2.77008 15.9996 2.41662V1.65008C15.9996 1.29662 15.708 1 15.3358 1H9.66421ZM9.84665 4.06763L9.15273 5.92336C9.35882 5.97826 9.61984 6.03688 9.91363 6.07849C10.6501 6.1828 11.5305 6.17146 12.2738 5.79547C13.2803 5.28635 14.3997 5.29769 15.2256 5.41467C15.389 5.43781 15.5434 5.46544 15.6861 5.49494L15.1524 4.06763H9.84665ZM16.1133 6.63747C16.0741 6.62508 16.0298 6.61156 15.9809 6.59736C15.7598 6.5332 15.4475 6.45607 15.0854 6.40478C14.3489 6.30048 13.4685 6.31182 12.7252 6.68781C11.7187 7.19693 10.5993 7.18559 9.7734 7.06861C9.38703 7.01389 9.05129 6.93411 8.80104 6.86388L8.68981 7.16134C8.23352 8.38158 8 9.67198 8 10.9726V21.201C8 22.1896 8.81263 23.0012 9.82759 23.0012H15.1714C16.1864 23.0012 16.999 22.1896 16.999 21.201V10.9726C16.999 9.67198 16.7655 8.38158 16.3092 7.16134L16.1133 6.63747ZM10.5072 9.14861C10.5893 8.88495 10.4421 8.60467 10.1784 8.5226C9.91473 8.44052 9.63445 8.58772 9.55237 8.85139L9.52 8.95539C9.1755 10.0621 9.00028 11.2144 9.00028 12.3735V13.001C9.00028 13.2771 9.22414 13.501 9.50028 13.501C9.77643 13.501 10.0003 13.2771 10.0003 13.001V12.3735C10.0003 11.3152 10.1603 10.263 10.4748 9.25262L10.5072 9.14861Z" fill="#00985F"/>
</g>
<defs>
<clipPath id="clip0_3201_221">
<rect width="24" height="24" fill="white"/>
</clipPath>
</defs>
</svg>
