<svg width="24" height="24" viewBox="0 0 24 24" xmlns="http://www.w3.org/2000/svg">
<path fill-rule="evenodd" clip-rule="evenodd" d="M22 12C22 6.47714 17.5229 2 12 2C6.47714 2 2 6.47714 2 12C2 17.5229 6.47714 22 12 22C17.5229 22 22 17.5229 22 12ZM3.42857 12C3.42857 7.26643 7.26643 3.42857 12 3.42857C16.7336 3.42857 20.5714 7.26643 20.5714 12C20.5714 16.7336 16.7336 20.5714 12 20.5714C11.536 20.5714 11.0805 20.5345 10.6366 20.4626C11.712 19.9193 12.7627 19.0791 13.5487 17.787C15.5108 14.5548 16.1973 9.42336 16.1973 9.42336L18.3466 8.4105C18.4794 8.34193 18.4458 8.1405 18.2801 8.1405H15.9644C15.6001 7.43193 14.3401 6.2855 12.488 6.2855C11.3873 6.2855 10.4273 6.58479 9.56157 7.1605C9.56157 7.1605 8.30586 8.02907 6.47443 9.64336L3.43174 12.2357C3.42964 12.1574 3.42857 12.0788 3.42857 12ZM10.0823 15.3427C10.2359 15.1027 10.3859 14.8584 10.5266 14.6084C10.5923 14.6398 10.6037 14.7162 10.5694 14.7841C10.1477 15.8259 9.15643 17.8356 7.39663 19.2315C7.14819 19.073 6.90845 18.9021 6.67951 18.72C8.09364 17.8708 9.19845 16.7005 10.0823 15.3427ZM12.0587 8.4855C12.4359 8.09979 13.0101 8.03979 13.4523 8.30407C13.398 8.28979 13.3451 8.27907 13.2901 8.27907C12.9287 8.27907 12.638 8.57907 12.638 8.94193C12.638 9.30621 12.9287 9.60621 13.2901 9.60621C13.6458 9.60621 13.9373 9.30621 13.9373 8.94193C13.9373 8.91121 13.9337 8.87693 13.9273 8.84407C14.113 9.2755 14.0358 9.7955 13.6894 10.1476C13.238 10.6076 12.5094 10.6076 12.0587 10.1476C11.6044 9.68979 11.6044 8.94407 12.0587 8.4855Z"/>
</svg>
