<svg width="24" height="24" viewBox="0 0 24 24" xmlns="http://www.w3.org/2000/svg">
<path fill-rule="evenodd" clip-rule="evenodd" d="M11.0228 2.06038C11.2423 1.92532 11.5281 2.02785 11.6611 2.28938C12.243 3.43382 12.4519 4.40532 12.5217 5.19869H14.5361C17.6324 5.19869 19.998 8.16533 19.998 11.6299C19.998 12.0372 19.7059 12.5253 19.1672 12.5253H19.0512C18.7129 16.3077 17.0653 18.6577 15.4491 20.0664C14.613 20.7952 13.7918 21.2669 13.1774 21.5573C12.8698 21.7026 12.613 21.803 12.4305 21.8678C12.3392 21.9002 12.2664 21.9237 12.2149 21.9395C12.1892 21.9474 12.1688 21.9534 12.1541 21.9576L12.1363 21.9626L12.1307 21.9641L12.1288 21.9647L12.128 21.9649C12.1277 21.965 12.1274 21.965 11.9991 21.4818C11.8707 21.965 11.8704 21.965 11.8701 21.9649L11.8694 21.9647L11.8674 21.9641L11.8618 21.9626L11.8441 21.9576C11.8294 21.9534 11.809 21.9474 11.7832 21.9395C11.7318 21.9237 11.6589 21.9002 11.5676 21.8678C11.3851 21.803 11.1283 21.7026 10.8208 21.5573C10.2063 21.2669 9.38511 20.7952 8.54908 20.0664C6.93285 18.6577 5.28522 16.3077 4.94697 12.5253H4.83275C4.29406 12.5253 4.00195 12.0372 4.00195 11.6299C4.00195 8.16533 6.36748 5.19869 9.46387 5.19869H11.5939C11.5325 4.54175 11.3555 3.74074 10.8662 2.77847C10.7332 2.51694 10.8033 2.19544 11.0228 2.06038ZM11.955 6.19869H9.46387C7.10648 6.19869 5.04905 8.49026 5.00275 11.5253H5.4113H18.5868H18.9972C18.9509 8.49026 16.8934 6.19869 14.5361 6.19869H12.2768C12.2227 6.22234 12.1629 6.23406 12.0999 6.23127C12.0495 6.22903 12.0008 6.21769 11.955 6.19869ZM11.9991 21.4818L12.1274 21.965L11.9991 21.9991L11.8707 21.965L11.9991 21.4818ZM15.8428 14.5245C16.0973 14.6317 16.2167 14.925 16.1094 15.1794C15.8041 15.9041 15.2865 16.5846 14.7851 17.1304C14.2807 17.6794 13.7667 18.1201 13.4374 18.3644C13.2156 18.5289 12.9024 18.4825 12.7379 18.2607C12.5734 18.0389 12.6199 17.7257 12.8417 17.5612C13.1206 17.3543 13.5874 16.9559 14.0487 16.4538C14.5129 15.9485 14.9458 15.3658 15.1879 14.7911C15.2951 14.5367 15.5883 14.4173 15.8428 14.5245ZM9.20615 19.3126C7.78088 18.0703 6.28222 15.9776 5.95125 12.5253H18.0469C17.7159 15.9776 16.2173 18.0703 14.792 19.3126C14.0386 19.9693 13.299 20.3937 12.7501 20.6531C12.476 20.7827 12.2504 20.8706 12.0961 20.9254C12.0596 20.9383 12.0272 20.9494 11.9991 20.9587C11.9709 20.9494 11.9385 20.9383 11.9021 20.9254C11.7477 20.8706 11.5222 20.7827 11.248 20.6531C10.6991 20.3937 9.95958 19.9693 9.20615 19.3126Z"/>
</svg>
