<svg width="24" height="25" viewBox="0 0 24 25" xmlns="http://www.w3.org/2000/svg">
<path fill-rule="evenodd" clip-rule="evenodd" d="M11.2748 0C10.4464 0 9.77479 0.671572 9.77479 1.5V2.61403C9.54752 2.72768 9.3319 2.86644 9.13222 3.0288L6.87779 4.86188C6.52747 5.14672 6.3241 5.57421 6.3241 6.02571V7.42174C6.3241 7.81289 6.50711 8.18152 6.8187 8.41799C7.14877 8.66848 7.14877 9.16478 6.8187 9.41527C6.50711 9.65173 6.3241 10.0204 6.3241 10.4115V21.5055C6.3241 22.8862 7.44338 24.0055 8.8241 24.0055H15.1754C16.5562 24.0055 17.6754 22.8862 17.6754 21.5055V21.1287H17.676V20.6287V12.0021V11.5021H17.6754V10.4115C17.6754 10.0204 17.4924 9.65173 17.1808 9.41527C16.8508 9.16478 16.8508 8.66848 17.1808 8.41799C17.4924 8.18152 17.6754 7.81289 17.6754 7.42174V6.02571C17.6754 5.57421 17.4721 5.14672 17.1217 4.86188L14.8673 3.0288C14.6678 2.86656 14.4523 2.72788 14.2252 2.61427V1.5C14.2252 0.671573 13.5537 0 12.7252 0H11.2748ZM11.3265 3.24444H12.673C13.2426 3.24758 13.7943 3.44516 14.2364 3.80469L16.4909 5.63777C16.6076 5.73271 16.6754 5.87521 16.6754 6.02571V7.42174C16.6754 7.50013 16.6388 7.57401 16.5763 7.6214C15.7189 8.27206 15.7189 9.5612 16.5763 10.2119C16.6388 10.2592 16.6754 10.3331 16.6754 10.4115V11.5021H11.2747C10.4463 11.5021 9.77473 12.1737 9.77473 13.0021V19.6287C9.77473 20.4572 10.4463 21.1287 11.2747 21.1287H16.6754V21.5055C16.6754 22.3339 16.0039 23.0055 15.1754 23.0055H8.8241C7.99567 23.0055 7.3241 22.3339 7.3241 21.5055V10.4115C7.3241 10.3331 7.36077 10.2592 7.42322 10.2119C8.2806 9.5612 8.2806 8.27206 7.42322 7.6214C7.36077 7.57401 7.3241 7.50013 7.3241 7.42174V6.02571C7.3241 5.87521 7.39189 5.73271 7.50866 5.63777L9.76309 3.80469C10.2053 3.44516 10.7569 3.24758 11.3265 3.24444ZM12.6756 2.24444H13.2252V1.5C13.2252 1.22386 13.0014 1 12.7252 1H11.2748C10.9986 1 10.7748 1.22386 10.7748 1.5V2.24444H11.324C11.3294 2.24442 11.3348 2.24441 11.3403 2.24441H12.6593C12.6647 2.24441 12.6701 2.24442 12.6756 2.24444ZM16.6754 20.1287V12.5021H11.2747C10.9986 12.5021 10.7747 12.726 10.7747 13.0021V19.6287C10.7747 19.9049 10.9986 20.1287 11.2747 20.1287H16.6754ZM9.77474 8.91663C9.77474 8.64049 9.9986 8.41663 10.2747 8.41663H13.7254C14.0015 8.41663 14.2254 8.64049 14.2254 8.91663C14.2254 9.19277 14.0015 9.41663 13.7254 9.41663H10.2747C9.9986 9.41663 9.77474 9.19277 9.77474 8.91663Z"/>
</svg>
