<svg width="24" height="24" viewBox="0 0 24 24" xmlns="http://www.w3.org/2000/svg">
<path fill-rule="evenodd" clip-rule="evenodd" d="M7.49995 2C7.2656 2 7.0627 2.16277 7.01186 2.39153L3.01186 20.3915C2.95628 20.6417 3.09877 20.8933 3.34184 20.9743L7.84184 22.4743C7.96955 22.5169 8.10904 22.5062 8.22874 22.4446C8.34845 22.383 8.43825 22.2757 8.47784 22.147L12 10.7002L15.5221 22.147C15.5617 22.2757 15.6515 22.383 15.7712 22.4446C15.8909 22.5062 16.0304 22.5169 16.1581 22.4743L20.6581 20.9743C20.9011 20.8933 21.0436 20.6417 20.988 20.3915L16.988 2.39153C16.9372 2.16277 16.7343 2 16.5 2H7.49995ZM7.67882 4L7.90104 3H16.0989L16.3211 4H7.67882ZM7.45659 5L4.08587 20.1683L7.67257 21.3638L11.5221 8.85296C11.5866 8.64316 11.7805 8.5 12 8.5C12.2195 8.5 12.4133 8.64316 12.4778 8.85296L16.3273 21.3638L19.914 20.1683L16.5433 5H7.45659Z"/>
</svg>
