<svg width="24" height="24" viewBox="0 0 24 24" xmlns="http://www.w3.org/2000/svg">
<path fill-rule="evenodd" clip-rule="evenodd" d="M16.2513 2.77551C16.4466 2.58026 16.7632 2.58026 16.9585 2.7755L20.3005 6.11685C20.4958 6.3121 20.4958 6.62865 20.3005 6.8239L6.76893 20.3539L2.72348 16.3017L16.2513 2.77551ZM2.45981 17.453L2.51274 20.109C2.51813 20.3793 2.73741 20.5964 3.00777 20.599L5.62629 20.6247L2.45981 17.453ZM17.6656 2.06843C17.0798 1.48271 16.1299 1.48273 15.5441 2.06848L1.88589 15.7251C1.59724 16.0137 1.4387 16.4075 1.44683 16.8155L1.51286 20.129C1.52902 20.9398 2.18687 21.5909 2.99795 21.5989L6.26974 21.631C6.6727 21.635 7.0603 21.4767 7.34524 21.1918L21.0077 7.53094C21.5935 6.94519 21.5935 5.99552 21.0076 5.40979L17.6656 2.06843Z"/>
</svg>
