<svg width="24" height="24" viewBox="0 0 24 24" xmlns="http://www.w3.org/2000/svg">
<path fill-rule="evenodd" clip-rule="evenodd" d="M7.25 5.25C5.86929 5.25 4.75 6.36929 4.75 7.75C4.75 9.13071 5.86929 10.25 7.25 10.25C8.63071 10.25 9.75 9.13071 9.75 7.75C9.75 6.36929 8.63071 5.25 7.25 5.25ZM3.75 7.75C3.75 5.817 5.317 4.25 7.25 4.25C9.183 4.25 10.75 5.817 10.75 7.75C10.75 9.683 9.183 11.25 7.25 11.25C5.317 11.25 3.75 9.683 3.75 7.75ZM19.1036 4.89645C19.2988 5.09171 19.2988 5.40829 19.1036 5.60355L5.60355 19.1035C5.40829 19.2988 5.09171 19.2988 4.89645 19.1035C4.70119 18.9083 4.70119 18.5917 4.89645 18.3964L18.3964 4.89645C18.5917 4.70118 18.9083 4.70118 19.1036 4.89645ZM14.25 16.25C14.25 14.8693 15.3693 13.75 16.75 13.75C18.1307 13.75 19.25 14.8693 19.25 16.25C19.25 17.6307 18.1307 18.75 16.75 18.75C15.3693 18.75 14.25 17.6307 14.25 16.25ZM16.75 12.75C14.817 12.75 13.25 14.317 13.25 16.25C13.25 18.183 14.817 19.75 16.75 19.75C18.683 19.75 20.25 18.183 20.25 16.25C20.25 14.317 18.683 12.75 16.75 12.75Z"/>
</svg>
