<svg width="24" height="24" viewBox="0 0 24 24" xmlns="http://www.w3.org/2000/svg">
<path fill-rule="evenodd" clip-rule="evenodd" d="M10.3631 2.51002L9.58261 4.35197C11.1658 4.93214 13.5487 6.05162 15.5182 8.02115C17.4877 9.99069 18.6072 12.3735 19.1874 13.9567L21.0293 13.1763C20.7197 12.044 19.6655 8.82734 17.1888 6.35059C14.712 3.87384 11.4954 2.81964 10.3631 2.51002ZM18.2654 14.3474C17.7187 12.8424 16.6608 10.578 14.8111 8.72826C12.9614 6.87856 10.697 5.82064 9.19195 5.27393L5.73707 13.4274C6.3285 13.4476 6.91426 13.6832 7.36618 14.1352C8.31182 15.0808 8.31182 16.614 7.36618 17.5596C6.43093 18.4949 4.92097 18.5051 3.97309 17.5904L2.52027 21.0191L18.2654 14.3474ZM4.41557 16.5462C4.47739 16.6556 4.55505 16.7587 4.64884 16.8525C5.20395 17.4076 6.10397 17.4076 6.65908 16.8525C7.21419 16.2974 7.21419 15.3974 6.65908 14.8423C6.28979 14.473 5.76716 14.3488 5.29455 14.4718L4.41557 16.5462ZM10.5817 1.53318C11.7318 1.84324 15.2022 2.94983 17.8959 5.64348C20.5895 8.33714 21.6961 11.8075 22.0062 12.9576C22.1349 13.435 21.8765 13.9034 21.4491 14.0845L19.0866 15.0855L2.86575 21.9588C2.05449 22.3025 1.23684 21.4849 1.58059 20.6736L3.40751 16.3621L4.46119 13.8754L8.45382 4.45279L9.45489 2.09027C9.636 1.66284 10.1043 1.40447 10.5817 1.53318ZM12.0937 14.163C11.7262 13.7955 11.1303 13.7955 10.7628 14.163C10.3953 14.5305 10.3953 15.1264 10.7628 15.4939C11.1303 15.8614 11.7262 15.8614 12.0937 15.4939C12.4612 15.1264 12.4612 14.5305 12.0937 14.163ZM10.0557 13.4559C10.8138 12.6978 12.0428 12.6978 12.8008 13.4559C13.5589 14.2139 13.5589 15.4429 12.8008 16.201C12.0428 16.959 10.8138 16.959 10.0557 16.201C9.29768 15.4429 9.29768 14.2139 10.0557 13.4559ZM9.74381 8.38863C10.2989 7.83352 11.1989 7.83352 11.754 8.38863C12.3092 8.94374 12.3092 9.84375 11.754 10.3989C11.1989 10.954 10.2989 10.954 9.74381 10.3989C9.1887 9.84375 9.1887 8.94374 9.74381 8.38863ZM12.4612 7.68152C11.5155 6.73589 9.98234 6.73589 9.03671 7.68152C8.09107 8.62715 8.09107 10.1603 9.03671 11.106C9.98234 12.0516 11.5155 12.0516 12.4612 11.106C13.4068 10.1603 13.4068 8.62715 12.4612 7.68152Z"/>
</svg>
