<svg width="24" height="24" viewBox="0 0 24 24" xmlns="http://www.w3.org/2000/svg">
<path fill-rule="evenodd" clip-rule="evenodd" d="M12.9491 3.5C12.9491 3.22386 13.173 3 13.4491 3C15.1379 3 16.7895 3.48948 18.1954 4.40779C19.6014 5.32617 20.6989 6.63269 21.3475 8.16344C21.7803 9.18475 22 10.2749 22 11.3704C22 11.9168 21.9453 12.4645 21.8353 13.0055C21.5044 14.6314 20.6882 16.1232 19.4915 17.2931C19.0267 17.7475 18.5126 18.1454 17.9606 18.481C18.0725 18.7105 18.1356 18.9682 18.1356 19.2407C18.1356 20.223 17.3243 21 16.3475 21C15.5158 21 14.8041 20.4367 14.6109 19.6631C13.8375 19.767 13.0557 19.7663 12.2874 19.6631C12.0942 20.4367 11.3825 21 10.5508 21C9.57404 21 8.76271 20.223 8.76271 19.2407C8.76271 18.9682 8.82584 18.7105 8.93773 18.481C7.909 17.8555 7.02241 17.0201 6.34232 16.0251C5.40131 14.6483 4.8983 13.0284 4.8983 11.3704V11.0556C4.8983 9.95139 3.97947 9.03704 2.82203 9.03704H2.5C2.22386 9.03704 2 8.81318 2 8.53704C2 8.26089 2.22386 8.03704 2.5 8.03704H2.82203C4.44766 8.03704 5.79495 9.28026 5.89263 10.8704H12.9491V3.5ZM13.9491 10.8704H20.9826C20.9274 10.0782 20.7411 9.2955 20.4268 8.55358C19.8567 7.20809 18.8905 6.05624 17.6485 5.24501C16.5453 4.52437 15.269 4.10166 13.9491 4.01617V10.8704ZM20.9826 11.8704H13.4491H5.91569C6.00482 13.1498 6.4348 14.3882 7.1679 15.4608C7.80499 16.3929 8.64923 17.1678 9.63347 17.7304C9.90225 17.5722 10.2165 17.4815 10.5508 17.4815C11.3195 17.4815 11.9841 17.9613 12.2338 18.6446C13.0356 18.7723 13.8564 18.7733 14.6645 18.6446C14.9142 17.9613 15.5788 17.4815 16.3475 17.4815C16.6818 17.4815 16.996 17.5722 17.2648 17.7304C17.8197 17.4132 18.3336 17.0266 18.7924 16.578C19.8476 15.5465 20.5649 14.2336 20.8553 12.8061C20.9184 12.496 20.9608 12.1834 20.9826 11.8704ZM10.5508 18.4815C10.3391 18.4815 10.1494 18.5612 10.0088 18.6897C9.85505 18.8301 9.76271 19.0258 9.76271 19.2407C9.76271 19.6494 10.1048 20 10.5508 20C10.9969 20 11.339 19.6494 11.339 19.2407C11.339 19.2079 11.3368 19.1757 11.3328 19.1444C11.2851 18.7794 10.9608 18.4815 10.5508 18.4815ZM16.3475 18.4815C15.9375 18.4815 15.6132 18.7794 15.5656 19.1444C15.5615 19.1757 15.5593 19.2079 15.5593 19.2407C15.5593 19.6494 15.9014 20 16.3475 20C16.7935 20 17.1356 19.6494 17.1356 19.2407C17.1356 19.0257 17.0433 18.8301 16.8895 18.6897C16.7489 18.5612 16.5592 18.4815 16.3475 18.4815Z"/>
</svg>
