<svg width="24" height="24" viewBox="0 0 24 24" xmlns="http://www.w3.org/2000/svg">
<path fill-rule="evenodd" clip-rule="evenodd" d="M8.62052 4.08099C8.74461 3.96818 9.06064 3.89248 9.58258 4.00851C10.0728 4.11747 10.5546 4.35942 10.8229 4.60332C10.9072 4.6799 10.9978 4.82695 11.0734 5.05968C11.1466 5.28488 11.1924 5.54867 11.2192 5.81493C11.2495 6.1171 11.2537 6.39653 11.2515 6.60525C11.1047 6.61822 10.9141 6.62196 10.7009 6.60693C10.139 6.56732 9.55205 6.40789 9.19504 6.08332C8.77306 5.69967 8.52342 5.26212 8.44195 4.88282C8.35975 4.50008 8.45408 4.23232 8.62052 4.08099ZM11.5628 3.93062C11.1376 3.54401 10.4753 3.22757 9.83111 3.08439C9.21874 2.94826 8.41037 2.92666 7.88061 3.40829C7.3932 3.85142 7.28922 4.47971 7.41495 5.06513C7.53054 5.60333 7.84499 6.15311 8.3175 6.62491L4.49946 6.62629C3.67124 6.62659 3 7.29808 3 8.12629V9.69335C3 10.5218 3.67157 11.1933 4.5 11.1933H4.78335V19.5018C4.78335 20.3302 5.45492 21.0018 6.28335 21.0018H17.6585C18.4869 21.0018 19.1585 20.3302 19.1585 19.5018V11.1933H19.4418C20.2702 11.1933 20.9418 10.5218 20.9418 9.69335V8.12088C20.9418 7.29224 20.2699 6.62058 19.4413 6.62088L15.6342 6.62226C16.1052 6.15105 16.4187 5.60232 16.5341 5.06513C16.6598 4.47971 16.5558 3.85142 16.0684 3.40829C15.5387 2.92666 14.7303 2.94826 14.1179 3.08439C13.4738 3.22757 12.8114 3.54401 12.3862 3.93062C12.2013 4.09874 12.0699 4.30815 11.9745 4.5218C11.8791 4.30815 11.7478 4.09874 11.5628 3.93062ZM11.4709 7.62376L4.49982 7.62629C4.22375 7.62639 4 7.85022 4 8.12629V9.69335C4 9.96949 4.22386 10.1933 4.5 10.1933H5.28335H11.4709V7.62376ZM12.4709 10.1933V7.6234L19.4416 7.62088C19.7179 7.62078 19.9418 7.84466 19.9418 8.12088V9.69335C19.9418 9.96949 19.718 10.1933 19.4418 10.1933H18.6585H12.4709ZM11.4709 11.1933H5.78335V19.5018C5.78335 19.7779 6.00721 20.0018 6.28335 20.0018H11.4709V11.1933ZM12.4709 20.0018V11.1933H18.1585V19.5018C18.1585 19.7779 17.9346 20.0018 17.6585 20.0018H12.4709ZM14.3664 4.00851C14.8884 3.89248 15.2044 3.96818 15.3285 4.08099C15.4949 4.23232 15.5893 4.50008 15.5071 4.88282C15.4256 5.26212 15.176 5.69967 14.754 6.08332C14.397 6.40789 13.81 6.56732 13.2481 6.60693C13.035 6.62196 12.8443 6.61822 12.6975 6.60525C12.6953 6.39653 12.6995 6.1171 12.7298 5.81493C12.7566 5.54867 12.8024 5.28488 12.8756 5.05968C12.9512 4.82695 13.0419 4.6799 13.1261 4.60332C13.3944 4.35942 13.8763 4.11747 14.3664 4.00851Z"/>
</svg>
