<svg width="24" height="24" viewBox="0 0 24 24" xmlns="http://www.w3.org/2000/svg">
<path fill-rule="evenodd" clip-rule="evenodd" d="M8.45818 6.32939C9.85517 4.9324 11.5237 4.11992 13.1882 4.01231C14.8424 3.90537 16.5385 4.49076 18.023 5.97519C19.5074 7.45961 20.0928 9.15572 19.9858 10.81C19.8782 12.4745 19.0657 14.143 17.6688 15.54C16.2718 16.937 14.6032 17.7494 12.9388 17.857C11.2845 17.964 9.5884 17.3786 8.10398 15.8942C6.61955 14.4097 6.03417 12.7136 6.14111 11.0594C6.24871 9.3949 7.06119 7.72638 8.45818 6.32939ZM18.7301 5.26808C17.0545 3.59247 15.0818 2.88781 13.1237 3.0144C11.1758 3.14032 9.2884 4.08496 7.75108 5.62228C6.21375 7.1596 5.26912 9.04701 5.14319 10.9949C5.04462 12.5197 5.4501 14.0533 6.42561 15.4486L3.14645 18.7278C2.95118 18.9231 2.95118 19.2396 3.14645 19.4349L4.56326 20.8517C4.75852 21.047 5.0751 21.047 5.27036 20.8517L8.54953 17.5725C9.94484 18.548 11.4785 18.9535 13.0033 18.855C14.9511 18.729 16.8385 17.7844 18.3759 16.2471C19.9132 14.7097 20.8578 12.8223 20.9837 10.8745C21.1103 8.91636 20.4057 6.94368 18.7301 5.26808ZM7.76141 16.9465C7.63845 16.8363 7.5169 16.7213 7.39687 16.6013C7.27685 16.4813 7.16181 16.3597 7.0517 16.2367L4.20711 19.0813L4.91681 19.791L7.76141 16.9465Z"/>
<circle cx="15.5" cy="12.5" r="1.5" stroke="#00985F"/>
</svg>
