<svg width="24" height="24" viewBox="0 0 24 24" xmlns="http://www.w3.org/2000/svg">
<path fill-rule="evenodd" clip-rule="evenodd" d="M3.5 5C3.5 4.17157 4.17157 3.5 5 3.5H18C18.8284 3.5 19.5 4.17157 19.5 5V6C20.3284 6 21 6.67157 21 7.5V10.5C21 11.3284 20.3284 12 19.5 12H12.5C12.2239 12 12 12.2239 12 12.5V14.0854C12.5826 14.2913 13 14.8469 13 15.5V20.5C13 21.3284 12.3284 22 11.5 22C10.6716 22 10 21.3284 10 20.5V15.5C10 14.8469 10.4174 14.2913 11 14.0854V12.5C11 11.6716 11.6716 11 12.5 11H19.5C19.7761 11 20 10.7761 20 10.5V7.5C20 7.22386 19.7761 7 19.5 7V8C19.5 8.82843 18.8284 9.5 18 9.5H5C4.17157 9.5 3.5 8.82843 3.5 8V5ZM18.5 7V6V5C18.5 4.72386 18.2761 4.5 18 4.5H5C4.72386 4.5 4.5 4.72386 4.5 5V8C4.5 8.27614 4.72386 8.5 5 8.5H18C18.2761 8.5 18.5 8.27614 18.5 8V7ZM11.5 15C11.2239 15 11 15.2239 11 15.5V20.5C11 20.7761 11.2239 21 11.5 21C11.7761 21 12 20.7761 12 20.5V15.5C12 15.2239 11.7761 15 11.5 15Z"/>
</svg>
