<svg width="24" height="24" viewBox="0 0 24 24" xmlns="http://www.w3.org/2000/svg">
<path fill-rule="evenodd" clip-rule="evenodd" d="M21.9869 4.42336C22.0489 4.69286 21.8814 4.96175 21.6128 5.02394L19.9269 5.41424C21.6879 7.86131 21.4713 11.2987 19.2772 13.5022L12.6416 20.1661C10.2072 22.6109 6.26021 22.6109 3.82581 20.1661C1.3914 17.7213 1.3914 13.7575 3.82581 11.3127L10.4614 4.64883C12.7212 2.37934 16.2845 2.2166 18.7313 4.16061L18.9777 2.43004C19.0167 2.15623 19.2696 1.96598 19.5425 2.0051C19.8154 2.04421 20.0051 2.29788 19.9661 2.57168L19.7002 4.4388L21.3883 4.048C21.6569 3.98581 21.9249 4.15386 21.9869 4.42336ZM11.167 5.35744C13.2117 3.304 16.5269 3.304 18.5716 5.35744C20.6163 7.41088 20.6163 10.7402 18.5716 12.7936L14.3829 17.0002C14.7598 15.0394 14.1559 12.8959 12.6114 11.3448C11.0657 9.79259 8.92932 9.18631 6.97573 9.5666L11.167 5.35744ZM4.68466 11.8674L4.53141 12.0213C4.20942 12.3447 3.93813 12.6997 3.71755 13.0764C4.27194 13.4829 5.05375 13.4348 5.55431 12.9321C6.05316 12.4311 6.10244 11.6496 5.70214 11.0932C5.3371 11.3011 4.9953 11.5599 4.68687 11.8697L4.68466 11.8674ZM4.53141 19.4575C3.06072 17.9806 2.64784 15.8436 3.29277 13.996C4.2229 14.5676 5.45486 14.4492 6.25991 13.6407C7.05711 12.8401 7.18052 11.6191 6.63017 10.6883C8.3885 10.1327 10.4428 10.5843 11.9058 12.0534C13.7524 13.9079 13.9844 16.7088 12.623 18.6636C11.8743 17.8517 10.6402 17.636 9.64407 18.2135C8.66055 18.7838 8.22798 19.9424 8.53066 20.9892C7.09352 21.0707 5.62932 20.5601 4.53141 19.4575ZM9.53248 20.8341C10.4131 20.6086 11.2467 20.1497 11.936 19.4575L11.9627 19.4306C11.5333 18.8838 10.7589 18.7231 10.1425 19.0805C9.52748 19.4371 9.27867 20.1882 9.53248 20.8341ZM9.81984 13.4727C9.22197 13.4727 8.73367 13.96 8.73367 14.5656C8.73367 15.1712 9.22197 15.6585 9.81984 15.6585C10.4177 15.6585 10.906 15.1712 10.906 14.5656C10.906 13.96 10.4177 13.4727 9.81984 13.4727ZM7.73367 14.5656C7.73367 13.4117 8.66567 12.4727 9.81984 12.4727C10.974 12.4727 11.906 13.4117 11.906 14.5656C11.906 15.7195 10.974 16.6585 9.81984 16.6585C8.66567 16.6585 7.73367 15.7195 7.73367 14.5656ZM5.60568 17.1607C5.60568 16.8568 5.85043 16.614 6.14787 16.614C6.44532 16.614 6.69007 16.8568 6.69007 17.1607C6.69007 17.4646 6.44532 17.7073 6.14787 17.7073C5.85043 17.7073 5.60568 17.4646 5.60568 17.1607ZM6.14787 15.614C5.29414 15.614 4.60568 16.3085 4.60568 17.1607C4.60568 18.0129 5.29414 18.7073 6.14787 18.7073C7.00161 18.7073 7.69007 18.0129 7.69007 17.1607C7.69007 16.3085 7.00161 15.614 6.14787 15.614ZM17.3678 8.1901C17.9193 8.71919 17.8877 9.37528 17.6126 9.65148L16.7595 10.5082C16.5647 10.7039 16.5647 11.0211 16.7595 11.2168C16.9544 11.4125 17.2703 11.4125 17.4651 11.2168L18.3182 10.3601C19.1227 9.55218 18.8623 8.23803 18.0571 7.46551L17.8758 7.29157C17.6766 7.1004 17.3608 7.10764 17.1704 7.30772C16.9801 7.50781 16.9873 7.82499 17.1865 8.01615L17.3678 8.1901Z"/>
</svg>
