<svg width="24" height="24" viewBox="0 0 24 24" xmlns="http://www.w3.org/2000/svg">
<path fill-rule="evenodd" clip-rule="evenodd" d="M12 2.5C12.2166 2.5 12.4086 2.63947 12.4755 2.84547L14.6086 9.40957L21.5106 9.40983C21.7272 9.40984 21.9191 9.54932 21.9861 9.75532C22.053 9.96133 21.9797 10.187 21.8045 10.3143L16.2208 14.3714L18.3534 20.9357C18.4203 21.1417 18.347 21.3674 18.1717 21.4947C17.9965 21.622 17.7592 21.622 17.584 21.4947L12 17.438L6.416 21.4947C6.24076 21.622 6.00347 21.622 5.82823 21.4947C5.653 21.3674 5.57966 21.1417 5.64659 20.9357L7.77917 14.3714L2.19551 10.3143C2.02027 10.187 1.94695 9.96133 2.01389 9.75532C2.08082 9.54932 2.27279 9.40984 2.4894 9.40983L9.39138 9.40957L11.5245 2.84547C11.5914 2.63947 11.7834 2.5 12 2.5ZM12 4.61784L10.2302 10.0641C10.1632 10.2701 9.97126 10.4095 9.75466 10.4096L4.02808 10.4098L8.66085 13.7759C8.83608 13.9033 8.9094 14.1289 8.84248 14.3349L7.07307 19.7813L11.7061 16.4155C11.8813 16.2882 12.1186 16.2882 12.2939 16.4155L16.9269 19.7813L15.1575 14.3349C15.0906 14.1289 15.1639 13.9033 15.3391 13.7759L19.9719 10.4098L14.2453 10.4096C14.0287 10.4095 13.8367 10.2701 13.7698 10.0641L12 4.61784Z"/>
</svg>
