<svg width="24" height="24" viewBox="0 0 24 24" xmlns="http://www.w3.org/2000/svg">
<g clip-path="url(#clip0_3201_222)">
<path fill-rule="evenodd" clip-rule="evenodd" d="M12.2082 1.0928C12.4331 0.932585 12.7454 0.985028 12.9056 1.20994L12.4983 1.50004C12.9056 1.20994 12.9057 1.21014 12.9059 1.21034L12.9062 1.21078L12.9069 1.21177L12.9086 1.21416L12.913 1.22061L12.9262 1.24007C12.9367 1.25592 12.9507 1.27751 12.9673 1.30451C13.0005 1.35842 13.0443 1.43433 13.0923 1.52948C13.1879 1.71888 13.3023 1.98968 13.3788 2.31879C13.5337 2.98428 13.5326 3.89315 12.9135 4.8158C12.4832 5.45725 12.4843 6.06698 12.5918 6.52905C12.6464 6.76373 12.7288 6.95896 12.7972 7.09463C12.8312 7.16203 12.8611 7.21342 12.8812 7.24618C12.8913 7.26252 12.8988 7.2741 12.9031 7.28059L12.907 7.28639L12.9065 7.2856L12.9061 7.28502L12.9058 7.28468C12.9062 7.28525 12.9066 7.28582 12.9071 7.2864C13.0655 7.51115 13.0127 7.82192 12.7884 7.98165C12.5635 8.14187 12.2513 8.08942 12.0911 7.86451L12.4983 7.57441C12.0911 7.86451 12.091 7.86432 12.0908 7.86411L12.0905 7.86367L12.0898 7.86268L12.0881 7.86029L12.0836 7.85384L12.0705 7.83438C12.0599 7.81853 12.046 7.79694 12.0294 7.76995C11.9962 7.71603 11.9523 7.64012 11.9043 7.54497C11.8088 7.35557 11.6944 7.08477 11.6178 6.75566C11.463 6.09017 11.4641 5.1813 12.0831 4.25866C12.5135 3.6172 12.5124 3.00747 12.4049 2.5454C12.3503 2.31072 12.2679 2.1155 12.1995 1.97982C12.1655 1.91242 12.1356 1.86103 12.1154 1.82828C12.1054 1.81193 12.0979 1.80035 12.0935 1.79386L12.0896 1.78807L12.0902 1.78885L12.0906 1.78943L12.0907 1.78952C12.0903 1.78903 12.09 1.78855 12.0896 1.78806C11.9312 1.56331 11.984 1.25253 12.2082 1.0928ZM9.05584 1.10974C9.2714 0.937146 9.58606 0.971982 9.75865 1.18754L9.36834 1.50005C9.75865 1.18754 9.75881 1.18774 9.75897 1.18794L9.75932 1.18838L9.7601 1.18936L9.76198 1.19174L9.767 1.19816L9.78178 1.21761C9.79362 1.23346 9.80935 1.25508 9.82805 1.28214C9.86539 1.33616 9.91492 1.41239 9.96916 1.50807C10.077 1.6983 10.2071 1.97185 10.2943 2.30558C10.4722 2.98593 10.4672 3.91035 9.76757 4.83825C9.28783 5.47452 9.29287 6.06869 9.40981 6.5159C9.46996 6.74594 9.56102 6.93841 9.63746 7.07324C9.67536 7.1401 9.70875 7.19117 9.73131 7.22382C9.74255 7.24009 9.75101 7.25164 9.75586 7.25813L9.76028 7.26396L9.75967 7.26319L9.75921 7.26262L9.75894 7.26228C9.75939 7.26284 9.75984 7.26341 9.76028 7.26397C9.93102 7.47947 9.89572 7.79269 9.68084 7.96473C9.46528 8.13732 9.15062 8.10248 8.97803 7.88692L9.36834 7.57442C8.97803 7.88692 8.97787 7.88672 8.97771 7.88652L8.97736 7.88609L8.97658 7.88511L8.9747 7.88273L8.96969 7.8763L8.9549 7.85686C8.94306 7.84101 8.92733 7.81938 8.90863 7.79233C8.8713 7.7383 8.82176 7.66207 8.76752 7.5664C8.65968 7.37617 8.52961 7.10262 8.44234 6.76888C8.26444 6.08854 8.26947 5.16412 8.96911 4.23621C9.44885 3.59995 9.44381 3.00577 9.32687 2.55857C9.26672 2.32852 9.17566 2.13606 9.09922 2.00122C9.06132 1.93436 9.02793 1.88329 9.00538 1.85065C8.99413 1.83437 8.98567 1.82282 8.98082 1.81633L8.9764 1.8105L8.97701 1.81127L8.97747 1.81185L8.97774 1.81218C8.97729 1.81162 8.97684 1.81106 8.97639 1.81049C8.80566 1.59499 8.84096 1.28178 9.05584 1.10974ZM5.90616 1.12635C6.11255 0.942884 6.42858 0.961471 6.61204 1.16786L6.23834 1.50005C6.61204 1.16786 6.61222 1.16805 6.61239 1.16825L6.61277 1.16868L6.61362 1.16964L6.61567 1.17198L6.62118 1.17833L6.63749 1.19766C6.65058 1.21343 6.668 1.23501 6.68874 1.26204C6.73014 1.316 6.78523 1.39234 6.84564 1.48832C6.96558 1.67889 7.11141 1.9547 7.20953 2.29267C7.41149 2.98833 7.40088 3.92743 6.62174 4.85818C6.0915 5.4916 6.10212 6.07109 6.2275 6.50299C6.29305 6.72879 6.39273 6.91899 6.47738 7.05349C6.51927 7.12005 6.55624 7.17101 6.58133 7.20372C6.59384 7.22002 6.60327 7.23162 6.60872 7.23818L6.61375 7.24416L6.61314 7.24347L6.61265 7.24292L6.61236 7.24259C6.79548 7.44899 6.7768 7.76477 6.57053 7.94812C6.36414 8.13158 6.0481 8.11299 5.86464 7.90661L6.23834 7.57442C5.86464 7.90661 5.86447 7.90641 5.86429 7.90621L5.86392 7.90579L5.86307 7.90483L5.86101 7.90249L5.8555 7.89613L5.8392 7.87681C5.82611 7.86103 5.80868 7.83946 5.78794 7.81243C5.74654 7.75846 5.69145 7.68213 5.63105 7.58615C5.51111 7.39558 5.36527 7.11977 5.26715 6.78179C5.0652 6.08614 5.07581 5.14704 5.85494 4.21629C6.38518 3.58287 6.37457 3.00337 6.24918 2.57148C6.18363 2.34568 6.08396 2.15548 5.99931 2.02097C5.95742 1.95442 5.92044 1.90345 5.89535 1.87075C5.88284 1.85445 5.87342 1.84285 5.86797 1.83628L5.86294 1.83031L5.86354 1.83099L5.86403 1.83155L5.86432 1.83187C5.6812 1.62548 5.69989 1.3097 5.90616 1.12635ZM0.441083 10.6865C0.7017 10.3183 1.09289 10.1275 1.60123 10.1275H17.0449C17.5532 10.1275 17.9444 10.3183 18.205 10.6865C18.4896 11.0885 18.6009 11.553 18.6345 12.0037L18.7752 11.9177C20.1144 11.0993 21.813 11.5977 22.5682 12.9824C22.8589 13.5153 23.0002 14.0318 23.0018 14.5368C23.0033 15.0418 22.865 15.5042 22.6423 15.9289C22.2085 16.7562 21.428 17.4826 20.6541 18.1653C19.7995 18.9192 18.6492 19.4298 17.7462 19.7492C17.289 19.911 16.8827 20.0279 16.5902 20.1046C16.4741 20.135 16.3756 20.1592 16.2986 20.1774C14.9489 21.9322 12.9891 23.0036 10.3782 23.0036H8.26789C5.65021 23.0036 3.68537 21.9265 2.33425 20.1601C0.998636 18.4139 0.284324 16.0255 0.0638385 13.4087C0.0603387 13.3671 0.056661 13.3247 0.052912 13.2814C0.0213069 12.9163 -0.0153704 12.4926 0.00674871 12.0839C0.0317865 11.6214 0.133363 11.1212 0.441083 10.6865ZM17.1094 18.9096C17.2071 18.8777 17.3085 18.8433 17.4128 18.8064C18.2755 18.5013 19.2821 18.0421 19.9926 17.4154C20.7836 16.7176 21.4212 16.1042 21.7567 15.4645C21.9186 15.1558 22.0028 14.8529 22.0018 14.5399C22.0008 14.227 21.9147 13.8727 21.6903 13.4612C21.1949 12.5528 20.1237 12.2656 19.2967 12.771L18.6005 13.1965C18.5979 13.2263 18.5954 13.2558 18.5929 13.2849C18.5892 13.327 18.5857 13.3684 18.5823 13.4087C18.4106 15.4463 17.9396 17.3448 17.1094 18.9096ZM1.60123 11.1275C1.37696 11.1275 1.30826 11.1923 1.25728 11.2643C1.10139 11.4845 1.02507 11.7724 1.00529 12.138C0.987216 12.4718 1.01733 12.8229 1.04954 13.1985C1.05313 13.2402 1.05674 13.2823 1.06031 13.3247C1.27148 15.831 1.94946 18.011 3.12854 19.5525C4.2921 21.0738 5.96434 22.0036 8.26789 22.0036H10.3782C12.739 22.0036 14.4385 21.0269 15.6062 19.4342C16.731 17.9001 17.3801 15.7668 17.5858 13.3247C17.5896 13.2804 17.5933 13.2366 17.5971 13.1931C17.6065 13.0834 17.6158 12.9757 17.6239 12.8658C17.6752 12.1702 17.651 11.6346 17.3888 11.2643C17.3379 11.1923 17.2692 11.1275 17.0449 11.1275H1.60123ZM3.52438 12.5973C3.80012 12.5823 4.03577 12.7937 4.05073 13.0695L4.10338 14.0397C4.16642 15.2017 4.53925 16.3186 5.17583 17.2611L5.53081 17.7867C5.68537 18.0155 5.62516 18.3263 5.39632 18.4809C5.16748 18.6354 4.85668 18.5752 4.70212 18.3464L4.34714 17.8208C3.60727 16.7254 3.17751 15.4331 3.10485 14.0939L3.0522 13.1237C3.03724 12.8479 3.24864 12.6123 3.52438 12.5973Z" fill="#00985F"/>
</g>
<defs>
<clipPath id="clip0_3201_222">
<rect width="24" height="24" fill="white"/>
</clipPath>
</defs>
</svg>
