<svg width="24" height="24" viewBox="0 0 24 24" xmlns="http://www.w3.org/2000/svg">
<path fill-rule="evenodd" clip-rule="evenodd" d="M3.5 4.5C3.5 3.11929 4.61929 2 6 2H18C19.3807 2 20.5 3.11929 20.5 4.5V19.5C20.5 20.8807 19.3807 22 18 22H6C4.61929 22 3.5 20.8807 3.5 19.5V4.5ZM6 3C5.17157 3 4.5 3.67157 4.5 4.5V19.5C4.5 20.3284 5.17157 21 6 21H18C18.8284 21 19.5 20.3284 19.5 19.5V4.5C19.5 3.67157 18.8284 3 18 3H6ZM12 9.17859C9.52574 9.17859 7.5 11.2355 7.5 13.7976C7.5 16.3598 9.52574 18.4167 12 18.4167C13.2011 18.4167 14.2966 17.932 15.1059 17.14C14.7291 16.9378 14.4109 16.6172 14.1668 16.2423C13.7447 15.5941 13.5 14.7284 13.5 13.7976C13.5 12.8669 13.7447 12.0011 14.1668 11.353C14.4109 10.978 14.7291 10.6575 15.1059 10.4553C14.2966 9.66331 13.2011 9.17859 12 9.17859ZM15.762 11.2615C15.5034 11.3381 15.2372 11.5417 15.0048 11.8986C14.703 12.3621 14.5 13.0321 14.5 13.7976C14.5 14.5632 14.703 15.2332 15.0048 15.6966C15.2372 16.0536 15.5034 16.2572 15.762 16.3337C16.2282 15.607 16.5 14.7362 16.5 13.7976C16.5 12.859 16.2282 11.9882 15.762 11.2615ZM6.5 13.7976C6.5 10.7055 8.95141 8.17859 12 8.17859C15.0486 8.17859 17.5 10.7055 17.5 13.7976C17.5 16.8898 15.0486 19.4167 12 19.4167C8.95141 19.4167 6.5 16.8898 6.5 13.7976ZM12.5 4.58333C12.2239 4.58333 12 4.80719 12 5.08333C12 5.35947 12.2239 5.58333 12.5 5.58333H14.5C14.7761 5.58333 15 5.35947 15 5.08333C15 4.80719 14.7761 4.58333 14.5 4.58333H12.5ZM16 5.08333C16 4.80719 16.2239 4.58333 16.5 4.58333H17.5C17.7761 4.58333 18 4.80719 18 5.08333C18 5.35947 17.7761 5.58333 17.5 5.58333H16.5C16.2239 5.58333 16 5.35947 16 5.08333Z"/>
</svg>
