<svg width="24" height="24" viewBox="0 0 24 24" xmlns="http://www.w3.org/2000/svg">
<path fill-rule="evenodd" clip-rule="evenodd" d="M12 3C7.02944 3 3 7.02944 3 12C3 16.9706 7.02944 21 12 21C16.9706 21 21 16.9706 21 12C21 7.02944 16.9706 3 12 3ZM2 12C2 6.47715 6.47715 2 12 2C17.5228 2 22 6.47715 22 12C22 17.5228 17.5228 22 12 22C6.47715 22 2 17.5228 2 12ZM5.36739 9.6993C5.63149 9.57999 5.94456 9.45126 6.30602 9.32293C7.59788 8.86429 9.5053 8.41177 12 8.41176C14.4947 8.41176 16.4021 8.86429 17.694 9.32293C18.0554 9.45126 18.3685 9.57999 18.6326 9.6993C17.6784 6.96415 15.0695 5 12 5C8.93055 5 6.32159 6.96415 5.36739 9.6993ZM19.1183 11.087L19.1167 11.0859L19.1005 11.0752C19.0848 11.0649 19.0594 11.0486 19.0243 11.0272C18.9541 10.9843 18.8453 10.9206 18.6981 10.8431C18.4038 10.688 17.9565 10.4773 17.3594 10.2653C16.166 9.84159 14.3715 9.41176 12 9.41176C9.62849 9.41176 7.83405 9.84159 6.64059 10.2653C6.0435 10.4773 5.5962 10.688 5.30189 10.8431C5.15474 10.9206 5.04587 10.9843 4.97569 11.0272C4.9406 11.0486 4.91519 11.0649 4.89951 11.0752L4.8833 11.0859L4.88173 11.087L4.8814 11.0872C4.71549 11.2024 4.49655 11.2064 4.32648 11.0974C4.15629 10.9884 4.06851 10.7876 4.10404 10.5886C4.77286 6.84245 8.05389 4 12 4C15.9461 4 19.2271 6.84245 19.896 10.5886C19.9315 10.7876 19.8437 10.9884 19.6735 11.0974C19.5035 11.2064 19.2846 11.2024 19.1187 11.0872C19.1186 11.0872 19.1186 11.0872 19.1186 11.0872L19.1183 11.087ZM12 12C11.4477 12 11 12.4477 11 13C11 13.5523 11.4477 14 12 14C12.5523 14 13 13.5523 13 13C13 12.4477 12.5523 12 12 12ZM10 13C10 11.8954 10.8954 11 12 11C13.1046 11 14 11.8954 14 13C14 14.1046 13.1046 15 12 15C10.8954 15 10 14.1046 10 13ZM6.6746 12.2312C7.05089 12.5209 7.38313 12.955 7.64364 13.5696C8.17645 14.8264 7.94726 15.776 7.52319 16.4131C7.31995 16.7184 7.08288 16.9363 6.89813 17.0777C6.80514 17.1488 6.72345 17.2021 6.6628 17.2387C6.6324 17.2571 6.60709 17.2714 6.58802 17.2818C6.57849 17.2869 6.57049 17.2912 6.56419 17.2944L6.55602 17.2986L6.55291 17.3002L6.5516 17.3008L6.55101 17.3011C6.55074 17.3012 6.55047 17.3014 6.32931 16.8529L6.55047 17.3014C6.3457 17.4024 6.09853 17.3518 5.94985 17.1785C4.83529 15.8796 4.12085 14.2345 4.00115 12.4751C3.98751 12.2746 4.09527 12.0854 4.27471 11.9948L4.5 12.4412C4.27471 11.9948 4.27498 11.9947 4.27526 11.9945L4.27586 11.9942L4.27717 11.9936L4.28032 11.992L4.28859 11.988C4.29499 11.9849 4.30313 11.9811 4.31295 11.9766C4.33257 11.9677 4.35898 11.9562 4.39151 11.9432C4.45639 11.9173 4.54677 11.885 4.65728 11.8551C4.87624 11.7959 5.18689 11.743 5.54051 11.7782C5.89899 11.8139 6.29655 11.94 6.6746 12.2312ZM6.42265 16.172C5.68277 15.1922 5.1917 14.0282 5.03626 12.7933C5.15456 12.7709 5.2938 12.7586 5.44145 12.7733C5.6369 12.7927 5.85172 12.8596 6.06445 13.0234C6.27895 13.1886 6.51589 13.4714 6.72295 13.9599C7.12524 14.9088 6.92744 15.5034 6.69075 15.859C6.60684 15.985 6.51222 16.0891 6.42265 16.172ZM4.72149 12.8894L4.72151 12.8894L4.72149 12.8894ZM17.9326 13.0233C17.7188 13.1881 17.4828 13.4705 17.2776 13.9585C16.8784 14.9079 17.076 15.5034 17.3124 15.8595C17.3956 15.9849 17.4893 16.0885 17.578 16.1711C18.3175 15.1915 18.8083 14.028 18.9637 12.7936C18.8446 12.771 18.7043 12.7585 18.5557 12.7733C18.3596 12.7928 18.1447 12.8597 17.9326 13.0233ZM19.5 12.4412L19.7245 11.9944C19.9044 12.0848 20.0125 12.2743 19.9988 12.4751C19.8791 14.2345 19.1647 15.8796 18.0502 17.1785C17.9013 17.352 17.6537 17.4025 17.4488 17.301L17.6707 16.8529C17.4488 17.301 17.4485 17.3009 17.4482 17.3007L17.4476 17.3004L17.4463 17.2998L17.4432 17.2982L17.4351 17.294C17.4288 17.2908 17.4208 17.2865 17.4113 17.2813C17.3923 17.271 17.367 17.2567 17.3367 17.2383C17.2763 17.2016 17.1949 17.1483 17.1022 17.0771C16.918 16.9356 16.6819 16.7177 16.4793 16.4125C16.0568 15.776 15.8274 14.8273 16.3558 13.5709C16.6144 12.956 16.9458 12.5214 17.322 12.2313C17.7 11.9399 18.0979 11.8138 18.4568 11.7782C18.8107 11.743 19.1219 11.7959 19.3413 11.855C19.452 11.8848 19.5426 11.9171 19.6076 11.943C19.6402 11.956 19.6666 11.9674 19.6863 11.9763C19.6961 11.9808 19.7043 11.9846 19.7107 11.9876L19.7189 11.9916L19.7221 11.9932L19.7234 11.9938L19.724 11.9941C19.7243 11.9943 19.7245 11.9944 19.5 12.4412ZM8.75603 18.1798C9.72447 18.701 10.8265 19 12 19C13.1735 19 14.2755 18.701 15.244 18.1798C15.1448 18.0777 15.0178 17.9632 14.8584 17.8476C14.3382 17.4703 13.4463 17.0605 12 17.0605C10.5537 17.0605 9.66178 17.4703 9.1416 17.8476C8.98225 17.9632 8.85515 18.0777 8.75603 18.1798ZM15.9814 18.3252C16.4284 18.1011 16.4282 18.1008 16.4281 18.1005L16.4277 18.0998L16.427 18.0984L16.4252 18.0949L16.4206 18.0861C16.4187 18.0824 16.4164 18.0782 16.4138 18.0735C16.4117 18.0697 16.4095 18.0656 16.407 18.0612C16.3959 18.0413 16.3807 18.0153 16.361 17.9839C16.3217 17.9211 16.2644 17.8369 16.1864 17.7386C16.0303 17.5419 15.7907 17.2885 15.4455 17.0381C14.7492 16.5331 13.6504 16.0605 12 16.0605C10.3496 16.0605 9.25083 16.5331 8.55448 17.0381C8.2093 17.2885 7.96974 17.5419 7.8136 17.7386C7.73556 17.8369 7.67829 17.9211 7.63897 17.9839C7.6193 18.0153 7.6041 18.0413 7.593 18.0612C7.58744 18.0711 7.58292 18.0794 7.57937 18.0861L7.57477 18.0949L7.57302 18.0984L7.57227 18.0998L7.57193 18.1005C7.57177 18.1008 7.57161 18.1011 8.01859 18.3252L7.57161 18.1011C7.45703 18.3297 7.53332 18.6079 7.74847 18.746C8.97567 19.5338 10.4315 20 12 20C13.5685 20 15.0243 19.5338 16.2515 18.746C16.4667 18.6079 16.543 18.3297 16.4284 18.1011L15.9814 18.3252Z"/>
</svg>
