<svg width="24" height="24" viewBox="0 0 24 24" xmlns="http://www.w3.org/2000/svg">
<path fill-rule="evenodd" clip-rule="evenodd" d="M15.0127 3.74774C16.0053 2.75509 17.6018 2.7526 18.5786 3.7294C18.9976 4.1484 19.2358 4.67926 19.294 5.2287L19.3365 5.63072L19.7385 5.67328C20.288 5.73145 20.8188 5.9696 21.2378 6.3886C22.2146 7.36539 22.2121 8.96192 21.2195 9.95456C20.2269 10.9472 18.6303 10.9497 17.6535 9.9729C17.4583 9.77764 17.1417 9.77764 16.9464 9.9729L9.9729 16.9464L9.61935 17.3L9.9729 17.6535C10.9497 18.6303 10.9472 20.2269 9.95456 21.2195C8.96192 22.2121 7.3654 22.2146 6.3886 21.2378C5.9696 20.8188 5.73145 20.288 5.67328 19.7385L5.63072 19.3365L5.2287 19.294C4.67926 19.2358 4.1484 18.9976 3.7294 18.5786C2.7526 17.6018 2.75509 16.0053 3.74774 15.0127C4.74038 14.02 6.3369 14.0175 7.3137 14.9943L7.66725 15.3479L8.0208 14.9943L14.9943 8.0208C15.1896 7.82554 15.1896 7.50896 14.9943 7.3137C14.0175 6.3369 14.02 4.74038 15.0127 3.74774ZM19.2857 3.02229C17.9127 1.64926 15.683 1.66319 14.3056 3.04063C13.0486 4.29761 12.9271 6.26433 13.9588 7.64209L7.64209 13.9588C6.26433 12.9271 4.29761 13.0486 3.04063 14.3056C1.66319 15.683 1.64926 17.9127 3.02229 19.2857C3.51132 19.7748 4.11053 20.0883 4.74081 20.2264C4.87893 20.8567 5.19246 21.4559 5.68149 21.945C7.05452 23.318 9.28423 23.304 10.6617 21.9266C11.9187 20.6696 12.0402 18.7029 11.0084 17.3251L17.3251 11.0084C18.7029 12.0402 20.6696 11.9187 21.9266 10.6617C23.304 9.28423 23.318 7.05452 21.945 5.68149C21.4559 5.19246 20.8567 4.87892 20.2264 4.7408C20.0883 4.11053 19.7748 3.51132 19.2857 3.02229ZM19.1124 6.61237C18.8362 6.61237 18.6124 6.83622 18.6124 7.11237C18.6124 7.38851 18.8362 7.61237 19.1124 7.61237C19.3885 7.61237 19.6124 7.83622 19.6124 8.11236C19.6124 8.3885 19.8362 8.61236 20.1124 8.61236C20.3885 8.61236 20.6124 8.3885 20.6124 8.11236C20.6124 7.28393 19.9408 6.61237 19.1124 6.61237Z"/>
</svg>
