<svg width="56" height="56" viewBox="0 0 56 56" xmlns="http://www.w3.org/2000/svg">
<path fill-rule="evenodd" clip-rule="evenodd" d="M55 28C55 42.9117 42.9117 55 28 55C13.0883 55 1 42.9117 1 28C1 13.0883 13.0883 1 28 1C42.9117 1 55 13.0883 55 28ZM28 52C41.2548 52 52 41.2548 52 28C52 14.7452 41.2548 4 28 4C14.7452 4 4 14.7452 4 28C4 41.2548 14.7452 52 28 52Z" fill="white"/>
<path d="M52 28C52 41.2548 41.2548 52 28 52C14.7452 52 4 41.2548 4 28C4 14.7452 14.7452 4 28 4C41.2548 4 52 14.7452 52 28Z" fill="#00985F"/>
</svg>
