<svg width="32" height="64" viewBox="0 0 32 64" xmlns="http://www.w3.org/2000/svg">
<path opacity="0.2" d="M21.3333 61.2174C21.3333 62.7542 18.9455 64 16 64C13.0544 64 10.6666 62.7542 10.6666 61.2174C10.6666 59.6806 13.0544 58.4348 16 58.4348C18.9455 58.4348 21.3333 59.6806 21.3333 61.2174Z" fill="#333333"/>
<path d="M16 0C7.16344 0 0 7.4749 0 16.6957C0 25.4479 6.45396 32.6272 14.6667 33.3342V59.8261C14.6667 60.5945 15.2636 61.2174 16 61.2174C16.7364 61.2174 17.3333 60.5945 17.3333 59.8261V33.3342C25.546 32.6272 32 25.4479 32 16.6957C32 7.4749 24.8366 0 16 0Z" fill="#333333"/>
<path d="M13.3334 8.3478C13.3334 10.653 11.5425 12.5217 9.33337 12.5217C7.12423 12.5217 5.33337 10.653 5.33337 8.3478C5.33337 6.04261 7.12423 4.17389 9.33337 4.17389C11.5425 4.17389 13.3334 6.04261 13.3334 8.3478Z" fill="white"/>
</svg>
