<svg width="162" height="68" viewBox="0 0 162 68" xmlns="http://www.w3.org/2000/svg">
<path opacity="0.2" d="M86.6667 65.2162C86.6667 66.753 84.2789 67.9988 81.3333 67.9988C78.3878 67.9988 76 66.753 76 65.2162C76 63.6794 78.3878 62.4336 81.3333 62.4336C84.2789 62.4336 86.6667 63.6794 86.6667 65.2162Z" fill="#333333"/>
<path d="M142 0H20C8.95431 0 0 8.95431 0 20C0 31.0457 8.9543 40 20 40H80V63.8262C80 64.5946 80.597 65.2175 81.3333 65.2175C82.0697 65.2175 82.6667 64.5946 82.6667 63.8262V40H142C153.046 40 162 31.0457 162 20C162 8.95431 153.046 0 142 0Z" fill="#333333"/>
<path d="M18.1484 27.2266H16.3125V23.3047H17.1172C17.9141 22.7969 18.1719 21.875 18.2656 20.3594L18.6641 13.7266H26.3984V23.3047H27.8047V27.2266H25.9688V25H18.1484V27.2266ZM20.125 20.4844C20.0469 21.7266 19.8828 22.5781 19.3828 23.1797V23.3047H24.3828V15.4219H20.4453L20.125 20.4844ZM33.0725 25.1719C30.51 25.1719 28.9631 23.5 28.9631 20.7344V20.7188C28.9631 17.9766 30.5334 16.2969 33.0725 16.2969C35.6194 16.2969 37.1819 17.9688 37.1819 20.7188V20.7344C37.1819 23.5 35.6272 25.1719 33.0725 25.1719ZM33.0725 23.5938C34.4241 23.5938 35.1897 22.5391 35.1897 20.7422V20.7266C35.1897 18.9297 34.4163 17.8672 33.0725 17.8672C31.7209 17.8672 30.9475 18.9297 30.9475 20.7266V20.7422C30.9475 22.5391 31.7209 23.5938 33.0725 23.5938ZM42.7153 25.1719C40.145 25.1719 38.6294 23.5078 38.6294 20.7188V20.7031C38.6294 17.9453 40.1372 16.2969 42.7075 16.2969C44.9028 16.2969 46.2153 17.5156 46.4341 19.2812V19.3125H44.5981L44.5903 19.2891C44.4106 18.4609 43.7778 17.8672 42.7153 17.8672C41.3872 17.8672 40.6059 18.9141 40.6059 20.7031V20.7188C40.6059 22.5312 41.395 23.5938 42.7153 23.5938C43.7231 23.5938 44.3403 23.1328 44.5825 22.2344L44.5981 22.2031L46.4341 22.1953L46.4184 22.2578C46.1372 24.0078 44.8794 25.1719 42.7153 25.1719ZM54.3737 16.4609V17.9688H51.7409V25H49.7956V17.9688H47.1706V16.4609H54.3737ZM58.165 25.1406C56.54 25.1406 55.3603 24.1406 55.3603 22.5859V22.5703C55.3603 21.0469 56.5244 20.1562 58.6025 20.0312L60.7978 19.8984V19.1641C60.7978 18.3125 60.2431 17.8438 59.1963 17.8438C58.3056 17.8438 57.7275 18.1641 57.5322 18.7266L57.5244 18.7578H55.6884L55.6963 18.6875C55.8838 17.25 57.2588 16.2969 59.29 16.2969C61.4853 16.2969 62.7197 17.3594 62.7197 19.1641V25H60.7978V23.8281H60.665C60.1963 24.6562 59.29 25.1406 58.165 25.1406ZM57.2822 22.4922C57.2822 23.2188 57.8994 23.6484 58.7588 23.6484C59.9306 23.6484 60.7978 22.8828 60.7978 21.8672V21.1797L58.8759 21.3047C57.79 21.375 57.2822 21.7734 57.2822 22.4766V22.4922ZM64.9641 25V16.4609H69.0031C70.7219 16.4609 71.7297 17.3281 71.7297 18.6406V18.6562C71.7297 19.5469 71.1125 20.3359 70.2453 20.4844V20.6172C71.3703 20.7422 72.1125 21.5234 72.1125 22.5547V22.5703C72.1125 24.0234 70.9562 25 69.0578 25H64.9641ZM66.8859 20.0078H68.3859C69.3469 20.0078 69.8156 19.6172 69.8156 18.9062V18.8906C69.8156 18.2422 69.4016 17.8047 68.5422 17.8047H66.8859V20.0078ZM66.8859 23.6562H68.7062C69.6437 23.6562 70.1203 23.2188 70.1203 22.4844V22.4688C70.1203 21.6953 69.5891 21.3125 68.5266 21.3125H66.8859V23.6562ZM74.0366 25V16.4609H75.9584V22.1797H76.1147L79.7163 16.4609H81.6381V25H79.7163V19.25H79.5522L75.9584 25H74.0366ZM90.445 16.4609V17.9688H87.8122V25H85.8669V17.9688H83.2419V16.4609H90.445ZM92.0409 25V16.4609H93.9863V19.0391H95.6738C97.6659 19.0391 98.9394 20.2031 98.9394 22.0156V22.0312C98.9394 23.8438 97.6659 25 95.6738 25H92.0409ZM95.4238 20.5391H93.9863V23.5H95.4238C96.3769 23.5 96.9784 22.8984 96.9784 22.0234V22.0078C96.9784 21.125 96.3691 20.5391 95.4238 20.5391ZM108.405 25.1719C105.834 25.1719 104.319 23.5078 104.319 20.7188V20.7031C104.319 17.9453 105.827 16.2969 108.397 16.2969C110.592 16.2969 111.905 17.5156 112.123 19.2812V19.3125H110.287L110.28 19.2891C110.1 18.4609 109.467 17.8672 108.405 17.8672C107.077 17.8672 106.295 18.9141 106.295 20.7031V20.7188C106.295 22.5312 107.084 23.5938 108.405 23.5938C109.412 23.5938 110.03 23.1328 110.272 22.2344L110.287 22.2031L112.123 22.1953L112.108 22.2578C111.827 24.0078 110.569 25.1719 108.405 25.1719ZM113.883 25V16.4609H115.829V19.8438H117.18C117.493 17.6094 118.969 16.2891 121.18 16.2891C123.68 16.2891 125.235 17.9531 125.235 20.7188V20.7344C125.235 23.5234 123.688 25.1797 121.18 25.1797C118.868 25.1797 117.376 23.7656 117.157 21.3672H115.829V25H113.883ZM121.173 23.6016C122.485 23.6016 123.243 22.5469 123.243 20.7422V20.7266C123.243 18.9219 122.485 17.8672 121.173 17.8672C119.86 17.8672 119.102 18.9219 119.102 20.7266V20.7422C119.102 22.5469 119.852 23.6016 121.173 23.6016ZM127.823 27.2266H126.042V23.4766H126.714C127.347 23.1016 127.612 22.0938 127.69 20.9453L127.987 16.4609H134.417V23.4766H135.729V27.2266H133.948V25H127.823V27.2266ZM132.464 23.4766V17.9844H129.651L129.433 21.0469C129.362 21.9844 129.167 22.8047 128.792 23.3438V23.4766H132.464ZM139.474 25.1406C137.849 25.1406 136.669 24.1406 136.669 22.5859V22.5703C136.669 21.0469 137.833 20.1562 139.911 20.0312L142.107 19.8984V19.1641C142.107 18.3125 141.552 17.8438 140.505 17.8438C139.614 17.8438 139.036 18.1641 138.841 18.7266L138.833 18.7578H136.997L137.005 18.6875C137.192 17.25 138.567 16.2969 140.599 16.2969C142.794 16.2969 144.028 17.3594 144.028 19.1641V25H142.107V23.8281H141.974C141.505 24.6562 140.599 25.1406 139.474 25.1406ZM138.591 22.4922C138.591 23.2188 139.208 23.6484 140.067 23.6484C141.239 23.6484 142.107 22.8828 142.107 21.8672V21.1797L140.185 21.3047C139.099 21.375 138.591 21.7734 138.591 22.4766V22.4922Z" fill="white"/>
</svg>
