<svg width="100" height="100" viewBox="0 0 100 100" xmlns="http://www.w3.org/2000/svg">
<path d="M50.2727 7C65.335 7 77.5455 19.4285 77.5455 34.7597C77.5455 44.6168 69.3419 63.4044 52.8837 91.8446C51.7117 93.87 48.8337 93.87 47.6617 91.8446C31.2036 63.4044 23 44.6168 23 34.7597C23 19.4285 35.2104 7 50.2727 7Z" fill="#00985F"/>
<path fill-rule="evenodd" clip-rule="evenodd" d="M79.5455 34.7597C79.5455 18.3574 66.4728 5 50.2727 5C34.0726 5 21 18.3574 21 34.7597C21 40.127 23.2012 47.6109 27.3238 57.1285C31.4757 66.7134 37.6837 78.5953 45.9307 92.8464C47.873 96.2027 52.6725 96.2027 54.6148 92.8464C62.8618 78.5953 69.0698 66.7134 73.2216 57.1285C77.3443 47.6109 79.5455 40.127 79.5455 34.7597ZM50.2727 7C65.335 7 77.5455 19.4285 77.5455 34.7597C77.5455 44.6168 69.3419 63.4044 52.8837 91.8446C51.7117 93.87 48.8337 93.87 47.6617 91.8446C31.2036 63.4044 23 44.6168 23 34.7597C23 19.4285 35.2104 7 50.2727 7ZM73 34.2727C73 46.8247 62.8246 57 50.2727 57C37.7208 57 27.5454 46.8247 27.5454 34.2727C27.5454 21.7208 37.7208 11.5455 50.2727 11.5455C62.8246 11.5455 73 21.7208 73 34.2727Z" fill="white"/>
<path fill-rule="evenodd" clip-rule="evenodd" d="M54.9777 32.9785C55.1175 32.7694 55.2572 32.5464 55.3829 32.3235C55.3271 32.2956 55.2712 32.2956 55.2153 32.3653C52.5326 35.1943 49.9476 35.5427 47.9635 35.5427H44.9175C44.8337 35.5427 44.7499 35.4312 44.8197 35.3337C47.1671 32.0866 49.78 29.5502 51.7082 27.9057L46.6082 32.1562C46.217 32.4907 45.7419 32.6997 45.0712 32.6997H38.6578C38.4762 32.6997 38.5321 32.853 38.574 32.9367C39.0211 34.3163 40.2228 35.5427 42.3326 35.5427L40.8236 37.0757C40.7677 37.1315 40.7677 37.2848 40.9074 37.2848H46.6361C50.772 37.2848 53.301 35.5009 54.9777 32.9785ZM53.1894 39.2778L54.9919 44.3227H56.3193L54.419 39.0409C54.0697 39.1245 53.6505 39.2081 53.1894 39.2778ZM58.2611 27.5712C58.0655 27.7663 57.7581 27.7663 57.5624 27.5712C57.3668 27.376 57.3668 27.0695 57.5624 26.8743C57.7581 26.6792 58.0655 26.6792 58.2611 26.8743C57.8559 26.4702 57.1852 26.4702 56.78 26.8743C56.3748 27.2785 56.3748 27.9474 56.78 28.3516C57.1852 28.7557 57.8559 28.7557 58.2611 28.3516C58.6663 27.9474 58.6663 27.2785 58.2611 26.8743C58.4567 27.0695 58.4567 27.376 58.2611 27.5712ZM54.6148 36.8111H52.0299C51.3731 37.2013 51.1636 37.3267 50.2274 37.6751C50.1575 37.703 50.1436 37.7588 50.1715 37.8563L52.4909 44.3088H53.8183L51.6666 38.3998C53.0498 38.3998 56.3474 38.0375 58.1358 35.1527C57.5909 35.9889 56.2915 36.8111 54.6148 36.8111ZM62.4383 26.568H60.3285L59.8115 27.1951C59.7277 27.2787 59.7556 27.3763 59.8394 27.4042L60.5381 27.7108L62.4942 26.8049C62.62 26.7492 62.5781 26.568 62.4383 26.568Z" fill="#00985F"/>
<path fill-rule="evenodd" clip-rule="evenodd" d="M45.9952 31.3759C45.7018 31.6407 45.3385 31.7104 44.9054 31.7243H42.5859C44.9752 25.9965 47.0152 21.7599 47.5601 20.6171H53.9735C54.239 21.1467 54.8119 22.3731 55.6223 24.143C54.3089 24.5053 53.3448 25.2858 51.7519 26.5818C51.4305 25.7735 51.1231 25.021 50.7878 24.2684C50.1171 25.676 49.4883 27.3623 48.8875 29.0067L45.9952 31.3759Z" fill="#E3000F"/>
<path fill-rule="evenodd" clip-rule="evenodd" d="M38.2543 44.323H43.969L45.9112 38.2887H40.3362C39.6795 40.0864 38.9808 42.0654 38.2543 44.323Z" fill="#E3000F"/>
<path fill-rule="evenodd" clip-rule="evenodd" d="M55.5106 38.6367C57.6763 37.5915 58.5985 36.5742 59.5906 34.5674C60.7642 37.5637 62.0218 40.8387 63.1955 44.3227H57.5366L55.5106 38.6367Z" fill="#E3000F"/>
<path fill-rule="evenodd" clip-rule="evenodd" d="M54.6011 36.8109C56.2918 36.8109 57.5912 36.0026 58.1361 35.1665C59.9246 32.2956 60.5394 27.7245 60.5394 27.7245L59.8408 27.4179C59.7569 27.3901 59.715 27.2925 59.8128 27.2089L60.3298 26.5818C59.9945 25.9546 58.8487 24.9233 57.172 24.9233C56.166 24.9233 55.2997 25.1881 54.5172 25.7038C54.5172 25.7038 53.3715 26.4842 51.7088 27.9196C49.7945 29.578 47.1817 32.1144 44.8203 35.3476C44.7504 35.4452 44.8343 35.5567 44.9181 35.5567H47.9641C49.9482 35.5567 52.5331 35.1943 55.2159 32.3792C55.2718 32.3235 55.3277 32.3095 55.3835 32.3374C55.4394 32.3653 55.4534 32.435 55.4255 32.4907C55.0063 33.5081 53.9444 35.5846 52.0301 36.8109H54.6011ZM56.7817 26.8883C57.1573 26.5137 57.761 26.4863 58.1699 26.8061C58.2028 26.8249 58.234 26.8477 58.2628 26.8743C58.2951 26.9065 58.3221 26.9418 58.3437 26.979C58.6659 27.3869 58.639 27.9903 58.2628 28.3655C57.8436 28.7697 57.1869 28.7697 56.7817 28.3655C56.3765 27.9614 56.3765 27.2924 56.7817 26.8883Z" fill="#E3000F"/>
</svg>
