<svg width="64" height="64" viewBox="0 0 64 64" xmlns="http://www.w3.org/2000/svg">
<path d="M32.4545 4C42.0944 4 49.9091 11.9542 49.9091 21.7662C49.9091 28.0748 44.6588 40.0989 34.1256 58.3006C33.3755 59.5968 31.5336 59.5968 30.7835 58.3006C20.2503 40.0989 15 28.0748 15 21.7662C15 11.9542 22.8147 4 32.4545 4Z" fill="#00985F"/>
<path fill-rule="evenodd" clip-rule="evenodd" d="M51.9091 21.7662C51.9091 10.8832 43.2322 2 32.4545 2C21.6769 2 13 10.8832 13 21.7662C13 25.3592 14.4628 30.2651 17.1066 36.3684C19.7795 42.539 23.7679 50.1705 29.0524 59.3023C30.5728 61.9295 34.3363 61.9295 35.8566 59.3023C41.1411 50.1705 45.1296 42.539 47.8025 36.3684C50.4462 30.2651 51.9091 25.3592 51.9091 21.7662ZM32.4545 4C42.0944 4 49.9091 11.9542 49.9091 21.7662C49.9091 28.0748 44.6588 40.0989 34.1256 58.3006C33.3755 59.5968 31.5336 59.5968 30.7835 58.3006C20.2503 40.0989 15 28.0748 15 21.7662C15 11.9542 22.8147 4 32.4545 4ZM29.7171 19.6005C29.5293 19.7699 29.2968 19.8145 29.0196 19.8234H27.5352C28.9937 16.327 30.2488 13.6987 30.6643 12.8287L30.7187 12.7148H34.8232C34.9931 13.0538 35.3598 13.8387 35.8784 14.9714C35.0378 15.2033 34.4208 15.7028 33.4014 16.5323C33.1957 16.0149 32.999 15.5333 32.7844 15.0517C32.3551 15.9525 31.9527 17.0317 31.5682 18.0842L29.7171 19.6005ZM38.8904 16.5234H40.2407C40.3302 16.5234 40.357 16.6394 40.2765 16.6751L39.0246 17.2548L38.5774 17.0586C38.5413 17.0466 38.5214 17.0144 38.5286 16.9783C38.5152 17.0179 38.54 17.0544 38.579 17.0674L39.0262 17.2636C39.0262 17.2636 38.6327 20.1891 37.4881 22.0265C37.4696 22.0548 37.4497 22.0832 37.4286 22.1113C36.2716 23.8718 34.2182 24.0957 33.3481 24.0957L34.7252 27.8775H33.8757L32.3913 23.7479C32.3734 23.6855 32.3823 23.6498 32.427 23.632C33.0236 23.4099 33.1592 23.3294 33.5752 23.0821L33.5806 23.079H35.235C35.4549 23.079 35.6647 23.0568 35.8623 23.0171C35.6622 23.0569 35.4492 23.079 35.2256 23.079L33.5806 23.079C34.8057 22.2941 35.485 20.9651 35.7532 20.314C35.7711 20.2783 35.7622 20.2337 35.7264 20.2159L35.7218 20.2137C35.6424 20.354 35.5545 20.494 35.4667 20.6255C34.3936 22.2399 32.775 23.3815 30.128 23.3815H26.4616C26.3722 23.3815 26.3722 23.2834 26.408 23.2477L27.3738 22.2666C26.0235 22.2666 25.2544 21.4817 24.9683 20.5987C24.9414 20.5452 24.9057 20.4471 25.0219 20.4471H29.1265C29.5557 20.4471 29.8598 20.3133 30.1102 20.0993L33.3741 17.3789C32.1401 18.4314 30.4679 20.0547 28.9655 22.1328C28.9519 22.1519 28.9474 22.1719 28.9493 22.1903C28.9496 22.1747 28.9546 22.1583 28.9659 22.1424C30.4772 20.0732 32.1494 18.4499 33.3745 17.3885C34.4387 16.4698 35.172 15.9704 35.172 15.9704C35.6728 15.6404 36.2272 15.4709 36.871 15.4709C37.9383 15.4709 38.6695 16.1238 38.8885 16.5258L38.8904 16.5234ZM37.1209 17.1655C37.2461 17.2904 37.4428 17.2904 37.568 17.1655C37.6932 17.0407 37.6932 16.8444 37.568 16.7196C37.5628 16.7144 37.5576 16.7095 37.5522 16.7048C37.539 16.6942 37.5251 16.6848 37.5107 16.6766L37.4949 16.6646C37.3748 16.5987 37.2237 16.617 37.1209 16.7196C36.9957 16.8444 36.9957 17.0407 37.1209 17.1655ZM34.3221 24.6575L35.4757 27.8862H36.3252L35.109 24.5059C34.8855 24.5594 34.6172 24.6129 34.3221 24.6575ZM28.4211 27.8874H24.7637C25.2287 26.4425 25.6758 25.176 26.0961 24.0254H29.6641L28.4211 27.8874ZM35.8086 24.247C37.1947 23.578 37.7849 22.9269 38.4198 21.6426C39.1709 23.5602 39.9758 25.6562 40.7269 27.886H37.1052L35.8086 24.247Z" fill="white"/>
</svg>
