<svg xmlns="http://www.w3.org/2000/svg" width="120" height="40" fill="none"><path stroke="#333" stroke-miterlimit="10" d="M4.444.5h111.112c1.025 0 2.023.458 2.769 1.297.747.84 1.175 1.992 1.175 3.203v30c0 1.211-.428 2.363-1.175 3.203-.746.84-1.744 1.297-2.769 1.297H4.444c-1.025 0-2.023-.458-2.769-1.297C.928 37.363.5 36.211.5 35V5c0-1.211.428-2.363 1.175-3.203C2.421.957 3.42.5 4.445.5Z"/><path fill="#333" fill-rule="evenodd" d="M42.421 27.14h-4.747l-1.14 3.356h-2.01l4.496-12.418h2.089l4.496 12.418H43.56l-1.139-3.356Zm-4.255-1.55h3.763l-1.855-5.447h-.052l-1.856 5.448ZM55.315 25.97c0 2.813-1.51 4.62-3.79 4.62a3.086 3.086 0 0 1-2.856-1.583h-.043v4.484h-1.864V21.442h1.804v1.506h.034a3.217 3.217 0 0 1 2.891-1.6c2.305 0 3.824 1.816 3.824 4.622Zm-1.916 0c0-1.833-.95-3.038-2.4-3.038-1.423 0-2.38 1.23-2.38 3.038 0 1.824.957 3.046 2.38 3.046 1.45 0 2.4-1.197 2.4-3.046ZM65.307 25.97c0 2.813-1.51 4.62-3.789 4.62a3.085 3.085 0 0 1-2.856-1.583h-.043v4.484h-1.864V21.442h1.804v1.506h.034a3.217 3.217 0 0 1 2.891-1.6c2.304 0 3.823 1.816 3.823 4.622Zm-1.915 0c0-1.833-.95-3.038-2.4-3.038-1.423 0-2.381 1.23-2.381 3.038 0 1.824.958 3.046 2.382 3.046 1.449 0 2.399-1.197 2.399-3.046Z" clip-rule="evenodd"/><path fill="#333" d="M71.912 27.036c.138 1.232 1.337 2.04 2.977 2.04 1.57 0 2.7-.809 2.7-1.919 0-.964-.68-1.54-2.295-1.936l-1.614-.388c-2.286-.55-3.348-1.617-3.348-3.348 0-2.142 1.873-3.614 4.531-3.614 2.632 0 4.436 1.472 4.496 3.614h-1.88c-.114-1.239-1.14-1.987-2.642-1.987-1.501 0-2.529.757-2.529 1.858 0 .878.656 1.395 2.262 1.79l1.372.336c2.555.603 3.616 1.626 3.616 3.443 0 2.323-1.856 3.778-4.807 3.778-2.762 0-4.627-1.42-4.747-3.667h1.908ZM83.58 19.3v2.142h1.727v1.472H83.58v4.991c0 .776.346 1.137 1.105 1.137.205-.004.41-.018.613-.043v1.463a5.14 5.14 0 0 1-1.035.086c-1.838 0-2.555-.689-2.555-2.444v-5.19h-1.32v-1.472h1.32V19.3h1.872Z"/><path fill="#333" fill-rule="evenodd" d="M86.307 25.97c0-2.849 1.682-4.639 4.306-4.639 2.632 0 4.307 1.79 4.307 4.639 0 2.856-1.666 4.638-4.307 4.638-2.64 0-4.306-1.782-4.306-4.638Zm6.714 0c0-1.954-.898-3.108-2.408-3.108-1.51 0-2.407 1.162-2.407 3.108 0 1.962.897 3.106 2.407 3.106s2.408-1.144 2.408-3.106Z" clip-rule="evenodd"/><path fill="#333" d="M96.456 21.442h1.778v1.541h.043a2.16 2.16 0 0 1 2.183-1.635c.215-.001.429.022.639.069v1.738a2.613 2.613 0 0 0-.837-.112 1.884 1.884 0 0 0-1.86 1.286 1.867 1.867 0 0 0-.082.797v5.37h-1.864v-9.054Z"/><path fill="#333" fill-rule="evenodd" d="M109.691 27.837c-.25 1.643-1.855 2.771-3.909 2.771-2.641 0-4.281-1.764-4.281-4.595 0-2.84 1.649-4.682 4.203-4.682 2.512 0 4.091 1.72 4.091 4.466v.637h-6.412v.112a2.353 2.353 0 0 0 1.462 2.391c.311.127.645.186.98.173a2.06 2.06 0 0 0 2.097-1.273h1.769Zm-6.299-2.702h4.539a2.184 2.184 0 0 0-.61-1.634 2.194 2.194 0 0 0-1.617-.664 2.298 2.298 0 0 0-2.312 2.298Z" clip-rule="evenodd"/><path fill="#333" d="M37.642 11.253h-.8v.81h.825c.833 0 1.31.365 1.31.956 0 .583-.506.997-1.282.997-.775 0-1.301-.369-1.355-.94h-.892a1.979 1.979 0 0 0 1.456 1.715c.258.07.527.087.791.051a2.003 2.003 0 0 0 2-1.021c.128-.233.208-.489.235-.753a1.388 1.388 0 0 0-1.33-1.442v-.07a1.39 1.39 0 0 0 1.086-1.366c0-.946-.83-1.604-2.007-1.604a1.881 1.881 0 0 0-1.915 1.01c-.117.228-.184.479-.2.735h.879a1.064 1.064 0 0 1 1.207-.935c.704 0 1.12.356 1.12.906a1 1 0 0 1-1.129.951Z"/><path fill="#333" fill-rule="evenodd" d="M42.623 12.08c-1.073.066-1.68.534-1.68 1.344a1.358 1.358 0 0 0 .944 1.289c.18.058.372.079.562.059a1.523 1.523 0 0 0 1.356-.707h.07v.633h.86V11.62c0-.951-.639-1.513-1.771-1.513-1.024 0-1.755.496-1.846 1.27h.863c.1-.319.443-.501.94-.501.611 0 .925.268.925.744v.389l-1.223.07Zm1.223.583v.377a1.06 1.06 0 0 1-.747.942c-.136.042-.28.056-.422.042-.485 0-.837-.236-.837-.641 0-.397.282-.608.904-.65l1.102-.07Z" clip-rule="evenodd"/><path fill="#333" d="M47.1 14.698v-3.755h2.082v-.748h-2.974v4.503h.892Z"/><path fill="#333" fill-rule="evenodd" d="M52.717 14.772c1.14 0 1.866-.897 1.866-2.328 0-1.43-.726-2.324-1.875-2.324a1.572 1.572 0 0 0-1.418.819h-.066v-.744h-.858v6h.89v-2.18h.071a1.47 1.47 0 0 0 1.39.757Zm-.258-3.854c.755 0 1.207.575 1.207 1.526 0 .955-.452 1.53-1.21 1.53-.747 0-1.216-.587-1.216-1.526 0-.943.47-1.53 1.22-1.53Z" clip-rule="evenodd"/><path fill="#333" d="M55.77 15.545v.766c.083.012.294.02.369.02.92 0 1.347-.351 1.733-1.447l1.683-4.69h-.945l-1.128 3.577h-.07l-1.132-3.576h-.97l1.634 4.52-.067.219a.77.77 0 0 1-.817.628 2.125 2.125 0 0 1-.29-.017ZM61.137 13.42h-.887c.082.91.883 1.36 1.87 1.36 1.115 0 1.845-.566 1.845-1.422a1.008 1.008 0 0 0-.883-1.013v-.07a.928.928 0 0 0 .713-.923c0-.76-.614-1.244-1.688-1.244-.41-.056-.827.05-1.16.297a1.578 1.578 0 0 0-.619 1.022h.859c.058-.356.422-.567.92-.567.548 0 .813.253.813.583 0 .377-.274.583-.813.583h-.663v.69h.675c.63 0 .958.208.958.642 0 .405-.364.666-.958.666-.522 0-.895-.207-.982-.604ZM65.249 10.195v4.503h.883l2.085-3.114h.066v3.114h.884v-4.503h-.884l-2.08 3.097h-.071v-3.097h-.883ZM72.61 10.943h1.423v-.748h-3.736v.748h1.422v3.755h.892v-3.755Z"/><path fill="#333" fill-rule="evenodd" d="M78.092 14.487a1.83 1.83 0 0 0 .742-1.005h-.86a1.08 1.08 0 0 1-1.073.546 1.194 1.194 0 0 1-1.202-1.29v-.05h3.188v-.31c0-1.414-.759-2.27-2.015-2.27a2.085 2.085 0 0 0-2.01 1.473 2.072 2.072 0 0 0-.072.88 2.04 2.04 0 0 0 1.22 2.157c.273.118.568.175.866.167a1.84 1.84 0 0 0 1.216-.298Zm-.114-2.456h-2.28a1.149 1.149 0 0 1 1.17-1.167 1.094 1.094 0 0 1 1.05.721c.051.143.072.295.06.446ZM84.648 10.195h-2.036v4.503h2.056c.991 0 1.584-.513 1.584-1.299a1.026 1.026 0 0 0-.966-1.038v-.07a.971.971 0 0 0 .763-.951c0-.699-.518-1.145-1.401-1.145Zm-1.153 1.848v-1.166h.982c.473 0 .697.227.697.579 0 .38-.257.587-.796.587h-.883Zm0 1.973v-1.32h.945c.601 0 .92.211.92.662 0 .426-.281.658-.808.658h-1.057Z" clip-rule="evenodd"/><path fill="#333" d="M25.485 17.922a4.939 4.939 0 0 0-.647 2.379c.001.939.28 1.856.8 2.639a4.792 4.792 0 0 0 2.128 1.76 10.948 10.948 0 0 1-1.523 3.092c-.897 1.338-1.837 2.645-3.33 2.67-.71.016-1.189-.188-1.688-.4-.52-.221-1.064-.452-1.913-.452-.9 0-1.468.238-2.014.468-.473.198-.93.39-1.575.417-1.422.052-2.508-1.428-3.438-2.754-1.857-2.706-3.304-7.627-1.364-10.976a5.323 5.323 0 0 1 4.485-2.727c.806-.017 1.58.293 2.258.564.519.208.981.394 1.36.394.334 0 .784-.178 1.308-.386.826-.327 1.837-.727 2.867-.62a5.09 5.09 0 0 1 4.002 2.159 4.955 4.955 0 0 0-1.716 1.773ZM23.217 8.72a4.863 4.863 0 0 1-1.118 3.49 4.109 4.109 0 0 1-3.246 1.531A4.624 4.624 0 0 1 20 10.38a4.976 4.976 0 0 1 3.217-1.66Z"/></svg>