<svg width="84" height="28" fill="none" xmlns="http://www.w3.org/2000/svg"><path fill-rule="evenodd" clip-rule="evenodd" d="M43.377 8.563c-2.616 3.159 2.958 3.445 4.927-.37.53.08 1.465 2.574.972 2.77-2.35 1.597-5.523 1.533-6.739.833-.968-.373-3.214-2.834-.492-6.133 4.264-5.17 9.402-1.853 6.213 1.815-2.14 2.457-4.422 1.915-4.881 1.085Zm4.896-3.842c-1.692-1.025-4.734 3.093-3.87 3.653 1.704 1.105 4.993-2.972 3.87-3.653ZM16.87 12.87c1.166-4.923 1.017-5.191 2.585-10.508C19.66.64 25.612.3 25.378.838c-.696 1.608-3.34 3.785-4.153 6.968.207-.052 6.161-5.848 7.975-7.166 2.507-1.822 2.657.641.8 2.463-.186.3-1.085-.282-1.53.037-1.337.958-5.306 3.245-7.038 5.308.648 1.447 3.245.988 5.041-1.11.532-.188-.285 3.542-.92 3.984-3.603 1.851-4.121-1.729-4.55-2.493-.521 1.48-1.092 5.16-2.56 4.778-.673-.144-1.72-.106-1.572-.736Zm-5.379-1.72c.534 1.482-1.793 1.903-3.103 2.046-5.295.573-1.217-6.613-1.48-6.694-1.688.563-4.958 6.362-6.198 5.999-1.835-.146.458-10.367.501-10.41C1.713.983 6.337.256 6.204.718c1.04.304-3.439 7.732-2.622 7.972 1.549-2.11 4.64-4.598 6.192-4.143 1.876.55-1.662 6.599.219 7.149.537.158.813-.163 1.499-.547Zm4.706-2.925c1.921-4.801.937-5.842-.2-5.052-1.837 1.278-1.514 6.449.2 5.052Zm-.879-5.871c1.385-1.12 2.52.39 2.546 1.332.176 1.638-1.316 7.246-3.907 7.539-4.345.49-3.837-4.705 1.361-8.871ZM31.54 9.307c1.108-.432 2.31-6.625.41-5.228-1.837 1.278-3.064 6.828-.41 5.228Zm-.269-6.048c1.384-1.12 2.52.39 2.546 1.332.176 1.638-1.265 6.64-3.856 6.934-4.344.49-3.887-4.1 1.31-8.266Zm-2.756 12.684c-3.224.55-5.262-1.781-2.903-3.024 1.132-.515 3.167-.84 2.929-.098-.528 1.64-.439 1.757-.04 2.168 1.835.31 8.34-9.933 8.51-11.632.066-.636 2.317-.605 3.3-.492 1.708.366-.63 7.577-1.231 9.325-.347 1.01-2.41 1.523-3.347 1.366-.792-.134-.142-4.286.168-5.972-.934 2.87-6.418 8.194-7.386 8.36ZM60.7 2.778c.541.554-.227 7.775-.9 11.157-.239 1.294-5.408 3.145-4.963 1.585.495-1.38 1.769-7.668 2.002-8.653-1.663.499-1.487.687-3.041.882-.08.718-.655 3.515-.983 3.889-1.07 1.219-2.886.11-3.014-.43.104-1.16.412-2.413.697-3.35.222-.724 1.302-4.919 1.389-5.07.834-1.237 2.992-1.759 2.949-.722-.009.195-.95 4.06-.871 4.225.048.1.149.185.348.245.284.086 2.827-.766 2.933-.886.277-.31.337-1.454.97-2.12.92-.823 2.23-1.058 2.484-.752Zm10.826 7.675c.166 1.739-5.306 3.89-4.27 1.341.706-1.738 1.326-4.424 1.712-5.471-2.11 3.362-7.095 6.19-7.658 4.175-.231-.827-.077-1.203.119-2.534.127-.853.368-2.317 1.075-3.225.72-.74 2.607-1.257 3.421-1.018.532.83-1.782 5.118-1.624 5.73 1.174 1.449 4.09-3.654 4.685-4.252 1.024-1.028 2.645-1.14 3.421-1.056.686.201-.957 5.225-.88 6.31Zm3.55-1.89c-.727.879-.51 1.357-.201 1.628 1.7 1.158 4.744-.32 7.24-2.452.478-.475 1.845 2.548 1.302 2.72-2.351 1.596-7.152 2.037-9.586 1.312-1.349-.625-2.568-3.144-.087-6.108 4.447-5.017 9.403-1.853 6.213 1.815-2.139 2.457-4.421 1.915-4.88 1.085Zm4.897-3.842c-1.693-1.025-4.735 3.093-3.87 3.653 1.704 1.105 4.994-2.972 3.87-3.653Zm-32.08 17.048c-.9 1.348-2.272 2.309-4.503 2.309h-3.086c-.082 0-.082-.081-.05-.113l.813-.82c-1.138 0-1.788-.66-2.031-1.4-.016-.049-.05-.13.048-.13h3.461c.358 0 .618-.113.829-.29l2.75-2.276a23.983 23.983 0 0 0-3.715 3.985c-.034.048.006.11.055.11h1.641c1.073 0 2.469-.192 3.915-1.706.033-.032.06-.035.093-.02-.07.12-.143.237-.22.351Zm-.962 3.371c.245-.032.472-.08.667-.129l1.024 2.833h-.715l-.976-2.704Zm2.735-6.271a.26.26 0 0 0 .057-.288.261.261 0 0 0-.057-.085.558.558 0 0 1 0 .794.571.571 0 0 1-.925-.182.559.559 0 0 1 .123-.613.571.571 0 0 1 .802 0 .267.267 0 0 0-.454.187.263.263 0 0 0 .078.187.268.268 0 0 0 .376 0Zm-1.97 4.952c.91 0 1.612-.438 1.9-.886-.963 1.542-2.743 1.738-3.488 1.738l1.146 3.171h-.715l-1.248-3.46c-.017-.049-.003-.083.032-.097.504-.193.618-.257.975-.466h1.397Zm4.223-5.49c.082 0 .098.097.033.13l-1.056.482-.374-.16c-.049-.017-.065-.065-.016-.113l.276-.338h1.137Z" fill="#008F4C"/><path fill-rule="evenodd" clip-rule="evenodd" d="M43.047 20.907c-.162.145-.357.177-.584.177H41.21c1.284-3.074 2.389-5.344 2.681-5.955h3.46c.147.29.453.944.89 1.893-.707.199-1.231.614-2.088 1.311-.169-.416-.343-.83-.524-1.24-.357.756-.699 1.658-1.023 2.543l-1.56 1.271Zm-4.18 6.938a80.62 80.62 0 0 1 1.126-3.235h3.005l-1.044 3.235h-3.087Zm9.311-3.047c1.168-.561 1.668-1.104 2.196-2.185.634 1.61 1.317 3.364 1.95 5.232h-3.051l-1.095-3.047Zm1.416-1.863c-.288.448-.988.886-1.9.886h-1.398c1.04-.66 1.609-1.771 1.836-2.32.017-.03.012-.066-.02-.082-.033-.017-.06-.012-.093.02-1.447 1.513-2.844 1.706-3.915 1.706h-1.642c-.049 0-.089-.062-.055-.11 1.27-1.74 2.68-3.1 3.715-3.987.9-.769 1.516-1.184 1.516-1.184a2.573 2.573 0 0 1 1.437-.417c.91 0 1.527.548 1.706.885l-.277.338c-.048.048-.032.096.016.112l.375.162s-.337 2.45-1.3 3.992Zm-.732-3.644a.571.571 0 0 0 .925-.182.56.56 0 0 0-.524-.778.571.571 0 0 0-.523.347.559.559 0 0 0 .122.613Zm29.862 8.548v-2.91h-2.37v2.91H73.82v-7.72h2.532v2.832h2.37V20.12h2.517v7.72h-2.516Zm-9.58-7.88c1.77 0 2.712.225 3.54.483v7.398h-2.062l-.13-.852c-.438.627-1.234 1.013-2.388 1.013-1.882 0-2.856-1.126-2.856-3.732 0-2.782 1.38-4.31 3.896-4.31Zm1.007 5.516v-3.41a3.985 3.985 0 0 0-1.056-.112c-.81 0-1.217.74-1.217 2.22 0 1.206.373 1.834 1.056 1.834.616 0 .99-.274 1.217-.532Zm-8.005 1.513c-.552.578-1.234 1.013-2.468 1.013-1.038 0-1.753-.354-2.143-1.046-.568.595-1.282 1.046-2.516 1.046-1.705 0-2.516-.917-2.516-2.782v-5.1h2.516v4.761c0 .724.358 1.126 1.007 1.126.422 0 .925-.273 1.136-.53V20.12h2.516v4.76c0 .724.39 1.126 1.088 1.126.39 0 .844-.273 1.055-.53V20.12h2.533v7.72h-2.046l-.162-.852Z" fill="#E4151B"/></svg>