<svg width="280" height="413" fill="none" xmlns="http://www.w3.org/2000/svg"><g clip-path="url(#a)"><path fill="#D93F49" d="M256.025 283.076h185.49v108.913h-185.49z"/><g clip-path="url(#b)"><ellipse cx="105.11" cy="366.351" rx="47.574" ry="61.032" fill="#0C0C0C"/><ellipse cx="126.872" cy="366.351" rx="47.574" ry="61.032" fill="#A4AACD"/></g><g clip-path="url(#c)"><ellipse cx="300.969" cy="381.102" rx="48.855" ry="62.416" fill="#0C0C0C"/></g><path fill-rule="evenodd" clip-rule="evenodd" d="M136.13 149.172h323.432c15.82 0 28.644 12.824 28.644 28.644v185.633c0 15.82-12.824 28.644-28.644 28.644h-73.105a96.42 96.42 0 0 0 .639-11.116c0-41.336-26.121-74.846-58.342-74.846-32.221 0-58.341 33.51-58.341 74.846 0 3.777.218 7.489.639 11.116h-19.836l-207.37-8.14c-15.37-.603-27.52-13.239-27.52-28.622v-78.004a64.464 64.464 0 0 1 20.078-44.458l80.022-75.843a28.644 28.644 0 0 1 19.704-7.854Z" fill="#D93F49"/><path d="m267.32 151.24 3.092-2.068H148.346a10.17 10.17 0 0 0-4.654 1.128l-.14.072a47.107 47.107 0 0 0-8.124 5.308l-1.883 1.528-83.969 82.59a41.523 41.523 0 0 0-12.406 29.604 4.568 4.568 0 0 0 4.568 4.568h3.009a7.576 7.576 0 0 1 7.576 7.576v35.285a10.163 10.163 0 0 0 9.896 10.16l92.535 2.444c5.717.151 10.433-4.442 10.433-10.16v-35.141c0-5.614 4.55-10.164 10.164-10.164h15.299a7.014 7.014 0 0 0 7.014-7.014 51.6 51.6 0 0 1 7.996-27.593l44.839-70.866a58.213 58.213 0 0 1 16.821-17.257Z" fill="#2C3A99"/><g clip-path="url(#d)"><path d="M148.303 138.263 62.69 39.043a7.515 7.515 0 0 1-1.825-4.91 9.185 9.185 0 0 1 9.185-9.186h165.758c3.509 0 6.77 1.81 8.626 4.788l57.859 92.828 4.864 10.714a10.157 10.157 0 0 1 .254 7.792l-3.73 9.878H147.087l2.159-3.485a7.573 7.573 0 0 0-.943-9.199Z" fill="#D93F49"/><path d="m137.84 138.263-85.612-99.22a7.515 7.515 0 0 1-1.826-4.91 9.185 9.185 0 0 1 9.186-9.186h162.538c3.452 0 6.668 1.753 8.54 4.653l61.892 95.91a24.338 24.338 0 0 1 3.888 13.196 8.915 8.915 0 0 1-2.733 6.423l-5.391 5.188-151.698.63 2.16-3.485a7.573 7.573 0 0 0-.944-9.199Z" fill="#2C3A99"/><path d="M273.498 122.691 227.25 53.797a11.087 11.087 0 0 0-9.206-4.908H83.718c-3.185 0-4.879 3.76-2.768 6.145l29.12 32.915 32.575 38.089a2.772 2.772 0 0 0 2.107.971l126.444-.001c2.218 0 3.538-2.475 2.302-4.317Z" fill="#C3E1FF"/><path d="M155.231 127.05 96.096 58.446a7.825 7.825 0 0 0-6.592-2.682l-1.64.138a3.09 3.09 0 0 0-2.827 3.236l.02.388c.045.869.38 1.695.951 2.346l56.117 63.933a3.666 3.666 0 0 0 2.757 1.245h10.349Z" fill="#495BD7"/><path d="M50.243 28.383a9.24 9.24 0 0 1 7.19-3.436H237.16v9.45c-1.891-2.602-5.694-2.815-7.864-.44l-19.005 20.807a18.714 18.714 0 0 1-13.817 6.093H31.758c-3.107 0-4.828-3.6-2.876-6.018l21.361-26.456Z" fill="#D93F49"/></g><mask id="e" style="mask-type:alpha" maskUnits="userSpaceOnUse" x="-18" y="106" width="315" height="225"><path d="m257.157 158.68 39.626-52.278-279.445 6.463c-1.54.036-3.052.421-4.421 1.127l-.277.143a47.14 47.14 0 0 0-8.125 5.311l-.703.571a4.622 4.622 0 0 0-1.574 2.482l-18.167 73.802c-9.73 39.532 20.193 77.715 60.905 77.715a6.9 6.9 0 0 1 6.899 6.826l.397 37.394a10.163 10.163 0 0 0 8.872 9.973l4.376.561 89.318 2.115c5.706.135 10.404-4.454 10.404-10.162v-35.439c0-5.613 4.551-10.164 10.164-10.164h15.225a7.047 7.047 0 0 0 7.047-7.047 52.022 52.022 0 0 1 8.014-27.742l51.465-81.651Z" fill="#1D297B"/></mask><g mask="url(#e)"><path d="m91.326 166.604-12.686 1.16c1.23-1.85 2.073-4.578 2.13-8.084l6.427-.588s1.769 2.791 4.13 7.512Z" fill="#2858A1"/><path d="M94.561 191.329s9.435 20.746-2.888 43.724l-23.558 2.154c-16.24-20.364-10.68-42.483-10.68-42.483l37.126-3.395Z" fill="#FDE960"/><path d="m73.66 160.33 7.111-.651c-.057 3.507-.9 6.234-2.13 8.084-1.136 1.714-2.599 2.674-4.084 2.81l-1.185.108c-1.485.136-3.097-.543-4.522-2.021-1.54-1.598-2.859-4.128-3.542-7.566l8.354-.764h-.002Z" fill="#fff"/><path d="M68.853 168.666c1.425 1.479 3.037 2.157 4.522 2.022l1.185-.109c1.485-.136 2.948-1.095 4.08-2.807l12.69-1.161a129.14 129.14 0 0 1 5.248 11.989c-9.329 9.51-19.666 10.311-20.938 10.369-1.17.16-11.541 1.311-22.48-6.399.787-4.296 1.791-8.55 3.01-12.744l12.683-1.16Z" fill="#FDE960"/><path d="M65.314 161.093c.685 3.439 2.004 5.968 3.544 7.565l-12.687 1.16c1.476-5.071 2.715-8.137 2.715-8.137l6.428-.588ZM102.57 201.605c3.042 23.047-6.615 38.337-6.615 38.337l-31.176 2.851S52.54 229.506 51.4 206.285c-.414-8.466.465-16.682 1.76-23.703 10.944 7.711 21.314 6.56 22.484 6.4 1.277-.059 11.615-.856 20.941-10.372 2.537 6.671 4.875 14.592 5.985 22.995Zm-10.897 33.446c12.323-22.978 2.888-43.725 2.888-43.725l-37.127 3.396s-5.56 22.119 10.68 42.484l23.56-2.155ZM91.326 166.604c-2.36-4.721-4.13-7.512-4.13-7.512l-6.426.588c-.057 3.506-.9 6.234-2.13 8.084l12.686-1.16Z" fill="#F27E00"/><path d="M91.672 235.058c12.324-22.979 2.888-43.728 2.888-43.728l-18.566 1.697 3.897 43.109 11.78-1.078Z" fill="#FBC140"/><path d="M74.557 170.576c1.486-.136 2.95-1.096 4.081-2.808 1.235-1.852 2.077-4.58 2.134-8.087l-7.733.708.926 10.241.592-.054Z" fill="#DFDECA"/><path d="M96.577 178.602a129.135 129.135 0 0 0-5.25-11.991l-12.686 1.16c-1.136 1.714-2.599 2.673-4.084 2.809l-.593.054 1.658 18.342.011-.001c1.277-.06 11.62-.862 20.944-10.373Z" fill="#FBC140"/><path d="M96.586 178.608c-9.332 9.513-19.672 10.314-20.944 10.372l-.011.001.365 4.044 18.562-1.697s9.437 20.749-2.888 43.729l-11.78 1.077.473 5.24 15.59-1.426s9.662-15.292 6.615-38.341c-1.109-8.402-3.448-16.325-5.982-22.999Z" fill="#F27E00"/><path d="M98.754 109.159a53.907 53.907 0 0 1-3.94 34.275 53.758 53.758 0 0 1-24.927-23.836 21.723 21.723 0 0 0 16.587.748 21.749 21.749 0 0 0 12.28-11.187ZM98.544 222.057a83.735 83.735 0 0 1-11.719-38.799 83.835 83.835 0 0 1 7.871-39.775 83.656 83.656 0 0 1 47.201 62.895 36.588 36.588 0 0 0-24.451.142 36.629 36.629 0 0 0-18.912 15.512l.01.025Z" fill="#0069B4"/><path d="M98.552 222.07a36.62 36.62 0 0 1 18.912-15.512 36.582 36.582 0 0 1 24.449-.142 83.47 83.47 0 0 1-6.949 48.74 83.413 83.413 0 0 1-36.412-33.086Z" fill="#221657"/><path d="M120.154 231.06a5.663 5.663 0 0 1 3.224-7.327 5.655 5.655 0 0 1 7.325 3.218 5.662 5.662 0 0 1-3.224 7.326 5.655 5.655 0 0 1-7.325-3.217Z" fill="#0069B4"/><path d="m162.219 147.3 10.771 22.898-7.357 84.703-25.12-2.182-37.266-3.236 7.357-84.703 14.246-20.726.361-4.152c-.006-.733.501-2.153 2.577-1.973l32.49 2.822c.943-.022 2.475.404 2.302 2.397-.173 1.993-.209 3.607-.361 4.152Z" fill="#007020"/><path d="M173.085 170.312c-3.559-7.595-10.631-22.824-10.865-23.011l-14.35 20.716-7.357 84.703 25.224 2.191 7.348-84.599Z" fill="#007020"/><path d="m140.513 252.719 7.357-84.703-37.265-3.237-7.357 84.703 37.265 3.237Z" fill="#00963D"/><path d="m162.116 147.291-37.265-3.237-14.142 20.735 37.162 3.228 14.245-20.726Z" fill="#00963D"/><path d="m115.637 174.601 37.465 1.631c7.545.328 6.165 6.131 5.976 10.501-.179 4.114-3.765 2.568-4.02 8.452-.204 4.725 3.455 4.549 3.321 7.669a44357.62 44357.62 0 0 1-1.22 28.177s.259 7.101-6.725 6.797l-39.953-1.739c-2.722-.119-6.055-.84-5.773-7.342l1.2-27.698c.159-3.67 3.53-3.53 3.717-7.842.187-4.312-3.211-3.843-2.997-8.77.198-4.574.442-10.209 9.009-9.836Z" fill="#C7640F"/><path d="m109.814 174.348 37.626 1.638c7.577.33 6.192 6.133 6.003 10.503-.179 4.113-3.78 2.567-4.035 8.451-.205 4.725 3.47 4.55 3.336 7.67-.482 11.258-1.22 28.176-1.22 28.176s.261 7.102-6.753 6.797l-40.124-1.747c-2.733-.119-6.08-.841-5.8-7.343l1.201-27.698c.159-3.669 3.544-3.53 3.731-7.841.187-4.312-3.225-3.844-3.012-8.771.199-4.574.443-10.209 9.047-9.835Z" fill="#FFC075"/><ellipse rx="3.137" ry="3.141" transform="matrix(-.99905 -.0435 -.04328 .99906 134.545 217.925)" fill="#F27E00"/><ellipse rx="1.743" ry="1.745" transform="matrix(-.99905 -.0435 -.04328 .99906 144.002 225.089)" fill="#F27E00"/><ellipse rx="1.394" ry="1.396" transform="matrix(-.99905 -.0435 -.04328 .99906 146.797 200.875)" fill="#F27E00"/><path d="m105.526 167.795 37.42 2.476c7.536.499 6.026 6.269 5.738 10.634-.271 4.108-3.821 2.481-4.208 8.358-.311 4.72 3.351 4.626 3.148 7.742-.736 11.244-1.854 28.141-1.854 28.141s.1 7.106-6.876 6.644l-39.904-2.64c-2.719-.18-6.035-.977-5.607-7.47l1.822-27.664c.241-3.665 3.608-3.449 3.892-7.756.284-4.306-3.124-3.914-2.8-8.835.301-4.568.672-10.196 9.229-9.63Z" fill="#C7640F"/><path d="m99.712 167.409 37.581 2.487c7.568.501 6.053 6.271 5.765 10.636-.27 4.108-3.837 2.48-4.224 8.357-.31 4.719 3.368 4.627 3.164 7.743-.735 11.244-1.854 28.141-1.854 28.141s.103 7.106-6.903 6.642l-40.076-2.652c-2.73-.18-6.06-.978-5.633-7.471l1.822-27.664c.241-3.665 3.623-3.448 3.907-7.755.283-4.306-3.138-3.915-2.814-8.836.3-4.568.671-10.196 9.265-9.628Z" fill="#FFC075"/><ellipse rx="3.138" ry="3.141" transform="matrix(-.99782 -.06603 -.06572 .99784 123.458 211.532)" fill="#F27E00"/><ellipse rx="1.743" ry="1.745" transform="matrix(-.99782 -.06603 -.06572 .99784 132.755 218.909)" fill="#F27E00"/><path d="M91.579 200.331c.295.844.444 1.914.401 3.162-.261 7.675-10.763 19.713-14.554 19.581-.416-.015-1.098-.363-1.864-.992 2.182 2.53 4.208 4.221 5.179 4.255 3.837.135 14.292-11.905 14.553-19.58.082-3.747-1.34-5.509-3.715-6.426Z" fill="#9E0040"/><path d="M92.238 203.435c.043-1.248.12-2.039-.176-2.883-1.27-.726-2.105-.808-3.211-.939l-.048.045-6.889-.242-7.397-.259c-3.942.233-6.58 1.575-6.75 6.568-.167 4.901 4.179 11.858 8.054 16.298.812.631 1.448.977 1.864.992 3.838.134 14.292-11.905 14.553-19.58Z" fill="#DC000F"/><path d="M74.009 209.129a3.42 3.42 0 0 0 3.537-3.302 3.427 3.427 0 0 0-3.304-3.541 3.42 3.42 0 0 0-3.538 3.302 3.427 3.427 0 0 0 3.305 3.541Z" fill="#fff"/><path d="m89.826 191.738-5.476 3.14.615-5.857-3.211-.853-.39 11.466 6.89.242.047-.045 5.126-2.366a29.813 29.813 0 0 1-3.6-5.727Z" fill="#007020"/><path d="m78.264 188.789.17 5.885-5.022-3.417c-1.086 1.999-2.492 3.847-4.074 5.458l-.048.045 4.725 2.619 7.398.259.39-11.466-3.539.617Z" fill="#00963D"/><g clip-path="url(#f)"><path d="M179.144 148.317c-2.124.724-4.309-.226-5.182-2.299l-3.08-7.081-2.932 1.338c9.814 14.948 21.01 41.45.627 66.176-21.24 25.695-55.253 14.754-73.85 5.846l-1.257 1.783c8.892 13.23 23.538 22.468 40.775 23.88 27.833 2.206 54.114-19.109 57.758-46.771 2.139-16.14-2.914-31.525-12.859-42.872Z" fill="#F27E00"/><path d="M168.629 206.605c20.384-24.726 9.187-51.228-.627-66.177l-1.162.565 4.518 10.317-.304.103c.69 5.524.418 11.205-.664 16.994-5.225 25.998-28.835 44.71-55.497 43.459-6.032-.316-11.867-1.547-17.097-3.491l-3.018 4.076c18.597 8.909 52.611 19.849 73.851-5.846Z" fill="#FCD73F"/><path d="M182.978 143.611c-1.764 1.786-4.652 1.754-6.384.142l-6.419-5.943-2.467 2.704c17.139 11.098 41.031 33.614 31.094 68.668-10.435 36.579-50.182 39.996-73.648 39.182l-1.159 3.233c15.307 9.69 34.934 12.658 53.545 6.15 30.091-10.588 47.583-44.828 38.746-75.351-5.271-18.019-17.712-31.734-33.308-38.785Z" fill="#F27E00"/><path d="M199.407 208.701c9.937-35.054-13.955-57.57-31.095-68.668l-1.007 1.021 9.372 8.662-.252.256c3.224 5.507 5.588 11.476 7.146 18.058 6.652 29.573-9.646 59.851-37.758 70.781-6.421 2.525-12.9 3.885-19.436 4.079l-1.285 5.688c23.518.966 64.032-3.349 74.315-39.877Z" fill="#FCD73F"/></g><path d="M156.495 206.352c-3.396-10.892-14.845-17.094-25.885-13.917-11.041 3.177-17.46 14.52-14.569 25.558l.145.506.145.506c3.396 10.892 14.845 17.094 25.885 13.917 11.041-3.177 17.46-14.52 14.569-25.558l-.145-.506-.145-.506Zm-18.343-.017-.971 3.931-4.711-1.475 1.547 4.76-3.877 1.115-1.125-4.88-3.296 3.779-2.906-2.817 3.67-3.429-4.927-.957.971-3.931 4.795 1.45-1.631-4.735 3.877-1.115 1.041 4.905 3.32-3.695 2.906 2.816-3.67 3.43 4.987.848Z" fill="#F27E00"/><path d="m133.987 199.127-3.404 3.719-1.042-4.905-3.877 1.116 1.632 4.735-4.88-1.426-.971 3.932 4.951 1.04-3.67 3.43 2.882 2.732 3.404-3.719 1.126 4.881 3.877-1.116-1.547-4.759 4.711 1.475.972-3.932-4.952-1.041 3.67-3.43-2.882-2.732Z" fill="#007020"/><path d="M222.959 204.426c-.03.843-.267 1.834-.734 2.916-2.868 6.652-16.231 13.62-19.516 12.202-.361-.156-.84-.696-1.297-1.511 1.047 2.972 2.245 5.153 3.087 5.516 3.325 1.436 16.648-5.55 19.516-12.202 1.359-3.263.716-5.3-1.056-6.921Z" fill="#9E0040"/><path d="M222.472 207.378c.466-1.082.805-1.75.836-2.593-.865-1.074-1.572-1.432-2.498-1.928l-.058.023-5.968-2.578-6.41-2.768c-3.543-1.15-6.321-.876-8.187 3.452-1.832 4.247-.406 11.851 1.473 17.083.496.832.936 1.355 1.297 1.511 3.324 1.436 16.647-5.55 19.515-12.202Z" fill="#DC000F"/><path d="M205.065 206.206a3.227 3.227 0 0 0 4.243-1.686 3.233 3.233 0 0 0-1.686-4.246 3.227 3.227 0 0 0-4.243 1.686 3.231 3.231 0 0 0 1.686 4.246Z" fill="#fff"/><path d="m224.374 196.273-5.891.878 2.554-4.933-2.528-1.853-4.284 9.938 5.969 2.579.058-.023 5.316-.318a28.072 28.072 0 0 1-1.194-6.268Z" fill="#007020"/><path d="m215.229 189.711-1.874 5.228-3.237-4.726c-1.642 1.382-3.512 2.523-5.456 3.395l-.057.023 3.251 3.923 6.41 2.769 4.284-9.938-3.321-.674Z" fill="#00963D"/><path d="M172.517 209.157H41.671l9.473 153.002 121.791-8.115-.418-144.887Z" fill="#E9D3B7"/><path fill-rule="evenodd" clip-rule="evenodd" d="M80.555 234.99a.446.446 0 0 0 0 .639.45.45 0 0 0 .641 0 .446.446 0 0 0 0-.639.475.475 0 0 0-.64 0Z" fill="#fff"/><path fill-rule="evenodd" clip-rule="evenodd" d="M78.183 240.587c.128-.192.256-.396.372-.601-.052-.025-.103-.025-.154.039-2.462 2.593-4.835 2.913-6.656 2.913h-2.796c-.077 0-.153-.102-.09-.192 2.155-2.977 4.553-5.302 6.323-6.81l-4.68 3.897c-.36.307-.796.498-1.412.498h-5.886c-.167 0-.115.141-.077.218.41 1.264 1.513 2.389 3.45 2.389l-1.385 1.405c-.051.051-.051.192.077.192h5.258c3.796 0 6.117-1.636 7.656-3.948Zm-1.642 5.774 1.655 4.625h1.218l-1.744-4.843c-.32.077-.705.154-1.129.218Zm4.655-10.732a.45.45 0 0 1-.641 0 .446.446 0 0 1 0-.639.452.452 0 0 1 .641 0 .971.971 0 0 0-1.36 0 .962.962 0 0 0 0 1.355c.373.37.988.37 1.36 0a.962.962 0 0 0 0-1.355c.18.179.18.46 0 .639ZM77.85 244.1h-2.373c-.603.357-.795.472-1.654.792-.064.025-.077.076-.052.166l2.13 5.915h1.218l-1.975-5.417c1.27 0 4.296-.332 5.937-2.977-.5.767-1.693 1.521-3.231 1.521Zm7.181-9.391h-1.937l-.474.575c-.077.077-.051.166.026.192l.64.281 1.796-.831c.116-.051.077-.217-.051-.217Z" fill="#009656"/><path fill-rule="evenodd" clip-rule="evenodd" d="M112.513 251.253h.141c1.911-.026 3.232-.678 3.963-1.738l.218 1.456h3.501v-12.648c-1.411-.435-3.014-.831-6.015-.831-4.283 0-6.63 2.619-6.63 7.372 0 4.434 1.642 6.363 4.822 6.389Zm3.514-4.33c-.385.447-1.026.907-2.065.907-1.154 0-1.795-1.074-1.795-3.131 0-2.529.692-3.794 2.064-3.794.796 0 1.219.051 1.796.191v5.827Zm-13.607 2.592.282 1.457h3.476v-13.198h-4.309v9.161c-.359.447-1.129.907-1.796.907-1.192 0-1.846-.69-1.846-1.93v-8.138h-4.284v9.161c-.358.447-1.218.907-1.936.907-1.103 0-1.706-.69-1.706-1.93v-8.138h-4.283v8.713c0 3.194 1.385 4.753 4.284 4.753 2.103 0 3.308-.766 4.283-1.788.667 1.188 1.872 1.788 3.642 1.788 2.09.013 3.257-.741 4.193-1.725Zm-32.483-10.4 2.654-2.172c.552-1.507 1.129-3.053 1.745-4.344.307.69.59 1.38.884 2.121 1.462-1.188 2.347-1.903 3.553-2.236-.744-1.622-1.27-2.747-1.513-3.232h-5.887c-.5 1.048-2.372 4.932-4.565 10.183h2.129c.397-.013.73-.077 1-.32Zm-7.105 11.87h5.245l1.783-5.532h-5.117a147.693 147.693 0 0 0-1.911 5.532Zm15.838-5.212 1.86 5.212h5.193c-1.077-3.194-2.231-6.196-3.308-8.943-.91 1.84-1.757 2.772-3.745 3.731Zm2.41-3.182c1.642-2.632 2.206-6.822 2.206-6.822l-.64-.281c-.078-.026-.116-.115-.026-.192l.474-.575c-.308-.575-1.36-1.52-2.898-1.52-.924 0-1.719.242-2.437.715 0 0-1.051.716-2.578 2.032-1.756 1.52-4.154 3.845-6.322 6.81-.064.089.013.191.09.191h2.796c1.82 0 4.193-.332 6.655-2.913.052-.051.103-.064.154-.038.052.025.064.089.039.14-.385.933-1.36 2.837-3.117 3.961h2.36c1.552 0 2.745-.741 3.245-1.508Zm-1.243-6.235a.961.961 0 0 1 0-1.354.97.97 0 0 1 1.36 0 .961.961 0 0 1 0 1.354.971.971 0 0 1-1.36 0Zm50.771 14.616h4.283v-13.198h-4.283v4.842h-4.027v-4.842h-4.309v13.198h4.309v-4.983h4.027v4.983Z" fill="#E3000F"/><path d="m228.599 209.381-68.835-.245-.689 141.611 62.729-.231 6.795-141.135Z" fill="#BF9D73"/><path d="m204.582 348.034-29.533 2.687 12.833-22.831 16.7 20.144Z" fill="#327750"/></g><path fill-rule="evenodd" clip-rule="evenodd" d="m266.195 171.64-33.666 53.207a110.88 110.88 0 0 0-17.18 59.286v96.58c0 5.429 4.266 9.899 9.689 10.153l29.657 1.387h16.375a96.445 96.445 0 0 1-.658-11.276c0-41.336 26.12-74.846 58.342-74.846 32.221 0 58.341 33.51 58.341 74.846 0 3.833-.224 7.598-.658 11.276h156.875c5.613 0 10.164-4.55 10.164-10.164V159.336c0-5.614-4.551-10.164-10.164-10.164H288.097a75.803 75.803 0 0 0-21.902 22.468Z" fill="#A50611"/><path d="M16.29 331.405s85.951 2.555 146.823 3.465c44.9.672 67.051.834 75.585.873 2.284.011 4.007 2.065 3.634 4.319l-5.148 31.052s-14.32 2.024-23.799 1.182c-8.41-.748-164.526-6.26-199.614-7.493-4.406-.155-8.364-2.526-10.115-6.572-3.52-8.13-7.44-21.697 3.153-25.901 3.46-1.372 9.481-.925 9.481-.925Z" fill="#A4AACD"/><path d="m237.965 372.076 5.5-32.335c.384-2.257-1.343-4.316-3.632-4.316h-30.841c-14.264 0-5.823 36.059-.668 36.651 5.156.591 29.641 0 29.641 0Z" fill="#8489A6"/><rect x="19.746" y="283.283" width="26.452" height="28.975" rx="7.392" fill="#A50611"/><rect x="170.53" y="283.283" width="28.134" height="28.975" rx="7.392" fill="#A50611"/></g><defs><clipPath id="a"><path fill="#fff" d="M0 0h554v443.629H0z"/></clipPath><clipPath id="b"><path fill="#fff" transform="translate(57.61 305.211)" d="M0 0h113.782v121.996H0z"/></clipPath><clipPath id="c"><path fill="#fff" transform="translate(252.114 318.686)" d="M0 0h127.21v124.833H0z"/></clipPath><clipPath id="d"><path fill="#fff" transform="translate(24.023 24.947)" d="M0 0h289.212v124.74H0z"/></clipPath><clipPath id="f"><path fill="#fff" transform="matrix(-.94663 .32232 .32152 .9469 197.997 128.336)" d="M0 0h112.828v115.92H0z"/></clipPath></defs></svg>