<svg width="313" height="350" fill="none" xmlns="http://www.w3.org/2000/svg"><g clip-path="url(#a)"><path fill="#D93F49" d="M222.693 227.617h161.141v94.617H222.693z"/><g clip-path="url(#b)"><path fill="#0C0C0C" d="M92.754 347.092h14.739v5.888H92.754z"/><ellipse cx="91.588" cy="299.962" rx="41.329" ry="53.021" fill="#0C0C0C"/><ellipse cx="110.494" cy="299.962" rx="41.329" ry="53.021" fill="#A4AACD"/></g><g clip-path="url(#c)"><ellipse cx="261.737" cy="312.778" rx="42.442" ry="54.223" fill="#0C0C0C"/><path fill="#0C0C0C" d="M261.87 258.555h27.246v8.244H261.87z"/><ellipse cx="287.364" cy="312.778" rx="42.442" ry="54.223" fill="#A4AACD"/><ellipse cx="289.256" cy="312.777" rx="25.053" ry="33.874" fill="#0C0C0C"/></g><path fill-rule="evenodd" clip-rule="evenodd" d="M118.535 111.291h280.976c13.743 0 24.884 11.141 24.884 24.884v161.266c0 13.743-11.141 24.884-24.884 24.884h-63.509c.365-3.151.555-6.376.555-9.657 0-35.91-22.692-65.021-50.683-65.021-27.992 0-50.684 29.111-50.684 65.021 0 3.281.19 6.506.556 9.657h-17.232l-180.15-7.072c-13.352-.524-23.907-11.502-23.907-24.865v-67.765a56.006 56.006 0 0 1 17.442-38.622l69.518-65.887a24.886 24.886 0 0 1 17.118-6.823Z" fill="#D93F49"/><path d="m232.504 113.086 2.686-1.797H129.148a8.827 8.827 0 0 0-4.043.98l-.122.063a40.94 40.94 0 0 0-7.058 4.611l-1.635 1.327-72.947 71.749a36.071 36.071 0 0 0-10.777 25.718 3.968 3.968 0 0 0 3.968 3.968h2.614a6.582 6.582 0 0 1 6.582 6.582v30.653a8.83 8.83 0 0 0 8.596 8.826l80.389 2.124c4.966.131 9.063-3.859 9.063-8.827v-30.528a8.83 8.83 0 0 1 8.83-8.83h13.291a6.092 6.092 0 0 0 6.092-6.093c0-8.487 2.409-16.8 6.947-23.971l38.953-61.564a50.58 50.58 0 0 1 14.613-14.991Z" fill="#2C3A99"/><g clip-path="url(#d)"><path d="M129.111 101.815 54.736 15.619a6.53 6.53 0 0 1-1.586-4.266 7.98 7.98 0 0 1 7.98-7.98h144a8.83 8.83 0 0 1 7.493 4.16l50.264 80.643 4.226 9.307a8.83 8.83 0 0 1 .22 6.77l-3.24 8.581H128.054l1.876-3.028a6.579 6.579 0 0 0-.819-7.991Z" fill="#D93F49"/><path d="M120.022 101.815 45.647 15.619a6.529 6.529 0 0 1-1.585-4.266 7.98 7.98 0 0 1 7.98-7.98h141.201a8.832 8.832 0 0 1 7.42 4.043l53.767 83.32a21.142 21.142 0 0 1 3.378 11.463 7.742 7.742 0 0 1-2.375 5.581l-4.683 4.507-131.785.547 1.876-3.028a6.579 6.579 0 0 0-.819-7.991Z" fill="#2C3A99"/><path d="m237.871 88.285-40.177-59.851a9.633 9.633 0 0 0-7.998-4.264H73.003c-2.767 0-4.239 3.266-2.405 5.338l25.297 28.595 28.3 33.09a2.407 2.407 0 0 0 1.83.842h109.846c1.927 0 3.074-2.15 2-3.75Z" fill="#C3E1FF"/><path d="M135.13 92.073 83.758 32.474a6.798 6.798 0 0 0-5.727-2.33l-1.425.12a2.684 2.684 0 0 0-2.456 2.811l.018.337c.039.755.33 1.473.827 2.039l48.75 55.54a3.184 3.184 0 0 0 2.395 1.082h8.99Z" fill="#495BD7"/><path d="M43.923 6.358a8.027 8.027 0 0 1 6.245-2.985h156.135v8.21c-1.643-2.261-4.947-2.446-6.831-.383l-16.511 18.076a16.258 16.258 0 0 1-12.003 5.293H27.864c-2.7 0-4.194-3.128-2.498-5.228L43.922 6.358Z" fill="#D93F49"/></g><mask id="e" style="mask-type:alpha" maskUnits="userSpaceOnUse" x="-16" y="74" width="275" height="196"><path d="M223.676 119.552 258.1 74.137 15.337 79.75a8.829 8.829 0 0 0-3.84.979l-.241.124a40.939 40.939 0 0 0-7.058 4.614l-.611.497A4.013 4.013 0 0 0 2.22 88.12l-15.783 64.113c-8.453 34.343 17.542 67.514 52.91 67.514a5.994 5.994 0 0 1 5.994 5.93l.345 32.485a8.83 8.83 0 0 0 7.707 8.665l3.802.487 77.593 1.837c4.957.117 9.039-3.869 9.039-8.828v-30.787a8.83 8.83 0 0 1 8.829-8.83h13.227a6.122 6.122 0 0 0 6.122-6.122 45.198 45.198 0 0 1 6.961-24.1l44.71-70.933Z" fill="#1D297B"/></mask><g mask="url(#e)"><path d="m79.616 126.44-11.021 1.008c1.068-1.608 1.8-3.977 1.85-7.023l5.583-.511s1.537 2.425 3.588 6.526Z" fill="#2858A1"/><path d="M82.426 147.917s8.196 18.023-2.51 37.984l-20.465 1.872c-14.108-17.691-9.278-36.906-9.278-36.906l32.253-2.95Z" fill="#FDE960"/><path d="m64.27 120.989 6.178-.565c-.05 3.046-.782 5.415-1.85 7.022-.988 1.489-2.259 2.323-3.549 2.441l-1.03.094c-1.29.118-2.69-.471-3.928-1.756-1.338-1.388-2.484-3.585-3.077-6.573l7.258-.663h-.002Z" fill="#fff"/><path d="M60.092 128.229c1.237 1.285 2.638 1.874 3.928 1.756l1.03-.094c1.29-.118 2.56-.952 3.544-2.439l11.024-1.008a112.125 112.125 0 0 1 4.559 10.415c-8.104 8.262-17.084 8.957-18.19 9.008-1.016.139-10.025 1.139-19.528-5.559a112.138 112.138 0 0 1 2.614-11.071l11.019-1.008Z" fill="#FDE960"/><path d="M57.018 121.651c.595 2.987 1.74 5.185 3.079 6.572l-11.022 1.008c1.282-4.406 2.36-7.069 2.36-7.069l5.583-.511ZM89.383 156.844c2.643 20.022-5.746 33.305-5.746 33.305l-27.084 2.477S45.92 181.083 44.93 160.91c-.36-7.355.404-14.492 1.53-20.591 9.507 6.698 18.515 5.698 19.532 5.56 1.109-.052 10.09-.744 18.192-9.011 2.204 5.795 4.235 12.677 5.199 19.976ZM79.917 185.9c10.705-19.961 2.509-37.985 2.509-37.985l-32.254 2.95s-4.83 19.215 9.279 36.907l20.466-1.872ZM79.616 126.44c-2.051-4.101-3.588-6.526-3.588-6.526l-5.583.511c-.05 3.046-.782 5.415-1.85 7.023l11.02-1.008Z" fill="#F27E00"/><path d="M79.914 185.906c10.707-19.963 2.51-37.988 2.51-37.988l-16.13 1.475 3.386 37.449 10.234-.936Z" fill="#FBC140"/><path d="M65.047 129.889c1.29-.118 2.561-.952 3.545-2.439 1.072-1.609 1.804-3.979 1.854-7.025l-6.718.614.804 8.897.515-.047Z" fill="#DFDECA"/><path d="M84.176 136.86a112.261 112.261 0 0 0-4.56-10.417l-11.022 1.008c-.986 1.489-2.258 2.322-3.548 2.44l-.515.047 1.44 15.934.01-.001c1.11-.052 10.095-.748 18.195-9.011Z" fill="#FBC140"/><path d="M84.184 136.865c-8.106 8.264-17.089 8.96-18.194 9.011l-.01.001.317 3.512 16.126-1.474s8.197 18.025-2.51 37.989l-10.234.936.412 4.552 13.544-1.239s8.393-13.285 5.746-33.308c-.964-7.299-2.996-14.182-5.197-19.98Z" fill="#F27E00"/><path d="M86.068 76.534a46.835 46.835 0 0 1-3.422 29.776 46.7 46.7 0 0 1-21.655-20.707 18.87 18.87 0 0 0 14.41.65 18.893 18.893 0 0 0 10.667-9.72ZM85.887 174.613a72.748 72.748 0 0 1-10.18-33.706 72.83 72.83 0 0 1 6.837-34.554 72.672 72.672 0 0 1 41.005 54.639 31.783 31.783 0 0 0-21.241.124 31.816 31.816 0 0 0-16.43 13.476l.009.021Z" fill="#0069B4"/><path d="M85.893 174.624c3.77-6.242 9.57-11 16.429-13.476a31.78 31.78 0 0 1 21.24-.123 72.515 72.515 0 0 1-6.037 42.342 72.465 72.465 0 0 1-31.632-28.743Z" fill="#221657"/><path d="M104.658 182.433a4.92 4.92 0 0 1 2.801-6.365 4.912 4.912 0 0 1 6.363 2.795 4.919 4.919 0 0 1-2.8 6.365 4.913 4.913 0 0 1-6.364-2.795Z" fill="#0069B4"/><path d="m141.199 109.667 9.357 19.892-6.392 73.585-21.822-1.896-32.374-2.812 6.391-73.584 12.376-18.005.314-3.607c-.006-.636.435-1.87 2.238-1.714l28.225 2.452c.82-.02 2.151.35 2 2.082-.15 1.731-.181 3.134-.313 3.607Z" fill="#007020"/><path d="M150.637 129.657c-3.091-6.598-9.235-19.827-9.439-19.991l-12.466 17.998-6.391 73.584 21.913 1.903 6.383-73.494Z" fill="#007020"/><path d="m122.342 201.248 6.391-73.585-32.374-2.811-6.39 73.584 32.373 2.812Z" fill="#00963D"/><path d="m141.11 109.66-32.373-2.812-12.286 18.013 32.283 2.804 12.376-18.005Z" fill="#00963D"/><path d="m100.733 133.389 32.547 1.417c6.555.285 5.356 5.326 5.191 9.123-.155 3.573-3.27 2.23-3.491 7.342-.178 4.105 3.001 3.952 2.885 6.662-.42 9.781-1.061 24.478-1.061 24.478s.225 6.17-5.842 5.906l-34.708-1.511c-2.365-.103-5.26-.73-5.015-6.378l1.042-24.063c.138-3.187 3.067-3.066 3.229-6.812.162-3.746-2.79-3.338-2.604-7.619.172-3.974.384-8.869 7.827-8.545Z" fill="#C7640F"/><path d="m95.675 133.167 32.686 1.423c6.583.286 5.38 5.327 5.215 9.124-.154 3.573-3.283 2.23-3.505 7.342-.178 4.105 3.015 3.952 2.899 6.663-.419 9.78-1.061 24.477-1.061 24.477s.228 6.17-5.866 5.905l-34.857-1.518c-2.374-.103-5.282-.731-5.038-6.379l1.043-24.062c.138-3.188 3.079-3.066 3.241-6.812.162-3.746-2.802-3.339-2.616-7.62.172-3.973.384-8.868 7.859-8.543Z" fill="#FFC075"/><ellipse rx="2.726" ry="2.729" transform="matrix(-.99905 -.0435 -.04328 .99906 117.16 171.024)" fill="#F27E00"/><ellipse rx="1.514" ry="1.516" transform="matrix(-.99905 -.0435 -.04328 .99906 125.376 177.249)" fill="#F27E00"/><ellipse rx="1.211" ry="1.213" transform="matrix(-.99905 -.0435 -.04328 .99906 127.803 156.214)" fill="#F27E00"/><path d="m91.951 127.473 32.508 2.151c6.547.433 5.235 5.446 4.985 9.238-.235 3.569-3.319 2.156-3.656 7.261-.27 4.1 2.912 4.019 2.735 6.726-.639 9.768-1.61 24.447-1.61 24.447s.087 6.173-5.974 5.772l-34.666-2.294c-2.362-.156-5.242-.849-4.87-6.49l1.582-24.032c.21-3.184 3.135-2.997 3.381-6.738.247-3.741-2.713-3.4-2.432-7.675.262-3.969.584-8.858 8.017-8.366Z" fill="#C7640F"/><path d="m86.9 127.14 32.647 2.16c6.575.435 5.259 5.448 5.009 9.24-.235 3.568-3.333 2.155-3.669 7.26-.27 4.1 2.925 4.02 2.748 6.727-.639 9.768-1.61 24.447-1.61 24.447s.089 6.173-5.998 5.77l-34.814-2.304c-2.372-.157-5.266-.85-4.894-6.491l1.583-24.032c.21-3.184 3.147-2.996 3.394-6.737.246-3.741-2.727-3.401-2.445-7.677.261-3.968.583-8.857 8.05-8.363Z" fill="#FFC075"/><ellipse rx="2.726" ry="2.729" transform="matrix(-.99782 -.06603 -.06572 .99784 107.529 165.47)" fill="#F27E00"/><ellipse rx="1.514" ry="1.516" transform="matrix(-.99782 -.06603 -.06572 .99784 115.604 171.877)" fill="#F27E00"/><path d="M79.835 155.74c.257.732.386 1.662.35 2.746-.228 6.668-9.35 17.126-12.644 17.011-.361-.013-.954-.315-1.62-.861 1.896 2.197 3.656 3.666 4.5 3.696 3.333.117 12.415-10.343 12.642-17.01.071-3.255-1.163-4.786-3.228-5.582Z" fill="#9E0040"/><path d="M80.408 158.437c.037-1.084.103-1.771-.153-2.504-1.102-.631-1.829-.702-2.79-.816l-.041.039-5.985-.21-6.426-.225c-3.425.202-5.716 1.368-5.864 5.706-.145 4.257 3.63 10.301 6.997 14.158.705.548 1.258.849 1.62.861 3.333.117 12.415-10.342 12.642-17.009Z" fill="#DC000F"/><path d="M64.573 163.383a2.971 2.971 0 0 0 3.073-2.868 2.978 2.978 0 0 0-2.871-3.077 2.971 2.971 0 0 0-3.074 2.868 2.978 2.978 0 0 0 2.872 3.077Z" fill="#fff"/><path d="m78.314 148.273-4.758 2.728.535-5.088-2.79-.741-.338 9.961 5.985.21.041-.039 4.453-2.056a25.85 25.85 0 0 1-3.128-4.975Z" fill="#007020"/><path d="m68.27 145.712.147 5.112-4.363-2.968a21.42 21.42 0 0 1-3.539 4.742l-.041.039 4.105 2.275 6.426.226.339-9.961-3.075.535Z" fill="#00963D"/><g clip-path="url(#f)"><path d="M155.905 110.551c-1.846.629-3.743-.196-4.502-1.998l-2.676-6.15-2.547 1.161c8.526 12.987 18.253 36.01.545 57.49-18.452 22.322-48 12.817-64.156 5.078l-1.092 1.549c7.725 11.494 20.448 19.519 35.423 20.745 24.179 1.917 47.01-16.6 50.176-40.63 1.858-14.022-2.531-27.387-11.171-37.245Z" fill="#F27E00"/><path d="M146.77 161.187c17.708-21.48 7.981-44.504-.545-57.49l-1.009.491 3.924 8.962-.264.09c.6 4.799.364 9.734-.577 14.763-4.539 22.586-25.05 38.841-48.212 37.755-5.24-.275-10.309-1.344-14.853-3.034l-2.62 3.542c16.155 7.739 45.704 17.243 64.156-5.079Z" fill="#FCD73F"/><path d="M159.235 106.465c-1.532 1.552-4.041 1.524-5.546.124l-5.576-5.163-2.144 2.348c14.89 9.641 35.646 29.202 27.013 59.655-9.065 31.777-43.594 34.745-63.98 34.038l-1.007 2.809c13.298 8.418 30.348 10.996 46.516 5.343 26.141-9.198 41.337-38.944 33.66-65.46-4.579-15.654-15.387-27.568-28.936-33.694Z" fill="#F27E00"/><path d="M173.508 163.012c8.633-30.453-12.123-50.014-27.013-59.655l-.875.887 8.142 7.525-.219.222c2.801 4.784 4.855 9.97 6.208 15.688 5.779 25.691-8.379 51.994-32.802 61.489-5.578 2.195-11.206 3.376-16.884 3.544l-1.117 4.941c20.431.839 55.627-2.909 64.56-34.641Z" fill="#FCD73F"/></g><path d="M136.226 160.967c-2.951-9.462-12.897-14.85-22.488-12.09s-15.168 12.614-12.656 22.203l.126.44.126.439c2.95 9.463 12.896 14.85 22.487 12.09 9.592-2.76 15.168-12.614 12.657-22.203l-.126-.439-.126-.44Zm-15.935-.015-.844 3.415-4.092-1.281 1.343 4.135-3.368.969-.977-4.24-2.864 3.283-2.524-2.447 3.188-2.979-4.28-.831.844-3.416 4.165 1.261-1.417-4.114 3.368-.969.905 4.261 2.884-3.21 2.524 2.447-3.188 2.98 4.333.736Z" fill="#F27E00"/><path d="m116.673 154.691-2.957 3.231-.905-4.261-3.368.969 1.417 4.114-4.239-1.239-.844 3.415 4.302.904-3.188 2.98 2.503 2.374 2.958-3.231.977 4.24 3.369-.969-1.344-4.135 4.092 1.281.844-3.416-4.301-.903 3.188-2.98-2.504-2.374Z" fill="#007020"/><path d="M193.968 159.298c-.027.732-.233 1.593-.638 2.533-2.492 5.779-14.101 11.832-16.954 10.6-.314-.135-.731-.605-1.127-1.313.91 2.582 1.95 4.477 2.681 4.793 2.889 1.247 14.463-4.822 16.955-10.601 1.18-2.835.622-4.604-.917-6.012Z" fill="#9E0040"/><path d="M193.545 161.862c.405-.94.7-1.521.726-2.252-.752-.933-1.365-1.245-2.17-1.675l-.05.019-5.185-2.239-5.568-2.405c-3.078-.999-5.492-.761-7.113 2.999-1.591 3.69-.352 10.295 1.28 14.84.431.724.813 1.178 1.126 1.313 2.889 1.247 14.462-4.821 16.954-10.6Z" fill="#DC000F"/><path d="M178.422 160.843a2.803 2.803 0 0 0 3.686-1.464 2.808 2.808 0 0 0-1.464-3.689 2.804 2.804 0 0 0-3.686 1.464 2.807 2.807 0 0 0 1.464 3.689Z" fill="#fff"/><path d="m195.198 152.215-5.118.762 2.22-4.286-2.196-1.609-3.722 8.634 5.185 2.24.05-.02 4.619-.276a24.384 24.384 0 0 1-1.038-5.445Z" fill="#007020"/><path d="m187.253 146.514-1.627 4.542-2.813-4.106a20.283 20.283 0 0 1-4.739 2.95l-.05.019 2.824 3.409 5.568 2.405 3.722-8.634-2.885-.585Z" fill="#00963D"/><path d="M150.146 163.404H36.476l8.23 132.918 105.804-7.049-.364-125.869Z" fill="#E9D3B7"/><path fill-rule="evenodd" clip-rule="evenodd" d="M70.257 185.847a.386.386 0 0 0 0 .554.39.39 0 0 0 .557 0 .387.387 0 0 0 0-.554.411.411 0 0 0-.557 0Z" fill="#fff"/><path fill-rule="evenodd" clip-rule="evenodd" d="M68.196 190.708c.111-.167.223-.344.323-.522-.044-.022-.09-.022-.134.033-2.139 2.254-4.2 2.531-5.782 2.531h-2.428c-.067 0-.134-.089-.078-.166 1.871-2.587 3.955-4.607 5.492-5.916l-4.066 3.385c-.312.266-.691.433-1.226.433h-5.113c-.145 0-.1.122-.067.189.356 1.098 1.314 2.075 2.997 2.075l-1.204 1.221c-.044.044-.044.167.067.167h4.568c3.298 0 5.314-1.421 6.651-3.43Zm-1.426 5.016 1.437 4.018h1.059l-1.516-4.207c-.278.067-.612.133-.98.189Zm4.044-9.323a.392.392 0 0 1-.557 0 .388.388 0 0 1 0-.555.392.392 0 0 1 .557 0 .843.843 0 0 0-1.181 0 .836.836 0 0 0 0 1.177.843.843 0 0 0 1.18 0 .836.836 0 0 0 0-1.177c.157.156.157.4 0 .555Zm-2.907 7.359h-2.062c-.523.31-.69.41-1.437.688-.055.022-.067.066-.044.144l1.85 5.139h1.058l-1.716-4.706c1.103 0 3.732-.289 5.158-2.586-.434.666-1.47 1.321-2.808 1.321Zm6.238-8.158h-1.682l-.412.499c-.067.067-.045.144.022.167l.557.244 1.56-.722c.1-.044.067-.188-.045-.188Z" fill="#009656"/><path fill-rule="evenodd" clip-rule="evenodd" d="M98.02 199.974h.122c1.66-.022 2.808-.588 3.443-1.51l.189 1.266h3.042v-10.989c-1.226-.377-2.618-.721-5.225-.721-3.721 0-5.76 2.275-5.76 6.404 0 3.852 1.426 5.528 4.189 5.55Zm3.052-3.762c-.334.389-.891.788-1.793.788-1.003 0-1.56-.932-1.56-2.719 0-2.198.602-3.296 1.794-3.296.69 0 1.058.044 1.559.166v5.061Zm-11.82 2.253.245 1.265h3.02v-11.466h-3.744v7.959c-.312.388-.98.788-1.56.788-1.036 0-1.604-.6-1.604-1.676v-7.071h-3.721v7.959c-.312.388-1.059.788-1.682.788-.959 0-1.482-.6-1.482-1.676v-7.071h-3.721v7.57c0 2.775 1.203 4.129 3.72 4.129 1.828 0 2.875-.666 3.722-1.554.58 1.033 1.627 1.554 3.164 1.554 1.816.011 2.83-.644 3.643-1.498Zm-28.22-9.035 2.307-1.887c.479-1.31.98-2.653 1.515-3.774.267.6.512 1.199.769 1.843 1.27-1.032 2.038-1.654 3.085-1.943a119.15 119.15 0 0 0-1.314-2.808H62.28c-.434.91-2.06 4.285-3.966 8.847h1.85c.345-.012.635-.067.868-.278Zm-6.172 10.311h4.557l1.548-4.806H56.52a128.579 128.579 0 0 0-1.66 4.806Zm13.76-4.528 1.615 4.529h4.512c-.936-2.775-1.939-5.383-2.875-7.77-.79 1.599-1.526 2.409-3.253 3.241Zm2.093-2.763c1.427-2.287 1.917-5.927 1.917-5.927l-.557-.245c-.067-.022-.1-.099-.023-.166l.413-.5c-.268-.499-1.181-1.32-2.518-1.32-.802 0-1.493.211-2.117.621 0 0-.913.622-2.24 1.765-1.525 1.321-3.609 3.341-5.492 5.916-.055.078.012.167.078.167h2.429c1.582 0 3.643-.289 5.782-2.531.045-.045.09-.056.134-.033.044.022.055.077.033.122-.334.81-1.18 2.464-2.707 3.44h2.05c1.348 0 2.384-.643 2.819-1.309Zm-1.08-5.417a.836.836 0 0 1 0-1.177.843.843 0 0 1 1.18 0 .836.836 0 0 1 0 1.177.843.843 0 0 1-1.18 0Zm44.106 12.697h3.721v-11.466h-3.721v4.207h-3.498v-4.207h-3.743v11.466h3.743v-4.329h3.498v4.329Z" fill="#E3000F"/><path d="m198.867 163.599-59.798-.213-.599 123.022 54.495-.2 5.902-122.609Z" fill="#BF9D73"/><path d="m178.003 284.053-25.656 2.334 11.149-19.835 14.507 17.501Z" fill="#327750"/></g><path fill-rule="evenodd" clip-rule="evenodd" d="m231.528 130.81-29.246 46.223a96.322 96.322 0 0 0-14.926 51.503v83.902a8.83 8.83 0 0 0 8.418 8.82l25.764 1.206h14.226a83.6 83.6 0 0 1-.572-9.796c0-35.91 22.692-65.021 50.684-65.021 27.991 0 50.683 29.111 50.683 65.021a83.6 83.6 0 0 1-.572 9.796h136.282a8.83 8.83 0 0 0 8.829-8.83V120.121a8.83 8.83 0 0 0-8.829-8.83H250.555a65.86 65.86 0 0 0-19.027 19.519Z" fill="#A50611"/><path d="M289.501 132.435a16.052 16.052 0 0 1 14.664-9.521h83.497l33.884 80.005H293.954c-16.854 0-28.122-17.356-21.263-32.752l16.81-37.732Z" fill="#C3E1FF"/><path d="M14.428 269.604s74.668 2.22 127.55 3.011c39.006.583 58.249.724 65.662.758a3.218 3.218 0 0 1 3.157 3.752l-4.471 26.975s-12.441 1.759-20.675 1.027c-7.307-.649-142.93-5.438-173.412-6.509-3.827-.135-7.265-2.194-8.787-5.709-3.058-7.063-6.464-18.849 2.739-22.501 3.005-1.192 8.237-.804 8.237-.804Z" fill="#A4AACD"/><path d="m207.003 304.932 4.778-28.09a3.205 3.205 0 0 0-3.156-3.75l-26.792.001c-12.392 0-5.059 31.326-.58 31.839 4.479.514 25.75 0 25.75 0Z" fill="#8489A6"/><rect x="17.429" y="227.797" width="22.98" height="25.172" rx="6.422" fill="#A50611"/><rect x="148.421" y="227.797" width="24.441" height="25.172" rx="6.422" fill="#A50611"/></g><defs><clipPath id="a"><path fill="#fff" transform="translate(.275 -48)" d="M0 0h480.822v415H0z"/></clipPath><clipPath id="b"><path fill="#fff" transform="translate(50.324 246.846)" d="M0 0h98.846v105.982H0z"/></clipPath><clipPath id="c"><path fill="#fff" transform="translate(219.295 258.555)" d="M0 0h110.512v108.447H0z"/></clipPath><clipPath id="d"><path fill="#fff" transform="translate(21.145 3.373)" d="M0 0h251.248v108.366H0z"/></clipPath><clipPath id="f"><path fill="#fff" transform="matrix(-.94663 .32232 .32152 .9469 172.283 93.193)" d="M0 0h98.018v100.703H0z"/></clipPath></defs></svg>