<svg xmlns="http://www.w3.org/2000/svg" width="118" height="83" fill="none"><path fill="#EF7D00" d="M103.176 0c-7.732 0-14 6.268-14 14h28c0-7.732-6.268-14-14-14ZM103.176 28c7.732 0 14-6.268 14-14h-28c0 7.732 6.268 14 14 14Z"/><circle cx="101.426" cy="12.25" r="12.25" fill="#FFDA44"/><path fill="#fff" fill-rule="evenodd" d="M110.392 6.783a10.45 10.45 0 0 0-5.466-1.533c-5.8 0-10.5 4.701-10.5 10.5 0 2.003.56 3.874 1.533 5.467a10.494 10.494 0 0 1-5.033-8.967c0-5.799 4.7-10.5 10.5-10.5 3.796 0 7.122 2.015 8.966 5.033Z" clip-rule="evenodd"/><path fill="#00963D" d="M24.602 47.031C32.42 36.16 40.97 27.486 47.934 21.011l-16.37 13.682c-1.71 1.222-3.542 2.077-5.985 2.077H.415c-.611 0-.367.61-.367.977 1.71 5.375 6.597 10.383 14.903 10.383l-5.985 5.986c-.245.245-.245.855.366.855H31.81c16.125 0 26.264-6.963 32.616-16.98.61-.855.977-1.71 1.71-2.687-.244-.244-.367 0-.61.244C55.018 46.665 44.88 48.001 37.061 48.001l-11.972.13c-.366 0-.488-.245-.488-.611-.122-.245-.122-.367 0-.489ZM83.725 16.004l2.688 1.221 7.695-3.542c.611-.245.367-.978-.244-.978h-8.306L83.48 15.15c-.244.366-.244.61.244.855ZM77.126 46.541c-2.321 3.299-7.452 6.597-14.048 6.597h-10.14c-2.687 1.71-3.542 2.077-6.962 3.543-.245 0-.367.366-.245.61l9.04 25.409h5.13l-8.306-23.332c5.497 0 18.446-1.466 25.53-12.827Z"/><path fill="#00963D" d="m57.46 62.79 6.964 19.788h5.13L62.104 61.69c-1.1.488-2.81.733-4.642 1.1ZM77.497 13.927c.61.855.61 1.832 0 2.687-.366.367-.855.611-1.344.611-.488 0-.977-.122-1.343-.61-.367-.367-.611-.856-.611-1.344 0-.489.122-.978.61-1.344.367-.367.856-.61 1.344-.61.245 0 .489 0 .733.121-.733-.488-1.466-.733-2.32-.733-.978 0-2.077.367-2.933 1.222-1.221 1.344-1.465 3.176-.732 4.764l.122.122c0 .122.122.244.244.367.122.244.244.366.489.61.855.855 1.832 1.222 2.931 1.222.978 0 2.077-.367 2.932-1.222.733-.855 1.1-1.832 1.222-2.931-.245-1.1-.611-2.2-1.344-2.932Z"/><path fill="#DC000F" d="M83.744 15.987c-.367-.244-.367-.367-.245-.855l2.077-2.443c-1.221-2.443-5.741-6.597-12.46-6.597-3.909 0-7.451.978-10.505 3.054 0 0-4.52 3.054-10.994 8.673a44.644 44.644 0 0 0-3.665 3.299c-7.085 6.474-15.514 15.27-23.454 26.141-.122.122-.122.244 0 .367 0 .244.244.366.488.366L37 48.001c7.818 0 18.037-1.475 28.543-12.591.244-.244.366-.244.61-.244.245.244.245.366.245.61C64.688 39.93 60.656 47.992 52.96 53H63.1c6.84 0 11.848-3.053 13.925-6.474 7.085-11.36 9.528-29.44 9.528-29.44l-2.81-1.1Zm-6.23 3.665c-.855.855-1.832 1.221-2.932 1.221-1.1 0-2.199-.366-2.932-1.221-.122-.123-.366-.367-.488-.611-.123-.122-.123-.244-.245-.367l-.122-.122c-.855-1.588-.61-3.42.733-4.764.855-.855 1.832-1.221 2.932-1.221.977 0 1.832.244 2.565.855l.367.366c.733.855 1.1 1.832 1.221 2.932.122 1.1-.244 2.199-1.1 2.932Z"/></svg>