<svg width="214" height="216" fill="none" xmlns="http://www.w3.org/2000/svg"><path d="M107 .598C40.413.598.844 42.822.844 94.906c0 42.504 26.359 78.43 72.24 90.213-2.451 11.035-7.012 21.014-13.177 29.188a.496.496 0 0 0 .334.795c1.79.197 3.61.301 5.458.301 19.307 0 35.668-10.991 41.301-26.19 66.586 0 106.156-42.222 106.156-94.306 0-52.085-39.57-94.31-106.156-94.31Z" fill="#E30613"/><path d="M136.655 100.743c7.071-11.417 9.54-29.556 9.54-29.556l7.745-3.573c.476-.245.356-.958-.245-.958h-8.339c-1.31-2.501-5.848-6.552-12.516-6.552-3.966 0-7.425 1.058-10.542 3.087 0 0-4.526 3.073-11.117 8.773L91.01 88.822c-1.551 1.312-3.461 2.15-6.077 2.15H59.546c-.713 0-.484.594-.364.952 1.786 5.48 6.558 10.366 14.9 10.366l-5.955 6.08c-.246.237-.246.837.357.837h22.642c16.373 0 26.43-7.118 33.047-17.095a56.299 56.299 0 0 0 1.601-2.6c.239.116.276.385.153.622-1.674 4.055-5.839 12.278-13.461 17.163-2.626 1.551-3.457 2.025-7.149 3.461-.273.102-.364.355-.251.712l9.16 25.624h5.248l-8.405-23.48c5.461 0 18.514-1.454 25.586-12.871Zm-5.365-32.868a4.137 4.137 0 0 1 5.022-.642 2.411 2.411 0 0 0-.586-.088 2.344 2.344 0 1 0 0 4.688 2.342 2.342 0 0 0 2.329-2.342c0-.112-.01-.23-.034-.347.667 1.525.394 3.362-.856 4.607a4.143 4.143 0 0 1-5.875 0 4.132 4.132 0 0 1 0-5.876Z" fill="#fff"/><path d="m117.105 117.07 7.15 20.026h5.244L122 116.12a44.49 44.49 0 0 1-4.895.95ZM88.62 85.725l11.442-9.416c2.388-6.55 4.889-13.23 7.504-18.834 1.318 2.982 2.532 5.972 3.844 9.187 6.289-5.159 10.13-8.238 15.322-9.708-3.211-7.036-5.454-11.87-6.524-14.013H94.82c-2.142 4.528-10.256 21.33-19.67 44.093h9.181c1.669 0 3.097-.234 4.29-1.309ZM59.05 137.097h22.645l7.662-23.96H67.313c-2.626 7.152-5.402 15.02-8.264 23.96ZM142.375 98.358c-3.875 7.999-7.546 12.021-16.115 16.175l8.026 22.562h22.39c-4.65-13.825-9.655-26.82-14.301-38.737Z" fill="#fff"/></svg>