<svg width="95" height="77" fill="none" xmlns="http://www.w3.org/2000/svg"><path d="M24.602 41.031C32.42 30.16 40.97 21.486 47.934 15.011l-16.37 13.682c-1.71 1.222-3.542 2.077-5.985 2.077H.415c-.611 0-.367.61-.367.977 1.71 5.375 6.597 10.383 14.903 10.383l-5.985 5.986c-.245.245-.245.855.366.855H31.81c16.125 0 26.264-6.963 32.616-16.98.61-.855.977-1.71 1.71-2.687-.244-.244-.367 0-.61.244C55.018 40.665 44.88 42.001 37.061 42.001l-11.972.13c-.366 0-.488-.245-.488-.611-.122-.245-.122-.367 0-.489ZM83.724 10.003l2.688 1.222 7.695-3.543c.611-.244.367-.977-.244-.977h-8.306L83.48 9.148c-.245.367-.245.611.244.855ZM77.126 40.541c-2.321 3.299-7.452 6.597-14.048 6.597h-10.14c-2.687 1.71-3.542 2.077-6.962 3.543-.245 0-.367.366-.245.61l9.04 25.409h5.13l-8.306-23.332c5.497 0 18.446-1.466 25.53-12.827Z" fill="#00963D"/><path d="m57.461 56.789 6.963 19.79h5.13l-7.45-20.89c-1.1.49-2.81.733-4.643 1.1ZM77.497 7.927c.61.855.61 1.832 0 2.687-.367.367-.855.61-1.344.61-.489 0-.977-.121-1.344-.61-.366-.366-.61-.855-.61-1.344 0-.488.122-.977.61-1.343.367-.367.856-.611 1.344-.611.244 0 .489 0 .733.122-.733-.489-1.466-.733-2.32-.733-.978 0-2.078.367-2.933 1.222-1.221 1.343-1.465 3.176-.733 4.764l.123.122c0 .122.122.244.244.366.122.245.244.367.489.611.855.855 1.832 1.222 2.931 1.222.978 0 2.077-.367 2.932-1.222.733-.855 1.1-1.832 1.222-2.932-.245-1.099-.611-2.198-1.344-2.931Z" fill="#00963D"/><path d="M83.744 9.987c-.367-.244-.367-.367-.245-.855l2.077-2.443C84.355 4.246 79.835.092 73.116.092c-3.909 0-7.451.978-10.505 3.054 0 0-4.52 3.054-10.994 8.673a44.644 44.644 0 0 0-3.665 3.298c-7.085 6.475-15.514 15.27-23.454 26.142-.122.122-.122.244 0 .367 0 .244.244.366.488.366L37 42.001c7.818 0 18.037-1.475 28.543-12.591.244-.244.366-.244.61-.244.245.244.245.366.245.61C64.688 33.93 60.656 41.992 52.96 47H63.1c6.84 0 11.848-3.053 13.925-6.474 7.085-11.36 9.528-29.44 9.528-29.44l-2.81-1.1Zm-6.23 3.665c-.855.855-1.832 1.221-2.932 1.221-1.1 0-2.199-.366-2.932-1.221-.122-.122-.366-.367-.488-.611-.123-.122-.123-.244-.245-.367l-.122-.122c-.855-1.588-.61-3.42.733-4.764.855-.855 1.832-1.221 2.932-1.221.977 0 1.832.244 2.565.855l.367.366c.733.855 1.1 1.832 1.221 2.932.122 1.1-.244 2.199-1.1 2.932Z" fill="#DC000F"/></svg>