<svg width="124" height="86" fill="none" xmlns="http://www.w3.org/2000/svg"><path d="M121.53 20.095c1.152 2.583 1.727 3.874 1.283 5.034-.445 1.16-1.737 1.736-4.319 2.887l-14.616 6.516c-2.583 1.152-3.874 1.727-5.035 1.283-1.16-.445-1.735-1.736-2.887-4.32l-5.05-11.328c-1.842-4.132-2.763-6.199-2.052-8.055.712-1.856 2.778-2.777 6.91-4.62l11.329-5.05c2.583-1.15 3.874-1.727 5.034-1.282 1.16.445 1.736 1.736 2.887 4.32l6.516 14.615Z" fill="#187228"/><path d="M122.019 21.19c.921 2.067 1.381 3.1 1.026 4.028-.356.928-1.389 1.389-3.456 2.31l-13.61 6.068c-2.067.92-3.1 1.381-4.028 1.026-.928-.356-1.388-1.39-2.31-3.456l-4.113-9.227c-1.842-4.133-2.764-6.199-2.052-8.055.712-1.856 2.778-2.777 6.91-4.62l9.228-4.113c2.066-.921 3.099-1.382 4.027-1.026.928.356 1.389 1.389 2.31 3.455l6.068 13.61Z" fill="#0F9A40"/><path fill-rule="evenodd" clip-rule="evenodd" d="m97.322 25.96-2.28-5.117c-1.612-3.616-2.418-5.424-1.796-7.048.623-1.624 2.43-2.43 6.047-4.042l5.116-2.28c-1.772 4.62 2.85 6.393 1.079 11.014-1.772 4.622-6.394 2.85-8.166 7.472Z" fill="url(#a)"/><path fill-rule="evenodd" clip-rule="evenodd" d="m97.322 25.96-2.28-5.117c-1.612-3.616-2.418-5.424-1.796-7.048.623-1.624 2.43-2.43 6.047-4.042l5.116-2.28c-1.772 4.62 2.85 6.393 1.079 11.014-1.772 4.622-6.394 2.85-8.166 7.472Z" fill="#fff"/><path d="M24.602 50.03C32.42 39.16 40.97 30.487 47.934 24.013l-16.37 13.681c-1.71 1.222-3.542 2.077-5.985 2.077H.415c-.611 0-.367.61-.367.977 1.71 5.375 6.597 10.383 14.903 10.383l-5.985 5.986c-.245.244-.245.855.366.855H31.81c16.125 0 26.264-6.963 32.616-16.98.61-.855.977-1.71 1.71-2.687-.244-.244-.367 0-.61.244C55.018 49.664 44.88 51.001 37.061 51.001l-11.972.13c-.366 0-.488-.245-.488-.611-.122-.245-.122-.367 0-.49ZM83.725 19.003l2.688 1.222 7.695-3.543c.611-.244.367-.977-.244-.977h-8.306l-2.077 2.443c-.244.367-.244.611.244.855ZM77.126 49.541c-2.321 3.299-7.452 6.597-14.048 6.597h-10.14c-2.687 1.71-3.542 2.077-6.962 3.542-.245 0-.367.367-.245.611l9.04 25.409h5.13l-8.306-23.332c5.497 0 18.446-1.466 25.53-12.827Z" fill="#00963D"/><path d="m57.46 65.789 6.964 19.79h5.13l-7.451-20.89c-1.1.49-2.81.733-4.642 1.1ZM77.497 16.927c.61.855.61 1.832 0 2.687-.366.367-.855.61-1.344.61-.488 0-.977-.121-1.343-.61-.367-.366-.611-.855-.611-1.344 0-.488.122-.977.61-1.343.367-.367.856-.611 1.344-.611.245 0 .489 0 .733.122-.733-.488-1.466-.733-2.32-.733-.978 0-2.077.367-2.933 1.222-1.221 1.343-1.465 3.176-.732 4.764l.122.122c0 .122.122.244.244.366.122.245.244.367.489.611.855.855 1.832 1.222 2.931 1.222.978 0 2.077-.367 2.932-1.222.733-.855 1.1-1.832 1.222-2.931-.245-1.1-.611-2.2-1.344-2.932Z" fill="#00963D"/><path d="M83.744 18.987c-.367-.244-.367-.367-.245-.855l2.077-2.443c-1.221-2.444-5.741-6.597-12.46-6.597-3.909 0-7.451.977-10.505 3.054 0 0-4.52 3.054-10.994 8.673a44.626 44.626 0 0 0-3.665 3.298c-7.085 6.475-15.514 15.27-23.454 26.142-.122.122-.122.244 0 .366 0 .245.244.367.488.367L37 51c7.818 0 18.037-1.474 28.543-12.59.244-.245.366-.245.61-.245.245.245.245.367.245.611C64.688 42.93 60.656 50.992 52.96 56H63.1c6.84 0 11.848-3.054 13.925-6.474 7.085-11.36 9.528-29.44 9.528-29.44l-2.81-1.1Zm-6.23 3.665c-.855.855-1.832 1.221-2.932 1.221-1.1 0-2.199-.366-2.932-1.222-.122-.122-.366-.366-.488-.61-.123-.122-.123-.245-.245-.367l-.122-.122c-.855-1.588-.61-3.42.733-4.764.855-.855 1.832-1.222 2.932-1.222.977 0 1.832.245 2.565.856l.367.366c.733.855 1.1 1.832 1.221 2.932.122 1.1-.244 2.199-1.1 2.931Z" fill="#DC000F"/><defs><linearGradient id="a" x1="96.855" y1="17.804" x2="101.831" y2="19.939" gradientUnits="userSpaceOnUse"><stop stop-color="#DFF1E6"/><stop offset="1" stop-color="#fff"/></linearGradient></defs></svg>