<svg width="17" height="16" viewBox="0 0 17 16" fill="none" xmlns="http://www.w3.org/2000/svg">
<g clip-path="url(#clip0)">
<g filter="url(#filter0_i)">
<path d="M11.377 14.8673C10.4717 15.3995 9.10065 15.9579 7.39506 15.9579C4.7973 15.9579 3.05891 14.3067 2.51443 13.4811C2.53192 13.5074 2.5879 13.5599 2.67187 13.5599C2.77683 13.5599 2.77683 13.468 2.77683 13.3628C2.77683 13.2577 2.77683 13.192 2.60627 12.6467C2.43571 12.1014 1.86499 11.2671 1.86499 9.56545C1.86499 8.20418 2.82275 7.15431 3.30163 6.79954C3.28851 6.90685 3.26227 7.18585 3.26227 7.44338C3.26227 7.76531 3.45907 8.73108 4.02979 8.73108C4.6005 8.73108 4.73826 7.60106 4.73826 7.23972C4.73826 6.87838 4.78418 6.16226 5.11218 5.34102C5.37458 4.68404 5.87314 3.9723 6.08962 3.69855C6.13117 3.72045 6.28117 3.76425 6.54882 3.76425C7.38194 3.76425 7.43442 2.41743 7.43442 1.95097C7.43442 1.48451 7.36882 1.03775 7.18514 0.0785522C7.77554 0.393906 9.63857 1.6816 10.6291 2.62766C11.6197 3.57373 11.8952 4.65776 11.8952 5.38701C11.8952 6.11627 11.7115 6.54331 11.7115 7.02948C11.7115 7.51565 11.9608 7.75874 12.2888 7.75874C12.6168 7.75874 13.0301 7.50908 13.0301 6.54331C13.5614 7.35798 14.1715 8.51427 14.1715 10.0451C14.1715 11.5758 13.2859 12.765 12.8333 13.1789C12.3806 13.5928 12.3347 13.7045 12.3347 13.7636C12.3347 13.8227 12.3938 13.849 12.5774 13.849C12.7244 13.849 12.9579 13.7921 13.0563 13.7636C12.7983 13.9541 12.1012 14.4416 11.377 14.8673Z" fill="url(#paint0_linear)"/>
</g>
<g filter="url(#filter1_i)">
<path fill-rule="evenodd" clip-rule="evenodd" d="M7.12734 0L7.205 0.0414798C7.79873 0.358617 9.66488 1.64855 10.6582 2.59727C11.6581 3.5522 11.9373 4.64771 11.9373 5.38702C11.9373 5.75538 11.8909 6.04733 11.8448 6.30676C11.8402 6.33289 11.8356 6.35864 11.831 6.38409C11.79 6.61213 11.7536 6.81494 11.7536 7.02949C11.7536 7.26574 11.8142 7.43736 11.9093 7.54921C12.0038 7.66039 12.1359 7.71671 12.2889 7.71671C12.4416 7.71671 12.6141 7.65897 12.7495 7.48718C12.8858 7.3142 12.9881 7.02097 12.9881 6.54332V6.40191L13.0653 6.52036C13.5986 7.33798 14.2136 8.50249 14.2136 10.0451C14.2136 11.5911 13.3202 12.7907 12.8617 13.2099C12.6358 13.4165 12.5133 13.546 12.4474 13.6302C12.3814 13.7147 12.3768 13.7481 12.3768 13.7636C12.3768 13.771 12.3785 13.7741 12.38 13.7761C12.3821 13.7787 12.3876 13.7838 12.4018 13.7891C12.4319 13.8002 12.4859 13.807 12.5775 13.807C12.7179 13.807 12.9464 13.7517 13.0447 13.7232L13.0813 13.7974C12.8224 13.9886 12.1241 14.477 11.3983 14.9036C10.4883 15.4385 9.11 16 7.39511 16C4.77941 16 3.02928 14.3381 2.47938 13.5043L2.54948 13.4578C2.56141 13.4757 2.60562 13.5179 2.67192 13.5179C2.69203 13.5179 2.70266 13.5136 2.70859 13.5094C2.71443 13.5054 2.7198 13.4987 2.72424 13.4865C2.73427 13.4589 2.73484 13.4182 2.73484 13.3629L2.73484 13.3596C2.73486 13.2634 2.73487 13.1986 2.56619 12.6593C2.52855 12.539 2.47024 12.4027 2.40245 12.2444C2.16892 11.6989 1.823 10.8908 1.823 9.56547C1.823 8.87486 2.06592 8.26439 2.36817 7.78272C2.67027 7.30129 3.03302 6.94626 3.27665 6.76577L3.35528 6.70751L3.34341 6.80465C3.33042 6.91088 3.30436 7.18808 3.30436 7.4434C3.30436 7.59886 3.35248 7.91514 3.47071 8.19143C3.59021 8.47068 3.77197 8.68905 4.02984 8.68905C4.15665 8.68905 4.26138 8.62691 4.34904 8.52194C4.43732 8.4162 4.50599 8.26938 4.55808 8.108C4.66223 7.7854 4.69627 7.41708 4.69627 7.23973C4.69627 6.87494 4.74261 6.15314 5.07319 5.32544C5.33775 4.66305 5.83909 3.94765 6.05669 3.67249L6.07837 3.64508L6.10927 3.66137C6.12443 3.66936 6.16739 3.68485 6.24192 3.69825C6.31539 3.71145 6.4173 3.72222 6.54887 3.72222C6.74414 3.72222 6.89272 3.64394 7.00768 3.51817C7.12377 3.39117 7.20608 3.21498 7.26378 3.02058C7.37921 2.63173 7.39243 2.18356 7.39243 1.95098C7.39243 1.48896 7.3276 1.04577 7.1439 0.0864701L7.12734 0ZM7.24328 0.158696C7.41421 1.05779 7.47651 1.49472 7.47651 1.95098C7.47651 2.18486 7.46348 2.64333 7.34439 3.04451C7.28484 3.24512 7.19782 3.43479 7.06975 3.5749C6.94055 3.71624 6.77016 3.80631 6.54887 3.80631C6.41279 3.80631 6.30587 3.79518 6.22705 3.78101C6.17385 3.77145 6.13233 3.7603 6.10295 3.74976C5.87836 4.03853 5.40387 4.72419 5.15128 5.35663C4.82586 6.1714 4.78036 6.88183 4.78036 7.23973C4.78036 7.42372 4.74552 7.80108 4.6381 8.13383C4.58442 8.30013 4.51164 8.45839 4.41358 8.57583C4.31489 8.69402 4.18837 8.77313 4.02984 8.77313C3.71698 8.77313 3.51499 8.50863 3.3934 8.22451C3.27055 7.93742 3.22028 7.60985 3.22028 7.4434C3.22028 7.24303 3.23599 7.03016 3.24926 6.89354C3.01783 7.08152 2.70492 7.40425 2.43939 7.82741C2.14304 8.29969 1.90708 8.8948 1.90708 9.56547C1.90708 10.871 2.24334 11.6573 2.47697 12.2037C2.54634 12.3659 2.60665 12.507 2.64644 12.6342C2.81698 13.1794 2.81892 13.2506 2.81892 13.3629L2.81892 13.3677C2.81894 13.4164 2.81896 13.472 2.80328 13.5152C2.79459 13.5391 2.78028 13.562 2.7566 13.5785C2.73302 13.5949 2.70428 13.602 2.67192 13.602C2.66445 13.602 2.65717 13.6017 2.65007 13.601C3.28261 14.4521 4.95825 15.9159 7.39511 15.9159C9.09141 15.9159 10.4551 15.3605 11.3557 14.8311C11.9515 14.4809 12.529 14.0887 12.8576 13.8554C12.7625 13.8749 12.6582 13.8911 12.5775 13.8911C12.4854 13.8911 12.418 13.8847 12.3727 13.8679C12.3492 13.8593 12.3285 13.8467 12.3137 13.8278C12.2985 13.8082 12.2927 13.7858 12.2927 13.7636C12.2927 13.72 12.3111 13.668 12.3812 13.5784C12.4515 13.4885 12.5782 13.3552 12.805 13.1479C13.2518 12.7393 14.1295 11.5606 14.1295 10.0451C14.1295 8.59674 13.5793 7.48561 13.0692 6.68176C13.0513 7.09187 12.9529 7.36486 12.8155 7.53922C12.6623 7.73371 12.4641 7.80079 12.2889 7.80079C12.1138 7.80079 11.9573 7.73557 11.8452 7.60367C11.7336 7.47243 11.6695 7.27942 11.6695 7.02949C11.6695 6.80699 11.7073 6.59663 11.7481 6.36975C11.7527 6.34408 11.7574 6.3182 11.762 6.29207C11.8078 6.03413 11.8532 5.74793 11.8532 5.38702C11.8532 4.66783 11.5814 3.59528 10.6001 2.65808C9.65259 1.75309 7.90246 0.533333 7.24328 0.158696Z" fill="url(#paint1_linear)"/>
</g>
<g opacity="0.9" filter="url(#filter2_i)">
<path d="M10.5378 14.882C9.74974 15.3776 9.30931 15.958 7.47324 15.958C4.49454 15.958 3.69538 14.2194 3.69538 14.2194C3.69538 14.2194 2.39429 11.5526 2.39429 9.968V9.96796C2.39429 9.54807 2.39429 8.82641 2.73772 8.38685C2.92926 8.82642 3.25288 9.21351 3.88693 9.21351C5.48737 9.21351 5.22446 7.15804 5.61073 6.12339C5.83914 5.51156 6.1457 5.0343 6.60802 4.79155C6.64419 4.81195 6.91001 4.8834 7.143 4.8834C7.86822 4.8834 8.08747 3.9138 8.08747 3.4794C8.08747 3.045 8.06243 2.03048 7.90254 1.13721C8.41648 1.43089 8.91598 1.8898 9.77825 2.77084C10.6405 3.65187 11.3369 4.97188 11.3369 5.65101C11.3369 6.81227 11.2115 8.76082 12.5258 8.76082C12.8113 8.76082 13.2721 8.76082 13.4174 7.84887C13.5099 8.76082 13.5099 9.5153 13.5099 9.73837C13.5099 11.477 13.2401 12.4928 12.2071 13.6192C11.753 14.1144 11.4976 14.2784 10.5378 14.882Z" fill="url(#paint2_linear)"/>
</g>
<path d="M9.80082 14.9926C9.10846 15.4146 9.28389 15.8256 7.67074 15.8256C5.63021 15.8256 3.32109 12.6621 3.32109 10.9261C3.32109 10.4079 3.30783 10.0144 3.41384 9.5356C3.58212 9.90988 4.14875 10.4079 4.70582 10.4079C6.11195 10.4079 5.87706 8.46857 6.21643 7.58759C6.69596 6.34277 6.95186 5.89539 8.16433 4.85907C8.67687 4.42101 8.89447 3.75037 8.75399 2.98978C9.20553 3.23983 9.88695 3.71782 10.3507 5.0952C10.8808 6.66934 10.4501 7.73082 10.4501 8.30908C10.4501 9.29785 10.735 9.71269 11.1988 9.71269C11.6626 9.71269 11.8481 9.59463 12.0999 9.44377C12.6432 10.362 11.6626 11.1819 11.6626 11.7656C11.6626 12.0341 11.7487 12.192 12.0601 12.192C12.1856 12.192 12.5835 12.1461 12.5835 12.1461C12.563 12.5161 12.1264 13.202 11.5765 13.7268C11.1563 14.1277 10.6441 14.4787 9.80082 14.9926Z" fill="url(#paint3_linear)"/>
<path opacity="0.1" d="M9.39129 15.1558C8.82751 15.4951 8.97036 15.8256 7.65679 15.8256C5.99522 15.8256 4.11494 13.2818 4.11494 11.8858C4.11493 11.4691 4.10413 11.1527 4.19046 10.7677C4.32749 11.0686 4.78889 11.4691 5.2425 11.4691C6.3875 11.4691 6.19622 9.90965 6.47257 9.20124C6.86305 8.20025 7.07142 7.8405 8.05872 7.00718C8.47607 6.65491 8.65326 6.11564 8.53887 5.50403C8.90655 5.70511 9.46142 6.08946 9.83908 7.19705C10.2707 8.46285 9.92 9.31641 9.92 9.7814C9.92 10.5765 10.152 10.9101 10.5296 10.9101C10.9073 10.9101 11.0584 10.8151 11.2634 10.6938C11.7058 11.4322 10.9073 12.0915 10.9073 12.5609C10.9073 12.7768 10.9774 12.9037 11.231 12.9037C11.3332 12.9037 11.6572 12.8668 11.6572 12.8668C11.6405 13.1644 11.285 13.716 10.8372 14.1379C10.495 14.4603 10.078 14.7425 9.39129 15.1558Z" fill="white"/>
<path opacity="0.8" d="M6.1107 14.5939C6.76502 15.1422 7.04765 15.7235 7.1075 15.9497C7.59071 15.973 8.11775 15.9497 8.58949 15.8672C8.79341 15.641 9.28525 15.0855 9.72146 14.5478C10.2667 13.8757 10.4662 13.0586 10.4662 12.6435C10.1803 12.6435 9.93425 12.6435 9.93425 12.2086C9.93425 11.8607 9.99632 11.6331 10.0273 11.5628H9.76801C9.00995 11.5628 8.36493 10.8446 8.36493 9.73755C8.36493 8.85193 8.48019 8.13413 8.53782 7.88593C8.28735 8.12973 7.69199 8.74387 7.31429 9.24993C6.84216 9.88252 6.53628 10.8907 6.39663 11.7407C6.28492 12.4208 5.53439 12.6259 5.1731 12.6435C5.21299 13.0652 5.45637 14.0457 6.1107 14.5939Z" fill="url(#paint4_linear)"/>
<g filter="url(#filter3_df)">
<path d="M6.96538 15.0001C7.29255 15.2787 7.43418 15.5783 7.46411 15.6933L8.19224 15.6632C8.29421 15.5482 8.55266 15.2499 8.77077 14.9767C9.0434 14.6351 9.14315 14.2199 9.14315 14.0089C9.00018 14.0089 8.87716 14.0089 8.87716 13.7879C8.87716 13.6111 8.90819 13.4954 8.92371 13.4597H8.79404C8.41501 13.4597 8.0925 13.0947 8.0925 12.5321C8.0925 12.082 8.15013 11.7173 8.17895 11.5911C8.05371 11.715 7.75603 12.0271 7.56718 12.2843C7.33111 12.6058 7.17817 13.1181 7.10835 13.5501C7.05249 13.8957 6.67723 14 6.49658 14.0089C6.51653 14.2232 6.63822 14.7215 6.96538 15.0001Z" fill="white"/>
</g>
<path d="M2.41255 5.56581C2.22815 6.19208 2.27666 6.61938 2.32396 6.75474C2.49447 6.53373 2.90337 6.03206 3.17488 5.7934C3.51426 5.49509 4.1697 5.21134 4.23365 4.35316C4.28481 3.66662 4.03147 3.33732 3.8984 3.25849C3.86905 3.40912 3.76765 3.79708 3.59682 4.14391C3.38329 4.57744 2.64306 4.78296 2.41255 5.56581Z" fill="url(#paint5_linear)"/>
<path fill-rule="evenodd" clip-rule="evenodd" d="M3.83876 3.12536L3.94134 3.18613C4.11124 3.28679 4.37019 3.6535 4.31759 4.3594C4.26302 5.09179 3.78976 5.4383 3.4443 5.69123C3.36377 5.75018 3.2902 5.80405 3.23048 5.85654C2.96584 6.08916 2.5614 6.58473 2.39062 6.80609L2.29585 6.92892L2.24467 6.78246C2.18979 6.6254 2.1444 6.17914 2.33199 5.54204C2.45417 5.12707 2.71184 4.86684 2.95685 4.65965C3.00922 4.61536 3.05918 4.57492 3.10708 4.53616C3.17452 4.48157 3.23785 4.43031 3.29804 4.3763C3.39824 4.28637 3.47516 4.20079 3.52148 4.10674C3.68816 3.76834 3.7876 3.38792 3.81596 3.2424L3.83876 3.12536ZM3.94807 3.41838C3.8988 3.61185 3.80668 3.90831 3.67234 4.18104C3.6119 4.30376 3.51621 4.40645 3.41036 4.50145C3.34854 4.55693 3.27801 4.61411 3.20678 4.67186C3.15918 4.71045 3.11127 4.74929 3.06543 4.78806C2.82932 4.98772 2.60162 5.22168 2.4933 5.58954C2.36418 6.02808 2.35327 6.36146 2.37204 6.55801C2.57343 6.30692 2.89165 5.93047 3.11946 5.73023C3.19364 5.66503 3.27803 5.60265 3.36587 5.53773C3.70767 5.2851 4.10168 4.99387 4.14989 4.3469C4.18731 3.84476 4.05624 3.55521 3.94807 3.41838Z" fill="#FF211E"/>
<path d="M2.86766 5.21314C2.69362 5.61475 2.66991 5.90256 2.67981 5.99626C2.79872 5.86288 3.08053 5.56185 3.25656 5.42474C3.4766 5.25335 3.86725 5.11666 4.00284 4.5514C4.11131 4.0992 4.01184 3.8603 3.94854 3.79738C3.91487 3.89516 3.81405 4.14496 3.68021 4.36193C3.5129 4.63314 3.08522 4.71113 2.86766 5.21314Z" fill="#FF693F"/>
</g>
<defs>
<filter id="filter0_i" x="1.86499" y="0.0785522" width="12.3065" height="15.8794" filterUnits="userSpaceOnUse" color-interpolation-filters="sRGB">
<feFlood flood-opacity="0" result="BackgroundImageFix"/>
<feBlend mode="normal" in="SourceGraphic" in2="BackgroundImageFix" result="shape"/>
<feColorMatrix in="SourceAlpha" type="matrix" values="0 0 0 0 0 0 0 0 0 0 0 0 0 0 0 0 0 0 127 0" result="hardAlpha"/>
<feOffset/>
<feGaussianBlur stdDeviation="5"/>
<feComposite in2="hardAlpha" operator="arithmetic" k2="-1" k3="1"/>
<feColorMatrix type="matrix" values="0 0 0 0 0 0 0 0 0 0 0 0 0 0 0 0 0 0 0.1 0"/>
<feBlend mode="normal" in2="shape" result="effect1_innerShadow"/>
</filter>
<filter id="filter1_i" x="1.823" y="0" width="12.3906" height="16" filterUnits="userSpaceOnUse" color-interpolation-filters="sRGB">
<feFlood flood-opacity="0" result="BackgroundImageFix"/>
<feBlend mode="normal" in="SourceGraphic" in2="BackgroundImageFix" result="shape"/>
<feColorMatrix in="SourceAlpha" type="matrix" values="0 0 0 0 0 0 0 0 0 0 0 0 0 0 0 0 0 0 127 0" result="hardAlpha"/>
<feOffset/>
<feGaussianBlur stdDeviation="5"/>
<feComposite in2="hardAlpha" operator="arithmetic" k2="-1" k3="1"/>
<feColorMatrix type="matrix" values="0 0 0 0 0 0 0 0 0 0 0 0 0 0 0 0 0 0 0.1 0"/>
<feBlend mode="normal" in2="shape" result="effect1_innerShadow"/>
</filter>
<filter id="filter2_i" x="2.39429" y="1.13721" width="11.1156" height="14.8208" filterUnits="userSpaceOnUse" color-interpolation-filters="sRGB">
<feFlood flood-opacity="0" result="BackgroundImageFix"/>
<feBlend mode="normal" in="SourceGraphic" in2="BackgroundImageFix" result="shape"/>
<feColorMatrix in="SourceAlpha" type="matrix" values="0 0 0 0 0 0 0 0 0 0 0 0 0 0 0 0 0 0 127 0" result="hardAlpha"/>
<feOffset/>
<feGaussianBlur stdDeviation="4.5"/>
<feComposite in2="hardAlpha" operator="arithmetic" k2="-1" k3="1"/>
<feColorMatrix type="matrix" values="0 0 0 0 1 0 0 0 0 1 0 0 0 0 1 0 0 0 0.3 0"/>
<feBlend mode="normal" in2="shape" result="effect1_innerShadow"/>
</filter>
<filter id="filter3_df" x="-17.5034" y="-36.4089" width="50.6466" height="62.1022" filterUnits="userSpaceOnUse" color-interpolation-filters="sRGB">
<feFlood flood-opacity="0" result="BackgroundImageFix"/>
<feColorMatrix in="SourceAlpha" type="matrix" values="0 0 0 0 0 0 0 0 0 0 0 0 0 0 0 0 0 0 127 0"/>
<feOffset dy="-24"/>
<feGaussianBlur stdDeviation="12"/>
<feColorMatrix type="matrix" values="0 0 0 0 1 0 0 0 0 0.919167 0 0 0 0 0.191667 0 0 0 1 0"/>
<feBlend mode="normal" in2="BackgroundImageFix" result="effect1_dropShadow"/>
<feBlend mode="normal" in="SourceGraphic" in2="effect1_dropShadow" result="shape"/>
<feGaussianBlur stdDeviation="5" result="effect2_foregroundBlur"/>
</filter>
<linearGradient id="paint0_linear" x1="8.01826" y1="0.0785522" x2="8.01826" y2="15.9579" gradientUnits="userSpaceOnUse">
<stop stop-color="#E60700"/>
<stop offset="0.760417" stop-color="#EF3622"/>
<stop offset="1" stop-color="#F6931C"/>
</linearGradient>
<linearGradient id="paint1_linear" x1="8.01831" y1="0.0785631" x2="8.01831" y2="15.958" gradientUnits="userSpaceOnUse">
<stop stop-color="#B70000"/>
<stop offset="1" stop-color="#F58001"/>
</linearGradient>
<linearGradient id="paint2_linear" x1="7.95208" y1="1.13721" x2="7.95208" y2="15.958" gradientUnits="userSpaceOnUse">
<stop stop-color="#E21B0F"/>
<stop offset="0.447917" stop-color="#EF4136"/>
<stop offset="1" stop-color="#FBBB13"/>
</linearGradient>
<linearGradient id="paint3_linear" x1="7.95205" y1="2.98978" x2="7.95205" y2="15.8256" gradientUnits="userSpaceOnUse">
<stop stop-color="#F05235"/>
<stop offset="1" stop-color="#FDCF08"/>
</linearGradient>
<linearGradient id="paint4_linear" x1="7.81966" y1="7.88593" x2="7.81966" y2="15.958" gradientUnits="userSpaceOnUse">
<stop stop-color="#FFE115"/>
<stop offset="0.333333" stop-color="#FFE047"/>
<stop offset="1" stop-color="#FFFBF2"/>
</linearGradient>
<linearGradient id="paint5_linear" x1="4.31292" y1="3.28938" x2="2.26509" y2="6.76181" gradientUnits="userSpaceOnUse">
<stop stop-color="#F15E18"/>
<stop offset="0.479167" stop-color="#EE2E24"/>
<stop offset="1" stop-color="#EC261F"/>
</linearGradient>
<clipPath id="clip0">
<rect width="16" height="16" fill="white" transform="translate(0.0183105)"/>
</clipPath>
</defs>
</svg>
