<svg width="135" height="40" fill="none" xmlns="http://www.w3.org/2000/svg"><path d="M5 .5h125a4.501 4.501 0 0 1 4.5 4.5v30a4.5 4.5 0 0 1-4.5 4.5H5A4.5 4.5 0 0 1 .5 35V5A4.5 4.5 0 0 1 5 .5Z" stroke="#333" stroke-miterlimit="10"/><path d="M10.44 7.54a2 2 0 0 0-.46 1.4v22.12a2 2 0 0 0 .46 1.4l.07.07L22.9 20.15v-.29L10.51 7.47l-.07.07Z" fill="url(#a)"/><path d="m27 24.28-4.1-4.13v-.29l4.1-4.14.09.05L32 18.56c1.4.79 1.4 2.09 0 2.89l-4.89 2.78-.11.05Z" fill="url(#b)"/><path fill-rule="evenodd" clip-rule="evenodd" d="M68.14 21.75A4.25 4.25 0 1 0 72.41 26a4.192 4.192 0 0 0-4.27-4.25Zm0 6.83a2.58 2.58 0 1 1 2.4-2.58 2.46 2.46 0 0 1-2.4 2.58ZM58.83 21.75A4.25 4.25 0 1 0 63.09 26a4.192 4.192 0 0 0-4.27-4.25h.01Zm0 6.83A2.58 2.58 0 1 1 61.22 26a2.46 2.46 0 0 1-2.4 2.58h.01Z" fill="#333"/><path d="M47.74 23.06v1.8h4.32a3.77 3.77 0 0 1-1 2.27 4.42 4.42 0 0 1-3.33 1.32 4.8 4.8 0 1 1 0-9.6A4.6 4.6 0 0 1 51 20.14l1.27-1.27A6.29 6.29 0 0 0 47.74 17a6.61 6.61 0 1 0 0 13.21 6.001 6.001 0 0 0 4.61-1.85 6 6 0 0 0 1.56-4.22 5.875 5.875 0 0 0-.1-1.13l-6.07.05Z" fill="#333"/><path fill-rule="evenodd" clip-rule="evenodd" d="M93.05 24.46a4 4 0 0 0-3.64-2.71 4 4 0 0 0-4 4.25 4.16 4.16 0 0 0 4.22 4.25 4.23 4.23 0 0 0 3.54-1.88l-1.45-1a2.43 2.43 0 0 1-2.09 1.18 2.16 2.16 0 0 1-2.06-1.29l5.69-2.35-.21-.45Zm-5.8 1.42a2.33 2.33 0 0 1 2.22-2.48 1.65 1.65 0 0 1 1.58.9l-3.8 1.58Z" fill="#333"/><path d="M82.63 30h1.87V17.5h-1.87V30Z" fill="#333"/><path fill-rule="evenodd" clip-rule="evenodd" d="M79.57 22.7h-.07a3.002 3.002 0 0 0-2.24-1 4.26 4.26 0 0 0 0 8.51 2.901 2.901 0 0 0 2.24-1h.06v.61c0 1.63-.87 2.5-2.27 2.5a2.35 2.35 0 0 1-2.14-1.51l-1.63.68A4.05 4.05 0 0 0 77.29 34c2.19 0 4-1.29 4-4.43V22h-1.72v.7Zm-3.823 5.05a2.59 2.59 0 0 0 1.68.83A2.38 2.38 0 0 0 79.7 26a2.401 2.401 0 0 0-2.27-2.58 2.59 2.59 0 0 0-1.683 4.33ZM97.34 17.5V30h1.87v-4.74h2.61a3.89 3.89 0 1 0 0-7.76h-4.48Zm4.47 6H99.2v-4.26h2.65a2.147 2.147 0 0 1 2.145 2.145 2.146 2.146 0 0 1-2.145 2.145l-.04-.03ZM113.34 21.7a3.498 3.498 0 0 0-3.33 1.91l1.66.69a1.77 1.77 0 0 1 1.7-.92 1.802 1.802 0 0 1 2 1.61v.13a4.13 4.13 0 0 0-1.95-.48c-1.79 0-3.6 1-3.6 2.81a2.904 2.904 0 0 0 .969 2.03 2.893 2.893 0 0 0 2.131.72 2.634 2.634 0 0 0 2.4-1.2h.06v1h1.8v-4.81c0-2.19-1.66-3.46-3.79-3.46l-.05-.03Zm-.23 6.85c-.61 0-1.46-.31-1.46-1.06 0-1 1.06-1.33 2-1.33a3.32 3.32 0 0 1 1.7.42 2.264 2.264 0 0 1-2.19 2l-.05-.03Z" fill="#333"/><path d="m123.74 22-2.14 5.42h-.06L119.32 22h-2l3.33 7.58-1.9 4.21h1.95L125.82 22h-2.08ZM106.93 30h1.87V17.5h-1.87V30Z" fill="#333"/><path fill-rule="evenodd" clip-rule="evenodd" d="M41.37 14.27h.74V13h4.58v1.26h.74v-2h-.67V7h-4v2.97a2.86 2.86 0 0 1-.76 2.3h-.63v2Zm1.56-1.97a4 4 0 0 0 .57-2.3V7.74h2.43v4.56h-3ZM51.21 13.128a3.12 3.12 0 0 0 2.2-.908 3.23 3.23 0 0 0 0-4.45 3.1 3.1 0 0 0-4.4 0 3.24 3.24 0 0 0 0 4.45 3.12 3.12 0 0 0 2.2.908Zm0-.735a2.31 2.31 0 0 1-1.63-.673 2.56 2.56 0 0 1 0-3.44 2.31 2.31 0 0 1 3.26 0 2.56 2.56 0 0 1 0 3.44 2.31 2.31 0 0 1-1.63.673Z" fill="#333"/><path d="M56.974 12.908c.383.155.793.23 1.206.222a3.15 3.15 0 0 0 1.36-.28c.386-.184.728-.45 1-.78l-.54-.54a2.371 2.371 0 0 1-1.83.89 2.27 2.27 0 0 1-1.66-.66 2.57 2.57 0 0 1 0-3.47 2.27 2.27 0 0 1 1.66-.66 2 2 0 0 1 1.67.76l.54-.52a2.77 2.77 0 0 0-2.2-1A3.06 3.06 0 0 0 55.06 10a3.06 3.06 0 0 0 1.914 2.908ZM62.91 13h.77V7.74h1.67V7h-4.12v.74h1.68V13ZM68.38 12.06 70.65 7h-.91l-1.44 3.45-1.48-3.44h-.91l2 4.43-.22.48a.94.94 0 0 1-.27.38.71.71 0 0 1-.42.1.812.812 0 0 1-.4-.11l-.2.71c.19.083.393.127.6.13a1.51 1.51 0 0 0 1.38-1.07ZM75.86 7h-4.34v6h.77V7.74h2.8V13h.77V7ZM78 7h-.77v6H78v-2.71h3V13h.77V7H81v2.57h-3V7Z" fill="#333"/><path fill-rule="evenodd" clip-rule="evenodd" d="M85.86 13.128a3.12 3.12 0 0 0 2.2-.908 3.23 3.23 0 0 0 0-4.45 3.1 3.1 0 0 0-4.4 0 3.24 3.24 0 0 0 0 4.45 3.12 3.12 0 0 0 2.2.908Zm0-.735a2.31 2.31 0 0 1-1.63-.673 2.56 2.56 0 0 1 0-3.44 2.31 2.31 0 0 1 3.26 0 2.56 2.56 0 0 1 0 3.44 2.31 2.31 0 0 1-1.63.673ZM94.26 7h-2.17v6l2.3-.04a1.85 1.85 0 0 0 1.28-.49 1.57 1.57 0 0 0 .54-1.22 1.36 1.36 0 0 0-.29-.86 1.52 1.52 0 0 0-.73-.52 1.39 1.39 0 0 0 .59-.49 1.31 1.31 0 0 0 .22-.75 1.51 1.51 0 0 0-.52-1.17A1.76 1.76 0 0 0 94.26 7Zm0 2.57h-1.4l.04-1.86h1.43A.86.86 0 0 1 95 8a.89.89 0 0 1-.04 1.28.9.9 0 0 1-.7.29Zm.15 2.69h-1.55l.03-1.99h1.52a1 1 0 0 1 1 1 1 1 0 0 1-.28.68.92.92 0 0 1-.72.31Z" fill="#333"/><path d="M27.12 24.22 22.9 20 10.44 32.46a1.63 1.63 0 0 0 2.08.06l14.61-8.3" fill="url(#c)"/><path d="m27.12 15.78-14.61-8.3a1.63 1.63 0 0 0-2.08.06L22.9 20l4.22-4.22Z" fill="url(#d)"/><path opacity=".2" d="m27 24.13-14.49 8.25a1.67 1.67 0 0 1-2 0l-.07.07.07.07a1.66 1.66 0 0 0 2 0l14.61-8.3-.12-.09Z" fill="#000"/><path opacity=".12" d="M10.44 32.32a2 2 0 0 1-.46-1.4v.15a2 2 0 0 0 .46 1.4l.07-.07-.07-.08ZM32 21.3l-5 2.83.09.09L32 21.44A1.75 1.75 0 0 0 33 20a1.86 1.86 0 0 1-1 1.3Z" fill="#000"/><path opacity=".25" d="M12.51 7.62 32 18.7a1.861 1.861 0 0 1 1 1.3 1.75 1.75 0 0 0-1-1.44L12.51 7.48c-1.4-.79-2.54-.13-2.54 1.47v.15c.03-1.61 1.15-2.27 2.54-1.48Z" fill="#fff"/><defs><linearGradient id="a" x1="21.8" y1="8.71" x2="5.02" y2="25.49" gradientUnits="userSpaceOnUse"><stop stop-color="#00A0FF"/><stop offset=".01" stop-color="#00A1FF"/><stop offset=".26" stop-color="#00BEFF"/><stop offset=".51" stop-color="#00D2FF"/><stop offset=".76" stop-color="#00DFFF"/><stop offset="1" stop-color="#00E3FF"/></linearGradient><linearGradient id="b" x1="33.83" y1="20" x2="9.64" y2="20" gradientUnits="userSpaceOnUse"><stop stop-color="#FFE000"/><stop offset=".41" stop-color="#FFBD00"/><stop offset=".78" stop-color="orange"/><stop offset="1" stop-color="#FF9C00"/></linearGradient><linearGradient id="c" x1="24.83" y1="22.3" x2="2.07" y2="45.05" gradientUnits="userSpaceOnUse"><stop stop-color="#FF3A44"/><stop offset="1" stop-color="#C31162"/></linearGradient><linearGradient id="d" x1="7.3" y1=".18" x2="17.46" y2="10.34" gradientUnits="userSpaceOnUse"><stop stop-color="#32A071"/><stop offset=".07" stop-color="#2DA771"/><stop offset=".48" stop-color="#15CF74"/><stop offset=".8" stop-color="#06E775"/><stop offset="1" stop-color="#00F076"/></linearGradient></defs></svg>