<svg width="20" height="20" viewBox="0 0 20 20" fill="none" xmlns="http://www.w3.org/2000/svg">
<path d="M0 10C0 6.49967 0 4.74951 0.681209 3.41256C1.28042 2.23655 2.23655 1.28042 3.41256 0.681209C4.74951 0 6.49967 0 10 0H12.3077C13.6479 0 14.3179 0 14.8766 0.102376C17.4308 0.570457 19.4295 2.56917 19.8976 5.12341C20 5.68205 20 6.35214 20 7.69231C20 9.83658 20 10.9087 19.8362 11.8026C19.0873 15.8893 15.8893 19.0873 11.8026 19.8362C10.9087 20 9.83658 20 7.69231 20C6.35214 20 5.68205 20 5.12341 19.8976C2.56917 19.4295 0.570457 17.4308 0.102376 14.8766C0 14.3179 0 13.6479 0 12.3077V10Z" fill="#187228"/>
<path d="M0 8.75C0 5.23884 0 3.48327 0.842652 2.22215C1.20744 1.6762 1.6762 1.20744 2.22215 0.842652C3.48327 0 5.23884 0 8.75 0H11.6667C12.4407 0 12.8277 0 13.1526 0.0427757C15.3963 0.33816 17.1618 2.1037 17.4572 4.34737C17.5 4.67228 17.5 5.0593 17.5 5.83333C17.5 7.3814 17.5 8.15543 17.4144 8.80526C16.8237 13.2926 13.2926 16.8237 8.80526 17.4144C8.15543 17.5 7.3814 17.5 5.83333 17.5C5.0593 17.5 4.67228 17.5 4.34737 17.4572C2.1037 17.1618 0.33816 15.3963 0.0427757 13.1526C0 12.8277 0 12.4407 0 11.6667V8.75Z" fill="#0F9A40"/>
<path fill-rule="evenodd" clip-rule="evenodd" d="M17.5 7.5C17.5 8.66093 17.5 9.24139 17.445 9.72969C16.9879 13.7864 13.7864 16.9879 9.72969 17.445C9.24139 17.5 8.66093 17.5 7.5 17.5C10 15 7.5 12.5 10 10C12.5 7.5 15 10 17.5 7.5Z" fill="url(#paint0_linear)"/>
<path fill-rule="evenodd" clip-rule="evenodd" d="M17.5 7.5C17.5 8.66093 17.5 9.24139 17.445 9.72969C16.9879 13.7864 13.7864 16.9879 9.72969 17.445C9.24139 17.5 8.66093 17.5 7.5 17.5C10 15 7.5 12.5 10 10C12.5 7.5 15 10 17.5 7.5Z" fill="white"/>
<defs>
<linearGradient id="paint0_linear" x1="15.433" y1="12.9563" x2="12.8078" y2="10.1165" gradientUnits="userSpaceOnUse">
<stop stop-color="#DFF1E6"/>
<stop offset="1" stop-color="white"/>
</linearGradient>
</defs>
</svg>
