<svg width="132" height="132" viewBox="0 0 264 264" fill="none" xmlns="http://www.w3.org/2000/svg">
<path d="M66.7096 83.5659C105.534 83.5659 130.681 133.45 130.681 133.45C130.681 133.45 157.152 81.3489 194.652 81.3489C211.197 81.3489 240.977 85.783 240.977 140.101C240.977 194.419 143.916 260.93 128.475 260.93C113.034 260.93 21.4883 191.093 21.4883 137.884C21.4883 127.907 23.6942 83.5659 66.7096 83.5659Z" fill="#9E0040"/>
<path d="M66.71 83.5659C105.534 83.5659 130.682 133.45 130.682 133.45C130.682 133.45 157.152 81.3489 194.653 81.3489C209.755 81.3489 236.342 84.9976 240.326 127C244.501 171 147.501 245 128.475 245C109.45 245 18.8355 167.5 22.2399 127C23.5008 112 33.2572 83.5659 66.71 83.5659Z" fill="#DC000F"/>
<path d="M17.2271 221.322C23.7371 222.995 25.8037 232.443 25.8037 232.443C25.8037 232.443 32.4879 224.848 38.776 226.464C41.5501 227.177 46.3525 229.204 44.0113 238.312C41.6701 247.42 22.5284 254.39 19.9392 253.724C17.35 253.058 5.00986 237.403 7.30326 228.48C7.73327 226.808 10.0143 219.468 17.2271 221.322Z" fill="#9E0040"/>
<path d="M17.2274 221.321C23.7374 222.994 25.804 232.443 25.804 232.443C25.804 232.443 32.4882 224.847 38.7763 226.464C41.3085 227.114 45.6094 228.872 44.4671 236.087C43.2706 243.645 23.8162 251.872 20.6261 251.052C17.436 250.232 5.58217 233.331 7.89862 226.687C8.75657 224.226 11.6181 219.879 17.2274 221.321Z" fill="#DC000F"/>
<path d="M168.227 33.3216C174.737 34.995 176.804 44.4433 176.804 44.4433C176.804 44.4433 183.488 36.848 189.776 38.4643C192.55 39.1774 197.352 41.2045 195.011 50.3124C192.67 59.4204 173.528 66.3896 170.939 65.724C168.35 65.0585 156.01 49.4025 158.303 40.4804C158.733 38.8076 161.014 31.4676 168.227 33.3216Z" fill="#9E0040"/>
<path d="M168.227 33.3208C174.737 34.9942 176.804 44.4425 176.804 44.4425C176.804 44.4425 183.488 36.8473 189.776 38.4636C192.309 39.1145 196.609 40.8722 195.467 48.0869C194.271 55.6447 174.816 63.8721 171.626 63.0521C168.436 62.2321 156.582 45.3313 158.899 38.6871C159.757 36.2262 162.618 31.879 168.227 33.3208Z" fill="#DC000F"/>
<path d="M62.5816 32.4891C75.5679 24.5253 94.2119 36.0526 94.2119 36.0526C94.2119 36.0526 92.379 13.1956 104.923 5.50331C110.457 2.10966 121.327 -2.51574 132.469 15.6531C143.611 33.8219 124.788 75.9789 119.623 79.1463C114.458 82.3137 69.5119 77.7319 58.5974 59.9338C56.5509 56.5967 48.1934 41.3125 62.5816 32.4891Z" fill="#9E0040"/>
<path d="M62.5806 32.4882C75.5669 24.5245 94.2109 36.0518 94.2109 36.0518C94.2109 36.0518 92.378 13.1947 104.922 5.50247C109.973 2.40473 119.615 -1.82849 129.563 11.4036C139.985 25.265 122.718 69.9144 116.355 73.8169C109.991 77.7194 63.7839 70.3836 56.6151 56.1384C53.96 50.8624 51.3909 39.3502 62.5806 32.4882Z" fill="#DC000F"/>
</svg>
