<svg xmlns="http://www.w3.org/2000/svg" width="100" height="70" fill="none" viewBox="0 0 291 215"><mask id="a" width="245" height="155" x="34" y="61" mask-type="alpha" maskUnits="userSpaceOnUse"><path fill="#E30613" d="M46.273 215H266.17c6.655 0 12.051-5.423 12.051-12.113V73.114c0-6.69-5.396-12.114-12.051-12.114H46.273c-6.656 0-12.051 5.424-12.051 12.114v129.773c0 6.69 5.395 12.113 12.05 12.113Z"/></mask><g mask="url(#a)"><path fill="#FFDA44" d="M314.605 43.264H24.403V237.93h290.202V43.264Z"/><path fill="#9E0942" d="M194.097 181.731c.052.364.079.73.08 1.097 0 4.598-4.004 8.32-8.958 8.431h-.42a8.974 8.974 0 0 1-5.618-1.934 9.053 9.053 0 0 1-3.2-5.028 8.978 8.978 0 0 1-3.157 5.138 8.902 8.902 0 0 1-5.681 1.965h-.421a9.064 9.064 0 0 1-5.205-1.618 9.134 9.134 0 0 1-3.352-4.318 9.156 9.156 0 0 1-3.361 4.214 9.078 9.078 0 0 1-5.137 1.581h-.421c-5.004-.111-9.008-3.833-9.008-8.431.002-.367.029-.733.08-1.097h-28.515v56.23l94.085-.211v-56.019h-11.791Zm-44.43 26.672h-.421c-5.004-.101-9.008-3.834-9.008-8.421 0-4.588 4.104-8.431 9.169-8.431 5.064 0 9.168 3.773 9.168 8.431 0 4.658-3.944 8.35-8.908 8.451v-.03Z"/><path fill="#FFDA44" d="M149.456 192.496a9.143 9.143 0 0 0-6.33 2.724 9.242 9.242 0 0 0-2.659 6.384 9.24 9.24 0 0 0 2.513 6.444 9.15 9.15 0 0 0 6.266 2.869h.42a9.152 9.152 0 0 0 6.267-2.869 9.244 9.244 0 0 0 2.512-6.444 9.242 9.242 0 0 0-2.659-6.384 9.143 9.143 0 0 0-6.33-2.724Zm7.006 8.048-2.162-.14 1.152 1.861-1.522.895-1.001-1.962-1.001 1.962-1.541-.895 1.191-1.801-2.182.08v-1.71l2.182.121-1.251-1.902 1.521-.895 1.001 2.012 1.001-2.012 1.541.895-1.171 1.862 2.162-.121.08 1.75Z"/><path fill="#187228" d="m155.411 197.054-1.531-.896-1.001 1.972-.991-1.972-1.521.896 1.171 1.861-2.192-.121v1.771l2.192-.08-1.191 1.811 1.541.895 1.011-1.972.981 1.972 1.521-.895-1.161-1.872 2.172.141v-1.771l-2.172.121 1.171-1.861Z"/><path fill="#EF7D00" d="M166.722 173.582h.42a9.145 9.145 0 0 0 6.383-2.81 9.243 9.243 0 0 0 2.575-6.509 9.242 9.242 0 0 0-2.722-6.448 9.149 9.149 0 0 0-6.446-2.662 9.149 9.149 0 0 0-6.446 2.662 9.246 9.246 0 0 0-.148 12.957 9.148 9.148 0 0 0 6.384 2.81Zm.11-12.123 2.182.12-1.171-1.861 1.521-.895 1.001 2.012 1.001-2.012 1.541.895-1.181 1.892 2.162-.121v1.771l-2.162-.141 1.151 1.861-1.521.905-1.001-2.012-1.001 2.012-1.541-.905 1.191-1.801-2.182.081.01-1.801Z"/><path fill="#187228" d="m167.823 164.959 1.541.885 1.011-1.962.981 1.962 1.521-.885-1.161-1.871 2.172.14v-1.77l-2.172.12 1.171-1.861-1.531-.895-1.001 1.972-.991-1.972-1.521.895 1.171 1.861-2.182-.12v1.77l2.182-.08-1.191 1.811Z"/><path fill="#EF7D00" d="M166.722 154.647h.42a9.144 9.144 0 0 0 6.383-2.809 9.246 9.246 0 0 0-.147-12.958 9.148 9.148 0 0 0-6.446-2.661 9.148 9.148 0 0 0-6.446 2.661 9.25 9.25 0 0 0-.148 12.958 9.147 9.147 0 0 0 6.384 2.809Zm.11-12.153 2.182.121-1.171-1.862 1.501-.875 1.001 2.012 1.001-2.012 1.541.896-1.171 1.861 2.162-.121v1.781l-2.162-.141 1.151 1.861-1.521.896-1.001-2.012-1.001 2.012-1.541-.896 1.191-1.811-2.182.091.02-1.801Z"/><path fill="#187228" d="m167.823 146.014 1.541.896 1.011-1.972.981 1.972 1.521-.896-1.161-1.861 2.172.141v-1.781l-2.172.121 1.171-1.861-1.531-.896-1.001 1.972-.991-1.972-1.521.896 1.171 1.861-2.182-.121v1.781l2.182-.091-1.191 1.811Z"/><path fill="#EF7D00" d="M148.446 173.582h.43a9.156 9.156 0 0 0 6.388-2.815 9.247 9.247 0 0 0 2.574-6.516 9.249 9.249 0 0 0-2.725-6.454 9.156 9.156 0 0 0-6.452-2.664 9.153 9.153 0 0 0-6.452 2.664 9.25 9.25 0 0 0-2.726 6.454 9.252 9.252 0 0 0 2.575 6.516 9.154 9.154 0 0 0 6.388 2.815Zm.11-12.123 2.192.121-1.171-1.862 1.511-.895 1.001 2.012 1.001-2.012 1.531.895-1.171 1.892 2.172-.121v1.771l-2.172-.141 1.161 1.861-1.521.906-1.001-2.012-1.001 2.012-1.531-.906 1.191-1.801-2.192.081v-1.801Z"/><path fill="#187228" d="m149.556 164.959 1.531.885 1.021-1.962.971 1.962 1.521-.885-1.151-1.871 2.172.14v-1.77l-2.172.12 1.171-1.861-1.541-.895-.991 1.972-1.001-1.972-1.521.895 1.181 1.861-2.192-.12v1.77l2.192-.08-1.191 1.811Z"/><path fill="#EF7D00" d="M166.832 181.731v-1.559l2.182.121-1.171-1.862 1.521-.895 1.001 2.012 1.001-2.012 1.541.895-1.171 1.862 2.162-.121v1.559h2.002v-.231a9.224 9.224 0 0 0-2.886-5.242 9.13 9.13 0 0 0-11.244-.817 9.218 9.218 0 0 0-3.606 4.771c.148.497.255 1.005.32 1.519h8.348Z"/><path fill="#FFDA44" d="M175.92 181.731h-2.002v.222l-2.162-.141 1.151 1.861-1.522.896-1-2.013-1.001 2.013-1.542-.896 1.191-1.811-2.182.091v-.222h-8.287a9.189 9.189 0 0 1-.38 4.085 9.232 9.232 0 0 0 3.239 4.629 9.16 9.16 0 0 0 5.318 1.86h.421a9.144 9.144 0 0 0 5.818-2.275 9.233 9.233 0 0 0 3.02-5.492 9.317 9.317 0 0 1-.14-1.599 9.372 9.372 0 0 1 .06-1.208Z"/><path fill="#187228" d="m173.888 180.202-2.172.13 1.171-1.871-1.531-.895-1.001 1.972-.991-1.972-1.521.895 1.171 1.871-2.182-.13v1.559h7.056v-1.559ZM169.014 181.892l-1.191 1.811 1.541.895 1.011-1.972.981 1.972 1.521-.895-1.161-1.862 2.172.141v-.221h-7.056v.221l2.182-.09Z"/><path fill="#EF7D00" d="M189.843 181.76h1.171l-1.222-.08.051.08ZM186.429 181.761h.64l.02-.03-.66.03Z"/><path fill="#EF7D00" d="M184.908 181.732v-1.721l2.182.131-1.171-1.861 1.521-.896 1.001 2.012 1.001-2.012 1.541.896-1.171 1.861 2.162-.131v1.721h2.132a9.219 9.219 0 0 0-2.989-5.704 9.128 9.128 0 0 0-12.015-.154 9.222 9.222 0 0 0-3.132 5.626v.232h8.938Z"/><path fill="#FFDA44" d="m191.965 181.822-.941-.06h-1.181l1.111 1.78-1.521.896-1.001-2.012-1.001 2.012-1.542-.896 1.171-1.78h-.64l-1.522.06v-.091h-8.918c.154.93.154 1.878 0 2.807a9.23 9.23 0 0 0 3.058 5.387 9.138 9.138 0 0 0 5.76 2.219h.421a9.133 9.133 0 0 0 6.347-2.766 9.235 9.235 0 0 0 2.531-7.647h-2.132v.091Z"/><path fill="#FFDA44" d="M175.99 181.731h-.07a9.573 9.573 0 0 0-.08 1.208c.001.536.048 1.071.14 1.599a8.64 8.64 0 0 0 0-2.807h.01Z"/><path fill="#187228" d="m187.09 181.731-.02.03h2.773l-.05-.081 1.221.081h.951v-1.711l-2.172.121 1.171-1.861-1.532-.895-1.001 1.961-.991-1.961-1.521.895 1.171 1.861-2.182-.121v1.711h1.522l.66-.03ZM191.964 181.821v-.06h-.95l.95.06ZM185.899 183.542l1.541.895 1.011-1.962.981 1.962 1.521-.895-1.111-1.781h-2.772l-1.171 1.781Z"/><path fill="#187228" d="M186.43 181.761h-1.522v.06l1.522-.06Z"/><path fill="#EF7D00" d="M154.29 181.76h1.171l-1.221-.08.05.08ZM150.877 181.761h.64l.02-.03-.66.03Z"/><path fill="#EF7D00" d="m149.326 180.04 2.182.131-1.181-1.861 1.522-.896 1 2.013 1.001-2.013 1.542.896-1.171 1.861 2.162-.131v1.69h1.461a8.6 8.6 0 0 1 .35-1.519 9.201 9.201 0 0 0-3.64-4.882 9.131 9.131 0 0 0-11.415.972 9.237 9.237 0 0 0-2.771 5.429h9.008l-.05-1.69Z"/><path fill="#FFDA44" d="M149.246 192.175h.421a9.144 9.144 0 0 0 5.248-1.809 9.216 9.216 0 0 0 3.249-4.52 9.428 9.428 0 0 1-.4-2.726c.001-.455.038-.909.11-1.358h-1.461v.06l-.941-.06h-1.141l1.111 1.78-1.522.896-1-2.012-1.001 2.012-1.592-.896 1.171-1.78h-.64l-1.522.06v-.091h-9.008a9.573 9.573 0 0 0-.08 1.208 9.23 9.23 0 0 0 2.615 6.472 9.137 9.137 0 0 0 6.383 2.764Z"/><path fill="#EF7D00" d="M158.544 181.73a9.474 9.474 0 0 0-.32-1.519 8.58 8.58 0 0 0-.35 1.519h.67Z"/><path fill="#FFDA44" d="M158.544 181.731h-.67a8.6 8.6 0 0 0-.11 1.359 9.428 9.428 0 0 0 .4 2.726 9.189 9.189 0 0 0 .38-4.085Z"/><path fill="#187228" d="m154.24 180.171 1.171-1.861-1.531-.895-1.001 1.961-.991-1.961-1.521.895 1.171 1.861-2.192-.121v1.711h1.531l.661-.03-.02.03h2.772l-.05-.081 1.221.081h.951v-1.711l-2.172.121ZM149.346 181.821l1.531-.06h-1.531v.06ZM156.411 181.821v-.06h-.95l.95.06ZM150.347 183.542l1.541.895 1.011-1.962.981 1.962 1.521-.895-1.111-1.781h-2.772l-1.171 1.781Z"/><path fill="#EF7D00" d="M124.303 100.269h-99.9v40.132h99.9v-40.132Z"/><path fill="#E30613" d="M120.39 43.264v57.085h102.732V43.264H120.39Z"/><path fill="#221657" d="m96.168 100.36 14.333-13.934a21.072 21.072 0 0 1 14.683-5.976h80.463v19.91H96.168Z"/><path fill="#EF7D00" d="M46.804 96.054a28.439 28.439 0 0 1-1.001-7.485 27.888 27.888 0 0 1 6.115-17.506 27.983 27.983 0 0 0-9.073 13.231 28.117 28.117 0 0 0-.335 16.066.77.77 0 0 0 .05.141l4.294-4.286a.702.702 0 0 0-.05-.16Z"/><path fill="#FFDA44" d="M73.618 116.538c-5.3 0-10.49-1.521-14.958-4.385a27.923 27.923 0 0 1-10.265-11.783 27.126 27.126 0 0 1-1.542-4.155l-4.293 4.326a27.98 27.98 0 0 0 7.884 12.882 27.763 27.763 0 0 0 13.406 6.869 27.67 27.67 0 0 0 15.003-1.153 27.823 27.823 0 0 0 12.21-8.839 27.574 27.574 0 0 1-17.445 6.238Z"/><path fill="#0F9A40" d="M97.15 92.884a28.065 28.065 0 0 0-4.268-14.903A27.864 27.864 0 0 0 81.37 67.656a27.69 27.69 0 0 0-15.215-2.57 27.74 27.74 0 0 0-14.236 5.976 28.002 28.002 0 0 0-5.547 11.824 28.078 28.078 0 0 0 .412 13.066h50.175a28.53 28.53 0 0 0 .19-3.068Z"/><path fill="#fff" d="M46.783 95.962c.005.03.005.06 0 .09.415 1.48.947 2.923 1.592 4.317a27.904 27.904 0 0 0 7.691 9.918 27.714 27.714 0 0 0 11.241 5.521c4.116.958 8.395.959 12.511.005a27.734 27.734 0 0 0 11.245-5.514 27.994 27.994 0 0 0 5.065-9.96c.39-1.445.668-2.919.83-4.407l-50.175.03Z"/><path fill="#0069B4" d="M241.319 128.5c23.311 0 42.208-18.995 42.208-42.426s-18.897-42.426-42.208-42.426-42.208 18.995-42.208 42.426 18.897 42.426 42.208 42.426Z"/><path fill="#fff" d="M250.887 118.891a41.863 41.863 0 0 1-19.727-4.92 42.246 42.246 0 0 1-13.689-11.585 42.501 42.501 0 0 1-7.681-16.247 42.619 42.619 0 0 1-.293-17.985 42.536 42.536 0 0 1 7.149-16.49 42.354 42.354 0 0 0-12.08 13.581 42.617 42.617 0 0 0-2.839 35.47 42.43 42.43 0 0 0 9.766 15.348 42.168 42.168 0 0 0 15.27 9.814 41.993 41.993 0 0 0 35.288-2.859 42.266 42.266 0 0 0 13.509-12.146 41.888 41.888 0 0 1-24.673 8.019Z"/><path fill="#EF7D00" d="M250.887 118.891a41.863 41.863 0 0 1-19.727-4.92 42.246 42.246 0 0 1-13.689-11.585 42.501 42.501 0 0 1-7.681-16.247 42.619 42.619 0 0 1-.293-17.985 42.536 42.536 0 0 1 7.149-16.49 42.354 42.354 0 0 0-12.08 13.581 42.617 42.617 0 0 0-2.839 35.47 42.43 42.43 0 0 0 9.766 15.348 42.168 42.168 0 0 0 15.27 9.814 41.993 41.993 0 0 0 35.288-2.859 42.266 42.266 0 0 0 13.509-12.146 41.888 41.888 0 0 1-24.673 8.019Z"/><path fill="#fff" d="M240.318 103.911c0 .81-.32 1.587-.89 2.159a3.028 3.028 0 0 1-4.296 0 3.059 3.059 0 0 1-.89-2.159c0-2.847 3.003-6.58 3.003-6.58s3.073 3.461 3.073 6.58ZM229.268 88.366c0 .81-.32 1.586-.89 2.159a3.03 3.03 0 0 1-4.296 0 3.06 3.06 0 0 1-.89-2.16c0-2.846 3.003-6.579 3.003-6.579s3.073 3.461 3.073 6.58ZM240.318 75.509c0 .81-.32 1.586-.89 2.159a3.03 3.03 0 0 1-4.296 0 3.06 3.06 0 0 1-.89-2.16c0-2.847 3.003-6.569 3.003-6.569s3.073 3.45 3.073 6.57ZM229.268 61.001c0 .8-.316 1.569-.879 2.135a2.995 2.995 0 0 1-4.247 0 3.026 3.026 0 0 1-.879-2.135c0-2.847 3.002-6.58 3.002-6.58s3.003 3.421 3.003 6.58ZM262.898 103.911c0 .81-.32 1.587-.889 2.159a3.03 3.03 0 0 1-4.297 0 3.062 3.062 0 0 1-.889-2.159c0-2.847 3.002-6.58 3.002-6.58s3.073 3.461 3.073 6.58ZM251.848 88.366c0 .81-.32 1.586-.89 2.159a3.028 3.028 0 0 1-4.296 0 3.065 3.065 0 0 1-.89-2.16c0-2.846 3.003-6.579 3.003-6.579s3.073 3.461 3.073 6.58ZM262.898 75.509c0 .81-.32 1.586-.889 2.159a3.032 3.032 0 0 1-4.297 0 3.063 3.063 0 0 1-.889-2.16c0-2.847 3.002-6.569 3.002-6.569s3.073 3.45 3.073 6.57ZM251.848 61.001c0 .8-.316 1.569-.879 2.135a2.995 2.995 0 0 1-4.247 0 3.026 3.026 0 0 1-.879-2.135c0-2.847 3.002-6.58 3.002-6.58s3.003 3.421 3.003 6.58Z"/><path fill="#9E0942" d="M42.47 137.796a1.994 1.994 0 0 0 0 .242 2.145 2.145 0 0 0 0 .251v-.493ZM63.418 138.279c.006 0 .01-.108.01-.241 0-.134-.004-.242-.01-.242-.005 0-.01.108-.01.242 0 .133.005.241.01.241Z"/><path fill="#FFDA44" d="M61.646 79.695c.28.012.554-.087.763-.275.21-.187.338-.45.358-.73l.17-2.013.841.07c-1.2 4.659-1.761 12.375 5.535 16.893 7.597 4.688 15.264-1.006 19.197-4.92l.481.332a14.544 14.544 0 0 1-3.037 5.763 14.447 14.447 0 0 1-5.24 3.845 14.68 14.68 0 0 1-10.661.178 14.778 14.778 0 0 1-7.996-7.09 14.578 14.578 0 0 1-.41-12.053Z"/><path fill="#EF7D00" d="M69.314 93.599c-7.296-4.518-6.736-12.234-5.535-16.892h.35l-.25 3.018h.09a14.798 14.798 0 0 0 1.642 4.286 14.53 14.53 0 0 0 4.23 4.618 14.412 14.412 0 0 0 12.012 2.13 14.457 14.457 0 0 0 5.547-2.885l1.111.775c-3.933 3.913-11.6 9.638-19.197 4.95Z"/><path fill="#FFDA44" d="M60.296 78.739a1.245 1.245 0 0 0 1.631-.534l1.111-2.062.841.463c-3.373 4.306-7.497 12.073-1.952 20.121 5.765 8.431 16.335 6.006 22.24 3.773l.35.573a16.451 16.451 0 0 1-5.795 4.602 16.373 16.373 0 0 1-7.216 1.586 16.752 16.752 0 0 1-11.183-4.745 16.92 16.92 0 0 1-5.082-11.08 16.587 16.587 0 0 1 1.158-6.9c.872-2.19 2.2-4.167 3.897-5.797Z"/><path fill="#EF7D00" d="M61.927 96.757c-5.545-8.048-1.421-15.845 1.952-20.121l.35.191-1.641 3.018.1.05a16.462 16.462 0 0 0-.25 5.252 16.607 16.607 0 0 0 2.289 6.77 16.513 16.513 0 0 0 4.916 5.166 16.415 16.415 0 0 0 6.625 2.6 16.38 16.38 0 0 0 7.098-.45l.801 1.317c-5.905 2.184-16.475 4.608-22.24-3.793Z"/><path fill="#E30613" d="M314.595 76.465 228.737 156.6h85.858V76.465Z"/><path fill="#FFDA44" d="M244.191 128.289c-1.271 1.278-.44 2.636-.86 3.954l8.547 8.592c.421-1.308-.41-2.666.871-3.954.12-.114.24-.215.36-.302l-8.557-8.592c-.13.089-.251.19-.361.302ZM237.775 134.737c-1.351 1.358-.34 2.797-1.001 4.175l8.638 8.612c.611-1.389-.4-2.827.951-4.185l.18-.161-8.557-8.602-.211.161ZM249.807 125.541l8.557 8.602c.261-1.238-.4-2.505.801-3.712l-8.548-8.592c-1.201 1.207-.55 2.475-.81 3.702Z"/><path fill="#0C5728" d="m231.4 141.186 8.558 8.592-8.558-8.612v.02Z"/><path fill="#187228" d="M236.284 139.687c-1.591 1.599-3.303-.101-4.904 1.479l8.558 8.602c1.601-1.58 3.313.12 4.904-1.479a2.6 2.6 0 0 0 .571-.765l-8.558-8.602c-.138.291-.332.55-.571.765ZM242.7 133.237c-1.541 1.55-3.193 0-4.744 1.328l8.558 8.602c1.551-1.318 3.203.222 4.744-1.328.289-.276.503-.623.621-1.006l-8.548-8.592a2.506 2.506 0 0 1-.631.996ZM249.116 126.788c-1.481 1.489-3.063.121-4.564 1.197l8.557 8.592c1.492-1.066 3.083.302 4.565-1.187.35-.336.59-.771.69-1.248l-8.558-8.601a2.41 2.41 0 0 1-.69 1.247Z"/><path fill="#FFDA44" d="M263.428 108.961c-1.281 1.288-.45 2.636-.87 3.954l8.557 8.602c.421-1.318-.41-2.676.871-3.954.104-.114.222-.215.35-.302l-8.557-8.602a3.069 3.069 0 0 0-.351.302ZM257.013 115.409c-1.352 1.359-.351 2.797-1.001 4.176l8.557 8.601c.601-1.378-.4-2.817.951-4.175l.18-.171-8.557-8.602-.13.171ZM269.044 106.274l8.548 8.592c.26-1.237-.391-2.505.81-3.702l-8.557-8.602c-1.191 1.157-.541 2.425-.801 3.712Z"/><path fill="#0C5728" d="m250.597 121.859 8.558 8.562-8.558-8.602v.04Z"/><path fill="#187228" d="M255.522 120.36c-1.602 1.61-3.303-.101-4.905 1.479l8.558 8.582c1.591-1.58 3.303.12 4.904-1.479.223-.226.406-.488.541-.775l-8.558-8.602c-.13.296-.314.565-.54.795ZM261.938 113.912c-1.542 1.549-3.193 0-4.745 1.328l8.558 8.602c1.551-1.318 3.203.221 4.744-1.328a2.59 2.59 0 0 0 .621-1.006l-8.558-8.602a2.377 2.377 0 0 1-.62 1.006ZM268.353 107.463c-1.481 1.499-3.072.121-4.574 1.197l8.558 8.602c1.501-1.076 3.083.292 4.574-1.197.348-.337.585-.772.681-1.248l-8.548-8.541a2.42 2.42 0 0 1-.691 1.187Z"/><path fill="#FFDA44" d="M276.25 96.083c-1.351 1.359-.35 2.797-1 4.186l8.557 8.591c.611-1.378-.4-2.817.951-4.175l.18-.171-8.497-8.592-.191.161Z"/><path fill="#0C5728" d="m269.834 102.532 8.548 8.602-8.558-8.602h.01Z"/><path fill="#187228" d="M274.759 101.034c-1.601 1.61-3.313-.1-4.914 1.479l8.597 8.602c1.602-1.579 3.313.131 4.905-1.479a2.32 2.32 0 0 0 .54-.774l-8.597-8.622a2.52 2.52 0 0 1-.531.794ZM281.175 94.584c-1.551 1.56-3.193 0-4.744 1.338l8.547 8.592c1.552-1.318 3.203.222 4.745-1.328a2.51 2.51 0 0 0 .63-1.006l-8.557-8.602a2.472 2.472 0 0 1-.621 1.006Z"/><path fill="#FFDA44" d="M224.964 147.695c-1.271 1.288-.45 2.646-.871 3.954l8.558 8.602c.42-1.308-.41-2.666.871-3.954.106-.112.224-.213.35-.302l-8.548-8.602c-.12.088-.24.188-.36.302ZM218.549 154.145c-1.352 1.358-.341 2.797-.951 4.185l8.557 8.592c.601-1.378-.4-2.817 1.001-4.175l.18-.161-8.557-8.602-.23.161ZM230.579 144.959l8.558 8.602c.26-1.238-.401-2.505.801-3.713l-8.538-8.591c-1.211 1.237-.561 2.464-.821 3.702Z"/><path fill="#0C5728" d="m212.133 160.604 8.558 8.602-8.538-8.602h-.02Z"/><path fill="#187228" d="M217.057 159.093c-1.592 1.61-3.303-.101-4.905 1.489l8.558 8.592c1.602-1.58 3.303.131 4.904-1.479.225-.224.408-.486.541-.775l-8.558-8.592c-.126.29-.31.55-.54.765ZM223.473 152.645c-1.542 1.56-3.193 0-4.744 1.339l8.557 8.601c1.552-1.328 3.203.212 4.745-1.338.29-.275.503-.622.62-1.006l-8.558-8.592a2.244 2.244 0 0 1-.62.996ZM229.888 146.196c-1.481 1.499-3.062.121-4.564 1.197l8.548 8.602c1.501-1.076 3.083.302 4.574-1.197.35-.332.591-.764.691-1.237l-8.558-8.602a2.35 2.35 0 0 1-.691 1.237Z"/><path fill="#0069B4" d="M197.88 177.505V237.9h9.358v-61.079l-9.358.684Z"/><path fill="#221657" d="M302.884 181.116h-99.179v56.964h99.179v-56.964Z"/><path fill="#fff" d="m215.886 156.387-15.154 14.709c-6.375 7.264-1.101 16.751 7.497 16.751h94.465l40.397-31.46H215.886Z"/><path fill="#9E0942" d="M210.951 131.216a9.657 9.657 0 0 1 .521 3.35c0 8.189-10.7 21.409-14.753 21.409a4.27 4.27 0 0 1-2.002-1.006c2.412 2.596 4.624 4.336 5.625 4.336 4.054 0 14.753-13.22 14.753-21.409-.03-3.984-1.601-5.835-4.144-6.68Z"/><path fill="#E30613" d="M211.472 134.566a9.657 9.657 0 0 0-.521-3.35 13.417 13.417 0 0 0-3.182-.594H192.505c-4.174.413-6.946 1.942-6.946 7.244s4.874 12.485 9.128 17.103a4.27 4.27 0 0 0 2.002 1.006c4.083 0 14.783-13.22 14.783-21.409Z"/><path fill="#fff" d="M192.775 141.146a3.632 3.632 0 0 0 3.623-3.642c0-2.011-1.622-3.642-3.623-3.642-2.001 0-3.623 1.631-3.623 3.642a3.632 3.632 0 0 0 3.623 3.642Z"/><path fill="#187228" d="m209.02 121.919-5.645 3.551.46-6.258-3.463-.795v12.234H207.769l5.365-2.696a26.353 26.353 0 0 1-4.114-6.036Z"/><path fill="#0F9A40" d="m196.599 119.212.4 6.258-5.465-3.461a26.332 26.332 0 0 1-4.114 5.966v.061l5.115 2.615h7.837v-12.234l-3.773.795Z"/><path fill="#0069B4" d="M112.603 175.725h-88.2v62.266h88.2v-62.266Z"/><path fill="#221657" d="M129.248 180.785a2.49 2.49 0 0 1-1.939-.924 2.534 2.534 0 0 1-.513-2.094l.08-.423v-.171l.06-.342c.075-.364.229-.708.45-1.006.2-.282.391-.553.571-.835 9.588-15.604 14.012-39.327 15.113-46.058l-2.752-1.258a3.852 3.852 0 0 1-1.181-.855 2.518 2.518 0 0 1 .462-3.813 2.483 2.483 0 0 1 1.369-.412 2.418 2.418 0 0 1 1.532.533l3.263 1.509 11.27-5.212.21-.221 3.653-3.421a2.515 2.515 0 0 1 2.573-.523 2.521 2.521 0 0 1 1.621 2.012c.14 1.147.591 7.606-3.673 22.486a55.285 55.285 0 0 1-15.424 25.444l-15.014 14.819a2.48 2.48 0 0 1-1.731.765Z"/><path fill="#1F1D56" d="M162.648 117.624c.06.483.661 6.64-3.593 21.479a52.945 52.945 0 0 1-14.733 24.297l-15.074 14.87.08-.423a32.54 32.54 0 0 0 1.101-1.7c-.31.453-.661.906-1.001 1.348v-.161c.24-.332.471-.674.681-1.006 11.64-18.934 15.754-48.875 15.754-48.875l-4.454-2.012a1.52 1.52 0 0 1-.41-.282c.096.091.203.169.32.232l4.444 2.012 12.631-5.836a.83.83 0 0 0 .561-.523l3.653-3.42h.04Zm-.04-5.031a4.992 4.992 0 0 0-3.413 1.348l-3.583 3.401-9.809 4.537-2.002-.935a4.981 4.981 0 0 0-6.691.832 5.05 5.05 0 0 0 .205 6.774 6.305 6.305 0 0 0 1.812 1.338l.14.07 1.001.463c-1.481 8.36-5.835 29.247-14.453 43.261l-.451.664a4.92 4.92 0 0 0-.89 2.012V176.7a.977.977 0 0 0 0 .171l-.08.423a5.046 5.046 0 0 0 2.492 5.443 4.983 4.983 0 0 0 5.865-.845l15.014-14.759a58.179 58.179 0 0 0 16.094-26.651c4.404-15.343 3.904-22.245 3.754-23.472a5.048 5.048 0 0 0-1.058-2.523 5.014 5.014 0 0 0-3.937-1.894h-.01Z"/><path fill="#221657" stroke="#1F1D56" stroke-linejoin="round" stroke-width="5" d="M51.608 153.561a15.71 15.71 0 0 0 9.91-3.441L77.4 136.81H26.826L9.49 153.702a.82.82 0 0 1 .46-.121l41.658-.02Z"/><path fill="#187228" stroke="#187228" stroke-linejoin="round" stroke-width="5" d="m112.053 195.302 12.491 37.325 10.379-9.759-12.781-36.621-10.089 9.055Z"/><path fill="#187228" d="M99.861 120.23a2.511 2.511 0 0 1-2.31-1.539 2.53 2.53 0 0 1 .519-2.737l12.411-12.697c1.171-1.529 10.009-12.294 27.245-12.294a29.895 29.895 0 0 1 13.271 3.046 30.06 30.06 0 0 1 10.57 8.624l12.862-.151a2.485 2.485 0 0 1 2.314 1.552c.125.305.189.633.188.964v.633a2.553 2.553 0 0 1-.711 1.761l-5.315 5.473c-.1.145-.213.28-.34.403l-3.663 3.43a2.503 2.503 0 0 1-3.834-.523h-12.391a2.504 2.504 0 0 1-2.232-1.378c-1.571-3.129-8.117-9.608-18.296-9.608a28.333 28.333 0 0 0-16.075 4.748s-5.094 3.512-12.621 9.759a2.451 2.451 0 0 1-1.592.534Z"/><path fill="#187228" d="M137.726 93.427a27.506 27.506 0 0 1 12.722 3.075 27.662 27.662 0 0 1 9.888 8.616l14.133-.171v.633l-5.615 5.725-3.654 3.421a.911.911 0 0 0-.901-1.198h-13.622c-2.072-4.135-9.588-10.986-20.528-10.986a30.639 30.639 0 0 0-17.456 5.252s-5.115 3.511-12.832 9.92l12.522-12.868s8.287-11.419 25.343-11.419Zm0-5.03c-17.847 0-27.435 10.976-29.117 13.139l-12.33 12.656a5.046 5.046 0 0 0-.105 6.923 4.985 4.985 0 0 0 6.871.472c7.186-5.976 12.1-9.387 12.45-9.628a25.49 25.49 0 0 1 14.654-4.306c8.928 0 14.773 5.654 16.014 8.23a5.025 5.025 0 0 0 1.845 2.012 4.979 4.979 0 0 0 2.619.744h11.29c.148.132.306.253.471.362a4.985 4.985 0 0 0 6.175-.513l3.654-3.43c.208-.191.399-.4.57-.624l5.175-5.342a5.047 5.047 0 0 0 1.421-3.512v-.633a5.04 5.04 0 0 0-1.466-3.557 4.987 4.987 0 0 0-3.538-1.474h-.03l-11.631.141a32.603 32.603 0 0 0-11.224-8.622 32.445 32.445 0 0 0-13.799-3.038h.031Z"/><path fill="#221657" d="M60.867 156.7c6.125-7.395 12.27-14.085 18.096-19.89h-.14c-5.815 5.855-11.94 12.495-18.016 19.9l.06-.01ZM126.495 123.58c0 .101.1.202.16.302.095.178.202.35.321.513.229.34.49.657.78.946a6.073 6.073 0 0 0 4.795 2.012 6.929 6.929 0 0 0 4.764-1.962 6.425 6.425 0 0 0 2.002-4.869 7.267 7.267 0 0 0-.801-3.139c.478.961.745 2.015.781 3.089a7.67 7.67 0 0 1-1.982 4.809 6.594 6.594 0 0 1-9.559 0 6.317 6.317 0 0 1-.78-.946 4.4 4.4 0 0 1-.321-.513 2.905 2.905 0 0 1-.16-.302 7.13 7.13 0 0 1 1.071-7.596 6.58 6.58 0 0 0-1.071 7.656ZM104.406 180.724l-.18.131h9.198a31.4 31.4 0 0 0 10.329-1.741 33.158 33.158 0 0 1-10.379 1.61h-8.968ZM124.344 229.971l.45-.432-12.741-34.237 12.291 34.669Z"/><path fill="#221657" d="m111.862 195.362 12.922-12.988c-11.01 7.576-23.802 8.813-30.147 8.813l13.712 38.734 5.565-5.332-9.709-27.567c2.973-.664 5.635-1.016 7.657-1.66Z"/><path fill="#E30613" d="M85.078 186.761a61.33 61.33 0 0 0 11.61-5.836h7.538l.18-.13h-7.807c12.691-8.301 19.517-21.722 22.25-28.603a1.288 1.288 0 0 0-.311-1.006 50.644 50.644 0 0 1-2.722 4.447c-10.59 16.479-27.325 28.17-53.959 28.17H24.634a.88.88 0 0 1-.6-.201 14.205 14.205 0 0 0 5.454 3.36c5.595 2.012 15.164 4.085 28.406 4.085 9.04-.187 18.018-1.56 26.704-4.085h.12a.458.458 0 0 1 .36-.201Z"/><path fill="#0F9A40" d="M115.816 232.487a2.5 2.5 0 0 1-1.444-.459 2.529 2.529 0 0 1-.918-1.211l-11.611-32.989a2.523 2.523 0 0 1 1.812-3.29c1.161-.261 2.282-.473 3.333-.674a39.624 39.624 0 0 0 4.114-.925h.15c.237-.068.483-.102.731-.101a2.557 2.557 0 0 1 2.432 1.64l12.291 34.649a2.527 2.527 0 0 1-1.235 3.094 2.49 2.49 0 0 1-1.167.266h-8.488Z"/><path fill="#FED940" d="m112.053 195.302 12.251 34.72h-8.488l-1.902-5.383-9.708-27.566c3.002-.664 5.635-1.007 7.656-1.66l.191-.061v-.05Zm0-4.98a5.27 5.27 0 0 0-1.512.231l-.19.061c-1.261.354-2.541.64-3.833.855-1.001.201-2.192.422-3.403.694a5.013 5.013 0 0 0-3.293 2.472 5.054 5.054 0 0 0-.34 4.118l9.718 27.566 1.892 5.383c.346.981.986 1.83 1.832 2.43.846.6 1.856.921 2.892.92h8.488a4.996 4.996 0 0 0 4.09-2.132 5.048 5.048 0 0 0 .624-4.589l-12.251-34.719a5.027 5.027 0 0 0-1.83-2.422 4.99 4.99 0 0 0-2.884-.919v.051Z"/><path fill="#0F9A40" d="M99.76 232.486a2.473 2.473 0 0 1-1.437-.455 2.502 2.502 0 0 1-.914-1.205L82.805 190.06a102.701 102.701 0 0 1-24.912 3.481c-15.454 0-24.972-2.656-29.266-4.235a16.708 16.708 0 0 1-6.546-4.146 3.89 3.89 0 0 1-.66-1.157 2.322 2.322 0 0 1-.08-.281 3.04 3.04 0 0 1-.091-.584v-.332a3.369 3.369 0 0 1 .93-2.173l6.036-6.117a26.349 26.349 0 0 1-13.326-6.141 26.555 26.555 0 0 1-8.013-12.34 2.685 2.685 0 0 1-.11-.745c.004-.07.004-.141 0-.211a4.134 4.134 0 0 1 .43-2.475l.17-.262c.207-.277.457-.518.741-.714a3.237 3.237 0 0 1 1.872-.563h41.637c3.031.024 5.978-.999 8.348-2.898l15.834-13.29 11.01-9.055a311.826 311.826 0 0 1 6.146-5.503c1.741-1.519 3.543-3.018 5.365-4.568 7.716-6.418 12.801-9.91 13.011-10.06a33.219 33.219 0 0 1 18.867-5.604c10.95 0 18.807 6.258 21.96 10.986h12.181a3.445 3.445 0 0 1 2.833 1.469 3.384 3.384 0 0 1 .478 2.923 3.361 3.361 0 0 1-2.01 2.168l-11.31 5.241c-.921 6.238-5.195 31.561-15.694 48.624-.23.372-.591.946-1.001 1.529a43.965 43.965 0 0 1-11.41 11.419c-10.009 6.922-21.37 8.723-28.026 9.145l12.522 35.545a2.51 2.51 0 0 1-.321 2.284 2.507 2.507 0 0 1-2.001 1.066h-8.638Z"/><path fill="#FFDA44" d="M130.149 102.623c10.939 0 18.456 6.851 20.528 10.986h13.662a.915.915 0 0 1 .901 1.198.845.845 0 0 1-.56.523l-12.632 5.835s-3.893 30.082-15.534 49.016c-.21.332-.56.875-.941 1.429a40.867 40.867 0 0 1-6.105 7.042 41.746 41.746 0 0 1-4.644 3.703c-11.01 7.575-23.802 8.813-30.147 8.813l13.612 38.854h-8.528l-15.384-42.959a102.177 102.177 0 0 1-26.484 4.024c-13.242 0-22.81-2.012-28.405-4.084a14.195 14.195 0 0 1-5.455-3.361 1.455 1.455 0 0 1-.25-.412.76.76 0 0 1 0-.161.86.86 0 0 1 .2-.564l9.899-9.95c-13.652 0-21.85-8.239-24.582-17.163 0-.463-.14-1.067.06-1.419a.537.537 0 0 1 .13-.131.812.812 0 0 1 .46-.12h41.658a15.71 15.71 0 0 0 9.909-3.441L77.4 136.81l11.01-9.055c2.132-2.012 4.184-3.803 6.135-5.493a330.757 330.757 0 0 1 5.325-4.538c7.707-6.418 12.822-9.93 12.822-9.93a30.639 30.639 0 0 1 17.456-5.171Zm0-5.03a35.663 35.663 0 0 0-20.239 6.036c-.22.141-5.385 3.703-13.202 10.192-1.861 1.509-3.683 3.088-5.434 4.628a338.562 338.562 0 0 0-6.126 5.493l-10.89 8.974-15.814 13.28a10.672 10.672 0 0 1-6.836 2.334H9.95a5.736 5.736 0 0 0-3.293 1.006 5.353 5.353 0 0 0-1.391 1.379c-.08.11-.18.271-.25.392a6.578 6.578 0 0 0-.761 3.954v.101c.008.47.083.938.22 1.388a28.946 28.946 0 0 0 7.076 11.896 28.736 28.736 0 0 0 11.771 7.219l-2.922 2.928a5.881 5.881 0 0 0-1.652 3.944v.513c.02.367.076.731.17 1.087.04.174.09.345.15.513a6.492 6.492 0 0 0 1.061 1.911 18.875 18.875 0 0 0 7.637 4.93c4.454 1.64 14.293 4.386 30.127 4.386a103.95 103.95 0 0 0 23.331-3.018l13.833 38.613a5.025 5.025 0 0 0 1.828 2.413 4.993 4.993 0 0 0 2.876.918h8.528a4.982 4.982 0 0 0 2.3-.565 5.012 5.012 0 0 0 1.785-1.564c.462-.658.76-1.417.869-2.214a5.042 5.042 0 0 0-.24-2.368l-11.43-32.476c7.006-.795 17.015-3.079 26.023-9.276a47.83 47.83 0 0 0 5.205-4.145 46.951 46.951 0 0 0 6.856-7.928c.36-.533.751-1.127 1.051-1.61 10.099-16.419 14.553-40.152 15.844-48.291l10.009-4.628a5.838 5.838 0 0 0 2.153-1.499 5.888 5.888 0 0 0 1.447-4.921 5.899 5.899 0 0 0-.997-2.434 6.018 6.018 0 0 0-2.115-1.832 5.977 5.977 0 0 0-2.71-.673H153.43a27.685 27.685 0 0 0-7.007-6.258 30.255 30.255 0 0 0-16.264-4.728h-.01Z"/><path fill="#fff" d="m102.333 164.044-.06.06a72.811 72.811 0 0 0 15.244-12.556l.22-.211a1.105 1.105 0 0 0-.25.191 73.453 73.453 0 0 1-15.154 12.516ZM135.103 114.656a3.336 3.336 0 0 0-2.222 1.007 2.627 2.627 0 0 0-1.001 2.233c.049.84.406 1.632 1.001 2.223a2.566 2.566 0 0 0 2.222 1.007 3.336 3.336 0 0 0 2.222-1.007 3.605 3.605 0 0 0 0-4.396 6.819 6.819 0 0 0-.641-.584 6.162 6.162 0 0 0-3.142-1.398 6.84 6.84 0 0 1 2.812 1.177 2.604 2.604 0 0 0-1.251-.262Z"/><path fill="#187228" d="M61.857 183.744c26.634 0 43.369-11.671 53.959-28.17a50.886 50.886 0 0 0 2.722-4.447 1.386 1.386 0 0 0-.771.151l-.22.211a72.846 72.846 0 0 1-15.264 12.616 56.322 56.322 0 0 1-11.57 5.383 63.239 63.239 0 0 1-20.478 3.018H50.367a.764.764 0 0 1-.781-.674 1.206 1.206 0 0 1 .1-.705l.18-.241a.755.755 0 0 1 0-.141 260.87 260.87 0 0 1 10.9-14.035 294.742 294.742 0 0 1 18.016-19.9 295.79 295.79 0 0 1 9.699-9.326l-11.08 9.326-15.884 13.331a15.712 15.712 0 0 1-9.91 3.42H9.95a.82.82 0 0 0-.46.121.537.537 0 0 0-.13.131c-.2.352-.06 1.006-.06 1.418 2.702 8.985 10.91 17.224 24.552 17.224l-9.9 9.951a.856.856 0 0 0-.2.563.76.76 0 0 0 0 .161c.06.15.145.29.25.412.17.14.383.212.601.202h37.254Z"/><path fill="#0F9A40" d="M164.339 113.609h-13.662l-3.353 4.165c-.25.503-.32.825-.06 1.097.107.091.225.168.35.231l4.444 2.012 12.582-5.784a.85.85 0 0 0 .56-.524.916.916 0 0 0-.449-1.095.906.906 0 0 0-.412-.102ZM135.603 172.675c-.46.555-.947 1.085-1.461 1.59a25.062 25.062 0 0 1-10.389 6.298 31.168 31.168 0 0 1-10.33 1.741H96.688a61.386 61.386 0 0 1-11.61 5.835.468.468 0 0 0-.36.261.638.638 0 0 0 0 .775L99.73 231.43h8.558l-13.653-38.784c6.346 0 19.128-1.237 30.148-8.813a41.746 41.746 0 0 0 4.644-3.703 40.873 40.873 0 0 0 6.105-7.042 40.45 40.45 0 0 0 1.111-1.7c-.33.432-.67.885-1.041 1.287ZM126.505 123.519c.047.103.101.204.16.302a4.4 4.4 0 0 0 .321.513c.229.34.49.656.78.945a6.595 6.595 0 0 0 9.559 0 7.668 7.668 0 0 0 1.922-4.799 7.499 7.499 0 0 0-1.862-4.698 3.607 3.607 0 0 1 0 4.397 3.34 3.34 0 0 1-2.222 1.006 2.548 2.548 0 0 1-1.238-.221 2.572 2.572 0 0 1-.984-.785 3.419 3.419 0 0 1-1.001-2.224 2.627 2.627 0 0 1 1.001-2.233 3.33 3.33 0 0 1 2.222-1.006 2.58 2.58 0 0 1 1.271.241 6.838 6.838 0 0 0-2.813-1.177 8.36 8.36 0 0 0-1-.071 6.992 6.992 0 0 0-4.795 2.013c-.07.07-.12.151-.18.221a7.114 7.114 0 0 0-1.674 3.62 7.141 7.141 0 0 0 .533 3.956Z"/><path fill="#0F9A40" d="M111.862 195.362c-2.002.644-4.684 1.006-7.657 1.66l9.709 27.567 1.902 5.382h8.487l-12.251-34.669-.19.06Z"/><path fill="#E30613" d="m49.866 170.874-.18.242a1.202 1.202 0 0 0-.1.704c.022.19.115.365.26.49.144.125.33.191.52.184h19.888a63.24 63.24 0 0 0 20.479-3.018 56.04 56.04 0 0 0 11.63-5.443 73.451 73.451 0 0 0 15.124-12.485c.074-.076.158-.14.25-.191.237-.124.505-.176.771-.151a1.3 1.3 0 0 1 .31 1.006c-2.703 6.861-9.529 20.282-22.22 28.512h16.775a33.158 33.158 0 0 0 10.379-1.61 25.065 25.065 0 0 0 10.39-6.298 17.046 17.046 0 0 0 1.491-1.761c.25-.332.47-.664.681-1.006 11.64-18.934 15.754-48.875 15.754-48.875l-4.454-2.062a1.806 1.806 0 0 1-.4-.282c-.261-.272-.191-.593.06-1.097l3.423-4.135c-2.072-4.134-9.589-10.986-20.529-10.986a30.638 30.638 0 0 0-17.476 5.181s-5.114 3.512-12.831 9.92a256.896 256.896 0 0 0-5.325 4.538 344.358 344.358 0 0 0-6.136 5.493 324.445 324.445 0 0 0-9.438 9.055c-5.825 5.845-12.01 12.495-18.096 19.89a279.858 279.858 0 0 0-11 14.185Zm77.71-54.951c.06-.071.11-.151.18-.222a6.988 6.988 0 0 1 4.794-2.012c.335.004.669.027 1.001.07a6.162 6.162 0 0 1 3.143 1.399c.225.181.439.376.641.583.425.49.788 1.03 1.081 1.61.499.972.773 2.045.8 3.139a6.437 6.437 0 0 1-1.901 4.9 6.928 6.928 0 0 1-4.795 2.012 6.072 6.072 0 0 1-4.794-2.012 6.324 6.324 0 0 1-.781-.946 4.444 4.444 0 0 1-.32-.513 4.407 4.407 0 0 1-.16-.302 6.588 6.588 0 0 1 1.111-7.706Z"/></g><path fill="#FEFEFE" d="M227.986 167.532a.277.277 0 0 0-.065.312.277.277 0 0 0 .065.091.277.277 0 0 0 .317.066.277.277 0 0 0 .093-.066.295.295 0 0 0 .066-.091.282.282 0 0 0 0-.221.295.295 0 0 0-.066-.091.263.263 0 0 0-.205-.1.263.263 0 0 0-.205.1Z"/><path fill="#119860" d="M230.838 167.341h-1.241l-.31.372c-.06.061 0 .101 0 .131l.41.181 1.141-.523a.076.076 0 0 0 .057-.024.079.079 0 0 0 .023-.056.08.08 0 0 0-.08-.081Zm-4.614 6.107h-1.521a5.671 5.671 0 0 1-1.051.533.062.062 0 0 0-.015.021.05.05 0 0 0-.005.024.062.062 0 0 0 .02.046l1.361 3.833h.771l-1.231-3.521a4.44 4.44 0 0 0 3.803-1.932 2.587 2.587 0 0 1-2.132.996Zm2.172-5.513a.277.277 0 0 1-.317.066.277.277 0 0 1-.093-.066.274.274 0 0 1 0-.403.252.252 0 0 1 .205-.1.261.261 0 0 1 .205.1.612.612 0 0 0-.435-.188.602.602 0 0 0-.436.188.619.619 0 0 0 .436 1.053.589.589 0 0 0 .435-.188.635.635 0 0 0 0-.865.334.334 0 0 1 0 .403Zm-3.003 6.982 1.001 3.018h.781l-1.121-3.149c-.14.03-.39.06-.661.131Zm1.001-3.743c.094-.127.178-.262.251-.402h-.09a5.477 5.477 0 0 1-1.925 1.433 5.427 5.427 0 0 1-2.349.468h-1.802c-.06 0-.09-.07-.06-.131a24.933 24.933 0 0 1 4.064-4.416l-3.003 2.515a1.396 1.396 0 0 1-.901.312h-3.773c-.1 0-.07.1-.07.161a2.236 2.236 0 0 0 2.232 1.559l-.891.896a.07.07 0 0 0-.037.04.07.07 0 0 0 .002.055.071.071 0 0 0 .04.038.075.075 0 0 0 .055-.003h3.373a5.38 5.38 0 0 0 2.784-.593 5.42 5.42 0 0 0 2.1-1.932Z"/><path fill="#E30613" d="M260.155 177.906h2.763v-8.572h-2.763v3.149h-2.602v-3.149H254.8v8.572h2.753v-3.219h2.602v3.219Zm-32.629-9.507a.6.6 0 0 1-.138-.669.6.6 0 0 1 .138-.197.612.612 0 0 1 .435-.188.602.602 0 0 1 .436.188.637.637 0 0 1 0 .866.601.601 0 0 1-.871 0Zm.77 4.024a13.548 13.548 0 0 0 1.432-4.427l-.411-.181c-.06 0-.06-.07 0-.131l.311-.372a2.143 2.143 0 0 0-1.852-1.006 2.745 2.745 0 0 0-1.581.463c-.57.41-1.118.85-1.642 1.318a26.151 26.151 0 0 0-4.064 4.416c0 .061 0 .131.061.131h1.801a5.46 5.46 0 0 0 4.274-1.901.067.067 0 0 1 .013-.03.069.069 0 0 1 .056-.029c.011 0 .022.003.031.008.01.005.019.012.025.021a.064.064 0 0 1 .013.029.074.074 0 0 1-.002.033.066.066 0 0 1-.016.028 5.545 5.545 0 0 1-2.002 2.586h1.522a2.433 2.433 0 0 0 2.072-1.006l-.041.05Zm-1.551 2.012 1.181 3.37h3.353a97.034 97.034 0 0 0-2.142-5.795 4.254 4.254 0 0 1-2.392 2.495v-.07Zm-10.159 3.471h3.373l1.151-3.582h-3.283c-.44 1.057-.811 2.244-1.241 3.582Zm4.554-7.696 1.702-1.399c.37-1.006.75-2.012 1.121-2.837l.56 1.368a6.147 6.147 0 0 1 2.292-1.459c-.47-1.006-.811-1.78-1.001-2.092h-3.783c-.31.684-1.522 3.209-2.943 6.61h1.361a.87.87 0 0 0 .691-.191Zm20.889 6.73.19.936h2.192v-8.542h-2.762v5.956a1.722 1.722 0 0 1-1.152.594 1.073 1.073 0 0 1-.812-.353 1.092 1.092 0 0 1-.278-.844v-5.302h-2.803v5.956a1.868 1.868 0 0 1-1.241.593c-.711 0-1.111-.443-1.111-1.247v-5.302h-2.763v5.674c0 2.012.901 3.078 2.763 3.078a3.505 3.505 0 0 0 2.752-1.147 2.463 2.463 0 0 0 2.362 1.147 3.354 3.354 0 0 0 2.663-1.197Zm8.768-1.68a1.696 1.696 0 0 1-1.331.584c-.741 0-1.141-.685-1.141-2.013 0-1.65.43-2.454 1.331-2.454.384-.013.768.027 1.141.12v3.773-.01Zm-2.292 2.797h.09a2.88 2.88 0 0 0 2.542-1.117l.16.936h2.262v-8.22a11.953 11.953 0 0 0-3.873-.523c-2.763 0-4.244 1.68-4.244 4.799 0 2.857 1.051 4.105 3.063 4.105v.02Z"/><g filter="url(#b)" opacity=".5"><path fill="#000" d="M40.222 68h214v98h-214z"/></g><mask id="c" width="245" height="153" x="0" y="0" mask-type="alpha" maskUnits="userSpaceOnUse"><path fill="#E30613" d="M12.263 153H232.18c6.65 0 12.041-5.384 12.041-12.024V12.024c0-6.64-5.391-12.024-12.041-12.024H12.263C5.613 0 .222 5.384.222 12.024v128.952c0 6.64 5.39 12.024 12.04 12.024Z"/></mask><g mask="url(#c)"><path fill="#FFDA44" d="M250.781-6.6H-6.139v176.17h256.92V-6.6Z"/><path fill="#9E0942" d="M98.05-11.74H-11.04v31.02H98.05v-31.02Z"/><path fill="#E30613" d="M250.781-11.74H98.051v31.02h152.73v-31.02Z"/><path fill="#9E0942" d="M177.511 19.41c.15 1 .33 1.95.57 2.89a30.773 30.773 0 0 0 29.82 23.25 30.759 30.759 0 0 0 29.82-23.22c.24-.94.42-1.91.57-2.89l-60.78-.03Z"/><path fill="#0F9A40" d="M238.661 14.76a32.487 32.487 0 0 0-.2-3.43A30.752 30.752 0 0 0 187.4-8.174a30.747 30.747 0 0 0-10.249 22.936c.003 1.556.123 3.11.36 4.65h60.78a29.8 29.8 0 0 0 .37-4.65Z"/><path fill="#fff" d="M198.921 50.1c16.988 0 30.76-13.771 30.76-30.76 0-16.988-13.772-30.76-30.76-30.76s-30.76 13.772-30.76 30.76c0 16.989 13.772 30.76 30.76 30.76Z"/><path fill="#fff" d="M198.921 50.1c16.988 0 30.76-13.771 30.76-30.76 0-16.988-13.772-30.76-30.76-30.76s-30.76 13.772-30.76 30.76c0 16.989 13.772 30.76 30.76 30.76Z"/><path fill="#FFDA44" d="M198.921 40.38c11.62 0 21.04-9.42 21.04-21.04s-9.42-21.04-21.04-21.04-21.04 9.42-21.04 21.04 9.42 21.04 21.04 21.04Z"/><path fill="#FFDA44" d="M198.921 40.38c11.62 0 21.04-9.42 21.04-21.04s-9.42-21.04-21.04-21.04-21.04 9.42-21.04 21.04 9.42 21.04 21.04 21.04Z"/><path fill="#0069B4" d="M226.571 11.95a20.1 20.1 0 0 0-11.38 6 20.07 20.07 0 0 0 11.66 5.44 8.103 8.103 0 0 1-.28-11.44ZM187.371 27.24a31.251 31.251 0 0 0 27.83-9.28 31.23 31.23 0 0 0-28.25-7.9 13.64 13.64 0 0 1 .43 17.18h-.01Z"/><path fill="#221657" d="M187.371 27.24a13.635 13.635 0 0 0-.43-17.18 31.121 31.121 0 0 0-16 9 31.141 31.141 0 0 0 16.43 8.18Z"/><path fill="#0069B4" d="M181.321 20.95a2.11 2.11 0 1 0 0-4.22 2.11 2.11 0 0 0 0 4.22Z"/><path fill="#EF7D00" d="M97.89 15.02v-45.78l123.401 123.4h-123.4V15.02Z"/><path fill="#EF7D00" d="m126.121-4.93-11.29 11.29c1.63.34 3.29-.52 4.87 1.06l11.29-11.29c-1.58-1.58-3.24-.72-4.87-1.06Z"/><path fill="#187228" d="M124.491-5.84c-2-2-.16-4-1.57-6L111.631-.58c1.41 2-.39 4.07 1.57 6a3.18 3.18 0 0 0 1.63.91l11.29-11.26a3.18 3.18 0 0 1-1.63-.91Z"/><path fill="#EF7D00" d="M147.861 12.99c-1.69-1.68-3.47-.59-5.19-1.14l-11.3 11.29c1.73.55 3.51-.54 5.2 1.15.141.144.272.298.39.46l11.3-11.29a4.096 4.096 0 0 0-.4-.47ZM139.391 4.55c-1.78-1.78-3.67-.45-5.49-1.26l-11.29 11.26c1.81.8 3.7-.53 5.49 1.26l.22.23 11.29-11.28-.22-.21ZM151.461 20.4l-11.26 11.3c1.62.34 3.28-.52 4.87 1.06l11.28-11.29c-1.61-1.58-3.27-.72-4.89-1.07Z"/><path fill="#0C5728" d="m130.921-3.95-11.29 11.3 11.31-11.27-.02-.03Z"/><path fill="#187228" d="M132.891 2.55c-2.11-2.11.13-4.37-1.95-6.48l-11.29 11.3c2.08 2.11-.16 4.37 1.94 6.48a3.51 3.51 0 0 0 1 .71l11.31-11.3a3.297 3.297 0 0 1-1.01-.71ZM141.361 11.02c-2-2 0-4.21-1.75-6.26l-11.29 11.29c1.73 2.05-.29 4.23 1.74 6.27a3.27 3.27 0 0 0 1.31.82l11.3-11.29a3.131 3.131 0 0 1-1.31-.83ZM149.831 19.49c-2-2-.16-4.05-1.57-6l-11.3 11.26c1.41 2-.39 4.08 1.57 6a3.277 3.277 0 0 0 1.64.91l11.29-11.3a3.07 3.07 0 0 1-1.63-.87Z"/><path fill="#EF7D00" d="M173.201 38.27c-1.68-1.68-3.46-.59-5.19-1.14l-11.34 11.29c1.72.56 3.5-.54 5.19 1.15.147.145.281.302.4.47l11.29-11.3a3.377 3.377 0 0 0-.35-.47ZM164.681 29.8c-1.78-1.78-3.67-.45-5.48-1.25l-11.3 11.29c1.82.8 3.71-.52 5.49 1.26l.22.24 11.29-11.3a2.277 2.277 0 0 0-.22-.24ZM176.751 45.68l-11.29 11.3c1.62.34 3.29-.52 4.87 1.06l11.29-11.29c-1.58-1.58-3.25-.72-4.87-1.07Z"/><path fill="#0C5728" d="m156.201 21.34-11.28 11.29 11.28-11.27v-.02Z"/><path fill="#187228" d="M158.201 27.84c-2.11-2.11.13-4.37-1.94-6.48l-11.32 11.29c2.08 2.11-.16 4.37 1.95 6.48.287.297.626.538 1 .71l11.31-11.29a3.381 3.381 0 0 1-1-.71ZM166.651 36.31c-2-2 0-4.22-1.75-6.27l-11.29 11.3c1.73 2-.29 4.22 1.75 6.26a3.2 3.2 0 0 0 1.31.82l11.29-11.29a3.2 3.2 0 0 1-1.31-.82ZM175.121 44.78c-2-2-.16-4.06-1.57-6l-11.29 11.3c1.41 2-.4 4.07 1.57 6a3.138 3.138 0 0 0 1.63.91l11.29-11.3a3.149 3.149 0 0 1-1.63-.91Z"/><path fill="#EF7D00" d="M198.491 63.61c-1.69-1.69-3.47-.59-5.19-1.15l-11.3 11.3c1.73.55 3.51-.54 5.19 1.14.148.144.281.302.4.47l11.3-11.29a4.372 4.372 0 0 0-.4-.47ZM190.021 55.14c-1.78-1.78-3.67-.46-5.49-1.26l-11.33 11.29c1.81.81 3.7-.52 5.48 1.26.079.075.152.155.22.24l11.3-11.29-.18-.24ZM202.091 71.02l-11.29 11.29c1.62.34 3.28-.52 4.86 1.06l11.29-11.29c-1.58-1.53-3.24-.72-4.86-1.06Z"/><path fill="#0C5728" d="m181.551 46.67-11.29 11.29 11.29-11.3v.01Z"/><path fill="#187228" d="M183.521 53.17c-2.11-2.11.13-4.37-2-6.48l-11.29 11.3c2.08 2.11-.17 4.37 1.94 6.48.29.291.628.528 1 .7l11.29-11.29a3.191 3.191 0 0 1-.94-.71ZM191.991 61.64c-2-2 0-4.21-1.75-6.26l-11.3 11.29c1.74 2-.29 4.23 1.75 6.26.36.382.811.668 1.31.83l11.3-11.3a3.2 3.2 0 0 1-1.31-.82ZM200.461 70.11c-2-2-.16-4-1.57-6l-11.3 11.29c1.41 2-.39 4.07 1.57 6a3.096 3.096 0 0 0 1.64.91l11.29-11.29a3.138 3.138 0 0 1-1.63-.91Z"/><path fill="#221657" d="M28.23 33.44c23.318 0 42.22-18.902 42.22-42.22C70.45-32.097 51.549-51 28.23-51 4.914-51-13.99-32.096-13.99-8.78c0 23.318 18.903 42.22 42.22 42.22Z"/><path fill="#E30613" d="M82.741 33.06h-98.16v70.601h98.16v-70.6Z"/><path fill="#FFDA44" d="M180.321 1.74h-.06v.06l.06-.06Z"/><path fill="#fff" d="M89.83 33.96h-.23v.21l.23-.21Z"/><path fill="#221657" d="M89.83 38.21v-4.25l-.2.21c.13 1.38.2 2.68.2 4.04ZM250.781 87.57h-105.5v82.611h105.5v-82.61Z"/><path fill="#221657" d="m98.151 18.34-14.98 13.87-.43 82.011 15.41-13.97v-81.91Z"/><path fill="#0069B4" d="M102.15 87.13V87l-13.928 13.852v68.526h6.543V170h50.457V87.13H102.15Z"/><path fill="#FFDA44" d="m227.701 102.031-.56.13c-.41.09-.83.17-1.24.24l-1 .16-1.05.15-1.32.13c-.27 0-.54 0-.82.06-.73.05-1.46.07-2.2.07H73.751v11.16h145.76a36.19 36.19 0 0 0 5.2-.37 38.322 38.322 0 0 0 3.83-.75v-11.2c-.28.07-.56.16-.84.22Z"/><path fill="#fff" d="m249.531 88.24-4.33 4.25a35.895 35.895 0 0 1-7.5 5.68 36.821 36.821 0 0 1-9.18 3.641v11.199a36.246 36.246 0 0 0 16.68-9.36l5.55-5.84v-10.8l-1.22 1.23Z"/><path fill="#EF7D00" d="M221.711 102.9c.28 0 .55.001.82-.06l1.32-.129 1.05-.15 1-.161c.41-.07.83-.15 1.24-.24a5.61 5.61 0 0 0 .56-.129 36.858 36.858 0 0 0 10-3.86 35.895 35.895 0 0 0 7.5-5.68l4.31-4.25 1.24-1.23H94.901l-20.15 15.999h144.76c.74-.04 1.47-.06 2.2-.11Z"/><path fill="#FFDA44" d="m98.151 18.34-14.98 13.87-98.68.85V18.3l113.66.04Z"/><path fill="#fff" d="M20.471-51c-22.61 0-42.14 17.34-42.14 40.24v33.1a11 11 0 0 0 11 11l31.1.06a42.221 42.221 0 0 0 42.26-42.18A42.22 42.22 0 0 0 20.471-51Z"/><path fill="#0F9A40" d="M16.261 21.92a55.364 55.364 0 0 1 7.39-8.24L18.481 18a3 3 0 0 1-1.9.65h-8c-.19 0-.13.2-.13.33a4.68 4.68 0 0 0 4.75 3.26l-1.9 1.9a.16.16 0 0 0 .043.238.16.16 0 0 0 .087.022h7.12c5.1 0 8.3-2.22 10.33-5.36a9 9 0 0 0 .52-.85c-.06-.06-.13 0-.19.07a11.49 11.49 0 0 1-9 4h-3.79a.15.15 0 0 1-.15-.19.15.15 0 0 1-.01-.15ZM34.951 12.09l.84.39 2.41-1.11a.17.17 0 0 0-.06-.33h-2.62l-.65.79c-.06.13-.06.19.08.26ZM32.851 21.76a5.47 5.47 0 0 1-4.44 2.09h-3.21c-.7.446-1.444.818-2.22 1.11-.07 0-.13.13-.07.2l2.88 8h1.63l-2.61-7.38c1.71.03 5.82-.43 8.04-4.02Z"/><path fill="#0F9A40" d="m26.651 26.92 2.22 6.27h1.63l-2.3-6.64c-.44.17-1 .24-1.55.37ZM32.99 11.43a.7.7 0 0 1 0 .85.66.66 0 0 1-.43.2.48.48 0 0 1-.42-.2.62.62 0 0 1-.2-.42.531.531 0 0 1 .2-.43.65.65 0 0 1 .42-.19.47.47 0 0 1 .24.05 1.23 1.23 0 0 0-.73-.24 1.29 1.29 0 0 0-.91.38 1.37 1.37 0 0 0-.25 1.5v.06a.24.24 0 0 0 .06.09.65.65 0 0 0 .15.18 1.261 1.261 0 0 0 1.41.287 1.3 1.3 0 0 0 .42-.287 1.49 1.49 0 0 0 .36-.91 1.54 1.54 0 0 0-.32-.92Z"/><path fill="#E30613" d="M34.95 12.1c-.13-.07-.13-.13-.06-.27l.65-.78a4.55 4.55 0 0 0-3.93-2.1 5.92 5.92 0 0 0-3.34 1 42.761 42.761 0 0 0-3.47 2.76l-1.18 1a55.626 55.626 0 0 0-7.4 8.26.16.16 0 0 0 0 .13.14.14 0 0 0 .15.13h3.83a11.53 11.53 0 0 0 9-4 .229.229 0 0 1 .2-.07.259.259 0 0 1 .06.2 11.89 11.89 0 0 1-4.26 5.47h3.21a5.13 5.13 0 0 0 4.39-2c2.23-3.6 3-9.3 3-9.3l-.85-.43Zm-2 1.18a1.39 1.39 0 0 1-.92.39 1.25 1.25 0 0 1-.92-.39l-.14-.18-.07-.1v-.06a1.27 1.27 0 0 1 .24-1.5 1.39 1.39 0 0 1 .92-.39 1.24 1.24 0 0 1 .8.28l.12.11c.227.255.358.58.37.92a1.249 1.249 0 0 1-.36.92h-.04Z"/><path fill="#9E0942" d="M106.821 67c.308.894.453 1.836.43 2.78 0 6.79-8.92 17.75-12.3 17.75a3.571 3.571 0 0 1-1.69-.83c2 2.16 3.86 3.6 4.69 3.6 3.38 0 12.3-11 12.3-17.75 0-3.31-1.31-4.84-3.43-5.55Z"/><path fill="#E30613" d="M107.251 69.78a7.915 7.915 0 0 0-.43-2.78 11.463 11.463 0 0 0-2.62-.45h-12.76c-3.47.34-5.78 1.61-5.78 6s4.06 10.35 7.6 14.15a3.57 3.57 0 0 0 1.69.83c3.38.02 12.3-10.98 12.3-17.75Z"/><path fill="#fff" d="M91.671 75.24a3.02 3.02 0 1 0 0-6.04 3.02 3.02 0 0 0 0 6.04Z"/><path fill="#187228" d="m105.201 59.3-4.73 3 .38-5.19-2.85-.66v10.1h6.17l4.47-2.23a22.002 22.002 0 0 1-3.44-5.02Z"/><path fill="#0F9A40" d="m94.86 57.06.34 5.19-4.55-2.88a21.78 21.78 0 0 1-3.43 5l4.22 2.18H98V56.4l-3.14.66Z"/><path fill="#EF7D00" d="M225.981 133.721a10.078 10.078 0 0 0-17.089-6.922 10.08 10.08 0 0 0-3.061 6.922v.46a10.08 10.08 0 0 0 20.15 0v-.46Zm-8.46-2.44-1 1.69-2-1.31.09 2.4h-1.94l.14-2.4-2 1.29-1-1.67 2.15-1.1-2.15-1.09 1-1.69 2 1.28-.14-2.38h1.94l-.15 2.38 2-1.27 1 1.68-2.16 1.07 2.22 1.12Z"/><path fill="#0F9A40" d="m216.531 127.411-2.03 1.27.15-2.38h-1.94l.13 2.38-2.03-1.28-.98 1.69 2.15 1.09-2.15 1.1.98 1.67 2.03-1.29-.13 2.4h1.94l-.1-2.4 1.98 1.31.98-1.69-2.15-1.12 2.15-1.07-.98-1.68Z"/><path fill="#EF7D00" d="M205.991 133.721a10.08 10.08 0 0 0-20.15 0v.46a10.078 10.078 0 0 0 17.089 6.921 10.08 10.08 0 0 0 3.061-6.921v-.46Zm-8.46-2.44-1 1.69-2-1.31.09 2.4h-1.94l.14-2.4-2 1.29-1-1.67 2.15-1.1-2.15-1.09 1-1.69 2 1.28-.14-2.38h1.94l-.15 2.38 2-1.27 1 1.68-2.16 1.07 2.22 1.12Z"/><path fill="#0F9A40" d="m196.551 127.411-2.04 1.27.15-2.38h-1.94l.13 2.38-2.03-1.28-.98 1.69 2.15 1.09-2.15 1.1.98 1.67 2.03-1.29-.13 2.4h1.94l-.09-2.4 1.98 1.31.97-1.69-2.15-1.12 2.15-1.07-.97-1.68Z"/><path fill="#EF7D00" d="M185.601 133.72c0-2.67-1.061-5.232-2.95-7.12a10.066 10.066 0 0 0-14.241 0 10.07 10.07 0 0 0-2.949 7.12v.46c0 2.671 1.061 5.232 2.949 7.121a10.073 10.073 0 0 0 14.241 0 10.07 10.07 0 0 0 2.95-7.121v-.46Zm-8.46-2.44-1 1.69-2-1.31.1 2.4h-1.94l.13-2.4-2 1.29-1-1.67 2.16-1.1-2.16-1.09 1-1.69 2 1.28-.13-2.38h1.94l-.15 2.38 2-1.27 1 1.68-2.15 1.07 2.2 1.12Z"/><path fill="#0F9A40" d="m176.161 127.411-2.04 1.27.16-2.38h-1.94l.13 2.38-2.04-1.28-.98 1.69 2.16 1.09-2.16 1.1.98 1.67 2.04-1.29-.13 2.4h1.94l-.1-2.4 1.98 1.31.98-1.69-2.15-1.12 2.15-1.07-.98-1.68Z"/><path fill="#EF7D00" d="M165.541 133.72a10.07 10.07 0 0 0-20.14 0v.46a10.07 10.07 0 0 0 20.14 0v-.46Zm-8.46-2.44-1 1.69-2-1.31.1 2.4h-1.94l.13-2.4-2 1.29-1-1.67 2.16-1.1-2.16-1.09 1-1.69 2 1.28-.13-2.38h1.96l-.16 2.38 2-1.27 1 1.68-2.15 1.07 2.19 1.12Z"/><path fill="#0F9A40" d="m156.101 127.411-2.04 1.27.16-2.38h-1.95l.14 2.38-2.04-1.28-.98 1.69 2.16 1.09-2.16 1.1.98 1.67 2.04-1.29-.14 2.4h1.95l-.1-2.4 1.98 1.31.98-1.69-2.15-1.12 2.15-1.07-.98-1.68Z"/><path fill="#EF7D00" d="M15.5 101.24a1.765 1.765 0 0 1 0-.23 1.922 1.922 0 0 1 0-.24 10.08 10.08 0 0 0-20.15 0v.47c.023.825.144 1.644.36 2.44h19.42c.22-.795.345-1.614.37-2.44Zm-8.47-2.91-1 1.7-2-1.31.1 2.4H2.2l.13-2.4-2 1.29-1-1.68 2.15-1.09-2.15-1.1 1-1.69 2 1.29-.13-2.38h2l-.15 2.38 2-1.27 1 1.67-2.15 1.08 2.13 1.11Z"/><path fill="#9E0942" d="M-4.29 103.68a10.07 10.07 0 0 0 19.42 0H-4.29Z"/><path fill="#0F9A40" d="m6.05 94.47-2.03 1.27.15-2.38H2.23l.13 2.38-2.04-1.29-.98 1.69 2.16 1.1-2.16 1.1.98 1.671 2.04-1.29-.13 2.4h1.94l-.1-2.4 1.98 1.31.98-1.69-2.15-1.12 2.15-1.08-.98-1.67Z"/><path fill="#fff" d="M125.311 140.88a3.794 3.794 0 0 1 3.79 3.79 3.79 3.79 0 0 1-3.79 3.79c-3.54 0-8.17-3.79-8.17-3.79s4.3-3.79 8.17-3.79ZM90.05 140.88a3.793 3.793 0 0 1 3.79 3.79 3.787 3.787 0 0 1-3.79 3.79c-3.54 0-8.17-3.79-8.17-3.79s4.32-3.79 8.17-3.79ZM106.011 126.851a3.79 3.79 0 1 1 0 7.58c-3.54 0-8.17-3.79-8.17-3.79s4.3-3.79 8.17-3.79ZM71.97 126.851a3.789 3.789 0 1 1 0 7.58c-3.53 0-8.17-3.79-8.17-3.79s4.3-3.79 8.17-3.79Z"/></g><path fill="#fff" d="M83.222 32h-65v65h65V32ZM55.222 117h-37v15h37v-15Z"/><path fill="#727274" d="M23.249 121.872c-.044.376-.183.667-.418.872-.232.203-.542.305-.93.305-.42 0-.756-.151-1.01-.452-.253-.301-.379-.704-.379-1.208v-.342c0-.331.059-.621.176-.872.119-.25.286-.442.503-.576.216-.135.467-.203.752-.203.377 0 .68.106.908.318.228.21.36.501.398.874h-.471c-.04-.283-.13-.488-.266-.615-.135-.127-.325-.191-.57-.191-.299 0-.534.111-.705.332-.169.222-.254.537-.254.945v.344c0 .386.081.693.242.921a.781.781 0 0 0 .676.342c.26 0 .46-.059.599-.176.14-.119.232-.325.278-.618h.471Zm1.819.505 1.015-2.932h.513L25.278 123h-.415l-1.316-3.555h.51l1.01 2.932Zm3.183 0 1.016-2.932h.513L28.46 123h-.415l-1.316-3.555h.51l1.012 2.932Z"/><path fill="#000" d="m43.108 123.849-2.061 4.621h-.663l2.054-4.457h-2.693v-.52h3.363v.356Zm3.93 0-2.06 4.621h-.663l2.054-4.457h-2.694v-.52h3.364v.356Zm3.931 0-2.06 4.621h-.664l2.054-4.457h-2.693v-.52h3.363v.356Z"/><path fill="#fff" d="M83.222 99h-65v16h65V99Z"/><path fill="#727274" d="M24.997 103.874h-1.501v-.347h1.501v.347Zm-1.59-1.746c0-.252.076-.455.228-.61.151-.155.354-.232.608-.232s.456.077.608.23c.153.151.23.359.23.625v.227c0 .255-.077.459-.228.61-.15.151-.352.227-.605.227-.258 0-.462-.076-.613-.227-.152-.153-.227-.36-.227-.623v-.227Zm.399.24c0 .159.038.283.114.371a.42.42 0 0 0 .328.129.398.398 0 0 0 .317-.129.54.54 0 0 0 .117-.364v-.247c0-.157-.039-.28-.117-.366a.404.404 0 0 0-.322-.132.409.409 0 0 0-.323.132c-.076.086-.114.21-.114.371v.235Zm-.791 2.512h-.498l-1.448-2.769v2.769h-.452v-3.555h.496l1.455 2.776v-2.776h.447v3.555Z"/><path fill="#000" d="m30.638 106.319-2.06 4.621h-.664l2.054-4.457h-2.693v-.52h3.363v.356Zm3.93 0-2.06 4.621h-.663l2.054-4.457h-2.693v-.52h3.363v.356Zm1.638 1.825h.475c.299-.005.533-.083.704-.236.171-.152.257-.359.257-.618 0-.584-.29-.875-.872-.875-.273 0-.492.078-.656.235-.162.155-.243.362-.243.619h-.632c0-.394.143-.721.43-.981.29-.262.657-.393 1.101-.393.47 0 .837.124 1.104.373.267.248.4.593.4 1.035 0 .217-.07.426-.212.629-.139.203-.33.354-.57.455.273.086.483.23.632.43.15.201.225.446.225.735 0 .447-.146.801-.437 1.063-.292.262-.671.393-1.139.393-.467 0-.847-.126-1.141-.379-.292-.253-.438-.587-.438-1.002h.636c0 .262.086.472.256.629.171.158.4.236.687.236.306 0 .54-.08.701-.239.162-.16.243-.389.243-.687 0-.289-.09-.512-.267-.667-.178-.155-.434-.234-.769-.239h-.475v-.516Zm5.68 1.125h.691v.516h-.69v1.155h-.636v-1.155h-2.266v-.373l2.228-3.449h.674v3.306Zm-2.183 0h1.548v-2.441l-.075.137-1.473 2.304Zm3.735-.824.253-2.482h2.55v.585h-2.013l-.15 1.357c.243-.144.52-.216.83-.216.454 0 .814.151 1.08.452.267.298.4.703.4 1.213 0 .513-.139.917-.417 1.213-.275.294-.662.441-1.158.441-.44 0-.8-.122-1.077-.365-.278-.244-.436-.581-.475-1.012h.598c.039.285.14.5.304.646.164.143.38.215.65.215.293 0 .524-.1.69-.301.169-.2.253-.477.253-.83 0-.333-.091-.599-.274-.8-.18-.203-.42-.304-.72-.304-.276 0-.493.06-.65.181l-.168.137-.506-.13Zm6.122-2.485v.537h-.116c-.492.009-.884.155-1.176.437-.292.283-.46.68-.506 1.193.262-.301.62-.451 1.073-.451.433 0 .779.152 1.036.458.26.305.39.699.39 1.182 0 .513-.14.923-.42 1.231-.279.307-.652.461-1.122.461-.476 0-.862-.182-1.159-.547-.296-.366-.444-.838-.444-1.415v-.242c0-.916.195-1.616.585-2.099.392-.485.974-.734 1.746-.745h.113Zm-.83 2.242c-.217 0-.416.065-.599.195-.182.13-.308.293-.379.489v.232c0 .41.092.741.277.991.184.251.414.376.69.376.285 0 .508-.104.67-.314.164-.21.246-.484.246-.824 0-.342-.083-.617-.25-.827a.788.788 0 0 0-.655-.318Zm5.492-1.883-2.06 4.621h-.664l2.054-4.457H50.86v-.52h3.363v.356Zm3.93 0-2.06 4.621h-.663l2.054-4.457H54.79v-.52h3.363v.356Zm3.142 2.433c-.132.158-.29.284-.475.38a1.27 1.27 0 0 1-.602.143c-.287 0-.538-.07-.752-.212a1.382 1.382 0 0 1-.492-.594 2.046 2.046 0 0 1-.174-.851c0-.333.063-.633.188-.899a1.4 1.4 0 0 1 .54-.612c.232-.141.503-.212.813-.212.492 0 .88.185 1.162.554.285.367.428.868.428 1.504v.184c0 .969-.192 1.676-.575 2.123-.382.444-.96.672-1.732.683H59.5v-.533h.133c.522-.009.923-.145 1.203-.407.28-.264.433-.681.458-1.251Zm-.974 0a.967.967 0 0 0 .584-.194c.18-.13.311-.291.393-.482v-.253c0-.415-.09-.752-.27-1.012-.18-.26-.407-.39-.683-.39a.809.809 0 0 0-.67.322c-.169.212-.253.492-.253.84 0 .34.08.62.243.841a.779.779 0 0 0 .656.328Zm5.602.065c0 .741-.127 1.291-.38 1.651-.252.36-.648.54-1.186.54-.53 0-.923-.175-1.179-.526-.255-.353-.387-.88-.396-1.579v-.844c0-.732.126-1.275.38-1.631.252-.355.649-.533 1.189-.533.535 0 .93.172 1.182.516.253.342.383.871.39 1.586v.82Zm-.632-.864c0-.536-.076-.925-.226-1.169-.15-.246-.388-.369-.714-.369-.324 0-.56.121-.708.365-.148.244-.224.619-.229 1.125v1.012c0 .537.078.935.233 1.192.157.256.394.383.71.383.313 0 .544-.121.694-.362.153-.242.233-.622.24-1.142v-1.035Zm4.655-1.634-2.061 4.621h-.663l2.054-4.457H66.58v-.52h3.364v.356Zm3.978 4.621h-3.26v-.455l1.722-1.914c.255-.289.43-.524.527-.704.098-.182.147-.37.147-.564a.892.892 0 0 0-.236-.639c-.157-.166-.367-.249-.63-.249-.314 0-.559.09-.734.27-.173.177-.26.426-.26.745h-.632c0-.458.147-.829.44-1.111.297-.283.692-.424 1.187-.424.462 0 .828.122 1.097.366.269.241.403.564.403.967 0 .49-.312 1.073-.936 1.75l-1.333 1.446h2.498v.516Zm3.883-4.621-2.06 4.621h-.664l2.054-4.457h-2.693v-.52h3.363v.356Z"/><path fill="#090908" d="M32.801 41.42h-5.61V54.52H36.541v-1.87h-7.48v-9.36h7.48v-1.87h-3.74ZM55.252 41.42h-1.87v1.87h1.87v-1.87ZM72.091 41.42h-11.22v13.13h13.09V41.42h-1.87Zm0 3.74v7.49h-9.35v-9.36h9.35v1.87Z"/><path fill="#090908" d="M32.802 45.16h-1.87v5.62h5.61v-5.62h-3.74ZM45.901 45.16h-1.87v1.87h1.87v-1.87ZM66.481 45.16h-1.87v5.62h5.61v-5.62h-3.74ZM57.121 48.9v5.62h1.87V43.29h-1.87v1.87h-1.87v1.87h1.87v1.87ZM45.901 50.77h-1.87v1.87h1.87v-1.87Z"/><path fill="#090908" d="M47.771 52.65h1.87v-1.87h1.87v1.87h1.87v1.87h-1.87v-1.87h-1.87v5.61h1.87v-1.87h1.87v1.87h1.87V47.03h-1.87v-1.87h-1.87v3.74h-1.87v-3.74h1.87v-1.87h-1.87v-1.87h-7.48v1.87h5.61v3.74h-1.87v3.75h1.87v1.87ZM40.281 54.52V41.42h-3.74v1.87h1.87v9.36h-1.87v1.87h3.74Z"/><path fill="#090908" d="M47.771 52.65h-1.87v1.87h1.87v-1.87ZM32.801 56.39v3.74h-1.87v-3.74h-3.74v3.74h1.87V62h1.87v3.74h1.87V62h1.87v-3.74h1.87v-1.87h-3.74ZM40.281 56.39h-1.87v1.87h1.87v-1.87ZM45.901 56.39v-1.87h-1.87v-1.87h-1.87v3.74h1.87v1.87h1.87v-1.87ZM58.991 56.39h-1.87v1.87h1.87v-1.87ZM62.731 56.39h-1.87v1.87h1.87v-1.87ZM73.962 56.39h-1.87v1.87h1.87v-1.87ZM38.411 58.26h-1.87v1.87h1.87v-1.87ZM47.771 58.26h-1.87v1.87h1.87v-1.87ZM60.861 58.26h-1.87v1.87h1.87v-1.87ZM68.351 58.26h-5.62v1.87h-1.87V62h1.87v1.87h1.88v-3.74h1.87v3.74h5.61v1.87h1.87v-5.61h-1.87V62h-3.74v-1.87h3.74v-1.87h-3.74ZM42.161 62v1.87h1.87V62h1.87v-1.87h-1.87v-1.87h-1.87v1.87h-3.75V62h3.75ZM36.542 62h-1.87v1.87h1.87V62Z"/><path fill="#090908" d="M38.411 62h-1.87v1.87h1.87V62ZM40.281 63.87h-1.87v1.87h1.87v-1.87ZM45.901 65.74v1.87h1.87v-3.74h-3.74v1.87h1.87ZM62.731 63.87h-1.87v1.87h1.87v-1.87ZM30.931 65.74h-1.87v-1.87h-1.87V73.22h1.87v-3.74h3.74v-1.87h-1.87v-1.87ZM34.672 67.61v3.74h1.87v-5.61h-3.74v1.87h1.87Z"/><path fill="#090908" d="M38.411 65.74h-1.87v1.87h1.87v-1.87ZM70.221 67.61h-3.74v-1.87h-1.87v3.74h1.87v1.87h1.87v3.75h3.74v-3.75h-1.87v-1.87h1.87v1.87h1.87v-3.74h-1.87v-1.87h-1.87v1.87ZM42.161 69.48v-3.74h-1.88v1.87h-1.87v1.87h1.87v1.87h-1.87v-1.87h-1.87v3.74h5.62v1.88h1.87v1.87h1.87v-3.75h-1.87v-1.87h-1.87v-1.87Z"/><path fill="#090908" d="M45.901 69.48v-1.87h-1.87v3.74h3.74v-1.87h-1.87ZM64.611 69.48h-1.87v1.87h-1.87v-1.87h1.87v-1.87h-1.87v-1.87h-1.87v-5.61h-1.88v-1.87h-1.87v1.87h-5.61V62h5.61v5.61h-1.87v-1.87h-3.74v1.87h1.87v1.87h5.61v-1.87h1.88v3.74h-7.49v-1.87h-1.87v1.87h-1.87v3.75h1.87v-1.88h1.87v1.88h1.87v-1.88h1.87v1.88h1.87v1.87h-1.87v3.74h-1.87v-3.74h-1.87v3.74h-1.87v1.84h1.87v1.9h-1.87v-1.9h-1.87v3.74h-1.87v1.87h7.48v-5.61h1.87v1.9h1.87v-1.9h1.88v-1.84h1.87v1.84h1.87v-1.84h3.74v-9.36h-1.87v-1.87Zm0 5.62v3.74h-5.61v-5.62h5.61v1.88ZM30.932 71.35v1.87h3.74v-1.87h-3.74ZM32.801 75.1h-5.61V88.19H36.541v-1.87h-7.48V76.97h7.48V75.1h-3.74ZM36.541 75.1v1.87h1.87V86.32h-1.87v1.87h3.74V75.1h-3.74Z"/><path fill="#090908" d="M51.512 75.1h-1.87v1.87h1.87V75.1ZM62.731 75.1h-1.87v1.87h1.87V75.1ZM73.962 75.1h-1.87v1.87h1.87V75.1ZM49.641 76.97h-1.87v1.87h-1.87v1.87h3.74v-3.74ZM32.802 78.84h-1.87v5.61h5.61v-5.61h-3.74ZM44.031 78.84h-1.87v3.74h3.74v-1.87h-1.87v-1.87ZM70.221 78.84v3.74h-5.61v1.87h-1.88v1.87h3.75v-1.87h1.87v1.87h3.74v1.87h1.87V78.84h-3.74ZM60.861 82.58h-1.87v1.87h1.87v-1.87ZM44.031 84.45h-1.87v3.74h1.87v-1.87h1.87v-1.87h-1.87ZM57.121 86.32v1.87h3.74v-1.87h-3.74Z"/><path fill="#090908" d="M68.351 86.32h-1.87v1.87h1.87v-1.87Z"/><path fill="url(#d)" d="M.222 12c0-6.627 5.372-12 12-12h220c6.627 0 12 5.373 12 12v129c0 6.627-5.373 12-12 12h-220c-6.628 0-12-5.373-12-12V12Z" opacity=".2"/><g filter="url(#e)"><path fill="#fff" d="M83.222 99h-65v16h65V99Z"/><path fill="#727274" d="M24.997 104.994h-1.501v-.347h1.501v.347Zm-1.59-1.745c0-.253.076-.456.228-.611.151-.154.354-.232.608-.232s.456.077.608.23c.153.151.23.359.23.625v.227c0 .255-.077.459-.228.61-.15.152-.352.227-.605.227-.258 0-.462-.075-.613-.227-.152-.153-.227-.36-.227-.622v-.227Zm.399.239c0 .159.038.283.114.371a.42.42 0 0 0 .328.129.398.398 0 0 0 .317-.129.54.54 0 0 0 .117-.364v-.246c0-.158-.039-.28-.117-.367a.404.404 0 0 0-.322-.132.409.409 0 0 0-.323.132c-.076.087-.114.21-.114.371v.235ZM23.015 106h-.498l-1.448-2.769V106h-.452v-3.555h.496l1.455 2.776v-2.776h.447V106Z"/><path fill="#000" d="M30.848 106.379 28.788 111h-.664l2.054-4.457h-2.693v-.52h3.363v.356Zm3.93 0L32.719 111h-.663l2.054-4.457h-2.694v-.52h3.364v.356Zm1.638 1.825h.475c.299-.004.533-.083.704-.236.171-.152.257-.359.257-.618 0-.584-.291-.875-.872-.875-.273 0-.492.078-.656.235-.162.155-.243.362-.243.619h-.632c0-.394.143-.721.43-.981.29-.262.657-.393 1.101-.393.47 0 .837.124 1.104.373.267.248.4.593.4 1.035 0 .217-.07.426-.212.629-.139.203-.33.355-.57.455.273.086.483.23.632.43.15.201.225.446.225.735 0 .447-.146.801-.437 1.063-.292.262-.672.393-1.139.393-.467 0-.847-.126-1.141-.379-.292-.253-.438-.587-.438-1.001h.636c0 .262.086.471.256.628.171.158.4.236.687.236.306 0 .54-.08.701-.239.162-.16.243-.389.243-.687 0-.289-.09-.512-.267-.667-.178-.154-.434-.234-.769-.239h-.475v-.516Zm5.68 1.125h.691v.516h-.69V111h-.636v-1.155h-2.266v-.373l2.228-3.449h.674v3.306Zm-2.183 0h1.548v-2.441l-.075.137-1.473 2.304Zm3.735-.824.253-2.482h2.55v.585h-2.013l-.15 1.357c.243-.144.52-.215.83-.215.454 0 .814.15 1.08.451.267.298.4.703.4 1.213 0 .513-.139.917-.417 1.213-.276.294-.662.441-1.158.441-.44 0-.8-.122-1.077-.365-.278-.244-.437-.581-.475-1.012h.598c.039.285.14.5.304.646.164.143.38.215.65.215.293 0 .523-.1.69-.301.169-.2.253-.477.253-.83 0-.333-.091-.599-.274-.8-.18-.203-.42-.304-.72-.304-.276 0-.493.06-.65.181l-.168.137-.506-.13Zm6.122-2.485v.537h-.116c-.492.009-.884.155-1.176.437-.292.283-.46.68-.506 1.193.262-.301.62-.451 1.073-.451.433 0 .779.153 1.036.458.26.305.39.699.39 1.182 0 .513-.14.923-.42 1.231-.279.308-.652.461-1.122.461-.476 0-.862-.182-1.159-.547-.296-.366-.444-.838-.444-1.415v-.242c0-.916.195-1.616.585-2.099.392-.485.974-.734 1.746-.745h.113Zm-.83 2.242c-.217 0-.416.065-.599.195-.182.13-.308.293-.38.489v.232c0 .41.093.741.278.991.184.251.415.376.69.376.285 0 .508-.104.67-.314.164-.21.246-.484.246-.824 0-.342-.083-.617-.25-.827a.788.788 0 0 0-.655-.318Zm5.492-1.883L52.372 111h-.664l2.054-4.457H51.07v-.52h3.363v.356Zm3.93 0L56.303 111h-.663l2.054-4.457h-2.694v-.52h3.364v.356Zm3.142 2.433c-.132.158-.29.284-.475.38a1.27 1.27 0 0 1-.602.143c-.287 0-.538-.07-.752-.211a1.39 1.39 0 0 1-.492-.595 2.046 2.046 0 0 1-.174-.851c0-.333.063-.633.188-.899a1.4 1.4 0 0 1 .54-.612c.232-.141.503-.212.813-.212.492 0 .88.185 1.162.554.285.367.428.868.428 1.504v.184c0 .969-.192 1.676-.575 2.123-.382.444-.96.672-1.732.683h-.123v-.533h.133c.522-.009.923-.144 1.203-.407.28-.264.433-.681.458-1.251Zm-.974 0a.968.968 0 0 0 .584-.194c.18-.13.311-.291.393-.482v-.253c0-.415-.09-.752-.27-1.012-.18-.26-.408-.39-.683-.39a.811.811 0 0 0-.67.322c-.169.212-.253.492-.253.841 0 .339.08.619.242.84a.779.779 0 0 0 .657.328Zm5.602.065c0 .741-.127 1.291-.38 1.651-.252.36-.648.54-1.186.54-.53 0-.924-.175-1.179-.526-.255-.353-.387-.88-.396-1.579v-.844c0-.732.126-1.275.38-1.631.252-.355.648-.533 1.189-.533.535 0 .93.172 1.182.516.253.342.383.871.39 1.586v.82Zm-.633-.864c0-.536-.075-.925-.225-1.169-.15-.246-.389-.369-.714-.369-.324 0-.56.122-.708.365-.148.244-.224.619-.229 1.125v1.012c0 .537.078.935.233 1.192.157.256.394.383.71.383.313 0 .544-.121.694-.362.153-.242.233-.622.24-1.142v-1.035Zm4.656-1.634L68.094 111h-.663l2.054-4.457H66.79v-.52h3.364v.356ZM74.133 111h-3.26v-.455l1.722-1.914c.255-.289.43-.524.527-.704.098-.182.147-.37.147-.564a.893.893 0 0 0-.236-.639c-.157-.166-.367-.249-.63-.249-.314 0-.559.09-.734.27-.173.177-.26.426-.26.745h-.632c0-.458.147-.829.44-1.111.297-.283.692-.424 1.187-.424.462 0 .828.122 1.097.366.269.241.403.564.403.967 0 .49-.312 1.073-.936 1.75l-1.333 1.446h2.498V111Zm3.883-4.621L75.956 111h-.664l2.054-4.457h-2.693v-.52h3.363v.356Z"/></g><g filter="url(#f)"><path fill="#fff" d="M55.222 117h-37v16h37v-16Z"/><path fill="#727274" d="M23.249 122.872c-.044.376-.183.667-.418.872-.232.203-.542.305-.93.305-.42 0-.756-.151-1.01-.452-.253-.301-.379-.704-.379-1.208v-.342c0-.331.059-.621.176-.872.119-.25.286-.442.503-.576.216-.135.467-.203.752-.203.377 0 .68.106.908.318.228.21.36.501.398.874h-.471c-.04-.283-.13-.488-.266-.615-.135-.127-.325-.191-.57-.191-.299 0-.534.111-.705.332-.169.222-.254.537-.254.945v.344c0 .386.081.693.242.921a.781.781 0 0 0 .676.342c.26 0 .46-.059.599-.176.14-.119.232-.325.278-.618h.471Zm1.819.505 1.015-2.932h.513L25.278 124h-.415l-1.316-3.555h.51l1.01 2.932Zm3.183 0 1.016-2.932h.513L28.46 124h-.415l-1.316-3.555h.51l1.012 2.932Z"/><path fill="#000" d="M42.848 124.379 40.788 129h-.664l2.054-4.457h-2.693v-.52h3.363v.356Zm3.93 0L44.719 129h-.663l2.054-4.457h-2.694v-.52h3.364v.356Zm3.931 0L48.65 129h-.664l2.055-4.457h-2.694v-.52h3.364v.356Z"/></g><defs><filter id="b" width="286" height="170" x="4.222" y="32" color-interpolation-filters="sRGB" filterUnits="userSpaceOnUse"><feFlood flood-opacity="0" result="BackgroundImageFix"/><feBlend in="SourceGraphic" in2="BackgroundImageFix" result="shape"/><feGaussianBlur result="effect1_foregroundBlur" stdDeviation="18"/></filter><filter id="e" width="97" height="48" x="2.222" y="87" color-interpolation-filters="sRGB" filterUnits="userSpaceOnUse"><feFlood flood-opacity="0" result="BackgroundImageFix"/><feColorMatrix in="SourceAlpha" values="0 0 0 0 0 0 0 0 0 0 0 0 0 0 0 0 0 0 127 0"/><feOffset dy="4"/><feGaussianBlur stdDeviation="8"/><feColorMatrix values="0 0 0 0 0 0 0 0 0 0 0 0 0 0 0 0 0 0 0.14 0"/><feBlend in2="BackgroundImageFix" result="effect1_dropShadow"/><feBlend in="SourceGraphic" in2="effect1_dropShadow" result="shape"/></filter><filter id="f" width="69" height="48" x="2.222" y="105" color-interpolation-filters="sRGB" filterUnits="userSpaceOnUse"><feFlood flood-opacity="0" result="BackgroundImageFix"/><feColorMatrix in="SourceAlpha" values="0 0 0 0 0 0 0 0 0 0 0 0 0 0 0 0 0 0 127 0"/><feOffset dy="4"/><feGaussianBlur stdDeviation="8"/><feColorMatrix values="0 0 0 0 0 0 0 0 0 0 0 0 0 0 0 0 0 0 0.14 0"/><feBlend in2="BackgroundImageFix" result="effect1_dropShadow"/><feBlend in="SourceGraphic" in2="effect1_dropShadow" result="shape"/></filter><linearGradient id="d" x1=".222" x2="210.722" y1="153" y2="41" gradientUnits="userSpaceOnUse"><stop/><stop offset="1" stop-opacity="0"/></linearGradient></defs></svg>