<svg width="90" height="55" viewBox="0 0 312 198" fill="none" xmlns="http://www.w3.org/2000/svg"><mask id="a" mask-type="alpha" maskUnits="userSpaceOnUse" x="0" y="0" width="312" height="196"><path d="M15.363 196h281.274c8.45 0 15.363-6.918 15.363-15.373V15.373C312 6.918 305.087 0 296.637 0H15.363C6.913 0 0 6.918 0 15.373v165.254C0 189.082 6.913 196 15.363 196Z" fill="#C4C4C4"/></mask><g mask="url(#a)"><path d="M359.639-22.675H-12.578v247.883h372.217V-22.675Z" fill="#FCD73F"/><path d="M204.5 152.999c.128.512.436 1.268.436 1.78 0 5.884-5.106 10.616-11.489 10.744h-.511c-5.617-.128-10.34-3.837-11.234-8.825-.893 4.988-5.617 8.953-11.234 9.081h-.511c-5.106-.128-9.446-3.198-10.851-7.546-1.532 4.22-5.744 7.29-10.851 7.418h-.51c-6.383-.128-11.49-4.86-11.49-10.744 0-.512 0-.895.128-1.407H100v71.499l120-.255v-71.745h-15.5Zm-56.372 34.268h-.511c-6.383-.128-11.489-4.86-11.489-10.744 0-5.884 5.234-10.744 11.744-10.744 6.511 0 11.745 4.86 11.745 10.744 0 5.884-5.106 10.616-11.489 10.744Z" fill="#9E0040"/><path d="M147.781 167.304c-6.548 0-11.812 5.252-11.812 11.785 0 6.406 5.136 11.53 11.555 11.786h.514c6.42-.128 11.555-5.38 11.555-11.786 0-6.533-5.264-11.785-11.812-11.785Zm8.988 10.376-2.825-.128 1.541 2.434-1.926 1.153-1.284-2.562-1.284 2.562-1.926-1.153 1.541-2.306-2.825.128v-2.306l2.825.129-1.541-2.434 1.926-1.153 1.284 2.562 1.284-2.562 1.926 1.153-1.541 2.434 2.825-.129v2.178Z" fill="#FCD73F"/><path d="m155.488 173.197-2.054-1.153-1.284 2.434-1.284-2.434-1.926 1.153 1.541 2.306-2.825-.128v2.306l2.825-.129-1.541 2.306 1.926 1.153 1.284-2.562 1.284 2.562 1.926-1.153-1.412-2.434 2.824.257v-2.306l-2.824.128 1.54-2.306Z" fill="#007020"/><path d="M169.993 143.221h.514c6.419-.128 11.555-5.381 11.555-11.786 0-6.533-5.264-11.786-11.812-11.786-6.548 0-11.812 5.253-11.812 11.786 0 6.533 5.135 11.658 11.555 11.786Zm.128-15.373 2.825.128-1.541-2.434 1.926-1.153 1.284 2.562 1.284-2.562 1.926 1.153-1.541 2.434 2.825-.128v2.306l-2.825-.128 1.541 2.434-1.926 1.153-1.284-2.562-1.284 2.562-1.926-1.153 1.541-2.306-2.825.128v-2.434Z" fill="#F27E00"/><path d="m171.405 132.331 1.926 1.025 1.284-2.434 1.284 2.434 1.926-1.025-1.413-2.434 2.697.128v-2.178l-2.697.128 1.413-2.434-1.926-1.024-1.284 2.434-1.284-2.434-1.926 1.024 1.412 2.434-2.696-.128v2.178h2.696l-1.412 2.306Z" fill="#007020"/><path d="M169.997 119.137h.514c6.419-.128 11.555-5.381 11.555-11.786 0-6.533-5.264-11.786-11.812-11.786-6.548 0-11.813 5.253-11.813 11.786 0 6.405 5.136 11.658 11.556 11.786Zm.128-15.373 2.825.128-1.541-2.434 1.926-1.153 1.284 2.562 1.284-2.562 1.926 1.153-1.541 2.434 2.825-.128v2.306l-2.825-.128 1.541 2.434-1.926.897-1.284-2.562-1.284 2.562-1.926-1.153 1.541-2.306-2.825.128v-2.178Z" fill="#F27E00"/><path d="m171.409 108.119 1.926 1.153 1.284-2.434 1.284 2.434 1.926-1.153-1.413-2.306 2.697.128v-2.178l-2.697.128 1.413-2.434-1.926-1.153-1.284 2.562-1.284-2.562-1.926 1.153 1.412 2.434-2.696-.128v2.178l2.696-.128-1.412 2.306Z" fill="#007020"/><path d="M146.501 143.221h.513c6.42-.128 11.556-5.381 11.556-11.786 0-6.533-5.264-11.786-11.812-11.786-6.548 0-11.813 5.253-11.813 11.786.129 6.533 5.136 11.658 11.556 11.786Zm.128-15.373 2.825.128-1.541-2.434 1.926-1.153 1.284 2.562 1.284-2.562 1.926 1.153-1.541 2.434 2.825-.128v2.306l-2.825-.128 1.541 2.434-1.926 1.153-1.284-2.562-1.284 2.562-1.926-1.153 1.541-2.306-2.825.128v-2.434Z" fill="#F27E00"/><path d="m147.913 132.331 1.926 1.025 1.412-2.434 1.156 2.434 2.054-1.025-1.541-2.434 2.825.128v-2.178l-2.825.128 1.541-2.434-2.054-1.024-1.284 2.434-1.284-2.434-1.926 1.024 1.541 2.434-2.825-.128v2.178h2.825l-1.541 2.306Z" fill="#007020"/><path d="M170.123 153.724v-1.921l2.825.128-1.541-2.434 1.926-1.153 1.284 2.562 1.284-2.562 1.926 1.153-1.541 2.434 2.825-.128v1.921h2.568v-.256c-1.027-5.508-5.778-9.736-11.556-9.736-5.264 0-9.629 3.331-11.17 8.071.129.64.385 1.281.385 1.921h10.785Z" fill="#F27E00"/><path d="M181.808 153.725h-2.568v.256l-2.825-.128 1.541 2.434-1.926 1.153-1.284-2.562-1.284 2.562-1.926-1.153 1.541-2.306-2.825.128v-.256h-10.656c.128.513.128 1.025.128 1.537 0 1.281-.257 2.562-.642 3.715 1.412 4.74 5.778 8.199 10.914 8.327h.513c5.778-.128 10.529-4.355 11.299-9.864-.128-.64-.128-1.281-.128-2.05 0-.896 0-1.281.128-1.793Z" fill="#FCD73F"/><path d="m179.113 151.675-2.697.128 1.413-2.305-1.926-1.153-1.284 2.434-1.284-2.434-1.926 1.153 1.412 2.305-2.696-.128v2.05h8.988v-2.05ZM172.821 153.853l-1.412 2.306 1.926 1.152 1.284-2.561 1.284 2.561 1.926-1.152-1.413-2.434 2.697.256v-.256h-8.988v.256l2.696-.128Z" fill="#007020"/><path d="M199.652 153.725h1.412l-1.541-.128.129.128ZM195.289 153.725h.77v-.129l-.77.129Z" fill="#F27E00"/><path d="M193.235 153.725v-2.178l2.825.128-1.541-2.434 1.926-1.153 1.284 2.562 1.284-2.562 1.926 1.153-1.541 2.434 2.825-.128v2.178h2.696c-.77-5.765-5.649-10.248-11.684-10.248-5.906 0-10.785 4.355-11.555 9.864v.256h11.555v.128Z" fill="#F27E00"/><path d="m202.349 153.725-1.156-.128h-1.54l1.412 2.306-1.926 1.152-1.284-2.562-1.284 2.562-1.926-1.152 1.541-2.306h-.77l-1.926.128v-.128h-11.428c.129.512.129 1.153.129 1.793 0 .641 0 1.281-.129 1.794.899 5.38 5.65 9.607 11.299 9.736h.514c6.42-.129 11.555-5.381 11.555-11.786 0-.512 0-1.025-.128-1.537l-2.953.128ZM181.808 153.725c-.129.512-.257 1.025-.257 1.537 0 .64.128 1.409.128 2.049.129-.64.129-1.152.129-1.793.128-.64.128-1.281 0-1.793Z" fill="#FCD73F"/><path d="M196.059 153.596v.128h3.595l-.128-.128 1.54.128h1.284v-2.177l-2.824.128 1.54-2.434-2.054-1.153-1.155 2.562-1.284-2.562-2.055 1.153 1.541 2.434-2.825-.128v2.177h2.055l.77-.128ZM194.52 155.902l2.054 1.153 1.284-2.433 1.155 2.433 2.055-1.153-1.413-2.177h-3.595l-1.54 2.177Z" fill="#007020"/><path d="M153.945 153.725h1.541l-1.541-.129v.129ZM149.582 153.725h.899v-.129l-.899.129Z" fill="#F27E00"/><path d="m147.657 151.547 2.825.128-1.541-2.434 1.926-1.153 1.284 2.562 1.284-2.562 1.926 1.153-1.541 2.434 2.825-.128v2.178h1.926c.128-.641.256-1.281.513-1.922-1.54-4.74-5.906-8.326-11.298-8.326-6.035 0-10.914 4.483-11.684 10.248h11.555v-2.178Z" fill="#F27E00"/><path d="M147.527 166.919h.514c5.136-.128 9.373-3.459 10.913-8.07-.385-1.153-.513-2.306-.513-3.459 0-.641 0-1.153.128-1.794h-1.926v.129l-1.155-.129h-1.541l1.412 2.306-1.926 1.153-1.284-2.562-1.284 2.562-1.925-1.153 1.54-2.306h-.77l-1.926.129v-.129h-11.556c-.128.513-.128 1.025-.128 1.538-.128 6.405 5.007 11.657 11.427 11.785Z" fill="#FCD73F"/><path d="m159.469 153.725-.385-1.921c-.257.64-.385 1.281-.514 1.921h.899Z" fill="#F27E00"/><path d="M159.465 153.725h-.899c-.128.512-.128 1.152-.128 1.793 0 1.153.128 2.305.513 3.458.385-1.153.642-2.434.642-3.714 0-.641-.128-1.025-.128-1.537Z" fill="#FCD73F"/><path d="m153.948 151.675 1.54-2.434-2.054-1.153-1.284 2.562-1.284-2.562-1.926 1.153 1.541 2.434-2.825-.128v2.177h1.926l.899-.128v.128h3.467v-.128l1.54.128h1.284v-2.177l-2.824.128ZM148.938 155.902l1.925 1.153 1.284-2.434 1.284 2.434 1.926-1.153-1.412-2.177h-3.467l-1.54 2.177Z" fill="#007020"/><path d="M115.56 49.96H-12.578v51.115H115.56V49.961Z" fill="#F27E00"/><path d="M110.551-22.675v72.636h131.733v-72.636H110.551Z" fill="#DC000F"/><path d="m79.477 49.96 18.36-17.806c5.007-4.868 11.812-7.558 18.874-7.558h103.23V49.96H79.477Z" fill="#061054"/><path d="M16.18 44.58c-.899-3.074-1.284-6.277-1.284-9.48 0-8.454 2.953-16.14 7.832-22.29-8.089 6.534-13.353 16.526-13.353 27.8 0 3.33.514 6.532 1.284 9.479v.128l5.52-5.508v-.129Z" fill="#F27E00"/><path d="M50.459 70.585c-14.38 0-26.707-8.455-32.356-20.625a33.224 33.224 0 0 1-1.926-5.38l-5.52 5.509c4.236 14.988 17.975 25.877 34.28 25.877 11.3 0 21.314-5.253 27.862-13.451-6.034 5.124-13.866 8.07-22.34 8.07Z" fill="#FCD73F"/><path d="M80.636 40.481c0-19.6-15.92-35.613-35.694-35.613-8.474 0-16.177 2.946-22.34 7.814-4.88 6.15-7.832 13.836-7.832 22.29 0 3.203.513 6.406 1.284 9.48h64.325c.257-1.28.257-2.562.257-3.97Z" fill="#00963D"/><path d="M16.05 44.452c.514 2.05 1.285 3.843 2.055 5.637 5.65 12.17 17.975 20.624 32.356 20.624 8.474 0 16.306-2.946 22.34-7.942 2.953-3.715 5.136-7.943 6.549-12.682.513-1.794.898-3.715 1.027-5.637H16.05Z" fill="#fff"/><path d="M265.651 85.958c29.925 0 54.183-24.203 54.183-54.06 0-29.857-24.258-54.06-54.183-54.06-29.924 0-54.182 24.203-54.182 54.06 0 29.857 24.258 54.06 54.182 54.06Z" fill="#1F52F5"/><path d="M277.849 73.66c-9.116 0-17.719-2.306-25.294-6.277-17.205-9.096-28.889-27.03-28.889-47.783 0-11.786 3.852-22.675 10.272-31.642-13.61 9.864-22.469 25.749-22.469 43.812 0 20.753 11.684 38.687 28.889 47.783 7.575 3.971 16.177 6.277 25.293 6.277 18.104 0 34.025-8.84 43.912-22.418-8.86 6.405-19.773 10.248-31.714 10.248Z" fill="#fff"/><path d="M277.849 73.66c-9.116 0-17.719-2.306-25.294-6.277-17.205-9.096-28.889-27.03-28.889-47.783 0-11.786 3.852-22.675 10.272-31.642-13.61 9.864-22.469 25.749-22.469 43.812 0 20.753 11.684 38.687 28.889 47.783 7.575 3.971 16.177 6.277 25.293 6.277 18.104 0 34.025-8.84 43.912-22.418-8.86 6.405-19.773 10.248-31.714 10.248Z" fill="#F27E00"/><path d="M264.368 54.573c0 2.178-1.798 3.843-3.852 3.843-2.183 0-3.852-1.793-3.852-3.843 0-3.587 3.852-8.327 3.852-8.327s3.852 4.356 3.852 8.327ZM250.118 34.717c0 2.177-1.798 3.843-3.852 3.843-2.183 0-3.852-1.794-3.852-3.843 0-3.587 3.852-8.327 3.852-8.327s3.852 4.355 3.852 8.327ZM264.368 18.447c0 2.178-1.798 3.843-3.852 3.843-2.183 0-3.852-1.793-3.852-3.843 0-3.587 3.852-8.327 3.852-8.327s3.852 4.356 3.852 8.327ZM250.118-.128c0 2.178-1.798 3.843-3.852 3.843-2.183 0-3.852-1.794-3.852-3.843 0-3.587 3.852-8.327 3.852-8.327s3.852 4.355 3.852 8.327ZM293.258 54.572c0 2.178-1.797 3.843-3.851 3.843-2.183 0-3.852-1.793-3.852-3.843 0-3.587 3.852-8.327 3.852-8.327s3.851 4.356 3.851 8.327ZM279.133 34.717c0 2.177-1.797 3.843-3.851 3.843-2.183 0-3.852-1.794-3.852-3.843 0-3.587 3.852-8.327 3.852-8.327s3.851 4.355 3.851 8.327ZM293.258 18.447c0 2.178-1.797 3.843-3.851 3.843-2.183 0-3.852-1.793-3.852-3.843 0-3.587 3.852-8.327 3.852-8.327s3.851 4.356 3.851 8.327ZM279.133-.128c0 2.178-1.797 3.843-3.851 3.843-2.183 0-3.852-1.794-3.852-3.843 0-3.587 3.852-8.327 3.852-8.327s3.851 4.355 3.851 8.327Z" fill="#fff"/><path d="M35.183 23.7c.77 0 1.412-.513 1.412-1.282l.257-2.562 1.027.128c-1.54 5.893-2.311 15.629 7.062 21.394 9.758 6.02 19.516-1.281 24.652-6.278l.642.385c-1.413 5.252-5.136 9.864-10.657 12.17-8.86 3.715-19.645-.256-23.882-8.84-2.44-4.74-2.44-10.376-.513-15.116Z" fill="#FCD73F"/><path d="M44.94 41.377c-9.373-5.764-8.602-15.628-7.062-21.521h.385l-.256 3.843h.128a17.945 17.945 0 0 0 2.054 5.509c4.623 7.814 14.252 11.273 22.855 7.942a18.856 18.856 0 0 0 5.136-3.074l1.412 1.024c-5.008 4.996-14.894 12.298-24.652 6.277Z" fill="#F27E00"/><path d="M33.384 22.546c.77.384 1.67 0 2.055-.64l1.412-2.563 1.027.64c-4.365 5.51-9.63 15.373-2.568 25.622 7.447 10.76 21.057 7.558 28.504 4.74l.514.768c-3.852 4.868-9.887 7.943-16.692 7.815-10.914-.128-20.415-9.224-20.928-20.113-.129-6.533 2.44-12.298 6.676-16.269Z" fill="#FCD73F"/><path d="M35.57 45.477c-7.062-10.248-1.798-20.24 2.567-25.62l.386.255-2.055 3.843h.129c-.386 2.178-.514 4.356-.386 6.662 1.156 10.248 9.758 18.319 20.03 18.703a20.236 20.236 0 0 0 6.805-.769l1.027 1.666c-7.575 2.818-21.185 5.893-28.503-4.74Z" fill="#F27E00"/><path d="M331.103 47.186 221.039 153.352h110.064V47.186Z" fill="#DC000F"/><path d="M269.374 85.574c-1.669 1.665-.513 3.33-1.155 4.996l10.913 10.889c.514-1.665-.513-3.459 1.156-4.996.128-.128.257-.256.513-.384l-10.913-10.89c-.257.129-.385.257-.514.385ZM261.159 93.773c-1.669 1.665-.385 3.587-1.284 5.38l10.914 10.889c.77-1.793-.514-3.587 1.284-5.38l.256-.256-10.913-10.89-.257.257ZM276.566 82.115l10.914 10.889c.385-1.537-.514-3.203 1.027-4.74l-10.913-10.889c-1.541 1.537-.771 3.203-1.028 4.74Z" fill="#FCD73F"/><path d="m252.812 101.972 10.914 10.889-10.914-10.889c.129 0 0 0 0 0ZM259.229 100.05c-2.054 2.05-4.237-.128-6.291 1.922l10.913 10.889c2.054-2.05 4.237.128 6.291-1.922.386-.384.514-.64.642-1.024l-10.913-10.89a2.788 2.788 0 0 1-.642 1.025ZM267.449 91.851c-1.926 1.922-4.109 0-6.035 1.666l10.914 10.889c2.054-1.666 4.108.256 6.034-1.666.385-.384.642-.896.771-1.281L268.219 90.57c-.128.513-.385.897-.77 1.281ZM275.668 83.652c-1.926 1.921-3.98.128-5.906 1.537l10.913 10.889c1.926-1.41 3.981.384 5.906-1.538.514-.512.771-1.024.899-1.537l-10.913-10.889c-.129.513-.386 1.025-.899 1.538Z" fill="#007020"/><path d="M294.031 60.978c-1.67 1.665-.514 3.33-1.156 4.996l10.914 10.889c.513-1.665-.514-3.459 1.155-4.996.129-.128.257-.256.514-.384l-10.914-10.89c-.257.129-.385.257-.513.385ZM285.811 69.177c-1.669 1.665-.385 3.587-1.284 5.38l10.914 10.89c.77-1.794-.514-3.588 1.284-5.381l.257-.256-10.914-10.89c-.128.129-.257.129-.257.257ZM301.219 57.52l10.913 10.888c.386-1.537-.513-3.203 1.027-4.74L302.246 52.78c-1.541 1.538-.77 3.075-1.027 4.74Z" fill="#FCD73F"/><path d="m277.594 77.376 10.913 10.889-10.913-10.89Z" fill="#007020"/><path d="M283.885 75.454c-2.054 2.05-4.237-.128-6.291 1.922l10.913 10.889c2.055-2.05 4.237.128 6.292-1.922.385-.384.513-.64.642-1.025L284.527 74.43a2.782 2.782 0 0 1-.642 1.025ZM292.101 67.255c-1.926 1.922-4.109 0-6.035 1.666L296.98 79.81c2.054-1.666 4.109.256 6.035-1.666.385-.384.642-.896.77-1.28l-10.914-10.89c-.128.513-.385.897-.77 1.281ZM300.32 59.056c-1.926 1.921-3.98.128-5.906 1.537l10.914 10.889c1.926-1.41 3.98.384 5.906-1.537.513-.513.77-1.025.899-1.538L301.219 57.52c-.128.512-.385 1.024-.899 1.537Z" fill="#007020"/><path d="M310.46 44.581c-1.669 1.665-.385 3.587-1.284 5.38l10.913 10.89c.771-1.794-.513-3.587 1.284-5.381l.257-.256-10.913-10.889c-.129.128-.257.128-.257.256Z" fill="#FCD73F"/><path d="m302.242 52.78 10.914 10.889-10.914-10.89Z" fill="#007020"/><path d="M308.534 50.858c-2.055 2.05-4.237-.128-6.292 1.922l10.914 10.889c2.054-2.05 4.237.128 6.291-1.922.385-.384.514-.64.642-1.025l-10.913-10.889a2.807 2.807 0 0 1-.642 1.025ZM316.749 42.66c-1.925 1.921-4.108 0-6.034 1.665l10.913 10.889c2.055-1.666 4.109.256 6.035-1.666.385-.384.642-.896.77-1.28l-10.913-10.89c-.129.513-.385.897-.771 1.282Z" fill="#007020"/><path d="M244.722 110.298c-1.669 1.666-.514 3.331-1.156 4.996l10.914 10.889c.514-1.665-.514-3.459 1.156-4.996.128-.128.256-.256.513-.384l-10.913-10.889a1.766 1.766 0 0 0-.514.384ZM236.378 118.497c-1.669 1.665-.385 3.587-1.284 5.38l10.913 10.889c.771-1.793-.513-3.587 1.284-5.38l.257-.256-10.914-10.889a.275.275 0 0 1-.256.256ZM228.221 126.386c-1.669 1.665-.385 3.587-1.283 5.38l10.913 10.889c.77-1.793-.514-3.587 1.284-5.38l.257-.256-10.914-10.889c0 .128-.128.256-.257.256ZM220.034 134.553c-1.669 1.665-.385 3.587-1.284 5.38l10.914 10.889c.77-1.793-.514-3.587 1.284-5.38l.256-.256-10.913-10.889c0 .128-.129.256-.257.256ZM211.846 142.72c-1.669 1.665-.385 3.587-1.284 5.38l10.914 10.889c.77-1.793-.514-3.587 1.284-5.38l.257-.257-10.914-10.888c0 .128-.128.256-.257.256ZM251.914 106.839l10.914 10.889c.385-1.537-.514-3.202 1.027-4.74L252.941 102.1c-1.541 1.537-.77 3.202-1.027 4.739Z" fill="#FCD73F"/><path d="m228.16 126.696 10.914 10.889-10.914-10.889ZM234.58 124.774c-2.054 2.05-4.237-.128-6.291 1.921l10.914 10.889c2.054-2.049 4.237.128 6.291-1.921.385-.385.514-.641.642-1.025l-10.914-10.889a2.782 2.782 0 0 1-.642 1.025ZM226.42 132.663c-2.054 2.05-4.237-.128-6.291 1.922l10.913 10.889c2.055-2.05 4.238.128 6.292-1.922.385-.384.513-.64.642-1.025l-10.914-10.889a2.774 2.774 0 0 1-.642 1.025ZM218.237 140.83c-2.055 2.05-4.237-.128-6.292 1.922l10.914 10.889c2.054-2.05 4.237.128 6.291-1.922.385-.384.514-.64.642-1.024l-10.913-10.889a2.804 2.804 0 0 1-.642 1.024ZM242.796 116.575c-1.926 1.922-4.108 0-6.034 1.666l10.913 10.889c2.055-1.666 4.109.256 6.035-1.666.385-.384.642-.896.77-1.281l-10.913-10.889c-.129.513-.386.897-.771 1.281ZM251.016 108.376c-1.926 1.922-3.981.128-5.907 1.537l10.914 10.889c1.926-1.409 3.98.385 5.906-1.537.514-.512.771-1.025.899-1.537l-10.914-10.889c-.128.512-.385 1.025-.898 1.537Z" fill="#007020"/><path d="M213 153v44h12v-44h-12Z" fill="#1F52F5"/><path d="M313.82 153.352h-93.691v46.278h93.691v-46.278Z" fill="#061054"/><path d="M226.62 89.289c.385 1.153.642 2.562.642 4.227 0 10.377-13.738 27.286-18.874 27.286-.642 0-1.541-.512-2.568-1.281 3.082 3.331 5.906 5.509 7.19 5.509 5.136 0 18.875-16.782 18.875-27.286.128-4.996-1.926-7.302-5.265-8.455Z" fill="#9E0040"/><path d="M227.391 93.516c0-1.665-.257-3.074-.642-4.227-1.155-.385-2.568-.64-4.109-.769h-19.644c-5.393.512-8.859 2.434-8.859 9.224 0 6.661 6.291 15.885 11.684 21.777 1.155.769 2.054 1.281 2.568 1.281 5.264 0 19.002-16.781 19.002-27.286Z" fill="#DC000F"/><path d="M203.38 101.971a4.617 4.617 0 0 0 4.622-4.612 4.617 4.617 0 0 0-4.622-4.611 4.617 4.617 0 0 0-4.622 4.611 4.617 4.617 0 0 0 4.622 4.612Z" fill="#fff"/><path d="m224.183 77.503-7.319 4.484.642-7.943-4.365-1.025v15.629h9.501l6.933-3.459a31.925 31.925 0 0 1-5.392-7.686Z" fill="#007020"/><path d="m208.262 74.044.513 7.943-7.062-4.356a31.802 31.802 0 0 1-5.264 7.558v.129l6.548 3.33h10.144V73.02l-4.879 1.025Z" fill="#00963D"/><path d="M100.538 146.039H-12.578v79.297h113.116v-79.297Z" fill="#1F52F5"/><path d="M121.852 152.444a3.425 3.425 0 0 1-1.541-.384c-1.284-.641-1.926-2.05-1.669-3.459l.128-.513v-.256c0-.128.129-.384.129-.384.128-.513.256-.897.513-1.281.257-.385.514-.769.77-1.025 12.326-19.856 17.976-50.089 19.388-58.672l-3.467-1.665c-.642-.385-1.155-.64-1.54-1.025a3.332 3.332 0 0 1 0-4.484c.642-.64 1.412-.897 2.311-.897.642 0 1.412.257 1.926.641l4.237 1.922 14.508-6.662c.129-.128.129-.256.257-.256l4.751-4.356c.642-.512 1.412-.896 2.183-.896.385 0 .77 0 1.155.256 1.156.384 1.926 1.409 2.054 2.69.129 1.41.771 9.736-4.75 28.567-5.778 19.985-18.361 31.258-19.773 32.411l-19.259 18.831c-.642.513-1.413.897-2.311.897Z" fill="#061054"/><path d="M164.733 71.995c.129.64.899 8.455-4.622 27.414-5.778 20.113-18.874 30.873-18.874 30.873l-19.388 18.96.129-.513c.513-.64.898-1.409 1.412-2.177-.385.64-.899 1.153-1.284 1.665v-.256c.257-.385.642-.897.899-1.281 14.894-24.084 20.158-62.26 20.158-62.26l-5.65-2.69a1.776 1.776 0 0 1-.513-.384c.128.128.257.257.513.257l5.65 2.562 16.178-7.43c.385-.129.642-.385.77-.641l4.622-4.1Zm0-6.406c-1.541 0-3.21.641-4.365 1.666l-4.623 4.355-12.582 5.765-2.568-1.153c-1.027-.768-2.311-1.153-3.595-1.153-1.669 0-3.338.64-4.622 1.922-2.44 2.434-2.44 6.405-.129 8.839.642.64 1.413 1.281 2.311 1.665 0 0 .129 0 .129.129l1.284.64c-1.926 10.633-7.447 37.278-18.489 55.085-.129.256-.385.512-.514.897-.513.768-.899 1.665-1.155 2.562v.768l-.129.513c-.513 2.69.771 5.508 3.21 6.789.899.513 2.054.769 3.082.769 1.669 0 3.209-.641 4.493-1.793l19.26-18.832c1.926-1.665 14.765-13.451 20.671-33.819 5.65-19.472 5.008-28.312 4.879-29.849-.257-2.434-1.926-4.483-4.108-5.252-1.028-.384-1.669-.513-2.44-.513Z" fill="#061054"/><path d="M22.343 117.728c5.265 0 9.245-1.794 12.711-4.356l20.287-16.91H-9.5l-22.212 21.522c.128-.128.385-.128.642-.128h53.412v-.128Z" fill="#061054" stroke="#061054" stroke-width="4.548" stroke-miterlimit="10" stroke-linejoin="round"/><path d="m99.766 170.892 16.049 47.526 13.353-12.426-16.434-46.63-12.968 11.53Z" fill="#007020" stroke="#007020" stroke-width="4.548" stroke-miterlimit="10" stroke-linejoin="round"/><path d="M84.233 75.325c-.9 0-1.67-.385-2.311-1.025-1.156-1.281-1.156-3.203.128-4.356l15.92-16.269c1.542-1.921 12.84-15.629 34.924-15.629 17.462 0 27.477 10.761 30.558 14.86l16.435-.256c.899 0 1.669.385 2.311.897.642.64.899 1.41.899 2.306v.768c0 .897-.385 1.666-.899 2.178l-6.805 6.918c-.128.128-.257.384-.385.512l-4.751 4.356c-.642.512-1.412.897-2.182.897-.642 0-1.284-.128-1.798-.513-.385-.256-.77-.64-.899-1.025h-15.921c-1.155 0-2.311-.64-2.824-1.793-2.055-3.971-10.4-12.17-23.497-12.17-7.703 0-14.637 2.05-20.671 6.02 0 0-6.548 4.485-16.178 12.427-.642.64-1.412.897-2.054.897Z" fill="#007020"/><path d="M132.763 41.25c19.516 0 28.889 14.86 28.889 14.86l18.104-.257v.769l-7.19 7.302-4.751 4.355c.257-.64-.257-1.537-1.155-1.537h-17.462c-2.696-5.252-12.326-13.963-26.321-13.963-8.346 0-15.793 2.178-22.341 6.533 0 0-6.548 4.484-16.434 12.683l16.049-16.398c.128.128 10.785-14.348 32.612-14.348Zm0-6.406c-22.854 0-35.18 13.964-37.363 16.782L79.608 67.639c-2.44 2.434-2.44 6.277-.129 8.84 1.284 1.408 2.953 2.049 4.75 2.049a6.925 6.925 0 0 0 4.11-1.41c9.244-7.557 15.535-11.913 15.921-12.297 5.521-3.715 11.684-5.509 18.745-5.509 11.427 0 19.003 7.174 20.543 10.505 1.156 2.178 3.339 3.459 5.778 3.459h14.509c.128.128.385.256.642.512 1.027.769 2.311 1.025 3.595 1.025 1.541 0 3.21-.64 4.365-1.666l4.751-4.355.77-.769 6.677-6.79c1.155-1.152 1.797-2.817 1.797-4.483v-.769c0-1.665-.642-3.33-1.926-4.611-1.155-1.153-2.824-1.794-4.493-1.794h-.129l-14.894.128c-4.493-5.124-15.022-14.86-32.227-14.86Z" fill="#007020"/><path d="M34.156 121.827c7.832-9.48 15.793-17.935 23.24-25.365h-.129a305.08 305.08 0 0 0-23.11 25.365ZM118.383 79.553c.129.128.129.256.257.384.129.257.257.385.385.64.257.385.642.77 1.027 1.154 1.541 1.793 3.852 2.69 6.163 2.562 2.183 0 4.494-.897 6.163-2.562 1.798-1.794 2.568-3.971 2.44-6.15 0-1.408-.385-2.69-1.027-3.97.642 1.28 1.027 2.562 1.027 3.97 0 2.178-.899 4.356-2.44 6.15-1.669 1.665-3.98 2.562-6.163 2.562-2.182 0-4.365-.897-6.163-2.562-.385-.385-.641-.769-1.027-1.153-.128-.256-.256-.385-.385-.64-.128-.129-.257-.257-.257-.385-1.54-3.203-.898-6.918 1.413-9.736-2.697 2.818-3.082 6.662-1.413 9.736ZM90.007 152.444c-.129 0-.129.128-.257.128h11.812c4.879 0 9.245-.896 13.225-2.177-3.98 1.281-8.346 2.049-13.353 2.049H90.007ZM115.558 215.087l.642-.64-16.434-43.556 15.792 44.196Z" fill="#061054"/><path d="m99.51 171.02 16.563-16.526c-14.124 9.608-30.558 11.273-38.647 11.273l17.59 49.321 7.19-6.79-12.454-35.1c3.852-.897 7.19-1.41 9.758-2.178Z" fill="#061054"/><path d="M65.227 160.002c7.447-3.074 9.245-3.971 14.894-7.43h9.63c.128 0 .128-.128.256-.128H79.993c16.306-10.504 25.037-27.67 28.503-36.381 0-.385 0-.897-.385-1.282-1.284 2.178-2.183 3.972-3.466 5.637-13.61 21.009-35.052 35.869-69.205 35.869h-47.763c-.386 0-.642-.128-.77-.256 1.026 1.153 3.723 3.075 6.933 4.228 7.19 2.562 19.516 5.252 36.464 5.252 17.333 0 34.281-5.252 34.281-5.252h.129c.128-.128.385-.257.513-.257Z" fill="#DC000F"/><path d="M104.644 218.29c-1.412 0-2.568-.897-3.082-2.178l-14.893-42.018c-.257-.897-.257-1.794.257-2.562.385-.769 1.155-1.41 2.054-1.538 1.54-.384 2.953-.64 4.237-.896 2.054-.385 3.852-.769 5.264-1.153h.128c.257-.128.642-.128.9-.128 1.283 0 2.695.768 3.081 2.049l15.792 44.196c.385 1.025.257 2.05-.385 2.947-.642.896-1.541 1.409-2.568 1.409h-10.785v-.128Z" fill="#00963D"/><path d="m99.763 170.891 15.793 44.197h-10.914l-2.439-6.918-12.455-35.101c3.852-.897 7.19-1.281 9.887-2.049l.128-.129Zm0-6.405c-.642 0-1.284.128-1.926.256-.128 0-.128 0-.257.129a32.002 32.002 0 0 1-4.879 1.024c-1.284.257-2.824.513-4.365.897-1.798.384-3.338 1.537-4.237 3.203-.899 1.665-1.027 3.459-.385 5.252l12.454 35.101 2.44 6.917c.898 2.562 3.338 4.228 6.034 4.228h10.914c2.054 0 3.98-1.025 5.264-2.69 1.155-1.666 1.541-3.844.77-5.893l-15.792-44.196c-.899-2.562-3.339-4.228-6.035-4.228Z" fill="#FCD73F"/><path d="M84.102 218.289c-1.413 0-2.568-.896-3.082-2.177l-18.746-51.883c-5.65 1.538-18.489 4.484-31.97 4.484-19.773 0-31.97-3.331-37.491-5.38-3.467-1.281-6.934-3.459-8.346-5.253-.385-.512-.642-1.025-.899-1.409 0-.128-.128-.256-.128-.384s-.129-.384-.129-.769v-.512c0-1.025.514-2.05 1.156-2.819l7.832-7.814c-15.536-2.562-24.267-13.323-27.477-23.571-.128-.256-.128-.641-.128-.897v-.256c0-.769-.128-1.922.514-3.203 0-.128.128-.256.256-.384.257-.384.514-.641.9-.897.641-.512 1.54-.768 2.439-.768h53.412c3.98 0 7.319-1.153 10.657-3.715l20.286-16.91 14.124-11.53c2.696-2.434 5.392-4.868 7.832-7.045a165.059 165.059 0 0 1 6.933-5.765c9.887-8.199 16.435-12.682 16.692-12.81 7.061-4.74 15.279-7.174 24.266-7.174 13.995 0 24.138 7.942 28.119 13.963h15.664c1.412 0 2.825.64 3.595 1.922.77 1.153 1.027 2.69.514 3.97-.386 1.154-1.284 2.05-2.568 2.563l-14.509 6.661c-1.156 7.943-6.677 40.225-20.158 61.875-.257.512-.77 1.153-1.284 1.921-2.439 3.459-5.136 6.662-8.346 9.608-1.926 1.794-4.108 3.459-6.291 4.996-12.84 8.84-27.477 11.145-35.95 11.658l16.049 45.221c.385 1.025.257 2.049-.385 2.946-.642.897-1.541 1.409-2.568 1.409H84.102v.128Z" fill="#00963D"/><path d="M123.005 52.907c13.995 0 23.625 8.711 26.321 13.964h17.462c.899 0 1.412.896 1.155 1.537a1.313 1.313 0 0 1-.77.64l-16.178 7.43s-5.007 38.304-19.901 62.387c-.257.385-.77 1.153-1.155 1.794-2.312 3.459-5.008 6.405-7.833 8.967a50.338 50.338 0 0 1-5.906 4.74c-14.123 9.608-30.558 11.273-38.647 11.273l17.462 49.448H84.102l-19.773-54.7s-16.692 5.124-34.025 5.124c-16.948 0-29.274-2.562-36.464-5.252-3.21-1.153-6.035-3.075-6.934-4.228a1.768 1.768 0 0 0-.385-.512v-.256c0-.257.129-.513.257-.769l12.711-12.682c-17.462 0-27.99-10.505-31.585-21.906 0-.641-.128-1.409.128-1.794l.129-.128c.128-.128.385-.128.642-.128h53.412c5.264 0 9.244-1.793 12.711-4.355l20.415-17.038 14.123-11.53c2.697-2.434 5.393-4.868 7.832-7.046 2.44-2.05 4.751-3.97 6.805-5.764 9.887-8.199 16.435-12.683 16.435-12.683 6.677-4.355 14.124-6.533 22.469-6.533Zm0-6.405c-9.629 0-18.36 2.562-25.936 7.686-.256.128-6.933 4.74-16.948 12.939-2.31 1.921-4.622 3.97-6.933 5.892-2.44 2.178-5.136 4.484-7.832 7.046L51.36 91.466l-20.287 16.91c-2.824 2.05-5.52 2.947-8.73 2.947h-53.541c-1.541 0-2.953.384-4.237 1.281-.642.512-1.284 1.025-1.798 1.793-.128.128-.257.385-.385.513-1.156 2.049-1.027 4.099-1.027 4.996v.128c0 .64.128 1.153.257 1.793 3.081 9.864 10.785 20.113 24.138 24.34l-3.724 3.715c-1.284 1.281-2.054 3.075-2.182 4.996v.641c0 .64.128 1.025.257 1.409 0 .256.128.384.256.64.257.897.77 1.666 1.413 2.434 1.925 2.306 5.777 4.74 9.758 6.278 5.777 2.049 18.36 5.636 38.647 5.636 11.812 0 23.24-2.178 29.916-3.843l17.718 49.192c.899 2.562 3.338 4.228 6.035 4.228h10.913c2.055 0 3.98-1.025 5.264-2.691 1.156-1.665 1.541-3.843.771-5.892l-14.637-41.378c8.987-1.025 21.827-3.971 33.383-11.786 2.311-1.665 4.622-3.33 6.676-5.252 3.338-3.075 6.291-6.405 8.731-10.12.514-.641 1.027-1.409 1.284-2.05 12.968-20.881 18.617-51.114 20.286-61.49l12.84-5.893c2.054-.769 3.466-2.434 4.237-4.356.899-2.305.513-4.867-.899-6.917s-3.723-3.203-6.291-3.203h-13.61c-2.311-2.946-5.393-5.765-8.988-7.942-6.163-3.972-13.353-6.021-20.8-6.021Z" fill="#FCD73F"/><path d="M87.313 131.051c0 .128 0 .128 0 0 6.29-3.715 12.839-8.968 19.516-16.013l.256-.257c-.128 0-.256.129-.385.257-6.548 7.045-12.968 12.17-19.388 16.013ZM129.425 68.28c-1.027 0-2.054.512-2.825 1.28-.898.641-1.284 1.794-1.284 2.819s.514 2.05 1.284 2.818c.642.897 1.798 1.281 2.825 1.281 1.027 0 2.054-.512 2.825-1.28 1.284-1.666 1.284-3.844 0-5.637l-.771-.769c-1.155-1.025-2.568-1.537-3.98-1.793 1.284.256 2.44.768 3.595 1.537-.513-.256-1.155-.384-1.669-.256Z" fill="#fff"/><path d="M35.439 156.288c34.153 0 55.595-14.86 69.205-35.87 1.284-1.793 2.183-3.458 3.467-5.636-.386 0-.642 0-1.028.128l-.256.256c-6.677 7.046-13.225 12.17-19.516 16.013-5.136 3.075-10.015 5.252-14.894 6.79-9.502 3.202-18.49 3.843-26.321 3.843H20.674c-.514 0-.9-.384-1.028-.897 0-.256 0-.512.129-.897.128-.128.128-.256.257-.256v-.128c4.622-6.277 9.244-12.298 13.995-17.806a357.833 357.833 0 0 1 23.11-25.365c4.238-4.356 8.475-8.327 12.455-11.914L55.34 96.463 34.925 113.5c-3.466 2.562-7.446 4.355-12.71 4.355h-53.413c-.257 0-.514.128-.642.128s-.128.128-.128.128c-.257.513-.129 1.282-.129 1.794 3.467 11.401 13.995 21.906 31.585 21.906l-12.71 12.682c-.13.128-.258.384-.258.769v.256c0 .128.129.384.386.512.128.129.385.257.77.257h47.763Z" fill="#007020"/><path d="M166.787 66.87h-17.462l-4.365 5.253c-.385.64-.385 1.025-.129 1.409.129.128.257.256.514.256l5.649 2.562 16.178-7.43c.385-.128.642-.384.77-.64.257-.513-.128-1.41-1.155-1.41ZM130.064 142.196c-.514.64-1.156 1.409-1.926 2.049-3.21 3.331-7.704 6.149-13.353 8.071-3.98 1.409-8.474 2.178-13.225 2.178H80.118c-5.65 3.458-7.447 4.355-14.894 7.43-.128 0-.385.128-.513.384-.129.256-.257.769 0 1.025l19.259 53.804h10.914l-17.462-49.449c8.089 0 24.523-1.537 38.647-11.273a50.318 50.318 0 0 0 5.906-4.74c2.825-2.562 5.521-5.508 7.832-8.967.514-.64.899-1.409 1.412-2.178-.256.513-.77 1.025-1.155 1.666ZM118.38 79.552c.129.129.129.257.257.385.129.256.257.384.385.64.257.385.642.769 1.027 1.153 1.67 1.666 3.981 2.562 6.163 2.562 2.183 0 4.366-.896 6.163-2.562 1.541-1.793 2.44-3.971 2.44-6.149 0-1.28-.385-2.69-1.027-3.971-.385-.769-.899-1.41-1.413-2.05 1.284 1.794 1.284 3.843 0 5.637-.77.769-1.797 1.281-2.824 1.281-1.156 0-2.183-.384-2.825-1.281-.77-.769-1.284-1.794-1.284-2.818 0-1.153.385-2.178 1.284-2.819.77-.768 1.798-1.28 2.825-1.28.513 0 1.155.127 1.669.255-1.156-.768-2.311-1.28-3.595-1.537-.385 0-.899-.128-1.284-.128-2.183 0-4.494.897-6.163 2.562l-.257.256c-2.439 2.947-3.081 6.662-1.541 9.864Z" fill="#00963D"/><path d="M99.511 171.02c-2.567.769-6.034 1.281-9.886 2.05l12.454 35.101 2.44 6.917h10.913L99.64 170.892c.128 0 0 .128-.129.128Z" fill="#00963D"/><path d="M20.034 139.762c-.129.128-.129.257-.257.257-.129.256-.129.64-.129.896.129.513.386.897 1.028.897h25.55c7.832 0 16.692-.641 26.321-3.843 4.88-1.537 9.758-3.843 14.894-6.918 6.291-3.843 12.84-8.967 19.388-16.013.128-.128.256-.128.385-.256.385-.128.642-.128 1.027-.128.385.384.385.897.385 1.281-3.466 8.711-12.326 25.877-28.504 36.382H101.694c4.879 0 9.373-.769 13.353-2.05 5.649-1.794 10.143-4.74 13.353-8.071.642-.768 1.284-1.537 1.926-2.177.257-.385.642-.897.899-1.282 14.894-24.083 20.158-62.258 20.158-62.258l-5.65-2.69a1.774 1.774 0 0 1-.513-.385c-.385-.384-.257-.769.128-1.409l4.366-5.252c-2.697-5.253-12.326-13.964-26.321-13.964-8.346 0-15.793 2.178-22.341 6.534 0 0-6.548 4.483-16.435 12.682-2.182 1.793-4.365 3.715-6.805 5.765a185.05 185.05 0 0 0-7.832 7.045c-3.852 3.587-7.96 7.43-12.069 11.53-7.447 7.43-15.407 15.885-23.24 25.365-5.264 5.764-10.014 11.785-14.636 18.062Zm99.634-69.945.257-.256c1.669-1.665 3.98-2.562 6.163-2.562.385 0 .899 0 1.284.128 1.412.256 2.825.769 3.98 1.794l.77.768c.514.64 1.028 1.281 1.413 2.05.642 1.28 1.027 2.69 1.027 3.971 0 2.178-.77 4.356-2.44 6.149-1.669 1.665-3.98 2.562-6.162 2.562-2.312 0-4.623-.769-6.163-2.562-.386-.384-.642-.769-1.028-1.153-.128-.256-.256-.384-.385-.64-.128-.129-.128-.257-.257-.385-1.412-3.202-1.027-7.046 1.541-9.864Z" fill="#DC000F"/></g><rect opacity=".8" width="312" height="196" rx="12" fill="#fff"/><circle cx="156" cy="99" r="28" fill="#333"/><path d="M163.778 94h-15.556c-1.227 0-2.222 1.221-2.222 2.727v9.546c0 1.506.995 2.727 2.222 2.727h15.556c1.227 0 2.222-1.221 2.222-2.727v-9.546c0-1.506-.995-2.727-2.222-2.727Z" fill="#fff"/><path d="M151 96v-4a5.002 5.002 0 0 1 5-5 5.002 5.002 0 0 1 5 5v4" stroke="#fff" stroke-width="2" stroke-linecap="round" stroke-linejoin="round"/><circle cx="156" cy="101" r="2" fill="#333"/><rect x="155" y="102" width="2" height="4" rx="1" fill="#333"/></svg>