<svg width="90" height="55" viewBox="0 0 288 181" fill="none" xmlns="http://www.w3.org/2000/svg"><g clip-path="url(#clip0)"><g clip-path="url(#clip1)"><path d="M331.974-20.958H-11.611v229.103h343.585V-20.958z" fill="#FCD73F"/><path d="M188.77 141.408c.118.473.403 1.172.403 1.645 0 5.438-4.714 9.811-10.606 9.93h-.471c-5.185-.119-9.545-3.547-10.37-8.157-.825 4.61-5.185 8.275-10.37 8.393h-.471c-4.714-.118-8.72-2.955-10.017-6.975-1.414 3.902-5.302 6.739-10.016 6.857h-.471c-5.892-.118-10.606-4.492-10.606-9.93 0-.473 0-.828.118-1.301H92.309v66.083l110.769-.236v-66.309H188.77zm-52.036 31.671h-.471c-5.892-.118-10.606-4.492-10.606-9.93s4.832-9.93 10.841-9.93c6.01 0 10.842 4.492 10.842 9.93s-4.714 9.812-10.606 9.93z" fill="#9E0040"/><path d="M136.413 154.629a10.87 10.87 0 00-10.903 10.893c0 5.92 4.741 10.656 10.666 10.893h.475c5.925-.118 10.666-4.973 10.666-10.893a10.87 10.87 0 00-10.904-10.893zm8.297 9.591l-2.608-.119 1.423 2.25-1.778 1.066-1.185-2.368-1.186 2.368-1.777-1.066 1.422-2.131-2.608.118v-2.131l2.608.118-1.422-2.249 1.777-1.066 1.186 2.368 1.185-2.368 1.778 1.066-1.423 2.249 2.608-.118v2.013z" fill="#FCD73F"/><path d="M143.528 160.076l-1.896-1.066-1.185 2.25-1.185-2.25-1.778 1.066 1.422 2.131-2.607-.119v2.132l2.607-.119-1.422 2.131 1.778 1.066 1.185-2.368 1.185 2.368 1.778-1.066-1.304-2.249 2.608.237v-2.132l-2.608.119 1.422-2.131z" fill="#007020"/><path d="M156.917 132.371h.474c5.926-.118 10.666-4.973 10.666-10.893a10.869 10.869 0 00-10.903-10.892 10.87 10.87 0 00-10.904 10.892c0 6.039 4.741 10.775 10.667 10.893zm.118-14.208l2.608.119-1.423-2.25 1.778-1.066 1.185 2.368 1.186-2.368 1.777 1.066-1.422 2.25 2.607-.119v2.131l-2.607-.118 1.422 2.25-1.777 1.065-1.186-2.368-1.185 2.368-1.778-1.065 1.423-2.132-2.608.119v-2.25z" fill="#F27E00"/><path d="M158.22 122.307l1.778.947 1.185-2.25 1.185 2.25 1.778-.947-1.303-2.25 2.488.118v-2.012l-2.488.118 1.303-2.25-1.778-.947-1.185 2.25-1.185-2.25-1.778.947 1.304 2.25-2.489-.118v2.012h2.489l-1.304 2.132z" fill="#007020"/><path d="M156.921 110.111h.474c5.926-.119 10.667-4.973 10.667-10.893a10.87 10.87 0 00-10.904-10.893 10.87 10.87 0 00-10.903 10.893c0 5.92 4.74 10.774 10.666 10.893zm.119-14.208l2.607.118-1.422-2.249 1.778-1.066 1.185 2.368 1.185-2.368 1.778 1.066-1.422 2.249 2.607-.118v2.131l-2.607-.118 1.422 2.249-1.778.829-1.185-2.368-1.185 2.368-1.778-1.066 1.422-2.131-2.607.119v-2.013z" fill="#F27E00"/><path d="M158.225 99.928l1.778 1.066 1.185-2.25 1.185 2.25 1.778-1.066-1.304-2.13 2.489.117v-2.013l-2.489.12 1.304-2.25-1.778-1.066-1.185 2.368-1.185-2.368-1.778 1.065 1.304 2.25-2.489-.119v2.013l2.489-.118-1.304 2.131z" fill="#007020"/><path d="M135.231 132.371h.474c5.926-.118 10.667-4.973 10.667-10.893a10.87 10.87 0 00-10.904-10.892 10.87 10.87 0 00-10.904 10.892c.119 6.039 4.741 10.775 10.667 10.893zm.119-14.208l2.607.119-1.422-2.25 1.778-1.066 1.185 2.368 1.185-2.368 1.778 1.066-1.422 2.25 2.607-.119v2.131l-2.607-.118 1.422 2.25-1.778 1.065-1.185-2.368-1.185 2.368-1.778-1.065 1.422-2.132-2.607.119v-2.25z" fill="#F27E00"/><path d="M136.535 122.307l1.778.947 1.303-2.25 1.067 2.25 1.896-.947-1.422-2.25 2.607.118v-2.012l-2.607.118 1.422-2.25-1.896-.947-1.185 2.25-1.185-2.25-1.778.947 1.422 2.25-2.607-.118v2.012h2.607l-1.422 2.132z" fill="#007020"/><path d="M157.038 142.077v-1.776l2.607.119-1.422-2.25 1.778-1.065 1.185 2.368 1.185-2.368 1.778 1.065-1.422 2.25 2.607-.119v1.776h2.37v-.236c-.948-5.092-5.333-8.999-10.666-8.999-4.86 0-8.889 3.079-10.311 7.459.118.592.355 1.184.355 1.776h9.956z" fill="#F27E00"/><path d="M167.823 142.078h-2.37v.237l-2.607-.118 1.422 2.249-1.778 1.066-1.185-2.368-1.185 2.368-1.778-1.066 1.422-2.131-2.607.119v-.237h-9.837c.118.473.118.947.118 1.421 0 1.184-.237 2.368-.592 3.433a10.811 10.811 0 0010.074 7.696h.474c5.333-.118 9.718-4.025 10.429-9.117-.118-.592-.118-1.184-.118-1.894 0-.829 0-1.184.118-1.658z" fill="#FCD73F"/><path d="M165.335 140.184l-2.489.118 1.304-2.131-1.778-1.066-1.185 2.25-1.185-2.25-1.778 1.066 1.304 2.131-2.489-.118v1.894h8.296v-1.894zM159.528 142.197l-1.304 2.131 1.778 1.065 1.185-2.367 1.185 2.367 1.778-1.065-1.304-2.25 2.489.237v-.237h-8.296v.237l2.489-.118z" fill="#007020"/><path d="M184.294 142.078h1.304l-1.422-.119.118.119zM180.268 142.078h.711v-.119l-.711.119z" fill="#F27E00"/><path d="M178.372 142.08v-2.013l2.607.118-1.422-2.249 1.778-1.066 1.185 2.368 1.185-2.368 1.778 1.066-1.422 2.249 2.607-.118v2.013h2.489c-.711-5.328-5.215-9.472-10.785-9.472-5.452 0-9.956 4.025-10.667 9.116v.237h10.667v.119z" fill="#F27E00"/><path d="M186.785 142.078l-1.067-.119h-1.422l1.303 2.131-1.777 1.066-1.186-2.368-1.185 2.368-1.778-1.066 1.423-2.131h-.711l-1.778.119v-.119h-10.548c.118.474.118 1.066.118 1.658 0 .592 0 1.184-.118 1.657.829 4.973 5.214 8.88 10.429 8.999h.474c5.926-.119 10.667-4.973 10.667-10.893 0-.474 0-.947-.119-1.421l-2.725.119zM167.823 142.078c-.119.474-.237.948-.237 1.421 0 .592.118 1.302.118 1.894.119-.592.119-1.065.119-1.657.119-.592.119-1.184 0-1.658z" fill="#FCD73F"/><path d="M180.978 141.958v.118h3.319l-.119-.118 1.423.118h1.185v-2.012l-2.608.118 1.423-2.25-1.897-1.065-1.066 2.368-1.185-2.368-1.897 1.065 1.422 2.25-2.607-.118v2.012h1.896l.711-.118zM179.557 144.091l1.896 1.065 1.185-2.249 1.067 2.249 1.896-1.065-1.304-2.013h-3.318l-1.422 2.013z" fill="#007020"/><path d="M142.104 142.078h1.422l-1.422-.119v.119zM138.076 142.078h.83v-.119l-.83.119z" fill="#F27E00"/><path d="M136.299 140.067l2.608.118-1.422-2.249 1.777-1.066 1.186 2.368 1.185-2.368 1.778 1.066-1.423 2.249 2.608-.118v2.013h1.778c.118-.592.237-1.184.474-1.776-1.423-4.381-5.452-7.696-10.43-7.696-5.57 0-10.074 4.144-10.785 9.472h10.666v-2.013z" fill="#F27E00"/><path d="M136.179 154.273h.474c4.741-.119 8.652-3.197 10.074-7.459-.355-1.066-.474-2.132-.474-3.197 0-.592 0-1.066.119-1.658h-1.778v.119l-1.067-.119h-1.422l1.304 2.131-1.778 1.066-1.185-2.368-1.185 2.368-1.778-1.066 1.422-2.131h-.711l-1.778.119v-.119H125.75c-.119.474-.119.947-.119 1.421-.118 5.92 4.622 10.774 10.548 10.893z" fill="#FCD73F"/><path d="M147.203 142.078l-.356-1.775c-.237.592-.355 1.184-.474 1.775h.83z" fill="#F27E00"/><path d="M147.198 142.077h-.829c-.119.473-.119 1.065-.119 1.657 0 1.065.119 2.131.474 3.196.356-1.065.593-2.249.593-3.433 0-.592-.119-.947-.119-1.42z" fill="#FCD73F"/><path d="M142.106 140.182l1.422-2.25-1.896-1.065-1.185 2.368-1.185-2.368-1.778 1.065 1.422 2.25-2.607-.118v2.012h1.778l.829-.118v.118h3.2v-.118l1.422.118h1.186v-2.012l-2.608.118zM137.482 144.089l1.778 1.065 1.185-2.249 1.186 2.249 1.777-1.065-1.303-2.012h-3.2l-1.423 2.012z" fill="#007020"/><path d="M106.67 46.176H-11.611v47.242H106.67V46.176z" fill="#F27E00"/><path d="M102.047-20.958v67.133h121.6v-67.133h-121.6z" fill="#DC000F"/><path d="M73.363 46.174l16.948-16.458c4.623-4.499 10.904-6.985 17.423-6.985h95.289v23.443H73.363z" fill="#061054"/><path d="M14.936 41.201c-.83-2.842-1.185-5.802-1.185-8.762 0-7.814 2.726-14.918 7.23-20.601C13.513 17.876 8.653 27.11 8.653 37.53c0 3.078.474 6.038 1.185 8.761v.119l5.097-5.092v-.118z" fill="#F27E00"/><path d="M46.579 65.236c-13.274 0-24.652-7.814-29.867-19.062a30.737 30.737 0 01-1.778-4.973l-5.096 5.091C13.749 60.145 26.43 70.21 41.482 70.21c10.43 0 19.674-4.855 25.719-12.432-5.57 4.736-12.8 7.46-20.622 7.46z" fill="#FCD73F"/><path d="M74.434 37.414c0-18.115-14.697-32.915-32.948-32.915-7.823 0-14.934 2.723-20.623 7.222-4.503 5.683-7.23 12.787-7.23 20.602 0 2.96.475 5.92 1.186 8.761h59.378c.237-1.184.237-2.368.237-3.67z" fill="#00963D"/><path d="M14.816 41.084c.474 1.894 1.186 3.552 1.897 5.21 5.214 11.247 16.592 19.062 29.866 19.062 7.823 0 15.052-2.723 20.623-7.341 2.725-3.434 4.74-7.34 6.044-11.722.474-1.657.83-3.433.948-5.21H14.816z" fill="#fff"/><path d="M245.216 79.446c27.622 0 50.015-22.37 50.015-49.965 0-27.595-22.393-49.965-50.015-49.965s-50.015 22.37-50.015 49.965c0 27.595 22.393 49.965 50.015 49.965z" fill="#1F52F5"/><path d="M256.475 68.08c-8.415 0-16.355-2.132-23.348-5.802-15.881-8.407-26.667-24.983-26.667-44.163 0-10.893 3.556-20.957 9.482-29.245-12.563 9.117-20.741 23.798-20.741 40.492 0 19.181 10.785 35.757 26.667 44.164 6.992 3.67 14.933 5.801 23.348 5.801 16.711 0 31.407-8.17 40.533-20.72a49.685 49.685 0 01-29.274 9.472z" fill="#fff"/><path d="M256.475 68.08c-8.415 0-16.355-2.132-23.348-5.802-15.881-8.407-26.667-24.983-26.667-44.163 0-10.893 3.556-20.957 9.482-29.245-12.563 9.117-20.741 23.798-20.741 40.492 0 19.181 10.785 35.757 26.667 44.164 6.992 3.67 14.933 5.801 23.348 5.801 16.711 0 31.407-8.17 40.533-20.72a49.685 49.685 0 01-29.274 9.472z" fill="#F27E00"/><path d="M244.031 50.438c0 2.013-1.659 3.552-3.556 3.552-2.014 0-3.555-1.657-3.555-3.552 0-3.315 3.555-7.696 3.555-7.696s3.556 4.026 3.556 7.696zM230.877 32.087c0 2.013-1.66 3.552-3.556 3.552-2.015 0-3.555-1.658-3.555-3.552 0-3.315 3.555-7.696 3.555-7.696s3.556 4.026 3.556 7.696zM244.031 17.049c0 2.012-1.659 3.552-3.556 3.552-2.014 0-3.555-1.658-3.555-3.552 0-3.316 3.555-7.696 3.555-7.696s3.556 4.025 3.556 7.696zM230.877-.12c0 2.013-1.659 3.552-3.555 3.552-2.015 0-3.556-1.657-3.556-3.552 0-3.315 3.556-7.696 3.556-7.696s3.555 4.026 3.555 7.696zM270.7 50.436c0 2.013-1.659 3.552-3.555 3.552-2.015 0-3.556-1.657-3.556-3.552 0-3.315 3.556-7.696 3.556-7.696s3.555 4.026 3.555 7.696zM257.661 32.087c0 2.013-1.659 3.552-3.555 3.552-2.015 0-3.556-1.658-3.556-3.552 0-3.315 3.556-7.696 3.556-7.696s3.555 4.026 3.555 7.696zM270.7 17.047c0 2.012-1.659 3.552-3.555 3.552-2.015 0-3.556-1.658-3.556-3.552 0-3.316 3.556-7.696 3.556-7.696s3.555 4.025 3.555 7.696zM257.661-.12c0 2.013-1.659 3.552-3.555 3.552-2.015 0-3.556-1.657-3.556-3.552 0-3.315 3.556-7.696 3.556-7.696s3.555 4.026 3.555 7.696z" fill="#fff"/><path d="M32.477 21.902c.71 0 1.303-.474 1.303-1.184l.237-2.368.948.118c-1.422 5.447-2.133 14.445 6.519 19.773 9.007 5.565 18.015-1.184 22.756-5.801l.592.355c-1.304 4.854-4.74 9.117-9.837 11.248-8.178 3.433-18.133-.237-22.044-8.17-2.252-4.38-2.252-9.59-.474-13.97z" fill="#FCD73F"/><path d="M41.483 38.241c-8.652-5.328-7.94-14.444-6.519-19.89h.356l-.237 3.551h.118a16.601 16.601 0 001.897 5.091c4.266 7.223 13.155 10.42 21.096 7.341a17.399 17.399 0 004.74-2.842l1.305.948c-4.623 4.617-13.749 11.366-22.756 5.801z" fill="#F27E00"/><path d="M30.816 20.837c.71.355 1.54 0 1.896-.592l1.304-2.368.948.592c-4.03 5.091-8.89 14.208-2.37 23.68 6.873 9.946 19.437 6.986 26.31 4.38l.475.711c-3.556 4.5-9.126 7.341-15.408 7.223-10.074-.119-18.844-8.525-19.318-18.59-.119-6.037 2.252-11.365 6.163-15.036z" fill="#FCD73F"/><path d="M32.833 42.032c-6.518-9.472-1.659-18.707 2.37-23.68l.356.237-1.896 3.552h.118a26.49 26.49 0 00-.355 6.156c1.066 9.472 9.007 16.931 18.489 17.287a18.654 18.654 0 006.281-.71l.948 1.538c-6.992 2.605-19.555 5.447-26.31-4.38z" fill="#F27E00"/><path d="M305.633 43.613l-101.598 98.123h101.598V43.613z" fill="#DC000F"/><path d="M248.653 79.093c-1.541 1.539-.474 3.078-1.067 4.617l10.074 10.064c.474-1.54-.474-3.197 1.067-4.617a1.63 1.63 0 01.474-.356l-10.074-10.064a1.629 1.629 0 00-.474.356zM241.07 86.67c-1.541 1.54-.355 3.315-1.185 4.972l10.074 10.064c.711-1.657-.474-3.315 1.185-4.973l.237-.236-10.074-10.064-.237.236zM255.292 75.896l10.074 10.064c.356-1.421-.474-2.96.948-4.38L256.24 71.514c-1.422 1.42-.711 2.96-.948 4.38z" fill="#FCD73F"/><path d="M233.365 94.247l10.074 10.064-10.074-10.064s.119 0 0 0zM239.288 92.472c-1.896 1.895-3.911-.118-5.807 1.776l10.074 10.064c1.896-1.894 3.911.119 5.807-1.776.356-.355.474-.592.593-.947l-10.074-10.064c-.119.355-.356.71-.593.947zM246.875 84.894c-1.778 1.776-3.792 0-5.57 1.54l10.074 10.064c1.896-1.54 3.792.236 5.57-1.54.356-.355.593-.828.711-1.184L247.586 83.71c-.118.474-.355.829-.711 1.184zM254.462 77.315c-1.778 1.776-3.674.118-5.452 1.42L259.084 88.8c1.778-1.302 3.674.356 5.452-1.42.474-.474.711-.948.829-1.421l-10.074-10.064c-.118.473-.355.947-.829 1.42z" fill="#007020"/><path d="M271.412 56.358c-1.54 1.539-.474 3.078-1.066 4.617L280.42 71.04c.474-1.539-.474-3.197 1.067-4.617.118-.119.237-.237.474-.356l-10.074-10.064c-.237.119-.356.237-.475.356zM263.826 63.934c-1.541 1.54-.356 3.316-1.185 4.973l10.074 10.064c.711-1.657-.474-3.315 1.185-4.972l.237-.237-10.074-10.064c-.119.118-.237.118-.237.236zM278.048 53.16l10.074 10.064c.356-1.42-.474-2.96.948-4.38l-10.074-10.065c-1.422 1.421-.711 2.842-.948 4.381z" fill="#FCD73F"/><path d="M256.24 71.512l10.074 10.064-10.074-10.064zM262.048 69.737c-1.897 1.895-3.911-.118-5.808 1.776l10.074 10.064c1.897-1.894 3.912.119 5.808-1.776.355-.355.474-.592.592-.947L262.64 68.79a2.57 2.57 0 01-.592.947zM269.631 62.16c-1.778 1.776-3.793 0-5.57 1.539l10.074 10.064c1.896-1.54 3.792.236 5.57-1.54.356-.355.593-.828.711-1.183l-10.074-10.064c-.118.473-.355.828-.711 1.184zM277.22 54.58c-1.778 1.776-3.675.118-5.452 1.42l10.074 10.065c1.778-1.303 3.674.355 5.452-1.421.474-.474.711-.947.829-1.42l-10.074-10.065c-.118.474-.355.947-.829 1.421z" fill="#007020"/><path d="M286.578 41.203c-1.541 1.54-.356 3.316-1.185 4.973l10.074 10.064c.711-1.657-.474-3.315 1.185-4.973l.237-.236-10.074-10.064c-.119.118-.237.118-.237.236z" fill="#FCD73F"/><path d="M278.992 48.781l10.074 10.064-10.074-10.064zM284.8 47.006c-1.897 1.894-3.911-.118-5.808 1.776l10.074 10.064c1.897-1.894 3.911.118 5.808-1.776.355-.355.474-.592.592-.947l-10.074-10.064a2.57 2.57 0 01-.592.947zM292.383 39.428c-1.778 1.776-3.793 0-5.57 1.54l10.074 10.063c1.896-1.539 3.792.237 5.57-1.539.356-.355.593-.828.711-1.184l-10.074-10.064c-.118.474-.355.83-.711 1.184z" fill="#007020"/><path d="M225.897 101.941c-1.541 1.539-.474 3.079-1.067 4.618l10.074 10.064c.474-1.539-.474-3.197 1.067-4.618.118-.118.237-.237.474-.355l-10.074-10.064a1.629 1.629 0 00-.474.355zM218.195 109.518c-1.541 1.539-.356 3.315-1.185 4.973l10.074 10.064c.711-1.658-.474-3.315 1.185-4.973l.237-.237-10.074-10.064a.255.255 0 01-.237.237zM210.666 116.812c-1.541 1.54-.356 3.316-1.186 4.973l10.075 10.064c.711-1.657-.475-3.315 1.185-4.973l.237-.236-10.074-10.064c0 .118-.119.236-.237.236zM203.109 124.359c-1.541 1.539-.356 3.315-1.185 4.973l10.074 10.064c.711-1.658-.474-3.315 1.185-4.973l.237-.237-10.074-10.064a.254.254 0 01-.237.237zM195.55 131.906c-1.54 1.539-.355 3.315-1.185 4.972l10.074 10.064c.711-1.657-.474-3.315 1.185-4.972l.238-.237-10.075-10.064a.255.255 0 01-.237.237zM232.536 98.745l10.074 10.064c.356-1.421-.474-2.96.948-4.381l-10.074-10.064c-1.422 1.421-.711 2.96-.948 4.381z" fill="#FCD73F"/><path d="M210.609 117.096l10.074 10.064-10.074-10.064zM216.536 115.319c-1.896 1.894-3.911-.119-5.807 1.776l10.074 10.064c1.896-1.895 3.911.118 5.807-1.776.356-.355.474-.592.593-.947l-10.074-10.064c-.119.355-.356.71-.593.947zM209.003 122.613c-1.897 1.895-3.911-.118-5.808 1.776l10.074 10.064c1.897-1.894 3.911.119 5.808-1.776.355-.355.474-.592.592-.947l-10.074-10.064c-.118.355-.355.71-.592.947zM201.45 130.162c-1.896 1.894-3.911-.119-5.807 1.776l10.074 10.064c1.896-1.895 3.911.118 5.807-1.776.356-.355.474-.592.593-.947l-10.074-10.064c-.119.355-.356.71-.593.947zM224.119 107.743c-1.778 1.776-3.792 0-5.57 1.539l10.074 10.064c1.896-1.539 3.793.237 5.57-1.539.356-.355.593-.829.711-1.184l-10.074-10.064c-.118.474-.355.829-.711 1.184zM231.706 100.163c-1.778 1.776-3.674.119-5.452 1.421l10.074 10.064c1.778-1.302 3.674.355 5.452-1.421.474-.473.711-.947.829-1.42l-10.074-10.064c-.118.473-.355.947-.829 1.42z" fill="#007020"/><path d="M196.615 141.41v40.666h11.077V141.41h-11.077z" fill="#1F52F5"/><path d="M289.68 141.735h-86.484v42.771h86.484v-42.771z" fill="#1F52F5"/><path d="M209.188 82.522c.356 1.066.593 2.368.593 3.907 0 9.591-12.682 25.219-17.422 25.219-.593 0-1.423-.473-2.371-1.184 2.845 3.079 5.452 5.091 6.637 5.091 4.741 0 17.423-15.51 17.423-25.219.118-4.617-1.778-6.748-4.86-7.814z" fill="#9E0040"/><path d="M209.899 86.43c0-1.54-.237-2.842-.592-3.907-1.067-.356-2.371-.593-3.793-.711h-18.133c-4.978.474-8.178 2.25-8.178 8.525 0 6.157 5.808 14.681 10.785 20.128 1.067.71 1.897 1.184 2.371 1.184 4.859 0 17.54-15.511 17.54-25.22z" fill="#DC000F"/><path d="M187.735 94.244a4.264 4.264 0 004.267-4.262 4.265 4.265 0 00-4.267-4.263 4.265 4.265 0 00-4.266 4.263 4.264 4.264 0 004.266 4.262z" fill="#fff"/><path d="M206.939 71.63l-6.756 4.144.593-7.341-4.03-.947V81.93h8.77l6.4-3.197a29.524 29.524 0 01-4.977-7.103z" fill="#007020"/><path d="M192.241 68.433l.475 7.341-6.519-4.025a29.44 29.44 0 01-4.859 6.985v.119l6.044 3.078h9.363V67.486l-4.504.947z" fill="#00963D"/><path d="M92.803 134.976H-11.611v73.289H92.803v-73.289z" fill="#1F52F5"/><path d="M112.479 140.894c-.474 0-.948-.118-1.422-.355-1.185-.592-1.778-1.894-1.541-3.197l.119-.473v-.237c0-.118.118-.355.118-.355.119-.474.237-.829.474-1.184s.475-.711.712-.947c11.377-18.352 16.592-46.295 17.896-54.227l-3.2-1.54c-.593-.355-1.067-.592-1.422-.947a3.083 3.083 0 010-4.144c.592-.592 1.303-.829 2.133-.829.593 0 1.304.237 1.778.592l3.911 1.776 13.392-6.156c.119-.119.119-.237.237-.237l4.386-4.026c.592-.474 1.303-.829 2.015-.829.355 0 .711 0 1.066.237 1.067.355 1.778 1.302 1.896 2.486.119 1.303.712 8.999-4.385 26.404-5.333 18.47-16.948 28.889-18.252 29.955l-17.777 17.404c-.593.474-1.304.829-2.134.829z" fill="#061054"/><path d="M152.061 66.54c.119.592.83 7.815-4.267 25.338-5.333 18.589-17.422 28.534-17.422 28.534l-17.896 17.523.118-.473c.474-.592.83-1.303 1.304-2.013-.355.592-.83 1.065-1.185 1.539v-.237c.237-.355.593-.828.83-1.184 13.748-22.259 18.607-57.542 18.607-57.542l-5.215-2.486c-.237-.119-.355-.237-.474-.356.119.119.237.237.474.237l5.215 2.368 14.933-6.867a1.21 1.21 0 00.711-.592l4.267-3.789zm0-5.92c-1.422 0-2.963.592-4.03 1.54l-4.266 4.025-11.615 5.328-2.37-1.066c-.949-.71-2.134-1.065-3.319-1.065a6.02 6.02 0 00-4.267 1.776c-2.251 2.25-2.251 5.92-.118 8.17.592.591 1.304 1.183 2.133 1.539 0 0 .119 0 .119.118l1.185.592c-1.778 9.827-6.874 34.454-17.067 50.912-.118.237-.355.474-.474.829-.474.71-.829 1.539-1.067 2.368v.71l-.118.474c-.474 2.486.711 5.091 2.963 6.275.83.473 1.896.71 2.844.71 1.541 0 2.963-.592 4.149-1.657l17.777-17.405c1.778-1.539 13.63-12.432 19.082-31.258 5.215-17.996 4.622-26.166 4.503-27.587-.237-2.25-1.777-4.144-3.792-4.854-.948-.355-1.541-.474-2.252-.474z" fill="#061054"/><path d="M20.625 108.809c4.86 0 8.533-1.658 11.733-4.026l18.726-15.629H-8.768l-20.503 19.891c.118-.118.355-.118.592-.118h49.304v-.118z" fill="#061054" stroke="#061054" stroke-width="4.548" stroke-miterlimit="10" stroke-linejoin="round"/><path d="M92.092 157.946l14.815 43.926 12.326-11.484-15.171-43.098-11.97 10.656z" fill="#007020" stroke="#007020" stroke-width="4.548" stroke-miterlimit="10" stroke-linejoin="round"/><path d="M77.753 69.62c-.83 0-1.54-.355-2.133-.947-1.067-1.184-1.067-2.96.118-4.026l14.697-15.036c1.422-1.776 11.851-14.445 32.237-14.445 16.118 0 25.363 9.946 28.207 13.734l15.17-.236c.83 0 1.541.355 2.134.828.592.592.829 1.303.829 2.132v.71c0 .829-.355 1.54-.829 2.013l-6.282 6.393c-.118.119-.237.355-.355.474l-4.386 4.026c-.592.473-1.303.828-2.014.828-.593 0-1.186-.118-1.66-.473-.355-.237-.711-.592-.829-.948H137.96c-1.066 0-2.133-.592-2.607-1.657-1.896-3.67-9.6-11.248-21.689-11.248-7.111 0-13.511 1.894-19.081 5.565 0 0-6.045 4.144-14.934 11.484-.592.593-1.303.83-1.896.83z" fill="#007020"/><path d="M122.55 38.126c18.015 0 26.667 13.734 26.667 13.734l16.711-.237v.71l-6.637 6.75-4.385 4.025c.237-.592-.238-1.42-1.067-1.42H137.72c-2.489-4.855-11.377-12.907-24.296-12.907-7.704 0-14.578 2.013-20.622 6.039 0 0-6.045 4.144-15.17 11.721l14.814-15.155c.119.119 9.956-13.26 30.104-13.26zm0-5.92c-21.096 0-32.474 12.905-34.489 15.51l-14.578 14.8c-2.252 2.25-2.252 5.801-.118 8.17 1.185 1.302 2.726 1.894 4.385 1.894a6.387 6.387 0 003.793-1.303c8.533-6.985 14.34-11.01 14.696-11.366 5.096-3.434 10.785-5.091 17.304-5.091 10.548 0 17.54 6.63 18.963 9.709 1.066 2.012 3.081 3.196 5.333 3.196h13.392c.119.119.356.237.593.474.948.71 2.133.947 3.319.947 1.422 0 2.963-.592 4.029-1.539l4.385-4.026.711-.71 6.163-6.275c1.067-1.066 1.66-2.605 1.66-4.144v-.71c0-1.54-.593-3.079-1.778-4.263-1.067-1.066-2.607-1.657-4.148-1.657h-.119l-13.748.118c-4.148-4.736-13.867-13.734-29.748-13.734z" fill="#007020"/><path d="M31.53 112.597c7.229-8.761 14.577-16.576 21.451-23.443h-.118a281.986 281.986 0 00-21.334 23.443zM109.277 73.526c.119.118.119.237.237.355.119.237.237.355.356.592.237.355.592.71.948 1.066 1.422 1.657 3.555 2.486 5.689 2.368 2.015 0 4.148-.83 5.689-2.368 1.659-1.658 2.37-3.67 2.251-5.683 0-1.303-.355-2.487-.948-3.67.593 1.183.948 2.367.948 3.67 0 2.012-.829 4.025-2.251 5.683-1.541 1.539-3.674 2.368-5.689 2.368s-4.03-.83-5.689-2.368c-.356-.355-.593-.71-.948-1.066-.119-.237-.237-.355-.356-.592-.118-.118-.237-.237-.237-.355-1.422-2.96-.83-6.394 1.304-8.998-2.489 2.604-2.845 6.156-1.304 8.998zM83.083 140.896c-.119 0-.119.119-.237.119h10.903c4.504 0 8.534-.829 12.208-2.013-3.674 1.184-7.704 1.894-12.326 1.894H83.083zM106.67 198.792l.592-.592-15.17-40.256 14.578 40.848z" fill="#061054"/><path d="M91.854 158.064l15.289-15.274c-13.037 8.88-28.208 10.419-35.674 10.419l16.237 45.584 6.637-6.275-11.497-32.441c3.556-.829 6.638-1.303 9.008-2.013z" fill="#061054"/><path d="M60.21 147.881c6.874-2.842 8.534-3.671 13.748-6.867h8.89c.118 0 .118-.119.236-.119H73.84c15.052-9.708 23.111-25.574 26.311-33.625 0-.355 0-.829-.355-1.184-1.186 2.013-2.015 3.67-3.2 5.209-12.563 19.418-32.356 33.152-63.882 33.152h-44.089c-.355 0-.592-.118-.71-.237.947 1.066 3.436 2.842 6.4 3.908 6.636 2.368 18.014 4.854 33.658 4.854 16 0 31.645-4.854 31.645-4.854h.118c.119-.119.356-.237.474-.237z" fill="#DC000F"/><path d="M96.594 201.752c-1.304 0-2.37-.829-2.844-2.013l-13.749-38.835c-.237-.829-.237-1.658.237-2.368.356-.711 1.067-1.303 1.897-1.421 1.422-.355 2.726-.592 3.911-.829 1.896-.355 3.555-.71 4.859-1.065h.119c.237-.119.592-.119.829-.119 1.185 0 2.489.711 2.845 1.895l14.577 40.848c.356.947.238 1.894-.355 2.723s-1.422 1.302-2.37 1.302h-9.956v-.118z" fill="#00963D"/><path d="M92.089 157.944l14.578 40.848H96.593l-2.252-6.394-11.496-32.441c3.556-.829 6.637-1.184 9.126-1.895l.118-.118zm0-5.92c-.592 0-1.185.118-1.777.237-.119 0-.119 0-.237.118a29.438 29.438 0 01-4.504.947c-1.185.237-2.607.474-4.03.829-1.659.355-3.081 1.421-3.91 2.96-.83 1.539-.949 3.197-.356 4.855l11.496 32.441 2.252 6.394c.829 2.368 3.081 3.907 5.57 3.907h10.074c1.897 0 3.674-.947 4.86-2.487 1.066-1.539 1.422-3.552.711-5.446L97.66 155.931c-.83-2.368-3.082-3.907-5.571-3.907z" fill="#FCD73F"/><path d="M77.632 201.751c-1.303 0-2.37-.828-2.844-2.012l-17.304-47.952c-5.215 1.42-17.067 4.144-29.511 4.144-18.252 0-29.511-3.079-34.607-4.973-3.2-1.184-6.4-3.197-7.704-4.854-.356-.474-.593-.948-.83-1.303 0-.118-.118-.237-.118-.355s-.119-.355-.119-.71v-.237-.237c0-.947.474-1.894 1.067-2.605l7.23-7.222c-14.341-2.368-22.4-12.314-25.363-21.786-.119-.237-.119-.592-.119-.829v-.236c0-.711-.118-1.776.474-2.96 0-.119.119-.237.237-.356.237-.355.474-.592.83-.828.592-.474 1.422-.711 2.252-.711h49.303c3.674 0 6.756-1.065 9.837-3.433L49.07 86.667l13.037-10.656c2.49-2.25 4.978-4.5 7.23-6.512a152.368 152.368 0 016.4-5.328c9.126-7.578 15.17-11.722 15.407-11.84 6.519-4.38 14.104-6.63 22.4-6.63 12.919 0 22.282 7.34 25.956 12.905h14.459c1.304 0 2.608.592 3.319 1.776.711 1.066.948 2.487.474 3.67-.356 1.066-1.185 1.895-2.371 2.369l-13.392 6.156c-1.067 7.341-6.163 37.178-18.608 57.187-.237.474-.711 1.066-1.185 1.776-2.252 3.197-4.74 6.157-7.703 8.88-1.778 1.658-3.793 3.197-5.808 4.618-11.852 8.169-25.363 10.301-33.185 10.774l14.815 41.795c.355.948.237 1.895-.356 2.724-.592.828-1.422 1.302-2.37 1.302h-9.956v.118z" fill="#00963D"/><path d="M113.543 48.899c12.918 0 21.807 8.051 24.296 12.905h16.119c.829 0 1.303.83 1.066 1.421a1.21 1.21 0 01-.711.592l-14.933 6.867s-4.622 35.402-18.37 57.661a45.514 45.514 0 00-1.067 1.658c-2.133 3.196-4.622 5.92-7.23 8.288a46.384 46.384 0 01-5.452 4.38c-13.037 8.88-28.207 10.42-35.674 10.42l16.119 45.702H77.632L59.38 148.236s-15.407 4.736-31.407 4.736c-15.645 0-27.023-2.368-33.66-4.854-2.963-1.066-5.57-2.842-6.4-3.907a1.63 1.63 0 00-.355-.474v-.237c0-.237.118-.473.237-.71l11.733-11.722c-16.118 0-25.837-9.708-29.155-20.246 0-.592-.119-1.302.118-1.658l.119-.118c.118-.118.355-.118.592-.118h49.304c4.86 0 8.533-1.658 11.733-4.026l18.845-15.747L64.12 78.499c2.489-2.25 4.978-4.5 7.23-6.512 2.251-1.894 4.385-3.67 6.28-5.328 9.127-7.578 15.171-11.722 15.171-11.722 6.163-4.025 13.037-6.038 20.741-6.038zm0-5.92c-8.889 0-16.948 2.368-23.941 7.104-.237.118-6.4 4.38-15.644 11.958-2.134 1.776-4.267 3.67-6.4 5.447-2.252 2.013-4.741 4.144-7.23 6.512L47.41 84.537l-18.726 15.629c-2.608 1.894-5.097 2.723-8.06 2.723h-49.422c-1.422 0-2.726.355-3.91 1.184-.593.474-1.186.947-1.66 1.658-.119.118-.237.355-.356.473-1.066 1.895-.948 3.789-.948 4.618v.118c0 .592.119 1.066.237 1.658 2.845 9.117 9.956 18.589 22.282 22.496l-3.437 3.433c-1.186 1.184-1.897 2.842-2.015 4.618v.592c0 .592.118.947.237 1.302 0 .237.118.356.237.592.237.829.711 1.54 1.304 2.25 1.777 2.131 5.333 4.381 9.007 5.802 5.333 1.894 16.948 5.209 35.674 5.209 10.904 0 21.452-2.013 27.615-3.552l16.355 45.466c.83 2.368 3.082 3.907 5.57 3.907H87.47c1.896 0 3.674-.947 4.859-2.487 1.067-1.539 1.422-3.552.711-5.446l-13.51-38.243c8.295-.947 20.147-3.67 30.814-10.893 2.133-1.539 4.267-3.078 6.163-4.854 3.081-2.842 5.807-5.92 8.059-9.354.474-.592.948-1.302 1.185-1.894 11.971-19.299 17.186-47.242 18.726-56.832l11.852-5.446c1.896-.71 3.2-2.25 3.911-4.026.83-2.131.474-4.5-.829-6.393-1.304-1.895-3.437-2.96-5.808-2.96h-12.563c-2.133-2.724-4.978-5.328-8.296-7.341-5.689-3.67-12.326-5.565-19.2-5.565z" fill="#FCD73F"/><path d="M80.596 121.123c0 .118 0 .118 0 0 5.807-3.434 11.852-8.288 18.015-14.8l.237-.237c-.119 0-.237.118-.356.237-6.044 6.512-11.97 11.248-17.896 14.8zM119.468 63.107c-.948 0-1.896.473-2.607 1.184-.83.592-1.185 1.657-1.185 2.604 0 .948.474 1.895 1.185 2.605.593.829 1.659 1.184 2.607 1.184.949 0 1.897-.473 2.608-1.184 1.185-1.539 1.185-3.552 0-5.21l-.711-.71c-1.067-.947-2.371-1.42-3.674-1.657 1.185.236 2.251.71 3.318 1.42-.474-.236-1.067-.355-1.541-.236z" fill="#fff"/><path d="M32.712 144.448c31.526 0 51.319-13.734 63.882-33.152 1.185-1.657 2.014-3.196 3.2-5.209-.356 0-.593 0-.949.118l-.237.237c-6.163 6.512-12.207 11.248-18.014 14.8-4.741 2.841-9.245 4.854-13.748 6.275-8.77 2.96-17.067 3.552-24.297 3.552H19.083c-.474 0-.83-.355-.949-.829 0-.237 0-.473.119-.829.118-.118.118-.236.237-.236v-.119c4.267-5.801 8.533-11.366 12.919-16.457a330.458 330.458 0 0121.333-23.443c3.91-4.026 7.822-7.697 11.496-11.012L51.083 89.156l-18.845 15.747c-3.2 2.368-6.874 4.025-11.733 4.025H-28.8c-.237 0-.474.119-.593.119-.118 0-.118.118-.118.118-.237.474-.119 1.184-.119 1.658 3.2 10.537 12.919 20.246 29.156 20.246l-11.733 11.722c-.119.118-.237.355-.237.71v.237c0 .118.118.355.355.473.119.119.356.237.711.237h44.09z" fill="#007020"/><path d="M153.957 61.803h-16.118l-4.03 4.855c-.355.592-.355.947-.118 1.302.118.119.237.237.474.237l5.214 2.368 14.934-6.867c.355-.118.592-.355.711-.592.237-.474-.119-1.303-1.067-1.303zM120.058 131.423c-.474.592-1.066 1.302-1.777 1.894-2.963 3.078-7.111 5.683-12.326 7.459-3.674 1.303-7.822 2.013-12.208 2.013H73.954c-5.214 3.197-6.873 4.026-13.747 6.867-.119 0-.356.119-.474.355-.119.237-.237.711 0 .948l17.777 49.727h10.074l-16.118-45.702c7.467 0 22.637-1.421 35.674-10.419a46.457 46.457 0 005.452-4.381c2.607-2.368 5.096-5.091 7.229-8.288.475-.592.83-1.302 1.304-2.013-.237.474-.711.948-1.067 1.54zM109.273 73.525c.119.118.119.237.237.355.119.237.237.355.356.592.237.355.592.71.948 1.066 1.541 1.539 3.674 2.368 5.689 2.368s4.03-.829 5.689-2.368c1.422-1.658 2.252-3.67 2.252-5.683 0-1.184-.356-2.487-.949-3.67-.355-.711-.829-1.303-1.303-1.895 1.185 1.657 1.185 3.552 0 5.21-.711.71-1.659 1.183-2.608 1.183-1.066 0-2.014-.355-2.607-1.184-.711-.71-1.185-1.657-1.185-2.604 0-1.066.355-2.013 1.185-2.605.711-.71 1.659-1.184 2.607-1.184.474 0 1.067.118 1.541.237-1.067-.71-2.133-1.184-3.318-1.421-.356 0-.83-.118-1.186-.118-2.014 0-4.148.828-5.688 2.367l-.238.237c-2.251 2.723-2.844 6.157-1.422 9.117z" fill="#00963D"/><path d="M91.856 158.066c-2.37.71-5.57 1.184-9.125 1.894l11.496 32.441 2.252 6.394h10.074l-14.578-40.848c.118 0 0 .119-.119.119z" fill="#00963D"/><path d="M18.492 129.173c-.118.118-.118.236-.237.236-.118.237-.118.592-.118.829.118.474.355.829.948.829H42.67c7.23 0 15.407-.592 24.296-3.552 4.504-1.421 9.008-3.552 13.749-6.394 5.807-3.552 11.851-8.288 17.896-14.8.118-.118.237-.118.355-.236.356-.119.593-.119.948-.119.356.355.356.829.356 1.184-3.2 8.051-11.378 23.917-26.311 33.626H93.87c4.504 0 8.652-.711 12.326-1.895 5.215-1.657 9.363-4.38 12.326-7.459.592-.71 1.185-1.421 1.778-2.013.237-.355.592-.828.829-1.184 13.748-22.259 18.608-57.542 18.608-57.542l-5.215-2.486a1.629 1.629 0 01-.474-.355c-.356-.356-.237-.71.118-1.303l4.03-4.854c-2.489-4.855-11.378-12.906-24.296-12.906-7.704 0-14.578 2.013-20.623 6.039 0 0-6.044 4.144-15.17 11.721-2.015 1.658-4.03 3.434-6.281 5.328a170.867 170.867 0 00-7.23 6.512c-3.556 3.315-7.348 6.867-11.14 10.656-6.875 6.867-14.223 14.682-21.453 23.443-4.859 5.328-9.244 10.893-13.51 16.695zm91.971-64.647l.237-.236c1.54-1.54 3.674-2.368 5.689-2.368.355 0 .829 0 1.185.118 1.303.237 2.607.71 3.674 1.658l.711.71c.474.592.948 1.184 1.304 1.894.592 1.184.948 2.487.948 3.67 0 2.014-.711 4.026-2.252 5.684-1.541 1.54-3.674 2.368-5.689 2.368-2.133 0-4.267-.71-5.689-2.368-.355-.355-.592-.71-.948-1.066-.119-.236-.237-.355-.356-.592-.118-.118-.118-.236-.237-.355-1.303-2.96-.948-6.512 1.423-9.117z" fill="#DC000F"/></g></g><defs><clipPath id="clip0"><rect width="288" height="181" rx="16" fill="#fff"/></clipPath><clipPath id="clip1"><path fill="#fff" transform="translate(0 -1)" d="M0 0h288v182H0z"/></clipPath></defs></svg>
