<svg xmlns="http://www.w3.org/2000/svg" width="84" height="63" fill="none" viewBox="0 0 336 252"><g clip-path="url(#a)"><mask id="b" width="302" height="194" x="17" y="29" mask-type="alpha" maskUnits="userSpaceOnUse"><path fill="#C4C4C4" stroke="#E30613" stroke-miterlimit="10" stroke-width=".425" d="M32.772 222h270.456c8.124 0 14.772-6.776 14.772-15.059V45.059C318 36.777 311.352 30 303.228 30H32.772C24.648 30 18 36.776 18 45.059V206.94C18 215.224 24.648 222 32.772 222Z"/></mask><g mask="url(#b)"><path fill="#FCD73F" d="M363.803 7.787H5.902v242.824h357.901V7.787Z"/><path fill="#9E0040" d="M215.283 180.225c.123.502 0 1.244 0 1.746 0 5.772-4.938 10.415-11.111 10.541h-.494c-5.432-.126-10-3.765-10.864-8.659-.864 4.894-5.432 8.784-10.864 8.91h-.494c-4.938-.126-9.136-3.137-10.494-7.404-1.481 4.141-5.556 7.153-10.494 7.278h-.494c-6.172-.125-11.111-4.768-11.111-10.541 0-.502 0-.878.124-1.38h-35.185v70.149l116.049-.251v-70.389h-14.568Zm-54.938 33.62h-.494c-6.173-.125-11.111-4.768-11.111-10.541 0-5.773 5.062-10.541 11.358-10.541s11.358 4.768 11.358 10.541c0 5.773-4.938 10.416-11.111 10.541Z"/><path fill="#FCD73F" d="M160.098 193.892c-6.297 0-11.358 5.145-11.358 11.545 0 6.274 4.938 11.294 11.111 11.545h.494c6.173-.126 11.111-5.271 11.111-11.545 0-6.4-5.062-11.545-11.358-11.545Zm8.642 10.164-2.716-.125 1.481 2.384-1.852 1.13-1.234-2.51-1.235 2.51-1.852-1.13 1.482-2.259-2.716.126v-2.259l2.716.125-1.482-2.384 1.852-1.129 1.235 2.51 1.234-2.51 1.852 1.129-1.481 2.384 2.716-.125v2.133Z"/><path fill="#007020" d="m167.506 199.664-1.976-1.13-1.234 2.385-1.235-2.385-1.852 1.13 1.482 2.259-2.716-.126v2.259l2.716-.126-1.482 2.259 1.852 1.13 1.235-2.51 1.234 2.51 1.852-1.13-1.358-2.384 2.716.251v-2.259l-2.716.126 1.482-2.259Z"/><path fill="#F27E00" d="M181.456 170.3h.493c6.173-.125 11.112-5.271 11.112-11.545 0-6.4-5.062-11.545-11.358-11.545-6.297 0-11.359 5.145-11.359 11.545s4.939 11.42 11.112 11.545Zm.123-15.059 2.716.126-1.481-2.385 1.851-1.129 1.235 2.51 1.235-2.51 1.851 1.129-1.481 2.385 2.716-.126v2.259l-2.716-.125 1.481 2.384-1.851 1.129-1.235-2.51-1.235 2.51-1.851-1.129 1.481-2.259-2.716.126v-2.385Z"/><path fill="#007020" d="m182.813 159.633 1.852 1.004 1.235-2.385 1.234 2.385 1.852-1.004-1.358-2.385 2.593.126v-2.133l-2.593.125 1.358-2.384-1.852-1.004-1.234 2.384-1.235-2.384-1.852 1.004 1.358 2.384-2.592-.125v2.133h2.592l-1.358 2.259Z"/><path fill="#F27E00" d="M181.456 146.706h.494c6.173-.125 11.111-5.27 11.111-11.545 0-6.4-5.062-11.545-11.358-11.545-6.297 0-11.358 5.145-11.358 11.545 0 6.275 4.938 11.42 11.111 11.545Zm.123-15.059 2.716.126-1.481-2.384 1.852-1.13 1.234 2.51 1.235-2.51 1.852 1.13-1.482 2.384 2.716-.126v2.259l-2.716-.125 1.482 2.384-1.852.878-1.235-2.509-1.234 2.509-1.852-1.129 1.481-2.259-2.716.126v-2.134Z"/><path fill="#007020" d="m182.814 135.914 1.852 1.13 1.235-2.385 1.234 2.385 1.852-1.13-1.358-2.259 2.593.126v-2.133l-2.593.125 1.358-2.384-1.852-1.13-1.234 2.51-1.235-2.51-1.852 1.13 1.358 2.384-2.592-.125v2.133l2.592-.126-1.358 2.259Z"/><path fill="#F27E00" d="M158.863 170.299h.494c6.173-.126 11.111-5.271 11.111-11.545 0-6.4-5.062-11.546-11.358-11.546s-11.358 5.146-11.358 11.546c.123 6.4 4.938 11.419 11.111 11.545Zm.124-15.059 2.716.125-1.482-2.384 1.852-1.129 1.234 2.509 1.235-2.509 1.852 1.129-1.482 2.384 2.716-.125v2.259l-2.716-.126 1.482 2.385-1.852 1.129-1.235-2.51-1.234 2.51-1.852-1.129 1.482-2.259-2.716.125v-2.384Z"/><path fill="#007020" d="m160.221 159.63 1.852 1.004 1.358-2.384 1.111 2.384 1.976-1.004-1.482-2.384 2.716.125v-2.133l-2.716.125 1.482-2.384-1.976-1.004-1.234 2.384-1.235-2.384-1.852 1.004 1.482 2.384-2.716-.125v2.133h2.716l-1.482 2.259Z"/><path fill="#F27E00" d="M181.58 180.59v-1.882l2.716.125-1.482-2.384 1.852-1.129 1.235 2.509 1.234-2.509 1.852 1.129-1.481 2.384 2.716-.125v1.882h2.469v-.251c-.988-5.396-5.556-9.537-11.111-9.537-5.062 0-9.26 3.263-10.741 7.906.123.627.37 1.255.37 1.882h10.371Z"/><path fill="#FCD73F" d="M192.814 180.588h-2.469v.251l-2.716-.126 1.482 2.384-1.852 1.13-1.235-2.51-1.234 2.51-1.852-1.13 1.481-2.258-2.716.125v-.251h-10.247c.124.502.124 1.004.124 1.506 0 1.255-.247 2.51-.618 3.639 1.358 4.643 5.556 8.032 10.494 8.157h.494c5.556-.125 10.124-4.267 10.864-9.663-.123-.627-.123-1.255-.123-2.007 0-.879 0-1.255.123-1.757Z"/><path fill="#007020" d="m190.222 178.583-2.593.125 1.358-2.259-1.852-1.129-1.234 2.384-1.235-2.384-1.852 1.129 1.358 2.259-2.592-.125v2.007h8.642v-2.007Z"/><path fill="#007020" d="m184.172 180.715-1.358 2.258 1.852 1.129 1.235-2.509 1.234 2.509 1.852-1.129-1.358-2.384 2.593.251v-.251h-8.642v.251l2.592-.125Z"/><path fill="#F27E00" d="M209.975 180.589h1.358l-1.482-.125.124.125ZM205.777 180.589h.741v-.125l-.741.125Z"/><path fill="#F27E00" d="M203.802 180.59v-2.133l2.716.125-1.481-2.384 1.851-1.13 1.235 2.51 1.235-2.51 1.851 1.13-1.481 2.384 2.716-.125v2.133h2.593c-.741-5.647-5.432-10.039-11.235-10.039-5.679 0-10.37 4.266-11.111 9.662v.251h11.111v.126Z"/><path fill="#FCD73F" d="m212.567 180.589-1.111-.125h-1.482l1.358 2.259-1.852 1.129-1.234-2.51-1.235 2.51-1.852-1.129 1.482-2.259h-.741l-1.852.125v-.125h-10.987c.123.502.123 1.129.123 1.757 0 .627 0 1.255-.123 1.757.864 5.27 5.432 9.411 10.864 9.537h.494c6.172-.126 11.111-5.271 11.111-11.545 0-.502 0-1.004-.124-1.506l-2.839.125ZM192.814 180.589c-.124.502-.247 1.004-.247 1.506 0 .627.123 1.38.123 2.007.124-.627.124-1.129.124-1.756.123-.628.123-1.255 0-1.757Z"/><path fill="#007020" d="M206.519 180.465v.125h3.457l-.124-.125 1.482.125h1.234v-2.133l-2.716.126 1.482-2.385-1.976-1.129-1.111 2.51-1.234-2.51-1.976 1.129 1.482 2.385-2.716-.126v2.133h1.975l.741-.125Z"/><path fill="#007020" d="m205.038 182.721 1.975 1.129 1.235-2.384 1.111 2.384 1.975-1.129-1.358-2.133h-3.457l-1.481 2.133Z"/><path fill="#F27E00" d="M166.024 180.589h1.481l-1.481-.125v.125ZM161.828 180.589h.864v-.125l-.864.125Z"/><path fill="#F27E00" d="m159.975 178.457 2.716.125-1.481-2.384 1.852-1.13 1.234 2.51 1.235-2.51 1.852 1.13-1.482 2.384 2.716-.125v2.133h1.852c.124-.628.247-1.255.494-1.882-1.481-4.644-5.679-8.157-10.864-8.157-5.803 0-10.494 4.392-11.235 10.039h11.111v-2.133Z"/><path fill="#FCD73F" d="M159.851 193.515h.494c4.938-.126 9.012-3.388 10.494-7.906-.37-1.129-.494-2.259-.494-3.388 0-.628 0-1.13.124-1.757h-1.852v.125l-1.111-.125h-1.482l1.358 2.259-1.852 1.129-1.234-2.51-1.235 2.51-1.852-1.129 1.482-2.259h-.741l-1.852.125v-.125h-11.111c-.123.502-.123 1.004-.123 1.506-.124 6.274 4.814 11.419 10.987 11.545Z"/><path fill="#F27E00" d="m171.333 180.589-.37-1.882c-.247.627-.371 1.254-.494 1.882h.864Z"/><path fill="#FCD73F" d="M171.332 180.589h-.864c-.124.502-.124 1.129-.124 1.757 0 1.129.124 2.258.494 3.387.371-1.129.618-2.384.618-3.638 0-.628-.124-1.004-.124-1.506Z"/><path fill="#007020" d="m166.024 178.581 1.482-2.384-1.976-1.13-1.234 2.51-1.235-2.51-1.852 1.13 1.482 2.384-2.716-.125v2.133h1.852l.864-.126v.126h3.333v-.126l1.482.126h1.234v-2.133l-2.716.125ZM161.209 182.723l1.852 1.13 1.235-2.384 1.234 2.384 1.852-1.13-1.358-2.133h-3.333l-1.482 2.133Z"/><path fill="#F27E00" d="M129.111 78.941H5.901v50.071h123.21v-50.07Z"/><path fill="#DC000F" d="M124.296 7.787V78.94h126.667V7.787H124.296Z"/><path fill="#061054" d="m94.419 78.941 17.654-17.443c4.815-4.768 11.358-7.404 18.148-7.404h99.26v24.847H94.419Z"/><path fill="#F27E00" d="M33.555 73.671c-.864-3.011-1.234-6.149-1.234-9.286 0-8.282 2.84-15.812 7.53-21.835A35.19 35.19 0 0 0 27.013 69.78c0 3.263.494 6.4 1.235 9.286v.126l5.308-5.396v-.126Z"/><path fill="#FCD73F" d="M66.518 99.145c-13.827 0-25.679-8.282-31.11-20.204a32.94 32.94 0 0 1-1.853-5.27l-5.308 5.396c4.074 14.682 17.284 25.349 32.962 25.349 10.865 0 20.494-5.145 26.79-13.177-5.802 5.02-13.333 7.906-21.48 7.906Z"/><path fill="#00963D" d="M95.53 69.656c0-19.2-15.308-34.886-34.32-34.886-8.148 0-15.556 2.886-21.482 7.655-4.691 6.024-7.53 13.553-7.53 21.835 0 3.138.493 6.275 1.234 9.287h61.852c.247-1.255.247-2.51.247-3.89Z"/><path fill="#fff" d="M33.431 73.547c.494 2.008 1.235 3.765 1.976 5.521 5.432 11.922 17.283 20.204 31.11 20.204 8.149 0 15.68-2.886 21.482-7.78 2.84-3.64 4.938-7.78 6.296-12.424.494-1.756.864-3.639.988-5.521H33.431Z"/><path fill="#1F52F5" d="M273.433 114.202c28.773 0 52.099-23.71 52.099-52.957S302.206 8.288 273.433 8.288c-28.774 0-52.099 23.71-52.099 52.957 0 29.248 23.325 52.957 52.099 52.957Z"/><path fill="#fff" d="M285.161 102.156c-8.766 0-17.037-2.259-24.321-6.149-16.544-8.91-27.778-26.478-27.778-46.808 0-11.545 3.704-22.212 9.876-30.996-13.086 9.663-21.605 25.224-21.605 42.918 0 20.33 11.235 37.898 27.778 46.808 7.284 3.89 15.556 6.149 24.321 6.149 17.408 0 32.716-8.659 42.222-21.961-8.518 6.274-19.012 10.039-30.493 10.039Z"/><path fill="#F27E00" d="M285.161 102.156c-8.766 0-17.037-2.259-24.321-6.149-16.544-8.91-27.778-26.478-27.778-46.808 0-11.545 3.704-22.212 9.876-30.996-13.086 9.663-21.605 25.224-21.605 42.918 0 20.33 11.235 37.898 27.778 46.808 7.284 3.89 15.556 6.149 24.321 6.149 17.408 0 32.716-8.659 42.222-21.961-8.518 6.274-19.012 10.039-30.493 10.039Z"/><path fill="#fff" d="M272.197 83.458c0 2.133-1.728 3.764-3.703 3.764-2.099 0-3.704-1.756-3.704-3.764 0-3.514 3.704-8.157 3.704-8.157s3.703 4.266 3.703 8.157ZM258.495 64.006c0 2.133-1.728 3.765-3.703 3.765-2.099 0-3.704-1.757-3.704-3.765 0-3.514 3.704-8.157 3.704-8.157s3.703 4.267 3.703 8.157ZM272.197 48.069c0 2.133-1.728 3.764-3.703 3.764-2.099 0-3.704-1.756-3.704-3.764 0-3.514 3.704-8.157 3.704-8.157s3.703 4.267 3.703 8.157ZM258.493 29.873c0 2.133-1.728 3.765-3.703 3.765-2.099 0-3.704-1.757-3.704-3.765 0-3.514 3.704-8.157 3.704-8.157s3.703 4.267 3.703 8.157ZM299.973 83.46c0 2.134-1.728 3.765-3.703 3.765-2.099 0-3.704-1.757-3.704-3.765 0-3.513 3.704-8.156 3.704-8.156s3.703 4.266 3.703 8.156ZM286.394 64.009c0 2.133-1.728 3.764-3.703 3.764-2.099 0-3.704-1.757-3.704-3.764 0-3.514 3.704-8.157 3.704-8.157s3.703 4.267 3.703 8.157ZM299.973 48.073c0 2.133-1.728 3.764-3.703 3.764-2.099 0-3.704-1.756-3.704-3.764 0-3.514 3.704-8.157 3.704-8.157s3.703 4.267 3.703 8.157ZM286.394 29.876c0 2.133-1.728 3.764-3.703 3.764-2.099 0-3.704-1.756-3.704-3.764 0-3.514 3.704-8.157 3.704-8.157s3.703 4.266 3.703 8.157Z"/><path fill="#FCD73F" d="M51.827 53.217c.74 0 1.358-.502 1.358-1.255l.246-2.51.988.126c-1.481 5.772-2.222 15.31 6.79 20.957 9.383 5.898 18.766-1.255 23.704-6.15l.617.377c-1.358 5.145-4.938 9.663-10.247 11.922-8.518 3.639-18.889-.251-22.963-8.66-2.345-4.642-2.345-10.164-.493-14.807Z"/><path fill="#F27E00" d="M61.21 70.534c-9.012-5.647-8.271-15.31-6.79-21.083h.37l-.246 3.765h.123c.37 1.882.988 3.64 1.976 5.396 4.444 7.655 13.703 11.043 21.975 7.78a18.064 18.064 0 0 0 4.938-3.011l1.358 1.004c-4.815 4.894-14.32 12.047-23.703 6.149Z"/><path fill="#FCD73F" d="M50.098 52.085c.74.376 1.605 0 1.975-.628l1.358-2.51.988.628c-4.197 5.396-9.26 15.059-2.47 25.098 7.161 10.541 20.248 7.404 27.408 4.643l.494.753c-3.704 4.769-9.506 7.78-16.05 7.655-10.493-.126-19.629-9.035-20.123-19.702-.123-6.4 2.346-12.047 6.42-15.937Z"/><path fill="#F27E00" d="M52.197 74.55c-6.79-10.04-1.728-19.828 2.47-25.099l.37.251-1.976 3.765h.124a28.563 28.563 0 0 0-.37 6.526c1.11 10.039 9.382 17.945 19.258 18.321a19.117 19.117 0 0 0 6.544-.753l.987 1.631c-7.284 2.761-20.37 5.773-27.407-4.643Z"/><path fill="#DC000F" d="m336.368 76.222-105.831 104h105.831v-104Z"/><path fill="#FCD73F" d="M277.014 113.827c-1.605 1.631-.494 3.262-1.111 4.894l10.494 10.666c.493-1.631-.494-3.388 1.111-4.894a1.7 1.7 0 0 1 .494-.376l-10.494-10.667a1.701 1.701 0 0 0-.494.377ZM269.112 121.858c-1.605 1.632-.37 3.514-1.235 5.271l10.494 10.667c.741-1.757-.494-3.514 1.235-5.271l.247-.251-10.494-10.667-.247.251ZM283.927 110.437l10.494 10.667c.37-1.506-.494-3.138.988-4.643l-10.494-10.667c-1.482 1.506-.741 3.137-.988 4.643Z"/><path fill="#007020" d="m261.088 129.888 10.493 10.667-10.493-10.667c.123 0 0 0 0 0ZM267.259 128.005c-1.976 2.008-4.074-.125-6.05 1.883l10.494 10.666c1.975-2.008 4.074.126 6.049-1.882.371-.377.494-.628.618-1.004l-10.494-10.667a2.74 2.74 0 0 1-.617 1.004ZM275.161 119.974c-1.852 1.882-3.95 0-5.802 1.631l10.494 10.667c1.975-1.631 3.95.251 5.802-1.631.371-.377.617-.879.741-1.255l-10.494-10.667c-.123.502-.37.878-.741 1.255ZM283.063 111.941c-1.852 1.883-3.827.126-5.679 1.506l10.494 10.667c1.852-1.381 3.827.376 5.679-1.506.494-.502.741-1.004.864-1.506l-10.494-10.667c-.123.502-.37 1.004-.864 1.506Z"/><path fill="#FCD73F" d="M300.717 89.731c-1.605 1.632-.494 3.263-1.111 4.894l10.494 10.667c.494-1.631-.494-3.388 1.111-4.894.123-.126.247-.251.494-.377l-10.494-10.666c-.247.125-.37.25-.494.376ZM292.816 97.762c-1.605 1.631-.371 3.514-1.235 5.27l10.494 10.667c.741-1.757-.494-3.514 1.234-5.27l.247-.251-10.493-10.667c-.124.125-.247.125-.247.25ZM307.63 86.344l10.494 10.667c.37-1.506-.494-3.138.987-4.643L308.618 81.7c-1.482 1.506-.741 3.012-.988 4.643Z"/><path fill="#007020" d="m284.914 105.795 10.493 10.666-10.493-10.666ZM290.963 103.913c-1.975 2.008-4.074-.126-6.049 1.882l10.493 10.667c1.976-2.008 4.074.125 6.05-1.883.37-.376.494-.627.617-1.004l-10.494-10.666c-.123.376-.37.753-.617 1.004ZM298.863 95.881c-1.851 1.883-3.95 0-5.802 1.632l10.494 10.666c1.975-1.631 3.95.251 5.802-1.631.371-.376.618-.878.741-1.255l-10.494-10.667c-.123.502-.37.879-.741 1.255ZM306.765 87.847c-1.851 1.883-3.827.126-5.679 1.506l10.494 10.667c1.852-1.38 3.827.376 5.679-1.506.494-.502.741-1.004.864-1.506L307.63 86.341c-.124.502-.371 1.004-.865 1.506Z"/><path fill="#FCD73F" d="M316.52 73.669c-1.605 1.631-.371 3.513-1.235 5.27l10.494 10.667c.741-1.757-.494-3.514 1.235-5.27l.246-.252-10.493-10.666c-.124.125-.247.125-.247.25Z"/><path fill="#007020" d="m308.618 81.702 10.494 10.666-10.494-10.666Z"/><path fill="#007020" d="M314.667 79.82c-1.975 2.008-4.074-.126-6.049 1.882l10.494 10.667c1.975-2.008 4.074.125 6.049-1.882.37-.377.494-.628.617-1.004l-10.494-10.667a2.73 2.73 0 0 1-.617 1.004ZM322.568 71.788c-1.852 1.883-3.951 0-5.803 1.632l10.494 10.666c1.975-1.631 3.951.251 5.802-1.631.371-.376.618-.878.741-1.255l-10.494-10.667c-.123.502-.37.879-.74 1.255Z"/><path fill="#FCD73F" d="M253.31 138.047c-1.605 1.631-.494 3.263-1.111 4.894l10.494 10.667c.493-1.632-.494-3.388 1.111-4.894.123-.126.247-.251.494-.377l-10.494-10.666a1.7 1.7 0 0 0-.494.376ZM245.286 146.078c-1.605 1.631-.371 3.513-1.235 5.27l10.494 10.667c.741-1.757-.494-3.514 1.235-5.271l.247-.251-10.494-10.666c0 .125-.124.251-.247.251ZM237.441 153.806c-1.605 1.631-.37 3.513-1.234 5.27l10.493 10.667c.741-1.757-.493-3.514 1.235-5.271l.247-.251-10.494-10.666c0 .125-.123.251-.247.251ZM229.57 161.805c-1.605 1.631-.371 3.514-1.235 5.271l10.494 10.666c.741-1.757-.494-3.514 1.234-5.27l.247-.251-10.494-10.667c0 .125-.123.251-.246.251ZM221.698 169.805c-1.605 1.632-.37 3.514-1.235 5.271l10.494 10.667c.741-1.757-.494-3.514 1.235-5.271l.247-.251-10.494-10.667c0 .126-.124.251-.247.251ZM260.223 134.658l10.494 10.667c.37-1.506-.494-3.138.988-4.643l-10.494-10.667c-1.482 1.506-.741 3.137-.988 4.643Z"/><path fill="#007020" d="m237.384 154.109 10.494 10.667-10.494-10.667ZM243.557 152.226c-1.976 2.008-4.074-.126-6.05 1.882l10.494 10.667c1.975-2.008 4.074.125 6.05-1.882.37-.377.493-.628.617-1.004l-10.494-10.667c-.123.376-.37.753-.617 1.004ZM235.712 159.955c-1.975 2.008-4.074-.125-6.049 1.882l10.493 10.667c1.976-2.008 4.074.126 6.05-1.882.37-.377.494-.628.617-1.004l-10.494-10.667c-.123.377-.37.753-.617 1.004ZM227.84 167.954c-1.975 2.008-4.074-.125-6.049 1.883l10.494 10.666c1.975-2.007 4.074.126 6.049-1.882.371-.376.494-.627.617-1.004l-10.493-10.667a2.743 2.743 0 0 1-.618 1.004ZM251.458 144.194c-1.852 1.883-3.951 0-5.803 1.632l10.494 10.667c1.975-1.632 3.951.251 5.803-1.632.37-.376.617-.878.74-1.255l-10.494-10.666c-.123.502-.37.878-.74 1.254ZM259.359 136.162c-1.852 1.882-3.827.125-5.679 1.506l10.494 10.666c1.852-1.38 3.827.377 5.679-1.505.494-.502.741-1.004.864-1.506l-10.494-10.667c-.123.502-.37 1.004-.864 1.506Z"/><path fill="#1F52F5" d="M222.664 180.222v42.666h11.293v-42.666h-11.293Z"/><path fill="#061054" d="M319.748 180.223H229.66v45.333h90.088v-45.333Z"/><path fill="#9E0040" d="M235.902 117.467c.37 1.129.617 2.51.617 4.141 0 10.165-13.21 26.73-18.148 26.73-.617 0-1.481-.502-2.469-1.255 2.963 3.262 5.679 5.396 6.913 5.396 4.939 0 18.149-16.439 18.149-26.73.123-4.894-1.852-7.153-5.062-8.282Z"/><path fill="#DC000F" d="M236.643 121.606c0-1.631-.247-3.011-.617-4.141-1.111-.376-2.469-.627-3.951-.753h-18.889c-5.185.502-8.518 2.384-8.518 9.035 0 6.526 6.049 15.561 11.234 21.334 1.111.753 1.976 1.255 2.469 1.255 5.062 0 18.272-16.44 18.272-26.73Z"/><path fill="#fff" d="M213.556 129.891c2.454 0 4.444-2.023 4.444-4.518 0-2.495-1.99-4.518-4.444-4.518-2.455 0-4.445 2.023-4.445 4.518 0 2.495 1.99 4.518 4.445 4.518Z"/><path fill="#007020" d="m233.556 105.924-7.038 4.392.618-7.78-4.198-1.004v15.31h9.136l6.667-3.388a31.298 31.298 0 0 1-5.185-7.53Z"/><path fill="#00963D" d="m218.247 102.534.494 7.78-6.79-4.267a31.199 31.199 0 0 1-5.062 7.404v.126l6.296 3.263h9.754v-15.31l-4.692 1.004Z"/><path fill="#1F52F5" d="M114.667 173.059H5.901v77.678h108.766v-77.678Z"/><path fill="#061054" d="M135.161 179.333c-.494 0-.988-.125-1.482-.376-1.234-.628-1.852-2.008-1.605-3.389l.124-.502v-.251c0-.125.123-.376.123-.376.124-.502.247-.879.494-1.255.247-.376.494-.753.741-1.004 11.851-19.451 17.284-49.067 18.642-57.474l-3.334-1.632c-.617-.376-1.111-.627-1.481-1.004a3.31 3.31 0 0 1 0-4.392c.617-.627 1.358-.878 2.222-.878.617 0 1.358.251 1.852.627l4.074 1.883 13.951-6.526c.123-.125.123-.251.246-.251l4.568-4.267c.618-.502 1.358-.878 2.099-.878.371 0 .741 0 1.111.25 1.111.377 1.852 1.381 1.976 2.636.123 1.381.74 9.537-4.568 27.985-5.556 19.576-17.655 30.619-19.013 31.749l-18.518 18.447c-.617.502-1.358.878-2.222.878Z"/><path fill="#061054" d="M176.396 100.524c.123.628.864 8.283-4.445 26.855-5.555 19.702-18.148 30.243-18.148 30.243l-18.642 18.573.124-.502c.493-.628.864-1.381 1.358-2.133-.371.627-.865 1.129-1.235 1.631v-.251c.247-.377.617-.878.864-1.255 14.321-23.592 19.383-60.988 19.383-60.988l-5.432-2.635a1.701 1.701 0 0 1-.494-.377c.123.126.247.251.494.251l5.432 2.51 15.555-7.279c.371-.125.618-.376.741-.627l4.445-4.016Zm0-6.274c-1.482 0-3.087.627-4.198 1.631l-4.444 4.267-12.099 5.647-2.469-1.13c-.988-.753-2.222-1.129-3.457-1.129-1.605 0-3.21.627-4.444 1.882-2.346 2.385-2.346 6.275-.124 8.659.617.628 1.358 1.255 2.222 1.632 0 0 .124 0 .124.125l1.234.628c-1.852 10.415-7.16 36.517-17.777 53.96-.124.251-.371.502-.494.879-.494.753-.864 1.631-1.111 2.51v.752l-.124.502c-.494 2.636.741 5.397 3.087 6.651.864.502 1.975.753 2.963.753 1.604 0 3.086-.627 4.321-1.757l18.518-18.447c1.852-1.631 14.198-13.176 19.877-33.129 5.432-19.074 4.814-27.733 4.691-29.24-.247-2.383-1.852-4.391-3.951-5.144-.987-.377-1.605-.502-2.345-.502Z"/><path fill="#061054" stroke="#061054" stroke-linejoin="round" stroke-miterlimit="10" stroke-width="7.5" d="M39.48 145.325c5.063 0 8.89-1.757 12.223-4.267l19.506-16.565H8.864l-21.358 21.083c.123-.126.37-.126.617-.126H39.48v-.125Z"/><path fill="#007020" stroke="#007020" stroke-linejoin="round" stroke-miterlimit="10" stroke-width="7.5" d="m113.926 197.403 15.432 46.557 12.84-12.173-15.803-45.678-12.469 11.294Z"/><path fill="#007020" d="M98.989 103.787c-.865 0-1.605-.376-2.223-1.004-1.11-1.255-1.11-3.137.124-4.266l15.309-15.938c1.481-1.882 12.345-15.31 33.58-15.31 16.79 0 26.42 10.542 29.383 14.557l15.802-.25c.864 0 1.605.376 2.222.878.618.627.864 1.38.864 2.259v.753c0 .878-.37 1.631-.864 2.133l-6.543 6.776c-.123.126-.247.377-.37.502l-4.568 4.267c-.617.502-1.358.878-2.099.878-.617 0-1.235-.125-1.728-.502-.371-.25-.741-.627-.865-1.003h-15.308c-1.111 0-2.222-.628-2.716-1.757-1.976-3.89-10-11.922-22.593-11.922-7.407 0-14.074 2.008-19.876 5.898 0 0-6.297 4.392-15.556 12.173-.617.627-1.358.878-1.975.878Z"/><path fill="#007020" d="M145.655 70.407c18.766 0 27.778 14.557 27.778 14.557l17.408-.251v.753l-6.914 7.153-4.568 4.266c.247-.627-.247-1.505-1.111-1.505h-16.79c-2.593-5.145-11.852-13.679-25.309-13.679-8.024 0-15.185 2.134-21.481 6.4 0 0-6.297 4.392-15.803 12.424l15.432-16.063c.124.126 10.371-14.055 31.358-14.055Zm0-6.274c-21.975 0-33.827 13.678-35.926 16.439L94.544 96.258c-2.345 2.384-2.345 6.149-.123 8.659 1.234 1.38 2.84 2.008 4.568 2.008 1.358 0 2.839-.502 3.95-1.381 8.889-7.404 14.939-11.67 15.309-12.047 5.309-3.639 11.235-5.396 18.025-5.396 10.987 0 18.271 7.028 19.753 10.29 1.111 2.134 3.21 3.389 5.555 3.389h13.951c.123.125.37.251.617.502.988.753 2.222 1.003 3.457 1.003 1.482 0 3.086-.627 4.198-1.631l4.567-4.266.741-.754 6.42-6.65c1.111-1.13 1.728-2.761 1.728-4.393v-.753a6.42 6.42 0 0 0-1.852-4.517c-1.111-1.13-2.716-1.757-4.32-1.757h-.124l-14.321.125c-4.321-5.02-14.444-14.556-30.988-14.556Z"/><path fill="#061054" d="M50.84 149.339c7.53-9.286 15.184-17.569 22.345-24.847h-.123a296.98 296.98 0 0 0-22.223 24.847ZM131.828 107.928c.123.125.123.25.246.376.124.251.247.376.371.627.247.377.617.753.987 1.13 1.482 1.757 3.704 2.635 5.926 2.51 2.099 0 4.321-.879 5.926-2.51 1.729-1.757 2.469-3.89 2.346-6.024 0-1.38-.37-2.635-.988-3.89.618 1.255.988 2.51.988 3.89 0 2.134-.864 4.267-2.346 6.024-1.605 1.631-3.827 2.51-5.926 2.51-2.098 0-4.197-.879-5.926-2.51-.37-.377-.617-.753-.987-1.13-.124-.251-.247-.376-.371-.627-.123-.126-.246-.251-.246-.376-1.482-3.138-.865-6.777 1.358-9.538-2.593 2.761-2.963 6.526-1.358 9.538ZM104.543 179.333c-.124 0-.124.125-.247.125h11.358c4.691 0 8.889-.878 12.716-2.133-3.827 1.255-8.025 2.008-12.84 2.008h-10.987ZM129.111 240.697l.618-.627-15.803-42.667 15.185 43.294Z"/><path fill="#061054" d="m113.679 197.529 15.926-16.188c-13.581 9.412-29.383 11.043-37.16 11.043l16.913 48.314 6.913-6.651-11.975-34.385c3.704-.878 6.914-1.38 9.383-2.133Z"/><path fill="#DC000F" d="M80.716 186.737c7.16-3.012 8.889-3.89 14.321-7.278h9.259c.124 0 .124-.126.247-.126h-9.63c15.68-10.29 24.075-27.106 27.408-35.639 0-.377 0-.879-.37-1.255-1.235 2.133-2.099 3.89-3.334 5.522-13.086 20.58-33.703 35.137-66.543 35.137H6.148c-.37 0-.617-.126-.74-.251.987 1.129 3.58 3.012 6.666 4.141 6.914 2.51 18.766 5.145 35.062 5.145 16.666 0 32.963-5.145 32.963-5.145h.123c.124-.126.37-.251.494-.251Z"/><path fill="#00963D" d="M118.618 243.833c-1.358 0-2.469-.878-2.963-2.133l-14.321-41.161c-.247-.878-.247-1.757.247-2.51.37-.752 1.111-1.38 1.975-1.505 1.482-.377 2.84-.628 4.074-.879 1.975-.376 3.704-.753 5.062-1.129h.123c.247-.126.618-.126.864-.126 1.235 0 2.593.753 2.963 2.008l15.186 43.294c.37 1.004.247 2.008-.371 2.886-.617.879-1.481 1.381-2.469 1.381h-10.37v-.126Z"/><path fill="#FCD73F" d="m113.925 197.404 15.185 43.294h-10.494l-2.345-6.777-11.976-34.384c3.704-.878 6.914-1.255 9.507-2.008l.123-.125Zm0-6.275c-.617 0-1.234.126-1.852.251-.123 0-.123 0-.247.126a30.292 30.292 0 0 1-4.691 1.004c-1.235.251-2.716.501-4.198.878-1.728.376-3.21 1.506-4.074 3.137-.864 1.632-.987 3.388-.37 5.145l11.975 34.385 2.346 6.776a6.13 6.13 0 0 0 5.802 4.141h10.494c1.976 0 3.827-1.004 5.062-2.635 1.111-1.631 1.481-3.765.741-5.773l-15.185-43.294a6.133 6.133 0 0 0-5.803-4.141Z"/><path fill="#00963D" d="M98.863 243.835c-1.358 0-2.469-.879-2.963-2.134l-18.024-50.823c-5.433 1.506-17.778 4.392-30.741 4.392-19.012 0-30.74-3.263-36.05-5.27-3.333-1.255-6.666-3.389-8.024-5.146-.37-.502-.618-1.004-.864-1.38 0-.125-.124-.251-.124-.376 0-.126-.123-.377-.123-.753v-.502c0-1.004.493-2.008 1.11-2.761l7.532-7.655c-14.939-2.51-23.334-13.051-26.42-23.09-.124-.251-.124-.628-.124-.879v-.251c0-.753-.123-1.882.494-3.137 0-.125.124-.251.247-.376.247-.377.494-.628.864-.879.618-.502 1.482-.753 2.346-.753h51.358c3.827 0 7.037-1.129 10.247-3.639l19.506-16.565 13.58-11.294c2.593-2.384 5.186-4.768 7.531-6.902a159.738 159.738 0 0 1 6.667-5.647c9.506-8.031 15.802-12.423 16.049-12.549 6.79-4.643 14.692-7.027 23.334-7.027 13.456 0 23.209 7.78 27.037 13.678h15.061c1.358 0 2.716.628 3.457 1.882.741 1.13.988 2.636.494 3.89-.37 1.13-1.235 2.009-2.469 2.511l-13.951 6.525c-1.111 7.78-6.42 39.404-19.382 60.612-.247.502-.741 1.129-1.235 1.882-2.346 3.388-4.938 6.526-8.025 9.412-1.852 1.757-3.95 3.388-6.049 4.894-12.346 8.659-26.42 10.918-34.568 11.42l15.432 44.298c.37 1.004.247 2.008-.37 2.886-.618.878-1.482 1.38-2.469 1.38h-10.37v.126Z"/><path fill="#FCD73F" d="M136.272 81.826c13.456 0 22.716 8.534 25.308 13.679h16.79c.865 0 1.358.878 1.112 1.506a1.274 1.274 0 0 1-.741.627l-15.556 7.278s-4.815 37.522-19.136 61.114a49.51 49.51 0 0 0-1.111 1.757c-2.222 3.388-4.815 6.275-7.531 8.784a48.406 48.406 0 0 1-5.679 4.643c-13.58 9.412-29.382 11.044-37.16 11.044l16.79 48.439H98.864l-19.012-53.584s-16.05 5.019-32.716 5.019c-16.297 0-28.148-2.51-35.062-5.145-3.086-1.129-5.802-3.012-6.667-4.141a1.723 1.723 0 0 0-.37-.502v-.251c0-.251.124-.502.247-.753l12.222-12.424c-16.79 0-26.913-10.29-30.37-21.458 0-.628-.124-1.381.123-1.757l.124-.126c.123-.125.37-.125.617-.125h51.358c5.062 0 8.889-1.757 12.222-4.267l19.63-16.69 13.58-11.294c2.593-2.385 5.185-4.769 7.531-6.902 2.346-2.008 4.568-3.89 6.543-5.647 9.506-8.032 15.803-12.424 15.803-12.424 6.419-4.266 13.58-6.4 21.605-6.4Zm0-6.274c-9.26 0-17.655 2.51-24.939 7.53-.247.125-6.666 4.642-16.296 12.674-2.222 1.882-4.444 3.89-6.667 5.772-2.345 2.134-4.938 4.392-7.53 6.902l-13.457 11.169-19.506 16.565c-2.717 2.007-5.31 2.886-8.396 2.886H-12c-1.482 0-2.84.376-4.074 1.255-.617.502-1.235 1.004-1.728 1.757-.124.125-.247.376-.37.502-1.112 2.007-.988 4.015-.988 4.894v.125c0 .628.123 1.13.246 1.757 2.963 9.663 10.37 19.702 23.21 23.843l-3.58 3.639c-1.234 1.255-1.975 3.012-2.099 4.894v.628c0 .627.124 1.004.247 1.38 0 .251.124.377.247.628.247.878.74 1.631 1.358 2.384 1.852 2.259 5.556 4.643 9.383 6.149 5.555 2.008 17.654 5.522 37.16 5.522 11.358 0 22.346-2.134 28.766-3.765l17.037 48.188a6.13 6.13 0 0 0 5.802 4.141h10.494c1.975 0 3.827-1.004 5.062-2.635 1.111-1.631 1.481-3.765.741-5.773L100.84 198.03c8.641-1.004 20.987-3.89 32.098-11.545 2.223-1.631 4.445-3.263 6.42-5.145 3.21-3.012 6.049-6.275 8.395-9.914.494-.627.988-1.38 1.235-2.008 12.469-20.454 17.901-50.07 19.506-60.235l12.346-5.772c1.975-.753 3.333-2.385 4.074-4.267.864-2.259.493-4.769-.865-6.777-1.358-2.007-3.58-3.137-6.049-3.137h-13.086a32.79 32.79 0 0 0-8.642-7.78c-5.926-3.89-12.84-5.898-20-5.898Z"/><path fill="#fff" d="M101.951 158.375c0 .125 0 .125 0 0 6.049-3.639 12.345-8.784 18.765-15.686l.247-.251c-.123 0-.247.125-.37.251-6.297 6.902-12.469 11.921-18.642 15.686ZM142.444 96.887c-.987 0-1.975.502-2.716 1.255-.864.627-1.234 1.757-1.234 2.761 0 1.004.493 2.008 1.234 2.76.618.879 1.729 1.255 2.716 1.255.988 0 1.976-.502 2.716-1.255 1.235-1.631 1.235-3.764 0-5.521l-.74-.753c-1.112-1.004-2.47-1.506-3.828-1.757 1.235.251 2.346.753 3.457 1.506-.494-.251-1.111-.377-1.605-.251Z"/><path fill="#007020" d="M52.074 183.096c32.84 0 53.457-14.557 66.543-35.137 1.235-1.757 2.099-3.388 3.334-5.522-.371 0-.618 0-.988.126l-.247.251c-6.42 6.902-12.716 11.921-18.765 15.686-4.939 3.012-9.63 5.145-14.321 6.651-9.136 3.137-17.778 3.765-25.309 3.765H37.877c-.494 0-.865-.377-.988-.879 0-.251 0-.502.123-.878.124-.126.124-.251.247-.251v-.126c4.445-6.149 8.89-12.047 13.457-17.443a348.462 348.462 0 0 1 22.222-24.847c4.074-4.267 8.148-8.157 11.976-11.67l-13.704 11.67-19.63 16.69c-3.333 2.51-7.16 4.267-12.222 4.267H-12c-.247 0-.494.125-.617.125-.124 0-.124.126-.124.126-.247.502-.123 1.255-.123 1.757 3.333 11.168 13.457 21.459 30.37 21.459L5.284 181.339c-.123.126-.247.377-.247.753v.251c0 .126.124.377.37.502.124.126.37.251.741.251h45.926Z"/><path fill="#00963D" d="M178.369 95.504h-16.79l-4.197 5.146c-.371.627-.371 1.004-.124 1.38.124.125.247.251.494.251l5.432 2.51 15.556-7.279c.37-.125.617-.376.74-.627.247-.502-.123-1.38-1.111-1.38ZM143.061 169.293c-.493.628-1.111 1.381-1.851 2.008-3.087 3.263-7.408 6.024-12.84 7.906-3.827 1.38-8.148 2.133-12.716 2.133H95.036c-5.431 3.389-7.16 4.267-14.32 7.279-.124 0-.37.125-.494.376s-.247.753 0 1.004l18.518 52.706h10.494l-16.79-48.439c7.778 0 23.58-1.506 37.161-11.043a48.673 48.673 0 0 0 5.679-4.643c2.716-2.51 5.308-5.396 7.53-8.785.494-.627.865-1.38 1.359-2.133-.247.502-.741 1.004-1.112 1.631ZM131.827 107.929c.124.126.124.251.247.377.124.251.247.376.371.627.246.377.617.753.987 1.13 1.605 1.631 3.827 2.51 5.926 2.51s4.198-.879 5.926-2.51c1.482-1.757 2.346-3.89 2.346-6.024 0-1.255-.371-2.635-.988-3.89-.37-.753-.864-1.38-1.358-2.008 1.235 1.757 1.235 3.765 0 5.522-.741.753-1.728 1.255-2.716 1.255-1.111 0-2.099-.377-2.716-1.255-.741-.753-1.235-1.757-1.235-2.761 0-1.13.371-2.133 1.235-2.76.741-.754 1.728-1.256 2.716-1.256.494 0 1.111.126 1.605.251-1.111-.753-2.222-1.255-3.457-1.506-.37 0-.864-.125-1.234-.125-2.099 0-4.321.878-5.926 2.51l-.247.25c-2.346 2.887-2.963 6.526-1.482 9.663Z"/><path fill="#00963D" d="M113.679 197.53c-2.469.753-5.802 1.255-9.506 2.008l11.975 34.385 2.346 6.776h10.494l-15.185-43.294c.123 0 0 .125-.124.125Z"/><path fill="#DC000F" d="M37.259 166.91c-.124.125-.124.251-.247.251-.124.251-.124.627-.124.878.124.502.37.879.988.879h24.568c7.53 0 16.05-.628 25.309-3.765 4.691-1.506 9.382-3.765 14.321-6.776 6.049-3.765 12.345-8.785 18.642-15.687.123-.125.246-.125.37-.251.37-.125.617-.125.988-.125.37.376.37.878.37 1.255-3.333 8.533-11.852 25.349-27.407 35.639H115.777c4.692 0 9.013-.753 12.84-2.008 5.432-1.757 9.753-4.643 12.839-7.906.618-.753 1.235-1.506 1.852-2.133.247-.377.617-.879.864-1.255 14.321-23.592 19.383-60.988 19.383-60.988l-5.432-2.636c-.247-.125-.37-.251-.494-.376-.37-.377-.247-.753.124-1.38l4.197-5.145c-2.592-5.146-11.852-13.679-25.308-13.679-8.025 0-15.186 2.133-21.482 6.4 0 0-6.296 4.392-15.802 12.424-2.1 1.756-4.198 3.639-6.544 5.647a178.77 178.77 0 0 0-7.53 6.902c-3.704 3.513-7.655 7.278-11.606 11.294-7.16 7.278-14.814 15.56-22.345 24.847-5.062 5.647-9.63 11.545-14.074 17.694Zm95.802-68.518.247-.25c1.605-1.632 3.827-2.51 5.926-2.51.37 0 .864 0 1.235.125 1.358.25 2.716.753 3.827 1.757l.741.753c.493.627.987 1.255 1.358 2.008.617 1.254.987 2.635.987 3.89a8.837 8.837 0 0 1-2.345 6.023c-1.605 1.632-3.828 2.51-5.926 2.51-2.223 0-4.445-.753-5.926-2.51-.371-.376-.618-.753-.988-1.129-.123-.251-.247-.377-.37-.628-.124-.125-.124-.251-.247-.376-1.358-3.137-.988-6.902 1.481-9.663Z"/></g><path fill="#DC000F" d="m33 0 11.2 21.8L66 33 44.2 44.2 33 66 21.8 44.2 0 33l21.8-11.2L33 0Z"/><path fill="#F27E00" d="m291 0 4.073 7.927L303 12l-7.927 4.073L291 24l-4.073-7.927L279 12l7.927-4.073L291 0Z"/><path fill="#1F52F5" d="m84 228 4.073 7.927L96 240l-7.927 4.073L84 252l-4.073-7.927L72 240l7.927-4.073L84 228Z"/><path fill="#061054" d="m102 228 1.527 2.973 2.973 1.527-2.973 1.527L102 237l-1.527-2.973L97.5 232.5l2.973-1.527L102 228Z"/><path fill="#DC000F" d="m330 156 2.036 3.964L336 162l-3.964 2.036L330 168l-2.036-3.964L324 162l3.964-2.036L330 156Z"/><path fill="#00963D" d="M294 168c-23.196 0-42 18.804-42 42h84c0-23.196-18.804-42-42-42ZM294 252c23.196 0 42-18.804 42-42h-84c0 23.196 18.804 42 42 42Z"/><circle cx="288.75" cy="204.75" r="36.75" fill="#01AC46"/><path fill="#fff" fill-rule="evenodd" d="M313.5 194.268 282.768 225l-5.268-5.268L308.232 189l5.268 5.268Z" clip-rule="evenodd"/><path fill="#fff" fill-rule="evenodd" d="M267 209.268 282.732 225l5.268-5.268L272.268 204 267 209.268Z" clip-rule="evenodd"/></g><defs><clipPath id="a"><path fill="#fff" d="M0 0h336v252H0z"/></clipPath></defs></svg>