<svg xmlns="http://www.w3.org/2000/svg" width="90" height="55" fill="none" viewBox="0 0 360 226"><mask id="a" width="360" height="226" x="0" y="0" mask-type="alpha" maskUnits="userSpaceOnUse"><path fill="#E30613" d="M17.78 226h324.44c9.82 0 17.78-7.959 17.78-17.776V17.776C360 7.96 352.04 0 342.22 0H17.78C7.96 0 0 7.959 0 17.776v190.448C0 218.041 7.96 226 17.78 226Z"/></mask><g mask="url(#a)"><path fill="#FFDA44" d="M413.68-26.03H-14.486v285.678H413.68V-26.03Z"/><path fill="#9E0942" d="M235.881 177.174c.076.533.116 1.071.118 1.609 0 6.748-5.907 12.211-13.217 12.373h-.62a13.292 13.292 0 0 1-13.01-10.217 13.174 13.174 0 0 1-13.04 10.424h-.62a13.42 13.42 0 0 1-12.626-8.711 13.457 13.457 0 0 1-12.538 8.504h-.62c-7.384-.162-13.291-5.625-13.291-12.373.002-.538.042-1.076.118-1.609h-42.072v82.519l138.814-.31v-82.209h-17.396Zm-65.553 39.141h-.62c-7.384-.148-13.291-5.626-13.291-12.358 0-6.733 6.055-12.373 13.527-12.373 7.472 0 13.527 5.537 13.527 12.373 0 6.836-5.818 12.254-13.143 12.402v-.044Z"/><path fill="#FFDA44" d="M170.019 192.972a13.527 13.527 0 0 0-13.262 13.366 13.522 13.522 0 0 0 12.952 13.667h.62a13.525 13.525 0 0 0 9.029-23.036 13.524 13.524 0 0 0-9.339-3.997Zm10.337 11.811-3.19-.206 1.698 2.731-2.244 1.314-1.477-2.879-1.477 2.879-2.274-1.314 1.757-2.643-3.219.118v-2.51l3.219.177-1.845-2.79 2.244-1.314 1.477 2.953 1.477-2.953 2.274 1.314-1.728 2.731 3.19-.177.118 2.569Z"/><path fill="#187228" d="m178.805 199.66-2.26-1.314-1.477 2.893-1.462-2.893-2.244 1.314 1.728 2.731-3.235-.177v2.598l3.235-.118-1.758 2.658 2.274 1.314 1.492-2.894 1.447 2.894 2.245-1.314-1.713-2.746 3.204.206v-2.598l-3.204.177 1.728-2.731Z"/><path fill="#EF7D00" d="M195.492 165.214h.62a13.521 13.521 0 0 0 9.2-23.138 13.527 13.527 0 0 0-23.036 9.462 13.525 13.525 0 0 0 13.216 13.676Zm.163-17.791 3.219.177-1.728-2.731 2.245-1.314 1.477 2.952 1.476-2.952 2.274 1.314-1.742 2.775 3.19-.177v2.599l-3.19-.207 1.698 2.731-2.244 1.329-1.477-2.953-1.477 2.953-2.274-1.329 1.757-2.642-3.219.118.015-2.643Z"/><path fill="#187228" d="m197.118 152.562 2.274 1.299 1.492-2.879 1.447 2.879 2.245-1.299-1.713-2.746 3.204.207v-2.599l-3.204.177 1.728-2.731-2.26-1.314-1.477 2.894-1.462-2.894-2.244 1.314 1.728 2.731-3.22-.177v2.599l3.22-.119-1.758 2.658Z"/><path fill="#EF7D00" d="M195.492 137.428h.62a13.53 13.53 0 0 0 9.418-4.124 13.517 13.517 0 0 0 3.798-9.552 13.526 13.526 0 0 0-23.036-9.463 13.525 13.525 0 0 0 9.2 23.139Zm.163-17.836 3.219.177-1.728-2.731 2.215-1.285 1.477 2.953 1.477-2.953 2.274 1.314-1.728 2.732 3.19-.177v2.613l-3.19-.207 1.698 2.732-2.244 1.314-1.477-2.953-1.477 2.953-2.274-1.314 1.757-2.658-3.219.133.03-2.643Z"/><path fill="#187228" d="m197.118 124.76 2.274 1.314 1.492-2.894 1.447 2.894 2.245-1.314-1.713-2.732 3.204.207v-2.613l-3.204.177 1.728-2.731-2.26-1.314-1.477 2.893-1.462-2.893-2.244 1.314 1.728 2.731-3.22-.177v2.613l3.22-.133-1.758 2.658Z"/><path fill="#EF7D00" d="M168.527 165.214h.635a13.54 13.54 0 1 0-9.837-23.165 13.54 13.54 0 0 0 9.202 23.165Zm.162-17.791 3.234.177-1.727-2.731 2.23-1.314 1.476 2.953 1.477-2.953 2.259 1.314-1.727 2.775 3.204-.177v2.599l-3.204-.207 1.713 2.731-2.245 1.329-1.477-2.953-1.476 2.953-2.26-1.329 1.757-2.642-3.234.118v-2.643Z"/><path fill="#187228" d="m170.168 152.562 2.26 1.299 1.506-2.879 1.432 2.879 2.245-1.299-1.698-2.746 3.204.207v-2.599l-3.204.177 1.727-2.731-2.274-1.314-1.462 2.894-1.476-2.894-2.245 1.314 1.742 2.731-3.234-.177v2.599l3.234-.119-1.757 2.658Z"/><path fill="#EF7D00" d="M195.656 177.173v-2.289l3.219.178-1.728-2.732 2.245-1.314 1.477 2.953 1.476-2.953 2.275 1.314-1.728 2.732 3.19-.178v2.289h2.953v-.34a13.527 13.527 0 0 0-26.168-1.89c.218.729.376 1.475.473 2.23h12.316Z"/><path fill="#FFDA44" d="M209.064 177.174h-2.953v.325l-3.19-.207 1.698 2.731-2.244 1.315-1.477-2.953-1.477 2.953-2.274-1.315 1.757-2.657-3.219.133v-.325h-12.227a13.371 13.371 0 0 1-.562 5.994 13.56 13.56 0 0 0 12.627 9.523h.62a13.524 13.524 0 0 0 13.039-11.398 13.677 13.677 0 0 1-.206-2.347c-.008-.592.021-1.184.088-1.772Z"/><path fill="#187228" d="m206.067 174.93-3.204.192 1.728-2.746-2.26-1.314-1.477 2.894-1.462-2.894-2.244 1.314 1.728 2.746-3.22-.192v2.289h10.411v-2.289Z"/><path fill="#187228" d="m198.876 177.41-1.758 2.658 2.274 1.314 1.492-2.894 1.447 2.894 2.245-1.314-1.713-2.732 3.204.207v-.325h-10.411v.325l3.22-.133Z"/><path fill="#EF7D00" d="M229.605 177.218h1.728l-1.802-.118.074.118ZM224.57 177.218h.945l.03-.044-.975.044Z"/><path fill="#EF7D00" d="M222.324 177.173v-2.524l3.219.192-1.727-2.732 2.244-1.314 1.477 2.953 1.477-2.953 2.274 1.314-1.728 2.732 3.19-.192v2.524h3.145a13.508 13.508 0 0 0-13.231-11.795 13.512 13.512 0 0 0-13.527 11.456v.339h13.187Z"/><path fill="#FFDA44" d="m232.734 177.307-1.388-.089h-1.743l1.639 2.614-2.244 1.314-1.477-2.953-1.477 2.953-2.274-1.314 1.728-2.614h-.945l-2.245.089v-.133H209.15a12.542 12.542 0 0 1 0 4.119 13.523 13.523 0 0 0 13.01 11.162h.621a13.51 13.51 0 0 0 13.098-15.281h-3.145v.133Z"/><path fill="#FFDA44" d="M209.167 177.174h-.104a14 14 0 0 0-.118 1.772c.002.787.071 1.573.207 2.348a12.603 12.603 0 0 0 0-4.12h.015Z"/><path fill="#187228" d="m225.544 177.173-.03.045h4.091l-.074-.118 1.801.118h1.403v-2.51l-3.204.177 1.728-2.732-2.26-1.314-1.477 2.879-1.462-2.879-2.244 1.314 1.728 2.732-3.22-.177v2.51h2.245l.975-.045ZM232.737 177.306v-.088h-1.403l1.403.088ZM223.785 179.832l2.274 1.314 1.492-2.88 1.447 2.88 2.245-1.314-1.639-2.614h-4.091l-1.728 2.614Z"/><path fill="#187228" d="M224.569 177.218h-2.245v.088l2.245-.088Z"/><path fill="#EF7D00" d="M177.152 177.218h1.728l-1.802-.118.074.118ZM172.113 177.218h.945l.03-.044-.975.044Z"/><path fill="#EF7D00" d="m169.826 174.694 3.22.191-1.743-2.731 2.245-1.314 1.476 2.953 1.477-2.953 2.274 1.314-1.728 2.731 3.19-.191v2.48h2.156c.104-.757.277-1.504.517-2.229a13.522 13.522 0 0 0-14.042-9.406 13.531 13.531 0 0 0-12.259 11.635H169.9l-.074-2.48Z"/><path fill="#FFDA44" d="M169.708 192.499h.62a13.528 13.528 0 0 0 12.537-9.286 13.805 13.805 0 0 1-.59-4.002c.001-.667.056-1.334.162-1.993h-2.156v.089l-1.388-.089h-1.684l1.64 2.614-2.245 1.314-1.477-2.953-1.476 2.953-2.348-1.314 1.727-2.614h-.945l-2.244.089v-.133H156.55a13.805 13.805 0 0 0-.118 1.772 13.509 13.509 0 0 0 13.276 13.553Z"/><path fill="#EF7D00" d="M183.427 177.175a13.802 13.802 0 0 0-.473-2.23 12.614 12.614 0 0 0-.516 2.23h.989Z"/><path fill="#FFDA44" d="M183.427 177.174h-.989a12.677 12.677 0 0 0-.163 1.993c0 1.356.199 2.704.591 4.001a13.37 13.37 0 0 0 .561-5.994Z"/><path fill="#187228" d="m177.077 174.885 1.728-2.732-2.26-1.314-1.477 2.879-1.462-2.879-2.244 1.314 1.728 2.732-3.235-.177v2.51h2.26l.975-.045-.03.045h4.091l-.074-.118 1.801.118h1.403v-2.51l-3.204.177ZM169.855 177.306l2.26-.088h-2.26v.088ZM180.28 177.306v-.088h-1.403l1.403.088ZM171.332 179.832l2.274 1.314 1.492-2.88 1.447 2.88 2.245-1.314-1.64-2.614h-4.09l-1.728 2.614Z"/><path fill="#EF7D00" d="M132.907 57.626H-14.486v58.896h147.393V57.626Z"/><path fill="#E30613" d="M127.134-26.03v83.774h151.573V-26.03H127.134Z"/><path fill="#221657" d="m91.398 57.758 21.147-20.449a31.18 31.18 0 0 1 21.664-8.77h118.715v29.22H91.398Z"/><path fill="#EF7D00" d="M18.563 51.439a41.527 41.527 0 0 1-1.477-10.985 40.79 40.79 0 0 1 9.023-25.69 41.06 41.06 0 0 0-13.882 42.994c.018.071.043.14.074.207l6.336-6.29a1.019 1.019 0 0 0-.074-.236Z"/><path fill="#FFDA44" d="M58.126 81.5a41.045 41.045 0 0 1-37.214-23.727 39.66 39.66 0 0 1-2.274-6.098l-6.335 6.35A41.03 41.03 0 0 0 43.715 87.01a41.047 41.047 0 0 0 40.15-14.664A40.822 40.822 0 0 1 58.127 81.5Z"/><path fill="#0F9A40" d="M92.846 46.789a41.025 41.025 0 0 0-23.28-37.022 41.046 41.046 0 0 0-43.454 4.998 40.997 40.997 0 0 0-7.576 36.527h74.03c.174-1.495.268-2.998.28-4.503Z"/><path fill="#fff" d="M18.533 51.306a.429.429 0 0 1 0 .133 42.19 42.19 0 0 0 2.348 6.334A40.987 40.987 0 0 0 48.815 80.43a41.002 41.002 0 0 0 35.05-8.086 40.996 40.996 0 0 0 7.472-14.617 42.38 42.38 0 0 0 1.225-6.467l-74.029.045Z"/><path fill="#0069B4" d="M305.554 99.055c34.394 0 62.275-27.876 62.275-62.262 0-34.387-27.881-62.262-62.275-62.262-34.393 0-62.274 27.875-62.274 62.262 0 34.386 27.881 62.262 62.274 62.262Z"/><path fill="#fff" d="M319.671 84.954a62.032 62.032 0 0 1-29.107-7.22 62.26 62.26 0 0 1-31.529-40.844 62.228 62.228 0 0 1 10.116-50.592 62.243 62.243 0 0 0-22.012 71.985 62.249 62.249 0 0 0 36.938 36.924 62.271 62.271 0 0 0 71.995-22.02 62.028 62.028 0 0 1-36.401 11.767Z"/><path fill="#EF7D00" d="M319.671 84.954a62.032 62.032 0 0 1-29.107-7.22 62.26 62.26 0 0 1-31.529-40.844 62.228 62.228 0 0 1 10.116-50.592 62.243 62.243 0 0 0-22.012 71.985 62.249 62.249 0 0 0 36.938 36.924 62.271 62.271 0 0 0 71.995-22.02 62.028 62.028 0 0 1-36.401 11.767Z"/><path fill="#fff" d="M304.077 62.97a4.479 4.479 0 0 1-4.482 4.482 4.484 4.484 0 0 1-4.482-4.481c0-4.179 4.431-9.656 4.431-9.656s4.533 5.079 4.533 9.656ZM287.772 40.16a4.482 4.482 0 1 1-8.963 0c0-4.179 4.43-9.656 4.43-9.656s4.533 5.079 4.533 9.656ZM304.077 21.29a4.48 4.48 0 0 1-4.482 4.48 4.484 4.484 0 0 1-4.482-4.48c0-4.179 4.431-9.642 4.431-9.642s4.533 5.064 4.533 9.641ZM287.773 0a4.429 4.429 0 0 1-4.431 4.43 4.43 4.43 0 0 1-4.43-4.43c0-4.178 4.43-9.656 4.43-9.656s4.431 5.02 4.431 9.656ZM337.394 62.97a4.483 4.483 0 0 1-8.964 0c0-4.178 4.43-9.655 4.43-9.655s4.534 5.079 4.534 9.656ZM321.089 40.16a4.479 4.479 0 0 1-4.482 4.48 4.48 4.48 0 0 1-4.482-4.48c0-4.179 4.43-9.656 4.43-9.656s4.534 5.079 4.534 9.656ZM337.394 21.29a4.483 4.483 0 0 1-7.652 3.168 4.482 4.482 0 0 1-1.312-3.169c0-4.178 4.43-9.64 4.43-9.64s4.534 5.063 4.534 9.64ZM321.089 0a4.429 4.429 0 0 1-4.43 4.43 4.432 4.432 0 0 1-4.43-4.43c0-4.178 4.43-9.656 4.43-9.656s4.43 5.02 4.43 9.656Z"/><path fill="#9E0942" d="M12.17 112.698a2.864 2.864 0 0 0 0 .354 3.155 3.155 0 0 0 0 .369v-.723ZM43.08 113.406c.007 0 .014-.158.014-.354 0-.196-.007-.354-.015-.354s-.014.158-.014.354c0 .196.006.354.014.354Z"/><path fill="#FFDA44" d="M40.464 27.433a1.595 1.595 0 0 0 1.654-1.477l.25-2.953 1.241.104c-1.772 6.836-2.599 18.16 8.167 24.79 11.208 6.88 22.52-1.477 28.324-7.22l.708.487a21.303 21.303 0 0 1-12.212 14.1A21.77 21.77 0 0 1 41.069 45.12a21.303 21.303 0 0 1-.605-17.688Z"/><path fill="#EF7D00" d="M51.776 47.837c-10.765-6.63-9.938-17.954-8.166-24.79h.517l-.37 4.43h.133a21.645 21.645 0 0 0 2.422 6.29 21.366 21.366 0 0 0 23.965 9.902 21.37 21.37 0 0 0 8.184-4.233l1.64 1.137c-5.805 5.743-17.116 14.144-28.325 7.264Z"/><path fill="#FFDA44" d="M38.472 26.03a1.846 1.846 0 0 0 2.407-.783l1.64-3.027 1.24.68c-4.977 6.319-11.061 17.717-2.88 29.529 8.506 12.372 24.1 8.814 32.813 5.536l.517.842a24.247 24.247 0 0 1-19.198 9.08 24.782 24.782 0 0 1-23.997-23.225 24.225 24.225 0 0 1 7.458-18.632Z"/><path fill="#EF7D00" d="M40.878 52.473c-8.18-11.812-2.096-23.254 2.88-29.53l.517.281-2.422 4.43.148.073a24.03 24.03 0 0 0-.37 7.708A24.284 24.284 0 0 0 52.263 52.95a24.297 24.297 0 0 0 20.248 3.154l1.182 1.934c-8.713 3.204-24.307 6.762-32.814-5.566Z"/><path fill="#E30613" d="M413.667 22.693 286.992 140.292h126.675v-117.6Z"/><path fill="#FFDA44" d="M309.791 98.745c-1.875 1.875-.649 3.868-1.27 5.802l12.612 12.609c.62-1.919-.606-3.912 1.285-5.802.177-.168.354-.315.531-.443l-12.626-12.61c-.191.13-.369.279-.532.444ZM300.324 108.208c-1.993 1.993-.502 4.105-1.476 6.127l12.744 12.639c.901-2.038-.591-4.149 1.403-6.142l.266-.236-12.626-12.624-.311.236ZM318.078 94.714l12.626 12.623c.384-1.816-.59-3.676 1.182-5.448L319.274 89.28c-1.772 1.772-.812 3.632-1.196 5.434Z"/><path fill="#0C5728" d="m290.92 117.672 12.626 12.609-12.626-12.638v.029Z"/><path fill="#187228" d="M298.127 115.473c-2.348 2.347-4.874-.148-7.236 2.17l12.626 12.624c2.363-2.318 4.888.177 7.236-2.171.347-.319.633-.699.842-1.122l-12.627-12.624a3.555 3.555 0 0 1-.841 1.123ZM307.59 106.009c-2.275 2.274-4.711 0-7 1.949l12.626 12.624c2.289-1.934 4.726.325 7-1.949.427-.405.742-.914.915-1.476l-12.611-12.609a3.674 3.674 0 0 1-.93 1.461ZM317.058 96.546c-2.185 2.185-4.519.177-6.734 1.756l12.626 12.609c2.201-1.565 4.549.443 6.734-1.742a3.536 3.536 0 0 0 1.019-1.831l-12.626-12.623a3.537 3.537 0 0 1-1.019 1.83Z"/><path fill="#FFDA44" d="M338.173 70.382c-1.89 1.89-.664 3.869-1.284 5.803l12.626 12.623c.62-1.934-.606-3.927 1.285-5.802.154-.168.327-.317.516-.443L338.69 69.939a4.493 4.493 0 0 0-.517.443ZM328.709 79.847c-1.993 1.993-.517 4.104-1.477 6.127l12.627 12.624c.886-2.023-.591-4.135 1.402-6.128l.266-.25-12.626-12.624-.192.25ZM346.459 66.441 359.07 79.05c.384-1.816-.576-3.676 1.197-5.433L347.64 60.993c-1.757 1.698-.797 3.558-1.181 5.448Z"/><path fill="#0C5728" d="m319.244 89.31 12.626 12.565-12.626-12.624v.059Z"/><path fill="#187228" d="M326.508 87.11c-2.363 2.363-4.874-.147-7.237 2.17l12.627 12.595c2.348-2.318 4.873.177 7.236-2.17.328-.331.598-.716.797-1.137l-12.626-12.624c-.193.434-.463.83-.797 1.166ZM335.974 77.646c-2.274 2.274-4.71 0-6.999 1.949l12.626 12.624c2.289-1.935 4.725.324 6.999-1.95.415-.414.729-.92.916-1.476L336.89 76.17a3.489 3.489 0 0 1-.916 1.476ZM345.44 68.182c-2.185 2.2-4.533.177-6.749 1.757l12.627 12.624c2.215-1.58 4.548.428 6.748-1.757a3.507 3.507 0 0 0 1.004-1.83L346.459 66.44a3.554 3.554 0 0 1-1.019 1.742Z"/><path fill="#FFDA44" d="M357.094 51.483c-1.994 1.993-.517 4.105-1.477 6.142l12.626 12.609c.901-2.023-.59-4.134 1.403-6.127l.266-.251-12.537-12.61-.281.237Z"/><path fill="#0C5728" d="m347.628 60.948 12.611 12.624-12.626-12.624h.015Z"/><path fill="#187228" d="M354.893 58.748c-2.362 2.362-4.888-.148-7.25 2.17l12.685 12.624c2.363-2.318 4.888.192 7.236-2.17a3.41 3.41 0 0 0 .797-1.137L355.676 57.58a3.68 3.68 0 0 1-.783 1.167ZM364.359 49.283c-2.289 2.289-4.711 0-7 1.964l12.612 12.609c2.289-1.934 4.725.325 6.999-1.949.425-.41.744-.917.931-1.476l-12.626-12.624a3.603 3.603 0 0 1-.916 1.476Z"/><path fill="#FFDA44" d="M281.423 127.226c-1.875 1.889-.664 3.883-1.284 5.802l12.626 12.624c.62-1.92-.606-3.913 1.285-5.803.157-.164.33-.313.516-.443l-12.611-12.623a5.31 5.31 0 0 0-.532.443ZM271.958 136.689c-1.994 1.993-.503 4.104-1.403 6.142l12.626 12.609c.886-2.023-.591-4.134 1.477-6.128l.265-.236-12.626-12.623-.339.236ZM289.709 123.21l12.626 12.624c.384-1.816-.591-3.677 1.182-5.449l-12.597-12.608c-1.787 1.816-.827 3.617-1.211 5.433Z"/><path fill="#0C5728" d="m262.492 146.168 12.626 12.624-12.596-12.624h-.03Z"/><path fill="#187228" d="M269.758 143.954c-2.349 2.363-4.874-.147-7.237 2.185l12.627 12.609c2.362-2.318 4.873.192 7.236-2.17a3.91 3.91 0 0 0 .797-1.137l-12.626-12.609a3.372 3.372 0 0 1-.797 1.122ZM279.224 134.49c-2.274 2.289-4.71 0-6.999 1.964l12.626 12.623c2.289-1.948 4.725.31 7-1.963.428-.405.743-.913.915-1.477l-12.626-12.609a3.314 3.314 0 0 1-.916 1.462ZM288.689 125.026c-2.186 2.2-4.519.177-6.734 1.757l12.611 12.624c2.216-1.58 4.549.443 6.749-1.757a3.5 3.5 0 0 0 1.019-1.816l-12.626-12.624a3.457 3.457 0 0 1-1.019 1.816Z"/><path fill="#0069B4" d="M241.463 170.972v88.632h13.807v-89.636l-13.807 1.004Z"/><path fill="#221657" d="M396.389 176.273h-146.33v83.596h146.33v-83.596Z"/><path fill="#fff" d="m268.029 139.983-22.358 21.586c-9.407 10.66-1.625 24.583 11.061 24.583h139.374l59.602-46.169H268.029Z"/><path fill="#9E0942" d="M260.75 103.041c.544 1.581.804 3.245.768 4.917 0 12.018-15.787 31.419-21.768 31.419a6.322 6.322 0 0 1-2.953-1.477c3.559 3.809 6.822 6.364 8.299 6.364 5.981 0 21.767-19.401 21.767-31.419-.044-5.847-2.362-8.564-6.113-9.804Z"/><path fill="#E30613" d="M261.516 107.958a14.129 14.129 0 0 0-.768-4.917 20.004 20.004 0 0 0-4.696-.871h-22.52c-6.158.606-10.249 2.85-10.249 10.631 0 7.781 7.192 18.322 13.468 25.099a6.325 6.325 0 0 0 2.954 1.477c6.025 0 21.811-19.401 21.811-31.419Z"/><path fill="#fff" d="M233.932 117.614a5.346 5.346 0 1 0 0-10.692 5.346 5.346 0 0 0 0 10.692Z"/><path fill="#187228" d="m257.9 89.399-8.329 5.212.679-9.184-5.109-1.166v17.953h10.913l7.915-3.957A38.678 38.678 0 0 1 257.9 89.4Z"/><path fill="#0F9A40" d="m239.575 85.427.591 9.184-8.063-5.08a38.666 38.666 0 0 1-6.07 8.756v.089l7.546 3.838h11.563V84.261l-5.567 1.166Z"/><path fill="#0069B4" d="M115.644 168.359h-130.13v91.378h130.13v-91.378Z"/><path fill="#221657" d="M140.204 175.786a3.698 3.698 0 0 1-3.585-2.808 3.695 3.695 0 0 1-.033-1.621l.118-.621v-.251l.089-.502a3.74 3.74 0 0 1 .665-1.476c.295-.413.576-.812.841-1.225 14.148-22.9 20.675-57.715 22.299-67.592l-4.061-1.846a5.7 5.7 0 0 1-1.742-1.255 3.683 3.683 0 0 1-.678-3.984 3.69 3.69 0 0 1 3.38-2.217 3.588 3.588 0 0 1 2.259.783l4.815 2.214 16.628-7.648.31-.325 5.39-5.02a3.707 3.707 0 0 1 2.525-.989 3.697 3.697 0 0 1 2.876 1.367c.421.52.693 1.145.786 1.808.207 1.683.872 11.162-5.419 32.998a81.052 81.052 0 0 1-22.757 37.34l-22.151 21.748a3.679 3.679 0 0 1-2.555 1.122Z"/><path fill="#1F1D56" d="M189.481 83.095c.088.709.975 9.745-5.302 31.522a77.616 77.616 0 0 1-21.737 35.656l-22.24 21.822.118-.62a48.55 48.55 0 0 0 1.625-2.495c-.458.664-.975 1.329-1.477 1.978v-.236a29.2 29.2 0 0 0 1.004-1.476c17.175-27.787 23.244-71.726 23.244-71.726l-6.572-2.953a2.285 2.285 0 0 1-.605-.413c.142.133.301.247.473.34l6.556 2.952 18.637-8.563a1.248 1.248 0 0 0 .827-.768l5.39-5.02h.059Zm-.059-7.382a7.385 7.385 0 0 0-5.036 1.978l-5.287 4.99-14.472 6.66-2.953-1.374a7.386 7.386 0 0 0-9.872 1.221 7.379 7.379 0 0 0 .303 9.941 9.282 9.282 0 0 0 2.672 1.964l.207.103 1.477.679c-2.186 12.27-8.609 42.921-21.324 63.488l-.665.974a7.209 7.209 0 0 0-1.314 2.953v.502a1.503 1.503 0 0 0 0 .251l-.118.62a7.38 7.38 0 0 0 3.677 7.988 7.388 7.388 0 0 0 8.654-1.241l22.151-21.659a85.293 85.293 0 0 0 23.746-39.111c6.497-22.516 5.759-32.644 5.538-34.446a7.387 7.387 0 0 0-4.829-6.038 7.553 7.553 0 0 0-2.54-.443h-.015Z"/><path fill="#221657" stroke="#1F1D56" stroke-linejoin="round" stroke-width="5" d="M25.651 135.834a23.262 23.262 0 0 0 14.62-5.049l23.436-19.534h-74.62l-25.577 24.79c.204-.125.44-.186.68-.177l61.461-.03Z"/><path fill="#187228" stroke="#187228" stroke-linejoin="round" stroke-width="5" d="m114.832 197.092 18.43 54.776 15.314-14.322-18.858-53.743-14.886 13.289Z"/><path fill="#187228" d="M96.845 86.92a3.693 3.693 0 0 1-3.633-4.383c.136-.715.48-1.373.99-1.893l18.311-18.632c1.728-2.245 14.768-18.043 40.197-18.043a44.31 44.31 0 0 1 35.176 17.127l18.976-.221a3.682 3.682 0 0 1 2.615 1.077 3.666 3.666 0 0 1 1.077 2.614v.93a3.735 3.735 0 0 1-1.048 2.584l-7.842 8.032c-.147.213-.315.41-.502.59l-5.405 5.035a3.704 3.704 0 0 1-4.523.384 3.712 3.712 0 0 1-1.133-1.152h-18.282a3.706 3.706 0 0 1-3.293-2.023c-2.318-4.591-11.976-14.1-26.995-14.1a41.958 41.958 0 0 0-23.716 6.97s-7.517 5.152-18.622 14.32a3.633 3.633 0 0 1-2.348.783Z"/><path fill="#187228" d="M152.712 47.587a40.764 40.764 0 0 1 33.359 17.156l20.852-.251v.93l-8.285 8.401-5.39 5.02a1.34 1.34 0 0 0-.702-1.628 1.347 1.347 0 0 0-.627-.129h-20.098c-3.057-6.068-14.147-16.123-30.288-16.123a45.373 45.373 0 0 0-25.755 7.707s-7.546 5.153-18.931 14.558l18.474-18.884s12.227-16.757 37.391-16.757Zm0-7.383c-26.331 0-40.478 16.108-42.959 19.283L91.56 78.06a7.382 7.382 0 0 0 9.983 10.852c10.603-8.77 17.853-13.775 18.37-14.13a37.754 37.754 0 0 1 21.62-6.319c13.172 0 21.796 8.298 23.628 12.078a7.375 7.375 0 0 0 6.586 4.045h16.658c.218.194.45.371.694.532a7.38 7.38 0 0 0 4.075 1.225 7.385 7.385 0 0 0 5.036-1.978l5.39-5.035a7.04 7.04 0 0 0 .842-.915l7.635-7.84a7.382 7.382 0 0 0 2.097-5.153v-.93a7.38 7.38 0 0 0-7.384-7.382h-.044l-17.16.206a48.085 48.085 0 0 0-36.919-17.112h.045Z"/><path fill="#221657" d="M39.313 140.441c9.038-10.852 18.105-20.67 26.7-29.19h-.207c-8.58 8.593-17.618 18.338-26.581 29.205l.088-.015ZM136.141 91.834c0 .148.148.295.237.443.14.262.298.513.472.753.338.499.724.964 1.152 1.388a8.993 8.993 0 0 0 7.074 2.953 10.25 10.25 0 0 0 7.029-2.88 9.417 9.417 0 0 0 2.953-7.145 10.612 10.612 0 0 0-1.181-4.607 10.948 10.948 0 0 1 1.152 4.533 11.22 11.22 0 0 1-2.924 7.057 9.759 9.759 0 0 1-10.885 2.227 9.759 9.759 0 0 1-3.218-2.227 9.289 9.289 0 0 1-1.152-1.387 6.543 6.543 0 0 1-.472-.753 4.146 4.146 0 0 1-.237-.443 10.42 10.42 0 0 1 1.58-11.148 9.63 9.63 0 0 0-1.58 11.236ZM103.551 175.698l-.266.192h13.571a46.578 46.578 0 0 0 15.24-2.555 49.156 49.156 0 0 1-15.313 2.363h-13.232ZM132.966 247.969l.665-.634-18.799-50.244 18.134 50.878Z"/><path fill="#221657" d="m114.551 197.179 19.065-19.061c-16.244 11.118-35.117 12.934-44.48 12.934l20.232 56.843 8.211-7.825-14.325-40.455c4.386-.974 8.314-1.491 11.297-2.436Z"/><path fill="#E30613" d="M75.035 184.555a90.688 90.688 0 0 0 17.13-8.563h11.12l.266-.192H92.032c18.726-12.181 28.797-31.877 32.828-41.976a1.88 1.88 0 0 0-.457-1.476 74.452 74.452 0 0 1-4.017 6.526c-15.624 24.184-40.315 41.34-79.611 41.34h-54.92a1.297 1.297 0 0 1-.886-.295 20.958 20.958 0 0 0 8.048 4.931c8.255 2.953 22.373 5.995 41.91 5.995a153.154 153.154 0 0 0 39.4-5.995h.177a.676.676 0 0 1 .531-.295Z"/><path fill="#0F9A40" d="M120.386 251.661a3.705 3.705 0 0 1-3.485-2.451l-17.13-48.413a3.686 3.686 0 0 1 1.267-4.18 3.71 3.71 0 0 1 1.405-.648c1.713-.384 3.367-.694 4.918-.989a58.507 58.507 0 0 0 6.069-1.358h.222c.35-.1.713-.15 1.078-.148a3.783 3.783 0 0 1 3.588 2.407l18.135 50.849a3.691 3.691 0 0 1-3.545 4.931h-12.522Z"/><path fill="#FED940" d="m114.831 197.091 18.075 50.952h-12.523l-2.806-7.899-14.324-40.455c4.43-.974 8.314-1.476 11.297-2.436l.281-.088v-.074Zm0-7.309a7.804 7.804 0 0 0-2.23.34l-.281.089c-1.861.52-3.749.939-5.656 1.255-1.476.295-3.234.62-5.021 1.018a7.39 7.39 0 0 0-5.758 6.596 7.38 7.38 0 0 0 .398 3.075l14.339 40.455 2.791 7.899a7.378 7.378 0 0 0 6.97 4.916h12.523a7.377 7.377 0 0 0 6.035-3.128 7.38 7.38 0 0 0 .92-6.734l-18.075-50.953a7.388 7.388 0 0 0-6.955-4.901v.073Z"/><path fill="#0F9A40" d="M96.698 251.66a3.677 3.677 0 0 1-3.47-2.436l-21.546-59.826a152.325 152.325 0 0 1-36.756 5.109c-22.8 0-36.844-3.898-43.18-6.216a24.665 24.665 0 0 1-9.658-6.083 5.713 5.713 0 0 1-.974-1.698 3.365 3.365 0 0 1-.118-.413 4.43 4.43 0 0 1-.133-.857v-.487a4.933 4.933 0 0 1 1.373-3.189l8.905-8.977a38.952 38.952 0 0 1-31.484-27.122 3.919 3.919 0 0 1-.163-1.093 2.467 2.467 0 0 0 0-.31 6.037 6.037 0 0 1 .635-3.632l.251-.384a4.623 4.623 0 0 1 1.093-1.048 4.799 4.799 0 0 1 2.762-.827h61.432a19.508 19.508 0 0 0 12.316-4.252l23.362-19.504L77.59 95.127a462.23 462.23 0 0 1 9.067-8.076c2.57-2.23 5.228-4.43 7.916-6.703 11.385-9.42 18.887-14.543 19.197-14.765a49.2 49.2 0 0 1 27.837-8.223c16.156 0 27.748 9.183 32.4 16.122h17.972a5.098 5.098 0 0 1 4.179 2.156 4.936 4.936 0 0 1 .705 4.29 4.929 4.929 0 0 1-2.965 3.18l-16.687 7.693c-1.358 9.154-7.664 46.316-23.155 71.357-.34.546-.871 1.388-1.477 2.244a64.69 64.69 0 0 1-16.835 16.758c-14.767 10.158-31.528 12.801-41.348 13.421l18.474 52.163a3.683 3.683 0 0 1-.473 3.351 3.706 3.706 0 0 1-2.953 1.565H96.698Z"/><path fill="#FFDA44" d="M141.532 61.08c16.141 0 27.231 10.056 30.288 16.124h20.158a1.34 1.34 0 0 1 1.122.532 1.34 1.34 0 0 1 .207 1.225 1.248 1.248 0 0 1-.827.768l-18.637 8.563s-5.744 44.146-22.919 71.932a68.15 68.15 0 0 1-1.388 2.097 60.126 60.126 0 0 1-9.008 10.335 61.397 61.397 0 0 1-6.852 5.434c-16.244 11.117-35.117 12.933-44.48 12.933l20.084 57.021H96.698l-22.697-63.045a151.502 151.502 0 0 1-39.075 5.906c-19.537 0-33.655-2.953-41.91-5.994a20.973 20.973 0 0 1-8.048-4.932 2.137 2.137 0 0 1-.37-.605 1.121 1.121 0 0 1 0-.236c-.004-.302.101-.596.296-.827L-.5 163.709c-20.143 0-32.237-12.092-36.269-25.188 0-.679-.206-1.565.089-2.082a.772.772 0 0 1 .192-.192c.204-.125.44-.187.68-.177h61.461a23.262 23.262 0 0 0 14.62-5.05l23.436-19.769 16.244-13.288c3.145-2.953 6.173-5.581 9.052-8.062 2.88-2.48 5.405-4.636 7.857-6.659 11.371-9.42 18.917-14.572 18.917-14.572a45.37 45.37 0 0 1 25.754-7.59Zm0-7.381a52.817 52.817 0 0 0-29.86 8.858c-.324.207-7.944 5.434-19.478 14.957-2.746 2.215-5.434 4.532-8.019 6.791a501.969 501.969 0 0 0-9.037 8.062l-16.067 13.17-23.333 19.489a15.805 15.805 0 0 1-10.086 3.425H-35.81a8.493 8.493 0 0 0-4.858 1.477 7.876 7.876 0 0 0-2.053 2.022 7.767 7.767 0 0 0-.369.576 9.613 9.613 0 0 0-1.122 5.803v.147a7.39 7.39 0 0 0 .325 2.038 42.434 42.434 0 0 0 27.807 28.052l-4.313 4.297a8.604 8.604 0 0 0-2.436 5.788v.753c.028.538.113 1.073.25 1.594.06.255.133.507.222.753a9.513 9.513 0 0 0 1.566 2.805 27.86 27.86 0 0 0 11.267 7.235c6.572 2.407 21.088 6.437 44.45 6.437a154.188 154.188 0 0 0 34.423-4.429l20.409 56.666a7.384 7.384 0 0 0 6.94 4.887h12.582a7.38 7.38 0 0 0 7.31-6.373 7.381 7.381 0 0 0-.354-3.475l-16.865-47.66c10.337-1.166 25.105-4.518 38.395-13.612a70.656 70.656 0 0 0 7.68-6.083 69.04 69.04 0 0 0 10.115-11.635 77.478 77.478 0 0 0 1.551-2.362c14.9-24.096 21.472-58.925 23.377-70.87l14.767-6.791a8.612 8.612 0 0 0 5.073-5.565 8.611 8.611 0 0 0-1.233-7.428 8.865 8.865 0 0 0-7.118-3.677h-16.097a40.729 40.729 0 0 0-10.337-9.183 44.811 44.811 0 0 0-23.997-6.94h-.015Z"/><path fill="#fff" d="m100.495 151.218-.089.089a107.359 107.359 0 0 0 22.491-18.426l.325-.31c-.136.075-.26.169-.369.28a108.248 108.248 0 0 1-22.358 18.367ZM148.843 78.739a4.934 4.934 0 0 0-3.279 1.476 3.85 3.85 0 0 0-1.477 3.278 5.005 5.005 0 0 0 1.477 3.263 3.777 3.777 0 0 0 3.279 1.476 4.933 4.933 0 0 0 3.278-1.476 5.27 5.27 0 0 0 0-6.453 10.37 10.37 0 0 0-.945-.856 9.11 9.11 0 0 0-4.637-2.052c1.495.257 2.913.848 4.15 1.727a3.842 3.842 0 0 0-1.846-.383Z"/><path fill="#187228" d="M40.774 180.127c39.296 0 63.987-17.127 79.611-41.341a74.212 74.212 0 0 0 4.017-6.526 2.065 2.065 0 0 0-1.137.222l-.325.31a107.352 107.352 0 0 1-22.52 18.515 83.36 83.36 0 0 1-17.071 7.899 93.792 93.792 0 0 1-30.215 4.429H23.822a1.125 1.125 0 0 1-1.152-.989 1.759 1.759 0 0 1 .148-1.034l.266-.354a1.101 1.101 0 0 1 0-.207c5.287-7.254 10.647-14.12 16.081-20.596a432.831 432.831 0 0 1 26.582-29.204 433.885 433.885 0 0 1 14.31-13.687L63.707 111.25l-23.436 19.562a23.26 23.26 0 0 1-14.62 5.02H-35.81a1.213 1.213 0 0 0-.679.178.772.772 0 0 0-.192.192c-.295.516-.089 1.476-.089 2.081 3.988 13.185 16.097 25.277 36.225 25.277l-14.605 14.602c-.195.231-.3.525-.295.827a1.108 1.108 0 0 0 0 .236c.088.221.213.426.369.606.248.204.564.31.886.295h54.964Z"/><path fill="#0F9A40" d="M191.977 77.204h-20.158l-4.947 6.112c-.369.738-.472 1.21-.088 1.61.158.133.331.247.517.339l6.556 2.953 18.563-8.49a1.24 1.24 0 0 0 .827-.767 1.342 1.342 0 0 0-1.27-1.757ZM149.58 163.885a31.292 31.292 0 0 1-2.156 2.333 37.013 37.013 0 0 1-15.329 9.243 46.199 46.199 0 0 1-15.24 2.554h-24.69a90.694 90.694 0 0 1-17.13 8.563.682.682 0 0 0-.532.384.932.932 0 0 0 0 1.137l22.15 62.011h12.627l-20.143-56.917c9.363 0 28.221-1.816 44.479-12.934a61.423 61.423 0 0 0 6.853-5.433 60.163 60.163 0 0 0 9.008-10.335 60.736 60.736 0 0 0 1.639-2.496c-.487.635-.99 1.3-1.536 1.89ZM136.158 91.745c.069.153.148.3.236.443.14.262.298.513.472.753.338.5.724.964 1.152 1.388a9.77 9.77 0 0 0 7.052 3.011 9.763 9.763 0 0 0 7.051-3.01 11.22 11.22 0 0 0 2.836-7.043 10.979 10.979 0 0 0-1.152-4.533 11.44 11.44 0 0 0-1.595-2.363 5.27 5.27 0 0 1 0 6.453 4.933 4.933 0 0 1-3.279 1.476 3.782 3.782 0 0 1-3.278-1.476 5.005 5.005 0 0 1-1.477-3.263 3.855 3.855 0 0 1 1.477-3.278 4.933 4.933 0 0 1 3.278-1.477 3.841 3.841 0 0 1 1.876.355 10.114 10.114 0 0 0-4.15-1.728c-.49-.063-.983-.098-1.477-.103a10.337 10.337 0 0 0-7.073 2.953c-.103.103-.177.221-.266.325a10.423 10.423 0 0 0-1.683 11.118Z"/><path fill="#0F9A40" d="M114.553 197.18c-2.954.944-6.911 1.476-11.297 2.436l14.324 40.454 2.806 7.899h12.523l-18.075-50.878-.281.089Z"/><path fill="#E30613" d="m23.082 161.244-.265.354a1.758 1.758 0 0 0-.148 1.034 1.124 1.124 0 0 0 1.152.989h29.343a93.766 93.766 0 0 0 30.214-4.43 82.846 82.846 0 0 0 17.159-7.987 108.227 108.227 0 0 0 22.314-18.323c.109-.111.233-.205.369-.28.35-.181.745-.258 1.137-.222a1.896 1.896 0 0 1 .458 1.477c-3.987 10.069-14.059 29.765-32.784 41.842h24.751a49.155 49.155 0 0 0 15.313-2.362 37.003 37.003 0 0 0 15.329-9.243 25.077 25.077 0 0 0 2.2-2.584c.369-.487.694-.974 1.004-1.476 17.175-27.787 23.244-71.726 23.244-71.726l-6.571-3.027a2.681 2.681 0 0 1-.591-.413c-.384-.399-.28-.871.089-1.61l5.05-6.068c-3.057-6.068-14.147-16.122-30.288-16.122a45.373 45.373 0 0 0-25.784 7.603s-7.546 5.153-18.931 14.558a375.303 375.303 0 0 0-7.857 6.659 507.687 507.687 0 0 0-9.052 8.061 479.093 479.093 0 0 0-13.926 13.288c-8.594 8.579-17.72 18.338-26.7 29.19a410.853 410.853 0 0 0-16.229 20.818ZM137.737 80.6c.088-.103.162-.221.265-.325a10.341 10.341 0 0 1 7.074-2.953c.494.005.987.04 1.477.104a9.118 9.118 0 0 1 4.637 2.052c.332.266.648.552.945.856a11.439 11.439 0 0 1 1.595 2.363 10.611 10.611 0 0 1 1.181 4.606 9.422 9.422 0 0 1-2.806 7.19 10.249 10.249 0 0 1-7.073 2.953 8.999 8.999 0 0 1-7.074-2.953 9.284 9.284 0 0 1-1.152-1.387 6.543 6.543 0 0 1-.472-.753c-.089-.148-.163-.296-.237-.443a9.63 9.63 0 0 1 1.64-11.31Z"/></g><path fill="#FEFEFE" d="M285.882 156.341a.41.41 0 0 0-.097.457.405.405 0 0 0 .097.134.416.416 0 0 0 .605 0 .39.39 0 0 0 .131-.295.392.392 0 0 0-.131-.296.39.39 0 0 0-.471-.109.393.393 0 0 0-.134.109Z"/><path fill="#119860" d="M290.093 156.061h-1.831l-.458.546c-.089.089 0 .148 0 .192l.605.266 1.684-.768a.114.114 0 0 0 .083-.035.118.118 0 0 0 .035-.083.117.117 0 0 0-.118-.118Zm-6.808 8.962h-2.245a8.405 8.405 0 0 1-1.55.782.09.09 0 0 0 0 .133l2.008 5.626h1.137l-1.816-5.168a6.577 6.577 0 0 0 5.612-2.835 3.843 3.843 0 0 1-3.146 1.462Zm3.205-8.091a.416.416 0 0 1-.606 0 .405.405 0 0 1-.131-.295.41.41 0 0 1 .131-.296.393.393 0 0 1 .134-.109.394.394 0 0 1 .337 0 .387.387 0 0 1 .135.109.905.905 0 0 0-.293-.204.897.897 0 0 0-.699 0 .894.894 0 0 0-.293.204.9.9 0 0 0 0 1.27.88.88 0 0 0 .642.276.898.898 0 0 0 .643-.276.933.933 0 0 0 0-1.27.493.493 0 0 1 0 .591Zm-4.431 10.246 1.477 4.43h1.152l-1.654-4.621c-.207.044-.576.088-.975.191Zm1.477-5.492c.138-.187.262-.384.369-.591h-.133a8.062 8.062 0 0 1-6.305 2.791h-2.658c-.089 0-.133-.103-.089-.192a36.707 36.707 0 0 1 5.995-6.482l-4.43 3.692a2.063 2.063 0 0 1-1.329.457h-5.567c-.148 0-.103.148-.103.236a3.293 3.293 0 0 0 3.293 2.289l-1.315 1.314a.11.11 0 0 0-.055.059.108.108 0 0 0 .063.136c.026.01.056.009.081-.003h4.977a7.987 7.987 0 0 0 7.206-3.706Z"/><path fill="#E30613" d="M333.345 171.562h4.076v-12.579h-4.076v4.621h-3.839v-4.621h-4.062v12.579h4.062v-4.724h3.839v4.724Zm-48.142-13.952a.875.875 0 0 1-.203-.981.885.885 0 0 1 .203-.289.894.894 0 0 1 1.285 0 .93.93 0 0 1 0 1.27.88.88 0 0 1-.642.276.895.895 0 0 1-.643-.276Zm1.137 5.906a19.795 19.795 0 0 0 2.112-6.497l-.605-.265c-.089 0-.089-.104 0-.192l.457-.547a3.154 3.154 0 0 0-2.732-1.476 4.081 4.081 0 0 0-2.333.679 30.217 30.217 0 0 0-2.422 1.934 38.378 38.378 0 0 0-5.995 6.482c0 .089 0 .192.088.192h2.659a8.062 8.062 0 0 0 6.305-2.791.103.103 0 0 1 .056-.074.104.104 0 0 1 .129.03.116.116 0 0 1 .019.044.098.098 0 0 1-.003.048.101.101 0 0 1-.024.041 8.143 8.143 0 0 1-2.953 3.794h2.245a3.59 3.59 0 0 0 3.056-1.476l-.059.074Zm-2.289 2.953 1.743 4.946h4.947c-1.019-3.071-2.112-5.906-3.16-8.505a6.255 6.255 0 0 1-3.53 3.662v-.103Zm-14.989 5.093h4.977l1.698-5.256h-4.843c-.65 1.551-1.197 3.293-1.832 5.256Zm6.72-11.294 2.51-2.053c.547-1.476 1.108-2.953 1.654-4.163l.827 2.008a9.066 9.066 0 0 1 3.382-2.141c-.694-1.477-1.196-2.613-1.477-3.071h-5.582c-.458 1.004-2.245 4.71-4.342 9.7h2.009a1.29 1.29 0 0 0 1.019-.28Zm30.819 9.877.281 1.373h3.234v-12.535h-4.076v8.741a2.54 2.54 0 0 1-1.698.871 1.588 1.588 0 0 1-1.199-.518 1.587 1.587 0 0 1-.411-1.239v-7.781h-4.135v8.741a2.76 2.76 0 0 1-1.831.871c-1.048 0-1.639-.65-1.639-1.831v-7.781h-4.076v8.327c0 2.953 1.329 4.518 4.076 4.518a5.194 5.194 0 0 0 4.061-1.683 3.634 3.634 0 0 0 3.485 1.683 4.974 4.974 0 0 0 3.928-1.757Zm12.937-2.466a2.51 2.51 0 0 1-1.965.857c-1.092 0-1.683-1.004-1.683-2.953 0-2.422.635-3.603 1.964-3.603a6.125 6.125 0 0 1 1.684.178v5.536-.015Zm-3.382 4.105h.133a4.25 4.25 0 0 0 3.751-1.639l.236 1.373h3.337v-12.062a17.694 17.694 0 0 0-5.715-.768c-4.075 0-6.261 2.466-6.261 7.043 0 4.193 1.551 6.023 4.519 6.023v.03Z"/></svg>