<svg width="80" height="65" viewBox="0 0 160 139" fill="none" xmlns="http://www.w3.org/2000/svg">
<mask id="mask0" mask-type="alpha" maskUnits="userSpaceOnUse" x="0" y="0" width="160" height="139">
<rect width="160" height="139" fill="#C4C4C4"/>
</mask>
<g mask="url(#mask0)">
<path d="M153 139L64 139V75.0001H153V139Z" fill="#F7D75E"/>
<path d="M104.448 138.987H96.2266V74.9766H104.448V138.987Z" fill="#0F9A40"/>
<path d="M64 139H9V75H64V139Z" fill="#E38331"/>
<path d="M41.0536 138.986H32.832V74.9755H41.0536V138.986Z" fill="#187228"/>
<path d="M81.4574 62.735C81.4574 62.735 116.512 63.0521 115.933 49.5682C115.933 49.5316 115.92 49.495 115.908 49.4584L115.713 49.2023C113.871 47.5923 101.07 45.9274 100.058 49.4767C98.0577 56.5511 81.4574 62.735 81.4574 62.735Z" fill="#0F9A40"/>
<path d="M81.4625 62.7334L93.3486 51.5425C95.3245 50.1886 97.6663 49.469 100.069 49.4812L115.913 49.4568L115.718 49.2007L107.888 39.1502C107.888 39.1502 99.8313 37.7537 93.5315 40.0894C89.0613 41.7421 81.4625 62.7334 81.4625 62.7334Z" fill="#187228"/>
<path d="M82.2125 63.0571C82.2125 63.0571 100.307 33.0339 88.3964 26.6731C88.3659 26.6548 88.3293 26.6426 88.2927 26.6426L87.9756 26.6792C85.652 27.4415 77.7117 37.6261 80.2609 40.2973C85.3227 45.6152 82.2125 63.0571 82.2125 63.0571Z" fill="#0F9A40"/>
<path d="M82.2171 63.0557L78.619 47.1385C78.4543 44.7417 79.0276 42.3633 80.2595 40.302L88.2974 26.6412L87.9803 26.6778L75.3441 28.3122C75.3441 28.3122 70.0444 34.5388 68.8491 41.1497C68.0014 45.8395 82.2171 63.0557 82.2171 63.0557Z" fill="#187228"/>
<path d="M82.8743 62.0565C82.8743 62.0565 63.8041 32.6431 52.8754 40.5712C52.845 40.5895 52.8206 40.6139 52.7962 40.6505L52.6925 40.9493C52.3632 43.3766 58.0409 54.9699 61.5598 53.8539C68.561 51.6218 82.8743 62.0565 82.8743 62.0565Z" fill="#0F9A40"/>
<path d="M82.8788 62.0563L66.992 58.3179C64.7721 57.4153 62.8755 55.8602 61.5643 53.8537L52.8006 40.6503L52.697 40.9492L48.6353 53.0243C48.6353 53.0243 51.9164 60.5134 57.338 64.4835C61.1679 67.3011 82.8788 62.0563 82.8788 62.0563Z" fill="#187228"/>
<path d="M82.876 57.0864C85.8094 57.0559 88.2244 59.7027 88.261 63.0081L77.619 63.124C77.5824 59.8185 79.9365 57.123 82.876 57.0864Z" fill="#187228"/>
<path d="M67 76L6 76L6 62L67 62L67 76Z" fill="#E38331"/>
<path d="M38.2215 76.2012L30 76.2012L30 62.1071L38.2215 62.1071L38.2215 76.2012Z" fill="#187228"/>
<path d="M156 76L67 76L67 62L156 62L156 76Z" fill="#F7D75E"/>
<path d="M107.222 76.4072L99 76.4072L99 62.3132L107.222 62.3132L107.222 76.4072Z" fill="#0F9A40"/>
</g>
</svg>
