<svg xmlns="http://www.w3.org/2000/svg" width="118" height="42" fill="none"><path fill="#FD0C15" fill-rule="evenodd" d="m79.781.919-.59 4.003c-1.31-.722-2.294-.984-3.343-.984-2.753 0-4.72 2.821-4.72 6.824 0 2.757 1.311 4.463 3.474 4.463.918 0 1.901-.328 3.147-.919l-.655 4.2c-1.377.394-2.23.525-3.278.525-4 0-6.49-3.018-6.49-7.875 0-6.562 3.409-11.09 8.39-11.09.656 0 1.18.065 1.705.197l1.574.393c.163.066.278.099.393.132.115.032.23.065.393.13Zm31.795 15.553c0-1.247.983-2.297 2.229-2.297 1.245 0 2.228 1.05 2.228 2.297s-.983 2.297-2.228 2.297c-1.246.065-2.229-.985-2.229-2.297Zm2.163 1.837c.918 0 1.704-.787 1.704-1.771 0-.985-.786-1.772-1.704-1.772-.918 0-1.704.787-1.704 1.772 0 .984.786 1.771 1.704 1.771Zm-.328-.787h-.393v-2.034h.852c.197 0 .393 0 .525.13.196.132.262.329.262.526 0 .262-.131.46-.328.525l.393.918h-.655l-.328-.787h-.328v.722Zm.066-1.181h.262c.131 0 .197 0 .262-.066.066-.066.131-.131.131-.262 0-.066-.065-.197-.131-.197-.065-.066-.196-.066-.262-.066h-.262v.59ZM66.997 3.609c.132 0 .263 0 .394.066h.197c-.656 1.247-1.115 2.56-1.442 4.331h-.263c-1.77 0-2.097 1.51-3.474 10.631h-3.737l2.295-14.83h3.277l-.327 2.23c1.18-1.771 1.9-2.428 3.08-2.428ZM45.169 18.441c-.983.328-1.836.524-2.688.524-1.9 0-2.95-1.115-2.95-3.28 0-.344.05-.738.106-1.182l.025-.197.262-1.444.197-1.18 1.64-10.107h3.67l-.459 2.166h1.901l-.524 3.609h-1.901l-.983 6.169c-.066.262-.066.459-.066.59 0 .788.393 1.116 1.245 1.116.46 0 .722-.066.984-.131l-.459 3.347Zm-11.8-5.84c-1.967-.985-2.82-2.232-2.82-4.135-.065-2.757 1.378-4.988 5.639-4.922.852 0 2.294.131 3.277.328l-.524 3.412c-.983-.13-1.967-.262-2.688-.262-1.245 0-1.835.394-1.835 1.181 0 .722.13.919 1.704 1.64 1.901.92 2.622 2.1 2.622 4.135 0 3.347-1.77 4.922-5.703 4.922-.373 0-.918-.043-1.566-.095l-.466-.036c-.46 0-.721-.066-.984-.131l-.655-.132-.197-.065.525-3.413c1.245.394 2.229.59 3.343.59 1.442 0 2.098-.459 2.098-1.377 0-.657-.262-.92-1.77-1.64Zm76.044 6.036h-3.54l.197-1.443c-.983 1.115-2.098 1.64-3.409 1.64-2.753 0-4.523-2.428-4.523-6.168 0-4.922 2.753-9.122 6.031-9.122 1.442 0 2.491.656 3.54 2.034l.787-5.25h3.671l-2.754 18.31Zm-5.506-3.478c1.77 0 2.95-2.034 2.95-4.987 0-1.903-.721-2.953-1.967-2.953-1.704 0-2.884 2.1-2.884 4.987 0 1.903.655 2.953 1.901 2.953ZM53.166 18.9c1.31 0 2.556-.197 3.802-.59l.524-3.676c-1.376.591-2.556.92-3.868.92-2.163 0-3.277-.854-3.277-2.626 0-.131 0-.197.065-.46h7.474c.327-1.509.458-2.624.458-3.674 0-3.347-1.9-5.447-4.982-5.447-3.736 0-6.49 3.74-6.49 8.86 0 4.396 2.164 6.693 6.294 6.693Zm1.77-10.172c0 .131 0 .394-.066.722v.066h-4.064c.327-1.772 1.18-2.691 2.36-2.691 1.114 0 1.77.722 1.77 1.903Zm-39.334 9.91h-3.67l2.097-14.044-4.786 14.043h-2.49L6.424 4.66l-2.23 13.979H.722L3.606.393h5.31l.196 11.287L12.718.394h5.769l-2.885 18.244Zm8.72-6.694c.262 0 .458 0 .852.066-.066 2.165-1.18 3.74-2.623 3.675-.852 0-1.376-.591-1.376-1.51 0-1.444 1.049-2.231 3.146-2.231Zm.458 6.694h3.081l.066-.394.065-.525.066-.788.131-.918.787-5.25c.262-1.707.328-2.232.328-2.953 0-2.822-1.64-4.332-4.852-4.332-1.376 0-2.622.197-4.457.788l-.525 3.347.328-.132.459-.196c.852-.263 2.032-.46 3.08-.46 1.705 0 2.36.394 2.36 1.378 0 .263 0 .46-.13.985-.525-.066-1.05-.132-1.508-.132-4.13 0-6.556 2.1-6.556 5.71 0 2.428 1.377 4.069 3.41 4.069 1.77 0 3.015-.525 3.933-1.772l-.066 1.575Zm61.426-6.629c-.394-.065-.59-.065-.853-.065-2.097 0-3.212.787-3.212 2.231 0 .919.525 1.51 1.377 1.51 1.508.065 2.622-1.51 2.688-3.676Zm2.688 6.629h-3.082l.066-1.575c-.918 1.247-2.163 1.771-3.933 1.771-2.033 0-3.41-1.64-3.41-4.068 0-3.61 2.426-5.71 6.556-5.71.394 0 .984.066 1.508.132.131-.525.131-.722.131-.985 0-.984-.655-1.378-2.36-1.378-1.049 0-2.229.197-3.08.46l-.525.13-.328.132.524-3.347c1.836-.59 3.081-.787 4.458-.787 3.212 0 4.851 1.509 4.851 4.33 0 .723-.065 1.248-.328 2.954l-.786 5.25-.131.919-.132.722-.065.525.066.525Zm9.964-15.029c.13 0 .262 0 .393.066h.131c-.655 1.247-1.114 2.56-1.442 4.331h-.262c-1.77 0-2.098 1.51-3.475 10.631h-3.736l2.294-14.83h3.343l-.327 2.23c1.18-1.771 1.9-2.428 3.08-2.428Z" clip-rule="evenodd"/><path fill="#F3AE12" fill-rule="evenodd" d="M7.932 26.316c1.246 0 2.23.393 2.885.853l1.049-3.74c-.918-.591-2.426-.854-4.065-.854-2.884 0-5.9 1.444-5.9 6.234 0 2.986 1.654 3.913 3.08 4.712 1.082.607 2.034 1.14 2.034 2.441 0 1.904-1.705 2.232-2.82 2.232-1.18 0-2.556-.394-3.277-1.05l-.852 3.74c1.114.525 2.687.985 4.064.985 3.081 0 6.425-1.378 6.425-6.497 0-3.356-1.808-4.368-3.274-5.19-1-.56-1.84-1.03-1.84-2.095 0-1.443 1.05-1.771 2.491-1.771Zm68.112 1.509.59-4.003-.13-.053h-.002l-.002-.001-.003-.002c-.235-.095-.371-.151-.65-.207l-1.441-.393a5.733 5.733 0 0 0-1.574-.197c-4.654 0-7.866 4.528-7.866 11.09 0 4.857 2.36 7.875 6.096 7.875.984 0 1.836-.13 3.081-.525l.59-4.2c-1.114.591-2.097.92-2.95.92-2.032 0-3.212-1.707-3.212-4.463 0-4.003 1.836-6.825 4.392-6.825.984 0 1.836.262 3.082.984Zm4.917 10.631c1.639 0 2.688-2.034 2.688-5.38 0-1.576-.459-3.02-1.836-2.954-1.704 0-2.753 2.69-2.753 5.053 0 1.969.721 3.347 1.901 3.281Zm1.049-12.075c3.474 0 5.31 2.953 5.31 6.694 0 6.234-2.753 8.925-6.621 8.86-3.737 0-5.31-3.085-5.31-6.826 0-5.184 2.622-8.728 6.621-8.728Zm-28.385.132c-.132-.066-.263-.066-.394-.066-1.114 0-1.77.656-2.884 2.428l.328-2.231h-3.147L45.43 41.475h3.475c1.31-9.056 1.639-10.631 3.277-10.631.131 0 .131 0 .263.066.327-1.772.72-3.085 1.31-4.332l-.13-.065Zm42.086 14.83h3.278l2.688-18.309h-3.41l-.786 5.25c-.983-1.378-1.967-2.034-3.343-2.034-3.016 0-5.638 4.2-5.638 9.122 0 3.74 1.704 6.169 4.195 6.169 1.246 0 2.295-.525 3.213-1.64l-.197 1.443Zm.852-8.465c0 2.953-1.114 4.988-2.753 4.988-1.18 0-1.77-.985-1.77-2.888 0-2.953 1.114-4.987 2.688-4.987 1.18 0 1.835.984 1.835 2.887Zm-75.454 8.4a10.83 10.83 0 0 1-3.54.59c-3.868 0-5.9-2.296-5.9-6.693 0-5.053 2.557-8.86 6.031-8.86 2.885 0 4.655 2.1 4.655 5.448 0 1.05-.131 2.165-.46 3.675h-6.883c-.065.262-.065.328-.065.459 0 1.706 1.049 2.56 3.081 2.56 1.245 0 2.36-.329 3.606-.92l-.525 3.741Zm-1.967-8.794a3.6 3.6 0 0 1 .044-.514c.012-.086.022-.157.022-.207 0-1.182-.59-1.904-1.639-1.904-1.114 0-1.901.92-2.229 2.691h3.802v-.066ZM58.87 41.87c1.246 0 2.36-.197 3.54-.59l.525-3.741c-1.246.59-2.36.918-3.606.918-2.032 0-3.081-.853-3.081-2.559 0-.131 0-.197.065-.46h6.95c.327-1.509.458-2.624.458-3.674 0-3.347-1.835-5.447-4.72-5.447-3.474 0-6.03 3.806-6.03 8.86 0 4.396 1.966 6.693 5.9 6.693Zm1.639-10.106c0 .13 0 .393-.066.721v.066H56.64c.328-1.772 1.115-2.69 2.23-2.69 1.048 0 1.638.721 1.638 1.903Zm50.281 9.515c-1.18.394-2.36.59-3.54.59-3.868 0-5.9-2.296-5.9-6.693 0-5.053 2.622-8.86 6.097-8.86 2.884 0 4.654 2.1 4.654 5.448 0 1.05-.131 2.165-.459 3.675h-6.883c-.066.262-.066.328-.066.459 0 1.706 1.049 2.56 3.081 2.56 1.246 0 2.36-.329 3.606-.92l-.59 3.741Zm-1.923-9.307v-.002c.012-.085.022-.156.022-.206 0-1.182-.59-1.904-1.639-1.904-1.115 0-1.901.92-2.229 2.691h3.802v-.066c0-.2.025-.377.044-.513ZM31.27 41.278c-.721.328-1.704.591-3.081.591-3.016 0-4.917-3.019-4.917-6.76 0-4.856 2.754-8.662 6.752-8.662.853 0 2.23.394 3.278.985l-.786 3.543c-.787-.525-1.574-.787-2.36-.787-1.836 0-3.213 1.706-3.213 4.725 0 1.772.984 3.215 2.491 3.215.918 0 1.574-.197 2.295-.656l-.459 3.806Zm12.521.066c.131-1.313.262-2.56.459-3.806l1.639-10.894h-3.606l-1.049 6.825c-.262 2.231-1.18 4.069-2.687 4.069-1.05.065-1.443-.853-1.443-1.707 0-.722.132-1.509.263-2.23l.917-6.892h-3.736L33.63 33.6c-.197 1.51-.262 2.1-.262 3.084 0 2.822 1.114 5.054 3.212 5.054 1.967 0 3.016-1.116 4.064-2.757h.066l-.262 2.363h3.343Zm70.472-.131h-.59v-2.428h-.786v-.525h2.163v.525h-.787v2.428Zm3.213 0H118V38.26h-.787l-.459 2.362h-.065l-.459-2.362h-.852v2.953h.524v-2.494l.525 2.494h.524l.525-2.494v2.494Z" clip-rule="evenodd"/></svg>