<svg xmlns="http://www.w3.org/2000/svg" width="53" height="40" fill="none"><path fill="#F36523" fill-rule="evenodd" d="M33.67 29.132H19.33V3.563h14.34v25.569Z" clip-rule="evenodd"/><path fill="#FA9F1B" fill-rule="evenodd" d="M53 16.27a16.072 16.072 0 0 1-2.467 8.625A16.308 16.308 0 0 1 43.81 30.9a16.516 16.516 0 0 1-8.922 1.547 16.46 16.46 0 0 1-8.387-3.386 16.343 16.343 0 0 0 4.61-5.687 16.173 16.173 0 0 0 1.645-7.105c0-2.461-.563-4.89-1.646-7.106a16.343 16.343 0 0 0-4.61-5.687A16.46 16.46 0 0 1 34.888.092a16.517 16.517 0 0 1 8.921 1.548 16.309 16.309 0 0 1 6.724 6.005A16.073 16.073 0 0 1 53 16.27Z" clip-rule="evenodd"/><path fill="#E71B26" fill-rule="evenodd" d="M20.244 16.27a16.125 16.125 0 0 1 1.642-7.107A16.298 16.298 0 0 1 26.5 3.479 16.46 16.46 0 0 0 18.113.093a16.516 16.516 0 0 0-8.922 1.546 16.308 16.308 0 0 0-6.724 6.006A16.072 16.072 0 0 0 0 16.271a16.072 16.072 0 0 0 2.467 8.625 16.307 16.307 0 0 0 6.724 6.006 16.516 16.516 0 0 0 8.922 1.547 16.46 16.46 0 0 0 8.387-3.386 16.298 16.298 0 0 1-4.614-5.684 16.125 16.125 0 0 1-1.642-7.108Z" clip-rule="evenodd"/><path fill="#000" fill-rule="evenodd" d="M49 39.714v-.526a1.64 1.64 0 0 1-1.375.635 2.32 2.32 0 0 1-1.57-.7 2.272 2.272 0 0 1-.643-1.583c0-.59.23-1.156.643-1.581a2.32 2.32 0 0 1 1.57-.701 1.658 1.658 0 0 1 1.374.636v-2.268h.947v6.088h-.947Zm-1.256-3.562a1.42 1.42 0 0 0-.808.187 1.4 1.4 0 0 0-.561.604 1.38 1.38 0 0 0 .241 1.55 1.412 1.412 0 0 0 1.546.346c.264-.102.49-.28.648-.512.16-.231.244-.505.244-.785a1.287 1.287 0 0 0-.349-.977 1.311 1.311 0 0 0-.961-.413Zm-3.457.01a.939.939 0 0 0-.738.336.918.918 0 0 0-.19.782v2.435h-.945V35.37h.937v.528a1.27 1.27 0 0 1 1.145-.636c.23 0 .458.04.674.118l-.295.89a1.558 1.558 0 0 0-.588-.108ZM40.22 39.19a1.64 1.64 0 0 1-1.374.635 2.32 2.32 0 0 1-1.57-.7 2.272 2.272 0 0 1 0-3.163 2.32 2.32 0 0 1 1.57-.702 1.655 1.655 0 0 1 1.374.636v-.525h.946v4.344h-.946v-.526Zm-1.255-3.037a1.42 1.42 0 0 0-.808.186 1.4 1.4 0 0 0-.562.604 1.38 1.38 0 0 0 .24 1.551 1.412 1.412 0 0 0 1.547.346c.263-.102.489-.28.648-.512.159-.231.244-.505.244-.785a1.285 1.285 0 0 0-.35-.977 1.314 1.314 0 0 0-.96-.413Zm-4.367 2.781a1.91 1.91 0 0 0 1.137-.388l.454.763a2.273 2.273 0 0 1-1.564.516c-.612 0-1.199-.24-1.631-.669a2.27 2.27 0 0 1-.676-1.614c0-.605.243-1.186.676-1.614a2.319 2.319 0 0 1 1.63-.668 2.28 2.28 0 0 1 1.565.518l-.454.764a1.912 1.912 0 0 0-1.137-.389 1.415 1.415 0 0 0-.932.44 1.386 1.386 0 0 0 0 1.901c.244.258.577.416.932.44Zm-3.458-2.77a.938.938 0 0 0-.738.335.918.918 0 0 0-.19.782v2.435h-.945V35.37h.936v.528a1.286 1.286 0 0 1 1.146-.636c.23.001.458.041.674.118l-.295.89a1.553 1.553 0 0 0-.588-.108Zm-6.096 1.747c.035.31.19.595.433.793.243.199.555.295.869.27a2.074 2.074 0 0 0 1.265-.454l.464.7a2.648 2.648 0 0 1-1.783.605 2.32 2.32 0 0 1-1.603-.667c-.426-.42-.67-.989-.678-1.584a2.27 2.27 0 0 1 .633-1.603 2.318 2.318 0 0 1 1.583-.711 2.115 2.115 0 0 1 1.538.691 2.07 2.07 0 0 1 .523 1.59c0 .127-.009.244-.018.363h-3.226v.007Zm1.162-1.803a1.13 1.13 0 0 0-.795.293c-.216.197-.346.47-.36.76h2.257a1.068 1.068 0 0 0-.331-.752 1.09 1.09 0 0 0-.771-.301Zm-3.849 2.816c.296-.01.584-.093.837-.244l.272.809c-.352.22-.76.337-1.178.336a1.38 1.38 0 0 1-1.17-.422 1.35 1.35 0 0 1-.34-1.187V36.23h-.882v-.86h.883v-1.317h.955v1.317h1.547v.86h-1.548v1.962a.59.59 0 0 0 .127.523.602.602 0 0 0 .501.208h-.004Zm-4.618-1.819c.946.136 1.52.536 1.52 1.3 0 .826-.728 1.417-1.983 1.417a3.14 3.14 0 0 1-1.883-.563l.445-.737c.417.31.927.47 1.448.455.646 0 .991-.194.991-.527 0-.246-.245-.381-.764-.454l-.446-.063c-.973-.136-1.5-.573-1.5-1.281 0-.863.71-1.391 1.811-1.391a3.248 3.248 0 0 1 1.774.454l-.409.764a2.805 2.805 0 0 0-1.356-.373c-.518 0-.828.194-.828.51 0 .291.328.372.738.426l.442.063Zm-4.211 2.08a1.644 1.644 0 0 1-1.374.636 2.32 2.32 0 0 1-1.57-.7 2.272 2.272 0 0 1-.644-1.583c0-.59.23-1.156.643-1.581a2.32 2.32 0 0 1 1.57-.701 1.66 1.66 0 0 1 1.375.636v-.52h.945v4.343h-.945v-.529Zm-1.26-3.032a1.42 1.42 0 0 0-.808.186 1.4 1.4 0 0 0-.562.604 1.381 1.381 0 0 0 .241 1.551 1.412 1.412 0 0 0 1.547.346c.263-.102.489-.28.648-.512.159-.231.244-.505.244-.785a1.285 1.285 0 0 0-.349-.977 1.309 1.309 0 0 0-.96-.413Zm-4.081 1.146a.932.932 0 0 0-.195-.803.95.95 0 0 0-.76-.342 1.04 1.04 0 0 0-.805.332 1.018 1.018 0 0 0-.26.823v2.408h-.955v-2.418a.934.934 0 0 0-.194-.798.953.953 0 0 0-.752-.347 1.034 1.034 0 0 0-.808.33 1.01 1.01 0 0 0-.256.825v2.408h-.956V35.37h.946v.537c.137-.21.327-.379.55-.492.225-.113.475-.166.726-.153.288-.012.574.054.827.191.254.137.465.34.61.586a1.695 1.695 0 0 1 1.53-.777 1.641 1.641 0 0 1 1.25.48 1.607 1.607 0 0 1 .46 1.247v2.726h-.958v-2.417Z" clip-rule="evenodd"/></svg>