<svg xmlns="http://www.w3.org/2000/svg" width="109" height="42" fill="none"><path fill="#225E63" fill-rule="evenodd" d="m59.453 27.567 3.552-1.117-1.154-2.558c-.848 1.063-1.695 2.432-2.398 3.675Zm-1.209-11.69L51.283.39.319 3.27l14.12 38.471 27.178-8.555c-1.732-2.485-2.363-5.44-.361-6.88 2.236-1.621 5.609.252 7.755 2.9 2.074-3.458 7.899-11.51 9.233-13.328Zm17.475 7.637c0-.648.18-1.152.541-1.512.36-.36.866-.54 1.515-.54.667 0 1.172.18 1.533.521.36.36.54.847.54 1.495 0 .469-.071.847-.233 1.135a1.67 1.67 0 0 1-.686.684c-.288.162-.667.253-1.1.253-.45 0-.811-.073-1.118-.216a1.743 1.743 0 0 1-.721-.685c-.199-.324-.27-.666-.27-1.135Zm1.226 0c0 .397.073.685.217.865.144.18.342.27.613.27.27 0 .469-.09.613-.252.144-.18.217-.486.217-.919 0-.378-.073-.648-.235-.81-.144-.18-.36-.252-.613-.252s-.45.09-.595.27c-.144.144-.217.432-.217.828Zm-2.74.361 1.081.324c-.072.306-.18.558-.342.757-.163.198-.343.36-.578.45-.234.108-.522.162-.883.162-.433 0-.776-.054-1.064-.18-.27-.126-.505-.342-.703-.667-.199-.306-.307-.72-.307-1.206 0-.649.18-1.153.523-1.513.343-.36.847-.522 1.479-.522.505 0 .883.108 1.172.306.288.198.505.504.631.936l-1.082.234c-.036-.126-.072-.216-.126-.27a.734.734 0 0 0-.253-.216.708.708 0 0 0-.324-.072.696.696 0 0 0-.632.342c-.108.162-.162.433-.162.775 0 .432.072.738.199.9a.687.687 0 0 0 .559.253c.234 0 .414-.073.523-.199.144-.162.234-.342.288-.594Zm7.88-2.342h-1.641v3.962h1.01V22.47l.775 3.026h.902l.775-3.026v3.026h1.01v-3.963h-1.605l-.613 2.414-.613-2.414Zm3.625 0h2.038c.45 0 .775.108.992.324.216.216.324.505.324.9 0 .397-.126.721-.36.937-.235.235-.614.343-1.1.343h-.668v1.477H85.71v-3.98Zm1.244 1.693h.289c.234 0 .397-.036.505-.126.09-.09.144-.18.144-.306a.434.434 0 0 0-.126-.324c-.09-.09-.235-.126-.47-.126h-.342v.882Zm3.986-1.693h-1.226v3.962h3.138v-.972H90.94v-2.99Zm2.525 0h1.226v3.962h-1.226v-3.962Zm3.156 3.296h1.388l.217.648h1.28l-1.497-3.962h-1.334l-1.497 3.962h1.244l.199-.648Zm.703-2.27.433 1.424h-.866l.433-1.423Zm2.56-1.026h1.137l1.497 2.197v-2.197h1.154v3.962h-1.154l-1.479-2.179v2.18h-1.154v-3.963Zm8.062 0h-3.715v.973h1.244v2.99h1.227v-2.99h1.244v-.973ZM77.18 6.46h-5.897v12.823h5.897c.703 0 1.497-.108 2.362-.342.632-.18 1.227-.522 1.786-1.027a5.283 5.283 0 0 0 1.298-1.909c.307-.756.47-1.819.47-3.188a9.2 9.2 0 0 0-.326-2.485 5.476 5.476 0 0 0-1.01-2.053c-.45-.577-1.045-1.027-1.767-1.351-.703-.306-1.64-.468-2.813-.468Zm-1.93 9.905V9.358h.992c1.046 0 1.767.253 2.218.757.451.504.668 1.423.668 2.791 0 1.027-.109 1.784-.307 2.234-.198.45-.487.774-.83.954-.342.18-.937.27-1.767.27h-.974Zm8.945-1.315 3.788-.234c.09.613.252 1.081.504 1.405.415.523.992.775 1.75.775.559 0 1.01-.127 1.316-.397.307-.27.47-.576.47-.918 0-.324-.145-.63-.434-.9-.288-.27-.974-.505-2.037-.74-1.75-.395-2.976-.918-3.734-1.566-.757-.648-1.118-1.477-1.118-2.485 0-.667.199-1.28.577-1.874.38-.594.956-1.044 1.732-1.386.775-.343 1.821-.505 3.156-.505 1.64 0 2.903.306 3.75.919.866.612 1.371 1.585 1.534 2.918l-3.751.216c-.109-.577-.307-.99-.632-1.261-.324-.27-.757-.396-1.316-.396-.469 0-.812.09-1.046.288a.894.894 0 0 0-.343.72c0 .198.09.396.289.559.18.162.631.324 1.334.468 1.732.378 2.976.756 3.733 1.135.758.378 1.299.864 1.642 1.422.342.559.504 1.207.504 1.91 0 .828-.234 1.584-.685 2.269-.45.702-1.1 1.225-1.912 1.585-.811.36-1.857.54-3.101.54-2.183 0-3.697-.414-4.545-1.26-.83-.847-1.298-1.91-1.425-3.207Zm16.465-.234-3.787.235c.108 1.296.577 2.359 1.425 3.205.847.847 2.362 1.261 4.545 1.261 1.244 0 2.29-.18 3.101-.54.812-.36 1.461-.883 1.912-1.585.451-.685.685-1.441.685-2.27 0-.702-.162-1.35-.505-1.909-.342-.558-.883-1.044-1.641-1.422-.757-.379-2.002-.757-3.733-1.135-.703-.144-1.154-.306-1.334-.468-.199-.162-.289-.36-.289-.559 0-.288.108-.522.343-.72.234-.198.577-.288 1.046-.288.559 0 .992.126 1.316.396.325.27.523.684.631 1.26l3.752-.215c-.163-1.333-.668-2.306-1.533-2.918-.848-.613-2.11-.919-3.751-.919-1.335 0-2.381.162-3.157.505-.775.342-1.352.792-1.73 1.386-.38.595-.578 1.207-.578 1.874 0 1.008.379 1.837 1.118 2.485.758.648 1.984 1.17 3.733 1.567 1.064.234 1.75.468 2.038.738.289.27.433.577.433.9 0 .343-.162.65-.469.92-.306.27-.757.396-1.316.396-.758 0-1.335-.253-1.75-.775-.252-.324-.414-.792-.505-1.405Z" clip-rule="evenodd"/><path fill="#FEFEFE" fill-rule="evenodd" d="M49.695 11.582c2.128 0 3.86-1.62 3.86-3.638 0-2.017-1.732-3.638-3.86-3.638s-3.859 1.621-3.859 3.638c0 2 1.731 3.638 3.86 3.638Zm3.156 1.567v16.48H46.54v-16.48h6.312Zm-9.432 4.81c.054.017.09 0 .09-.055v-4.178c0-.054-.036-.108-.09-.144 0 0-.83-.54-3.354-.685-.126-.072-2.344-.09-2.94 0-9.197.739-9.54 7.385-9.54 7.673v1.62c0 .199 0 6.989 9.54 7.583.766.059 2.12.022 2.69.006l.25-.006c2.2 0 3.715-.666 3.715-.666a.135.135 0 0 0 .09-.126v-3.909c0-.054-.036-.072-.072-.036 0 0-.685.54-3.679.847-.848.09-1.262.054-1.569 0-4.256-.72-4.454-3.818-4.454-3.818 0-.03-.006-.07-.01-.107a.686.686 0 0 1-.008-.073v-1.19c0-.053 0-.143.018-.18 0 0 .288-3.331 4.454-3.692h1.569c1.821.235 3.3 1.135 3.3 1.135ZM10.146 29.664c-.054 0-.09-.036-.09-.09V13.239c0-.054.036-.09.09-.09h7.971c2.02-.09 8.188.469 8.188 5.674 0 6.573-9.829 5.871-9.829 5.871-.054 0-.09.036-.09.09v4.79c0 .055-.036.091-.09.091h-6.15Zm6.132-12.932v4.305h1.695s1.894-.09 2.182-1.837c.036-.036.036-.775 0-.883-.18-1.495-2.362-1.585-2.362-1.585h-1.515Z" clip-rule="evenodd"/><path fill="#2BBC5D" d="M49.876 37.58c.505 0 .902 0 1.551-.287 2.236-1.171 9.793-19.596 17.764-25.27a.548.548 0 0 0 .144-.143c.054-.072.054-.144.054-.144s0-.379-1.172-.379c-7.087-.198-14.463 14.661-18.34 20.532-.055.073-.307 0-.307 0s-2.597-3.061-4.852-4.232c-.054-.018-.306-.108-.577-.09-.18 0-1.226.216-1.713.72-.577.613-.559.955-.559 1.693 0 .054.036.306.108.433.56.972 3.066 4.43 5.14 6.34.307.233.794.828 2.76.828Z"/></svg>