<svg width="100" height="64" viewBox="0 0 197 128" fill="none" xmlns="http://www.w3.org/2000/svg">
<path d="M10 68L13.4083 74.5917L20 78L13.4083 81.4083L10 88L6.59175 81.4083L0 78L6.59175 74.5917L10 68Z" fill="#1F52F5"/>
<path d="M192 59L193.704 62.2959L197 64L193.704 65.7041L192 69L190.296 65.7041L187 64L190.296 62.2959L192 59Z" fill="#DC000F"/>
<path d="M51.5 97L56.7828 107.217L67 112.5L56.7828 117.783L51.5 128L46.2172 117.783L36 112.5L46.2172 107.217L51.5 97Z" fill="#FCD73F"/>
<path d="M173.5 0L177.419 7.58051L185 11.5L177.419 15.4195L173.5 23L169.581 15.4195L162 11.5L169.581 7.58051L173.5 0Z" fill="#FCD73F"/>
<path d="M31.5 13L34.0562 17.9438L39 20.5L34.0562 23.0562L31.5 28L28.9438 23.0562L24 20.5L28.9438 17.9438L31.5 13Z" fill="#DC000F"/>
<path d="M96 12C75.5655 12 59 28.5655 59 49H133C133 28.5655 116.435 12 96 12Z" fill="#0C1A77"/>
<path d="M96 86C116.435 86 133 69.4345 133 49L59 49C59 69.4345 75.5655 86 96 86Z" fill="#0C1A77"/>
<circle cx="91.375" cy="44.375" r="32.375" fill="#1F52F5"/>
<circle cx="79.5234" cy="32.5242" r="7.5" fill="#FFDA44"/>
<circle cx="103.024" cy="56.0239" r="7.5" fill="#FFDA44"/>
<path fill-rule="evenodd" clip-rule="evenodd" d="M110.68 30.681L77.6803 63.681L72.0234 58.0242L105.023 25.0242L110.68 30.681Z" fill="white"/>
<path d="M147 82C137.059 82 129 90.0589 129 100H165C165 90.0589 156.941 82 147 82Z" fill="#EF7D00"/>
<path d="M147 118C156.941 118 165 109.941 165 100L129 100C129 109.941 137.059 118 147 118Z" fill="#EF7D00"/>
<circle cx="144.75" cy="97.75" r="15.75" fill="#FFDA44"/>
<circle cx="138.972" cy="91.9729" r="3.64865" fill="#E30613"/>
<circle cx="150.405" cy="103.406" r="3.64865" fill="#E30613"/>
<path fill-rule="evenodd" clip-rule="evenodd" d="M154.129 91.0762L138.075 107.13L135.323 104.378L151.377 88.3242L154.129 91.0762Z" fill="white"/>
</svg>
