<svg width="80" height="65" viewBox="0 0 160 129" fill="none" xmlns="http://www.w3.org/2000/svg"><path d="M71.566 44.415s37.308.338 36.691-14.013c0-.039-.013-.078-.026-.117l-.207-.272c-1.961-1.714-15.584-3.486-16.662.292-2.129 7.529-19.796 14.11-19.796 14.11Z" fill="#F27E00"/><path d="m71.563 44.416 12.65-11.91a12.534 12.534 0 0 1 7.153-2.194l16.862-.026-.207-.273-8.334-10.696s-8.574-1.487-15.28 1c-4.757 1.758-12.844 24.099-12.844 24.099Z" fill="#FCD73F"/><path d="M72.369 44.76S91.626 12.806 78.95 6.037a.219.219 0 0 0-.11-.033l-.338.04c-2.473.81-10.923 11.65-8.21 14.493 5.387 5.66 2.077 24.223 2.077 24.223Z" fill="#F27E00"/><path d="m72.365 44.76-3.83-16.941a12.495 12.495 0 0 1 1.746-7.276l8.555-14.54-.338.04-13.448 1.74s-5.64 6.626-6.913 13.662c-.902 4.991 14.228 23.314 14.228 23.314Z" fill="#FCD73F"/><path d="M73.067 43.694S52.771 12.39 41.14 20.828a.26.26 0 0 0-.084.084l-.11.318c-.351 2.583 5.692 14.922 9.437 13.734 7.45-2.375 22.684 8.73 22.684 8.73Z" fill="#F27E00"/><path d="m73.069 43.694-16.908-3.98a12.54 12.54 0 0 1-5.777-4.75l-9.327-14.052-.11.318-4.323 12.851s3.492 7.97 9.262 12.196c4.076 2.998 27.183-2.583 27.183-2.583Z" fill="#FCD73F"/><path d="M73.068 38.404c3.122-.032 5.692 2.785 5.731 6.303l-11.326.123c-.039-3.518 2.466-6.387 5.595-6.426Z" fill="#FFDA3A"/><path d="M157.5 119.375H55.625V51.25H157.5v68.125Z" fill="#00963D"/><path d="M138 105c-6.627 0-12 5.373-12 12h24c0-6.627-5.373-12-12-12ZM138 129c6.627 0 12-5.373 12-12h-24c0 6.627 5.373 12 12 12Z" fill="#EF7D00"/><circle cx="136.5" cy="115.5" r="10.5" fill="#FFDA44"/><path fill-rule="evenodd" clip-rule="evenodd" d="M144.185 110.814a8.95 8.95 0 0 0-4.685-1.314 9 9 0 0 0-7.685 13.686 9 9 0 1 1 12.37-12.372Z" fill="#fff"/><path d="M118.5 100c-8.008 0-14.5 6.492-14.5 14.5h29c0-8.008-6.492-14.5-14.5-14.5ZM118.5 129c8.008 0 14.5-6.492 14.5-14.5h-29c0 8.008 6.492 14.5 14.5 14.5Z" fill="#EF7D00"/><circle cx="116.688" cy="112.688" r="12.688" fill="#FFDA44"/><path fill-rule="evenodd" clip-rule="evenodd" d="M125.974 107.026a10.818 10.818 0 0 0-5.662-1.588c-6.006 0-10.875 4.868-10.875 10.875 0 2.074.581 4.012 1.588 5.661a10.87 10.87 0 0 1-5.213-9.287c0-6.006 4.869-10.875 10.875-10.875 3.933 0 7.377 2.087 9.287 5.214Z" fill="#fff"/><path d="M104.5 112a8.5 8.5 0 0 0-8.5 8.5h17a8.5 8.5 0 0 0-8.5-8.5ZM104.5 129a8.5 8.5 0 0 0 8.5-8.5H96a8.5 8.5 0 0 0 8.5 8.5Z" fill="#EF7D00"/><circle cx="103.438" cy="119.438" r="7.438" fill="#FFDA44"/><path fill-rule="evenodd" clip-rule="evenodd" d="M108.881 116.118a6.375 6.375 0 0 0-8.761 8.764 6.375 6.375 0 1 1 8.761-8.764Z" fill="#fff"/><path d="M55.625 119.375h-52.5V51.25h52.5v68.125Z" fill="#007020"/><path d="M81.25 119.375H72.5V51.25h8.75v68.125ZM39.375 119.375h-8.75v-57.5h8.75v57.5Z" fill="#FFDA44"/><path d="M57.5 58.75H0v-15h57.5v15Z" fill="#007020"/><path d="M36.875 58.75h-8.75v-15h8.75v15Z" fill="#FFDA44"/><path d="M160 58.75H57.5v-15H160v15Z" fill="#00963D"/><path fill="#007020" d="M55.625 58.75H157.5v3.125H55.625z"/><path d="M83.75 58.75H75v-15h8.75v15Z" fill="#FFDA44"/></svg>