<svg width="90" height="55" viewBox="0 0 224 139" fill="none" xmlns="http://www.w3.org/2000/svg"><g clip-path="url(#a)"><path fill="#fff" d="M0 0h224v139H0z"/><rect y="32" width="224" height="107" rx="53.5" fill="#E7EFF3"/><path d="M148.915 2.091a29.425 29.425 0 0 0 .365 18.846 29.499 29.499 0 0 0 14.808-11.71 11.885 11.885 0 0 1-9.069-.43 11.84 11.84 0 0 1-6.104-6.706Z" fill="#0069B4"/><path d="M143.146 63.462a45.844 45.844 0 0 0 8.391-20.513 45.717 45.717 0 0 0-2.22-22.031 45.912 45.912 0 0 0-18.443 12.314 45.837 45.837 0 0 0-10.509 19.516 20.003 20.003 0 0 1 13.3 1.31 19.937 19.937 0 0 1 9.488 9.39l-.007.014Z" fill="#0069B4"/><path d="M143.166 63.447a19.947 19.947 0 0 0-9.49-9.392 20.009 20.009 0 0 0-13.303-1.31 45.549 45.549 0 0 0 1.254 26.866 45.78 45.78 0 0 0 21.539-16.164Z" fill="#221657"/><path d="M130.944 67.248a3.087 3.087 0 0 0-1.375-4.148 3.1 3.1 0 0 0-4.155 1.381 3.087 3.087 0 0 0 1.375 4.148 3.1 3.1 0 0 0 4.155-1.38Z" fill="#0069B4"/><path d="M140.005 35.977c-.142-6.12-5.14-11.017-11.317-11.017-6.177 0-11.175 4.896-11.317 11.017v.565c.142 6.121 5.14 11.018 11.317 11.018 6.177 0 11.175-4.897 11.317-11.018v-.564Z" fill="#F27E00"/><path d="m129.445 28.914-2.311 1.413.189-2.684h-2.169l.141 2.684-2.31-1.46-1.085 1.883 2.405 1.272-2.405 1.224 1.085 1.836 2.31-1.412-.141 2.683h2.169l-.094-2.683 2.216 1.46 1.084-1.884-2.404-1.271 2.404-1.225-1.084-1.836Z" fill="#187228"/><path d="M66.864 20.782c1.196-.069 2.086-.977 2.101-2.176l.102-4.117 1.719.072c-1.853 9.356-2.07 24.696 12.976 32.818 15.664 8.428 30.29-3.806 37.699-11.94l.98.628a28.987 28.987 0 0 1-15.373 19.984c-13.322 6.678-30.6 1.426-37.956-11.508-4.299-7.544-4.888-16.158-2.248-23.76Z" fill="#FCD73F"/><path d="M83.768 47.465c-15.046-8.122-14.83-23.463-12.977-32.818l.688.046-.163 6.004.171-.01c.768 2.867 2.043 5.62 3.74 8.261 7.805 11.795 23.24 16.298 36.175 10.327 2.92-1.368 5.558-3.147 7.755-5.158l2.311 1.408c-7.41 8.135-22.036 20.37-37.7 11.94Z" fill="#F27E00"/><path d="M64.496 19.093c1.231.528 2.653-.068 3.187-1.211l1.981-4.225 1.763.84c-6.25 8.923-13.547 24.842-1.595 40.16 12.505 15.972 32.851 9.679 44.295 4.565l1.222 1.364c-5.626 7.86-14.738 13.267-25.25 13.79-17.01.812-32.535-12.588-34.292-29.438-1.01-9.959 2.39-19.23 8.69-25.845Z" fill="#FCD73F"/><path d="M69.436 54.543c-11.952-15.319-4.654-31.237 1.597-40.16l.703.301-2.897 6.16.176.076c-.49 3.368-.46 6.79.09 10.354C71.751 47.218 85.89 58.9 101.99 58.653c3.684-.042 7.161-.671 10.433-1.888l1.777 2.551c-11.439 5.2-32.344 11.204-44.763-4.772Z" fill="#F27E00"/><path d="M94.98 30.76c.455.157.957.452 1.47.889 3.157 2.681 4.724 11.153 3.396 12.71-.145.172-.521.343-1.044.456 1.801-.074 3.195-.364 3.535-.763 1.344-1.577-.239-10.03-3.396-12.71-1.556-1.29-2.778-1.28-3.962-.583Z" fill="#9E0040"/><path d="M96.432 31.668c-.513-.436-1.015-.732-1.47-.89a7.521 7.521 0 0 0-1.281 1.042l.003.035-2.412 2.83-2.59 3.04c-1.224 1.745-1.541 3.31.512 5.054 2.016 1.712 6.413 2.206 9.59 2.055.539-.132.898-.285 1.044-.456 1.344-1.577-.24-10.029-3.396-12.71Z" fill="#DC000F"/><path d="M92.832 41.053a1.843 1.843 0 0 0-.21-2.601 1.85 1.85 0 0 0-2.605.21 1.843 1.843 0 0 0 .21 2.602 1.85 1.85 0 0 0 2.605-.21Z" fill="#fff"/><path d="m90.752 28.482-.508 3.367-2.27-2.222-1.437 1.071 4.716 4.006 2.412-2.83-.003-.036.719-2.96a16.081 16.081 0 0 1-3.629-.396Z" fill="#007020"/><path d="m85.627 32.38 2.544 1.9-3.128.978c.48 1.128.791 2.342.941 3.55l.003.035 2.692-1.12 2.59-3.04-4.716-4.006-.926 1.703Z" fill="#00963D"/><path d="M136.01 39.092H54.306v100.077h81.704V39.092Z" fill="#E9D3B7"/><path d="M155.21 39.124h-19.383V139.2h19.383V39.124Z" fill="#BF9D73"/><path d="M145.518 39.124h-9.691V139.2h9.691V39.124Z" fill="#BF9D73"/><path d="M155.188 139.201h-19.361l9.691-14.062 9.67 14.062ZM83.717 5.915 77.4 12.438V41.03h6.295V12.222h.087V5.915h-.065ZM116.181 5.913h-.454v6.308h.129v29.16h6.295V12.438l-5.97-6.524Z" fill="#E9D3B7"/><path d="M115.732 5.913h-31.95V12.2h31.95V5.913Z" fill="#BF9D73"/><path fill-rule="evenodd" clip-rule="evenodd" d="M117.062 85.283h-2.376v-2.767h-2.241v2.767h-2.387v-7.347h2.387v2.694h2.241v-2.694h2.376v7.347Zm-30.56-8.89a.537.537 0 0 0 0 .756.54.54 0 0 0 .758 0 .538.538 0 0 0 .025-.73c.07.096.062.24-.023.326a.257.257 0 0 1-.352 0 .257.257 0 0 1 0-.353.258.258 0 0 1 .327-.021.54.54 0 0 0-.735.021Zm1.92.434s-.311 2.322-1.225 3.793c-.03.046-.064.092-.103.137-.921 1.337-2.513 1.511-3.194 1.511l1.09 3.026h-.675l-1.183-3.295c-.01-.052 0-.083.03-.093.465-.182.576-.246.897-.43l.027-.016h.003c.976-.633 1.501-1.682 1.718-2.197.01-.031.01-.063-.02-.083l-.004-.001c-.06.11-.121.222-.192.333-.85 1.285-2.148 2.197-4.255 2.197H78.42c-.072 0-.072-.073-.041-.104l.768-.777c-1.07 0-1.692-.632-1.92-1.337-.02-.041-.041-.124.041-.124h3.27c.342 0 .58-.104.778-.28l2.604-2.166a22.709 22.709 0 0 0-3.507 3.793.054.054 0 0 0-.011.03.08.08 0 0 1 .009-.02 22.712 22.712 0 0 1 3.507-3.793c.851-.736 1.432-1.13 1.432-1.13.405-.258.851-.393 1.36-.393.857 0 1.437.513 1.606.835l.004-.006h1.07c.072 0 .093.094.03.125l-.996.456-.353-.156c-.032-.008-.046-.041-.03-.076-.028.038-.008.077.028.086l.353.156Zm-.488 3.482c-.498 1.036-.975 1.555-2.075 2.083l1.027 2.891h2.885c-.592-1.772-1.235-3.44-1.837-4.974Zm-7.949 4.974H77.07c.355-1.123.71-2.107 1.035-3.011l.024-.067h2.843l-.986 3.078Zm.478-6.435c.207 0 .394-.03.55-.166l1.473-1.212c.301-.84.633-1.7.965-2.414.177.383.332.766.498 1.18.81-.662 1.308-1.056 1.972-1.243-.415-.901-.706-1.523-.84-1.803h-3.27c-.28.58-1.317 2.736-2.531 5.658h1.183Zm18.73 6.435-.155-.808c-.52.549-1.163.964-2.325.953-.986 0-1.66-.331-2.023-.995-.54.57-1.215.995-2.377.995-1.608 0-2.376-.87-2.376-2.642v-4.85h2.376v4.539c0 .684.343 1.067.955 1.067.394 0 .872-.259 1.069-.508v-5.098h2.376v4.539c0 .684.363 1.067 1.027 1.067.364 0 .8-.259.997-.508v-5.098h2.386v7.347h-1.93Zm6.247-1.74c.581 0 .934-.26 1.152-.509v-3.243a3.922 3.922 0 0 0-.996-.103c-.768 0-1.152.704-1.152 2.113 0 1.14.353 1.741.996 1.741Zm-.726 1.895h-.073c-1.764-.01-2.677-1.088-2.677-3.543 0-2.653 1.297-4.104 3.673-4.104 1.671 0 2.563.208 3.342.456v7.036h-1.941l-.124-.808c-.405.59-1.142.953-2.2.964ZM85.311 82.59a4.896 4.896 0 0 1-.633.125l.923 2.57h.675l-.965-2.695Z" fill="#fff"/><path fill-rule="evenodd" clip-rule="evenodd" d="M86.91 76.393a.256.256 0 0 0 0 .352c.093.093.259.093.352 0a.256.256 0 0 0 0-.352.257.257 0 0 0-.352 0Z" fill="#fff"/><path fill-rule="evenodd" clip-rule="evenodd" d="M89.389 76.237h-1.07l-.259.322c-.041.041-.03.093.01.103l.354.156.996-.456c.062-.031.041-.124-.031-.124Zm-3.985 5.223h-1.318c-.343.197-.446.26-.924.446-.03.01-.041.041-.03.093l1.182 3.295h.675l-1.09-3.026c.706 0 2.387-.186 3.29-1.658-.27.436-.924.85-1.785.85Zm1.857-4.715a.257.257 0 0 1-.352 0 .257.257 0 0 1 0-.352.257.257 0 0 1 .352 0 .54.54 0 0 0-.757 0 .537.537 0 0 0 0 .756.54.54 0 0 0 .757 0 .537.537 0 0 0 0-.756.256.256 0 0 1 0 .352Zm-2.584 5.969c.229-.031.447-.073.633-.124l.965 2.694h-.674l-.924-2.57Zm.914-3.202c-.851 1.285-2.148 2.197-4.255 2.197H78.42c-.073 0-.073-.073-.042-.104l.768-.777c-1.069 0-1.691-.632-1.92-1.337-.02-.041-.04-.124.042-.124h3.269c.342 0 .581-.104.778-.28l2.605-2.166a22.709 22.709 0 0 0-3.508 3.793c-.03.041.01.104.052.104h1.546c1.017 0 2.335-.187 3.695-1.627.03-.031.052-.031.083-.021-.063.114-.125.228-.197.342Z" fill="#00985F"/><path fill-rule="evenodd" clip-rule="evenodd" d="M114.686 85.283h2.376v-7.347h-2.376v2.694h-2.241v-2.694h-2.387v7.347h2.387v-2.767h2.241v2.767Zm-28.184-8.134a.537.537 0 0 1 0-.757.54.54 0 0 1 .758 0 .537.537 0 0 1 0 .757.54.54 0 0 1-.758 0Zm.695 3.471c.913-1.471 1.225-3.793 1.225-3.793l-.353-.155c-.041-.01-.062-.062-.01-.103l.26-.322c-.167-.321-.748-.84-1.61-.84-.508 0-.954.136-1.359.395 0 0-.58.393-1.432 1.13a22.712 22.712 0 0 0-3.507 3.792c-.031.051.01.103.052.103h1.546c1.017 0 2.335-.186 3.694-1.626.031-.032.052-.032.083-.021.031.02.031.052.02.083-.217.518-.746 1.575-1.732 2.207h1.318c.871-.01 1.525-.425 1.805-.85Zm-1.338 1.772c1.1-.528 1.577-1.047 2.075-2.083.602 1.534 1.245 3.202 1.837 4.974h-2.885l-1.027-2.891Zm-8.79 2.891h2.916l.986-3.078h-2.843c-.332.923-.695 1.928-1.059 3.078Zm3.944-6.6c-.156.134-.343.165-.55.165H79.28a111.712 111.712 0 0 1 2.532-5.658h3.268c.135.28.426.902.841 1.803-.664.187-1.162.58-1.972 1.244a25.285 25.285 0 0 0-.498-1.181 30.03 30.03 0 0 0-.965 2.414l-1.473 1.212Zm18.025 5.792.155.808h1.93v-7.347h-2.386v5.098c-.197.25-.633.508-.997.508-.664 0-1.027-.383-1.027-1.067v-4.539h-2.376v5.098c-.197.25-.675.508-1.07.508-.611 0-.954-.383-.954-1.067v-4.539h-2.376v4.85c0 1.772.768 2.642 2.376 2.642 1.162 0 1.837-.425 2.377-.995.363.663 1.037.995 2.023.995 1.162.01 1.806-.404 2.325-.953Zm7.554-1.44c-.218.248-.571.507-1.152.507-.643 0-.996-.6-.996-1.74 0-1.41.384-2.115 1.152-2.115.446 0 .674.032.996.104v3.243Zm-1.951 2.404h.073c1.058-.01 1.795-.374 2.2-.964l.124.808h1.941v-7.036c-.779-.248-1.671-.456-3.342-.456-2.376 0-3.673 1.45-3.673 4.104 0 2.455.913 3.533 2.677 3.544Z" fill="#E0001A"/></g><defs><clipPath id="a"><path fill="#fff" d="M0 0h224v139H0z"/></clipPath></defs></svg>