<svg width="20" height="20" viewBox="0 0 20 20" fill="none" xmlns="http://www.w3.org/2000/svg">
<path d="M10 0C4.47715 0 0 4.47715 0 10H20C20 4.47715 15.5228 0 10 0Z" fill="#9E0942"/>
<path d="M10 20C15.5228 20 20 15.5228 20 10L-8.74228e-07 10C-3.91405e-07 15.5228 4.47715 20 10 20Z" fill="#9E0942"/>
<circle cx="8.75" cy="8.75" r="8.75" fill="#E30613"/>
<path fill-rule="evenodd" clip-rule="evenodd" d="M15.1547 4.84533C14.0173 4.15044 12.6804 3.75 11.25 3.75C7.10786 3.75 3.75 7.10786 3.75 11.25C3.75 12.6804 4.15044 14.0173 4.84533 15.1547C2.68915 13.8373 1.25 11.4617 1.25 8.75C1.25 4.60786 4.60786 1.25 8.75 1.25C11.4617 1.25 13.8373 2.68915 15.1547 4.84533Z" fill="white"/>
</svg>
