<svg width="82" height="42" fill="none" xmlns="http://www.w3.org/2000/svg"><path fill-rule="evenodd" clip-rule="evenodd" d="M30.4 14.9V6.7H29V5.4h1.3v-.5c0-1.3.3-2.6 1.1-3.3.6-.6 1.5-.9 2.3-.9.6 0 1.1.1 1.5.3L35 2.3c-.3-.1-.6-.2-1.1-.2-1.5 0-1.8 1.3-1.8 2.8v.5h2.3v1.3h-2.3v8.2h-1.7ZM.7 1.6 5 14.9h1.9l4.7-13.3H9.8L7.6 8.2c-.6 1.7-1.1 3.4-1.5 4.9-.3-1.6-.8-3.2-1.4-5L2.6 1.6H.7Zm15.2 12.1c-1.8 0-3.3-1-3.3-3.3h6.6c.1-.2.1-.4.1-.8 0-1.8-.8-4.5-3.9-4.5-2.8 0-4.5 2.2-4.5 5.1 0 2.9 1.8 4.8 4.7 4.8 1.5 0 2.6-.3 3.2-.6l-.3-1.2c-.6.3-1.4.5-2.6.5Zm-.7-7.3c1.9 0 2.4 1.7 2.4 2.8h-5.1c.2-1.2.9-2.8 2.7-2.8Zm5.5 1.9c0-1.1 0-2.1-.1-3h1.5l.1 1.9h.1c.4-1.3 1.5-2.1 2.6-2.1.2 0 .3 0 .5.1v1.6c-.1 0-.2-.025-.3-.05-.1-.025-.2-.05-.3-.05-1.2 0-2.1.9-2.3 2.2 0 .09-.02.2-.042.321a2.668 2.668 0 0 0-.058.48v5.1h-1.7V8.3Zm6.5-4.5c.7 0 1.1-.5 1.1-1.1 0-.6-.4-1.1-1-1.1s-1.1.5-1.1 1.1c0 .6.4 1.1 1 1.1Zm.9 1.6h-1.7v9.5h1.7V5.4Zm8.8-1.6c.7 0 1.1-.5 1.1-1.1 0-.6-.4-1.1-1-1.1s-1.1.5-1.1 1.1c0 .6.4 1.1 1 1.1Zm.9 1.6h-1.7v9.5h1.7V5.4Zm3.1 5c0 2.3 1.5 3.3 3.3 3.3 1.2 0 2-.2 2.6-.5l.3 1.2c-.6.3-1.7.6-3.2.6-2.9 0-4.7-1.9-4.7-4.8s1.7-5.1 4.5-5.1c3.1 0 3.9 2.7 3.9 4.5 0 .4 0 .6-.1.8h-6.6ZM46 9.2c0-1.1-.5-2.8-2.4-2.8-1.8 0-2.5 1.6-2.7 2.8H46Zm11.3 5.7c-.1-.7-.1-1.7-.1-2.5V1h-1.7v5.7c-.5-.8-1.4-1.5-2.9-1.5-2.4 0-4.3 1.9-4.3 5.1 0 2.9 1.8 4.8 4.1 4.8 1.5 0 2.7-.8 3.2-1.9l.1 1.7h1.6Zm-1.9-6.4c.1.2.1.5.1.7h-.1v1.7c0 .2 0 .5-.1.7-.3 1.3-1.3 2.1-2.5 2.1-1.9 0-2.8-1.6-2.8-3.5 0-2.1 1.1-3.7 2.9-3.7 1.3 0 2.2.9 2.5 2Zm8.245 5.305c.027-.448.055-.926.055-1.405V.9h1.7v6c.6-1.1 1.7-1.8 3.2-1.8 2.4 0 4 2 4 4.9 0 3.4-2.1 5.1-4.3 5.1-1.4 0-2.5-.5-3.2-1.8H65l-.1 1.6h-1.3c0-.328.022-.7.045-1.095ZM65.4 11.1c0 .2 0 .4.1.6.3 1.2 1.3 2 2.6 2 1.8 0 2.9-1.5 2.9-3.7 0-1.9-1-3.5-2.8-3.5-1.2 0-2.3.8-2.6 2.1 0 .09-.02.18-.042.28-.028.12-.058.255-.058.42v1.8h-.1Zm11.3-.1-2.1-5.6v-.1h-1.9l3.5 8.8c.1.3.1.4.1.5 0 .1 0 .2-.1.4-.4.9-1 1.5-1.5 1.9-.5.4-1.1.7-1.5.8l.4 1.5c.4-.1 1.3-.4 2.1-1.1 1.2-1.1 2.1-2.7 3.3-6l2.6-6.8h-1.8l-1.9 5.6c-.2.7-.4 1.4-.6 2-.075-.378-.266-.93-.44-1.435-.057-.162-.111-.32-.16-.465ZM29.4 21.4l-5.2 13.3L22 23.4c-.2-1.3-1.2-2-2.3-2h-8.6l-.1.5c1.8.4 3.8 1 5 1.7.7.4 1 .8 1.2 1.7l4 15.6h5.3l8.2-19.5h-5.3Zm3.3 19.5 4.2-19.5h5l-4.1 19.5h-5.1Zm15.8-14.1c0-.7.7-1.4 2.1-1.6.7-.1 2.7-.2 5 .9l.9-4.1c-1.2-.4-2.8-.9-4.7-.9-5 0-8.5 2.7-8.5 6.5 0 2.8 2.5 4.4 4.4 5.3 2 1 2.6 1.6 2.6 2.4 0 1.3-1.6 1.9-3 1.9-2.345 0-3.81-.616-4.974-1.105L42.1 36l-.9 4.3c1.2.5 3.4 1 5.6 1 5.3 0 8.8-2.6 8.8-6.7 0-3.123-2.56-4.479-4.607-5.561-1.36-.72-2.493-1.32-2.493-2.239Zm17.3-.1L63.1 34h4.2l-1.5-7.3Zm-2.9-3.9c.4-.8 1.2-1.4 2.2-1.4h4.3l4.1 19.5h-4.7l-.6-2.9h-6.5l-1.1 2.9h-5.3l7.6-18.1Z" fill="#10357F"/></svg>