<svg width="50" height="17" viewBox="0 0 50 17" fill="none" xmlns="http://www.w3.org/2000/svg">
<path fill-rule="evenodd" clip-rule="evenodd" d="M46.2528 16.6431L45.7741 14.2155H40.5889L39.738 16.6431H35.4843L41.5685 1.51759C41.7125 1.13648 41.9731 0.812228 42.3121 0.59242C42.651 0.372613 43.0505 0.268819 43.4519 0.296268H46.7324L50 16.6431H46.2528ZM43.9065 4.74562L41.7593 10.8616H45.1093L43.9065 4.74562ZM30.0833 4.83957C30.0833 6.68657 35.7769 7.08303 35.7769 11.3323C35.7769 15.4237 31.5759 16.9278 28.7926 16.9278C27.2103 16.9545 25.6404 16.6397 24.187 16.0043L24.7944 12.3356C26.4611 13.7345 31.5259 14.13 31.5259 11.9138C31.5259 9.69759 25.8824 9.64404 25.8824 5.4211C25.8824 0.930413 30.6907 0.00878906 32.7148 0.00878906C33.9695 0.0405789 35.2106 0.280497 36.3889 0.719032L35.8028 4.22985C34.0565 3.22649 30.0833 2.9888 30.0833 4.83675V4.83957ZM17.5926 16.6431L20.1426 0.296268H24.2231L21.6731 16.6431H17.5926ZM7.80926 16.6431L4.26481 2.44485C2.9477 1.59973 1.50883 0.968026 0 0.572474L0.075 0.296268H6.50185C6.94856 0.245244 7.39762 0.369198 7.75729 0.64281C8.11696 0.916421 8.3601 1.31904 8.43704 1.76842L9.81481 9.12169L10.2778 11.5427L14.1667 0.301905H18.5583L12.0667 16.6488H7.80926V16.6431Z" fill="#0057A0"/>
<path fill-rule="evenodd" clip-rule="evenodd" d="M9.66389 8.25165L8.82315 2.177C8.76888 1.5516 8.4739 0.973091 8.00212 0.566861C7.53034 0.160631 6.91978 -0.0405873 6.30278 0.00681716H0V0.874892C2.15502 1.36087 4.16058 2.37316 5.84259 3.8239C7.37903 5.04331 8.67539 6.5454 9.66389 8.25165Z" fill="#FAA61A"/>
</svg>
