<svg width="344" height="177" fill="none" xmlns="http://www.w3.org/2000/svg"><g clip-path="url(#a)"><g filter="url(#b)"><path d="M297.257 123.989c9.966-7.047 14.638-14.817 13.601-22.62-1.036-7.804-7.75-15.4-19.545-22.118-11.795-6.716-28.308-12.346-48.076-16.39-19.768-4.044-42.181-6.377-65.254-6.794-23.072-.416-46.092 1.099-67.02 4.409-20.929 3.31-39.12 8.314-52.961 14.568C44.16 81.3 35.095 88.611 31.608 96.333c-3.486 7.722-1.285 15.615 6.407 22.981L170.5 103.5l126.757 20.489Z" fill="#333" fill-opacity=".5"/></g><path d="M69.437 66.325c0-13.39-8.692-24.08-22.552-24.08-2.702 0-16.914 1.645-16.914 5.052 0 1.644 3.524 2.231 4.698 2.231 4.464 0 8.457-2.584 12.92-2.584 9.515 0 14.683 12.098 14.683 20.203 0 9.632-4.816 17.972-15.387 17.972-1.292 0-3.406.234-3.759 1.879l1.527 1.292c7.988 2.232 14.448 8.34 14.448 17.032 0 3.758-3.054 13.977-7.752 13.977-9.985 0-10.924-30.774-10.924-37.94 0-5.637.47-16.326 2.584-21.377.47-1.174 2.349-3.641 2.349-4.698 0-1.527-3.289-1.88-4.228-1.88-9.045 0-9.28 25.254-9.28 31.832 0 12.686 1.057 38.409 18.794 38.409 9.984 0 16.327-7.869 16.327-17.501 0-8.222-5.286-14.683-12.451-18.324 9.75-2.466 14.917-11.863 14.917-21.495ZM115.361 104.852c-1.174 5.168-6.93 14.682-10.336 14.212-4.699-.587 1.527-30.07 1.527-33.123 0-1.527-3.172-1.88-4.229-1.88-1.409 0-3.171.235-3.876 1.527-1.762-1.292-3.993-1.996-6.225-1.996-10.22 0-18.09 17.619-18.09 26.428 0 4.229 1.88 8.457 6.696 8.457 6.46 0 9.984-6.343 13.156-11.041-.118 1.292-.235 2.584-.235 3.876 0 6.226 1.644 12.803 10.101 12.803 7.635 0 13.978-11.276 13.978-18.089 0-1.292-1.527-1.409-2.467-1.174Zm-33.946 8.809c-4.228 0 4.111-27.603 11.16-27.603 1.761 0 4.345 2.584 4.463 4.346-2.115 6.93-11.16 23.257-15.623 23.257Z" fill="#fff"/><path d="M139.154 116.715c-.587 0-.939-1.057-1.174-1.409-2.232-4.934-3.759-12.686-8.457-15.74 4.933-3.641 6.342-10.454 10.336-13.508.235 1.057.118 1.88.118 2.937 0 .822 1.526.94 2.114.94 1.997 0 1.997-1.058 1.997-2.82 0-2.819-1.527-4.346-4.464-4.346-6.93 0-10.571 9.75-14.565 14.213.235-3.994.94-8.457 1.292-12.333.353-3.524-2.114-4.111-3.524-4.111-7.047 0-5.873 11.276-6.46 16.444-.705 6.46-.94 12.921-.94 19.381 0 2.701 2.35 3.406 4.699 3.406 6.108 0 4.346-3.876 4.346-8.104 0-3.054.117-6.226.352-9.28 3.876 6.813 2.114 19.146 12.803 19.146 8.575 0 15.035-13.625 14.213-17.266-.352-.47-1.762-1.058-2.349-1.058-1.762 4.346-6.461 13.508-10.337 13.508Z" fill="#fff"/><path d="M188.544 104.852c-1.174 5.168-6.93 14.682-10.336 14.212-4.699-.587 1.527-30.07 1.527-33.123 0-1.527-3.172-1.88-4.229-1.88-1.409 0-3.171.235-3.876 1.527-1.762-1.292-3.994-1.996-6.225-1.996-10.219 0-18.089 17.619-18.089 26.428 0 4.229 1.879 8.457 6.695 8.457 6.46 0 9.984-6.343 13.156-11.041-.118 1.292-.235 2.584-.235 3.876 0 6.226 1.644 12.803 10.101 12.803 7.635 0 13.978-11.276 13.978-18.089 0-1.292-1.527-1.409-2.467-1.174Zm-33.946 8.809c-4.228 0 4.112-27.603 11.159-27.603 1.762 0 4.346 2.584 4.464 4.346-2.115 6.93-11.159 23.257-15.623 23.257Z" fill="#fff"/><path d="M223.379 102.972c-.47 2.35-3.994 12.686-8.693 12.686-3.876 0-1.761-21.965.823-30.774.117-.353.47-1.058.47-1.292 0-1.527-2.35-1.762-3.524-1.762-5.051 0-5.991 11.98-6.343 15.74-1.762 2.583-4.698 6.695-8.222 6.695.117-6.108 1.057-12.216 1.057-18.324 0-2.232-1.645-2.82-3.641-2.82-1.41 0-2.702.118-3.759 1.058-1.762 3.759-2.937 29.952-2.937 34.298 0 2.584 2.584 3.172 4.699 3.172 6.343 0 4.346-5.756 4.346-10.102 0-2.232-.118-2.819 0-3.524 1.997-.352 2.466 0 7.517-3.524-.47 6.931-.705 18.442 7.165 18.207 6.93-.235 13.391-11.629 13.391-17.384 0-1.762-1.057-2.584-2.349-2.35Z" fill="#fff"/><path d="M245.919 99.096c-1.175 4.464-5.521 15.153-10.806 15.153-3.407 0-3.407-8.927-3.407-11.511 0-5.521 0-17.032 3.524-17.032 1.879 0 1.762 4.698 1.292 6.93 3.524 3.054 5.168.94 5.168-2.936 0-4.699-2.466-8.34-7.517-8.34-9.984 0-10.806 16.444-10.806 23.609 0 7.165 2.349 13.273 10.571 13.273 10.219 0 15.152-13.038 15.152-16.797 0-1.409-1.527-2.819-3.171-2.349Z" fill="#fff"/><path d="M271.461 118.477c-2.349 0-3.054-10.806-3.054-12.685 0-4.816.705-9.632.705-14.448 0-2.232-1.88-3.171-3.877-3.171-4.228 0-4.698 2.819-4.698 6.577 0 6.461-6.225 18.794-8.222 17.384-2.702-1.879 1.997-19.733 1.997-22.317 0-1.175-1.997-1.292-2.819-1.292-4.346 0-5.873 17.267-5.873 21.025 0 4.229 1.762 7.048 6.343 7.048 3.641 0 6.46-2.584 7.752-5.873.587 6.225 3.524 12.451 10.689 12.451 7.047 0 12.098-9.162 13.273-16.562.352-2.349-1.292-3.642-2.702-3.407-1.174 4.581-5.286 15.27-9.514 15.27Z" fill="#fff"/><path d="M306.217 118.477c-2.349 0-3.054-10.806-3.054-12.685 0-4.816.705-9.632.705-14.448 0-2.232-1.879-3.171-3.876-3.171-4.229 0-4.699 2.819-4.699 6.577 0 6.461-6.225 18.794-8.222 17.384-2.701-1.879 1.997-19.733 1.997-22.317 0-1.175-1.997-1.292-2.819-1.292-4.346 0-5.873 17.267-5.873 21.025 0 4.229 1.762 7.048 6.343 7.048 3.641 0 6.46-2.584 7.752-5.873.587 6.225 3.524 12.451 10.689 12.451 7.047 0 12.098-9.162 13.273-16.562.352-2.349-1.292-3.642-2.702-3.407-1.174 4.581-5.285 15.27-9.514 15.27ZM168.956 71.868l4.554 12.85h3.335l-4.799-13.42c-.894.244-1.952.488-3.09.57Z" fill="#fff"/><path d="M192.384 39.66h-5.367c-.814-1.627-3.742-4.23-7.971-4.23-2.521 0-4.717.651-6.75 1.953 0 0-2.928 1.951-7.157 5.611l-12.932 10.817c-.976.813-2.196 1.383-3.904 1.383h-16.266c-.488 0-.325.406-.244.57 1.139 3.496 4.23 6.668 9.516 6.668l-3.822 3.904c-.163.163-.163.57.244.57h14.476c10.492 0 16.917-4.555 21.146-10.899.325-.57.732-1.057 1.057-1.627.163.082.163.244.082.407-1.058 2.603-3.741 7.89-8.621 10.98-1.708.976-2.196 1.301-4.555 2.196-.162.081-.244.244-.162.488l5.855 16.428h3.335l-5.368-15.046c3.497 0 11.874-.894 16.347-8.214 4.555-7.32 6.1-18.95 6.1-18.95l4.961-2.277c.326-.163.244-.65-.162-.65l.162-.082Zm-10.573 4.554c-1.057 1.058-2.765 1.058-3.741 0-1.057-1.057-1.057-2.684 0-3.74 1.058-1.058 2.684-1.058 3.741 0a1.276 1.276 0 0 0-1.789 0 1.276 1.276 0 0 0 0 1.788 1.276 1.276 0 0 0 1.789 0 1.276 1.276 0 0 0 0-1.789c1.058 1.057 1.058 2.684 0 3.741Z" fill="#fff"/></g><defs><clipPath id="a"><path fill="#fff" d="M0 0h344v177H0z"/></clipPath><filter id="b" x="-20" y="6" width="381" height="167.989" filterUnits="userSpaceOnUse" color-interpolation-filters="sRGB"><feFlood flood-opacity="0" result="BackgroundImageFix"/><feBlend in="SourceGraphic" in2="BackgroundImageFix" result="shape"/><feGaussianBlur stdDeviation="25" result="effect1_foregroundBlur_655_4"/></filter></defs></svg>