<svg width="148" height="145" fill="none" xmlns="http://www.w3.org/2000/svg"><path fill-rule="evenodd" clip-rule="evenodd" d="M109.928 38.171c-2.417 2.471-2.417 6.548 0 9.018a6.178 6.178 0 0 0 8.823 0 6.3 6.3 0 0 0 1.324-2.016c-.893.13-1.846-.137-2.496-.802-1.088-1.111-1.088-3.088 0-4.2.548-.56 1.31-.837 2.071-.833a6.178 6.178 0 0 0-9.722-1.166Zm22.287 5.708c-.557 3.874-4.41 28.565-14.189 44.694-3.264 5.064-10.878 10.006-21.03 10.13h-15.35c3.518-2.31 6.537-5.094 9.105-8.023-9.27 7.918-21.529 12.863-38.076 12.863H18.712c-.846 0-.846-.864-.483-1.235l8.944-9.265c-12.45 0-19.701-7.535-22.36-15.936-.242-.494-.484-1.482.483-1.482h38.072c3.989 0 6.769-1.235 9.065-3.335l.702-.598a273.125 273.125 0 0 1 26.698-27.097c9.91-8.77 16.679-13.465 16.679-13.465 4.714-3.088 9.911-4.694 15.833-4.694 10.032 0 16.8 6.176 18.734 10.006l-3.022 3.83c-.604.494-.362 1.111.121 1.235l2.529 1.14c.038-.165.131-.339.288-.5l3.021-3.829h12.449c.846 0 1.088 1.112.363 1.483l-11.603 5.435-3.01-1.357Zm-89.84 47.164-.457.641c-.362.494.12 1.236.604 1.236h18.01c10.8 0 24.514-1.85 38.851-15.192a73.445 73.445 0 0 0 2.447-5.338c.121-.37.121-.741-.242-.988-.362-.124-.604-.124-.967.247-15.833 17.17-31.183 19.394-43.027 19.394h-15.22Zm84.232-6.176c-5.801 12.353-11.361 18.529-24.173 24.83l11.966 34.465H148c-6.889-21.124-14.383-41.013-21.393-59.295Zm-92.582 59.295H.063c4.129-13.384 8.258-25.12 12.05-35.898l.278-.791h33.116l-11.482 36.689Zm5.56-76.714c2.417 0 4.593-.37 6.406-1.976l17.163-14.453c3.505-10.006 7.372-20.26 11.24-28.783 2.054 4.57 3.867 9.141 5.801 14.082 9.428-7.906 15.23-12.6 22.964-14.823C98.325 10.747 94.941 3.335 93.369 0H55.297c-3.263 6.918-15.35 32.612-29.49 67.448h13.778Zm45.119 33.13h15.35c10.031 0 17.646-4.94 20.788-10.13-10.515 17.542-30.095 19.766-38.314 19.766L94.418 144H86.56l-12.977-36.998c-.12-.618 0-.988.363-1.112 5.407-2.162 6.699-2.922 10.434-5.121l.323-.191Zm14.262 13.465c-2.176.618-4.714 1.112-7.373 1.483L101.144 144H109l-10.034-29.957Z" fill="#fff"/></svg>