<svg width="24" height="24" viewBox="0 0 24 24" xmlns="http://www.w3.org/2000/svg">
<path fill-rule="evenodd" clip-rule="evenodd" d="M3.11612 6.11612C3.35054 5.8817 3.66848 5.75 4 5.75H20C20.3315 5.75 20.6495 5.8817 20.8839 6.11612C21.1183 6.35054 21.25 6.66848 21.25 7V17C21.25 17.3315 21.1183 17.6495 20.8839 17.8839C20.6495 18.1183 20.3315 18.25 20 18.25H4C3.66848 18.25 3.35054 18.1183 3.11612 17.8839C2.8817 17.6495 2.75 17.3315 2.75 17V7C2.75 6.66848 2.8817 6.35054 3.11612 6.11612ZM4 4.25C3.27065 4.25 2.57118 4.53973 2.05546 5.05546C1.53973 5.57118 1.25 6.27065 1.25 7V17C1.25 17.7293 1.53973 18.4288 2.05546 18.9445C2.57118 19.4603 3.27065 19.75 4 19.75H20C20.7293 19.75 21.4288 19.4603 21.9445 18.9445C22.4603 18.4288 22.75 17.7293 22.75 17V7C22.75 6.27066 22.4603 5.57118 21.9445 5.05546C21.4288 4.53973 20.7293 4.25 20 4.25H4ZM7.46852 8.41435C7.14507 8.15559 6.67311 8.20803 6.41435 8.53148C6.15559 8.85493 6.20803 9.32689 6.53148 9.58565L11.5315 13.5857C11.8054 13.8048 12.1946 13.8048 12.4685 13.5857L17.4685 9.58565C17.792 9.32689 17.8444 8.85493 17.5857 8.53148C17.3269 8.20803 16.8549 8.15559 16.5315 8.41435L12 12.0395L7.46852 8.41435Z"/>
</svg>
