<svg width="20" height="20" viewBox="0 0 20 20" xmlns="http://www.w3.org/2000/svg">
<path fill-rule="evenodd" clip-rule="evenodd" d="M10.0002 2.25C6.83896 2.25 4.25024 4.76537 4.25024 7.9C4.25024 8.7575 4.63076 9.7959 5.10491 10.7872C5.59292 11.8074 6.23666 12.8901 6.8701 13.8715C7.50522 14.8556 8.13903 15.7517 8.61337 16.4011C8.85079 16.7261 9.04888 16.9901 9.18801 17.1734C9.25759 17.2651 9.31246 17.3366 9.35017 17.3855L9.39358 17.4416L9.40507 17.4564L9.40816 17.4604L9.40903 17.4615L9.40929 17.4618C9.40938 17.4619 9.40944 17.462 10.0002 17L9.40944 17.462C9.55159 17.6438 9.76949 17.75 10.0002 17.75C10.231 17.75 10.4489 17.6438 10.591 17.462L10.0002 17C10.591 17.462 10.5911 17.4619 10.5912 17.4618L10.5915 17.4615L10.5923 17.4604L10.5954 17.4564L10.6069 17.4416L10.6503 17.3855C10.688 17.3366 10.7429 17.2651 10.8125 17.1734C10.9516 16.9901 11.1497 16.7261 11.3871 16.4011C11.8615 15.7517 12.4953 14.8556 13.1304 13.8715C13.7638 12.8901 14.4076 11.8074 14.8956 10.7872C15.3697 9.7959 15.7502 8.7575 15.7502 7.9C15.7502 4.76537 13.1615 2.25 10.0002 2.25ZM10.1759 15.5163C10.1145 15.6003 10.0558 15.6801 10.0002 15.7554C9.94468 15.6801 9.88602 15.6003 9.82462 15.5163C9.36146 14.8822 8.74527 14.0108 8.13039 13.0581C7.51383 12.1028 6.90757 11.0796 6.45808 10.1399C5.99473 9.17125 5.75024 8.3956 5.75024 7.9C5.75024 5.62223 7.63867 3.75 10.0002 3.75C12.3618 3.75 14.2502 5.62223 14.2502 7.9C14.2502 8.3956 14.0058 9.17125 13.5424 10.1399C13.0929 11.0796 12.4867 12.1028 11.8701 13.0581C11.2552 14.0108 10.639 14.8822 10.1759 15.5163ZM10.0002 4.44714C8.21371 4.44714 6.75024 5.88071 6.75024 7.66773C6.75024 9.45476 8.21371 10.8883 10.0002 10.8883C11.7868 10.8883 13.2502 9.45476 13.2502 7.66773C13.2502 5.88071 11.7868 4.44714 10.0002 4.44714ZM8.25024 7.66773C8.25024 6.72582 9.02535 5.94714 10.0002 5.94714C10.9751 5.94714 11.7502 6.72582 11.7502 7.66773C11.7502 8.60964 10.9751 9.38832 10.0002 9.38832C9.02535 9.38832 8.25024 8.60964 8.25024 7.66773Z"/>
</svg>
