<svg width="40" height="40" viewBox="0 0 40 40" xmlns="http://www.w3.org/2000/svg">
<g clip-path="url(#clip0_17850_172037)">
<path fill-rule="evenodd" clip-rule="evenodd" d="M8 0C3.58172 0 0 3.58172 0 8V32C0 36.4183 3.58172 40 8 40H32C36.4183 40 40 36.4183 40 32V8C40 3.58172 36.4183 0 32 0H8ZM30.0753 20.1629V20.1596L30.072 20.1579C30.0253 13.3027 25.3929 9.32515 19.6291 9.28516C19.5628 9.28516 19.4972 9.29822 19.4359 9.32359C19.3746 9.34896 19.319 9.38615 19.2721 9.43304C19.2252 9.47992 19.188 9.53558 19.1627 9.59684C19.1373 9.65809 19.1242 9.72375 19.1242 9.79005C19.1242 9.85636 19.1373 9.92201 19.1627 9.98327C19.188 10.0445 19.2252 10.1002 19.2721 10.1471C19.319 10.194 19.3746 10.2311 19.4359 10.2565C19.4972 10.2819 19.5628 10.2949 19.6291 10.2949C24.7764 10.3316 29.0238 13.7992 29.0638 20.1679C29.0719 20.297 29.129 20.4181 29.2234 20.5065C29.3179 20.5948 29.4426 20.6437 29.5719 20.643C29.7013 20.6424 29.8255 20.5923 29.9191 20.503C30.0126 20.4138 30.0686 20.2921 30.0753 20.1629ZM26.4094 19.1115C26.4877 15.7988 24.4181 13.206 20.4889 12.9161C20.4208 12.9139 20.3537 12.8981 20.2918 12.8694C20.2299 12.8407 20.1745 12.7998 20.1288 12.7492C20.0831 12.6986 20.048 12.6392 20.0258 12.5748C20.0036 12.5103 19.9946 12.4419 19.9995 12.3739C20.0043 12.3059 20.0228 12.2395 20.0539 12.1788C20.085 12.1181 20.1281 12.0643 20.1805 12.0206C20.2329 11.977 20.2935 11.9443 20.3589 11.9247C20.4242 11.905 20.4928 11.8988 20.5606 11.9063H20.5872C21.5197 11.9063 22.4424 12.0968 23.2985 12.4663C24.1547 12.8358 24.9263 13.3764 25.5659 14.0549C26.2055 14.7334 26.6997 15.5355 27.0182 16.4119C27.3366 17.2883 27.4725 18.2206 27.4175 19.1515L27.4192 19.1331C27.4102 19.2623 27.3522 19.3831 27.257 19.4708C27.1618 19.5585 27.0366 19.6064 26.9071 19.6047C26.7777 19.603 26.6538 19.5518 26.5609 19.4616C26.4681 19.3715 26.4132 19.2491 26.4077 19.1198V19.1065L26.4094 19.1115ZM24.8247 18.25V18.2267L24.8238 18.2276C24.8536 17.767 24.7891 17.3051 24.6343 16.8702C24.4783 16.4319 24.2339 16.0304 23.9163 15.6905C23.5986 15.3507 23.2144 15.0797 22.7877 14.8946C22.3609 14.7094 21.9006 14.6139 21.4354 14.6141L21.3204 14.6157H21.2938C21.1639 14.6189 21.0403 14.6719 20.9484 14.7636C20.8564 14.8554 20.8033 14.979 20.7998 15.1088C20.7964 15.2386 20.843 15.3648 20.93 15.4613C21.0163 15.5571 21.1358 15.6163 21.2642 15.627L21.2604 15.6272H21.2671L21.2642 15.627C21.6119 15.6062 21.9599 15.6608 22.2845 15.787C22.6103 15.9138 22.9047 16.1097 23.1474 16.3613C23.3901 16.6128 23.5753 16.9141 23.6902 17.2442C23.8052 17.5743 23.8472 17.9271 23.8133 18.275C23.8232 18.4044 23.8824 18.5251 23.9787 18.6121C24.075 18.6992 24.2011 18.7459 24.3308 18.7427C24.4606 18.7395 24.5842 18.6866 24.6761 18.5949C24.768 18.5032 24.8212 18.3797 24.8247 18.25ZM29.2005 27.8214V27.8363C28.3573 29.321 26.7793 30.9607 25.1546 30.4375L25.1396 30.4142C22.243 29.3482 19.5279 27.8425 17.0896 25.9501L17.158 26.0001C15.9447 25.0367 14.844 23.9394 13.877 22.7291L13.8453 22.6874C12.9697 21.5851 12.1882 20.4112 11.5091 19.1781L11.4425 19.0465C10.639 17.722 9.97294 16.3189 9.45454 14.859L9.40455 14.6957C8.88132 13.071 10.5127 11.493 12.0057 10.6499H12.0207C12.3144 10.4619 12.6671 10.3887 13.0114 10.4443C13.3557 10.4999 13.6674 10.6805 13.887 10.9515L13.8886 10.9548C13.8886 10.9548 14.8568 12.1096 15.2717 12.6811C15.6616 13.2127 16.1865 14.0642 16.4581 14.5391C16.6626 14.8636 16.7458 15.2499 16.6931 15.6298C16.6403 16.0098 16.455 16.3588 16.1698 16.6153L16.1682 16.617L15.2317 17.3668C15.0857 17.5078 14.9728 17.6794 14.9014 17.8693C14.8299 18.0593 14.8016 18.2627 14.8184 18.4649V18.4599C15.2821 20.0052 16.119 21.4125 17.2553 22.5578C18.3916 23.703 19.7922 24.551 21.3338 25.0269L21.4037 25.0453C21.605 25.0611 21.8073 25.0325 21.9962 24.9613C22.1851 24.8902 22.356 24.7783 22.4969 24.6337L23.2467 23.6972C23.5043 23.4107 23.8551 23.2249 24.2368 23.1727C24.6185 23.1206 25.0063 23.2054 25.3313 23.4123L25.3246 23.4089C26.6793 24.1804 27.8508 25.0286 28.9189 25.9901L28.9005 25.9734C29.1715 26.1894 29.3518 26.499 29.4061 26.8413C29.4604 27.1836 29.3846 27.5337 29.1938 27.823L29.1971 27.818L29.2005 27.8214Z" fill="#7E529F"/>
</g>
<defs>
<clipPath id="clip0_17850_172037">
<rect width="40" height="40" fill="white"/>
</clipPath>
</defs>
</svg>
