<svg width="229" height="121" viewBox="0 0 229 121" xmlns="http://www.w3.org/2000/svg">
<path fill-rule="evenodd" clip-rule="evenodd" d="M227.794 68.9595H214.262V53.1821H201.499V68.9595H187.908V27.0638H201.499V42.4275H214.262V27.0638H227.794V68.9595ZM53.0418 21.387C53.1857 21.822 53.4291 22.2298 53.7722 22.5729C54.954 23.7547 56.904 23.7547 58.0858 22.5729C58.9252 21.7335 59.1684 20.5067 58.8155 19.4428C59.1673 20.5061 58.9238 21.7318 58.0851 22.5706C56.9032 23.7524 54.9533 23.7524 53.7715 22.5706C53.429 22.2281 53.1858 21.8211 53.0418 21.387ZM58.0337 18.2083C57.4942 17.7256 56.5911 17.7418 56.076 18.2569C55.813 18.5199 55.6801 18.884 55.6772 19.2493C55.6738 19.6232 55.8068 19.9985 56.076 20.2677C56.6078 20.7995 57.5532 20.7995 58.0851 20.2677C58.1397 20.213 58.1888 20.154 58.2322 20.0914C58.4021 19.851 58.486 19.5641 58.4839 19.2729C58.4862 18.9076 58.3584 18.5413 58.1005 18.2743C58.0996 18.2733 58.0988 18.2724 58.098 18.2714L58.0858 18.2592C58.0686 18.242 58.0513 18.225 58.0337 18.2083ZM64.704 20.741C64.704 20.741 62.9313 33.9775 57.7313 42.3684C57.5383 42.6614 57.3143 42.9535 57.0607 43.2408C51.8042 50.7781 42.8037 51.7616 38.9397 51.7616L45.1442 69.0163H41.3033L34.567 50.2253C34.5079 49.9298 34.567 49.7525 34.7443 49.6934C37.3877 48.6591 38.0192 48.2953 39.8454 47.2435L40.0034 47.1525H40.04C45.5927 43.5413 48.5793 37.5653 49.8131 34.6275C49.8722 34.4502 49.8722 34.2729 49.695 34.1548C49.6851 34.1515 49.6754 34.1483 49.6658 34.1454C49.3207 34.7781 48.9741 35.4107 48.5715 36.0434C43.7261 43.3707 36.3397 48.5707 24.3444 48.5707H7.73991C7.32627 48.5707 7.32627 48.1571 7.50355 47.9798L11.8762 43.5479C5.78992 43.5479 2.24449 39.9434 0.944494 35.9252C0.826313 35.6888 0.708131 35.2161 1.18086 35.2161H19.7944C21.7444 35.2161 23.1035 34.6252 24.2262 33.6206L39.0579 21.2706C38.0704 22.1215 37.0195 23.0545 35.9203 24.0668C37.0298 23.0845 38.0825 22.1731 39.0587 21.3319C43.9041 17.1365 47.2132 14.891 47.2132 14.891C49.5177 13.4137 52.0586 12.6455 54.954 12.6455C59.8585 12.6455 63.1676 15.6001 64.1131 17.4319H70.1994C70.613 17.4319 70.7312 17.9637 70.3767 18.141L64.704 20.741ZM61.9267 40.5957C59.0904 46.5048 56.3722 49.4594 50.1086 52.473L55.9586 68.9595H72.3857C69.0176 58.8549 65.354 49.3412 61.9267 40.5957ZM16.6633 68.9595H0.0588989C2.07759 62.5573 4.09628 56.9432 5.95013 51.7877L5.95015 51.7876L6.08614 51.4094H22.2769L16.6633 68.9595ZM19.3815 32.2638C20.5633 32.2638 21.627 32.0866 22.5133 31.3184L30.9042 24.4047C32.6178 19.6183 34.5087 14.7137 36.3996 10.6364C37.4041 12.8228 38.2905 15.0092 39.2359 17.3728C43.845 13.591 46.6813 11.3455 50.4631 10.2819C48.0995 5.14094 46.445 1.59546 45.6768 0H27.0633C25.4678 3.30911 19.5588 15.6001 12.6452 32.2638H19.3815ZM126.04 68.9595L125.154 64.3504C122.199 67.4822 118.535 69.8459 111.917 69.7868C106.304 69.7868 102.463 67.8959 100.395 64.114C97.322 67.364 93.4811 69.7868 86.8629 69.7868C77.7039 69.7868 73.3312 64.8231 73.3312 54.7185V27.0638H86.8629V52.9458C86.8629 56.8458 88.8129 59.0322 92.2993 59.0322C94.5447 59.0322 97.2629 57.5549 98.3856 56.1367V27.0638H111.917V52.9458C111.917 56.8458 113.985 59.0322 117.767 59.0322C119.835 59.0322 122.317 57.5549 123.44 56.1367V27.0638H137.031V68.9595H126.04ZM161.612 59.0322C164.922 59.0322 166.931 57.5549 168.172 56.1367V37.6411C166.34 37.2275 165.04 37.0502 162.499 37.0502C158.126 37.0502 155.94 41.0684 155.94 49.1048C155.94 55.6049 157.949 59.0322 161.612 59.0322ZM157.476 69.8459H157.063C147.017 69.7868 141.817 63.6413 141.817 49.6367C141.817 34.5093 149.203 26.2365 162.735 26.2365C172.249 26.2365 177.331 27.4183 181.762 28.8365V68.9595H170.712L170.003 64.3504C167.699 67.7186 163.503 69.7868 157.476 69.8459ZM46.976 53.5935C45.9124 53.8889 44.6715 54.1253 43.3715 54.3026L48.6306 68.9572H52.4715L46.976 53.5935ZM82.3884 98.1608C82.248 97.8999 82.0473 97.7695 81.7865 97.7695C81.626 97.7695 81.4856 97.7896 81.3652 97.8297C80.0612 98.1708 78.9377 98.3714 77.9947 98.4316C77.8342 96.947 77.3327 95.7031 76.4901 94.7C75.6474 93.6768 74.554 93.1151 73.2099 93.0147C74.6544 91.2292 75.6876 89.5239 76.3095 87.8988C76.9314 86.2738 77.2424 84.6387 77.2424 82.9936C77.2424 81.7297 76.9615 80.7065 76.3998 79.9241C75.838 79.1216 75.0957 78.7203 74.1729 78.7203C72.4676 78.7203 70.993 79.7936 69.7491 81.9403C68.5253 84.0669 67.5924 86.655 66.9504 89.7045C66.3084 92.7339 65.9874 95.5426 65.9874 98.1307C65.9874 101.06 66.4488 103.297 67.3717 104.842C68.2946 106.386 69.7692 107.159 71.7955 107.159C73.1396 107.159 74.3635 106.647 75.4669 105.624C76.5904 104.601 77.3527 103.257 77.754 101.591C79.1985 101.531 80.5226 101.29 81.7263 100.869C82.0273 100.769 82.248 100.588 82.3884 100.327C82.5288 100.047 82.5991 99.6554 82.5991 99.1538C82.5991 98.7526 82.5288 98.4216 82.3884 98.1608ZM72.1566 83.5052C72.6381 82.3014 73.0795 81.6996 73.4807 81.6996C73.7415 81.6996 73.9421 81.8701 74.0826 82.2112C74.2431 82.5522 74.3233 83.0437 74.3233 83.6857C74.3233 85.1302 73.9221 86.7854 73.1196 88.6512C72.3371 90.4969 71.2839 92.6336 69.9598 95.0611C70.1604 92.6336 70.4613 90.3966 70.8626 88.3502C71.2638 86.3039 71.6952 84.6889 72.1566 83.5052ZM73.571 103.186C73.0895 103.708 72.5378 103.969 71.9158 103.969C71.334 103.969 70.8224 103.668 70.3811 103.066C69.9598 102.464 69.7491 101.591 69.7491 100.448C69.7491 99.0836 70.0199 98.0002 70.5616 97.1978C71.1234 96.3752 71.8155 95.9639 72.6381 95.9639H72.7284C72.6481 96.4454 72.608 96.8266 72.608 97.1075C72.608 97.8698 72.7685 98.5921 73.0895 99.2742C73.4306 99.9563 73.912 100.508 74.534 100.929C74.3735 101.912 74.0525 102.665 73.571 103.186ZM15.4535 100.749C15.4535 100.868 15.4556 100.985 15.4598 101.101C14.2695 101.901 13.0384 102.797 11.7666 103.788C11.8669 103.146 11.9572 102.544 12.0374 101.983C12.1377 101.401 12.228 100.869 12.3083 100.388C12.7296 97.8598 12.9804 96.2849 13.0606 95.663C13.0807 95.5225 13.0907 95.332 13.0907 95.0912C13.0907 94.6498 12.9804 94.3589 12.7597 94.2185C12.559 94.058 12.208 93.9777 11.7064 93.9777C11.2048 93.9777 10.7635 94.0179 10.3823 94.0981C10.282 93.6567 10.1516 93.3558 9.99106 93.1953C9.85062 93.0147 9.55972 92.9245 9.11835 92.9245C7.73404 92.9245 6.41996 93.3658 5.17609 94.2486C3.95229 95.1113 2.96923 96.2649 2.22692 97.7093C1.48462 99.1338 1.11346 100.648 1.11346 102.253C1.11346 103.718 1.48462 104.902 2.22692 105.805C2.96923 106.707 3.96232 107.159 5.20619 107.159C5.74787 107.159 6.28955 107.018 6.83124 106.737C7.39298 106.436 7.84439 106.015 8.18545 105.473L8.00489 106.647C4.91528 109.035 2.80873 111.041 1.68524 112.666C0.561746 114.311 0 115.846 0 117.27C0 118.293 0.320998 119.116 0.962994 119.738C1.60499 120.38 2.43758 120.701 3.46076 120.701C5.36668 120.701 6.93155 119.507 8.15535 117.12C9.39922 114.752 10.4023 111.492 11.1647 107.339L13.0907 106.045C13.7714 105.569 14.7841 104.876 16.1289 103.966C16.4024 104.519 16.7591 105.011 17.1989 105.443C18.3626 106.587 19.9976 107.159 22.1042 107.159C23.649 107.159 25.0935 106.778 26.4377 106.015C26.6176 105.915 26.7921 105.813 26.9612 105.71C27.0281 105.815 27.1002 105.917 27.1773 106.015C27.7591 106.757 28.5616 107.129 29.5848 107.129C31.0895 107.129 32.4236 106.406 33.5872 104.962C34.7709 103.517 35.764 101.461 36.5665 98.7927H36.6267C36.5464 99.6755 36.5063 100.588 36.5063 101.531C36.5063 103.417 36.7571 104.831 37.2586 105.774C37.7602 106.697 38.6028 107.159 39.7865 107.159C40.6893 107.159 41.4918 106.988 42.194 106.647C42.9162 106.286 43.5181 105.875 43.9996 105.413C44.2426 105.18 44.5044 104.911 44.785 104.608C45.1955 105.28 45.7245 105.839 46.3718 106.286C47.2345 106.868 48.2677 107.159 49.4715 107.159C50.8959 107.159 52.1698 106.657 53.2933 105.654C54.4168 104.631 55.1692 103.277 55.5504 101.591C56.9948 101.531 58.319 101.29 59.5227 100.869C60.1045 100.689 60.3954 100.117 60.3954 99.1538C60.3954 98.7526 60.3252 98.4216 60.1848 98.1608C60.0443 97.8999 59.8437 97.7695 59.5829 97.7695C59.4625 97.7695 59.3221 97.7896 59.1616 97.8297C57.8575 98.1708 56.734 98.3714 55.7911 98.4316C55.6306 96.8868 55.0789 95.5928 54.136 94.5495C53.2131 93.4862 51.9893 92.9546 50.4645 92.9546C49.2207 92.9546 48.0871 93.2956 47.064 93.9777C46.0408 94.6398 45.2383 95.5727 44.6565 96.7764C44.0747 97.9601 43.7838 99.3143 43.7838 100.839C43.7838 101.137 43.7993 101.43 43.8305 101.717C43.1278 102.568 42.6024 103.158 42.2542 103.487C41.9131 103.828 41.562 103.999 41.2009 103.999C40.3382 103.999 39.9069 102.946 39.9069 100.839C39.9069 100.097 39.947 98.883 40.0272 97.1978L40.0874 94.9708C40.0874 94.2887 39.9069 93.7972 39.5458 93.4962C39.1846 93.1953 38.6229 93.0448 37.8605 93.0448C37.0781 93.0448 36.4762 93.2053 36.0549 93.5263C35.6336 93.8273 35.2624 94.3991 34.9414 95.2417C34.6204 96.1044 34.2092 97.0874 33.7076 98.1908C33.2261 99.2943 32.7546 100.287 32.2932 101.17C31.6913 102.334 31.26 103.066 30.9992 103.367C30.7584 103.668 30.5377 103.818 30.3371 103.818C30.0623 103.818 29.8921 103.609 29.8264 103.191C30.055 102.786 30.1693 102.273 30.1693 101.652C30.1693 101.323 30.1204 101.049 30.0227 100.83L30.0362 100.749C30.0763 100.468 29.9961 100.247 29.7954 100.087C29.6149 99.9262 29.334 99.846 28.9528 99.846C28.1102 99.846 27.4582 100.157 26.9967 100.779C26.6149 101.294 26.3911 101.939 26.3252 102.714C26.0612 102.893 25.7877 103.06 25.5048 103.216C24.3612 103.838 23.338 104.149 22.4352 104.149C21.0308 104.149 20.0779 103.688 19.5763 102.765C21.9437 102.183 23.6189 101.401 24.602 100.418C25.6051 99.4147 26.1066 98.2209 26.1066 96.8366C26.1066 95.653 25.7555 94.7201 25.0534 94.0379C24.3512 93.3357 23.4183 92.9847 22.2547 92.9847C20.9506 92.9847 19.777 93.3357 18.7337 94.0379C17.7105 94.7401 16.908 95.6931 16.3262 96.8968C15.7444 98.0805 15.4535 99.3645 15.4535 100.749ZM6.28955 104.119C6.75099 104.119 7.19236 103.838 7.61367 103.277C8.03498 102.715 8.33592 101.912 8.51648 100.869L9.47947 95.7232C8.65691 95.7432 7.89454 96.0642 7.19236 96.6862C6.49018 97.288 5.92843 98.0905 5.50712 99.0936C5.08581 100.097 4.87516 101.16 4.87516 102.284C4.87516 102.905 4.99553 103.367 5.23628 103.668C5.49709 103.969 5.84818 104.119 6.28955 104.119ZM3.79179 117.782C4.29335 117.782 4.85509 117.18 5.47703 115.976C6.11902 114.772 6.73093 112.856 7.31273 110.228C5.76793 111.552 4.65447 112.746 3.97235 113.809C3.29023 114.873 2.94917 115.806 2.94917 116.608C2.94917 116.949 3.00936 117.23 3.12973 117.451C3.27017 117.671 3.49085 117.782 3.79179 117.782ZM21.7431 95.9338C21.0008 95.9338 20.3688 96.3652 19.8472 97.2278C19.3456 98.0905 19.0948 99.1338 19.0948 100.358V100.418C20.2785 100.137 21.2114 99.7156 21.8935 99.1538C22.5757 98.5921 22.9167 97.9401 22.9167 97.1978C22.9167 96.8166 22.8064 96.5156 22.5857 96.295C22.3851 96.0542 22.1042 95.9338 21.7431 95.9338ZM49.7122 103.969C50.3542 103.969 50.9059 103.708 51.3673 103.186C51.8488 102.665 52.1698 101.912 52.3303 100.929C51.7084 100.508 51.2269 99.9563 50.8859 99.2742C50.5649 98.5921 50.4044 97.8698 50.4044 97.1075C50.4044 96.7865 50.4344 96.4655 50.4946 96.1445H50.3442C49.5417 96.1445 48.8696 96.5357 48.3279 97.3181C47.8063 98.0805 47.5455 99.1639 47.5455 100.568C47.5455 101.672 47.7561 102.514 48.1774 103.096C48.6188 103.678 49.1304 103.969 49.7122 103.969ZM101.614 101.316C101.606 101.577 101.602 101.839 101.602 102.103C101.602 103.868 101.753 105.152 102.054 105.955C102.375 106.757 102.917 107.159 103.679 107.159C104.301 107.159 104.752 106.998 105.033 106.677C105.334 106.336 105.595 105.694 105.816 104.751C106.076 103.668 106.417 102.564 106.839 101.441C107.28 100.317 107.731 99.3946 108.193 98.6723C108.654 97.9501 109.036 97.589 109.336 97.589C109.557 97.589 109.667 97.7495 109.667 98.0705C109.667 98.4717 109.587 99.3143 109.427 100.598C109.226 102.043 109.126 103.146 109.126 103.909C109.126 104.811 109.286 105.584 109.607 106.226C109.948 106.848 110.45 107.159 111.112 107.159C111.754 107.159 112.215 106.998 112.496 106.677C112.797 106.356 113.058 105.714 113.279 104.751C113.58 103.527 113.971 102.364 114.452 101.26C114.934 100.157 115.415 99.2742 115.897 98.6122C116.378 97.93 116.75 97.589 117.01 97.589C117.231 97.589 117.341 97.7495 117.341 98.0705C117.341 98.552 117.211 99.4247 116.95 100.689C116.669 102.133 116.529 103.136 116.529 103.698C116.529 104.821 116.79 105.684 117.311 106.286C117.833 106.868 118.605 107.159 119.628 107.159C120.892 107.159 122.016 106.818 122.999 106.136C123.422 105.848 123.833 105.526 124.231 105.171C124.291 105.47 124.364 105.731 124.448 105.955C124.769 106.757 125.31 107.159 126.073 107.159C126.534 107.159 126.865 107.048 127.066 106.828C127.266 106.587 127.387 106.216 127.427 105.714C127.467 105.213 127.497 104.34 127.517 103.096V102.464C127.517 102.243 127.537 101.852 127.577 101.29C128.26 101.331 129.483 101.351 131.249 101.351C131.148 102.113 131.098 102.765 131.098 103.307C131.098 104.591 131.309 105.554 131.73 106.196C132.152 106.838 132.884 107.159 133.927 107.159C135.171 107.159 136.274 106.818 137.237 106.136C137.796 105.748 138.345 105.299 138.884 104.788C139.276 105.381 139.767 105.88 140.355 106.286C141.218 106.868 142.251 107.159 143.455 107.159C144.879 107.159 146.153 106.657 147.277 105.654C148.4 104.631 149.153 103.277 149.534 101.591C150.336 101.558 151.102 101.469 151.83 101.324C151.807 101.8 151.796 102.29 151.796 102.795C151.796 104.039 152.077 105.082 152.639 105.925C153.221 106.747 153.963 107.159 154.866 107.159C155.768 107.159 156.561 106.778 157.243 106.015C157.925 105.253 158.567 104.149 159.169 102.705C159.109 103.126 159.079 103.527 159.079 103.909C159.079 106.075 159.992 107.159 161.817 107.159C162.6 107.159 163.332 106.798 164.014 106.075C164.696 105.333 165.208 104.28 165.549 102.916C165.529 104.24 165.749 105.283 166.211 106.045C166.672 106.788 167.385 107.159 168.348 107.159C169.591 107.159 170.695 106.818 171.658 106.136C172.233 105.736 172.798 105.272 173.353 104.742C173.533 104.991 173.734 105.225 173.956 105.443C175.119 106.587 176.754 107.159 178.861 107.159C180.406 107.159 181.85 106.778 183.195 106.015C183.765 105.697 184.281 105.366 184.742 105.022C184.808 105.384 184.89 105.695 184.987 105.955C185.308 106.757 185.85 107.159 186.612 107.159C187.074 107.159 187.405 107.048 187.606 106.828C187.806 106.587 187.927 106.216 187.967 105.714C188.007 105.213 188.037 104.34 188.057 103.096V102.464C188.057 102.243 188.077 101.852 188.117 101.29C188.799 101.331 190.023 101.351 191.789 101.351C191.688 102.113 191.638 102.765 191.638 103.307C191.638 104.591 191.849 105.554 192.27 106.196C192.691 106.838 193.424 107.159 194.467 107.159C195.711 107.159 196.814 106.818 197.777 106.136C198.24 105.815 198.696 105.451 199.145 105.046C199.268 105.36 199.42 105.653 199.601 105.925C200.183 106.747 200.925 107.159 201.828 107.159C202.61 107.159 203.343 106.798 204.025 106.075C204.707 105.333 205.219 104.28 205.56 102.916C205.56 104.26 205.78 105.303 206.222 106.045C206.683 106.788 207.395 107.159 208.358 107.159C209.622 107.159 210.746 106.818 211.729 106.136C212.187 105.824 212.631 105.473 213.06 105.081C213.18 105.382 213.327 105.663 213.502 105.925C214.084 106.747 214.826 107.159 215.729 107.159C216.511 107.159 217.243 106.798 217.926 106.075C218.608 105.333 219.119 104.28 219.46 102.916C219.46 104.26 219.681 105.303 220.122 106.045C220.584 106.788 221.296 107.159 222.259 107.159C223.523 107.159 224.646 106.818 225.629 106.136C226.633 105.453 227.566 104.581 228.428 103.517C228.809 103.076 229 102.454 229 101.652C229 101.23 228.92 100.899 228.759 100.659C228.619 100.418 228.418 100.297 228.157 100.297C227.856 100.297 227.586 100.438 227.345 100.719C226.422 101.822 225.68 102.625 225.118 103.126C224.576 103.608 224.105 103.848 223.703 103.848C223.443 103.848 223.232 103.748 223.072 103.547C222.911 103.327 222.831 103.026 222.831 102.645C222.831 102.043 223.112 100.458 223.673 97.8899C224.175 95.6429 224.426 94.2686 224.426 93.7671C224.426 93.4661 224.335 93.2655 224.155 93.1652C223.974 93.0448 223.653 92.9847 223.192 92.9847C222.53 92.9847 222.028 93.1151 221.687 93.3759C221.366 93.6367 221.125 94.068 220.965 94.6699C220.483 96.4554 219.982 97.9601 219.46 99.1839C218.959 100.408 218.477 101.321 218.016 101.922C217.574 102.524 217.203 102.825 216.902 102.825C216.682 102.825 216.521 102.745 216.421 102.585C216.321 102.404 216.27 102.103 216.27 101.682C216.27 100.98 216.471 99.5751 216.872 97.4686C216.993 96.8667 217.153 96.1946 217.354 95.4523C217.574 94.5295 217.685 93.9878 217.685 93.8273C217.685 93.5464 217.595 93.3357 217.414 93.1953C217.253 93.0549 216.953 92.9847 216.511 92.9847C215.729 92.9847 215.157 93.1151 214.796 93.3759C214.435 93.6367 214.154 94.068 213.953 94.6699C213.492 96.0743 213.161 97.4084 212.96 98.6723C212.813 99.5817 212.72 100.561 212.681 101.609C212.103 102.266 211.615 102.771 211.217 103.126C210.676 103.608 210.204 103.848 209.803 103.848C209.542 103.848 209.331 103.748 209.171 103.547C209.01 103.327 208.93 103.026 208.93 102.645C208.93 102.043 209.211 100.458 209.773 97.8899C210.274 95.6429 210.525 94.2686 210.525 93.7671C210.525 93.4661 210.435 93.2655 210.254 93.1652C210.074 93.0448 209.753 92.9847 209.291 92.9847C208.629 92.9847 208.128 93.1151 207.787 93.3759C207.466 93.6367 207.225 94.068 207.064 94.6699C206.583 96.4554 206.081 97.9601 205.56 99.1839C205.058 100.408 204.577 101.321 204.115 101.922C203.674 102.524 203.303 102.825 203.002 102.825C202.781 102.825 202.621 102.745 202.52 102.585C202.42 102.404 202.37 102.103 202.37 101.682C202.37 100.98 202.57 99.5751 202.972 97.4686C203.092 96.8667 203.253 96.1946 203.453 95.4523C203.674 94.5295 203.784 93.9878 203.784 93.8273C203.784 93.5464 203.694 93.3357 203.513 93.1953C203.353 93.0549 203.052 92.9847 202.61 92.9847C201.828 92.9847 201.256 93.1151 200.895 93.3759C200.534 93.6367 200.253 94.068 200.053 94.6699C199.591 96.0743 199.26 97.4084 199.059 98.6723C198.912 99.5848 198.819 100.567 198.78 101.62C198.206 102.271 197.721 102.773 197.326 103.126C196.784 103.608 196.313 103.848 195.911 103.848C195.651 103.848 195.44 103.748 195.279 103.547C195.119 103.327 195.039 103.026 195.039 102.645C195.039 102.043 195.32 100.458 195.881 97.8899C196.383 95.6429 196.634 94.2686 196.634 93.7671C196.634 93.4661 196.543 93.2655 196.363 93.1652C196.182 93.0448 195.861 92.9847 195.4 92.9847C194.738 92.9847 194.236 93.1151 193.895 93.3759C193.574 93.6367 193.333 94.068 193.173 94.6699C192.792 96.1344 192.501 97.3382 192.3 98.2811H188.448C188.589 97.3382 188.739 96.5357 188.9 95.8736C189.201 94.7501 189.351 94.0279 189.351 93.7069C189.351 93.426 189.271 93.2354 189.11 93.1351C188.95 93.0348 188.669 92.9847 188.268 92.9847C187.505 92.9847 186.923 93.1251 186.522 93.406C186.121 93.6668 185.83 94.0881 185.649 94.6699C184.963 96.8406 184.594 99.1229 184.542 101.517C183.867 102.184 183.106 102.75 182.262 103.216C181.118 103.838 180.095 104.149 179.192 104.149C177.788 104.149 176.835 103.688 176.333 102.765C178.701 102.183 180.376 101.401 181.359 100.418C182.362 99.4147 182.863 98.2209 182.863 96.8366C182.863 95.653 182.512 94.7201 181.81 94.0379C181.108 93.3357 180.175 92.9847 179.012 92.9847C177.707 92.9847 176.534 93.3357 175.491 94.0379C174.467 94.7401 173.665 95.6931 173.083 96.8968C172.501 98.0805 172.21 99.3645 172.21 100.749C172.21 101.195 172.24 101.62 172.299 102.024C171.88 102.483 171.516 102.85 171.206 103.126C170.665 103.608 170.193 103.848 169.792 103.848C169.531 103.848 169.321 103.748 169.16 103.547C169 103.327 168.919 103.026 168.919 102.645C168.919 102.043 169.2 100.458 169.762 97.8899C170.264 95.6429 170.514 94.2686 170.514 93.7671C170.514 93.4661 170.424 93.2655 170.243 93.1652C170.063 93.0448 169.742 92.9847 169.28 92.9847C168.618 92.9847 168.117 93.1151 167.776 93.3759C167.455 93.6367 167.214 94.068 167.054 94.6699C166.572 96.4554 166.071 97.9601 165.549 99.1839C165.047 100.408 164.566 101.321 164.104 101.922C163.663 102.524 163.292 102.825 162.991 102.825C162.77 102.825 162.61 102.745 162.509 102.585C162.409 102.404 162.359 102.103 162.359 101.682C162.359 101.02 162.56 99.525 162.961 97.1978C163.242 95.653 163.382 94.6799 163.382 94.2787C163.382 93.8574 163.282 93.5665 163.081 93.406C162.881 93.2254 162.519 93.1351 161.998 93.1351C161.356 93.1351 160.914 93.2455 160.674 93.4661C160.433 93.6668 160.222 94.068 160.042 94.6699C159.299 97.1175 158.607 99.0936 157.965 100.598C157.343 102.083 156.701 102.825 156.039 102.825C155.819 102.825 155.658 102.745 155.558 102.585C155.457 102.404 155.407 102.103 155.407 101.682C155.407 100.98 155.608 99.5751 156.009 97.4686C156.13 96.8667 156.29 96.1946 156.491 95.4523C156.711 94.5295 156.822 93.9878 156.822 93.8273C156.822 93.5464 156.731 93.3357 156.551 93.1953C156.39 93.0549 156.089 92.9847 155.648 92.9847C154.866 92.9847 154.294 93.1151 153.933 93.3759C153.572 93.6367 153.291 94.068 153.09 94.6699C152.703 95.849 152.407 96.9785 152.204 98.0586C151.292 98.2621 150.483 98.3864 149.775 98.4316C149.614 96.8868 149.062 95.5928 148.12 94.5495C147.197 93.4862 145.973 92.9546 144.448 92.9546C143.204 92.9546 142.071 93.2956 141.048 93.9777C140.024 94.6398 139.222 95.5727 138.64 96.7764C138.058 97.9601 137.767 99.3143 137.767 100.839C137.767 101.253 137.797 101.655 137.857 102.047C137.447 102.495 137.09 102.855 136.786 103.126C136.244 103.608 135.773 103.848 135.372 103.848C135.111 103.848 134.9 103.748 134.74 103.547C134.579 103.327 134.499 103.026 134.499 102.645C134.499 102.043 134.78 100.458 135.342 97.8899C135.843 95.6429 136.094 94.2686 136.094 93.7671C136.094 93.4661 136.004 93.2655 135.823 93.1652C135.642 93.0448 135.321 92.9847 134.86 92.9847C134.198 92.9847 133.696 93.1151 133.355 93.3759C133.034 93.6367 132.794 94.068 132.633 94.6699C132.252 96.1344 131.961 97.3382 131.76 98.2811H127.908C128.049 97.3382 128.199 96.5357 128.36 95.8736C128.661 94.7501 128.811 94.0279 128.811 93.7069C128.811 93.426 128.731 93.2354 128.57 93.1351C128.41 93.0348 128.129 92.9847 127.728 92.9847C126.965 92.9847 126.384 93.1251 125.982 93.406C125.581 93.6668 125.29 94.0881 125.11 94.6699C124.42 96.8512 124.051 99.1451 124.002 101.552C123.401 102.236 122.896 102.761 122.487 103.126C121.946 103.608 121.474 103.848 121.073 103.848C120.491 103.848 120.2 103.447 120.2 102.645C120.2 102.083 120.391 100.929 120.772 99.1839C121.213 97.1376 121.434 95.7232 121.434 94.9407C121.434 93.6367 120.782 92.9847 119.478 92.9847C118.415 92.9847 117.271 93.5464 116.047 94.6699C114.824 95.7934 113.71 97.589 112.707 100.057C112.767 99.6955 112.877 99.1538 113.038 98.4316C113.419 96.7464 113.61 95.5827 113.61 94.9407C113.61 94.2787 113.459 93.7872 113.158 93.4661C112.877 93.1452 112.386 92.9847 111.684 92.9847C110.982 92.9847 110.229 93.2555 109.427 93.7972C108.644 94.3188 107.872 95.1213 107.11 96.2047C106.367 97.288 105.725 98.6122 105.184 100.177C105.264 99.2943 105.364 98.562 105.484 97.9802C105.605 97.3783 105.765 96.6761 105.966 95.8736C106.267 94.7501 106.417 94.0279 106.417 93.7069C106.417 93.426 106.337 93.2354 106.177 93.1351C106.016 93.0348 105.735 92.9847 105.334 92.9847C104.592 92.9847 104.01 93.1251 103.589 93.406C103.187 93.6668 102.896 94.0881 102.716 94.6699C102.367 95.7732 102.1 96.9053 101.915 98.0663C101.018 98.2652 100.22 98.387 99.5208 98.4316C99.3603 96.8868 98.8086 95.5928 97.8657 94.5495C96.9428 93.4862 95.719 92.9546 94.1942 92.9546C92.9504 92.9546 91.8168 93.2956 90.7937 93.9777C89.7705 94.6398 88.968 95.5727 88.3862 96.7764C87.8044 97.9601 87.5135 99.3143 87.5135 100.839C87.5135 101.963 87.7342 103.006 88.1755 103.969C88.6169 104.932 89.2589 105.704 90.1015 106.286C90.9642 106.868 91.9974 107.159 93.2012 107.159C94.6256 107.159 95.8995 106.657 97.023 105.654C98.1465 104.631 98.8989 103.277 99.28 101.591C100.096 101.557 100.874 101.466 101.614 101.316ZM93.4419 103.969C94.0839 103.969 94.6356 103.708 95.097 103.186C95.5785 102.665 95.8995 101.912 96.06 100.929C95.4381 100.508 94.9566 99.9563 94.6155 99.2742C94.2945 98.5921 94.1341 97.8698 94.1341 97.1075C94.1341 96.7865 94.1641 96.4655 94.2243 96.1445H94.0739C93.2714 96.1445 92.5993 96.5357 92.0576 97.3181C91.536 98.0805 91.2752 99.1639 91.2752 100.568C91.2752 101.672 91.4858 102.514 91.9071 103.096C92.3485 103.678 92.8601 103.969 93.4419 103.969ZM145.351 103.186C144.889 103.708 144.338 103.969 143.696 103.969C143.114 103.969 142.602 103.678 142.161 103.096C141.74 102.514 141.529 101.672 141.529 100.568C141.529 99.1639 141.79 98.0805 142.311 97.3181C142.853 96.5357 143.525 96.1445 144.328 96.1445H144.478C144.418 96.4655 144.388 96.7865 144.388 97.1075C144.388 97.8698 144.548 98.5921 144.869 99.2742C145.21 99.9563 145.692 100.508 146.314 100.929C146.153 101.912 145.832 102.665 145.351 103.186ZM176.604 97.2278C177.126 96.3652 177.758 95.9338 178.5 95.9338C178.861 95.9338 179.142 96.0542 179.343 96.295C179.563 96.5156 179.674 96.8166 179.674 97.1978C179.674 97.9401 179.333 98.5921 178.65 99.1538C177.968 99.7156 177.035 100.137 175.852 100.418V100.358C175.852 99.1338 176.102 98.0905 176.604 97.2278Z"/>
</svg>
