<svg width="40" height="40" viewBox="0 0 40 40" xmlns="http://www.w3.org/2000/svg">
<g clip-path="url(#clip0_17850_172036)">
<path d="M0 8C0 3.58172 3.58172 0 8 0H32C36.4183 0 40 3.58172 40 8V32C40 36.4183 36.4183 40 32 40H8C3.58172 40 0 36.4183 0 32V8Z" fill="#40B3E0"/>
<path d="M29.7308 11.5037L26.1584 29.5145C26.1584 29.5145 25.6589 30.7636 24.285 30.164L16.0416 23.844L13.0441 22.3953L7.99813 20.6965C7.99813 20.6965 7.22375 20.4219 7.14875 19.8223C7.07375 19.2228 8.02313 18.8981 8.02313 18.8981L28.0819 11.0294C28.0819 11.0294 29.7306 10.305 29.7306 11.504" fill="white"/>
<path d="M15.4109 29.3132C15.4109 29.3132 15.1703 29.2907 14.8703 28.3413C14.5708 27.3921 13.0469 22.3962 13.0469 22.3962L25.1622 14.7024C25.1622 14.7024 25.8617 14.2777 25.8367 14.7024C25.8367 14.7024 25.9616 14.7774 25.5867 15.1271C25.2122 15.477 16.0695 23.6952 16.0695 23.6952" fill="#D2E5F1"/>
<path d="M19.2083 26.2679L15.9478 29.2407C15.9478 29.2407 15.6928 29.4341 15.4141 29.3129L16.0384 23.791" fill="#B5CFE4"/>
</g>
<defs>
<clipPath id="clip0_17850_172036">
<rect width="40" height="40" fill="white"/>
</clipPath>
</defs>
</svg>
