<svg width="40" height="40" viewBox="0 0 40 40" xmlns="http://www.w3.org/2000/svg">
<path fill-rule="evenodd" clip-rule="evenodd" d="M20 40C31.0457 40 40 31.0457 40 20C40 8.9543 31.0457 0 20 0C8.9543 0 0 8.9543 0 20C0 31.0457 8.9543 40 20 40ZM14.9305 18.0398C14.4126 17.5847 13.8414 17.0517 13.2983 16.4881L13.2981 16.4879C12.8171 15.9884 12.4915 15.1276 12.5332 14.4406C12.5532 14.1118 12.6523 13.8903 12.7824 13.756C12.9014 13.633 13.1253 13.5007 13.5781 13.5007C13.8058 13.5007 14.0237 13.6111 14.2177 13.7774C14.2897 13.8391 14.35 13.9015 14.3965 13.9545C14.4029 14.031 14.4107 14.1215 14.4201 14.2247C14.4521 14.5771 14.5026 15.0784 14.5766 15.6775C14.6609 16.3598 14.7763 17.1727 14.9305 18.0398ZM15.4309 20.3909C14.7251 19.8607 13.4085 18.7641 12.218 17.5288L12.2178 17.5286C11.4548 16.7363 10.968 15.4685 11.036 14.3496C11.0709 13.7756 11.2572 13.1748 11.7046 12.7127C12.1629 12.2392 12.8084 12.0007 13.5781 12.0007C14.3009 12.0007 14.8542 12.3474 15.1937 12.6383C15.2834 12.7151 15.3624 12.7916 15.4305 12.863H24.7841C24.7993 12.863 24.8145 12.8634 24.8296 12.8643C25.1711 12.5786 25.7141 12.25 26.4178 12.25C27.1875 12.25 27.833 12.4885 28.2913 12.962C28.7386 13.4241 28.925 14.0248 28.9599 14.5989C29.0279 15.7177 28.5411 16.9856 27.778 17.7779L27.7779 17.7781C26.4696 19.1355 25.0092 20.3255 24.3743 20.7804C24.042 22.013 23.6134 23.2275 23.0597 24.2081C22.7483 24.7597 22.3679 25.2864 21.9079 25.6938L21.9097 25.6947C22.3486 25.9226 22.8304 26.2282 23.2115 26.6238C23.5952 27.0221 23.9246 27.5645 23.9246 28.2414C23.9246 28.6556 23.5888 28.9914 23.1746 28.9914H16.7337C16.3195 28.9914 15.9837 28.6556 15.9837 28.2414C15.9837 27.5645 16.313 27.0222 16.6966 26.6239C17.0776 26.2282 17.5593 25.9226 17.9981 25.6948L17.9996 25.694C17.5626 25.307 17.1978 24.8129 16.8964 24.2934C16.2587 23.1945 15.7847 21.7876 15.4309 20.3909ZM25.34 15.5974C25.3994 15.1092 25.4429 14.6894 25.4733 14.3671C25.4832 14.354 25.4928 14.3405 25.5019 14.3266L25.5109 14.3139C25.5208 14.3001 25.5382 14.2768 25.5625 14.2472C25.6119 14.187 25.6854 14.1062 25.7781 14.0267C25.9722 13.8604 26.1901 13.75 26.4178 13.75C26.8706 13.75 27.0945 13.8822 27.2135 14.0053C27.3436 14.1396 27.4427 14.361 27.4627 14.6899C27.5044 15.3768 27.1788 16.2376 26.6978 16.7372L26.6976 16.7374C26.0978 17.3597 25.4639 17.9447 24.9052 18.4288C25.1023 17.3823 25.2428 16.3957 25.34 15.5974ZM15.9398 14.363C15.97 14.6707 16.0111 15.0548 16.0653 15.4936C16.2092 16.6577 16.4438 18.1947 16.807 19.7066L16.807 19.7068C17.1567 21.1612 17.6138 22.5411 18.1938 23.5405C18.7906 24.5689 19.3864 24.9831 19.9532 24.9831C20.5346 24.9831 21.1457 24.5472 21.7536 23.4706C22.3427 22.4273 22.8014 20.9942 23.148 19.5032C23.4921 18.0234 23.7145 16.5369 23.851 15.4161C23.9005 15.0095 23.9385 14.6524 23.9668 14.363H15.9398ZM19.9537 26.5145C19.8832 26.5363 19.7957 26.5645 19.6959 26.599C19.4157 26.696 19.0494 26.8391 18.6893 27.0261C18.416 27.1679 18.1665 27.3248 17.965 27.4914H21.9431C21.7415 27.3248 21.492 27.168 21.2187 27.0261C20.8585 26.8392 20.492 26.696 20.2118 26.5991C20.1119 26.5645 20.0244 26.5363 19.9537 26.5145Z"/>
</svg>
