<svg width="40" height="40" viewBox="0 0 40 40" xmlns="http://www.w3.org/2000/svg">
<path fill-rule="evenodd" clip-rule="evenodd" d="M38.5 20C38.5 30.2173 30.2173 38.5 20 38.5C9.78273 38.5 1.5 30.2173 1.5 20C1.5 9.78273 9.78273 1.5 20 1.5C30.2173 1.5 38.5 9.78273 38.5 20ZM40 20C40 31.0457 31.0457 40 20 40C8.9543 40 0 31.0457 0 20C0 8.9543 8.9543 0 20 0C31.0457 0 40 8.9543 40 20ZM11.917 17.75C11.7308 17.75 11.5522 17.824 11.4205 17.9557C11.2888 18.0873 11.2148 18.266 11.2148 18.4522V23.4663L14.8677 27.1192C15.1606 27.4121 15.1606 27.8869 14.8677 28.1798C14.5748 28.4727 14.1 28.4727 13.8071 28.1798L10.1052 24.478L10.1049 24.4777C9.85545 24.2284 9.71515 23.8902 9.71484 23.5375V23.5368V18.4522C9.71484 17.8681 9.94686 17.308 10.3599 16.895C10.7728 16.482 11.333 16.25 11.917 16.25C12.5011 16.25 13.0613 16.482 13.4742 16.895C13.8872 17.308 14.1193 17.8681 14.1193 18.4522V21.3714C14.5145 21.2483 14.9348 21.2177 15.3473 21.2846C15.9037 21.3747 16.4175 21.6376 16.8162 22.0359L16.8165 22.0362L17.6829 22.9026L17.683 22.9026C18.1867 23.4063 18.4698 24.0894 18.47 24.8018V24.8019V27.8728C18.47 28.2871 18.1342 28.6228 17.72 28.6228C17.3058 28.6228 16.97 28.2871 16.97 27.8728V24.8021V24.8019C16.9699 24.4874 16.8448 24.1858 16.6224 23.9634L16.6223 23.9633L15.7561 23.0971L15.756 23.0969L15.7558 23.0968C15.5798 22.921 15.353 22.8051 15.1074 22.7653C14.8617 22.7255 14.6097 22.7639 14.3871 22.8752L14.3865 22.8755L14.307 22.9152L14.8618 23.47C15.1547 23.7629 15.1547 24.2377 14.8618 24.5306C14.5689 24.8235 14.0941 24.8235 13.8012 24.5306L12.9709 23.7003L12.9705 23.7C12.8572 23.5867 12.7673 23.4522 12.706 23.3042C12.6447 23.156 12.6132 22.9972 12.6134 22.8368V22.8364C12.6134 22.7969 12.6154 22.7575 12.6193 22.7184V18.4522C12.6193 18.266 12.5453 18.0873 12.4136 17.9557C12.2819 17.824 12.1033 17.75 11.917 17.75ZM28.4995 17.9557C28.3678 17.824 28.1892 17.75 28.0029 17.75C27.8167 17.75 27.6381 17.824 27.5064 17.9557C27.3747 18.0873 27.3007 18.266 27.3007 18.4522V22.7184C27.3046 22.7575 27.3066 22.7969 27.3066 22.8364V22.8368C27.3068 22.9972 27.2753 23.156 27.2139 23.3042C27.1527 23.4522 27.0628 23.5867 26.9495 23.7L26.9491 23.7003L26.1188 24.5306C25.8259 24.8235 25.351 24.8235 25.0582 24.5306C24.7653 24.2377 24.7653 23.7629 25.0582 23.47L25.6129 22.9152L25.5335 22.8755L25.5329 22.8752C25.3102 22.7639 25.0583 22.7255 24.8126 22.7653C24.567 22.8051 24.3402 22.921 24.1641 23.0968L24.164 23.0969L24.1639 23.0971L23.2977 23.9633L23.2976 23.9634C23.0751 24.1858 22.9501 24.4874 22.95 24.8019V24.8021V27.8728C22.95 28.2871 22.6142 28.6228 22.2 28.6228C21.7858 28.6228 21.45 28.2871 21.45 27.8728V24.8019V24.8018C21.4502 24.0894 21.7332 23.4063 22.237 22.9026L22.2371 22.9026L23.1035 22.0362L23.1037 22.0359C23.5024 21.6376 24.0163 21.3747 24.5727 21.2846C24.9851 21.2177 25.4055 21.2483 25.8007 21.3714V18.4522C25.8007 17.8681 26.0327 17.308 26.4457 16.895C26.8587 16.482 27.4189 16.25 28.0029 16.25C28.587 16.25 29.1471 16.482 29.5601 16.895C29.9731 17.308 30.2051 17.8681 30.2051 18.4522V23.5368V23.5375C30.2048 23.8902 30.0645 24.2284 29.8151 24.4777L29.8147 24.478L26.1129 28.1798C25.82 28.4727 25.3451 28.4727 25.0522 28.1798C24.7594 27.8869 24.7594 27.4121 25.0522 27.1192L28.7051 23.4663V18.4522C28.7051 18.266 28.6311 18.0873 28.4995 17.9557ZM21.3535 12.8854C22.222 12.7097 23.0977 13.4191 23.0953 14.3141L23.0953 14.316C23.0952 14.7006 22.9431 15.0696 22.6721 15.3426L22.6719 15.3428C22.3465 15.6709 22.0312 15.9965 21.7193 16.3186L21.719 16.3188L21.719 16.3189C21.1405 16.9163 20.5738 17.5015 19.9767 18.0673L17.2734 15.3436L17.2733 15.3436C17.0022 15.0704 16.85 14.7011 16.85 14.3161C16.85 13.529 17.5191 12.8589 18.3056 12.8589C18.7121 12.8589 19.0903 13.0389 19.4399 13.3918C19.5808 13.534 19.7726 13.6139 19.9727 13.6139C20.1729 13.6139 20.3647 13.534 20.5055 13.3918C20.7837 13.111 21.0529 12.9463 21.3535 12.8854ZM21.0559 11.4153C22.8472 11.0527 24.6004 12.4655 24.5953 14.3182C24.5946 15.0979 24.2861 15.8458 23.7369 16.3991C23.4386 16.6998 23.1369 17.0113 22.8313 17.3268C22.1962 17.9824 21.5447 18.655 20.8744 19.2823L20.867 19.2892L20.867 19.2891C20.6154 19.5183 20.2855 19.6422 19.9452 19.6352C19.605 19.6281 19.2804 19.4907 19.0385 19.2513L19.0338 19.2466L19.0338 19.2466L16.2088 16.4003L16.2088 16.4003C15.6587 15.8461 15.35 15.097 15.35 14.3161C15.35 12.7027 16.6886 11.3589 18.3056 11.3589C18.9432 11.3589 19.5006 11.5666 19.9692 11.8867C20.2794 11.6706 20.6379 11.4999 21.0559 11.4153Z"/>
</svg>
