<svg width="40" height="40" viewBox="0 0 40 40" xmlns="http://www.w3.org/2000/svg">
<path fill-rule="evenodd" clip-rule="evenodd" d="M20 40C31.0457 40 40 31.0457 40 20C40 8.9543 31.0457 0 20 0C8.9543 0 0 8.9543 0 20C0 31.0457 8.9543 40 20 40ZM23.0953 14.3141C23.0977 13.4191 22.222 12.7097 21.3535 12.8855C21.0529 12.9463 20.7837 13.111 20.5055 13.3918C20.3647 13.534 20.1729 13.614 19.9727 13.614C19.7726 13.614 19.5808 13.534 19.4399 13.3918C19.0903 13.0389 18.7121 12.8589 18.3056 12.8589C17.5191 12.8589 16.85 13.529 16.85 14.3162C16.85 14.7011 17.0022 15.0704 17.2733 15.3436L17.2734 15.3436L19.9767 18.0673C20.5738 17.5015 21.1405 16.9163 21.719 16.3188L21.7191 16.3187C22.0311 15.9966 22.3464 15.6709 22.6719 15.3428L22.6721 15.3426C22.9431 15.0696 23.0952 14.7006 23.0953 14.316L23.0953 14.3141ZM24.5953 14.3182C24.6004 12.4655 22.8472 11.0527 21.0559 11.4153C20.6379 11.4999 20.2794 11.6706 19.9692 11.8867C19.5006 11.5666 18.9432 11.3589 18.3056 11.3589C16.6886 11.3589 15.35 12.7027 15.35 14.3162C15.35 15.097 15.6587 15.8461 16.2088 16.4003L16.2088 16.4003L19.0338 19.2466L19.0338 19.2466L19.0385 19.2513C19.2804 19.4907 19.605 19.6281 19.9452 19.6352C20.2855 19.6422 20.6154 19.5183 20.867 19.2892L20.867 19.2892L20.8744 19.2823C21.5447 18.6551 22.1962 17.9824 22.8313 17.3268C23.1369 17.0113 23.4386 16.6998 23.7369 16.3991C24.2861 15.8458 24.5946 15.0979 24.5953 14.3182ZM11.917 17.75C11.7308 17.75 11.5522 17.824 11.4205 17.9557C11.2888 18.0874 11.2148 18.266 11.2148 18.4522V23.4663L14.8677 27.1192C15.1606 27.4121 15.1606 27.8869 14.8677 28.1798C14.5748 28.4727 14.1 28.4727 13.8071 28.1798L10.1052 24.478L10.1049 24.4777C9.85545 24.2284 9.71515 23.8902 9.71484 23.5375V23.5369V18.4522C9.71484 17.8681 9.94686 17.308 10.3599 16.895C10.7728 16.482 11.333 16.25 11.917 16.25C12.5011 16.25 13.0613 16.482 13.4742 16.895C13.8872 17.308 14.1193 17.8681 14.1193 18.4522V21.3714C14.5145 21.2484 14.9348 21.2178 15.3473 21.2846C15.9037 21.3747 16.4175 21.6376 16.8162 22.0359L16.8165 22.0362L17.6829 22.9026L17.683 22.9027C18.1867 23.4063 18.4698 24.0894 18.47 24.8018V24.8019V27.8729C18.47 28.2871 18.1342 28.6229 17.72 28.6229C17.3058 28.6229 16.97 28.2871 16.97 27.8729V24.8021V24.8019C16.9699 24.4874 16.8448 24.1858 16.6224 23.9634L16.6223 23.9633L15.7561 23.0971L15.756 23.097L15.7558 23.0968C15.5798 22.9211 15.353 22.8051 15.1074 22.7653C14.8617 22.7255 14.6097 22.7639 14.3871 22.8752L14.3865 22.8755L14.307 22.9152L14.8618 23.47C15.1547 23.7629 15.1547 24.2378 14.8618 24.5306C14.5689 24.8235 14.0941 24.8235 13.8012 24.5306L12.9709 23.7004L12.9705 23.7C12.8572 23.5867 12.7673 23.4522 12.706 23.3042C12.6447 23.156 12.6132 22.9972 12.6134 22.8368V22.8364C12.6134 22.7969 12.6154 22.7575 12.6193 22.7184V18.4522C12.6193 18.266 12.5453 18.0874 12.4136 17.9557C12.2819 17.824 12.1033 17.75 11.917 17.75ZM28.0029 17.75C28.1892 17.75 28.3678 17.824 28.4995 17.9557C28.6311 18.0874 28.7051 18.266 28.7051 18.4522V23.4663L25.0522 27.1192C24.7594 27.4121 24.7594 27.8869 25.0522 28.1798C25.3451 28.4727 25.82 28.4727 26.1129 28.1798L29.8147 24.478L29.8151 24.4777C30.0645 24.2284 30.2048 23.8902 30.2051 23.5375V23.5369V18.4522C30.2051 17.8681 29.9731 17.308 29.5601 16.895C29.1471 16.482 28.587 16.25 28.0029 16.25C27.4189 16.25 26.8587 16.482 26.4457 16.895C26.0327 17.308 25.8007 17.8681 25.8007 18.4522V21.3714C25.4055 21.2484 24.9851 21.2178 24.5727 21.2846C24.0163 21.3747 23.5024 21.6376 23.1037 22.0359L23.1035 22.0362L22.2371 22.9026L22.237 22.9027C21.7332 23.4063 21.4502 24.0894 21.45 24.8018V24.8019V27.8729C21.45 28.2871 21.7858 28.6229 22.2 28.6229C22.6142 28.6229 22.95 28.2871 22.95 27.8729V24.8021V24.8019C22.9501 24.4874 23.0751 24.1858 23.2976 23.9634L23.2977 23.9633L24.1639 23.0971L24.164 23.097L24.1641 23.0968C24.3402 22.9211 24.567 22.8051 24.8126 22.7653C25.0583 22.7255 25.3102 22.7639 25.5329 22.8752L25.5335 22.8755L25.6129 22.9152L25.0582 23.47C24.7653 23.7629 24.7653 24.2378 25.0581 24.5306C25.351 24.8235 25.8259 24.8235 26.1188 24.5306L26.9491 23.7004L26.9495 23.7C27.0628 23.5867 27.1527 23.4522 27.2139 23.3042C27.2753 23.156 27.3068 22.9972 27.3066 22.8368V22.8364C27.3066 22.7969 27.3046 22.7575 27.3007 22.7184V18.4522C27.3007 18.266 27.3747 18.0874 27.5064 17.9557C27.6381 17.824 27.8167 17.75 28.0029 17.75Z"/>
</svg>
