<svg width="40" height="40" viewBox="0 0 40 40" xmlns="http://www.w3.org/2000/svg">
<path fill-rule="evenodd" clip-rule="evenodd" d="M20 38.5C30.2173 38.5 38.5 30.2173 38.5 20C38.5 9.78273 30.2173 1.5 20 1.5C9.78273 1.5 1.5 9.78273 1.5 20C1.5 30.2173 9.78273 38.5 20 38.5ZM20 40C31.0457 40 40 31.0457 40 20C40 8.9543 31.0457 0 20 0C8.9543 0 0 8.9543 0 20C0 31.0457 8.9543 40 20 40ZM14.2177 13.7774C14.2897 13.8391 14.35 13.9015 14.3965 13.9545C14.4028 14.031 14.4106 14.1215 14.42 14.2247C14.4521 14.5771 14.5025 15.0784 14.5766 15.6775C14.6609 16.3598 14.7762 17.1727 14.9305 18.0398C14.4126 17.5847 13.8414 17.0517 13.2982 16.4881L13.298 16.4879C12.8171 15.9884 12.4914 15.1276 12.5332 14.4406C12.5532 14.1118 12.6523 13.8903 12.7823 13.756C12.9014 13.633 13.1252 13.5007 13.5781 13.5007C13.8057 13.5007 14.0236 13.6111 14.2177 13.7774ZM12.218 17.5288C13.4085 18.7641 14.725 19.8607 15.4308 20.3909C15.7846 21.7876 16.2587 23.1945 16.8964 24.2934C17.1978 24.8129 17.5626 25.307 17.9995 25.694L17.9981 25.6948C17.5592 25.9226 17.0775 26.2282 16.6966 26.6239C16.313 27.0222 15.9837 27.5645 15.9837 28.2414C15.9837 28.6556 16.3195 28.9914 16.7337 28.9914H23.1746C23.5888 28.9914 23.9246 28.6556 23.9246 28.2414C23.9246 27.5645 23.5951 27.0221 23.2115 26.6238C22.8304 26.2282 22.3486 25.9226 21.9096 25.6947L21.9079 25.6938C22.3678 25.2864 22.7482 24.7597 23.0597 24.2081C23.6134 23.2275 24.0419 22.013 24.3743 20.7804C25.0092 20.3255 26.4696 19.1355 27.7778 17.7781L27.778 17.7779C28.5411 16.9856 29.0279 15.7177 28.9599 14.5989C28.925 14.0248 28.7386 13.4241 28.2912 12.962C27.8329 12.4885 27.1875 12.25 26.4177 12.25C25.7141 12.25 25.1711 12.5786 24.8296 12.8643C24.8145 12.8634 24.7993 12.863 24.7841 12.863H15.4304C15.3624 12.7916 15.2833 12.7151 15.1936 12.6383C14.8542 12.3474 14.3009 12.0007 13.5781 12.0007C12.8084 12.0007 12.1629 12.2392 11.7046 12.7127C11.2572 13.1748 11.0708 13.7756 11.0359 14.3496C10.9679 15.4685 11.4547 16.7363 12.2178 17.5286L12.218 17.5288ZM25.4733 14.3671C25.4429 14.6894 25.3994 15.1091 25.3399 15.5974C25.2427 16.3957 25.1023 17.3823 24.9052 18.4288C25.4638 17.9447 26.0978 17.3597 26.6976 16.7374L26.6978 16.7372C27.1787 16.2376 27.5044 15.3768 27.4626 14.6899C27.4426 14.361 27.3435 14.1396 27.2135 14.0053C27.0944 13.8822 26.8706 13.75 26.4177 13.75C26.1901 13.75 25.9722 13.8604 25.7781 14.0267C25.6853 14.1062 25.6119 14.187 25.5625 14.2472C25.5382 14.2768 25.5208 14.3001 25.5108 14.3139L25.5019 14.3266C25.4927 14.3405 25.4832 14.354 25.4733 14.3671ZM15.9398 14.363C15.9699 14.6707 16.011 15.0548 16.0653 15.4936C16.2091 16.6577 16.4438 18.1947 16.8069 19.7066L16.8069 19.7068C17.1566 21.1612 17.6138 22.5411 18.1937 23.5405C18.7905 24.5689 19.3863 24.9831 19.9532 24.9831C20.5346 24.9831 21.1456 24.5472 21.7535 23.4706C22.3427 22.4273 22.8014 20.9942 23.148 19.5032C23.492 18.0234 23.7145 16.5369 23.8509 15.4161C23.9004 15.0095 23.9384 14.6524 23.9668 14.363H15.9398ZM19.6958 26.599C19.7956 26.5645 19.8831 26.5363 19.9537 26.5145C20.0243 26.5363 20.1118 26.5645 20.2117 26.5991C20.492 26.696 20.8584 26.8392 21.2186 27.0261C21.492 27.168 21.7415 27.3248 21.9431 27.4914H17.9649C18.1665 27.3248 18.416 27.1679 18.6893 27.0261C19.0493 26.8391 19.4157 26.696 19.6958 26.599Z"/>
</svg>
