<svg width="40" height="40" viewBox="0 0 40 40" xmlns="http://www.w3.org/2000/svg">
<path fill-rule="evenodd" clip-rule="evenodd" d="M20 40C31.0457 40 40 31.0457 40 20C40 8.9543 31.0457 0 20 0C8.9543 0 0 8.9543 0 20C0 31.0457 8.9543 40 20 40ZM14.5023 12.5C14.2365 12.5 13.9815 12.6056 13.7936 12.7936C13.6056 12.9815 13.5 13.2365 13.5 13.5023V23.4754C13.8131 23.3385 14.154 23.2659 14.5023 23.2659L14.512 23.2659H26.0185V12.5H21.3846V18.7593C21.3846 19.0333 21.2351 19.2856 20.9946 19.4172C20.7542 19.5488 20.4611 19.5387 20.2303 19.391L18.4442 18.2479L16.6581 19.391C16.4272 19.5387 16.1342 19.5488 15.8937 19.4172C15.6533 19.2856 15.5038 19.0333 15.5038 18.7593V12.5H14.5023ZM12 13.5023V25.7682C12 26.4318 12.2636 27.0683 12.7329 27.5376C13.1995 28.0042 13.8315 28.2675 14.4911 28.2705L14.5026 28.2706H26.7688C27.183 28.2706 27.5188 27.9348 27.5188 27.5206C27.5188 27.1063 27.183 26.7706 26.7688 26.7706H14.512L14.5023 26.7705C14.2365 26.7705 13.9815 26.6649 13.7936 26.4769C13.6056 26.289 13.5 26.034 13.5 25.7682C13.5 25.5024 13.6056 25.2474 13.7936 25.0594C13.9799 24.8732 14.2319 24.7678 14.4952 24.7659L14.5026 24.7659H26.7688C27.183 24.7659 27.5188 24.4301 27.5188 24.0159C27.5188 23.973 27.5152 23.931 27.5083 23.89C27.515 23.8496 27.5185 23.808 27.5185 23.7656V12.2757C27.5185 11.9374 27.3841 11.6129 27.1449 11.3736C26.9057 11.1344 26.5812 11 26.2428 11H20.6346H16.2538H14.5023C13.8387 11 13.2022 11.2636 12.7329 11.7329C12.2636 12.2022 12 12.8387 12 13.5023ZM17.0038 17.3888V12.5H19.8846V17.3888L18.8485 16.7257C18.602 16.568 18.2863 16.568 18.0399 16.7257L17.0038 17.3888Z"/>
</svg>
