<svg width="40" height="40" viewBox="0 0 40 40" xmlns="http://www.w3.org/2000/svg">
<path fill-rule="evenodd" clip-rule="evenodd" d="M20 38.5C30.2173 38.5 38.5 30.2173 38.5 20C38.5 9.78273 30.2173 1.5 20 1.5C9.78273 1.5 1.5 9.78273 1.5 20C1.5 30.2173 9.78273 38.5 20 38.5ZM20 40C31.0457 40 40 31.0457 40 20C40 8.9543 31.0457 0 20 0C8.9543 0 0 8.9543 0 20C0 31.0457 8.9543 40 20 40ZM19.6973 13.5277L26.6041 16.9816L25.4129 17.5771C25.3843 17.5892 25.3567 17.603 25.3302 17.6185L19.6973 20.4346L14.0518 17.6115C14.0331 17.6011 14.014 17.5916 13.9944 17.5828L12.7904 16.9807L19.6973 13.5277ZM12.9384 18.7318L11.699 18.1121L11.6986 18.1119C11.4887 18.0067 11.3121 17.8452 11.1887 17.6455C11.0654 17.4457 11 17.2155 11 16.9807C11 16.7459 11.0654 16.5157 11.1887 16.316C11.3121 16.1162 11.4887 15.9547 11.6986 15.8496L11.6991 15.8494L19.1318 12.1334L19.1322 12.1332C19.3077 12.0456 19.5011 12 19.6973 12C19.8934 12 20.0868 12.0456 20.2623 12.1332L20.2628 12.1334L27.6955 15.8502L27.6959 15.8504C27.7026 15.8538 27.7092 15.8572 27.7158 15.8606C27.73 15.8666 27.744 15.8731 27.758 15.8801L29.4748 16.7385C29.7289 16.8656 29.8894 17.1253 29.8894 17.4093V20.4137C29.8894 20.8279 29.5536 21.1637 29.1394 21.1637C28.7252 21.1637 28.3894 20.8279 28.3894 20.4137V17.8729L28.137 17.7467C28.0202 17.9004 27.8695 18.0258 27.6959 18.1127L27.6955 18.1129L26.4558 18.7327V22.9132V22.9133C26.4559 23.38 26.3236 23.837 26.0743 24.2315C25.825 24.626 25.4689 24.9417 25.0473 25.1419L25.0472 25.1419L20.7554 27.1797L20.7553 27.1798C20.4246 27.3368 20.0632 27.4183 19.6971 27.4183C19.3311 27.4183 18.9696 27.3368 18.6389 27.1798L18.6389 27.1797L14.347 25.1419L14.3469 25.1419C13.9254 24.9417 13.5692 24.626 13.3199 24.2315C13.0706 23.837 12.9383 23.38 12.9384 22.9133V22.9132V18.7318ZM14.4384 19.4819V22.9133V22.9135C14.4384 23.0964 14.4902 23.2755 14.5879 23.4302C14.6856 23.5847 14.8252 23.7085 14.9903 23.7869L14.9904 23.787L19.2823 25.8247L19.2824 25.8248C19.412 25.8863 19.5536 25.9183 19.6971 25.9183C19.8406 25.9183 19.9823 25.8863 20.1119 25.8248L20.1119 25.8247L24.4038 23.787L24.4039 23.7869C24.569 23.7085 24.7086 23.5847 24.8063 23.4302C24.904 23.2755 24.9559 23.0964 24.9558 22.9135V22.9133V19.4826L20.2627 21.8289L20.2623 21.8291C20.0868 21.9167 19.8934 21.9623 19.6973 21.9623C19.5011 21.9623 19.3077 21.9167 19.1322 21.8291L19.1318 21.8289L14.4384 19.4819Z"/>
</svg>
