<svg width="24" height="24" viewBox="0 0 24 24" xmlns="http://www.w3.org/2000/svg">
<path fill-rule="evenodd" clip-rule="evenodd" d="M3.10592 5.4845C2.88926 4.05311 4.03844 2.91675 5.38669 2.91675H8.51252C8.82492 2.91675 9.10461 3.11039 9.21454 3.40281L10.427 6.62781C10.4752 6.75589 10.4874 6.8947 10.4623 7.02921L9.86149 10.2518C10.5909 11.9451 11.7864 13.0944 13.7778 14.1313L16.9557 13.5154C17.0929 13.4889 17.2348 13.5011 17.3654 13.5509L20.6004 14.7834C20.8912 14.8942 21.0834 15.1731 21.0834 15.4842V18.4709C21.0834 19.8987 19.8235 21.0655 18.3425 20.7438L18.3421 20.7437C15.7916 20.1881 11.0473 18.7747 7.71969 15.4471C4.52908 12.2565 3.4637 7.85487 3.10599 5.48497M5.38669 4.41675C4.85509 4.41675 4.52438 4.83347 4.58905 5.26019L4.58912 5.26066C4.93148 7.52921 5.93285 11.5389 8.78035 14.3864C11.7942 17.4002 16.1845 18.7385 18.6609 19.278C19.1215 19.378 19.5834 19.0315 19.5834 18.4709V16.0011L17.0311 15.0287L13.8094 15.6531C13.6468 15.6846 13.4783 15.6614 13.3303 15.5871C10.8993 14.3672 9.30704 12.9121 8.387 10.612C8.3342 10.48 8.32001 10.3357 8.34606 10.196L8.94939 6.95991L7.99324 4.41675H5.38669Z"/>
</svg>
