<svg width="48" height="48" viewBox="0 0 48 48" xmlns="http://www.w3.org/2000/svg">
<path fill-rule="evenodd" clip-rule="evenodd" d="M4 22.5C4 19.4309 6.07593 16.567 9.61511 14.4435C13.1443 12.3259 18.0522 11 23.5 11C28.9478 11 33.8557 12.3259 37.3849 14.4435C40.9241 16.567 43 19.4309 43 22.5C43 24.7496 41.8891 26.8825 39.8989 28.7033C37.9072 30.5255 35.0569 32.0111 31.6607 32.9408C31.3943 33.0137 31.2375 33.2888 31.3104 33.5551C31.3833 33.8214 31.6584 33.9782 31.9247 33.9053C35.4354 32.9443 38.4388 31.3946 40.5739 29.4411C42.7107 27.4862 44 25.1029 44 22.5C44 18.9417 41.5988 15.8056 37.8994 13.586C34.19 11.3604 29.0979 10 23.5 10C17.9021 10 12.81 11.3604 9.10062 13.586C5.40122 15.8056 3 18.9417 3 22.5C3 26.0583 5.40122 29.1944 9.10062 31.414C12.5461 33.4813 17.1846 34.8021 22.3134 34.9795L19.9645 37.3284C19.7692 37.5237 19.7692 37.8403 19.9645 38.0355C20.1597 38.2308 20.4763 38.2308 20.6716 38.0355L23.8536 34.8536C24.0488 34.6583 24.0488 34.3417 23.8536 34.1464L20.6716 30.9645C20.4763 30.7692 20.1597 30.7692 19.9645 30.9645C19.7692 31.1597 19.7692 31.4763 19.9645 31.6716L22.2702 33.9774C17.3157 33.7943 12.8767 32.5135 9.61511 30.5565C6.07593 28.433 4 25.5691 4 22.5ZM13.177 25.461C13.6103 25.5737 14.048 25.63 14.49 25.63C15.166 25.63 15.751 25.5173 16.245 25.292C16.7477 25.0667 17.129 24.7547 17.389 24.356C17.6577 23.9487 17.792 23.4893 17.792 22.978C17.792 22.3887 17.6143 21.899 17.259 21.509C16.9123 21.119 16.453 20.8677 15.881 20.755V20.716C16.401 20.534 16.7997 20.2523 17.077 19.871C17.363 19.4897 17.506 19.0477 17.506 18.545C17.506 18.129 17.3977 17.7607 17.181 17.44C16.973 17.1107 16.6653 16.855 16.258 16.673C15.8593 16.4823 15.3827 16.387 14.828 16.387C13.944 16.387 13.0947 16.5993 12.28 17.024L12.644 18.064C12.982 17.8993 13.307 17.7737 13.619 17.687C13.931 17.5917 14.2907 17.544 14.698 17.544C15.1833 17.544 15.556 17.6567 15.816 17.882C16.076 18.0987 16.206 18.3933 16.206 18.766C16.206 19.2687 16.0153 19.6543 15.634 19.923C15.2527 20.183 14.7847 20.313 14.23 20.313H13.567L13.437 21.405H14.217C14.8497 21.405 15.387 21.535 15.829 21.795C16.2797 22.055 16.505 22.432 16.505 22.926C16.505 23.3767 16.336 23.7537 15.998 24.057C15.6687 24.3517 15.1747 24.499 14.516 24.499C13.84 24.499 13.1467 24.3257 12.436 23.979L12.098 25.058C12.3927 25.214 12.7523 25.3483 13.177 25.461ZM23.7873 20.261C23.3973 20.0357 22.951 19.923 22.4483 19.923C22.0583 19.923 21.6813 19.9967 21.3173 20.144C20.962 20.2913 20.6543 20.4863 20.3943 20.729C20.5677 19.689 21.001 18.8873 21.6943 18.324C22.3877 17.752 23.2803 17.466 24.3723 17.466L24.2943 16.413C23.211 16.413 22.2707 16.6557 21.4733 17.141C20.676 17.6263 20.0693 18.2807 19.6533 19.104C19.2373 19.9273 19.0293 20.8417 19.0293 21.847C19.0293 22.5923 19.1463 23.251 19.3803 23.823C19.623 24.395 19.974 24.8413 20.4333 25.162C20.9013 25.474 21.456 25.63 22.0973 25.63C22.678 25.63 23.1893 25.5043 23.6313 25.253C24.082 25.0017 24.4287 24.6507 24.6713 24.2C24.9227 23.7407 25.0483 23.2163 25.0483 22.627C25.0483 22.0897 24.9357 21.6173 24.7103 21.21C24.4937 20.8027 24.186 20.4863 23.7873 20.261ZM23.2933 24.083C23.0073 24.4123 22.626 24.577 22.1493 24.577C21.5773 24.577 21.1267 24.33 20.7973 23.836C20.468 23.342 20.3033 22.666 20.3033 21.808V21.795C20.546 21.5437 20.8277 21.3443 21.1483 21.197C21.469 21.0497 21.8113 20.976 22.1753 20.976C22.6173 20.976 22.9857 21.1363 23.2803 21.457C23.575 21.769 23.7223 22.185 23.7223 22.705C23.7223 23.2857 23.5793 23.745 23.2933 24.083ZM27.5811 25.032C28.1184 25.4307 28.7684 25.63 29.5311 25.63C30.2851 25.63 30.9264 25.435 31.4551 25.045C31.9924 24.6463 32.3954 24.1003 32.6641 23.407C32.9328 22.705 33.0628 21.9033 33.0541 21.002C33.0541 20.1353 32.9241 19.3553 32.6641 18.662C32.4041 17.96 32.0098 17.4053 31.4811 16.998C30.9611 16.5907 30.3154 16.387 29.5441 16.387C28.7814 16.387 28.1314 16.5907 27.5941 16.998C27.0654 17.4053 26.6668 17.96 26.3981 18.662C26.1294 19.3553 25.9951 20.1397 25.9951 21.015C25.9951 21.8903 26.1251 22.679 26.3851 23.381C26.6538 24.0743 27.0524 24.6247 27.5811 25.032ZM31.1431 23.589C30.7704 24.2043 30.2374 24.512 29.5441 24.512C28.8421 24.512 28.2961 24.2043 27.9061 23.589C27.5248 22.965 27.3341 22.1027 27.3341 21.002C27.3341 19.91 27.5248 19.052 27.9061 18.428C28.2961 17.804 28.8421 17.492 29.5441 17.492C30.2288 17.492 30.7618 17.804 31.1431 18.428C31.5244 19.052 31.7151 19.91 31.7151 21.002C31.7151 22.1027 31.5244 22.965 31.1431 23.589ZM33.6994 19.429C34.0201 19.741 34.4361 19.897 34.9474 19.897C35.4674 19.897 35.8834 19.7367 36.1954 19.416C36.5161 19.0953 36.6764 18.6707 36.6764 18.142C36.6764 17.622 36.5161 17.206 36.1954 16.894C35.8834 16.5733 35.4718 16.413 34.9604 16.413C34.4491 16.413 34.0331 16.5733 33.7124 16.894C33.3918 17.2147 33.2314 17.635 33.2314 18.155C33.2314 18.6837 33.3874 19.1083 33.6994 19.429ZM35.6234 18.909C35.4501 19.0997 35.2248 19.195 34.9474 19.195C34.6701 19.195 34.4448 19.0997 34.2714 18.909C34.1068 18.7183 34.0244 18.467 34.0244 18.155C34.0244 17.843 34.1068 17.596 34.2714 17.414C34.4448 17.2233 34.6701 17.128 34.9474 17.128C35.2248 17.128 35.4501 17.2233 35.6234 17.414C35.8054 17.596 35.8964 17.843 35.8964 18.155C35.8964 18.467 35.8054 18.7183 35.6234 18.909Z"/>
</svg>
