<svg width="48" height="48" viewBox="0 0 48 48" xmlns="http://www.w3.org/2000/svg">
<path fill-rule="evenodd" clip-rule="evenodd" d="M17.8694 14.4198C16.8439 15.3466 16.3312 16.5792 16.3312 18.1173C16.3312 19.1625 16.6369 20.1189 17.2482 20.9866C17.8792 21.8543 18.6976 22.4755 19.7034 22.8502V22.9093C18.3624 23.5207 17.2975 24.3193 16.5087 25.3054C15.7199 26.2914 15.3255 27.3661 15.3255 28.5296C15.3255 30.1861 15.9072 31.5172 17.0707 32.523C18.2539 33.509 19.8118 34.002 21.7444 34.002C23.0262 34.002 24.1601 33.7653 25.1461 33.292C26.1322 32.8188 26.8914 32.1581 27.4238 31.3102C27.976 30.4425 28.2521 29.4367 28.2521 28.293C28.2521 27.1492 27.8478 26.104 27.0393 25.1575C26.2505 24.2109 25.1757 23.4714 23.815 22.9389V22.8798C24.9785 22.4065 25.8561 21.7163 26.4477 20.8091C27.0393 19.902 27.3351 18.9259 27.3351 17.8807C27.3351 16.4214 26.8322 15.248 25.8265 14.3606C24.8405 13.4535 23.5488 12.9999 21.9515 12.9999C20.2753 12.9999 18.9146 13.4732 17.8694 14.4198ZM24.8503 20.7796C24.1799 21.5881 23.3122 22.1501 22.2473 22.4656C20.7683 22.1304 19.6541 21.5881 18.9047 20.8387C18.1553 20.0696 17.7708 19.1132 17.7511 17.9694C17.7511 16.8651 18.1356 15.9876 18.9047 15.3368C19.6738 14.686 20.6795 14.3606 21.9219 14.3606C23.1051 14.3606 24.0615 14.686 24.7912 15.3368C25.5405 15.9678 25.9152 16.8257 25.9152 17.9103C25.8955 18.9949 25.5405 19.9513 24.8503 20.7796ZM18.0764 25.542C18.9047 24.6743 19.9893 24.0038 21.3303 23.5305C22.9079 23.9052 24.1996 24.5461 25.2053 25.4533C26.211 26.3604 26.7139 27.376 26.7139 28.5C26.7139 29.7424 26.2603 30.7383 25.3532 31.4876C24.4461 32.237 23.253 32.6117 21.774 32.6117C20.295 32.6117 19.1019 32.2272 18.1948 31.4581C17.3074 30.689 16.8637 29.6635 16.8637 28.3817C16.8637 27.3563 17.2679 26.4097 18.0764 25.542ZM11.9981 33.7062L12.1756 32.3159H8.09355V13.2957H7.50194L2 13.5028V14.8339H6.52579V32.3159H2.02958V33.7062H11.9981ZM32.4226 23.37H38.6049V29.7002H39.9656V23.37H46V22.1276H39.9656V15.8862H38.6049V22.1276H32.4226V23.37Z"/>
</svg>
