<svg width="48" height="48" viewBox="0 0 48 48" xmlns="http://www.w3.org/2000/svg">
<path fill-rule="evenodd" clip-rule="evenodd" d="M24.248 3.56588C24.0943 3.47804 23.9056 3.47804 23.7518 3.56588L6.25923 13.5617C6.18103 13.6045 6.11332 13.6688 6.06584 13.7519C6.01949 13.8331 5.99835 13.9217 5.99996 14.0088V34C5.99996 34.1794 6.09611 34.3451 6.25189 34.4341L23.7454 44.4304C23.8113 44.4695 23.887 44.4938 23.9678 44.499C23.9785 44.4997 23.9893 44.5 24 44.5C24.0053 44.5 24.0106 44.4999 24.016 44.4997C24.0245 44.4995 24.0331 44.499 24.0416 44.4983C24.1198 44.4918 24.1929 44.4674 24.2567 44.4291L41.748 34.4341C41.9038 34.3451 42 34.1794 42 34V14.0087C42.0015 13.925 41.982 13.8399 41.9394 13.7614L41.9324 13.749C41.9254 13.7369 41.9179 13.7251 41.9099 13.7137C41.8647 13.6489 41.8065 13.5977 41.7408 13.5617L24.248 3.56588ZM24.5 43.1384L41 33.7098V14.8616L24.5 24.2902V43.1384ZM23.5 24.2902L6.99996 14.8616V33.7098L23.5 43.1384V24.2902ZM40.4922 14L23.9999 4.57588L16.6327 8.78571L33.0629 18.1744C33.0831 18.1859 33.1023 18.1987 33.1202 18.2125L40.4922 14ZM7.50774 14L15.6436 9.35092C15.675 9.38274 15.7112 9.41086 15.7519 9.43412L32.1172 18.7857L24 23.4241L7.50774 14ZM8.56584 29.3234C8.70285 29.0836 9.00827 29.0003 9.24803 29.1373L13.748 31.7087C13.9878 31.8458 14.0711 32.1512 13.9341 32.3909C13.7971 32.6307 13.4917 32.714 13.2519 32.577L8.75189 30.0056C8.51214 29.8686 8.42884 29.5631 8.56584 29.3234ZM9.24803 31.5659C9.00827 31.4289 8.70285 31.5122 8.56584 31.7519C8.42884 31.9917 8.51214 32.2971 8.75189 32.4341L11.0019 33.7198C11.2417 33.8568 11.5471 33.7735 11.6841 33.5338C11.8211 33.294 11.7378 32.9886 11.498 32.8516L9.24803 31.5659Z"/>
</svg>
