<svg width="48" height="48" viewBox="0 0 48 48" xmlns="http://www.w3.org/2000/svg">
<path fill-rule="evenodd" clip-rule="evenodd" d="M3.00309 22.5923L4.27185 23.8611C4.34655 13.0356 13.1453 4.28296 23.9884 4.28296C31.5241 4.28296 38.0716 8.51056 41.3899 14.7211C41.5201 14.9646 41.4281 15.2675 41.1846 15.3977C40.941 15.5278 40.6381 15.4359 40.5079 15.1923C37.3565 9.29432 31.1405 5.28296 23.9884 5.28296C13.7072 5.28296 5.36202 13.5725 5.27211 23.8326L6.51236 22.5923C6.70762 22.3971 7.0242 22.3971 7.21946 22.5923C7.41473 22.7876 7.41473 23.1042 7.21946 23.2994L5.11128 25.4076C4.91601 25.6029 4.59943 25.6029 4.40417 25.4076L2.29598 23.2994C2.10072 23.1042 2.10072 22.7876 2.29598 22.5923C2.49124 22.3971 2.80783 22.3971 3.00309 22.5923ZM42.7045 24.1907L41.4876 25.4076C41.2923 25.6029 40.9757 25.6029 40.7805 25.4076C40.5852 25.2123 40.5852 24.8958 40.7805 24.7005L42.8886 22.5923C43.0839 22.3971 43.4005 22.3971 43.5957 22.5923L45.7039 24.7005C45.8992 24.8958 45.8992 25.2123 45.7039 25.4076C45.5087 25.6029 45.1921 25.6029 44.9968 25.4076L43.7051 24.1159C43.6428 34.952 34.8392 43.717 23.9884 43.717C16.4527 43.717 9.90526 39.4894 6.58691 33.2789C6.45678 33.0354 6.54872 32.7325 6.79228 32.6023C7.03584 32.4722 7.33877 32.5641 7.46891 32.8077C10.6203 38.7057 16.8363 42.717 23.9884 42.717C34.2619 42.717 42.6022 34.44 42.7045 24.1907ZM23.6982 10.6735C23.8519 10.5857 24.0406 10.5857 24.1943 10.6735L35.234 16.9818C35.3124 17.0247 35.3802 17.0891 35.4278 17.1723C35.4742 17.2535 35.4953 17.3421 35.4937 17.4292V30.046C35.4937 30.2254 35.3976 30.3911 35.2418 30.4801L24.1943 36.7929C24.113 36.8394 24.022 36.8613 23.9314 36.8586C23.8392 36.856 23.7532 36.8285 23.68 36.7825L12.6508 30.4801C12.4951 30.3911 12.3989 30.2254 12.3989 30.046V17.4292C12.3973 17.3421 12.4184 17.2535 12.4648 17.1723C12.5124 17.0891 12.5803 17.0247 12.6587 16.9818L23.6982 10.6735ZM34.4937 29.7558L24.4455 35.4976V24.0238L34.4937 18.282V29.7558ZM13.3989 18.282L23.4455 24.0229V35.4968L13.3989 29.7558V18.282ZM23.9463 11.6835L33.9859 17.4204L29.7062 19.8659L19.6666 14.129L23.9463 11.6835ZM18.6588 14.7049L13.9067 17.4204L23.9463 23.1573L28.6984 20.4418L18.6588 14.7049Z"/>
</svg>
