<svg width="48" height="48" viewBox="0 0 48 48" xmlns="http://www.w3.org/2000/svg">
<path fill-rule="evenodd" clip-rule="evenodd" d="M23.7518 3.56588C23.9056 3.47804 24.0943 3.47804 24.248 3.56588L41.7408 13.5617C41.8065 13.5977 41.8647 13.6489 41.9099 13.7137C41.9179 13.7251 41.9254 13.7369 41.9324 13.749L41.9394 13.7614C41.982 13.8399 42.0015 13.925 42 14.0087V25C42 25.2761 41.7761 25.5 41.5 25.5C41.2238 25.5 41 25.2761 41 25V14.8616L24.5 24.2902V43.1384L26.3769 42.0659C26.6166 41.9289 26.922 42.0122 27.059 42.2519C27.1961 42.4917 27.1128 42.7971 26.873 42.9341L24.2567 44.4291C24.1929 44.4674 24.1198 44.4918 24.0416 44.4983C24.0331 44.499 24.0245 44.4995 24.016 44.4997L24 44.5C23.9893 44.5 23.9785 44.4997 23.9678 44.499C23.887 44.4938 23.8113 44.4695 23.7454 44.4304L6.25189 34.4341C6.09611 34.3451 5.99996 34.1794 5.99996 34V14.0088C5.99835 13.9217 6.01949 13.8331 6.06584 13.7519C6.11332 13.6688 6.18103 13.6045 6.25923 13.5617L23.7518 3.56588ZM6.99996 14.8616L23.5 24.2902V43.1384L6.99996 33.7098V14.8616ZM23.9999 4.57588L40.4922 14L33.1202 18.2125C33.1023 18.1987 33.0831 18.1859 33.0629 18.1744L16.6327 8.78571L23.9999 4.57588ZM15.6436 9.35092L7.50774 14L24 23.4241L32.1172 18.7857L15.7519 9.43412C15.7112 9.41086 15.675 9.38274 15.6436 9.35092ZM9.24803 29.1373C9.00827 29.0003 8.70285 29.0836 8.56584 29.3233C8.42884 29.5631 8.51214 29.8685 8.75189 30.0055L13.2519 32.577C13.4917 32.714 13.7971 32.6307 13.9341 32.3909C14.0711 32.1511 13.9878 31.8457 13.748 31.7087L9.24803 29.1373ZM8.56584 31.7519C8.70285 31.5122 9.00827 31.4289 9.24803 31.5659L11.498 32.8516C11.7378 32.9886 11.8211 33.294 11.6841 33.5338C11.5471 33.7735 11.2417 33.8568 11.0019 33.7198L8.75189 32.4341C8.51214 32.2971 8.42884 31.9917 8.56584 31.7519ZM29.7674 35.1939C30.1684 31.6759 33.1555 28.943 36.7808 28.943C39.4779 28.943 41.8224 30.4553 43.0114 32.6805C43.1415 32.9241 43.4445 33.016 43.688 32.8859C43.9316 32.7558 44.0235 32.4528 43.8934 32.2093C42.5374 29.6715 39.8614 27.943 36.7808 27.943C32.5759 27.943 29.1231 31.1634 28.7543 35.2723L27.7965 34.3146C27.6013 34.1194 27.2847 34.1194 27.0894 34.3146C26.8942 34.5099 26.8942 34.8265 27.0894 35.0217L28.8681 36.8004C29.0633 36.9956 29.3799 36.9956 29.5752 36.8004L31.3538 35.0217C31.5491 34.8265 31.5491 34.5099 31.3538 34.3146C31.1585 34.1194 30.842 34.1194 30.6467 34.3146L29.7674 35.1939ZM45.7651 37.6897L44.8074 36.732C44.4386 40.841 40.9858 44.0614 36.7808 44.0614C33.7003 44.0614 31.0242 42.3328 29.6683 39.7951C29.5381 39.5515 29.6301 39.2486 29.8736 39.1184C30.1172 38.9883 30.4201 39.0803 30.5503 39.3238C31.7392 41.549 34.0838 43.0614 36.7808 43.0614C40.4062 43.0614 43.3933 40.3285 43.7943 36.8104L42.915 37.6897C42.7197 37.885 42.4031 37.885 42.2079 37.6897C42.0126 37.4945 42.0126 37.1779 42.2079 36.9826L43.9865 35.204C44.1817 35.0087 44.4983 35.0087 44.6936 35.204L46.4722 36.9826C46.6675 37.1779 46.6675 37.4945 46.4722 37.6897C46.277 37.885 45.9604 37.885 45.7651 37.6897Z"/>
</svg>
