<svg width="48" height="48" viewBox="0 0 48 48" xmlns="http://www.w3.org/2000/svg">
<path fill-rule="evenodd" clip-rule="evenodd" d="M7.5 11C6.11929 11 5 12.1193 5 13.5V33.5C5 34.8807 6.11929 36 7.5 36H34.5C35.3284 36 36 35.3284 36 34.5C36 34.2239 35.7761 34 35.5 34C35.2239 34 35 34.2239 35 34.5C35 34.7761 34.7761 35 34.5 35H7.5C6.67157 35 6 34.3284 6 33.5V21.5H26C26.2761 21.5 26.5 21.2761 26.5 21C26.5 20.7239 26.2761 20.5 26 20.5H6V17.5H28.5C28.7761 17.5 29 17.2761 29 17C29 16.7239 28.7761 16.5 28.5 16.5H6V13.5C6 12.6716 6.67157 12 7.5 12H33.5C34.3284 12 35 12.6716 35 13.5V14V14.5C35 14.7761 35.2239 15 35.5 15C35.7761 15 36 14.7761 36 14.5V14V13.5C36 12.1193 34.8807 11 33.5 11H7.5ZM18.25 27.5H8.5V26.5H18.25V27.5ZM21.25 30.5H8.5V29.5H21.25V30.5ZM35.5 17.5C37.2622 17.5 38.8723 18.1512 40.1029 19.226L30.226 29.1029C29.1512 27.8723 28.5 26.2622 28.5 24.5C28.5 20.634 31.634 17.5 35.5 17.5ZM40.8074 19.9357L30.9357 29.8074C32.1612 30.8623 33.7561 31.5 35.5 31.5C39.366 31.5 42.5 28.366 42.5 24.5C42.5 22.7561 41.8623 21.1612 40.8074 19.9357ZM43.5 24.5C43.5 28.9183 39.9183 32.5 35.5 32.5C31.0817 32.5 27.5 28.9183 27.5 24.5C27.5 20.0817 31.0817 16.5 35.5 16.5C39.9183 16.5 43.5 20.0817 43.5 24.5Z"/>
</svg>
