<svg width="48" height="48" viewBox="0 0 48 48" xmlns="http://www.w3.org/2000/svg">
<path fill-rule="evenodd" clip-rule="evenodd" d="M6 13H42C42.5523 13 43 13.4477 43 14V17H5V14C5 13.4477 5.44771 13 6 13ZM5 18V21H43V18H5ZM43 22H5V34C5 34.5523 5.44772 35 6 35H42C42.5523 35 43 34.5523 43 34V22ZM4 14C4 12.8954 4.89543 12 6 12H42C43.1046 12 44 12.8954 44 14V34C44 35.1046 43.1046 36 42 36H6C4.89543 36 4 35.1046 4 34V14ZM21 28H8V27H21V28ZM25 31H8V30H25V31ZM39 28.5C39 29.3284 38.3284 30 37.5 30C36.6716 30 36 29.3284 36 28.5C36 27.6716 36.6716 27 37.5 27C38.3284 27 39 27.6716 39 28.5ZM40 28.5C40 29.8807 38.8807 31 37.5 31C36.1193 31 35 29.8807 35 28.5C35 27.1193 36.1193 26 37.5 26C38.8807 26 40 27.1193 40 28.5Z"/>
</svg>
