<svg width="48" height="48" viewBox="0 0 48 48" xmlns="http://www.w3.org/2000/svg">
<path fill-rule="evenodd" clip-rule="evenodd" d="M7.54217 9.29247L8.24955 12.5595C11.7964 7.71825 17.5307 4.57257 24.001 4.57257C34.7703 4.57257 43.5021 13.2863 43.5021 24.0373C43.5021 34.7883 34.7703 43.5021 24.001 43.5021C13.2318 43.5021 4.5 34.7883 4.5 24.0373C4.5 23.7612 4.72386 23.5373 5 23.5373C5.27614 23.5373 5.5 23.7612 5.5 24.0373C5.5 34.2342 13.7823 42.5021 24.001 42.5021C34.2198 42.5021 42.5021 34.2342 42.5021 24.0373C42.5021 13.8404 34.2198 5.57257 24.001 5.57257C17.9121 5.57257 12.51 8.50793 9.13809 13.0396L12.298 12.3554C12.5679 12.297 12.8341 12.4684 12.8925 12.7383C12.951 13.0082 12.7796 13.2743 12.5097 13.3328L8.11158 14.285C7.84169 14.3435 7.57553 14.1721 7.51709 13.9022L6.56482 9.50408C6.50638 9.23419 6.6778 8.96803 6.94769 8.9096C7.21757 8.85116 7.48373 9.02258 7.54217 9.29247ZM32 20.9478C32 24.6376 29.0857 26.9231 24.2 26.9231H20.4V29.5391H28.8947C29.2369 29.5391 29.5143 29.8165 29.5143 30.1586C29.5143 30.5008 29.2369 30.7782 28.8947 30.7782H20.4V33.2285C20.4 33.6546 20.0546 33.9999 19.6286 33.9999C19.2025 33.9999 18.8571 33.6546 18.8571 33.2285V30.7782H17.6196C17.2774 30.7782 17 30.5008 17 30.1586C17 29.8165 17.2774 29.5391 17.6196 29.5391H18.8571V26.9231H17.6196C17.2774 26.9231 17 26.6457 17 26.3036C17 25.9614 17.2774 25.684 17.6196 25.684H18.8571V14.9999H24.2C29.2286 14.9999 32 17.1478 32 20.9478ZM24.2 16.2115H20.4V25.684H24.2C28.1143 25.684 30.4571 23.8666 30.4571 20.9478C30.4571 17.8912 28.2857 16.2115 24.2 16.2115Z"/>
</svg>
