<svg width="48" height="48" viewBox="0 0 48 48" xmlns="http://www.w3.org/2000/svg">
<path fill-rule="evenodd" clip-rule="evenodd" d="M15.9468 7.04176C15.2201 6.64385 14.3085 6.9103 13.9106 7.63691L12.4742 10.2598C12.3416 10.502 12.4304 10.8059 12.6726 10.9385C12.9148 11.0712 13.2187 10.9823 13.3513 10.7401L14.7877 8.11723C14.9204 7.87503 15.2242 7.78621 15.4664 7.91885L27.2598 14.3774C27.502 14.51 27.8059 14.4212 27.9385 14.179C28.0712 13.9368 27.9824 13.6329 27.7402 13.5003L15.9468 7.04176ZM7.32243 11.8682C7.50154 11.0594 8.30242 10.5489 9.11126 10.728L34.1081 16.2632C34.3777 16.323 34.5479 16.5899 34.4882 16.8595C34.4285 17.1291 34.1615 17.2993 33.8919 17.2396L8.89506 11.7044C8.62545 11.6447 8.35849 11.8148 8.29878 12.0844L7.2414 16.8595C7.1817 17.1291 6.91473 17.2993 6.64512 17.2396C6.37551 17.1799 6.20535 16.9129 6.26505 16.6433L7.32243 11.8682ZM43 19H5L5 37H43V19ZM5 18C4.44772 18 4 18.4477 4 19V37C4 37.5523 4.44771 38 5 38H43C43.5523 38 44 37.5523 44 37V19C44 18.4477 43.5523 18 43 18H5ZM10.4142 22C10.2816 22 10.1544 22.0527 10.0607 22.1464L8.14645 24.0606C8.05268 24.1544 8 24.2816 8 24.4142V31.5858C8 31.7184 8.05268 31.8456 8.14645 31.9393L10.0607 33.8535C10.1544 33.9473 10.2816 34 10.4142 34H17.5C17.7761 34 18 34.2238 18 34.5C18 34.7761 17.7761 35 17.5 35H10.4142C10.0164 35 9.63486 34.8419 9.35355 34.5606L7.43934 32.6464C7.15804 32.3651 7 31.9836 7 31.5858V24.4142C7 24.0164 7.15804 23.6348 7.43934 23.3535L9.35355 21.4393C9.63486 21.158 10.0164 21 10.4142 21H17.5C17.7761 21 18 21.2238 18 21.5C18 21.7761 17.7761 22 17.5 22H10.4142ZM30 21.5C30 21.2238 30.2239 21 30.5 21H37.5858C37.9836 21 38.3651 21.158 38.6464 21.4393L40.5607 23.3535C40.842 23.6348 41 24.0164 41 24.4142V31.5858C41 31.9836 40.842 32.3651 40.5607 32.6464L38.6464 34.5606C38.3651 34.8419 37.9836 35 37.5858 35H30.5C30.2239 35 30 34.7761 30 34.5C30 34.2238 30.2239 34 30.5 34H37.5858C37.7184 34 37.8456 33.9473 37.9393 33.8535L39.8536 31.9393C39.9473 31.8456 40 31.7184 40 31.5858V24.4142C40 24.2816 39.9473 24.1544 39.8536 24.0606L37.9393 22.1464C37.8456 22.0527 37.7184 22 37.5858 22H30.5C30.2239 22 30 21.7761 30 21.5ZM30 28C30 31.3137 27.3137 34 24 34C20.6863 34 18 31.3137 18 28C18 24.6863 20.6863 22 24 22C27.3137 22 30 24.6863 30 28ZM31 28C31 31.866 27.866 35 24 35C20.134 35 17 31.866 17 28C17 24.134 20.134 21 24 21C27.866 21 31 24.134 31 28ZM22 24C22 23.7238 22.2239 23.5 22.5 23.5H24.5C25.3477 23.5 26.1088 23.7527 26.6603 24.2868C27.2145 24.8235 27.5 25.5889 27.5 26.5C27.5 27.3733 27.2003 28.0428 26.6031 28.4693C26.0396 28.8719 25.2884 29 24.5 29H24.4977H24.4953H24.4929H24.4905H24.4881H24.4857H24.4833H24.4809H24.4784H24.476H24.4735H24.471H24.4685H24.466H24.4635H24.461H24.4584H24.4559H24.4533H24.4507H24.4481H24.4455H24.4429H24.4403H24.4377H24.435H24.4324H24.4297H24.427H24.4244H24.4217H24.4189H24.4162H24.4135H24.4107H24.408H24.4052H24.4025H24.3997H24.3969H24.3941H24.3912H24.3884H24.3856H24.3827H24.3799H24.377H24.3741H24.3712H24.3683H24.3654H24.3625H24.3595H24.3566H24.3536H24.3507H24.3477H24.3447H24.3417H24.3387H24.3357H24.3326H24.3296H24.3266H24.3235H24.3204H24.3174H24.3143H24.3112H24.3081H24.305H24.3018H24.2987H24.2956H24.2924H24.2892H24.2861H24.2829H24.2797H24.2765H24.2733H24.2701H24.2668H24.2636H24.2603H24.2571H24.2538H24.2505H24.2473H24.244H24.2407H24.2374H24.234H24.2307H24.2274H24.224H24.2207H24.2173H24.2139H24.2106H24.2072H24.2038H24.2004H24.1969H24.1935H24.1901H24.1866H24.1832H24.1797H24.1763H24.1728H24.1693H24.1658H24.1623H24.1588H24.1553H24.1518H24.1482H24.1447H24.1412H24.1376H24.134H24.1305H24.1269H24.1233H24.1197H24.1161H24.1125H24.1089H24.1053H24.1016H24.098H24.0943H24.0907H24.087H24.0834H24.0797H24.076H24.0723H24.0686H24.0649H24.0612H24.0575H24.0537H24.05H24.0463H24.0425H24.0388H24.035H24.0312H24.0274H24.0237H24.0199H24.0161H24.0123H24.0085H24.0047H24.0008H23.997H23.9932H23.9893H23.9855H23.9816H23.9778H23.9739H23.97H23.9661H23.9622H23.9584H23.9545H23.9506H23.9466H23.9427H23.9388H23.9349H23.9309H23.927H23.923H23.9191H23.9151H23.9112H23.9072H23.9032H23.8992H23.8953H23.8913H23.8873H23.8833H23.8792H23.8752H23.8712H23.8672H23.8632H23.8591H23.8551H23.851H23.847H23.8429H23.8389H23.8348H23.8307H23.8266H23.8226H23.8185H23.8144H23.8103H23.8062H23.8021H23.798H23.7938H23.7897H23.7856H23.7815H23.7773H23.7732H23.7691H23.7649H23.7607H23.7566H23.7524H23.7483H23.7441H23.7399H23.7357H23.7316H23.7274H23.7232H23.719H23.7148H23.7106H23.7064H23.7022H23.6979H23.6937H23.6895H23.6853H23.681H23.6768H23.6726H23.6683H23.6641H23.6598H23.6556H23.6513H23.6471H23.6428H23.6385H23.6343H23.63H23.6257H23.6214H23.6172H23.6129H23.6086H23.6043H23.6H23.5957H23.5914H23.5871H23.5828H23.5785H23.5742H23.5698H23.5655H23.5612H23.5569H23.5526H23.5482H23.5439H23.5396H23.5352H23.5309H23.5265H23.5222H23.5178H23.5135H23.5091H23.5048H23.5004H23.4961H23.4917H23.4874H23.483H23.4786H23.4743H23.4699H23.4655H23.4611H23.4568H23.4524H23.448H23.4436H23.4392H23.4348H23.4305H23.4261H23.4217H23.4173H23.4129H23.4085H23.4041H23.3997H23.3953H23.3909H23.3865H23.3821H23.3777H23.3733H23.3689H23.3645H23.36H23.3556H23.3512H23.3468H23.3424H23.338H23.3336H23.3291H23.3247H23.3203H23.3159H23.3115H23.3071H23.3026H23.2982H23.2938H23.2894H23.2849H23.2805H23.2761H23.2717H23.2672H23.2628H23.2584H23.254H23.2495H23.2451H23.2407H23.2363H23.2318H23.2274H23.223H23.2185H23.2141H23.2097H23.2053H23.2008H23.1964H23.192H23.1876H23.1831H23.1787H23.1743H23.1699H23.1654H23.161H23.1566H23.1522H23.1477H23.1433H23.1389H23.1345H23.1301H23.1256H23.1212H23.1168H23.1124H23.108H23.1036H23.0992H23.0947H23.0903H23.0859H23.0815H23.0771H23.0727H23.0683H23.0639H23.0595H23.0551H23.0507H23.0463H23.0419H23.0375H23.0331H23.0287H23.0243H23.0199H23.0155H23.0112H23.0068H23.0024H23V30H25.5C25.7761 30 26 30.2238 26 30.5C26 30.7761 25.7761 31 25.5 31H23V31.5C23 31.7761 22.7761 32 22.5 32C22.2239 32 22 31.7761 22 31.5V31H21.5C21.2239 31 21 30.7761 21 30.5C21 30.2238 21.2239 30 21.5 30H22V28.5V24ZM23 28H23.0024H23.0068H23.0112H23.0155H23.0199H23.0243H23.0287H23.0331H23.0375H23.0419H23.0463H23.0507H23.0551H23.0595H23.0639H23.0683H23.0727H23.0771H23.0815H23.0859H23.0903H23.0947H23.0992H23.1036H23.108H23.1124H23.1168H23.1212H23.1256H23.1301H23.1345H23.1389H23.1433H23.1477H23.1522H23.1566H23.161H23.1654H23.1699H23.1743H23.1787H23.1831H23.1876H23.192H23.1964H23.2008H23.2053H23.2097H23.2141H23.2185H23.223H23.2274H23.2318H23.2363H23.2407H23.2451H23.2495H23.254H23.2584H23.2628H23.2672H23.2717H23.2761H23.2805H23.2849H23.2894H23.2938H23.2982H23.3026H23.3071H23.3115H23.3159H23.3203H23.3247H23.3291H23.3336H23.338H23.3424H23.3468H23.3512H23.3556H23.36H23.3645H23.3689H23.3733H23.3777H23.3821H23.3865H23.3909H23.3953H23.3997H23.4041H23.4085H23.4129H23.4173H23.4217H23.4261H23.4305H23.4348H23.4392H23.4436H23.448H23.4524H23.4568H23.4611H23.4655H23.4699H23.4743H23.4786H23.483H23.4874H23.4917H23.4961H23.5004H23.5048H23.5091H23.5135H23.5178H23.5222H23.5265H23.5309H23.5352H23.5396H23.5439H23.5482H23.5526H23.5569H23.5612H23.5655H23.5698H23.5742H23.5785H23.5828H23.5871H23.5914H23.5957H23.6H23.6043H23.6086H23.6129H23.6172H23.6214H23.6257H23.63H23.6343H23.6385H23.6428H23.6471H23.6513H23.6556H23.6598H23.6641H23.6683H23.6726H23.6768H23.681H23.6853H23.6895H23.6937H23.6979H23.7022H23.7064H23.7106H23.7148H23.719H23.7232H23.7274H23.7316H23.7357H23.7399H23.7441H23.7483H23.7524H23.7566H23.7607H23.7649H23.7691H23.7732H23.7773H23.7815H23.7856H23.7897H23.7938H23.798H23.8021H23.8062H23.8103H23.8144H23.8185H23.8226H23.8266H23.8307H23.8348H23.8389H23.8429H23.847H23.851H23.8551H23.8591H23.8632H23.8672H23.8712H23.8752H23.8792H23.8833H23.8873H23.8913H23.8953H23.8992H23.9032H23.9072H23.9112H23.9151H23.9191H23.923H23.927H23.9309H23.9349H23.9388H23.9427H23.9466H23.9506H23.9545H23.9584H23.9622H23.9661H23.97H23.9739H23.9778H23.9816H23.9855H23.9893H23.9932H23.997H24.0008H24.0047H24.0085H24.0123H24.0161H24.0199H24.0237H24.0274H24.0312H24.035H24.0388H24.0425H24.0463H24.05H24.0537H24.0575H24.0612H24.0649H24.0686H24.0723H24.076H24.0797H24.0834H24.087H24.0907H24.0943H24.098H24.1016H24.1053H24.1089H24.1125H24.1161H24.1197H24.1233H24.1269H24.1305H24.134H24.1376H24.1412H24.1447H24.1482H24.1518H24.1553H24.1588H24.1623H24.1658H24.1693H24.1728H24.1763H24.1797H24.1832H24.1866H24.1901H24.1935H24.1969H24.2004H24.2038H24.2072H24.2106H24.2139H24.2173H24.2207H24.224H24.2274H24.2307H24.234H24.2374H24.2407H24.244H24.2473H24.2505H24.2538H24.2571H24.2603H24.2636H24.2668H24.2701H24.2733H24.2765H24.2797H24.2829H24.2861H24.2892H24.2924H24.2956H24.2987H24.3018H24.305H24.3081H24.3112H24.3143H24.3174H24.3204H24.3235H24.3266H24.3296H24.3326H24.3357H24.3387H24.3417H24.3447H24.3477H24.3507H24.3536H24.3566H24.3595H24.3625H24.3654H24.3683H24.3712H24.3741H24.377H24.3799H24.3827H24.3856H24.3884H24.3912H24.3941H24.3969H24.3997H24.4025H24.4052H24.408H24.4107H24.4135H24.4162H24.4189H24.4217H24.4244H24.427H24.4297H24.4324H24.435H24.4377H24.4403H24.4429H24.4455H24.4481H24.4507H24.4533H24.4559H24.4584H24.461H24.4635H24.466H24.4685H24.471H24.4735H24.476H24.4784H24.4809H24.4833H24.4857H24.4881H24.4905H24.4929H24.4953H24.4977H24.5C25.2116 28 25.7104 27.8781 26.0219 27.6556C26.2997 27.4572 26.5 27.1267 26.5 26.5C26.5 25.8004 26.2855 25.3158 25.9647 25.0052C25.6412 24.6919 25.1523 24.5 24.5 24.5H23V28Z"/>
</svg>
