<svg width="48" height="48" viewBox="0 0 48 48" xmlns="http://www.w3.org/2000/svg">
<path fill-rule="evenodd" clip-rule="evenodd" d="M17.6678 15.1671C17.6678 11.7611 20.429 8.99994 23.8352 8.99994C27.2414 8.99994 30.0026 11.7611 30.0026 15.1671C30.0026 18.5732 27.2414 21.3344 23.8352 21.3344C20.429 21.3344 17.6678 18.5732 17.6678 15.1671ZM23.8352 7.99994C19.8768 7.99994 16.6678 11.2088 16.6678 15.1671C16.6678 19.1255 19.8768 22.3344 23.8352 22.3344C27.7936 22.3344 31.0026 19.1255 31.0026 15.1671C31.0026 11.2088 27.7936 7.99994 23.8352 7.99994ZM11 37.6696C11 34.4157 11.8138 31.8082 12.9995 30.0296C14.1897 28.2444 15.7192 27.3354 17.1674 27.3354C18.7162 27.3354 19.4678 27.7111 20.2701 28.1123L20.2774 28.116C21.1392 28.5468 22.0546 29.0022 23.8347 29.0022C25.6149 29.0022 26.5303 28.5468 27.392 28.116L27.3994 28.1123C28.2017 27.7111 28.9533 27.3354 30.5021 27.3354C31.9503 27.3354 33.4798 28.2444 34.67 30.0296C35.8557 31.8082 36.6695 34.4157 36.6695 37.6696V39.6698H11V37.6696ZM17.1674 26.3354C15.2818 26.3354 13.4776 27.5098 12.1675 29.4749C10.853 31.4467 9.99996 34.2562 9.99996 37.6696V40.1698C9.99996 40.4459 10.2238 40.6698 10.5 40.6698H37.1695C37.4457 40.6698 37.6695 40.4459 37.6695 40.1698V37.6696C37.6695 34.2562 36.8165 31.4467 35.502 29.4749C34.1919 27.5098 32.3877 26.3354 30.5021 26.3354C28.722 26.3354 27.8066 26.7907 26.9448 27.2215L26.9375 27.2252C26.1351 27.6264 25.3836 28.0022 23.8347 28.0022C22.2859 28.0022 21.5343 27.6264 20.732 27.2252L20.7247 27.2215C19.8629 26.7907 18.9475 26.3354 17.1674 26.3354ZM35 22.3948C35 20.5199 36.5199 18.9999 38.3948 18.9999C40.2697 18.9999 41.7897 20.5199 41.7897 22.3948C41.7897 24.2697 40.2697 25.7896 38.3948 25.7896C36.5199 25.7896 35 24.2697 35 22.3948ZM38.3948 17.9999C35.9676 17.9999 34 19.9676 34 22.3948C34 24.8219 35.9676 26.7896 38.3948 26.7896C40.822 26.7896 42.7897 24.8219 42.7897 22.3948C42.7897 19.9676 40.822 17.9999 38.3948 17.9999ZM42.29 28.7103C41.203 28.7103 40.6341 28.9924 40.119 29.25L40.1115 29.2537C39.656 29.4815 39.2509 29.684 38.3951 29.684C38.119 29.684 37.8951 29.9079 37.8951 30.184C37.8951 30.4602 38.119 30.684 38.3951 30.684C39.4821 30.684 40.051 30.402 40.5662 30.1444L40.5737 30.1406C41.0292 29.9129 41.4343 29.7103 42.29 29.7103C43.045 29.7103 43.8814 30.1862 44.5517 31.1917C45.2176 32.1905 45.6848 33.6717 45.6848 35.5394V36.4999H39.3951C39.119 36.4999 38.8951 36.7238 38.8951 36.9999C38.8951 37.2761 39.119 37.4999 39.3951 37.4999H46.1848C46.461 37.4999 46.6848 37.2761 46.6848 36.9999V35.5394C46.6848 33.5122 46.1784 31.829 45.3837 30.637C44.5935 29.4516 43.4824 28.7103 42.29 28.7103ZM9.29004 19.1269C11.165 19.1269 12.6849 20.6468 12.6849 22.5217C12.6849 24.3966 11.165 25.9165 9.29004 25.9165C7.41511 25.9165 5.89518 24.3966 5.89518 22.5217C5.89518 20.6468 7.41511 19.1269 9.29004 19.1269ZM13.6849 22.5217C13.6849 20.0945 11.7172 18.1269 9.29004 18.1269C6.86283 18.1269 4.89519 20.0945 4.89519 22.5217C4.89519 24.9489 6.86283 26.9165 9.29004 26.9165C11.7172 26.9165 13.6849 24.9489 13.6849 22.5217ZM7.56589 29.3769C7.05073 29.1193 6.48185 28.8373 5.39485 28.8373C4.20247 28.8373 3.09138 29.5785 2.30112 30.7639C1.50643 31.9559 1 33.6392 1 35.6664V37.1269C1 37.403 1.22386 37.6269 1.5 37.6269H8.28971C8.56585 37.6269 8.78971 37.403 8.78971 37.1269C8.78971 36.8507 8.56585 36.6269 8.28971 36.6269H2V35.6664C2 33.7987 2.46728 32.3174 3.13317 31.3186C3.80348 30.3132 4.63981 29.8373 5.39485 29.8373C6.25058 29.8373 6.65569 30.0398 7.11117 30.2676L7.11868 30.2713C7.63383 30.5289 8.20271 30.811 9.28971 30.811C9.56585 30.811 9.78971 30.5871 9.78971 30.311C9.78971 30.0348 9.56585 29.811 9.28971 29.811C8.43398 29.811 8.02887 29.6084 7.57339 29.3807L7.56589 29.3769Z"/>
</svg>
