<svg width="48" height="48" viewBox="0 0 48 48" xmlns="http://www.w3.org/2000/svg">
<path fill-rule="evenodd" clip-rule="evenodd" d="M5 18V13L32 13V18.5V31L17.2092 31C16.6159 29.5341 15.1787 28.5 13.5 28.5C11.8213 28.5 10.3841 29.5341 9.79076 31H5V23H15.5C15.7761 23 16 22.7761 16 22.5C16 22.2239 15.7761 22 15.5 22H5V19H22C22.2761 19 22.5 18.7761 22.5 18.5C22.5 18.2239 22.2761 18 22 18H5ZM4 18.5V12.5C4 12.2239 4.22386 12 4.5 12L32.5 12C32.6326 12 32.7598 12.0527 32.8536 12.1464C32.9473 12.2402 33 12.3674 33 12.5V18H36.5H40.5C40.683 18 40.8513 18.0999 40.9389 18.2606L43.9389 23.7606C43.979 23.834 44 23.9163 44 24V31.5C44 31.7761 43.7761 32 43.5 32H40.4691C40.4895 32.1638 40.5 32.3307 40.5 32.5C40.5 34.7091 38.7091 36.5 36.5 36.5C34.2909 36.5 32.5 34.7091 32.5 32.5C32.5 32.3307 32.5105 32.1638 32.5309 32H32.5L17.4691 32C17.4895 32.1638 17.5 32.3307 17.5 32.5C17.5 34.7091 15.7091 36.5 13.5 36.5C11.2909 36.5 9.5 34.7091 9.5 32.5C9.5 32.3307 9.51052 32.1638 9.53095 32H4.5C4.22386 32 4 31.7762 4 31.5V22.5V18.5ZM43 31H40.2092C39.6159 29.5341 38.1787 28.5 36.5 28.5C34.994 28.5 33.6824 29.3323 33 30.562V19H36V25.5C36 25.7761 36.2239 26 36.5 26H43V31ZM37 25V19H40.2032L43 24.1275V25H37ZM10.5 32.5C10.5 30.8432 11.8431 29.5 13.5 29.5C15.1569 29.5 16.5 30.8432 16.5 32.5C16.5 34.1569 15.1569 35.5 13.5 35.5C11.8431 35.5 10.5 34.1569 10.5 32.5ZM12.5 32.5C12.5 31.9477 12.9477 31.5 13.5 31.5C14.0523 31.5 14.5 31.9477 14.5 32.5C14.5 33.0523 14.0523 33.5 13.5 33.5C12.9477 33.5 12.5 33.0523 12.5 32.5ZM36.5 31.5C35.9477 31.5 35.5 31.9477 35.5 32.5C35.5 33.0523 35.9477 33.5 36.5 33.5C37.0523 33.5 37.5 33.0523 37.5 32.5C37.5 31.9477 37.0523 31.5 36.5 31.5ZM36.5 29.5C34.8431 29.5 33.5 30.8432 33.5 32.5C33.5 34.1569 34.8431 35.5 36.5 35.5C38.1569 35.5 39.5 34.1569 39.5 32.5C39.5 30.8432 38.1569 29.5 36.5 29.5Z"/>
</svg>
