<svg width="22" height="22" viewBox="0 0 22 22" xmlns="http://www.w3.org/2000/svg">
<path fill-rule="evenodd" clip-rule="evenodd" d="M2.6624 13.8375V6.32915L14.2957 6.32915V8.47915V13.8375L8.12134 13.8375C7.74684 13.1546 7.02119 12.6917 6.1874 12.6917C5.35362 12.6917 4.62796 13.1546 4.25347 13.8375H2.6624ZM14.5294 15.0375L8.38709 15.0375C8.31406 16.1888 7.35714 17.1 6.1874 17.1C5.01766 17.1 4.06075 16.1888 3.98772 15.0375H2.0624C1.73103 15.0375 1.4624 14.7689 1.4624 14.4375V5.72915C1.4624 5.39778 1.73103 5.12915 2.0624 5.12915L14.8957 5.12915C15.0549 5.12915 15.2075 5.19236 15.32 5.30489C15.4325 5.41741 15.4957 5.57002 15.4957 5.72915V7.87915H18.5624C18.782 7.87915 18.984 7.99909 19.0891 8.19184L20.4641 10.7127C20.5122 10.8008 20.5374 10.8996 20.5374 11V14.4375C20.5374 14.7689 20.2688 15.0375 19.9374 15.0375H18.9288C18.8557 16.1888 17.8988 17.1 16.7291 17.1C15.5593 17.1 14.6024 16.1888 14.5294 15.0375ZM15.4957 13.0687C15.8477 12.8307 16.2722 12.6917 16.7291 12.6917C17.5629 12.6917 18.2885 13.1546 18.663 13.8375H19.3374V11.153L18.2062 9.07915H15.4957V13.0687ZM6.1874 13.8917C5.63282 13.8917 5.18324 14.3412 5.18324 14.8958C5.18324 15.4504 5.63282 15.9 6.1874 15.9C6.74199 15.9 7.19157 15.4504 7.19157 14.8958C7.19157 14.3412 6.74199 13.8917 6.1874 13.8917ZM15.7249 14.8958C15.7249 14.3412 16.1745 13.8917 16.7291 13.8917C17.2837 13.8917 17.7332 14.3412 17.7332 14.8958C17.7332 15.4504 17.2837 15.9 16.7291 15.9C16.1745 15.9 15.7249 15.4504 15.7249 14.8958Z"/>
</svg>
