<svg width="48" height="48" viewBox="0 0 48 48" xmlns="http://www.w3.org/2000/svg">
<path fill-rule="evenodd" clip-rule="evenodd" d="M5 24C5 13.5066 13.5066 5 24 5C28.7384 5 33.0706 6.73391 36.3986 9.6025C36.6077 9.78279 36.9235 9.75939 37.1037 9.55022C37.284 9.34106 37.2606 9.02534 37.0515 8.84505C33.5488 5.82592 28.987 4 24 4C12.9543 4 4 12.9543 4 24C4 35.0457 12.9543 44 24 44C35.0457 44 44 35.0457 44 24C44 21.5586 43.5623 19.2183 42.7607 17.054C42.6648 16.795 42.3771 16.6629 42.1182 16.7588C41.8592 16.8547 41.7271 17.1424 41.823 17.4013C42.584 19.4561 43 21.6789 43 24C43 34.4934 34.4934 43 24 43C13.5066 43 5 34.4934 5 24ZM42.3536 11.3536C42.5488 11.1583 42.5488 10.8417 42.3536 10.6464C42.1583 10.4512 41.8417 10.4512 41.6464 10.6464L22.5 29.7929L14.3536 21.6464C14.1583 21.4512 13.8417 21.4512 13.6464 21.6464C13.4512 21.8417 13.4512 22.1583 13.6464 22.3536L22.1464 30.8536C22.3417 31.0488 22.6583 31.0488 22.8536 30.8536L42.3536 11.3536Z"/>
</svg>
