<svg width="48" height="48" viewBox="0 0 48 48" xmlns="http://www.w3.org/2000/svg">
<path fill-rule="evenodd" clip-rule="evenodd" d="M37 8.70001C32.9683 8.70001 29.7 11.9683 29.7 16C29.7 20.0317 32.9683 23.3 37 23.3C41.0316 23.3 44.2999 20.0317 44.2999 16C44.2999 15.1077 44.1401 14.2538 43.8478 13.4647C43.7519 13.2058 43.8841 12.9181 44.143 12.8222C44.402 12.7263 44.6897 12.8585 44.7856 13.1174C45.1184 14.016 45.2999 14.9874 45.2999 16C45.2999 20.584 41.5839 24.3 37 24.3C32.416 24.3 28.7 20.584 28.7 16C28.7 11.416 32.416 7.70001 37 7.70001C39.0693 7.70001 40.963 8.45799 42.4164 9.7108C42.6256 9.89109 42.649 10.2068 42.4687 10.416C42.2884 10.6251 41.9727 10.6485 41.7635 10.4682C40.4847 9.36597 38.8207 8.70001 37 8.70001ZM4.64645 15.6464C4.74021 15.5527 4.86739 15.5 5 15.5H26C26.2761 15.5 26.5 15.7239 26.5 16C26.5 16.2761 26.2761 16.5 26 16.5H6.26439L16.542 26.1352L21 30.3146L25.658 25.9477L28.408 23.3696C28.6095 23.1807 28.9259 23.1909 29.1148 23.3924C29.3036 23.5939 29.2934 23.9103 29.092 24.0991L26.7075 26.3346L36.5 36.7392V27C36.5 26.7239 36.7239 26.5 37 26.5C37.2761 26.5 37.5 26.7239 37.5 27V38C37.5 38.2761 37.2761 38.5 37 38.5H5C4.72386 38.5 4.5 38.2761 4.5 38V16C4.5 15.8674 4.55268 15.7402 4.64645 15.6464ZM35.8428 37.5L25.9779 27.0186L21.342 31.3648C21.1496 31.5451 20.8504 31.5451 20.658 31.3648L16.2159 27.2003L6.1849 37.5H35.8428ZM5.5 36.77V17.1541L15.4863 26.5162L5.5 36.77ZM44.5536 11.1535C44.7488 10.9583 44.7488 10.6417 44.5536 10.4464C44.3583 10.2512 44.0417 10.2512 43.8464 10.4464L36.4 17.8929L33.3536 14.8464C33.1583 14.6512 32.8417 14.6512 32.6464 14.8464C32.4512 15.0417 32.4512 15.3583 32.6464 15.5535L36.0464 18.9535C36.2417 19.1488 36.5583 19.1488 36.7536 18.9535L44.5536 11.1535Z"/>
</svg>
