<svg width="48" height="48" viewBox="0 0 48 48" xmlns="http://www.w3.org/2000/svg">
<path fill-rule="evenodd" clip-rule="evenodd" d="M29.707 16.0071C29.707 11.9754 32.9754 8.70709 37.007 8.70709C41.0387 8.70709 44.307 11.9754 44.307 16.0071C44.307 20.0388 41.0387 23.3071 37.007 23.3071C32.9754 23.3071 29.707 20.0388 29.707 16.0071ZM37.007 7.70709C32.4231 7.70709 28.707 11.4231 28.707 16.0071C28.707 20.5911 32.4231 24.3071 37.007 24.3071C41.591 24.3071 45.307 20.5911 45.307 16.0071C45.307 11.4231 41.591 7.70709 37.007 7.70709ZM5 15.5C4.86739 15.5 4.74021 15.5527 4.64645 15.6464C4.55268 15.7402 4.5 15.8674 4.5 16V38C4.5 38.2761 4.72386 38.5 5 38.5H37C37.2761 38.5 37.5 38.2761 37.5 38V27C37.5 26.7239 37.2761 26.5 37 26.5C36.7239 26.5 36.5 26.7239 36.5 27V36.7392L26.7075 26.3346L29.092 24.0991C29.2934 23.9103 29.3036 23.5939 29.1148 23.3924C28.9259 23.1909 28.6095 23.1807 28.408 23.3696L25.658 25.9477L21 30.3146L16.542 26.1352L6.26439 16.5H26C26.2761 16.5 26.5 16.2761 26.5 16C26.5 15.7239 26.2761 15.5 26 15.5H5ZM25.9779 27.0186L35.8428 37.5H6.1849L16.2159 27.2003L20.658 31.3648C20.8504 31.5451 21.1496 31.5451 21.342 31.3648L25.9779 27.0186ZM5.5 17.1541V36.77L15.4863 26.5162L5.5 17.1541ZM40.8896 12.1465C41.0848 12.3418 41.0848 12.6584 40.8896 12.8536L37.7251 16.0181L40.8896 19.1825C41.0848 19.3778 41.0848 19.6943 40.8896 19.8896C40.6943 20.0849 40.3777 20.0849 40.1824 19.8896L37.018 16.7252L33.8536 19.8896C33.6583 20.0849 33.3417 20.0849 33.1464 19.8896C32.9512 19.6943 32.9512 19.3778 33.1464 19.1825L36.3109 16.0181L33.1464 12.8536C32.9512 12.6584 32.9512 12.3418 33.1464 12.1465C33.3417 11.9512 33.6583 11.9512 33.8536 12.1465L37.018 15.311L40.1824 12.1465C40.3777 11.9512 40.6943 11.9512 40.8896 12.1465Z"/>
</svg>
