<svg width="48" height="48" viewBox="0 0 48 48" xmlns="http://www.w3.org/2000/svg">
<path fill-rule="evenodd" clip-rule="evenodd" d="M25.5 5.5C25.5 5.22386 25.2761 5 25 5H6C5.72386 5 5.5 5.22386 5.5 5.5V18.5C5.5 18.7761 5.72386 19 6 19H25C25.2761 19 25.5 18.7761 25.5 18.5V5.5ZM23.7452 6L18.0863 11.3611L15.5 13.8112L12.8439 11.2949L7.25479 6H23.7452ZM6.5 6.66243L11.7927 11.6765L6.5 17.2477V6.66243ZM7.16466 18L12.5186 12.3643L15.1561 14.863C15.349 15.0457 15.651 15.0457 15.8439 14.863L18.4153 12.4269L23.8188 18H7.16466ZM24.5 17.266V6.66243L19.1413 11.7391L24.5 17.266ZM25.5 29.5C25.5 29.2239 25.2761 29 25 29H6C5.72386 29 5.5 29.2239 5.5 29.5V42.5C5.5 42.7761 5.72386 43 6 43H25C25.2761 43 25.5 42.7761 25.5 42.5V29.5ZM23.7452 30L18.0863 35.3611L15.5 37.8112L12.8439 35.2949L7.25479 30H23.7452ZM6.5 30.6624L11.7927 35.6765L6.5 41.2477V30.6624ZM7.16466 42L12.5186 36.3643L15.1561 38.863C15.349 39.0457 15.651 39.0457 15.8439 38.863L18.4153 36.4269L23.8188 42H7.16466ZM24.5 41.266V30.6624L19.1413 35.7391L24.5 41.266ZM29.5 12C29.5 11.7239 29.7239 11.5 30 11.5L35.5 11.5C39.8602 11.5 43.0264 12.3488 45.0888 14.4112C47.1512 16.4736 48 19.6398 48 24C48 28.3602 47.1512 31.5264 45.0888 33.5888C43.0264 35.6512 39.8602 36.5 35.5 36.5H30.7071L32.8535 38.6464C33.0488 38.8417 33.0488 39.1583 32.8535 39.3536C32.6583 39.5488 32.3417 39.5488 32.1464 39.3536L29.1464 36.3536C28.9512 36.1583 28.9512 35.8417 29.1464 35.6464L32.1464 32.6464C32.3417 32.4512 32.6583 32.4512 32.8536 32.6464C33.0488 32.8417 33.0488 33.1583 32.8536 33.3536L30.7071 35.5H35.5C39.7672 35.5 42.601 34.6625 44.3817 32.8817C46.1625 31.101 47 28.2672 47 24C47 19.7328 46.1625 16.899 44.3817 15.1183C42.601 13.3375 39.7672 12.5 35.5 12.5L30 12.5C29.7239 12.5 29.5 12.2761 29.5 12Z"/>
</svg>
