<svg width="48" height="48" viewBox="0 0 48 48" xmlns="http://www.w3.org/2000/svg">
<path fill-rule="evenodd" clip-rule="evenodd" d="M7 13.5C7 13.2239 7.22386 13 7.5 13H39.5C39.7761 13 40 13.2239 40 13.5V35.5C40 35.7761 39.7761 36 39.5 36H7.5C7.22386 36 7 35.7761 7 35.5V13.5ZM8.76439 14L19.042 23.6352L23.5 27.8146L28.158 23.4477L38.2356 14H8.76439ZM39 14.6541L29.2075 23.8346L39 34.2392V14.6541ZM38.3428 35L28.4779 24.5186L23.842 28.8648C23.6496 29.0451 23.3504 29.0451 23.158 28.8648L18.7159 24.7003L8.6849 35H38.3428ZM8 34.27V14.6541L17.9863 24.0162L8 34.27Z"/>
</svg>
