<svg width="48" height="48" viewBox="0 0 48 48" xmlns="http://www.w3.org/2000/svg">
<path fill-rule="evenodd" clip-rule="evenodd" d="M43.6883 6.69887L43.1563 6.13689L36.9628 12H33.8809L32.9367 8.57082C32.5185 7.0522 31.1374 6 29.5623 6H18.4377C16.8626 6 15.4815 7.0522 15.0633 8.57082L14.1191 12H7.5C5.01472 12 3 14.0147 3 16.5V32.5C3 34.9853 5.01472 37 7.5 37H10.5544L5.65626 41.6369L6.2643 42.2792L43.6883 6.69887ZM13.2684 37H39.5C41.9853 37 44 34.9853 44 32.5V16.5C44 14.0359 42.0194 12.0343 39.5633 12.0004L38.5119 13H39.5C41.433 13 43 14.567 43 16.5V32.5C43 34.433 41.433 36 39.5 36H14.3202L13.2684 37ZM18.4431 32.0801C19.9733 33.2827 21.9029 34 24 34C28.9706 34 33 29.9706 33 25C33 23.066 32.39 21.2745 31.3519 19.8074L30.6185 20.5046C31.4904 21.7858 32 23.3334 32 25C32 29.4183 28.4183 33 24 33C22.1885 33 20.5176 32.3979 19.1765 31.3829L18.4431 32.0801ZM20.6522 29.9799C21.6085 30.624 22.7603 31 24 31C27.3137 31 30 28.3137 30 25C30 23.8688 29.687 22.8107 29.1428 21.9076L28.3967 22.617C28.7814 23.3254 29 24.1372 29 25C29 27.7614 26.7614 30 24 30C23.047 30 22.1562 29.7334 21.3983 29.2706L20.6522 29.9799ZM34.1563 13H35.9065L30.1609 18.4392C28.5507 16.9266 26.3836 16 24 16C19.0294 16 15 20.0294 15 25C15 27.2063 15.7939 29.2272 17.1116 30.7925L11.6107 36H7.5C5.567 36 4 34.433 4 32.5V16.5C4 14.567 5.567 13 7.5 13H13.8437H14.5H33.5H34.1563ZM24 17C26.0975 17 28.0065 17.8072 29.4333 19.128L27.9766 20.507C26.9179 19.5693 25.5254 19 24 19C20.6863 19 18 21.6863 18 25C18 26.4073 18.4845 27.7015 19.2958 28.7248L17.8392 30.1037C16.6905 28.7187 16 26.94 16 25C16 20.5817 19.5817 17 24 17ZM24 20C25.2394 20 26.3734 20.4509 27.247 21.1977L20.0254 28.0341C19.3822 27.1926 19 26.141 19 25C19 22.2386 21.2386 20 24 20ZM31.9725 8.8363L32.8437 12H15.1563L16.0275 8.8363C16.3261 7.75157 17.3126 7 18.4377 7H29.5623C30.6874 7 31.6739 7.75157 31.9725 8.8363ZM38 17.5C38 17.2239 38.2239 17 38.5 17C38.7761 17 39 17.2239 39 17.5C39 17.7761 38.7761 18 38.5 18C38.2239 18 38 17.7761 38 17.5ZM38.5 16C37.6716 16 37 16.6716 37 17.5C37 18.3284 37.6716 19 38.5 19C39.3284 19 40 18.3284 40 17.5C40 16.6716 39.3284 16 38.5 16Z"/>
</svg>
