<svg width="48" height="48" viewBox="0 0 48 48" xmlns="http://www.w3.org/2000/svg">
<path fill-rule="evenodd" clip-rule="evenodd" d="M14 15.8333C14 11.6912 17.3579 8.33331 21.5 8.33331H22.5C24.5985 8.33331 26.4964 9.19581 27.8571 10.5844C28.0504 10.7816 28.0472 11.0982 27.8499 11.2915C27.6527 11.4847 27.3362 11.4815 27.1429 11.2843C25.9625 10.0797 24.3189 9.33331 22.5 9.33331H21.5C17.9101 9.33331 15 12.2435 15 15.8333V19.3333H24C24.2761 19.3333 24.5 19.5571 24.5 19.8333C24.5 20.1094 24.2761 20.3333 24 20.3333H10V37.6666H34V30.5C34 30.2238 34.2239 30 34.5 30C34.7761 30 35 30.2238 35 30.5V38.1666C35 38.4428 34.7761 38.6666 34.5 38.6666H9.5C9.22386 38.6666 9 38.4428 9 38.1666V19.8333C9 19.5571 9.22386 19.3333 9.5 19.3333H14V15.8333ZM20 28.0909C20 27.0425 20.8808 26.1666 22 26.1666C23.1192 26.1666 24 27.0425 24 28.0909C24 28.7948 23.6061 29.4177 23.0054 29.7547C22.8724 29.8293 22.7957 29.9378 22.7535 30.0128C22.7096 30.0907 22.6812 30.1713 22.6616 30.2391C22.6227 30.3739 22.5982 30.5313 22.5793 30.6796C22.5623 30.8133 22.549 30.942 22.5356 31.0715L22.5356 31.0716C22.5154 31.2665 22.495 31.463 22.4616 31.6802C22.4083 32.0279 22.3357 32.3058 22.2346 32.4866C22.1464 32.6443 22.078 32.6666 22 32.6666C21.922 32.6666 21.8536 32.6443 21.7654 32.4866C21.6643 32.3058 21.5917 32.0279 21.5384 31.6802C21.505 31.463 21.4846 31.2665 21.4644 31.0715L21.4644 31.0715L21.4644 31.0714L21.4644 31.0714L21.4644 31.0714C21.451 30.9419 21.4377 30.8132 21.4207 30.6796C21.4018 30.5313 21.3773 30.3739 21.3384 30.2391C21.3188 30.1713 21.2904 30.0907 21.2465 30.0128C21.2043 29.9378 21.1276 29.8293 20.9946 29.7547C20.3939 29.4177 20 28.7948 20 28.0909ZM22 25.1666C20.3578 25.1666 19 26.4615 19 28.0909C19 29.1331 19.5585 30.0414 20.3881 30.5575C20.4011 30.6144 20.4146 30.6955 20.4287 30.806C20.4397 30.8925 20.4513 31.0025 20.4642 31.1244C20.4874 31.3441 20.5147 31.6025 20.5499 31.832C20.6068 32.2024 20.6997 32.6298 20.8927 32.9748C21.0986 33.3428 21.453 33.6666 22 33.6666C22.547 33.6666 22.9014 33.3428 23.1073 32.9748C23.3003 32.6298 23.3932 32.2024 23.4501 31.832C23.4853 31.6025 23.5126 31.3441 23.5358 31.1244L23.5358 31.1244C23.5487 31.0025 23.5603 30.8925 23.5713 30.806C23.5854 30.6955 23.5989 30.6144 23.6119 30.5575C24.4415 30.0415 25 29.1331 25 28.0909C25 26.4615 23.6422 25.1666 22 25.1666ZM34 27C37.866 27 41 23.866 41 20C41 16.134 37.866 13 34 13C30.134 13 27 16.134 27 20C27 23.866 30.134 27 34 27ZM34 28C38.4183 28 42 24.4183 42 20C42 15.5817 38.4183 12 34 12C29.5817 12 26 15.5817 26 20C26 24.4183 29.5817 28 34 28ZM33 19H31.0172C31.4863 17.3301 32.8164 16.5 34.4091 16.5C36.4029 16.5 38 18.0775 38 20C38 21.9224 36.4029 23.5 34.4091 23.5C33.5973 23.5 32.8506 23.238 32.2505 22.7973C32.028 22.6338 31.715 22.6817 31.5516 22.9043C31.3881 23.1269 31.436 23.4398 31.6586 23.6033C32.4259 24.1668 33.379 24.5 34.4091 24.5C36.9339 24.5 39 22.4958 39 20C39 17.5042 36.9339 15.5 34.4091 15.5C32.4999 15.5 30.7968 16.4965 30.1309 18.481L29.4642 16.8143C29.3617 16.5579 29.0707 16.4332 28.8143 16.5357C28.5579 16.6383 28.4332 16.9293 28.5358 17.1857L29.5358 19.6857C29.6117 19.8755 29.7955 20 30 20H33C33.2761 20 33.5 19.7761 33.5 19.5C33.5 19.2238 33.2761 19 33 19Z"/>
</svg>
