<svg width="48" height="48" viewBox="0 0 48 48" xmlns="http://www.w3.org/2000/svg">
<path fill-rule="evenodd" clip-rule="evenodd" d="M14 15.8333C14 11.6912 17.3579 8.33331 21.5 8.33331H22.5C24.5985 8.33331 26.4964 9.19581 27.8571 10.5844C28.0504 10.7816 28.0472 11.0982 27.8499 11.2915C27.6527 11.4847 27.3362 11.4815 27.1429 11.2843C25.9625 10.0797 24.3189 9.33331 22.5 9.33331H21.5C17.9101 9.33331 15 12.2435 15 15.8333V19.3333H24C24.2761 19.3333 24.5 19.5571 24.5 19.8333C24.5 20.1094 24.2761 20.3333 24 20.3333H10V37.6666H34V30.5C34 30.2238 34.2239 30 34.5 30C34.7761 30 35 30.2238 35 30.5V38.1666C35 38.4428 34.7761 38.6666 34.5 38.6666H9.5C9.22386 38.6666 9 38.4428 9 38.1666V19.8333C9 19.5571 9.22386 19.3333 9.5 19.3333H14V15.8333ZM20 28.0909C20 27.0425 20.8808 26.1666 22 26.1666C23.1192 26.1666 24 27.0425 24 28.0909C24 28.7948 23.6061 29.4177 23.0054 29.7547C22.8724 29.8293 22.7957 29.9378 22.7535 30.0128C22.7096 30.0907 22.6812 30.1713 22.6616 30.2391C22.6227 30.3739 22.5982 30.5313 22.5793 30.6796C22.5623 30.8133 22.549 30.942 22.5356 31.0715L22.5356 31.0716C22.5154 31.2665 22.495 31.463 22.4616 31.6802C22.4083 32.0279 22.3357 32.3058 22.2346 32.4866C22.1464 32.6443 22.078 32.6666 22 32.6666C21.922 32.6666 21.8536 32.6443 21.7654 32.4866C21.6643 32.3058 21.5917 32.0279 21.5384 31.6802C21.505 31.463 21.4846 31.2665 21.4644 31.0715L21.4644 31.0715L21.4644 31.0714L21.4644 31.0714L21.4644 31.0714C21.451 30.9419 21.4377 30.8132 21.4207 30.6796C21.4018 30.5313 21.3773 30.3739 21.3384 30.2391C21.3188 30.1713 21.2904 30.0907 21.2465 30.0128C21.2043 29.9378 21.1276 29.8293 20.9946 29.7547C20.3939 29.4177 20 28.7948 20 28.0909ZM22 25.1666C20.3578 25.1666 19 26.4615 19 28.0909C19 29.1331 19.5585 30.0414 20.3881 30.5575C20.4011 30.6144 20.4146 30.6955 20.4287 30.806C20.4397 30.8925 20.4513 31.0025 20.4642 31.1244C20.4874 31.3441 20.5147 31.6025 20.5499 31.832C20.6068 32.2024 20.6997 32.6298 20.8927 32.9748C21.0986 33.3428 21.453 33.6666 22 33.6666C22.547 33.6666 22.9014 33.3428 23.1073 32.9748C23.3003 32.6298 23.3932 32.2024 23.4501 31.832C23.4853 31.6025 23.5126 31.3441 23.5358 31.1244L23.5358 31.1244C23.5487 31.0025 23.5603 30.8925 23.5713 30.806C23.5854 30.6955 23.5989 30.6144 23.6119 30.5575C24.4415 30.0415 25 29.1331 25 28.0909C25 26.4615 23.6422 25.1666 22 25.1666ZM34 12.7C29.9683 12.7 26.7 15.9683 26.7 20C26.7 24.0317 29.9683 27.3 34 27.3C38.0316 27.3 41.2999 24.0317 41.2999 20C41.2999 19.1077 41.1401 18.2538 40.8478 17.4647C40.7519 17.2058 40.8841 16.9181 41.143 16.8222C41.402 16.7263 41.6897 16.8585 41.7856 17.1174C42.1184 18.016 42.2999 18.9874 42.2999 20C42.2999 24.584 38.5839 28.3 34 28.3C29.416 28.3 25.7 24.584 25.7 20C25.7 15.416 29.416 11.7 34 11.7C36.0693 11.7 37.963 12.458 39.4164 13.7108C39.6256 13.8911 39.649 14.2068 39.4687 14.416C39.2884 14.6251 38.9727 14.6485 38.7635 14.4682C37.4847 13.366 35.8207 12.7 34 12.7ZM41.5536 15.1535C41.7488 14.9583 41.7488 14.6417 41.5536 14.4464C41.3583 14.2512 41.0417 14.2512 40.8464 14.4464L33.4 21.8929L30.3536 18.8464C30.1583 18.6512 29.8417 18.6512 29.6464 18.8464C29.4512 19.0417 29.4512 19.3583 29.6464 19.5535L33.0464 22.9535C33.2417 23.1488 33.5583 23.1488 33.7536 22.9535L41.5536 15.1535Z"/>
</svg>
