<svg width="48" height="48" viewBox="0 0 48 48" xmlns="http://www.w3.org/2000/svg">
<path fill-rule="evenodd" clip-rule="evenodd" d="M14.5 10C11.4624 10 9 12.4624 9 15.5C9 18.5376 11.4624 21 14.5 21C17.5376 21 20 18.5376 20 15.5C20 12.4624 17.5376 10 14.5 10ZM8 15.5C8 11.9101 10.9101 9 14.5 9C18.0899 9 21 11.9101 21 15.5C21 19.0899 18.0899 22 14.5 22C10.9101 22 8 19.0899 8 15.5ZM37.8536 10.1464C38.0488 10.3417 38.0488 10.6583 37.8536 10.8536L10.8536 37.8536C10.6583 38.0488 10.3417 38.0488 10.1464 37.8536C9.95119 37.6583 9.95119 37.3417 10.1464 37.1464L37.1464 10.1464C37.3417 9.95118 37.6583 9.95118 37.8536 10.1464ZM28 32.5C28 29.4624 30.4624 27 33.5 27C36.5376 27 39 29.4624 39 32.5C39 35.5376 36.5376 38 33.5 38C30.4624 38 28 35.5376 28 32.5ZM33.5 26C29.9101 26 27 28.9101 27 32.5C27 36.0899 29.9101 39 33.5 39C37.0899 39 40 36.0899 40 32.5C40 28.9101 37.0899 26 33.5 26Z"/>
</svg>
