<svg width="48" height="48" viewBox="0 0 48 48" xmlns="http://www.w3.org/2000/svg">
<path fill-rule="evenodd" clip-rule="evenodd" d="M27.4092 6.11864C28.5363 5.85468 29.4571 5.96355 29.9343 6.42058C30.4528 6.9172 30.6528 7.70658 30.4594 8.65556C30.2666 9.601 29.6885 10.6477 28.7478 11.5487C27.8705 12.389 26.4964 12.7557 25.2791 12.8461C24.6791 12.8907 24.1479 12.8655 23.7795 12.8099C23.6812 12.795 23.6005 12.7789 23.5369 12.7634C23.525 12.3222 23.5078 11.4677 23.5973 10.5293C23.6544 9.93028 23.7537 9.31785 23.9192 8.7812C24.087 8.23678 24.3091 7.81657 24.5801 7.55697C25.2196 6.94446 26.3131 6.37533 27.4092 6.11864ZM27.1666 5.16842C25.9202 5.46031 24.6506 6.10602 23.8579 6.86527C23.4582 7.24811 23.1882 7.77108 23.0004 8.31748C22.8127 7.77108 22.5427 7.24811 22.143 6.86527C21.3502 6.10602 20.0807 5.46031 18.8343 5.16842C17.6189 4.88379 16.2176 4.89261 15.3444 5.72888C14.5126 6.52555 14.3032 7.68564 14.5391 8.84303C14.7758 10.004 15.4661 11.2205 16.5309 12.2404C16.8099 12.5077 17.1217 12.7334 17.4529 12.9233L6.49949 12.9275C5.67128 12.9278 5.00006 13.5993 5.00006 14.4275V20.1835C5.00006 21.0119 5.67163 21.6835 6.50006 21.6835H8.68433V41.5114C8.68433 42.3398 9.3559 43.0114 10.1843 43.0114H30.0004C30.2766 43.0114 30.5004 42.7875 30.5004 42.5114C30.5004 42.2353 30.2766 42.0114 30.0004 42.0114H23.5001V21.6835H36.3164V26.5114C36.3164 26.7875 36.5402 27.0114 36.8164 27.0114C37.0925 27.0114 37.3164 26.7875 37.3164 26.5114V21.6835H39.5006C40.3291 21.6835 41.0006 21.0119 41.0006 20.1835V14.4149C41.0006 13.5863 40.3287 12.9146 39.5001 12.9149L28.5553 12.9191C28.8838 12.7301 29.193 12.5057 29.47 12.2404C30.5348 11.2205 31.2251 10.004 31.4618 8.84303C31.6977 7.68564 31.4882 6.52555 30.6565 5.72888C29.7833 4.89261 28.382 4.88379 27.1666 5.16842ZM6.49987 13.9275L22.5001 13.9214V20.6835H9.18433H6.50006C6.22392 20.6835 6.00006 20.4596 6.00006 20.1835V14.4275C6.00006 14.1514 6.2238 13.9276 6.49987 13.9275ZM36.8164 20.6835H23.5001V13.921L39.5005 13.9149C39.7767 13.9148 40.0006 14.1387 40.0006 14.4149V20.1835C40.0006 20.4596 39.7768 20.6835 39.5006 20.6835H36.8164ZM9.68433 21.6835H22.5001V42.0114H10.1843C9.90819 42.0114 9.68433 41.7875 9.68433 41.5114V21.6835ZM18.5917 6.11864C17.4645 5.85468 16.5438 5.96355 16.0666 6.42058C15.5481 6.9172 15.348 7.70658 15.5415 8.65556C15.7343 9.601 16.3124 10.6477 17.2531 11.5487C18.1304 12.389 19.5044 12.7557 20.7217 12.8461C21.3218 12.8907 21.853 12.8655 22.2214 12.8099C22.3197 12.795 22.4004 12.7789 22.464 12.7634C22.4759 12.3222 22.4931 11.4677 22.4036 10.5293C22.3465 9.93028 22.2472 9.31785 22.0817 8.7812C21.9139 8.23678 21.6918 7.81657 21.4208 7.55697C20.7813 6.94446 19.6878 6.37533 18.5917 6.11864ZM33.1025 28.1377C32.8961 27.9542 32.5801 27.9728 32.3966 28.1792C32.2132 28.3856 32.2318 28.7016 32.4381 28.8851L35.1039 31.2546H27.5001C27.2239 31.2546 27.0001 31.4785 27.0001 31.7546C27.0001 32.0308 27.2239 32.2546 27.5001 32.2546H35.1038L32.4381 34.6241C32.2318 34.8076 32.2132 35.1236 32.3966 35.33C32.5801 35.5364 32.8961 35.555 33.1025 35.3715L36.7512 32.1283C36.8579 32.0334 36.919 31.8974 36.919 31.7546C36.919 31.6118 36.8579 31.4758 36.7512 31.3809L33.1025 28.1377ZM36.7512 41.7323L34.0854 39.3627H41.6893C41.9654 39.3627 42.1893 39.1389 42.1893 38.8627C42.1893 38.5866 41.9654 38.3627 41.6893 38.3627H34.0854L36.7512 35.9932C36.9576 35.8097 36.9761 35.4937 36.7927 35.2873C36.6092 35.0809 36.2932 35.0623 36.0868 35.2458L32.4382 38.489C32.3314 38.5839 32.2703 38.7199 32.2703 38.8627C32.2703 39.0055 32.3314 39.1415 32.4382 39.2364L36.0868 42.4797C36.2932 42.6631 36.6092 42.6445 36.7927 42.4381C36.9761 42.2318 36.9576 41.9157 36.7512 41.7323Z"/>
</svg>
