<svg width="48" height="48" viewBox="0 0 48 48" xmlns="http://www.w3.org/2000/svg">
<path fill-rule="evenodd" clip-rule="evenodd" d="M17.1558 12.1135C17.1558 8.46096 20.1167 5.5 23.7693 5.5C27.4218 5.5 30.3828 8.46096 30.3828 12.1135V14.6332H17.1558V12.1135ZM16.1558 15.6332V20.2003C16.1558 20.4764 16.3796 20.7003 16.6558 20.7003C16.9319 20.7003 17.1558 20.4764 17.1558 20.2003V15.6332H30.3828V20.2003C30.3828 20.4764 30.6066 20.7003 30.8828 20.7003C31.1589 20.7003 31.3828 20.4764 31.3828 20.2003V15.6332H36.1499C36.9618 15.6332 37.6263 16.279 37.6493 17.0905L38.2697 38.9009C38.3257 40.8721 36.743 42.5004 34.7711 42.5004H12.7695C10.7975 42.5004 9.21483 40.8721 9.27089 38.9009L9.89121 17.0905C9.91429 16.279 10.5788 15.6332 11.3906 15.6332H16.1558ZM16.1558 14.6332V12.1135C16.1558 7.90868 19.5644 4.5 23.7693 4.5C27.9741 4.5 31.3828 7.90868 31.3828 12.1135V14.6332H36.1499C37.503 14.6332 38.6105 15.7096 38.6489 17.0621L39.2693 38.8725C39.3413 41.4068 37.3065 43.5004 34.7711 43.5004H12.7695C10.2341 43.5004 8.19921 41.4068 8.2713 38.8725L8.89162 17.0621C8.93008 15.7096 10.0376 14.6332 11.3906 14.6332H16.1558Z"/>
</svg>
