<svg width="48" height="48" viewBox="0 0 48 48" xmlns="http://www.w3.org/2000/svg">
<path d="M22.2065 9.34186C22.9401 7.85537 25.0598 7.85537 25.7934 9.34186L29.3371 16.5222C29.6285 17.1125 30.1916 17.5216 30.843 17.6163L38.767 18.7677C40.4074 19.0061 41.0625 21.022 39.8754 22.1791L34.1416 27.7682C33.6702 28.2277 33.4551 28.8897 33.5664 29.5385L34.92 37.4305C35.2002 39.0643 33.4853 40.3102 32.0181 39.5388L24.9306 35.8127C24.348 35.5064 23.6519 35.5064 23.0693 35.8127L15.9818 39.5388C14.5146 40.3102 12.7997 39.0643 13.0799 37.4305L14.4335 29.5385C14.5448 28.8897 14.3297 28.2277 13.8583 27.7682L8.12447 22.1791C6.93744 21.022 7.59246 19.0061 9.2329 18.7677L17.1569 17.6163C17.8083 17.5216 18.3714 17.1125 18.6628 16.5222L22.2065 9.34186Z"/>
</svg>
