<svg width="48" height="48" viewBox="0 0 48 48" xmlns="http://www.w3.org/2000/svg">
<path fill-rule="evenodd" clip-rule="evenodd" d="M44.5658 11.1302C44.8419 11.1262 45.0625 10.8992 45.0585 10.6231L44.5586 10.6302C45.0585 10.6231 45.0585 10.6229 45.0585 10.6228L45.0585 10.6225L45.0585 10.6217L45.0585 10.6195L45.0583 10.613L45.0577 10.5911C45.0572 10.5727 45.0562 10.5467 45.0546 10.5137C45.0513 10.4476 45.0454 10.3533 45.0347 10.235C45.0134 9.99872 44.9731 9.66562 44.8967 9.27068C44.7445 8.48376 44.4461 7.43546 43.8576 6.41614C43.2691 5.39683 42.5105 4.61426 41.9051 4.08899C41.6012 3.82537 41.3329 3.6239 41.1389 3.48731C41.0418 3.41895 40.9631 3.36667 40.9075 3.33081C40.8797 3.31288 40.8577 3.29904 40.8421 3.28934L40.8234 3.27788L40.8178 3.27449L40.816 3.27338L40.8153 3.27297L40.815 3.2728C40.8149 3.27273 40.8148 3.27266 40.5586 3.70204L40.8148 3.27266C40.5776 3.13117 40.2707 3.20872 40.1292 3.44586C39.9878 3.68284 40.0652 3.98951 40.3019 4.13113L40.3024 4.13143L40.3039 4.13235L40.3152 4.13929C40.3259 4.14591 40.3428 4.15652 40.3653 4.17106C40.4104 4.20015 40.4779 4.24491 40.5632 4.30498C40.734 4.42522 40.9751 4.60606 41.2497 4.84431C41.8012 5.3228 42.4755 6.02229 42.9916 6.91614C43.5077 7.81 43.7763 8.74374 43.9149 9.46058C43.9839 9.81752 44.02 10.1167 44.0387 10.3248C44.0481 10.4287 44.0531 10.5095 44.0558 10.5631C44.0564 10.5765 44.057 10.5882 44.0574 10.5981C44.0578 10.608 44.058 10.6161 44.0582 10.6224L44.0586 10.6356L44.0586 10.6374L44.0586 10.6376C44.0627 10.9136 44.2897 11.1341 44.5658 11.1302ZM22.7885 6.52503C23.6293 6.30013 24.513 6.18023 25.4246 6.18023C26.3363 6.18023 27.2199 6.30013 28.0607 6.52503C27.7496 5.35859 26.6869 4.49999 25.4246 4.49999C24.1623 4.49999 23.0997 5.35859 22.7885 6.52503ZM29.1364 6.87849C28.9585 4.98359 27.3651 3.49999 25.4246 3.49999C23.4841 3.49999 21.8907 4.98359 21.7128 6.87848C17.9248 8.36319 15.2419 12.0534 15.2396 16.3705C15.1593 19.9882 14.6568 25.6795 14.4888 27.5036C14.4656 27.7558 14.3488 28.0039 14.1555 28.2203C12.3709 30.2185 11.9671 32.3201 11.9255 33.6543C11.8911 34.7561 12.8318 35.46 13.8036 35.46H20.9164C21.165 37.7317 23.0881 39.5 25.4246 39.5C27.7611 39.5 29.6842 37.7317 29.9328 35.46H37.0456C38.0174 35.46 38.9581 34.7561 38.9237 33.6543C38.8821 32.3201 38.4783 30.2185 36.6937 28.2203C36.5004 28.0039 36.3836 27.7558 36.3604 27.5036C36.1924 25.6795 35.6899 19.9882 35.6096 16.3705C35.6073 12.0534 32.9245 8.3632 29.1364 6.87849ZM28.925 35.46H25.4246H21.9242C22.1668 37.1787 23.642 38.5 25.4246 38.5C27.2072 38.5 28.6824 37.1787 28.925 35.46ZM25.4246 7.18023C20.3524 7.18023 16.2396 11.2969 16.2396 16.3762V16.3872L16.2395 16.3872C16.1587 20.0452 15.6522 25.7759 15.4846 27.5953C15.4385 28.0963 15.2116 28.5391 14.9014 28.8864C13.3121 30.6659 12.9614 32.5204 12.925 33.6855C12.9121 34.0977 13.2624 34.46 13.8036 34.46H25.4246H37.0456C37.5868 34.46 37.9371 34.0977 37.9242 33.6855C37.8878 32.5204 37.5371 30.6659 35.9478 28.8864C35.6376 28.5391 35.4108 28.0963 35.3646 27.5953C35.197 25.7759 34.6906 20.0452 34.6097 16.3872L34.6095 16.3762H34.6096C34.6096 11.2969 30.4968 7.18023 25.4246 7.18023ZM24.5388 28.0921C24.5388 27.8159 24.7626 27.5921 25.0388 27.5921H32.6883C32.9645 27.5921 33.1883 27.8159 33.1883 28.0921C33.1883 28.3682 32.9645 28.5921 32.6883 28.5921H25.0388C24.7626 28.5921 24.5388 28.3682 24.5388 28.0921ZM12.5852 40.8287C12.8599 40.8572 13.1056 40.6576 13.1341 40.3829C13.1626 40.1083 12.9631 39.8626 12.6886 39.834L12.6883 39.834L12.6856 39.8337L12.6687 39.8317C12.6529 39.8297 12.6279 39.8265 12.5947 39.8217C12.5282 39.812 12.4289 39.7961 12.3033 39.7716C12.0516 39.7225 11.6965 39.6395 11.2893 39.5047C10.4697 39.2332 9.46862 38.7613 8.66812 37.9608C7.86763 37.1603 7.39575 36.1592 7.12425 35.3396C6.98939 34.9324 6.90637 34.5773 6.8573 34.3256C6.83281 34.2 6.81688 34.1007 6.80723 34.0342C6.80241 34.001 6.79916 33.976 6.7972 33.9602L6.79519 33.9433L6.79489 33.9406L6.79486 33.9403L6.79482 33.94C6.76606 33.6656 6.52048 33.4664 6.24601 33.4948C5.97134 33.5233 5.77175 33.769 5.80021 34.0437L6.29755 33.9921C5.80021 34.0437 5.80023 34.0438 5.80025 34.044L5.80029 34.0444L5.80039 34.0453L5.80066 34.0479L5.80155 34.0559L5.80474 34.0827C5.80754 34.1054 5.81172 34.1374 5.81761 34.1779C5.82937 34.2589 5.84794 34.3742 5.87578 34.517C5.93139 34.8022 6.02439 35.1994 6.17497 35.654C6.47436 36.5578 7.01099 37.7179 7.96102 38.6679C8.91105 39.6179 10.0711 40.1546 10.9749 40.4539C11.4295 40.6045 11.8267 40.6975 12.1119 40.7531C12.2547 40.781 12.37 40.7995 12.451 40.8113C12.4915 40.8172 12.5235 40.8214 12.5462 40.8242L12.573 40.8274L12.581 40.8282L12.5836 40.8285L12.5845 40.8286L12.5849 40.8287C12.5851 40.8287 12.5852 40.8287 12.6368 40.3314L12.5852 40.8287ZM40.8156 14.1795C41.0883 14.2231 41.3447 14.0374 41.3883 13.7647L40.8946 13.6858C41.3883 13.7647 41.3883 13.7646 41.3884 13.7644L41.3884 13.764L41.3886 13.7631L41.389 13.7605L41.3902 13.7526L41.394 13.7258C41.3972 13.7032 41.4014 13.6712 41.4062 13.6306C41.4159 13.5493 41.4278 13.4331 41.4378 13.288C41.4579 12.9981 41.4709 12.5904 41.4431 12.1123C41.3878 11.1618 41.1697 9.90237 40.498 8.73882C39.8262 7.57528 38.8446 6.7567 38.049 6.23359C37.6489 5.97048 37.2893 5.77784 37.0282 5.65031C36.8975 5.58646 36.7909 5.53869 36.7157 5.50636C36.6781 5.49019 36.6483 5.47786 36.6271 5.4693L36.602 5.45927L36.5946 5.45635L36.5921 5.45541L36.5912 5.45507L36.5909 5.45493C36.5907 5.45487 36.5906 5.45482 36.4121 5.92187L36.5906 5.45482C36.3326 5.35623 36.0436 5.48542 35.945 5.74336C35.8465 6.00112 35.9754 6.28991 36.233 6.3887L36.2333 6.38882L36.2336 6.38892L36.2361 6.38989L36.2519 6.39621C36.2667 6.40222 36.29 6.41182 36.3208 6.42507C36.3825 6.45159 36.4743 6.49268 36.5893 6.54886C36.8197 6.6614 37.1413 6.8335 37.4996 7.06914C38.2211 7.54353 39.0659 8.25842 39.6319 9.23882C40.198 10.2192 40.3947 11.3083 40.4448 12.1703C40.4697 12.5985 40.458 12.963 40.4402 13.2188C40.4314 13.3465 40.421 13.4465 40.4132 13.5132C40.4092 13.5466 40.4059 13.5715 40.4037 13.5874L40.4012 13.6042L40.4009 13.6068L40.4008 13.6071C40.3574 13.8797 40.543 14.1359 40.8156 14.1795ZM8.60086 43.5606C8.86654 43.6359 9.14295 43.4816 9.21824 43.2159C9.29351 42.9503 9.13927 42.674 8.87372 42.5986L8.8735 42.5985L8.8718 42.598L8.8591 42.5942C8.84706 42.5906 8.82799 42.5847 8.80247 42.5765C8.7514 42.5601 8.67459 42.5343 8.57665 42.4984C8.38055 42.4264 8.10088 42.3142 7.77397 42.1551C7.11744 41.8356 6.28503 41.3345 5.5552 40.6047C4.82537 39.8749 4.32425 39.0425 4.0048 38.3859C3.84574 38.059 3.73346 37.7793 3.66152 37.5833C3.62558 37.4853 3.59981 37.4085 3.58338 37.3574C3.57517 37.3319 3.5693 37.3128 3.56567 37.3008L3.56188 37.2881L3.56139 37.2864L3.56123 37.2858C3.48571 37.0205 3.2095 36.8664 2.94401 36.9417C2.67833 37.0169 2.52398 37.2934 2.59927 37.559L3.08033 37.4227C2.59927 37.559 2.59931 37.5592 2.59935 37.5593L2.59944 37.5596L2.59965 37.5604L2.60025 37.5625L2.60208 37.5688L2.60831 37.5897C2.61364 37.6074 2.62131 37.6322 2.63144 37.6637C2.65169 37.7267 2.68181 37.8162 2.72271 37.9277C2.80444 38.1504 2.9296 38.4618 3.1056 38.8235C3.45629 39.5442 4.01583 40.4795 4.84809 41.3118C5.68036 42.1441 6.61572 42.7036 7.33643 43.0543C7.69815 43.2303 8.00946 43.3555 8.2322 43.4372C8.34367 43.4781 8.43325 43.5082 8.4962 43.5285C8.52769 43.5386 8.55254 43.5463 8.57017 43.5516L8.59114 43.5578L8.59744 43.5596L8.59951 43.5602L8.60028 43.5605L8.60059 43.5606C8.60073 43.5606 8.60086 43.5606 8.73718 43.0796L8.60086 43.5606Z"/>
</svg>
