<svg width="48" height="48" viewBox="0 0 48 48" xmlns="http://www.w3.org/2000/svg">
<path fill-rule="evenodd" clip-rule="evenodd" d="M8 5.5C8 5.22386 8.22386 5 8.5 5H34.5C34.7761 5 35 5.22386 35 5.5V38.5C35 38.7761 34.7761 39 34.5 39H8.5C8.22386 39 8 38.7761 8 38.5V5.5ZM9 6V38H34V6H9ZM12 9.5C12 9.22386 12.2239 9 12.5 9H17.5C17.7761 9 18 9.22386 18 9.5C18 9.77614 17.7761 10 17.5 10H13V14H17V13.5C17 13.2239 17.2239 13 17.5 13C17.7761 13 18 13.2239 18 13.5V14.5C18 14.7761 17.7761 15 17.5 15H12.5C12.2239 15 12 14.7761 12 14.5V9.5ZM17.859 10.6519C18.0512 10.8502 18.0463 11.1667 17.8481 11.359L15.7856 13.3589C15.5916 13.547 15.2834 13.547 15.0894 13.3589L14.1519 12.4499C13.9537 12.2576 13.9488 11.9411 14.141 11.7428C14.3333 11.5446 14.6498 11.5397 14.8481 11.732L15.4375 12.3035L17.1519 10.641C17.3502 10.4488 17.6667 10.4537 17.859 10.6519ZM22 9.5C21.7239 9.5 21.5 9.72386 21.5 10C21.5 10.2761 21.7239 10.5 22 10.5H30.5C30.7761 10.5 31 10.2761 31 10C31 9.72386 30.7761 9.5 30.5 9.5H22ZM22 13.5C21.7239 13.5 21.5 13.7239 21.5 14C21.5 14.2761 21.7239 14.5 22 14.5H30.5C30.7761 14.5 31 14.2761 31 14C31 13.7239 30.7761 13.5 30.5 13.5H22ZM12 19.5C12 19.2239 12.2239 19 12.5 19H17.5C17.7761 19 18 19.2239 18 19.5V24.5C18 24.7761 17.7761 25 17.5 25H12.5C12.2239 25 12 24.7761 12 24.5V19.5ZM13 20V24H17V20H13ZM21.5 20C21.5 19.7239 21.7239 19.5 22 19.5H30.5C30.7761 19.5 31 19.7239 31 20C31 20.2761 30.7761 20.5 30.5 20.5H22C21.7239 20.5 21.5 20.2761 21.5 20ZM21.5 24C21.5 23.7239 21.7239 23.5 22 23.5H30.5C30.7761 23.5 31 23.7239 31 24C31 24.2761 30.7761 24.5 30.5 24.5H22C21.7239 24.5 21.5 24.2761 21.5 24ZM12.5 29C12.2239 29 12 29.2239 12 29.5V34.5C12 34.7761 12.2239 35 12.5 35H17.5C17.7761 35 18 34.7761 18 34.5V29.5C18 29.2239 17.7761 29 17.5 29H12.5ZM13 34V30H17V34H13ZM22 29.5C21.7239 29.5 21.5 29.7239 21.5 30C21.5 30.2761 21.7239 30.5 22 30.5H30.5C30.7761 30.5 31 30.2761 31 30C31 29.7239 30.7761 29.5 30.5 29.5H22ZM22 33.5C21.7239 33.5 21.5 33.7239 21.5 34C21.5 34.2761 21.7239 34.5 22 34.5H30.5C30.7761 34.5 31 34.2761 31 34C31 33.7239 30.7761 33.5 30.5 33.5H22ZM37.5 7.5C37.2239 7.5 37 7.72386 37 8C37 8.27614 37.2239 8.5 37.5 8.5H38.5V41.5H11.5V40.5C11.5 40.2239 11.2761 40 11 40C10.7239 40 10.5 40.2239 10.5 40.5V42C10.5 42.2761 10.7239 42.5 11 42.5H39C39.2761 42.5 39.5 42.2761 39.5 42V8C39.5 7.72386 39.2761 7.5 39 7.5H37.5Z"/>
</svg>
