<svg width="48" height="48" viewBox="0 0 48 48" xmlns="http://www.w3.org/2000/svg">
<path fill-rule="evenodd" clip-rule="evenodd" d="M23.5 6.00681C13.9562 6.2671 6.2671 13.9562 6.00681 23.5H8C8.27614 23.5 8.5 23.7239 8.5 24C8.5 24.2761 8.27614 24.5 8 24.5H6.00681C6.2671 34.0438 13.9562 41.7329 23.5 41.9932V40C23.5 39.7239 23.7239 39.5 24 39.5C24.2761 39.5 24.5 39.7239 24.5 40V41.9932C34.0438 41.7329 41.7329 34.0438 41.9932 24.5H40C39.7239 24.5 39.5 24.2761 39.5 24C39.5 23.7239 39.7239 23.5 40 23.5H41.9932C41.7329 13.9562 34.0438 6.2671 24.5 6.00681V8C24.5 8.27614 24.2761 8.5 24 8.5C23.7239 8.5 23.5 8.27614 23.5 8V6.00681ZM43 24C43 34.4934 34.4934 43 24 43C13.5066 43 5 34.4934 5 24C5 13.5066 13.5066 5 24 5C34.4934 5 43 13.5066 43 24ZM24.5 13C24.5 12.7239 24.2761 12.5 24 12.5C23.7239 12.5 23.5 12.7239 23.5 13V24.5C23.5 24.6326 23.5527 24.7598 23.6464 24.8536L27.6464 28.8536C27.8417 29.0488 28.1583 29.0488 28.3536 28.8536C28.5488 28.6583 28.5488 28.3417 28.3536 28.1464L24.5 24.2929V13Z"/>
</svg>
