<svg width="48" height="48" viewBox="0 0 48 48" xmlns="http://www.w3.org/2000/svg">
<path fill-rule="evenodd" clip-rule="evenodd" d="M17.8332 14C17.8332 10.5942 20.5941 7.83331 23.9998 7.83331C27.4056 7.83331 30.1665 10.5942 30.1665 14C30.1665 17.4057 27.4056 20.1666 23.9998 20.1666C20.5941 20.1666 17.8332 17.4057 17.8332 14ZM23.9998 6.83331C20.0418 6.83331 16.8332 10.0419 16.8332 14C16.8332 17.958 20.0418 21.1666 23.9998 21.1666C27.9579 21.1666 31.1665 17.958 31.1665 14C31.1665 10.0419 27.9579 6.83331 23.9998 6.83331ZM11.1665 36.5C11.1665 33.2464 11.9803 30.6391 13.1659 28.8607C14.3559 27.0756 15.8852 26.1667 17.3332 26.1667C18.8818 26.1667 19.6333 26.5424 20.4356 26.9436L20.4429 26.9472C21.3045 27.378 22.2199 27.8333 23.9998 27.8333C24.623 27.8333 25.1447 27.7779 25.6011 27.6835C25.8715 27.6276 26.0454 27.3631 25.9895 27.0926C25.9336 26.8222 25.6691 26.6483 25.3987 26.7042C25.0159 26.7833 24.5626 26.8333 23.9998 26.8333C22.4512 26.8333 21.6997 26.4576 20.8974 26.0565L20.8901 26.0528C20.0285 25.622 19.1131 25.1667 17.3332 25.1667C15.4478 25.1667 13.6438 26.341 12.3338 28.306C11.0194 30.2776 10.1665 33.0869 10.1665 36.5V39C10.1665 39.2761 10.3904 39.5 10.6665 39.5H37.3332C37.6093 39.5 37.8332 39.2761 37.8332 39V37.5C37.8332 37.2238 37.6093 37 37.3332 37C37.057 37 36.8332 37.2238 36.8332 37.5V38.5H11.1665V36.5ZM40.6028 21.7261L30.7259 31.6029C29.651 30.3724 28.9999 28.7623 28.9999 27.0001C28.9999 23.1341 32.1339 20.0001 35.9999 20.0001C37.7621 20.0001 39.3722 20.6512 40.6028 21.7261ZM31.4356 32.3075C32.6611 33.3624 34.256 34.0001 35.9999 34.0001C39.8659 34.0001 42.9999 30.8661 42.9999 27.0001C42.9999 25.2562 42.3622 23.6613 41.3073 22.4358L31.4356 32.3075ZM43.9999 27.0001C43.9999 31.4183 40.4182 35.0001 35.9999 35.0001C31.5816 35.0001 27.9999 31.4183 27.9999 27.0001C27.9999 22.5818 31.5816 19.0001 35.9999 19.0001C40.4182 19.0001 43.9999 22.5818 43.9999 27.0001Z"/>
</svg>
