<svg width="48" height="48" viewBox="0 0 48 48" xmlns="http://www.w3.org/2000/svg">
<path fill-rule="evenodd" clip-rule="evenodd" d="M17.8332 14C17.8332 10.5942 20.5941 7.83331 23.9998 7.83331C27.4056 7.83331 30.1665 10.5942 30.1665 14C30.1665 17.4057 27.4056 20.1666 23.9998 20.1666C20.5941 20.1666 17.8332 17.4057 17.8332 14ZM23.9998 6.83331C20.0418 6.83331 16.8332 10.0419 16.8332 14C16.8332 17.958 20.0418 21.1666 23.9998 21.1666C27.9579 21.1666 31.1665 17.958 31.1665 14C31.1665 10.0419 27.9579 6.83331 23.9998 6.83331ZM11.1665 36.5C11.1665 33.2464 11.9803 30.6391 13.1659 28.8607C14.3559 27.0756 15.8852 26.1667 17.3332 26.1667C18.8818 26.1667 19.6333 26.5424 20.4356 26.9436L20.4429 26.9472C21.3045 27.378 22.2199 27.8333 23.9998 27.8333C24.623 27.8333 25.1447 27.7779 25.6011 27.6835C25.8715 27.6276 26.0454 27.3631 25.9895 27.0926C25.9336 26.8222 25.6691 26.6483 25.3987 26.7042C25.0159 26.7833 24.5626 26.8333 23.9998 26.8333C22.4512 26.8333 21.6997 26.4576 20.8974 26.0565L20.8901 26.0528C20.0285 25.622 19.1131 25.1667 17.3332 25.1667C15.4478 25.1667 13.6438 26.341 12.3338 28.306C11.0194 30.2776 10.1665 33.0869 10.1665 36.5V39C10.1665 39.2761 10.3904 39.5 10.6665 39.5H37.3332C37.6093 39.5 37.8332 39.2761 37.8332 39V37.5C37.8332 37.2238 37.6093 37 37.3332 37C37.057 37 36.8332 37.2238 36.8332 37.5V38.5H11.1665V36.5ZM32.8534 23.1464C32.6582 22.9512 32.3416 22.9512 32.1463 23.1464C31.9511 23.3417 31.9511 23.6583 32.1463 23.8536L35.3108 27.018L32.1463 30.1824C31.9511 30.3777 31.9511 30.6943 32.1463 30.8895C32.3416 31.0848 32.6582 31.0848 32.8534 30.8895L36.0179 27.7251L39.1823 30.8895C39.3776 31.0848 39.6942 31.0848 39.8894 30.8895C40.0847 30.6943 40.0847 30.3777 39.8894 30.1824L36.725 27.018L39.8894 23.8536C40.0847 23.6583 40.0847 23.3417 39.8894 23.1464C39.6942 22.9512 39.3776 22.9512 39.1823 23.1464L36.0179 26.3109L32.8534 23.1464ZM42.9999 27C42.9999 30.866 39.8659 34 35.9999 34C32.1339 34 28.9999 30.866 28.9999 27C28.9999 23.134 32.1339 20 35.9999 20C39.8659 20 42.9999 23.134 42.9999 27ZM43.9999 27C43.9999 31.4183 40.4182 35 35.9999 35C31.5816 35 27.9999 31.4183 27.9999 27C27.9999 22.5817 31.5816 19 35.9999 19C40.4182 19 43.9999 22.5817 43.9999 27Z"/>
</svg>
