<svg width="48" height="48" viewBox="0 0 48 48" xmlns="http://www.w3.org/2000/svg">
<path fill-rule="evenodd" clip-rule="evenodd" d="M5.5 9.5C4.11929 9.5 3 10.6193 3 12V38C3 39.3807 4.11929 40.5 5.5 40.5H39.5C40.8807 40.5 42 39.3807 42 38V30.5H42.5C43.6046 30.5 44.5 29.6046 44.5 28.5V21.5C44.5 20.3954 43.6046 19.5 42.5 19.5H42V12C42 10.6193 40.8807 9.5 39.5 9.5H8.25647H7.25647H5.5ZM7.25647 10.5H5.5C4.67157 10.5 4 11.1716 4 12V38C4 38.8284 4.67157 39.5 5.5 39.5H7.25647V10.5ZM8.25647 39.5H39.5C40.3284 39.5 41 38.8284 41 38V30.5H28.5955C27.9358 30.5 27.3185 30.1747 26.9457 29.6305L24.5475 26.1305C24.0806 25.4491 24.0806 24.5509 24.5475 23.8695L26.9457 20.3695C27.3185 19.8253 27.9358 19.5 28.5955 19.5H41V12C41 11.1716 40.3284 10.5 39.5 10.5H8.25647V39.5ZM41.5 29.5H42.5C43.0523 29.5 43.5 29.0523 43.5 28.5V21.5C43.5 20.9477 43.0523 20.5 42.5 20.5H41.5H28.5955C28.2657 20.5 27.957 20.6627 27.7706 20.9348L25.3724 24.4348C25.139 24.7754 25.139 25.2246 25.3724 25.5652L27.7706 29.0652C27.957 29.3373 28.2657 29.5 28.5955 29.5H41.5ZM30.839 26.5C31.5322 26.5 32.1943 25.8854 32.1943 25C32.1943 24.1146 31.5322 23.5 30.839 23.5C30.1457 23.5 29.4836 24.1146 29.4836 25C29.4836 25.8854 30.1457 26.5 30.839 26.5ZM30.839 27.5C32.1398 27.5 33.1943 26.3807 33.1943 25C33.1943 23.6193 32.1398 22.5 30.839 22.5C29.5381 22.5 28.4836 23.6193 28.4836 25C28.4836 26.3807 29.5381 27.5 30.839 27.5Z"/>
</svg>
